<svg width="442" height="400" viewBox="0 0 442 400" fill="none" xmlns="http://www.w3.org/2000/svg">
<path d="M233.6 111.9C260.9 115.8 284.2 132 297.6 154.8H299.3L288.7 160.9L358.7 160.1L394.4 99.9L383.8 106L384.4 105C353.7 52.4 298.4 15.9 234.4 11.4L262.2 61L233.6 111.9Z" fill="#00A1EC"/>
<path d="M384.9 293.9C400.8 266.2 409.9 234.1 409.9 200C409.9 170.4 403.1 142.4 390.9 117.5L362.1 166.2L303.5 166.8C307.7 177.1 310 188.3 310 200.1C310 216 305.8 231 298.4 243.9L299.2 245.2L288.6 239.1L324.2 299.4L394.2 300.2L383.6 294.1L384.9 293.9Z" fill="#0094DE"/>
<path d="M151 145.1C167.2 124.5 192.2 111.3 220.3 111L221 109.8V122L255.3 61L221 0V12.2L220.3 11C155.5 11.3 98.4 44.2 64.5 94.2L121.4 94.9L151 145.1Z" fill="#00AEEF"/>
<path d="M208.301 288.1C181.001 284.2 157.701 267.9 144.301 245.1H142.901L153.501 239L83.5008 239.8L47.8008 300L58.4008 293.9L57.7008 295C88.4008 347.5 143.701 384 207.601 388.4L179.701 339L208.301 288.1Z" fill="#0070B6"/>
<path d="M291 254.9C274.8 275.5 249.7 288.8 221.6 289L220.9 290.2V278L186.6 339L221 400V387.8L221.7 389C286.4 388.8 343.6 355.8 377.5 305.9L320.8 305.2L291 254.9Z" fill="#0081CA"/>
<path d="M32 200C32 229.6 38.9 257.7 51.1 282.7L80 233.8L138.4 233.1C134.3 222.9 132 211.7 132 200C132 184.1 136.2 169.1 143.6 156.1L142.9 155L153.5 161.1L117.9 100.8L47.9 99.9L58.5 106H57C41.1 133.8 32 165.8 32 200Z" fill="#005195"/>
<path d="M45.1 171.1C44 170 43.5 168.6 43.5 167C43.5 165.4 44 164 45.1 162.9C46.2 161.8 47.6 161.2 49.3 161.2C51.3 161.2 53.2 162.2 54.1 163.8L52.2 164.9C51.6 163.9 50.6 163.3 49.3 163.3C48.2 163.3 47.3 163.6 46.7 164.3C46 165 45.7 165.9 45.7 167C45.7 168.1 46 169 46.7 169.6C47.4 170.3 48.3 170.6 49.3 170.6C50.6 170.6 51.7 170 52.2 169L54.1 170.1C53.1 171.7 51.3 172.7 49.3 172.7C47.6 172.7 46.2 172.2 45.1 171.1Z" fill="white"/>
<path d="M59.2996 172.7C58.0996 172.7 57.0996 172.3 56.2996 171.5C55.4996 170.7 55.0996 169.7 55.0996 168.5C55.0996 167.3 55.4996 166.3 56.2996 165.5C57.0996 164.7 58.0996 164.3 59.2996 164.3C60.4996 164.3 61.4996 164.7 62.2996 165.5C63.0996 166.3 63.4996 167.3 63.4996 168.5C63.4996 169.7 63.0996 170.7 62.2996 171.5C61.4996 172.3 60.4996 172.7 59.2996 172.7ZM59.2996 170.7C59.8996 170.7 60.3996 170.5 60.8996 170.1C61.3996 169.7 61.4996 169.2 61.4996 168.5C61.4996 167.9 61.2996 167.3 60.8996 166.9C60.4996 166.5 59.9996 166.3 59.2996 166.3C58.5996 166.3 58.1996 166.5 57.6996 166.9C57.2996 167.3 57.0996 167.8 57.0996 168.5C57.0996 169.1 57.2996 169.7 57.6996 170.1C58.1996 170.5 58.6996 170.7 59.2996 170.7Z" fill="white"/>
<path d="M71.6 165.2C72.2 165.8 72.5 166.6 72.5 167.6V172.5H70.4V167.8C70.4 166.7 69.8 166.2 68.8 166.2C67.7 166.2 67 166.9 67 168.2V172.5H65V164.5H67.1V165.4C67.6 164.6 68.4 164.3 69.5 164.3C70.3 164.3 71.1 164.6 71.6 165.2Z" fill="white"/>
<path d="M78.8 166.5H77V169.8C77 170.7 77.6 170.7 78.8 170.6V172.5C76 172.8 74.9 172 74.9 169.8V166.5H73.5V164.5H75V162.9L77.1 162.3V164.5H78.9V166.5H78.8Z" fill="white"/>
<path d="M80.1992 162.6C80.1992 161.9 80.7992 161.4 81.4992 161.4C82.1992 161.4 82.7992 162 82.7992 162.6C82.7992 163.2 82.1992 163.8 81.4992 163.8C80.6992 163.8 80.1992 163.2 80.1992 162.6ZM80.3992 172.5V164.5H82.4992V172.5H80.3992Z" fill="white"/>
<path d="M91.0008 165.2C91.6008 165.8 91.9008 166.6 91.9008 167.6V172.5H89.8008V167.8C89.8008 166.7 89.2008 166.2 88.2008 166.2C87.1008 166.2 86.4008 166.9 86.4008 168.2V172.5H84.3008V164.5H86.4008V165.4C86.9008 164.6 87.7008 164.3 88.8008 164.3C89.7008 164.3 90.4008 164.6 91.0008 165.2Z" fill="white"/>
<path d="M98.9 164.5H101V172.5H98.9V171.6C98.4 172.4 97.6 172.7 96.5 172.7C95.6 172.7 94.9 172.4 94.3 171.8C93.7 171.2 93.5 170.4 93.5 169.4V164.5H95.6V169.2C95.6 170.3 96.2 170.8 97.2 170.8C98.3 170.8 99 170.1 99 168.8V164.5H98.9Z" fill="white"/>
<path d="M106.6 172.7C105.4 172.7 104.4 172.3 103.6 171.5C102.8 170.7 102.4 169.7 102.4 168.5C102.4 167.3 102.8 166.3 103.6 165.5C104.4 164.7 105.4 164.3 106.6 164.3C107.8 164.3 108.8 164.7 109.6 165.5C110.4 166.3 110.8 167.3 110.8 168.5C110.8 169.7 110.4 170.7 109.6 171.5C108.8 172.3 107.8 172.7 106.6 172.7ZM106.6 170.7C107.2 170.7 107.7 170.5 108.2 170.1C108.7 169.7 108.8 169.2 108.8 168.5C108.8 167.9 108.6 167.3 108.2 166.9C107.8 166.5 107.3 166.3 106.6 166.3C105.9 166.3 105.5 166.5 105 166.9C104.6 167.3 104.4 167.8 104.4 168.5C104.4 169.1 104.6 169.7 105 170.1C105.5 170.5 106 170.7 106.6 170.7Z" fill="white"/>
<path d="M117.599 164.5H119.699V172.5H117.599V171.6C117.099 172.4 116.299 172.7 115.199 172.7C114.299 172.7 113.599 172.4 112.999 171.8C112.399 171.2 112.199 170.4 112.199 169.4V164.5H114.299V169.2C114.299 170.3 114.899 170.8 115.899 170.8C116.999 170.8 117.699 170.1 117.699 168.8V164.5H117.599Z" fill="white"/>
<path d="M124.9 167.7C126.1 167.9 127.6 168.5 127.6 170.2C127.6 171 127.3 171.7 126.7 172.1C126.1 172.5 125.3 172.8 124.4 172.8C122.8 172.8 121.6 172.2 121 170.9L122.8 169.9C123 170.6 123.6 170.9 124.4 170.9C125.1 170.9 125.5 170.7 125.5 170.2C125.5 169.8 124.9 169.5 124 169.3C122.8 169 121.3 168.5 121.3 166.8C121.3 166 121.6 165.4 122.2 164.9C122.8 164.4 123.5 164.2 124.4 164.2C125.7 164.2 126.8 164.8 127.4 165.9L125.6 166.9C125.3 166.4 124.9 166.1 124.3 166.1C123.8 166.1 123.4 166.4 123.4 166.8C123.4 167.2 124 167.5 124.9 167.7Z" fill="white"/>
<path d="M56.2 182.6H51.7V185.3H56.1V187.4H51.7V191.7H49.5V180.5H56.2V182.6V182.6Z" fill="white"/>
<path d="M59.5004 188.6C59.8004 189.6 60.5004 190.1 61.8004 190.1C62.6004 190.1 63.2004 189.8 63.6004 189.3L65.3004 190.3C64.5004 191.4 63.3004 192 61.8004 192C60.5004 192 59.4004 191.6 58.6004 190.8C57.8004 190 57.4004 189 57.4004 187.8C57.4004 186.6 57.8004 185.6 58.6004 184.8C59.4004 184 60.4004 183.6 61.6004 183.6C62.8004 183.6 63.7004 184 64.5004 184.8C65.3004 185.6 65.7004 186.6 65.7004 187.8C65.7004 188.1 65.7004 188.3 65.6004 188.6H59.5004ZM63.6004 187C63.4004 185.9 62.6004 185.4 61.6004 185.4C60.5004 185.4 59.7004 186 59.5004 187H63.6004Z" fill="white"/>
<path d="M68.7992 188.6C69.0992 189.6 69.7992 190.1 71.0992 190.1C71.8992 190.1 72.4992 189.8 72.8992 189.3L74.5992 190.3C73.7992 191.4 72.5992 192 71.0992 192C69.7992 192 68.6992 191.6 67.8992 190.8C67.0992 190 66.6992 189 66.6992 187.8C66.6992 186.6 67.0992 185.6 67.8992 184.8C68.6992 184 69.6992 183.6 70.8992 183.6C72.0992 183.6 72.9992 184 73.7992 184.8C74.5992 185.6 74.9992 186.6 74.9992 187.8C74.9992 188.1 74.9992 188.3 74.8992 188.6H68.7992ZM72.8992 187C72.6992 185.9 71.8992 185.4 70.8992 185.4C69.7992 185.4 68.9992 186 68.7992 187H72.8992Z" fill="white"/>
<path d="M82.4004 180.5H84.5004V191.7H82.4004V190.8C81.8004 191.6 80.9004 192 79.8004 192C78.7004 192 77.8004 191.6 77.0004 190.8C76.2004 190 75.9004 189 75.9004 187.8C75.9004 186.6 76.3004 185.6 77.0004 184.8C77.8004 184 78.7004 183.6 79.8004 183.6C80.9004 183.6 81.8004 184 82.4004 184.8V180.5ZM80.2004 190C80.8004 190 81.4004 189.8 81.8004 189.4C82.2004 189 82.4004 188.4 82.4004 187.8C82.4004 187.2 82.2004 186.6 81.8004 186.2C81.4004 185.8 80.9004 185.6 80.2004 185.6C79.6004 185.6 79.0004 185.8 78.6004 186.2C78.2004 186.6 78.0004 187.2 78.0004 187.8C78.0004 188.4 78.2004 189 78.6004 189.4C79.0004 189.8 79.6004 190 80.2004 190Z" fill="white"/>
<path d="M93.8008 184.7C94.6008 185.5 95.0008 186.5 95.0008 187.7C95.0008 188.9 94.6008 189.9 93.8008 190.7C93.0008 191.5 92.1008 191.9 91.0008 191.9C89.9008 191.9 89.0008 191.5 88.4008 190.7V191.6H86.3008V180.4H88.4008V184.5C89.0008 183.7 89.9008 183.3 91.0008 183.3C92.1008 183.5 93.0008 183.9 93.8008 184.7ZM90.6008 190C91.2008 190 91.8008 189.8 92.2008 189.4C92.6008 189 92.8008 188.4 92.8008 187.8C92.8008 187.2 92.6008 186.6 92.2008 186.2C91.8008 185.8 91.3008 185.6 90.6008 185.6C90.0008 185.6 89.4008 185.8 89.0008 186.2C88.6008 186.6 88.4008 187.2 88.4008 187.8C88.4008 188.4 88.6008 189 89.0008 189.4C89.5008 189.8 90.0008 190 90.6008 190Z" fill="white"/>
<path d="M102.5 183.7H104.6V191.7H102.5V190.8C101.9 191.6 101 192 99.9 192C98.8 192 97.9 191.6 97.1 190.8C96.3 190 96 189 96 187.8C96 186.6 96.4 185.6 97.1 184.8C97.9 184 98.8 183.6 99.9 183.6C101 183.6 101.9 184 102.5 184.8V183.7ZM100.2 190C100.8 190 101.4 189.8 101.8 189.4C102.2 189 102.4 188.4 102.4 187.8C102.4 187.2 102.2 186.6 101.8 186.2C101.4 185.8 100.9 185.6 100.2 185.6C99.6 185.6 99 185.8 98.6 186.2C98.2 186.6 98 187.2 98 187.8C98 188.4 98.2 189 98.6 189.4C99.1 189.8 99.6 190 100.2 190Z" fill="white"/>
<path d="M107.2 190.7C106.4 189.9 106 188.9 106 187.7C106 186.5 106.4 185.5 107.2 184.7C108 183.9 109 183.5 110.2 183.5C111.8 183.5 113.1 184.3 113.8 185.6L112 186.6C111.7 185.9 111 185.5 110.2 185.5C109 185.5 108.1 186.4 108.1 187.7C108.1 188.3 108.3 188.9 108.7 189.3C109.1 189.7 109.6 189.9 110.2 189.9C111 189.9 111.7 189.5 112 188.8L113.8 189.8C113.1 191.1 111.7 191.9 110.2 191.9C109 191.9 108 191.5 107.2 190.7Z" fill="white"/>
<path d="M122.4 191.7H120L117.1 188.1V191.7H115V180.5H117V187.2L119.8 183.7H122.3L119.1 187.7L122.4 191.7Z" fill="white"/>
<path d="M132.1 66.8C131 65.7 130.5 64.3 130.5 62.7C130.5 61.1 131 59.7 132.1 58.6C133.2 57.5 134.6 56.9 136.3 56.9C138.3 56.9 140.2 57.9 141.1 59.5L139.2 60.6C138.6 59.6 137.6 59 136.3 59C135.2 59 134.3 59.3 133.7 60C133 60.7 132.7 61.6 132.7 62.7C132.7 63.8 133 64.7 133.7 65.3C134.4 66 135.3 66.3 136.3 66.3C137.6 66.3 138.7 65.7 139.2 64.7L141.1 65.8C140.1 67.4 138.3 68.4 136.3 68.4C134.6 68.5 133.2 67.9 132.1 66.8Z" fill="white"/>
<path d="M146.3 68.5C145.1 68.5 144.1 68.1 143.3 67.3C142.5 66.5 142.1 65.5 142.1 64.3C142.1 63.1 142.5 62.1 143.3 61.3C144.1 60.5 145.1 60.1 146.3 60.1C147.5 60.1 148.5 60.5 149.3 61.3C150.1 62.1 150.5 63.1 150.5 64.3C150.5 65.5 150.1 66.5 149.3 67.3C148.4 68.1 147.4 68.5 146.3 68.5ZM146.3 66.4C146.9 66.4 147.4 66.2 147.9 65.8C148.4 65.4 148.5 64.9 148.5 64.2C148.5 63.6 148.3 63 147.9 62.6C147.5 62.2 147 62 146.3 62C145.6 62 145.2 62.2 144.7 62.6C144.3 63 144.1 63.5 144.1 64.2C144.1 64.8 144.3 65.4 144.7 65.8C145.1 66.2 145.6 66.4 146.3 66.4Z" fill="white"/>
<path d="M158.6 60.9C159.2 61.5 159.5 62.3 159.5 63.3V68.2H157.4V63.5C157.4 62.4 156.8 61.9 155.8 61.9C154.7 61.9 154 62.6 154 63.9V68.2H151.9V60.2H154V61.1C154.5 60.3 155.3 60 156.4 60C157.3 60 158 60.3 158.6 60.9Z" fill="white"/>
<path d="M165.8 62.2H164V65.5C164 66.4 164.6 66.4 165.8 66.3V68.2C163 68.5 161.9 67.7 161.9 65.5V62.2H160.5V60.2H161.9V58.6L164 58V60.2H165.8V62.2Z" fill="white"/>
<path d="M167.1 58.3C167.1 57.6 167.7 57.1 168.4 57.1C169.1 57.1 169.7 57.7 169.7 58.3C169.7 58.9 169.1 59.5 168.4 59.5C167.7 59.5 167.1 59 167.1 58.3ZM167.3 68.2V60.2H169.4V68.2H167.3Z" fill="white"/>
<path d="M177.899 60.9C178.499 61.5 178.799 62.3 178.799 63.3V68.2H176.699V63.5C176.699 62.4 176.099 61.9 175.099 61.9C173.999 61.9 173.299 62.6 173.299 63.9V68.2H171.199V60.2H173.299V61.1C173.799 60.3 174.599 60 175.699 60C176.599 60 177.299 60.3 177.899 60.9Z" fill="white"/>
<path d="M185.8 60.2001H187.9V68.2001H185.8V67.3001C185.3 68.1001 184.5 68.4001 183.4 68.4001C182.5 68.4001 181.8 68.1001 181.2 67.5001C180.6 66.9001 180.4 66.1001 180.4 65.1001V60.2001H182.5V64.9001C182.5 66.0001 183.1 66.5001 184.1 66.5001C185.2 66.5001 185.9 65.8001 185.9 64.5001V60.2001H185.8Z" fill="white"/>
<path d="M193.6 68.5C192.4 68.5 191.4 68.1 190.6 67.3C189.8 66.5 189.4 65.5 189.4 64.3C189.4 63.1 189.8 62.1 190.6 61.3C191.4 60.5 192.4 60.1 193.6 60.1C194.8 60.1 195.8 60.5 196.6 61.3C197.4 62.1 197.8 63.1 197.8 64.3C197.8 65.5 197.4 66.5 196.6 67.3C195.8 68.1 194.8 68.5 193.6 68.5ZM193.6 66.4C194.2 66.4 194.7 66.2 195.2 65.8C195.7 65.4 195.8 64.9 195.8 64.2C195.8 63.6 195.6 63 195.2 62.6C194.8 62.2 194.3 62 193.6 62C192.9 62 192.5 62.2 192 62.6C191.6 63 191.4 63.5 191.4 64.2C191.4 64.8 191.6 65.4 192 65.8C192.4 66.2 192.9 66.4 193.6 66.4Z" fill="white"/>
<path d="M204.5 60.2001H206.6V68.2001H204.5V67.3001C204 68.1001 203.2 68.4001 202.1 68.4001C201.2 68.4001 200.5 68.1001 199.9 67.5001C199.3 66.9001 199.1 66.1001 199.1 65.1001V60.2001H201.2V64.9001C201.2 66.0001 201.8 66.5001 202.8 66.5001C203.9 66.5001 204.6 65.8001 204.6 64.5001V60.2001H204.5Z" fill="white"/>
<path d="M211.8 63.4C213 63.6 214.5 64.2 214.5 65.9C214.5 66.7 214.2 67.4 213.6 67.8C213 68.2 212.2 68.5 211.3 68.5C209.7 68.5 208.5 67.9 207.9 66.6L209.7 65.6C209.9 66.3 210.5 66.6 211.3 66.6C212 66.6 212.4 66.4 212.4 65.9C212.4 65.5 211.8 65.2 210.9 65C209.7 64.7 208.2 64.2 208.2 62.5C208.2 61.7 208.5 61.1 209.1 60.6C209.7 60.1 210.4 59.9 211.3 59.9C212.6 59.9 213.7 60.5 214.3 61.6L212.5 62.6C212.2 62.1 211.8 61.8 211.2 61.8C210.7 61.8 210.3 62.1 210.3 62.5C210.3 62.9 211 63.2 211.8 63.4Z" fill="white"/>
<path d="M127.9 76.2001C129.4 76.2001 130.7 76.7001 131.7 77.8001C132.7 78.9001 133.3 80.2001 133.3 81.8001C133.3 83.4001 132.8 84.7001 131.7 85.8001C130.7 86.9001 129.4 87.4001 127.9 87.4001H123.5V76.2001H127.9ZM127.9 85.3001C128.9 85.3001 129.7 85.0001 130.3 84.3001C130.9 83.6001 131.2 82.8001 131.2 81.8001C131.2 80.8001 130.9 79.9001 130.3 79.3001C129.7 78.6001 128.9 78.3001 127.9 78.3001H125.7V85.3001H127.9Z" fill="white"/>
<path d="M136.5 84.3C136.8 85.3 137.5 85.8 138.8 85.8C139.6 85.8 140.2 85.5 140.6 85L142.3 86C141.5 87.1 140.3 87.7 138.8 87.7C137.5 87.7 136.4 87.3 135.6 86.5C134.8 85.7 134.4 84.7 134.4 83.5C134.4 82.3 134.8 81.3 135.6 80.5C136.4 79.7 137.4 79.3 138.6 79.3C139.8 79.3 140.7 79.7 141.5 80.5C142.3 81.3 142.7 82.3 142.7 83.5C142.7 83.8 142.7 84 142.6 84.3H136.5ZM140.6 82.7C140.4 81.6 139.6 81.1 138.6 81.1C137.5 81.1 136.7 81.7 136.5 82.7H140.6Z" fill="white"/>
<path d="M149 79.4H151.3L148.3 87.4H145.9L142.9 79.4H145.2L147 85L149 79.4Z" fill="white"/>
<path d="M154 84.3C154.3 85.3 155 85.8 156.3 85.8C157.1 85.8 157.7 85.5 158.1 85L159.8 86C159 87.1 157.8 87.7 156.3 87.7C155 87.7 153.9 87.3 153.1 86.5C152.3 85.7 151.9 84.7 151.9 83.5C151.9 82.3 152.3 81.3 153.1 80.5C153.9 79.7 154.9 79.3 156.1 79.3C157.3 79.3 158.2 79.7 159 80.5C159.8 81.3 160.2 82.3 160.2 83.5C160.2 83.8 160.2 84 160.1 84.3H154ZM158.1 82.7C157.9 81.6 157.1 81.1 156.1 81.1C155 81.1 154.2 81.7 154 82.7H158.1Z" fill="white"/>
<path d="M161.6 87.4001V75.7001H163.7V87.4001H161.6Z" fill="white"/>
<path d="M169.3 87.7C168.1 87.7 167.1 87.3 166.3 86.5C165.5 85.7 165.1 84.7 165.1 83.5C165.1 82.3 165.5 81.3 166.3 80.5C167.1 79.7 168.1 79.3 169.3 79.3C170.5 79.3 171.5 79.7 172.3 80.5C173.1 81.3 173.5 82.3 173.5 83.5C173.5 84.7 173.1 85.7 172.3 86.5C171.5 87.3 170.5 87.7 169.3 87.7ZM169.3 85.6C169.9 85.6 170.4 85.4 170.9 85C171.4 84.6 171.5 84.1 171.5 83.4C171.5 82.8 171.3 82.2 170.9 81.8C170.5 81.4 170 81.2 169.3 81.2C168.6 81.2 168.2 81.4 167.7 81.8C167.3 82.2 167.1 82.7 167.1 83.4C167.1 84 167.3 84.6 167.7 85C168.2 85.4 168.7 85.6 169.3 85.6Z" fill="white"/>
<path d="M182.4 80.4C183.2 81.2 183.6 82.2 183.6 83.4C183.6 84.6 183.2 85.6 182.4 86.4C181.6 87.2 180.7 87.6 179.6 87.6C178.5 87.6 177.6 87.2 177 86.4V90.5H175V79.4H177.1V80.3C177.7 79.5 178.6 79.1 179.7 79.1C180.7 79.2 181.7 79.6 182.4 80.4ZM179.3 85.7C179.9 85.7 180.5 85.5 180.9 85.1C181.3 84.7 181.5 84.1 181.5 83.5C181.5 82.9 181.3 82.3 180.9 81.9C180.5 81.5 180 81.3 179.3 81.3C178.7 81.3 178.1 81.5 177.7 81.9C177.3 82.3 177.1 82.9 177.1 83.5C177.1 84.1 177.3 84.7 177.7 85.1C178.1 85.5 178.6 85.7 179.3 85.7Z" fill="white"/>
<path d="M196.9 82.5V87.4H194.8V82.6C194.8 81.6 194.3 81.1 193.5 81.1C192.6 81.1 192 81.7 192 82.9V87.4H189.9V82.6C189.9 81.6 189.4 81.1 188.6 81.1C187.7 81.1 187.1 81.7 187.1 82.9V87.4H185V79.4H187.1V80.2C187.6 79.5 188.3 79.1 189.3 79.1C190.3 79.1 191 79.5 191.5 80.3C192 79.5 192.8 79.1 193.9 79.1C195.7 79.2 196.9 80.5 196.9 82.5Z" fill="white"/>
<path d="M200.401 84.3C200.701 85.3 201.401 85.8 202.701 85.8C203.501 85.8 204.101 85.5 204.501 85L206.201 86C205.401 87.1 204.201 87.7 202.701 87.7C201.401 87.7 200.301 87.3 199.501 86.5C198.701 85.7 198.301 84.7 198.301 83.5C198.301 82.3 198.701 81.3 199.501 80.5C200.301 79.7 201.301 79.3 202.501 79.3C203.701 79.3 204.601 79.7 205.401 80.5C206.201 81.3 206.601 82.3 206.601 83.5C206.601 83.8 206.601 84 206.501 84.3H200.401ZM204.501 82.7C204.301 81.6 203.501 81.1 202.501 81.1C201.401 81.1 200.601 81.7 200.401 82.7H204.501Z" fill="white"/>
<path d="M214.6 80.1001C215.2 80.7001 215.5 81.5001 215.5 82.5001V87.4001H213.4V82.7001C213.4 81.6001 212.8 81.1001 211.8 81.1001C210.7 81.1001 210 81.8001 210 83.1001V87.4001H208V79.4001H210.1V80.3001C210.6 79.5001 211.4 79.2001 212.5 79.2001C213.3 79.2001 214 79.5001 214.6 80.1001Z" fill="white"/>
<path d="M221.8 81.4001H220V84.7001C220 85.6001 220.6 85.6001 221.8 85.5001V87.4001C219 87.7001 217.9 86.9001 217.9 84.7001V81.4001H216.5V79.4001H217.9V77.8001L220 77.2001V79.4001H221.8V81.4001Z" fill="white"/>
<path d="M270.2 91.9C269.1 90.8 268.6 89.4 268.6 87.8C268.6 86.2 269.1 84.8 270.2 83.7C271.3 82.6 272.7 82 274.4 82C276.4 82 278.3 83 279.2 84.6L277.3 85.7C276.7 84.7 275.7 84.1 274.4 84.1C273.3 84.1 272.4 84.4 271.8 85.1C271.1 85.8 270.8 86.7 270.8 87.8C270.8 88.9 271.1 89.8 271.8 90.4C272.5 91.1 273.4 91.4 274.4 91.4C275.7 91.4 276.8 90.8 277.3 89.8L279.2 90.9C278.2 92.5 276.4 93.5 274.4 93.5C272.7 93.6 271.3 93 270.2 91.9Z" fill="white"/>
<path d="M284.399 93.6C283.199 93.6 282.199 93.2 281.399 92.4C280.599 91.6 280.199 90.6 280.199 89.4C280.199 88.2 280.599 87.2 281.399 86.4C282.199 85.6 283.199 85.2 284.399 85.2C285.599 85.2 286.599 85.6 287.399 86.4C288.199 87.2 288.599 88.2 288.599 89.4C288.599 90.6 288.199 91.6 287.399 92.4C286.599 93.2 285.599 93.6 284.399 93.6ZM284.399 91.6C284.999 91.6 285.499 91.4 285.999 91C286.499 90.6 286.599 90.1 286.599 89.4C286.599 88.8 286.399 88.2 285.999 87.8C285.599 87.4 285.099 87.2 284.399 87.2C283.699 87.2 283.299 87.4 282.799 87.8C282.399 88.2 282.199 88.7 282.199 89.4C282.199 90 282.399 90.6 282.799 91C283.199 91.3 283.699 91.6 284.399 91.6Z" fill="white"/>
<path d="M296.7 86C297.3 86.6 297.6 87.4 297.6 88.4V93.3H295.5V88.6C295.5 87.5 294.9 87 293.9 87C292.8 87 292.1 87.7 292.1 89V93.3H290V85.3H292.1V86.2C292.6 85.4 293.4 85.1 294.5 85.1C295.4 85.1 296.1 85.4 296.7 86Z" fill="white"/>
<path d="M303.9 87.3H302.1V90.6C302.1 91.5 302.7 91.5 303.9 91.4V93.3C301.1 93.6 300 92.8 300 90.6V87.3H298.6V85.3H300V83.7L302.1 83.1V85.3H303.9V87.3V87.3Z" fill="white"/>
<path d="M305.199 83.4C305.199 82.7 305.799 82.2 306.499 82.2C307.199 82.2 307.799 82.8 307.799 83.4C307.799 84 307.199 84.6 306.499 84.6C305.799 84.6 305.199 84.1 305.199 83.4ZM305.499 93.3V85.3H307.599V93.3H305.499Z" fill="white"/>
<path d="M315.999 86C316.599 86.6 316.899 87.4 316.899 88.4V93.3H314.799V88.6C314.799 87.5 314.199 87 313.199 87C312.099 87 311.399 87.7 311.399 89V93.3H309.299V85.3H311.399V86.2C311.899 85.4 312.699 85.1 313.799 85.1C314.699 85.1 315.499 85.4 315.999 86Z" fill="white"/>
<path d="M323.9 85.3H326V93.3H323.9V92.4C323.4 93.2 322.6 93.5 321.5 93.5C320.6 93.5 319.9 93.2 319.3 92.6C318.7 92 318.5 91.2 318.5 90.2V85.3H320.6V90C320.6 91.1 321.2 91.6 322.2 91.6C323.3 91.6 324 90.9 324 89.6V85.3H323.9Z" fill="white"/>
<path d="M331.7 93.6C330.5 93.6 329.5 93.2 328.7 92.4C327.9 91.6 327.5 90.6 327.5 89.4C327.5 88.2 327.9 87.2 328.7 86.4C329.5 85.6 330.5 85.2 331.7 85.2C332.9 85.2 333.9 85.6 334.7 86.4C335.5 87.2 335.9 88.2 335.9 89.4C335.9 90.6 335.5 91.6 334.7 92.4C333.9 93.2 332.9 93.6 331.7 93.6ZM331.7 91.6C332.3 91.6 332.8 91.4 333.3 91C333.8 90.6 333.9 90.1 333.9 89.4C333.9 88.8 333.7 88.2 333.3 87.8C332.9 87.4 332.4 87.2 331.7 87.2C331 87.2 330.6 87.4 330.1 87.8C329.7 88.2 329.5 88.7 329.5 89.4C329.5 90 329.7 90.6 330.1 91C330.5 91.3 331.1 91.6 331.7 91.6Z" fill="white"/>
<path d="M342.699 85.3H344.799V93.3H342.699V92.4C342.199 93.2 341.399 93.5 340.299 93.5C339.399 93.5 338.699 93.2 338.099 92.6C337.499 92 337.299 91.2 337.299 90.2V85.3H339.399V90C339.399 91.1 339.999 91.6 340.999 91.6C342.099 91.6 342.799 90.9 342.799 89.6V85.3H342.699Z" fill="white"/>
<path d="M349.9 88.5C351.1 88.7 352.6 89.3 352.6 91C352.6 91.8 352.3 92.5 351.7 92.9C351.1 93.3 350.3 93.6 349.4 93.6C347.8 93.6 346.6 93 346 91.7L347.8 90.7C348 91.4 348.6 91.7 349.4 91.7C350.1 91.7 350.5 91.5 350.5 91C350.5 90.6 349.9 90.3 349 90.1C347.8 89.8 346.3 89.3 346.3 87.6C346.3 86.8 346.6 86.2 347.2 85.7C347.8 85.2 348.5 85 349.4 85C350.7 85 351.8 85.6 352.4 86.7L350.6 87.7C350.3 87.2 349.9 86.9 349.3 86.9C348.8 86.9 348.4 87.2 348.4 87.6C348.4 88 349.1 88.3 349.9 88.5Z" fill="white"/>
<path d="M269.9 101.3H272.1V112.5H269.9V101.3Z" fill="white"/>
<path d="M280.7 105.2C281.3 105.8 281.6 106.6 281.6 107.6V112.5H279.5V107.8C279.5 106.7 278.9 106.2 277.9 106.2C276.8 106.2 276.1 106.9 276.1 108.2V112.5H274V104.5H276.1V105.4C276.6 104.6 277.4 104.3 278.5 104.3C279.5 104.3 280.2 104.6 280.7 105.2Z" fill="white"/>
<path d="M287.9 106.5H286.1V109.8C286.1 110.7 286.7 110.7 287.9 110.6V112.5C285.1 112.8 284 112 284 109.8V106.5H282.6V104.5H284V102.9L286.1 102.3V104.5H287.9V106.5Z" fill="white"/>
<path d="M291.299 109.4C291.599 110.4 292.299 110.9 293.599 110.9C294.399 110.9 294.999 110.6 295.399 110.1L297.099 111.1C296.299 112.2 295.099 112.8 293.599 112.8C292.299 112.8 291.199 112.4 290.399 111.6C289.599 110.8 289.199 109.8 289.199 108.6C289.199 107.4 289.599 106.4 290.399 105.6C291.199 104.8 292.199 104.4 293.399 104.4C294.599 104.4 295.499 104.8 296.299 105.6C297.099 106.4 297.499 107.4 297.499 108.6C297.499 108.9 297.499 109.1 297.399 109.4H291.299ZM295.299 107.8C295.099 106.7 294.299 106.2 293.299 106.2C292.199 106.2 291.399 106.8 291.199 107.8H295.299Z" fill="white"/>
<path d="M304.9 104.5H306.9V112.1C306.9 113.3 306.5 114.3 305.7 114.9C304.9 115.6 303.9 115.9 302.8 115.9C301.1 115.9 299.7 115.2 299 113.9L300.8 112.9C301.2 113.7 301.9 114 302.9 114C304.2 114 305 113.3 305 112V111.1C304.4 111.9 303.5 112.3 302.4 112.3C301.3 112.3 300.3 111.9 299.6 111.1C298.8 110.3 298.5 109.3 298.5 108.2C298.5 107.1 298.9 106.1 299.7 105.3C300.5 104.5 301.4 104.1 302.5 104.1C303.6 104.1 304.5 104.5 305.1 105.3V104.5H304.9ZM304.3 106.9C303.9 106.5 303.4 106.3 302.7 106.3C302 106.3 301.5 106.5 301.1 106.9C300.7 107.3 300.5 107.8 300.5 108.5C300.5 109.8 301.4 110.7 302.7 110.7C304 110.7 304.9 109.8 304.9 108.5C304.9 107.8 304.7 107.3 304.3 106.9Z" fill="white"/>
<path d="M310.899 105.9C311.299 104.9 312.199 104.4 313.299 104.4V106.7C312.699 106.6 312.099 106.7 311.599 107.1C311.099 107.4 310.899 108 310.899 108.7V112.5H308.799V104.5H310.899V105.9Z" fill="white"/>
<path d="M320.299 104.5H322.399V112.5H320.299V111.6C319.699 112.4 318.799 112.8 317.699 112.8C316.599 112.8 315.699 112.4 314.899 111.6C314.099 110.8 313.799 109.8 313.799 108.6C313.799 107.4 314.199 106.4 314.899 105.6C315.699 104.8 316.599 104.4 317.699 104.4C318.799 104.4 319.699 104.8 320.299 105.6V104.5ZM318.099 110.8C318.699 110.8 319.299 110.6 319.699 110.2C320.099 109.8 320.299 109.2 320.299 108.6C320.299 108 320.099 107.4 319.699 107C319.299 106.6 318.799 106.4 318.099 106.4C317.499 106.4 316.899 106.6 316.499 107C316.099 107.4 315.899 108 315.899 108.6C315.899 109.2 316.099 109.8 316.499 110.2C316.899 110.6 317.399 110.8 318.099 110.8Z" fill="white"/>
<path d="M328.8 106.5H327V109.8C327 110.7 327.6 110.7 328.8 110.6V112.5C326 112.8 324.9 112 324.9 109.8V106.5H323.5V104.5H324.9V102.9L327 102.3V104.5H328.8V106.5V106.5Z" fill="white"/>
<path d="M330.199 102.6C330.199 101.9 330.799 101.4 331.499 101.4C332.199 101.4 332.799 102 332.799 102.6C332.799 103.2 332.199 103.8 331.499 103.8C330.699 103.8 330.199 103.3 330.199 102.6ZM330.399 112.5V104.5H332.499V112.5H330.399Z" fill="white"/>
<path d="M338.2 112.8C337 112.8 336 112.4 335.2 111.6C334.4 110.8 334 109.8 334 108.6C334 107.4 334.4 106.4 335.2 105.6C336 104.8 337 104.4 338.2 104.4C339.4 104.4 340.4 104.8 341.2 105.6C342 106.4 342.4 107.4 342.4 108.6C342.4 109.8 342 110.8 341.2 111.6C340.4 112.4 339.3 112.8 338.2 112.8ZM338.2 110.8C338.8 110.8 339.3 110.6 339.8 110.2C340.3 109.8 340.4 109.3 340.4 108.6C340.4 108 340.2 107.4 339.8 107C339.4 106.6 338.9 106.4 338.2 106.4C337.5 106.4 337.1 106.6 336.6 107C336.2 107.4 336 107.9 336 108.6C336 109.2 336.2 109.8 336.6 110.2C337 110.5 337.5 110.8 338.2 110.8Z" fill="white"/>
<path d="M350.499 105.2C351.099 105.8 351.399 106.6 351.399 107.6V112.5H349.299V107.8C349.299 106.7 348.699 106.2 347.699 106.2C346.599 106.2 345.899 106.9 345.899 108.2V112.5H343.799V104.5H345.899V105.4C346.399 104.6 347.199 104.3 348.299 104.3C349.199 104.3 349.899 104.6 350.499 105.2Z" fill="white"/>
<path d="M318.2 216.8C317.1 215.7 316.6 214.3 316.6 212.7C316.6 211.1 317.1 209.7 318.2 208.6C319.3 207.5 320.7 206.9 322.4 206.9C324.4 206.9 326.3 207.9 327.2 209.5L325.3 210.6C324.7 209.6 323.7 209 322.4 209C321.3 209 320.4 209.3 319.8 210C319.1 210.7 318.8 211.6 318.8 212.7C318.8 213.8 319.1 214.7 319.8 215.3C320.5 216 321.4 216.3 322.4 216.3C323.7 216.3 324.8 215.7 325.3 214.7L327.2 215.8C326.2 217.4 324.4 218.4 322.4 218.4C320.7 218.5 319.3 217.9 318.2 216.8Z" fill="white"/>
<path d="M332.399 218.5C331.199 218.5 330.199 218.1 329.399 217.3C328.599 216.5 328.199 215.5 328.199 214.3C328.199 213.1 328.599 212.1 329.399 211.3C330.199 210.5 331.199 210.1 332.399 210.1C333.599 210.1 334.599 210.5 335.399 211.3C336.199 212.1 336.599 213.1 336.599 214.3C336.599 215.5 336.199 216.5 335.399 217.3C334.599 218.1 333.599 218.5 332.399 218.5ZM332.399 216.5C332.999 216.5 333.499 216.3 333.999 215.9C334.499 215.5 334.599 215 334.599 214.3C334.599 213.7 334.399 213.1 333.999 212.7C333.599 212.3 333.099 212.1 332.399 212.1C331.699 212.1 331.299 212.3 330.799 212.7C330.399 213.1 330.199 213.6 330.199 214.3C330.199 214.9 330.399 215.5 330.799 215.9C331.199 216.3 331.699 216.5 332.399 216.5Z" fill="white"/>
<path d="M344.7 210.9C345.3 211.5 345.6 212.3 345.6 213.3V218.2H343.5V213.5C343.5 212.4 342.9 211.9 341.9 211.9C340.8 211.9 340.1 212.6 340.1 213.9V218.2H338V210.2H340.1V211.1C340.6 210.3 341.4 210 342.5 210C343.4 210 344.1 210.3 344.7 210.9Z" fill="white"/>
<path d="M351.9 212.3H350.1V215.6C350.1 216.5 350.7 216.5 351.9 216.4V218.3C349.1 218.6 348 217.8 348 215.6V212.3H346.6V210.3H348V208.7L350.1 208.1V210.3H351.9V212.3V212.3Z" fill="white"/>
<path d="M353.199 208.3C353.199 207.6 353.799 207.1 354.499 207.1C355.199 207.1 355.799 207.7 355.799 208.3C355.799 209 355.199 209.5 354.499 209.5C353.799 209.6 353.199 209 353.199 208.3ZM353.499 218.3V210.3H355.599V218.3H353.499Z" fill="white"/>
<path d="M363.999 210.9C364.599 211.5 364.899 212.3 364.899 213.3V218.2H362.799V213.5C362.799 212.4 362.199 211.9 361.199 211.9C360.099 211.9 359.399 212.6 359.399 213.9V218.2H357.299V210.2H359.399V211.1C359.899 210.3 360.699 210 361.799 210C362.699 210 363.499 210.3 363.999 210.9Z" fill="white"/>
<path d="M371.9 210.3H374V218.3H371.9V217.4C371.4 218.2 370.6 218.5 369.5 218.5C368.6 218.5 367.9 218.2 367.3 217.6C366.7 217 366.5 216.2 366.5 215.2V210.3H368.6V215C368.6 216.1 369.2 216.6 370.2 216.6C371.3 216.6 372 215.9 372 214.6V210.3H371.9Z" fill="white"/>
<path d="M379.7 218.5C378.5 218.5 377.5 218.1 376.7 217.3C375.9 216.5 375.5 215.5 375.5 214.3C375.5 213.1 375.9 212.1 376.7 211.3C377.5 210.5 378.5 210.1 379.7 210.1C380.9 210.1 381.9 210.5 382.7 211.3C383.5 212.1 383.9 213.1 383.9 214.3C383.9 215.5 383.5 216.5 382.7 217.3C381.9 218.1 380.9 218.5 379.7 218.5ZM379.7 216.5C380.3 216.5 380.8 216.3 381.3 215.9C381.8 215.5 381.9 215 381.9 214.3C381.9 213.7 381.7 213.1 381.3 212.7C380.9 212.3 380.4 212.1 379.7 212.1C379 212.1 378.6 212.3 378.1 212.7C377.7 213.1 377.5 213.6 377.5 214.3C377.5 214.9 377.7 215.5 378.1 215.9C378.5 216.3 379.1 216.5 379.7 216.5Z" fill="white"/>
<path d="M390.699 210.3H392.799V218.3H390.699V217.4C390.199 218.2 389.399 218.5 388.299 218.5C387.399 218.5 386.699 218.2 386.099 217.6C385.499 217 385.299 216.2 385.299 215.2V210.3H387.399V215C387.399 216.1 387.999 216.6 388.999 216.6C390.099 216.6 390.799 215.9 390.799 214.6V210.3H390.699Z" fill="white"/>
<path d="M397.9 213.4C399.1 213.6 400.6 214.2 400.6 215.9C400.6 216.7 400.3 217.4 399.7 217.8C399.1 218.2 398.3 218.5 397.4 218.5C395.8 218.5 394.6 217.9 394 216.6L395.8 215.6C396 216.3 396.6 216.6 397.4 216.6C398.1 216.6 398.5 216.4 398.5 215.9C398.5 215.5 397.9 215.2 397 215C395.8 214.7 394.3 214.2 394.3 212.5C394.3 211.7 394.6 211.1 395.2 210.6C395.8 210.1 396.5 209.9 397.4 209.9C398.7 209.9 399.8 210.5 400.4 211.6L398.6 212.6C398.3 212.1 397.9 211.8 397.3 211.8C396.8 211.8 396.4 212.1 396.4 212.5C396.4 213 397.1 213.2 397.9 213.4Z" fill="white"/>
<path d="M340.6 226.3V228.4H337.6V237.5H335.4V228.4H332.4V226.3H340.6Z" fill="white"/>
<path d="M342.1 234.3C342.4 235.3 343.1 235.8 344.4 235.8C345.2 235.8 345.8 235.5 346.2 235L347.9 236C347.1 237.1 345.9 237.7 344.4 237.7C343.1 237.7 342 237.3 341.2 236.5C340.4 235.7 340 234.7 340 233.5C340 232.3 340.4 231.3 341.2 230.5C342 229.7 343 229.3 344.2 229.3C345.4 229.3 346.3 229.7 347.1 230.5C347.9 231.3 348.3 232.3 348.3 233.5C348.3 233.8 348.3 234 348.2 234.3H342.1ZM346.1 232.7C345.9 231.6 345.1 231.1 344.1 231.1C343 231.1 342.2 231.7 342 232.7H346.1Z" fill="white"/>
<path d="M352.699 232.6C353.899 232.8 355.399 233.4 355.399 235.1C355.399 235.9 355.099 236.6 354.499 237C353.899 237.4 353.099 237.7 352.199 237.7C350.599 237.7 349.399 237.1 348.799 235.8L350.599 234.8C350.799 235.5 351.399 235.8 352.199 235.8C352.899 235.8 353.299 235.6 353.299 235.1C353.299 234.7 352.699 234.4 351.799 234.2C350.599 233.9 349.099 233.4 349.099 231.7C349.099 230.9 349.399 230.3 349.999 229.8C350.599 229.3 351.299 229.1 352.199 229.1C353.499 229.1 354.599 229.7 355.199 230.8L353.399 231.8C353.099 231.3 352.699 231 352.099 231C351.599 231 351.199 231.3 351.199 231.7C351.199 232.2 351.799 232.4 352.699 232.6Z" fill="white"/>
<path d="M360.999 231.5H359.199V234.8C359.199 235.7 359.799 235.7 360.999 235.6V237.5C358.199 237.8 357.099 237 357.099 234.8V231.5H355.699V229.5H357.099V227.9L359.199 227.3V229.5H360.999V231.5V231.5Z" fill="white"/>
<path d="M362.299 227.5C362.299 226.8 362.899 226.3 363.599 226.3C364.299 226.3 364.899 226.9 364.899 227.5C364.899 228.2 364.299 228.7 363.599 228.7C362.899 228.8 362.299 228.2 362.299 227.5ZM362.599 237.5V229.5H364.699V237.5H362.599Z" fill="white"/>
<path d="M373.1 230.1C373.7 230.7 374 231.5 374 232.5V237.4H371.9V232.7C371.9 231.6 371.3 231.1 370.3 231.1C369.2 231.1 368.5 231.8 368.5 233.1V237.4H366.4V229.4H368.5V230.3C369 229.5 369.8 229.2 370.9 229.2C371.9 229.2 372.6 229.5 373.1 230.1Z" fill="white"/>
<path d="M381.9 229.5H383.9V237.1C383.9 238.3 383.5 239.3 382.7 239.9C381.9 240.6 380.9 240.9 379.8 240.9C378.1 240.9 376.7 240.2 376 238.9L377.8 237.9C378.2 238.7 378.9 239 379.9 239C381.2 239 382 238.3 382 237V236.1C381.4 236.9 380.5 237.3 379.4 237.3C378.3 237.3 377.3 236.9 376.6 236.1C375.8 235.3 375.5 234.3 375.5 233.2C375.5 232.1 375.9 231.1 376.7 230.3C377.5 229.5 378.4 229.1 379.5 229.1C380.6 229.1 381.5 229.5 382.1 230.3V229.5H381.9ZM381.3 231.8C380.9 231.4 380.4 231.2 379.7 231.2C379 231.2 378.5 231.4 378.1 231.8C377.7 232.2 377.5 232.7 377.5 233.4C377.5 234.7 378.4 235.6 379.7 235.6C381 235.6 381.9 234.7 381.9 233.4C381.9 232.7 381.7 232.2 381.3 231.8Z" fill="white"/>
<path d="M226.1 326C225 324.9 224.5 323.5 224.5 321.9C224.5 320.3 225 318.9 226.1 317.8C227.2 316.7 228.6 316.1 230.3 316.1C232.3 316.1 234.2 317.1 235.1 318.7L233.2 319.8C232.6 318.8 231.6 318.2 230.3 318.2C229.2 318.2 228.3 318.5 227.7 319.2C227 319.9 226.7 320.8 226.7 321.9C226.7 323 227 323.9 227.7 324.5C228.4 325.2 229.3 325.5 230.3 325.5C231.6 325.5 232.7 324.9 233.2 323.9L235.1 325C234.1 326.6 232.3 327.6 230.3 327.6C228.6 327.7 227.2 327.1 226.1 326Z" fill="white"/>
<path d="M240.3 327.7C239.1 327.7 238.1 327.3 237.3 326.5C236.5 325.7 236.1 324.7 236.1 323.5C236.1 322.3 236.5 321.3 237.3 320.5C238.1 319.7 239.1 319.3 240.3 319.3C241.5 319.3 242.5 319.7 243.3 320.5C244.1 321.3 244.5 322.3 244.5 323.5C244.5 324.7 244.1 325.7 243.3 326.5C242.5 327.3 241.5 327.7 240.3 327.7ZM240.3 325.6C240.9 325.6 241.4 325.4 241.9 325C242.4 324.6 242.5 324.1 242.5 323.4C242.5 322.8 242.3 322.2 241.9 321.8C241.5 321.4 241 321.2 240.3 321.2C239.6 321.2 239.2 321.4 238.7 321.8C238.3 322.2 238.1 322.7 238.1 323.4C238.1 324 238.3 324.6 238.7 325C239.1 325.4 239.7 325.6 240.3 325.6Z" fill="white"/>
<path d="M252.6 320.1C253.2 320.7 253.5 321.5 253.5 322.5V327.4H251.4V322.7C251.4 321.6 250.8 321.1 249.8 321.1C248.7 321.1 248 321.8 248 323.1V327.4H246V319.4H248.1V320.3C248.6 319.5 249.4 319.2 250.5 319.2C251.3 319.2 252 319.5 252.6 320.1Z" fill="white"/>
<path d="M259.8 321.4H258V324.7C258 325.6 258.6 325.6 259.8 325.5V327.4C257 327.7 255.9 326.9 255.9 324.7V321.4H254.5V319.4H255.9V317.8L258 317.2V319.4H259.8V321.4Z" fill="white"/>
<path d="M261.1 317.5C261.1 316.8 261.7 316.3 262.4 316.3C263.1 316.3 263.7 316.9 263.7 317.5C263.7 318.2 263.1 318.7 262.4 318.7C261.7 318.7 261.1 318.2 261.1 317.5ZM261.4 327.4V319.4H263.5V327.4H261.4Z" fill="white"/>
<path d="M271.899 320.1C272.499 320.7 272.799 321.5 272.799 322.5V327.4H270.699V322.7C270.699 321.6 270.099 321.1 269.099 321.1C267.999 321.1 267.299 321.8 267.299 323.1V327.4H265.199V319.4H267.299V320.3C267.799 319.5 268.599 319.2 269.699 319.2C270.599 319.2 271.399 319.5 271.899 320.1Z" fill="white"/>
<path d="M279.798 319.4H281.898V327.4H279.798V326.5C279.298 327.3 278.498 327.6 277.398 327.6C276.498 327.6 275.798 327.3 275.198 326.7C274.598 326.1 274.398 325.3 274.398 324.3V319.4H276.498V324.1C276.498 325.2 277.098 325.7 278.098 325.7C279.198 325.7 279.898 325 279.898 323.7V319.4H279.798Z" fill="white"/>
<path d="M287.598 327.7C286.398 327.7 285.398 327.3 284.598 326.5C283.798 325.7 283.398 324.7 283.398 323.5C283.398 322.3 283.798 321.3 284.598 320.5C285.398 319.7 286.398 319.3 287.598 319.3C288.798 319.3 289.798 319.7 290.598 320.5C291.398 321.3 291.798 322.3 291.798 323.5C291.798 324.7 291.398 325.7 290.598 326.5C289.798 327.3 288.798 327.7 287.598 327.7ZM287.598 325.6C288.198 325.6 288.698 325.4 289.198 325C289.698 324.6 289.798 324.1 289.798 323.4C289.798 322.8 289.598 322.2 289.198 321.8C288.798 321.4 288.298 321.2 287.598 321.2C286.898 321.2 286.498 321.4 285.998 321.8C285.598 322.2 285.398 322.7 285.398 323.4C285.398 324 285.598 324.6 285.998 325C286.498 325.4 286.998 325.6 287.598 325.6Z" fill="white"/>
<path d="M298.599 319.4H300.699V327.4H298.599V326.5C298.099 327.3 297.299 327.6 296.199 327.6C295.299 327.6 294.599 327.3 293.999 326.7C293.399 326.1 293.199 325.3 293.199 324.3V319.4H295.299V324.1C295.299 325.2 295.899 325.7 296.899 325.7C297.999 325.7 298.699 325 298.699 323.7V319.4H298.599Z" fill="white"/>
<path d="M305.798 322.6C306.998 322.8 308.498 323.4 308.498 325.1C308.498 325.9 308.198 326.6 307.598 327C306.998 327.4 306.198 327.7 305.298 327.7C303.698 327.7 302.498 327.1 301.898 325.8L303.698 324.8C303.898 325.5 304.498 325.8 305.298 325.8C305.998 325.8 306.398 325.6 306.398 325.1C306.398 324.7 305.798 324.4 304.898 324.2C303.698 323.9 302.198 323.4 302.198 321.7C302.198 320.9 302.498 320.3 303.098 319.8C303.698 319.3 304.398 319.1 305.298 319.1C306.598 319.1 307.698 319.7 308.298 320.8L306.498 321.8C306.198 321.3 305.798 321 305.198 321C304.698 321 304.298 321.3 304.298 321.7C304.398 322.1 304.998 322.4 305.798 322.6Z" fill="white"/>
<path d="M226.599 335.4C228.099 335.4 229.399 335.9 230.399 337C231.399 338.1 231.999 339.4 231.999 341C231.999 342.6 231.499 343.9 230.399 345C229.399 346.1 228.099 346.6 226.599 346.6H222.199V335.4H226.599V335.4ZM226.599 344.5C227.599 344.5 228.399 344.2 228.999 343.5C229.599 342.8 229.899 342 229.899 341C229.899 340 229.599 339.1 228.999 338.5C228.399 337.8 227.599 337.5 226.599 337.5H224.399V344.5H226.599Z" fill="white"/>
<path d="M235.2 343.5C235.5 344.5 236.2 345 237.5 345C238.3 345 238.9 344.7 239.3 344.2L241 345.2C240.2 346.3 239 346.9 237.5 346.9C236.2 346.9 235.1 346.5 234.3 345.7C233.5 344.9 233.1 343.9 233.1 342.7C233.1 341.5 233.5 340.5 234.3 339.7C235.1 338.9 236.1 338.5 237.3 338.5C238.5 338.5 239.4 338.9 240.2 339.7C241 340.5 241.4 341.5 241.4 342.7C241.4 343 241.4 343.2 241.3 343.5H235.2ZM239.3 341.9C239.1 340.8 238.3 340.3 237.3 340.3C236.2 340.3 235.4 340.9 235.2 341.9H239.3Z" fill="white"/>
<path d="M250.199 339.6C250.999 340.4 251.399 341.4 251.399 342.6C251.399 343.8 250.999 344.8 250.199 345.6C249.399 346.4 248.499 346.8 247.399 346.8C246.299 346.8 245.399 346.4 244.799 345.6V349.7H242.699V338.5H244.799V339.4C245.399 338.6 246.299 338.2 247.399 338.2C248.499 338.4 249.399 338.8 250.199 339.6ZM247.099 344.9C247.699 344.9 248.299 344.7 248.699 344.3C249.099 343.9 249.299 343.3 249.299 342.7C249.299 342.1 249.099 341.5 248.699 341.1C248.299 340.7 247.799 340.5 247.099 340.5C246.399 340.5 245.899 340.7 245.499 341.1C245.099 341.5 244.899 342.1 244.899 342.7C244.899 343.3 245.099 343.9 245.499 344.3C245.899 344.7 246.399 344.9 247.099 344.9Z" fill="white"/>
<path d="M252.799 346.6V334.9H254.899V346.6H252.799Z" fill="white"/>
<path d="M260.598 346.9C259.398 346.9 258.398 346.5 257.598 345.7C256.798 344.9 256.398 343.9 256.398 342.7C256.398 341.5 256.798 340.5 257.598 339.7C258.398 338.9 259.398 338.5 260.598 338.5C261.798 338.5 262.798 338.9 263.598 339.7C264.398 340.5 264.798 341.5 264.798 342.7C264.798 343.9 264.398 344.9 263.598 345.7C262.798 346.5 261.698 346.9 260.598 346.9ZM260.598 344.8C261.198 344.8 261.698 344.6 262.198 344.2C262.698 343.8 262.798 343.3 262.798 342.6C262.798 342 262.598 341.4 262.198 341C261.798 340.6 261.298 340.4 260.598 340.4C259.898 340.4 259.498 340.6 258.998 341C258.598 341.4 258.398 341.9 258.398 342.6C258.398 343.2 258.598 343.8 258.998 344.2C259.398 344.6 259.898 344.8 260.598 344.8Z" fill="white"/>
<path d="M271.2 338.6H273.4L270.5 346.6C269.7 348.9 268.3 349.9 266.3 349.8V347.9C267.4 347.9 268 347.5 268.4 346.4L265.1 338.7H267.4L269.5 344.1L271.2 338.6Z" fill="white"/>
<path d="M286.199 341.7V346.6H284.099V341.8C284.099 340.8 283.599 340.3 282.799 340.3C281.899 340.3 281.299 340.9 281.299 342.1V346.6H279.199V341.8C279.199 340.8 278.699 340.3 277.899 340.3C276.999 340.3 276.399 340.9 276.399 342.1V346.6H274.299V338.6H276.399V339.4C276.899 338.7 277.599 338.3 278.599 338.3C279.599 338.3 280.299 338.7 280.799 339.5C281.299 338.7 282.099 338.3 283.199 338.3C284.999 338.4 286.199 339.7 286.199 341.7Z" fill="white"/>
<path d="M289.7 343.5C290 344.5 290.7 345 292 345C292.8 345 293.4 344.7 293.8 344.2L295.5 345.2C294.7 346.3 293.5 346.9 292 346.9C290.7 346.9 289.6 346.5 288.8 345.7C288 344.9 287.6 343.9 287.6 342.7C287.6 341.5 288 340.5 288.8 339.7C289.6 338.9 290.6 338.5 291.8 338.5C293 338.5 293.9 338.9 294.7 339.7C295.5 340.5 295.9 341.5 295.9 342.7C295.9 343 295.9 343.2 295.8 343.5H289.7ZM293.8 341.9C293.6 340.8 292.8 340.3 291.8 340.3C290.7 340.3 289.9 340.9 289.7 341.9H293.8Z" fill="white"/>
<path d="M303.899 339.3C304.499 339.9 304.799 340.7 304.799 341.7V346.6H302.699V342C302.699 340.9 302.099 340.4 301.099 340.4C299.999 340.4 299.299 341.1 299.299 342.4V346.7H297.199V338.7H299.299V339.6C299.799 338.8 300.599 338.5 301.699 338.5C302.599 338.4 303.299 338.7 303.899 339.3Z" fill="white"/>
<path d="M311.099 340.6H309.299V343.9C309.299 344.8 309.899 344.8 311.099 344.7V346.6C308.299 346.9 307.199 346.1 307.199 343.9V340.6H305.799V338.6H307.199V337L309.299 336.4V338.6H311.099V340.6V340.6Z" fill="white"/>
<path d="M87.6996 295.8C86.5996 294.7 86.0996 293.3 86.0996 291.7C86.0996 290.1 86.5996 288.7 87.6996 287.6C88.7996 286.5 90.1996 285.9 91.8996 285.9C93.8996 285.9 95.7996 286.9 96.6996 288.5L94.7996 289.6C94.1996 288.6 93.1996 288 91.8996 288C90.7996 288 89.8996 288.3 89.2996 289C88.5996 289.7 88.2996 290.6 88.2996 291.7C88.2996 292.8 88.5996 293.7 89.2996 294.3C89.9996 295 90.8996 295.3 91.8996 295.3C93.1996 295.3 94.2996 294.7 94.7996 293.7L96.6996 294.8C95.6996 296.4 93.8996 297.4 91.8996 297.4C90.1996 297.5 88.7996 296.9 87.6996 295.8Z" fill="white"/>
<path d="M101.899 297.5C100.699 297.5 99.6992 297.1 98.8992 296.3C98.0992 295.5 97.6992 294.5 97.6992 293.3C97.6992 292.1 98.0992 291.1 98.8992 290.3C99.6992 289.5 100.699 289.1 101.899 289.1C103.099 289.1 104.099 289.5 104.899 290.3C105.699 291.1 106.099 292.1 106.099 293.3C106.099 294.5 105.699 295.5 104.899 296.3C104.099 297.1 103.099 297.5 101.899 297.5ZM101.899 295.4C102.499 295.4 102.999 295.2 103.499 294.8C103.999 294.4 104.099 293.9 104.099 293.2C104.099 292.5 103.899 292 103.499 291.6C103.099 291.2 102.599 291 101.899 291C101.199 291 100.799 291.2 100.299 291.6C99.8992 292 99.6992 292.5 99.6992 293.2C99.6992 293.9 99.8992 294.4 100.299 294.8C100.799 295.2 101.299 295.4 101.899 295.4Z" fill="white"/>
<path d="M114.2 289.9C114.8 290.5 115.1 291.3 115.1 292.3V297.2H113V292.5C113 291.4 112.4 290.9 111.4 290.9C110.3 290.9 109.6 291.6 109.6 292.9V297.2H107.5V289.2H109.6V290.1C110.1 289.3 110.9 289 112 289C112.9 289 113.6 289.3 114.2 289.9Z" fill="white"/>
<path d="M121.4 291.2H119.6V294.5C119.6 295.4 120.2 295.4 121.4 295.3V297.2C118.6 297.5 117.5 296.7 117.5 294.5V291.2H116.1V289.2H117.5V287.6L119.6 287V289.2H121.4V291.2V291.2Z" fill="white"/>
<path d="M122.799 287.3C122.799 286.6 123.399 286.1 124.099 286.1C124.799 286.1 125.399 286.7 125.399 287.3C125.399 288 124.799 288.5 124.099 288.5C123.299 288.5 122.799 288 122.799 287.3ZM122.999 297.2V289.2H125.099V297.2H122.999Z" fill="white"/>
<path d="M133.6 289.9C134.2 290.5 134.5 291.3 134.5 292.3V297.2H132.4V292.5C132.4 291.4 131.8 290.9 130.8 290.9C129.7 290.9 129 291.6 129 292.9V297.2H126.9V289.2H129V290.1C129.5 289.3 130.3 289 131.4 289C132.3 289 133 289.3 133.6 289.9Z" fill="white"/>
<path d="M141.5 289.2H143.6V297.2H141.5V296.3C141 297.1 140.2 297.4 139.1 297.4C138.2 297.4 137.5 297.1 136.9 296.5C136.3 295.9 136.1 295.1 136.1 294.1V289.2H138.2V293.9C138.2 295 138.8 295.5 139.8 295.5C140.9 295.5 141.6 294.8 141.6 293.5V289.2H141.5Z" fill="white"/>
<path d="M149.2 297.5C148 297.5 147 297.1 146.2 296.3C145.4 295.5 145 294.5 145 293.3C145 292.1 145.4 291.1 146.2 290.3C147 289.5 148 289.1 149.2 289.1C150.4 289.1 151.4 289.5 152.2 290.3C153 291.1 153.4 292.1 153.4 293.3C153.4 294.5 153 295.5 152.2 296.3C151.4 297.1 150.4 297.5 149.2 297.5ZM149.2 295.4C149.8 295.4 150.3 295.2 150.8 294.8C151.3 294.4 151.4 293.9 151.4 293.2C151.4 292.5 151.2 292 150.8 291.6C150.4 291.2 149.9 291 149.2 291C148.5 291 148.1 291.2 147.6 291.6C147.2 292 147 292.5 147 293.2C147 293.9 147.2 294.4 147.6 294.8C148.1 295.2 148.6 295.4 149.2 295.4Z" fill="white"/>
<path d="M160.199 289.2H162.299V297.2H160.199V296.3C159.699 297.1 158.899 297.4 157.799 297.4C156.899 297.4 156.199 297.1 155.599 296.5C154.999 295.9 154.799 295.1 154.799 294.1V289.2H156.899V293.9C156.899 295 157.499 295.5 158.499 295.5C159.599 295.5 160.299 294.8 160.299 293.5V289.2H160.199Z" fill="white"/>
<path d="M167.4 292.4C168.6 292.6 170.1 293.2 170.1 294.9C170.1 295.7 169.8 296.4 169.2 296.8C168.6 297.2 167.8 297.5 166.9 297.5C165.3 297.5 164.1 296.9 163.5 295.6L165.3 294.6C165.5 295.3 166.1 295.6 166.9 295.6C167.6 295.6 168 295.4 168 294.9C168 294.5 167.4 294.2 166.5 294C165.3 293.7 163.8 293.2 163.8 291.5C163.8 290.7 164.1 290.1 164.7 289.6C165.3 289.1 166 288.9 166.9 288.9C168.2 288.9 169.3 289.5 169.9 290.6L168.1 291.6C167.8 291.1 167.4 290.8 166.8 290.8C166.3 290.8 165.9 291.1 165.9 291.5C166 291.9 166.6 292.2 167.4 292.4Z" fill="white"/>
<path d="M99.9 305.2V316.4H97.7V309.1L94.5 314.3H94.2L91 309.1V316.4H89V305.2H91.3L94.5 310.5L97.7 305.2H99.9Z" fill="white"/>
<path d="M105.7 316.7C104.5 316.7 103.5 316.3 102.7 315.5C101.9 314.7 101.5 313.7 101.5 312.5C101.5 311.3 101.9 310.3 102.7 309.5C103.5 308.7 104.5 308.3 105.7 308.3C106.9 308.3 107.9 308.7 108.7 309.5C109.5 310.3 109.9 311.3 109.9 312.5C109.9 313.7 109.5 314.7 108.7 315.5C107.9 316.3 106.9 316.7 105.7 316.7ZM105.7 314.6C106.3 314.6 106.8 314.4 107.3 314C107.8 313.6 107.9 313.1 107.9 312.4C107.9 311.7 107.7 311.2 107.3 310.8C106.9 310.4 106.4 310.2 105.7 310.2C105 310.2 104.6 310.4 104.1 310.8C103.7 311.2 103.5 311.7 103.5 312.4C103.5 313.1 103.7 313.6 104.1 314C104.6 314.4 105.1 314.6 105.7 314.6Z" fill="white"/>
<path d="M117.999 309.1C118.599 309.7 118.899 310.5 118.899 311.5V316.4H116.799V311.7C116.799 310.6 116.199 310.1 115.199 310.1C114.099 310.1 113.399 310.8 113.399 312.1V316.4H111.299V308.4H113.399V309.3C113.899 308.5 114.699 308.2 115.799 308.2C116.699 308.2 117.399 308.5 117.999 309.1Z" fill="white"/>
<path d="M120.4 306.5C120.4 305.8 121 305.3 121.7 305.3C122.4 305.3 123 305.9 123 306.5C123 307.2 122.4 307.7 121.7 307.7C121 307.7 120.4 307.2 120.4 306.5ZM120.6 316.4V308.4H122.7V316.4H120.6Z" fill="white"/>
<path d="M129.2 310.4H127.4V313.7C127.4 314.6 128 314.6 129.2 314.5V316.4C126.4 316.7 125.3 315.9 125.3 313.7V310.4H123.9V308.4H125.3V306.8L127.4 306.2V308.4H129.2V310.4V310.4Z" fill="white"/>
<path d="M134.6 316.7C133.4 316.7 132.4 316.3 131.6 315.5C130.8 314.7 130.4 313.7 130.4 312.5C130.4 311.3 130.8 310.3 131.6 309.5C132.4 308.7 133.4 308.3 134.6 308.3C135.8 308.3 136.8 308.7 137.6 309.5C138.4 310.3 138.8 311.3 138.8 312.5C138.8 313.7 138.4 314.7 137.6 315.5C136.7 316.3 135.7 316.7 134.6 316.7ZM134.6 314.6C135.2 314.6 135.7 314.4 136.2 314C136.7 313.6 136.8 313.1 136.8 312.4C136.8 311.7 136.6 311.2 136.2 310.8C135.8 310.4 135.3 310.2 134.6 310.2C133.9 310.2 133.5 310.4 133 310.8C132.6 311.2 132.4 311.7 132.4 312.4C132.4 313.1 132.6 313.6 133 314C133.4 314.4 133.9 314.6 134.6 314.6Z" fill="white"/>
<path d="M142.299 309.8C142.699 308.8 143.599 308.3 144.699 308.3V310.6C144.099 310.5 143.499 310.6 142.999 311C142.499 311.4 142.299 311.9 142.299 312.6V316.4H140.199V308.4H142.299V309.8Z" fill="white"/>
<path d="M145.699 306.5C145.699 305.8 146.299 305.3 146.999 305.3C147.699 305.3 148.299 305.9 148.299 306.5C148.299 307.2 147.699 307.7 146.999 307.7C146.299 307.7 145.699 307.2 145.699 306.5ZM145.899 316.4V308.4H147.999V316.4H145.899Z" fill="white"/>
<path d="M156.499 309.1C157.099 309.7 157.399 310.5 157.399 311.5V316.4H155.299V311.7C155.299 310.6 154.699 310.1 153.699 310.1C152.599 310.1 151.899 310.8 151.899 312.1V316.4H149.799V308.4H151.899V309.3C152.399 308.5 153.199 308.2 154.299 308.2C155.199 308.2 155.899 308.5 156.499 309.1Z" fill="white"/>
<path d="M165.3 308.4H167.3V316C167.3 317.2 166.9 318.2 166.1 318.8C165.3 319.5 164.3 319.8 163.2 319.8C161.5 319.8 160.1 319.1 159.4 317.8L161.2 316.8C161.6 317.6 162.3 317.9 163.3 317.9C164.6 317.9 165.4 317.2 165.4 315.9V315C164.8 315.8 163.9 316.2 162.8 316.2C161.7 316.2 160.7 315.8 160 315C159.2 314.2 158.9 313.2 158.9 312.1C158.9 311 159.3 310 160.1 309.2C160.9 308.4 161.8 308 162.9 308C164 308 164.9 308.4 165.5 309.2V308.4H165.3ZM164.6 310.8C164.2 310.4 163.7 310.2 163 310.2C162.3 310.2 161.8 310.4 161.4 310.8C161 311.2 160.8 311.7 160.8 312.4C160.8 313.7 161.7 314.6 163 314.6C164.3 314.6 165.2 313.7 165.2 312.4C165.3 311.7 165 311.2 164.6 310.8Z" fill="white"/>
<path d="M152.8 190.5C150.9 188.6 150 186.2 150 183.4C150 180.6 150.9 178.2 152.8 176.3C154.7 174.4 157.1 173.4 160 173.4C163.5 173.4 166.6 175.2 168.3 177.9L165 179.8C164 178.1 162.2 177 160 177C158.1 177 156.6 177.6 155.5 178.8C154.4 180 153.8 181.5 153.8 183.4C153.8 185.2 154.4 186.8 155.5 187.9C156.7 189.1 158.2 189.7 160 189.7C162.2 189.7 164.1 188.7 165 187L168.3 188.9C166.6 191.7 163.5 193.4 160 193.4C157.1 193.4 154.7 192.4 152.8 190.5Z" fill="#0B1529"/>
<path d="M177.2 193.4C175.2 193.4 173.4 192.7 172 191.3C170.6 189.9 169.9 188.2 169.9 186.1C169.9 184.1 170.6 182.4 172 181C173.4 179.6 175.1 178.9 177.2 178.9C179.2 178.9 181 179.6 182.4 181C183.8 182.4 184.5 184.1 184.5 186.1C184.5 188.1 183.8 189.9 182.4 191.3C181 192.7 179.3 193.4 177.2 193.4ZM177.2 189.9C178.3 189.9 179.2 189.5 179.9 188.8C180.6 188.1 181 187.2 181 186.1C181 185 180.6 184.1 179.9 183.4C179.2 182.7 178.3 182.3 177.2 182.3C176.1 182.3 175.2 182.7 174.5 183.4C173.8 184.1 173.5 185 173.5 186.1C173.5 187.2 173.9 188.1 174.5 188.8C175.3 189.6 176.1 189.9 177.2 189.9Z" fill="#0B1529"/>
<path d="M198.4 180.4C199.4 181.4 199.9 182.8 199.9 184.6V193H196.4V185C196.4 183.2 195.3 182.2 193.7 182.2C191.9 182.2 190.7 183.3 190.7 185.6V193H187V179.2H190.5V180.7C191.4 179.4 192.7 178.8 194.6 178.8C196.2 178.9 197.4 179.4 198.4 180.4Z" fill="#0B1529"/>
<path d="M210.7 182.7H207.6V188.4C207.6 189.9 208.7 189.9 210.7 189.8V193C205.8 193.6 204 192.1 204 188.4V182.7H201.6V179.3H204V176.5L207.5 175.4V179.3H210.6V182.7H210.7Z" fill="#0B1529"/>
<path d="M213.1 175.9C213.1 174.7 214.1 173.8 215.3 173.8C216.5 173.8 217.5 174.8 217.5 175.9C217.5 177.1 216.5 178 215.3 178C214 178.1 213.1 177.1 213.1 175.9ZM213.5 193V179.2H217V193H213.5Z" fill="#0B1529"/>
<path d="M231.6 180.4C232.6 181.4 233.1 182.8 233.1 184.6V193H229.6V185C229.6 183.2 228.5 182.2 226.9 182.2C225.1 182.2 223.9 183.3 223.9 185.6V193H220.4V179.2H223.9V180.7C224.8 179.4 226.1 178.8 228 178.8C229.4 178.9 230.7 179.4 231.6 180.4Z" fill="#0B1529"/>
<path d="M245.2 179.3H248.7V193H245.2V191.5C244.3 192.8 243 193.4 241.1 193.4C239.6 193.4 238.3 192.9 237.4 191.9C236.4 190.9 235.9 189.5 235.9 187.7V179.3H239.4V187.3C239.4 189.1 240.5 190.1 242.1 190.1C243.9 190.1 245.1 189 245.1 186.7V179.3H245.2Z" fill="#0B1529"/>
<path d="M258.601 193.4C256.601 193.4 254.801 192.7 253.401 191.3C252.001 189.9 251.301 188.2 251.301 186.1C251.301 184.1 252.001 182.4 253.401 181C254.801 179.6 256.501 178.9 258.601 178.9C260.701 178.9 262.401 179.6 263.801 181C265.201 182.4 265.901 184.1 265.901 186.1C265.901 188.1 265.201 189.9 263.801 191.3C262.301 192.7 260.601 193.4 258.601 193.4ZM258.601 189.9C259.701 189.9 260.601 189.5 261.301 188.8C262.001 188.1 262.401 187.2 262.401 186.1C262.401 185 262.001 184.1 261.301 183.4C260.601 182.7 259.701 182.3 258.601 182.3C257.501 182.3 256.601 182.7 255.901 183.4C255.201 184.1 254.901 185 254.901 186.1C254.901 187.2 255.301 188.1 255.901 188.8C256.601 189.6 257.501 189.9 258.601 189.9Z" fill="#0B1529"/>
<path d="M277.4 179.3H280.9V193H277.4V191.5C276.5 192.8 275.2 193.4 273.3 193.4C271.8 193.4 270.5 192.9 269.6 191.9C268.6 190.9 268.1 189.5 268.1 187.7V179.3H271.6V187.3C271.6 189.1 272.7 190.1 274.3 190.1C276.1 190.1 277.3 189 277.3 186.7V179.3H277.4Z" fill="#0B1529"/>
<path d="M289.899 184.7C291.899 185.1 294.499 186.1 294.499 189C294.499 190.4 293.999 191.5 292.899 192.3C291.899 193 290.499 193.4 288.999 193.4C286.199 193.4 284.199 192.3 283.199 190.1L286.299 188.4C286.699 189.6 287.599 190.2 288.999 190.2C290.299 190.2 290.899 189.8 290.899 189C290.899 188.3 289.799 187.8 288.399 187.5C286.399 187 283.799 186.1 283.799 183.3C283.799 182 284.299 180.9 285.299 180.1C286.299 179.3 287.599 178.9 288.999 178.9C291.199 178.9 293.199 179.9 294.199 181.8L291.199 183.5C290.799 182.6 289.999 182.1 288.999 182.1C288.099 182.1 287.399 182.5 287.399 183.2C287.399 183.9 288.499 184.3 289.899 184.7Z" fill="#0B1529"/>
<path d="M179.401 206.8C182.001 206.8 184.201 207.7 186.001 209.6C187.801 211.4 188.701 213.7 188.701 216.5C188.701 219.3 187.801 221.5 186.001 223.4C184.201 225.2 182.001 226.2 179.401 226.2H171.801V206.9H179.401V206.8ZM179.401 222.4C181.101 222.4 182.401 221.9 183.501 220.7C184.501 219.6 185.101 218.1 185.101 216.4C185.101 214.7 184.601 213.2 183.501 212.1C182.501 211 181.101 210.4 179.401 210.4H175.501V222.4H179.401Z" fill="#0B1529"/>
<path d="M194.2 220.6C194.7 222.3 196 223.2 198.1 223.2C199.4 223.2 200.5 222.7 201.2 221.8L204.1 223.5C202.8 225.5 200.7 226.4 198.1 226.4C195.8 226.4 194 225.7 192.6 224.3C191.2 222.9 190.5 221.2 190.5 219.1C190.5 217 191.2 215.3 192.5 213.9C193.8 212.5 195.6 211.8 197.7 211.8C199.7 211.8 201.4 212.5 202.7 213.9C204 215.3 204.7 217 204.7 219.1C204.7 219.6 204.6 220 204.6 220.6H194.2ZM201.2 217.9C200.8 216 199.4 215.1 197.8 215.1C195.9 215.1 194.6 216.1 194.2 217.9H201.2Z" fill="#0B1529"/>
<path d="M207.199 226V205.9H210.699V226H207.199Z" fill="#0B1529"/>
<path d="M213.6 208.9C213.6 207.7 214.6 206.8 215.8 206.8C217 206.8 218 207.8 218 208.9C218 210 217 211 215.8 211C214.6 211.1 213.6 210.1 213.6 208.9ZM214 226V212.2H217.5V226H214Z" fill="#0B1529"/>
<path d="M229.9 212.3H233.8L228.6 226.1H224.6L219.4 212.3H223.3L226.6 221.9L229.9 212.3Z" fill="#0B1529"/>
<path d="M238.501 220.6C239.001 222.3 240.301 223.2 242.401 223.2C243.701 223.2 244.801 222.7 245.501 221.8L248.401 223.5C247.101 225.5 245.001 226.4 242.401 226.4C240.101 226.4 238.301 225.7 236.901 224.3C235.501 222.9 234.801 221.2 234.801 219.1C234.801 217 235.501 215.3 236.801 213.9C238.101 212.5 239.901 211.8 242.001 211.8C244.001 211.8 245.701 212.5 247.001 213.9C248.301 215.3 249.001 217 249.001 219.1C249.001 219.6 248.901 220 248.901 220.6H238.501ZM245.401 217.9C245.001 216 243.601 215.1 242.001 215.1C240.101 215.1 238.801 216.1 238.401 217.9H245.401Z" fill="#0B1529"/>
<path d="M255 214.6C255.7 212.8 257.3 212 259.2 212V216C258.1 215.9 257.1 216.1 256.3 216.7C255.4 217.3 255 218.2 255 219.5V226.1H251.5V212.3H255V214.6V214.6Z" fill="#0B1529"/>
<path d="M270.5 212.3H274.3L269.3 226.1C267.9 230.1 265.6 231.8 262 231.6V228.3C263.9 228.3 264.9 227.5 265.6 225.7L260 212.4H263.9L267.5 221.6L270.5 212.3Z" fill="#0B1529"/>
</svg>
