<svg width="443" height="121" viewBox="0 0 443 121" fill="none" xmlns="http://www.w3.org/2000/svg">
<rect y="13.5923" width="150.016" height="38.2591" fill="#00AEEF"/>
<path d="M12.9775 35.6741H14.6448V27.2168H12.9775V35.6741ZM20.7168 30.346C20.2577 29.754 19.6053 29.464 18.7596 29.464C17.9501 29.464 17.2493 29.7781 16.6694 30.3943C16.1016 31.0105 15.8116 31.7596 15.8116 32.6536C15.8116 33.5477 16.1016 34.3088 16.6694 34.925C17.2493 35.5412 17.9501 35.8432 18.7596 35.8432C19.6053 35.8432 20.2577 35.5533 20.7168 34.9612V35.6741H22.2754V27.2168H20.7168V30.346ZM17.8413 33.886C17.5272 33.5598 17.3702 33.149 17.3702 32.6536C17.3702 32.1583 17.5272 31.7475 17.8413 31.4334C18.1676 31.1071 18.5663 30.9501 19.0495 30.9501C19.5328 30.9501 19.9315 31.1071 20.2456 31.4334C20.5598 31.7475 20.7168 32.1583 20.7168 32.6536C20.7168 33.149 20.5598 33.5598 20.2456 33.886C19.9315 34.2001 19.5328 34.3572 19.0495 34.3572C18.5663 34.3572 18.1676 34.2001 17.8413 33.886ZM29.5725 33.294C29.6087 33.0644 29.6329 32.859 29.6329 32.6536C29.6329 31.7475 29.3429 30.9984 28.763 30.3822C28.1952 29.7661 27.4582 29.464 26.5762 29.464C25.6459 29.464 24.8727 29.7661 24.2807 30.3822C23.6887 30.9863 23.3866 31.7475 23.3866 32.6536C23.3866 33.5718 23.6887 34.333 24.2927 34.9371C24.8968 35.5412 25.6942 35.8432 26.697 35.8432C27.8569 35.8432 28.7389 35.4083 29.3309 34.5505L28.0744 33.8256C27.7723 34.2243 27.3132 34.4296 26.7212 34.4296C25.7909 34.4296 25.223 34.0551 25.0177 33.294H29.5725ZM24.9935 32.0858C25.1747 31.3125 25.7426 30.8655 26.5762 30.8655C27.289 30.8655 27.8931 31.2642 28.0744 32.0858H24.9935ZM35.2648 30.346C34.7936 29.754 34.1412 29.464 33.2955 29.464C32.486 29.464 31.7973 29.7781 31.2174 30.3943C30.6496 31.0105 30.3596 31.7596 30.3596 32.6536C30.3596 33.5477 30.6496 34.3088 31.2174 34.925C31.7973 35.5412 32.486 35.8432 33.2955 35.8432C34.1412 35.8432 34.7936 35.5533 35.2648 34.9612V35.6741H36.8234V29.6332H35.2648V30.346ZM32.3894 33.886C32.0752 33.5598 31.9182 33.149 31.9182 32.6536C31.9182 32.1583 32.0752 31.7475 32.3894 31.4334C32.7035 31.1071 33.1022 30.9501 33.5855 30.9501C34.0687 30.9501 34.4674 31.1071 34.7816 31.4334C35.1078 31.7475 35.2648 32.1583 35.2648 32.6536C35.2648 33.149 35.1078 33.5598 34.7816 33.886C34.4674 34.2001 34.0687 34.3572 33.5855 34.3572C33.1022 34.3572 32.7035 34.2001 32.3894 33.886ZM43.4439 26.0086H42.7553L37.9225 36.8823H38.6112L43.4439 26.0086ZM49.6834 27.2168H44.6332V35.6741H46.3005V32.412H49.5868V30.8172H46.3005V28.8116H49.6834V27.2168ZM56.6976 33.294C56.7338 33.0644 56.758 32.859 56.758 32.6536C56.758 31.7475 56.468 30.9984 55.8881 30.3822C55.3203 29.7661 54.5833 29.464 53.7013 29.464C52.771 29.464 51.9978 29.7661 51.4058 30.3822C50.8137 30.9863 50.5117 31.7475 50.5117 32.6536C50.5117 33.5718 50.8137 34.333 51.4178 34.9371C52.0219 35.5412 52.8193 35.8432 53.8221 35.8432C54.982 35.8432 55.8639 35.4083 56.456 34.5505L55.1994 33.8256C54.8974 34.2243 54.4383 34.4296 53.8463 34.4296C52.916 34.4296 52.3481 34.0551 52.1427 33.294H56.6976ZM52.1186 32.0858C52.2998 31.3125 52.8677 30.8655 53.7013 30.8655C54.4141 30.8655 55.0182 31.2642 55.1994 32.0858H52.1186ZM62.3899 30.346C61.9187 29.754 61.2663 29.464 60.4206 29.464C59.6111 29.464 58.9224 29.7781 58.3425 30.3943C57.7747 31.0105 57.4847 31.7596 57.4847 32.6536C57.4847 33.5477 57.7747 34.3088 58.3425 34.925C58.9224 35.5412 59.6111 35.8432 60.4206 35.8432C61.2663 35.8432 61.9187 35.5533 62.3899 34.9612V35.6741H63.9485V29.6332H62.3899V30.346ZM59.5144 33.886C59.2003 33.5598 59.0433 33.149 59.0433 32.6536C59.0433 32.1583 59.2003 31.7475 59.5144 31.4334C59.8286 31.1071 60.2273 30.9501 60.7105 30.9501C61.1938 30.9501 61.5925 31.1071 61.9066 31.4334C62.2329 31.7475 62.3899 32.1583 62.3899 32.6536C62.3899 33.149 62.2329 33.5598 61.9066 33.886C61.5925 34.2001 61.1938 34.3572 60.7105 34.3572C60.2273 34.3572 59.8286 34.2001 59.5144 33.886ZM68.8172 29.6332H67.4519V27.9417L65.8934 28.4129V29.6332H64.8422V31.1313H65.8934V33.6443C65.8934 35.2995 66.6787 35.9157 68.8172 35.6741V34.2605C67.9231 34.3088 67.4519 34.2967 67.4519 33.6443V31.1313H68.8172V29.6332ZM73.9974 32.8953C73.9974 33.898 73.4779 34.3934 72.6684 34.3934C71.9435 34.3934 71.4723 33.9585 71.4723 33.149V29.6332H69.9138V33.3423C69.9138 34.1276 70.1312 34.7317 70.5541 35.1787C70.9891 35.6257 71.5327 35.8432 72.1972 35.8432C73.0188 35.8432 73.6229 35.5653 73.9974 34.9975V35.6741H75.556V29.6332H73.9974V32.8953ZM78.542 29.6332H76.9834V35.6741H78.542V32.7865C78.542 32.2066 78.7232 31.7958 79.0977 31.5421C79.4723 31.2884 79.9072 31.1917 80.3784 31.2521V29.5123C79.5569 29.5123 78.8319 29.899 78.542 30.6722V29.6332ZM87.1617 33.294C87.1979 33.0644 87.2221 32.859 87.2221 32.6536C87.2221 31.7475 86.9321 30.9984 86.3522 30.3822C85.7844 29.7661 85.0474 29.464 84.1654 29.464C83.2351 29.464 82.4619 29.7661 81.8699 30.3822C81.2778 30.9863 80.9758 31.7475 80.9758 32.6536C80.9758 33.5718 81.2778 34.333 81.8819 34.9371C82.486 35.5412 83.2834 35.8432 84.2862 35.8432C85.4461 35.8432 86.328 35.4083 86.9201 34.5505L85.6635 33.8256C85.3615 34.2243 84.9024 34.4296 84.3104 34.4296C83.3801 34.4296 82.8122 34.0551 82.6068 33.294H87.1617ZM82.5827 32.0858C82.7639 31.3125 83.3318 30.8655 84.1654 30.8655C84.8782 30.8655 85.4823 31.2642 85.6635 32.0858H82.5827ZM93.5174 26.0086H92.8287L87.996 36.8823H88.6847L93.5174 26.0086ZM99.8173 31.2884C100.349 30.8655 100.615 30.2977 100.615 29.5969C100.615 28.9083 100.361 28.3404 99.8656 27.8934C99.3703 27.4464 98.7662 27.2168 98.0413 27.2168H94.7067V35.6741H98.295C99.032 35.6741 99.6602 35.4445 100.168 34.9854C100.675 34.5263 100.929 33.9343 100.929 33.2215C100.929 32.3637 100.554 31.7112 99.8173 31.2884ZM98.0413 28.7754C98.5729 28.7754 98.9474 29.1741 98.9474 29.7057C98.9474 30.2373 98.5608 30.636 98.0413 30.636H96.374V28.7754H98.0413ZM96.374 34.1155V32.122H98.295C98.8628 32.122 99.2736 32.5449 99.2736 33.1127C99.2736 33.6927 98.8628 34.1155 98.295 34.1155H96.374ZM106.066 32.8953C106.066 33.898 105.547 34.3934 104.737 34.3934C104.012 34.3934 103.541 33.9585 103.541 33.149V29.6332H101.983V33.3423C101.983 34.1276 102.2 34.7317 102.623 35.1787C103.058 35.6257 103.601 35.8432 104.266 35.8432C105.088 35.8432 105.692 35.5653 106.066 34.9975V35.6741H107.625V29.6332H106.066V32.8953ZM113.679 30.3822C113.22 29.7661 112.58 29.464 111.746 29.464C110.901 29.464 110.188 29.7661 109.608 30.3702C109.028 30.9742 108.738 31.6992 108.738 32.557C108.738 33.4148 109.028 34.1518 109.596 34.7559C110.176 35.3479 110.889 35.6499 111.746 35.6499C112.58 35.6499 113.22 35.3479 113.679 34.7317V35.3841C113.679 36.3386 113.075 36.8702 112.097 36.8702C111.348 36.8702 110.816 36.5923 110.514 36.0244L109.185 36.7856C109.717 37.7521 110.744 38.2596 112.048 38.2596C112.918 38.2596 113.655 38.0179 114.271 37.5226C114.888 37.0272 115.202 36.3144 115.202 35.3841V29.6332H113.679V30.3822ZM113.679 32.557C113.679 33.5235 112.967 34.2122 111.988 34.2122C111.009 34.2122 110.297 33.5235 110.297 32.557C110.297 32.0858 110.454 31.6871 110.768 31.385C111.094 31.0709 111.493 30.9138 111.988 30.9138C112.483 30.9138 112.882 31.0709 113.196 31.385C113.522 31.6871 113.679 32.0858 113.679 32.557ZM121.822 26.0086H121.134L116.301 36.8823H116.99L121.822 26.0086ZM128.062 27.2168H123.012V35.6741H124.679V32.412H127.965V30.8172H124.679V28.8116H128.062V27.2168ZM129.977 29.1016C130.509 29.1016 130.944 28.6787 130.944 28.1713C130.944 27.6638 130.509 27.2289 129.977 27.2289C129.458 27.2289 129.023 27.6638 129.023 28.1713C129.023 28.6787 129.458 29.1016 129.977 29.1016ZM130.763 35.6741V29.6332H129.204V35.6741H130.763ZM135.548 32.5811L137.662 29.6332H135.874L134.654 31.3367L133.434 29.6332H131.634L133.748 32.5932L131.537 35.6741H133.337L134.654 33.8376L135.959 35.6741H137.759L135.548 32.5811Z" fill="white"/>
<path d="M202.804 1.54297V10.0002H206.163C207.323 10.0002 208.289 9.58946 209.062 8.77998C209.848 7.9705 210.234 6.96771 210.234 5.77161C210.234 4.57551 209.848 3.57272 209.062 2.76324C208.289 1.95376 207.323 1.54297 206.163 1.54297H202.804ZM204.471 8.40544V3.13777H206.163C206.9 3.13777 207.492 3.37941 207.951 3.87476C208.41 4.35804 208.639 4.98629 208.639 5.77161C208.639 6.55693 208.41 7.18518 207.951 7.68054C207.492 8.16381 206.9 8.40544 206.163 8.40544H204.471ZM217.216 7.62013C217.252 7.39057 217.277 7.18518 217.277 6.97979C217.277 6.07365 216.987 5.32458 216.407 4.70841C215.839 4.09224 215.102 3.79019 214.22 3.79019C213.29 3.79019 212.516 4.09224 211.924 4.70841C211.332 5.3125 211.03 6.07365 211.03 6.97979C211.03 7.89801 211.332 8.65916 211.936 9.26325C212.541 9.86734 213.338 10.1694 214.341 10.1694C215.501 10.1694 216.383 9.73444 216.975 8.87664L215.718 8.15173C215.416 8.55043 214.957 8.75582 214.365 8.75582C213.435 8.75582 212.867 8.38128 212.661 7.62013H217.216ZM212.637 6.41194C212.818 5.63871 213.386 5.19168 214.22 5.19168C214.933 5.19168 215.537 5.59038 215.718 6.41194H212.637ZM221.88 3.79019C221.035 3.79019 220.382 4.08015 219.923 4.67216V3.95934H218.365V12.4166H219.923V9.28742C220.382 9.87943 221.035 10.1694 221.88 10.1694C222.69 10.1694 223.391 9.86734 223.959 9.25117C224.538 8.635 224.828 7.87384 224.828 6.97979C224.828 6.08574 224.538 5.33666 223.959 4.72049C223.391 4.10432 222.69 3.79019 221.88 3.79019ZM220.394 8.21214C220.08 7.88593 219.923 7.47514 219.923 6.97979C219.923 6.48444 220.08 6.07365 220.394 5.75953C220.709 5.43332 221.107 5.27625 221.59 5.27625C222.074 5.27625 222.472 5.43332 222.787 5.75953C223.113 6.07365 223.27 6.48444 223.27 6.97979C223.27 7.47514 223.113 7.88593 222.787 8.21214C222.472 8.52626 222.074 8.68333 221.59 8.68333C221.107 8.68333 220.709 8.52626 220.394 8.21214ZM227.486 10.0002V1.18052H225.928V10.0002H227.486ZM234.059 9.25117C234.676 8.635 234.99 7.87384 234.99 6.97979C234.99 6.08574 234.676 5.33666 234.059 4.72049C233.443 4.10432 232.682 3.79019 231.788 3.79019C230.894 3.79019 230.133 4.10432 229.517 4.72049C228.901 5.33666 228.599 6.08574 228.599 6.97979C228.599 7.87384 228.901 8.635 229.517 9.25117C230.133 9.86734 230.894 10.1694 231.788 10.1694C232.682 10.1694 233.443 9.86734 234.059 9.25117ZM230.616 8.17589C230.314 7.86176 230.157 7.46306 230.157 6.97979C230.157 6.49652 230.314 6.09782 230.616 5.78369C230.93 5.46956 231.317 5.3125 231.788 5.3125C232.259 5.3125 232.646 5.46956 232.96 5.78369C233.274 6.09782 233.431 6.49652 233.431 6.97979C233.431 7.46306 233.274 7.86176 232.96 8.17589C232.646 8.49002 232.259 8.64708 231.788 8.64708C231.317 8.64708 230.93 8.49002 230.616 8.17589ZM238.448 8.01883L236.877 3.95934H235.174L237.65 9.80694C237.36 10.6285 236.901 10.9789 236.068 10.9668V12.4166C237.614 12.5012 238.629 11.74 239.257 10.0002L241.456 3.95934H239.789L238.448 8.01883Z" fill="#0C152A"/>
<path d="M189.205 56.302V57.7759H191.766C191.464 58.7787 190.594 59.3828 189.302 59.3828C188.432 59.3828 187.731 59.1291 187.199 58.6096C186.68 58.0901 186.414 57.4256 186.414 56.6282C186.414 55.8187 186.668 55.1542 187.187 54.6347C187.707 54.1031 188.371 53.8373 189.181 53.8373C190.184 53.8373 191.053 54.3205 191.452 55.0092L192.878 54.1876C192.153 52.9915 190.776 52.2183 189.193 52.2183C187.936 52.2183 186.885 52.6412 186.027 53.499C185.182 54.3568 184.759 55.3958 184.759 56.6282C184.759 57.8484 185.182 58.8875 186.04 59.7453C186.897 60.591 187.985 61.0139 189.29 61.0139C190.51 61.0139 191.513 60.6393 192.286 59.8903C193.059 59.1412 193.446 58.1626 193.446 56.9544V56.302H189.205ZM200.431 58.4646C200.467 58.2351 200.491 58.0297 200.491 57.8243C200.491 56.9181 200.201 56.1691 199.621 55.5529C199.054 54.9367 198.317 54.6347 197.435 54.6347C196.504 54.6347 195.731 54.9367 195.139 55.5529C194.547 56.157 194.245 56.9181 194.245 57.8243C194.245 58.7425 194.547 59.5036 195.151 60.1077C195.755 60.7118 196.553 61.0139 197.555 61.0139C198.715 61.0139 199.597 60.5789 200.189 59.7211L198.933 58.9962C198.631 59.3949 198.172 59.6003 197.58 59.6003C196.649 59.6003 196.081 59.2258 195.876 58.4646H200.431ZM195.852 57.2564C196.033 56.4832 196.601 56.0362 197.435 56.0362C198.147 56.0362 198.751 56.4349 198.933 57.2564H195.852ZM204.858 54.8038H203.492V53.1124L201.934 53.5836V54.8038H200.883V56.302H201.934V58.815C201.934 60.4702 202.719 61.0864 204.858 60.8447V59.4312C203.964 59.4795 203.492 59.4674 203.492 58.815V56.302H204.858V54.8038ZM214.194 52.3875H209.144V60.8447H210.811V57.5826H214.097V55.9878H210.811V53.9823H214.194V52.3875ZM221.208 58.4646C221.245 58.2351 221.269 58.0297 221.269 57.8243C221.269 56.9181 220.979 56.1691 220.399 55.5529C219.831 54.9367 219.094 54.6347 218.212 54.6347C217.282 54.6347 216.508 54.9367 215.916 55.5529C215.324 56.157 215.022 56.9181 215.022 57.8243C215.022 58.7425 215.324 59.5036 215.929 60.1077C216.533 60.7118 217.33 61.0139 218.333 61.0139C219.493 61.0139 220.375 60.5789 220.967 59.7211L219.71 58.9962C219.408 59.3949 218.949 59.6003 218.357 59.6003C217.427 59.6003 216.859 59.2258 216.653 58.4646H221.208ZM216.629 57.2564C216.81 56.4832 217.378 56.0362 218.212 56.0362C218.925 56.0362 219.529 56.4349 219.71 57.2564H216.629ZM228.228 58.4646C228.265 58.2351 228.289 58.0297 228.289 57.8243C228.289 56.9181 227.999 56.1691 227.419 55.5529C226.851 54.9367 226.114 54.6347 225.232 54.6347C224.302 54.6347 223.529 54.9367 222.937 55.5529C222.345 56.157 222.043 56.9181 222.043 57.8243C222.043 58.7425 222.345 59.5036 222.949 60.1077C223.553 60.7118 224.35 61.0139 225.353 61.0139C226.513 61.0139 227.395 60.5789 227.987 59.7211L226.73 58.9962C226.428 59.3949 225.969 59.6003 225.377 59.6003C224.447 59.6003 223.879 59.2258 223.674 58.4646H228.228ZM223.649 57.2564C223.831 56.4832 224.399 56.0362 225.232 56.0362C225.945 56.0362 226.549 56.4349 226.73 57.2564H223.649ZM233.956 55.5166C233.497 54.9246 232.844 54.6347 231.999 54.6347C231.189 54.6347 230.488 54.9488 229.908 55.565C229.341 56.1811 229.051 56.9302 229.051 57.8243C229.051 58.7183 229.341 59.4795 229.908 60.0957C230.488 60.7118 231.189 61.0139 231.999 61.0139C232.844 61.0139 233.497 60.7239 233.956 60.1319V60.8447H235.514V52.3875H233.956V55.5166ZM231.08 59.0566C230.766 58.7304 230.609 58.3196 230.609 57.8243C230.609 57.3289 230.766 56.9181 231.08 56.604C231.407 56.2778 231.805 56.1207 232.289 56.1207C232.772 56.1207 233.171 56.2778 233.485 56.604C233.799 56.9181 233.956 57.3289 233.956 57.8243C233.956 58.3196 233.799 58.7304 233.485 59.0566C233.171 59.3707 232.772 59.5278 232.289 59.5278C231.805 59.5278 231.407 59.3707 231.08 59.0566ZM240.456 54.6347C239.61 54.6347 238.957 54.9246 238.498 55.5166V52.3875H236.94V60.8447H238.498V60.1319C238.957 60.7239 239.61 61.0139 240.456 61.0139C241.265 61.0139 241.966 60.7118 242.534 60.0957C243.114 59.4795 243.404 58.7183 243.404 57.8243C243.404 56.9302 243.114 56.1811 242.534 55.565C241.966 54.9488 241.265 54.6347 240.456 54.6347ZM238.97 59.0566C238.655 58.7304 238.498 58.3196 238.498 57.8243C238.498 57.3289 238.655 56.9181 238.97 56.604C239.284 56.2778 239.682 56.1207 240.166 56.1207C240.649 56.1207 241.048 56.2778 241.362 56.604C241.688 56.9181 241.845 57.3289 241.845 57.8243C241.845 58.3196 241.688 58.7304 241.362 59.0566C241.048 59.3707 240.649 59.5278 240.166 59.5278C239.682 59.5278 239.284 59.3707 238.97 59.0566ZM249.094 55.5166C248.623 54.9246 247.97 54.6347 247.125 54.6347C246.315 54.6347 245.626 54.9488 245.046 55.565C244.479 56.1811 244.189 56.9302 244.189 57.8243C244.189 58.7183 244.479 59.4795 245.046 60.0957C245.626 60.7118 246.315 61.0139 247.125 61.0139C247.97 61.0139 248.623 60.7239 249.094 60.1319V60.8447H250.652V54.8038H249.094V55.5166ZM246.218 59.0566C245.904 58.7304 245.747 58.3196 245.747 57.8243C245.747 57.3289 245.904 56.9181 246.218 56.604C246.532 56.2778 246.931 56.1207 247.414 56.1207C247.898 56.1207 248.296 56.2778 248.611 56.604C248.937 56.9181 249.094 57.3289 249.094 57.8243C249.094 58.3196 248.937 58.7304 248.611 59.0566C248.296 59.3707 247.898 59.5278 247.414 59.5278C246.931 59.5278 246.532 59.3707 246.218 59.0566ZM254.941 61.0139C256.113 61.0139 257.14 60.3977 257.672 59.4432L256.318 58.67C256.077 59.1654 255.557 59.4674 254.929 59.4674C254.458 59.4674 254.071 59.3103 253.769 59.0083C253.467 58.6942 253.31 58.2955 253.31 57.8243C253.31 56.8577 253.999 56.1691 254.929 56.1691C255.545 56.1691 256.065 56.4832 256.306 56.9785L257.647 56.1932C257.152 55.2388 256.113 54.6347 254.941 54.6347C254.035 54.6347 253.274 54.9367 252.658 55.5529C252.054 56.1691 251.752 56.9181 251.752 57.8243C251.752 58.7304 252.054 59.4795 252.658 60.0957C253.274 60.7118 254.035 61.0139 254.941 61.0139ZM261.612 57.788L264.04 54.8038H262.18L260.102 57.4618V52.3875H258.543V60.8447H260.102V58.1022L262.301 60.8447H264.113L261.612 57.788Z" fill="#0C152A"/>
<rect x="17.1172" y="80.5457" width="115.784" height="38.2591" rx="19.1295" fill="#00AEEF"/>
<path d="M38.6433 94.1702V102.627H42.0021C43.1619 102.627 44.1285 102.217 44.9017 101.407C45.687 100.598 46.0736 99.5949 46.0736 98.3988C46.0736 97.2027 45.687 96.1999 44.9017 95.3904C44.1285 94.581 43.1619 94.1702 42.0021 94.1702H38.6433ZM40.3106 101.033V95.765H42.0021C42.739 95.765 43.3311 96.0066 43.7902 96.502C44.2493 96.9852 44.4788 97.6135 44.4788 98.3988C44.4788 99.1841 44.2493 99.8124 43.7902 100.308C43.3311 100.791 42.739 101.033 42.0021 101.033H40.3106ZM52.9348 100.247C52.971 100.018 52.9952 99.8124 52.9952 99.607C52.9952 98.7009 52.7052 97.9518 52.1253 97.3356C51.5575 96.7194 50.8205 96.4174 49.9385 96.4174C49.0082 96.4174 48.235 96.7194 47.6429 97.3356C47.0509 97.9397 46.7489 98.7009 46.7489 99.607C46.7489 100.525 47.0509 101.286 47.655 101.89C48.2591 102.495 49.0565 102.797 50.0593 102.797C51.2192 102.797 52.1011 102.362 52.6931 101.504L51.4366 100.779C51.1346 101.178 50.6755 101.383 50.0835 101.383C49.1532 101.383 48.5853 101.008 48.3799 100.247H52.9348ZM48.3558 99.0391C48.537 98.2659 49.1048 97.8189 49.9385 97.8189C50.6513 97.8189 51.2554 98.2176 51.4366 99.0391H48.3558ZM56.2274 100.815L54.7655 96.5865H53.0498L55.3454 102.627H57.1214L59.417 96.5865H57.7013L56.2274 100.815ZM65.9194 100.247C65.9557 100.018 65.9798 99.8124 65.9798 99.607C65.9798 98.7009 65.6899 97.9518 65.1099 97.3356C64.5421 96.7194 63.8051 96.4174 62.9231 96.4174C61.9928 96.4174 61.2196 96.7194 60.6276 97.3356C60.0356 97.9397 59.7335 98.7009 59.7335 99.607C59.7335 100.525 60.0356 101.286 60.6397 101.89C61.2438 102.495 62.0412 102.797 63.044 102.797C64.2038 102.797 65.0858 102.362 65.6778 101.504L64.4213 100.779C64.1192 101.178 63.6601 101.383 63.0681 101.383C62.1378 101.383 61.57 101.008 61.3646 100.247H65.9194ZM61.3404 99.0391C61.5216 98.2659 62.0895 97.8189 62.9231 97.8189C63.636 97.8189 64.2401 98.2176 64.4213 99.0391H61.3404ZM68.5056 102.627V93.8077H66.947V102.627H68.5056ZM74.9581 101.878C75.5743 101.262 75.8884 100.501 75.8884 99.607C75.8884 98.7129 75.5743 97.9639 74.9581 97.3477C74.342 96.7315 73.5808 96.4174 72.6868 96.4174C71.7927 96.4174 71.0315 96.7315 70.4154 97.3477C69.7992 97.9639 69.4972 98.7129 69.4972 99.607C69.4972 100.501 69.7992 101.262 70.4154 101.878C71.0315 102.495 71.7927 102.797 72.6868 102.797C73.5808 102.797 74.342 102.495 74.9581 101.878ZM71.5148 100.803C71.2128 100.489 71.0557 100.09 71.0557 99.607C71.0557 99.1237 71.2128 98.725 71.5148 98.4109C71.8289 98.0968 72.2156 97.9397 72.6868 97.9397C73.1579 97.9397 73.5446 98.0968 73.8587 98.4109C74.1728 98.725 74.3299 99.1237 74.3299 99.607C74.3299 100.09 74.1728 100.489 73.8587 100.803C73.5446 101.117 73.1579 101.274 72.6868 101.274C72.2156 101.274 71.8289 101.117 71.5148 100.803ZM80.3798 96.4174C79.5341 96.4174 78.8817 96.7074 78.4226 97.2994V96.5865H76.864V105.044H78.4226V101.915C78.8817 102.507 79.5341 102.797 80.3798 102.797C81.1893 102.797 81.8901 102.495 82.4579 101.878C83.0378 101.262 83.3278 100.501 83.3278 99.607C83.3278 98.7129 83.0378 97.9639 82.4579 97.3477C81.8901 96.7315 81.1893 96.4174 80.3798 96.4174ZM78.8938 100.839C78.5797 100.513 78.4226 100.102 78.4226 99.607C78.4226 99.1116 78.5797 98.7009 78.8938 98.3867C79.2079 98.0605 79.6066 97.9035 80.0899 97.9035C80.5732 97.9035 80.9719 98.0605 81.286 98.3867C81.6122 98.7009 81.7693 99.1116 81.7693 99.607C81.7693 100.102 81.6122 100.513 81.286 100.839C80.9719 101.153 80.5732 101.311 80.0899 101.311C79.6066 101.311 79.2079 101.153 78.8938 100.839ZM90.9874 96.4174C90.19 96.4174 89.5859 96.7074 89.1872 97.2873C88.8368 96.7074 88.2811 96.4174 87.5441 96.4174C86.7829 96.4174 86.2272 96.6832 85.8647 97.2269V96.5865H84.3062V102.627H85.8647V99.2325C85.8647 98.3505 86.3117 97.8672 87.0004 97.8672C87.6407 97.8672 88.0153 98.2901 88.0153 99.015V102.627H89.5738V99.2325C89.5738 98.3505 89.9846 97.8672 90.6974 97.8672C91.3378 97.8672 91.7123 98.2901 91.7123 99.015V102.627H93.2709V98.9062C93.2709 97.396 92.3768 96.4174 90.9874 96.4174ZM100.346 100.247C100.382 100.018 100.406 99.8124 100.406 99.607C100.406 98.7009 100.116 97.9518 99.536 97.3356C98.9682 96.7194 98.2312 96.4174 97.3492 96.4174C96.4189 96.4174 95.6457 96.7194 95.0537 97.3356C94.4617 97.9397 94.1596 98.7009 94.1596 99.607C94.1596 100.525 94.4617 101.286 95.0658 101.89C95.6699 102.495 96.4673 102.797 97.47 102.797C98.6299 102.797 99.5119 102.362 100.104 101.504L98.8474 100.779C98.5453 101.178 98.0862 101.383 97.4942 101.383C96.5639 101.383 95.9961 101.008 95.7907 100.247H100.346ZM95.7665 99.0391C95.9477 98.2659 96.5156 97.8189 97.3492 97.8189C98.0621 97.8189 98.6661 98.2176 98.8474 99.0391H95.7665ZM104.732 96.4174C103.91 96.4174 103.306 96.6953 102.932 97.2631V96.5865H101.373V102.627H102.932V99.3654C102.932 98.3626 103.451 97.8672 104.261 97.8672C104.986 97.8672 105.457 98.3022 105.457 99.1116V102.627H107.015V98.9183C107.015 98.133 106.798 97.5289 106.363 97.0819C105.94 96.6349 105.396 96.4174 104.732 96.4174ZM111.681 96.5865H110.315V94.8951L108.757 95.3663V96.5865H107.706V98.0847H108.757V100.598C108.757 102.253 109.542 102.869 111.681 102.627V101.214C110.787 101.262 110.315 101.25 110.315 100.598V98.0847H111.681V96.5865Z" fill="white"/>
<rect x="166.125" y="82.5593" width="115.784" height="38.2591" rx="19.1295" fill="#00AEEF"/>
<path d="M215.938 100.255C216.469 99.8326 216.735 99.2647 216.735 98.564C216.735 97.8753 216.481 97.3075 215.986 96.8604C215.491 96.4134 214.887 96.1838 214.162 96.1838H210.827V104.641H214.415C215.152 104.641 215.781 104.412 216.288 103.952C216.796 103.493 217.049 102.901 217.049 102.189C217.049 101.331 216.675 100.678 215.938 100.255ZM214.162 97.7424C214.693 97.7424 215.068 98.1411 215.068 98.6727C215.068 99.2043 214.681 99.603 214.162 99.603H212.494V97.7424H214.162ZM212.494 103.083V101.089H214.415C214.983 101.089 215.394 101.512 215.394 102.08C215.394 102.66 214.983 103.083 214.415 103.083H212.494ZM222.187 101.862C222.187 102.865 221.667 103.36 220.858 103.36C220.133 103.36 219.661 102.925 219.661 102.116V98.6002H218.103V102.309C218.103 103.095 218.32 103.699 218.743 104.146C219.178 104.593 219.722 104.81 220.386 104.81C221.208 104.81 221.812 104.532 222.187 103.965V104.641H223.745V98.6002H222.187V101.862ZM225.946 98.0686C226.477 98.0686 226.912 97.6457 226.912 97.1383C226.912 96.6309 226.477 96.1959 225.946 96.1959C225.426 96.1959 224.991 96.6309 224.991 97.1383C224.991 97.6457 225.426 98.0686 225.946 98.0686ZM226.731 104.641V98.6002H225.173V104.641H226.731ZM229.716 104.641V95.8214H228.158V104.641H229.716ZM235.722 99.313C235.263 98.721 234.61 98.4311 233.764 98.4311C232.955 98.4311 232.254 98.7452 231.674 99.3614C231.106 99.9775 230.817 100.727 230.817 101.621C230.817 102.515 231.106 103.276 231.674 103.892C232.254 104.508 232.955 104.81 233.764 104.81C234.61 104.81 235.263 104.52 235.722 103.928V104.641H237.28V96.1838H235.722V99.313ZM232.846 102.853C232.532 102.527 232.375 102.116 232.375 101.621C232.375 101.125 232.532 100.715 232.846 100.4C233.172 100.074 233.571 99.9171 234.054 99.9171C234.538 99.9171 234.936 100.074 235.251 100.4C235.565 100.715 235.722 101.125 235.722 101.621C235.722 102.116 235.565 102.527 235.251 102.853C234.936 103.167 234.538 103.324 234.054 103.324C233.571 103.324 233.172 103.167 232.846 102.853Z" fill="white"/>
<rect x="310.1" y="82.5593" width="115.784" height="38.2591" rx="19.1295" fill="#00AEEF"/>
<path d="M368.324 100.412C368.324 99.1801 367.889 98.1411 367.031 97.2954C366.174 96.4376 365.147 96.0147 363.926 96.0147C362.706 96.0147 361.679 96.4376 360.821 97.2954C359.964 98.1411 359.541 99.1801 359.541 100.412C359.541 101.645 359.964 102.684 360.821 103.542C361.679 104.387 362.706 104.81 363.926 104.81C364.688 104.81 365.4 104.629 366.053 104.267L366.971 105.221L368.155 104.17L367.285 103.264C367.974 102.454 368.324 101.512 368.324 100.412ZM363.926 103.179C363.153 103.179 362.501 102.913 361.981 102.394C361.462 101.874 361.196 101.21 361.196 100.412C361.196 99.603 361.462 98.9385 361.981 98.419C362.501 97.8995 363.153 97.6337 363.926 97.6337C364.7 97.6337 365.352 97.8995 365.872 98.419C366.391 98.9385 366.657 99.603 366.657 100.412C366.657 101.029 366.488 101.584 366.15 102.068L364.663 100.521L363.479 101.572L364.869 103.022C364.555 103.131 364.241 103.179 363.926 103.179ZM376.804 104.641L373.832 96.1838H371.766L368.806 104.641H370.606L371.114 103.119H374.484L374.992 104.641H376.804ZM372.805 98.1049L373.965 101.56H371.645L372.805 98.1049Z" fill="white"/>
<rect x="292.984" y="13.5923" width="150.016" height="38.2591" fill="#00AEEF"/>
<path d="M338.167 27.2168V35.6741H339.834V32.8953H341.32C342.13 32.8953 342.818 32.6174 343.374 32.0737C343.93 31.53 344.208 30.8534 344.208 30.056C344.208 29.2586 343.93 28.582 343.374 28.0384C342.818 27.4947 342.13 27.2168 341.32 27.2168H338.167ZM339.834 31.3367V28.7754H341.32C342.033 28.7754 342.553 29.319 342.553 30.056C342.553 30.7809 342.033 31.3367 341.32 31.3367H339.834ZM346.649 29.6332H345.091V35.6741H346.649V32.7865C346.649 32.2066 346.831 31.7958 347.205 31.5421C347.58 31.2884 348.015 31.1917 348.486 31.2521V29.5123C347.664 29.5123 346.939 29.899 346.649 30.6722V29.6332ZM354.544 34.925C355.16 34.3088 355.475 33.5477 355.475 32.6536C355.475 31.7596 355.16 31.0105 354.544 30.3943C353.928 29.7781 353.167 29.464 352.273 29.464C351.379 29.464 350.618 29.7781 350.002 30.3943C349.385 31.0105 349.083 31.7596 349.083 32.6536C349.083 33.5477 349.385 34.3088 350.002 34.925C350.618 35.5412 351.379 35.8432 352.273 35.8432C353.167 35.8432 353.928 35.5412 354.544 34.925ZM351.101 33.8497C350.799 33.5356 350.642 33.1369 350.642 32.6536C350.642 32.1703 350.799 31.7716 351.101 31.4575C351.415 31.1434 351.802 30.9863 352.273 30.9863C352.744 30.9863 353.131 31.1434 353.445 31.4575C353.759 31.7716 353.916 32.1703 353.916 32.6536C353.916 33.1369 353.759 33.5356 353.445 33.8497C353.131 34.1638 352.744 34.3209 352.273 34.3209C351.802 34.3209 351.415 34.1638 351.101 33.8497ZM361.15 30.346C360.691 29.754 360.039 29.464 359.193 29.464C358.383 29.464 357.683 29.7781 357.103 30.3943C356.535 31.0105 356.245 31.7596 356.245 32.6536C356.245 33.5477 356.535 34.3088 357.103 34.925C357.683 35.5412 358.383 35.8432 359.193 35.8432C360.039 35.8432 360.691 35.5533 361.15 34.9612V35.6741H362.709V27.2168H361.15V30.346ZM358.275 33.886C357.96 33.5598 357.803 33.149 357.803 32.6536C357.803 32.1583 357.96 31.7475 358.275 31.4334C358.601 31.1071 358.999 30.9501 359.483 30.9501C359.966 30.9501 360.365 31.1071 360.679 31.4334C360.993 31.7475 361.15 32.1583 361.15 32.6536C361.15 33.149 360.993 33.5598 360.679 33.886C360.365 34.2001 359.966 34.3572 359.483 34.3572C358.999 34.3572 358.601 34.2001 358.275 33.886ZM368.121 32.8953C368.121 33.898 367.601 34.3934 366.792 34.3934C366.067 34.3934 365.596 33.9585 365.596 33.149V29.6332H364.037V33.3423C364.037 34.1276 364.255 34.7317 364.678 35.1787C365.113 35.6257 365.656 35.8432 366.321 35.8432C367.142 35.8432 367.746 35.5653 368.121 34.9975V35.6741H369.68V29.6332H368.121V32.8953ZM373.982 35.8432C375.154 35.8432 376.181 35.227 376.713 34.2726L375.36 33.4993C375.118 33.9947 374.599 34.2967 373.97 34.2967C373.499 34.2967 373.113 34.1397 372.81 33.8376C372.508 33.5235 372.351 33.1248 372.351 32.6536C372.351 31.6871 373.04 30.9984 373.97 30.9984C374.587 30.9984 375.106 31.3125 375.348 31.8079L376.689 31.0226C376.193 30.0681 375.154 29.464 373.982 29.464C373.076 29.464 372.315 29.7661 371.699 30.3822C371.095 30.9984 370.793 31.7475 370.793 32.6536C370.793 33.5598 371.095 34.3088 371.699 34.925C372.315 35.5412 373.076 35.8432 373.982 35.8432ZM380.993 29.6332H379.627V27.9417L378.069 28.4129V29.6332H377.018V31.1313H378.069V33.6443C378.069 35.2995 378.854 35.9157 380.993 35.6741V34.2605C380.099 34.3088 379.627 34.2967 379.627 33.6443V31.1313H380.993V29.6332ZM382.959 29.1016C383.491 29.1016 383.926 28.6787 383.926 28.1713C383.926 27.6638 383.491 27.2289 382.959 27.2289C382.44 27.2289 382.005 27.6638 382.005 28.1713C382.005 28.6787 382.44 29.1016 382.959 29.1016ZM383.744 35.6741V29.6332H382.186V35.6741H383.744ZM390.318 34.925C390.934 34.3088 391.248 33.5477 391.248 32.6536C391.248 31.7596 390.934 31.0105 390.318 30.3943C389.702 29.7781 388.94 29.464 388.046 29.464C387.152 29.464 386.391 29.7781 385.775 30.3943C385.159 31.0105 384.857 31.7596 384.857 32.6536C384.857 33.5477 385.159 34.3088 385.775 34.925C386.391 35.5412 387.152 35.8432 388.046 35.8432C388.94 35.8432 389.702 35.5412 390.318 34.925ZM386.874 33.8497C386.572 33.5356 386.415 33.1369 386.415 32.6536C386.415 32.1703 386.572 31.7716 386.874 31.4575C387.189 31.1434 387.575 30.9863 388.046 30.9863C388.518 30.9863 388.904 31.1434 389.218 31.4575C389.532 31.7716 389.69 32.1703 389.69 32.6536C389.69 33.1369 389.532 33.5356 389.218 33.8497C388.904 34.1638 388.518 34.3209 388.046 34.3209C387.575 34.3209 387.189 34.1638 386.874 33.8497ZM395.703 29.464C394.882 29.464 394.278 29.7419 393.903 30.3097V29.6332H392.345V35.6741H393.903V32.412C393.903 31.4092 394.423 30.9138 395.232 30.9138C395.957 30.9138 396.428 31.3488 396.428 32.1583V35.6741H397.987V31.965C397.987 31.1796 397.769 30.5755 397.334 30.1285C396.911 29.6815 396.368 29.464 395.703 29.464Z" fill="white"/>
<path d="M264.821 23.1875C265.116 22.8926 265.116 22.4145 264.821 22.1196L260.016 17.3141C259.721 17.0192 259.243 17.0192 258.948 17.3141C258.653 17.609 258.653 18.0871 258.948 18.382L263.22 22.6536L258.948 26.9251C258.653 27.22 258.653 27.6981 258.948 27.993C259.243 28.2879 259.721 28.2879 260.016 27.993L264.821 23.1875ZM179.715 23.4087H264.288V21.8985H179.715V23.4087Z" fill="#00AEEF"/>
<path d="M179.184 39.2356C178.889 39.5305 178.889 40.0086 179.184 40.3035L183.99 45.109C184.285 45.4039 184.763 45.4039 185.058 45.109C185.353 44.8141 185.353 44.336 185.058 44.0411L180.786 39.7695L185.058 35.498C185.353 35.2031 185.353 34.725 185.058 34.4301C184.763 34.1352 184.285 34.1352 183.99 34.4301L179.184 39.2356ZM264.291 39.0144L179.718 39.0144L179.718 40.5246L264.291 40.5246L264.291 39.0144Z" fill="#00AEEF"/>
</svg>
