<svg width="462" height="272" viewBox="0 0 462 272" fill="none" xmlns="http://www.w3.org/2000/svg">
<g clip-path="url(#clip0_1_8010)">
<path d="M2 10.6242L31.792 0.000244141L61.584 10.6242L57.04 50.0162L31.792 64.0002L6.544 50.0162L2 10.6242Z" fill="#DF1E34"/>
<path d="M57.248 49.9607L32 63.9447V-0.0552979L61.792 10.5687L57.248 49.9607Z" fill="#C52033"/>
<path d="M50.3813 48.8324H43.4373L39.6933 39.4884H31.7893H23.8853L20.1413 48.8324H13.1973L31.7893 7.07239L50.3813 48.8324Z" fill="white"/>
<path d="M26.3516 33.7283H31.7916H37.2316L31.7916 20.6403L26.3516 33.7283Z" fill="#C52033"/>
<path d="M26.3516 33.7283H31.7916V20.6403L26.3516 33.7283Z" fill="#EB0707"/>
</g>
<path fill-rule="evenodd" clip-rule="evenodd" d="M143.875 58.9091L112 4.3636L176 4.36361L143.875 58.9091ZM125.301 4.36363L143.801 36.3047L162.446 4.36363L125.301 4.36363Z" fill="#41B883"/>
<path fill-rule="evenodd" clip-rule="evenodd" d="M125.302 4.36364L143.802 36.3047L162.447 4.36365L125.302 4.36364ZM136.344 4.36381L143.844 16.6488L151.403 4.36381L136.344 4.36381Z" fill="#35495E"/>
<path d="M255.999 37.4631C259.15 37.4631 261.704 34.8862 261.704 31.7074C261.704 28.5286 259.15 25.9517 255.999 25.9517C252.849 25.9517 250.295 28.5286 250.295 31.7074C250.295 34.8862 252.849 37.4631 255.999 37.4631Z" fill="#61DAFB"/>
<path fill-rule="evenodd" clip-rule="evenodd" d="M228.729 28.1592C227.352 29.4134 226.783 30.6147 226.783 31.7072C226.783 32.7998 227.352 34.0011 228.729 35.2552C230.106 36.5092 232.176 37.7029 234.853 38.7341C240.196 40.7928 247.673 42.0956 256 42.0956C264.327 42.0956 271.804 40.7928 277.147 38.7341C279.824 37.7029 281.894 36.5092 283.271 35.2552C284.648 34.0011 285.217 32.7998 285.217 31.7072C285.217 30.6147 284.648 29.4134 283.271 28.1592C281.894 26.9052 279.824 25.7116 277.147 24.6804C271.804 22.6217 264.327 21.3189 256 21.3189C247.673 21.3189 240.196 22.6217 234.853 24.6804C232.176 25.7116 230.106 26.9052 228.729 28.1592ZM233.86 22.0574C239.595 19.8482 247.423 18.5112 256 18.5112C264.577 18.5112 272.406 19.8482 278.14 22.0574C281.002 23.1602 283.415 24.5075 285.136 26.0751C286.856 27.6426 288 29.5435 288 31.7072C288 33.871 286.856 35.7719 285.136 37.3393C283.415 38.9069 281.002 40.2543 278.14 41.3571C272.406 43.5663 264.577 44.9033 256 44.9033C247.423 44.9033 239.595 43.5663 233.86 41.3571C230.998 40.2543 228.585 38.9069 226.864 37.3393C225.144 35.7719 224 33.871 224 31.7072C224 29.5435 225.144 27.6426 226.864 26.0751C228.585 24.5075 230.998 23.1602 233.86 22.0574Z" fill="#61DAFB"/>
<path fill-rule="evenodd" clip-rule="evenodd" d="M245.409 6.10325C243.644 5.52716 242.329 5.6302 241.391 6.17647C240.453 6.72274 239.707 7.82103 239.319 9.65125C238.931 11.4813 238.941 13.8872 239.395 16.7417C240.3 22.4406 242.92 29.6249 247.083 36.9015C251.247 44.178 256.103 50.0596 260.542 53.6997C262.765 55.5231 264.825 56.7353 266.59 57.3113C268.355 57.8874 269.67 57.7844 270.608 57.2381C271.546 56.6918 272.292 55.5936 272.68 53.7633C273.068 51.9333 273.058 49.5274 272.604 46.6729C271.699 40.974 269.079 33.7897 264.916 26.5131C260.752 19.2366 255.896 13.355 251.457 9.71484C249.234 7.89151 247.174 6.67927 245.409 6.10325ZM253.212 7.53604C257.975 11.4423 263.037 17.6141 267.326 25.1093C271.614 32.6045 274.381 40.1133 275.352 46.2287C275.837 49.2814 275.886 52.0629 275.401 54.3506C274.916 56.6381 273.857 58.5877 271.999 59.6696C270.142 60.7515 267.939 60.7027 265.733 59.9827C263.527 59.2626 261.165 57.8284 258.787 55.8786C254.024 51.9723 248.962 45.8005 244.673 38.3053C240.385 30.8101 237.618 23.3013 236.647 17.1859C236.162 14.1332 236.113 11.3517 236.598 9.06399C237.083 6.77651 238.142 4.82685 239.999 3.74496C241.857 2.66307 244.06 2.71188 246.266 3.43189C248.472 4.15197 250.834 5.58617 253.212 7.53604Z" fill="#61DAFB"/>
<path fill-rule="evenodd" clip-rule="evenodd" d="M272.68 9.65125C272.292 7.82103 271.546 6.72274 270.608 6.17647C269.67 5.6302 268.355 5.52716 266.59 6.10325C264.825 6.67927 262.765 7.89151 260.542 9.71484C256.103 13.355 251.247 19.2366 247.083 26.5131C242.92 33.7897 240.3 40.974 239.395 46.6729C238.941 49.5274 238.931 51.9333 239.319 53.7633C239.707 55.5936 240.453 56.6918 241.391 57.2381C242.329 57.7844 243.644 57.8874 245.409 57.3113C247.174 56.7353 249.234 55.5231 251.457 53.6997C255.896 50.0596 260.752 44.178 264.916 36.9015C269.079 29.6249 271.699 22.4406 272.604 16.7417C273.058 13.8872 273.068 11.4813 272.68 9.65125ZM275.352 17.1859C274.381 23.3013 271.614 30.8101 267.326 38.3053C263.037 45.8005 257.975 51.9723 253.212 55.8785C250.834 57.8284 248.472 59.2626 246.266 59.9827C244.06 60.7027 241.857 60.7515 239.999 59.6696C238.142 58.5877 237.083 56.6381 236.598 54.3506C236.113 52.0629 236.162 49.2814 236.647 46.2287C237.618 40.1133 240.385 32.6045 244.673 25.1093C248.962 17.6141 254.024 11.4423 258.787 7.53604C261.165 5.58618 263.527 4.15197 265.733 3.43189C267.939 2.71188 270.142 2.66307 271.999 3.74496C273.857 4.82685 274.916 6.77651 275.401 9.06399C275.886 11.3517 275.837 14.1332 275.352 17.1859Z" fill="#61DAFB"/>
<g clip-path="url(#clip1_1_8010)">
<path d="M400 53.3333C400 59.2 395.2 64 389.333 64H346.667C340.8 64 336 59.2 336 53.3333V10.6667C336 4.8 340.8 0 346.667 0H389.333C395.2 0 400 4.8 400 10.6667V53.3333Z" fill="#563D7C"/>
<path d="M353.389 13.9083H371.532C374.879 13.9083 377.566 14.6717 379.585 16.209C381.603 17.7462 382.617 20.0573 382.617 23.1632C382.617 25.0456 382.157 26.656 381.237 27.9946C380.317 29.3332 378.999 30.3789 377.284 31.1109V31.2155C379.585 31.707 381.331 32.7946 382.513 34.4783C383.695 36.1724 384.291 38.2848 384.291 40.8364C384.291 42.3005 384.029 43.6704 383.506 44.9358C382.983 46.2116 382.168 47.3096 381.049 48.2299C379.93 49.1502 378.508 49.8822 376.761 50.426C375.015 50.9698 372.944 51.2417 370.539 51.2417H353.389V13.9083ZM359.925 29.5423H370.591C372.16 29.5423 373.467 29.1031 374.513 28.2038C375.559 27.3044 376.081 26.0286 376.081 24.3554C376.081 22.473 375.611 21.1449 374.67 20.3815C373.729 19.6181 372.369 19.2312 370.591 19.2312H359.925V29.5423ZM359.925 45.9083H371.48C373.467 45.9083 375.015 45.3959 376.102 44.3606C377.2 43.3358 377.755 41.8717 377.755 39.9894C377.755 38.1384 377.211 36.7266 376.102 35.7227C374.994 34.7188 373.467 34.2377 371.48 34.2377H359.925V45.9083Z" fill="white"/>
</g>
<g clip-path="url(#clip2_1_8010)">
<path d="M29.3074 101.337L1.33679 129.284C-0.166952 130.787 -0.166952 133.213 1.33679 134.716L29.3074 162.664C30.8111 164.166 33.2399 164.166 34.7437 162.664L46.4714 150.946C47.8181 149.6 47.8181 147.418 46.4714 146.073C45.1246 144.727 42.9412 144.727 41.5945 146.073L32.7038 154.956C32.3295 155.33 31.7615 155.33 31.3872 154.956L9.0507 132.638C8.67642 132.264 8.67642 131.696 9.0507 131.322L31.3872 109.004C31.7615 108.63 32.3295 108.63 32.7038 109.004L41.5945 117.888C42.9412 119.233 45.1246 119.233 46.4714 117.888C47.8181 116.542 47.8181 114.36 46.4714 113.015L34.745 101.298C33.2351 99.8279 30.8054 99.8398 29.3074 101.337Z" fill="url(#paint0_linear_1_8010)"/>
<path d="M29.3074 101.337L1.33679 129.284C-0.166952 130.787 -0.166952 133.213 1.33679 134.716L29.3074 162.664C30.8111 164.166 33.2399 164.166 34.7437 162.664L46.4714 150.946C47.8181 149.6 47.8181 147.418 46.4714 146.073C45.1246 144.727 42.9412 144.727 41.5945 146.073L32.7038 154.956C32.3295 155.33 31.7615 155.33 31.3872 154.956L9.0507 132.638C8.67642 132.264 8.67642 131.696 9.0507 131.322L31.3872 109.004C32.3192 108.201 33.8397 106.573 36.0727 106.193C37.7322 105.91 39.5465 106.533 41.5155 108.06C40.1991 106.745 37.9422 104.491 34.745 101.298C33.2351 99.8279 30.8054 99.8398 29.3074 101.337Z" fill="url(#paint1_linear_1_8010)"/>
<path d="M49.1778 143.474C50.5246 144.819 52.708 144.819 54.0547 143.474L62.7056 134.83C64.2094 133.327 64.2094 130.9 62.7058 129.398L53.9795 120.71C52.6296 119.366 50.4454 119.368 49.0979 120.714C47.7512 122.06 47.7512 124.241 49.0979 125.587L54.9917 131.476C55.366 131.85 55.366 132.418 54.9917 132.792L49.1778 138.601C47.8311 139.946 47.8311 142.128 49.1778 143.474Z" fill="url(#paint2_linear_1_8010)"/>
<path d="M32.1653 139.686C36.3362 139.686 39.7174 136.307 39.7174 132.14C39.7174 127.972 36.3362 124.594 32.1653 124.594C27.9945 124.594 24.6133 127.972 24.6133 132.14C24.6133 136.307 27.9945 139.686 32.1653 139.686Z" fill="url(#paint3_linear_1_8010)"/>
</g>
<path d="M165.94 127.947L144.363 140.265V148.08L165.94 135.762V127.947ZM164.028 112.906L144.363 124.132V131.947L169.9 117.369H164.028V112.906ZM144.5 100.005L116.5 115.885L116.363 147.88L144.227 163.995L172.227 148.115L172.363 116.121L144.5 100.005ZM144.693 107.592L165.715 119.75L165.612 143.89L144.487 155.87L123.465 143.712L123.567 119.573L144.693 107.592Z" fill="#409EFF"/>
<path d="M255.329 114.496C244.993 114.824 241.921 122.208 241.217 126.208C242.134 124.725 245.025 121.472 249.281 121.472C254.241 121.472 258.017 127.008 260.321 128.736C263.12 130.835 268.745 133.607 276.129 131.36C282.017 129.568 284.747 123.317 285.345 120.352C282.497 124.224 278.177 126.55 272.833 123.808C269.153 121.92 266.401 114.144 255.329 114.496Z" fill="#07B6D5"/>
<path d="M240.704 132.064C230.368 132.392 227.296 139.776 226.592 143.776C227.509 142.293 230.4 139.04 234.656 139.04C239.616 139.04 243.392 144.576 245.696 146.304C248.495 148.403 254.12 151.175 261.504 148.928C267.392 147.136 270.122 140.885 270.72 137.92C267.872 141.792 263.552 144.118 258.208 141.376C254.528 139.488 251.776 131.712 240.704 132.064Z" fill="#07B6D5"/>
<path d="M368 164C385.674 164 400.001 149.673 400.001 132C400.001 114.326 385.674 99.9993 368 99.9993C350.327 99.9993 336 114.326 336 132C336 149.673 350.327 164 368 164Z" fill="#BDBDBD"/>
<path fill-rule="evenodd" clip-rule="evenodd" d="M345.6 109.599H390.4V154.4H345.6V109.599Z" fill="#747474"/>
<path fill-rule="evenodd" clip-rule="evenodd" d="M390.4 109.599H345.6L368 152.8L390.4 109.599Z" fill="white"/>
<mask id="mask0_1_8010" style="mask-type:alpha" maskUnits="userSpaceOnUse" x="0" y="211" width="19" height="19">
<rect y="211" width="18.8982" height="18.1895" rx="2.26259" fill="#F78119"/>
</mask>
<g mask="url(#mask0_1_8010)">
<rect y="211" width="18.8982" height="18.1895" rx="2.26259" fill="#FF7200"/>
<ellipse cx="19.9479" cy="241.821" rx="29.3971" ry="28.2947" fill="white"/>
<ellipse cx="23.0968" cy="243.337" rx="28.8722" ry="27.7895" fill="#3A3A3C"/>
</g>
<g clip-path="url(#clip3_1_8010)">
<path d="M25.7656 213.676C26.737 213.518 28.0321 213.4 29.3677 213.4C31.6746 213.4 33.2935 213.873 34.4268 214.817C35.7219 215.881 36.4909 217.534 36.4909 219.936C36.4909 222.495 35.6814 224.307 34.4268 225.448C33.1721 226.59 31.2294 227.181 28.8011 227.181C27.5464 227.181 26.5346 227.102 25.7656 227.023V213.676ZM28.194 225.212C28.5178 225.251 28.9225 225.251 29.3677 225.251C32.1198 225.251 33.9411 223.637 33.9411 220.015C33.9411 216.983 32.4436 215.251 29.6105 215.251C29.0034 215.251 28.5178 215.329 28.194 215.408V225.212Z" fill="#3A3A3C"/>
<path d="M40.7394 222.81C40.7799 224.7 42.1155 225.448 43.5725 225.448C44.6248 225.448 45.3938 225.291 46.0414 225.015L46.4056 226.669C45.5962 227.023 44.5034 227.259 43.1678 227.259C40.0919 227.259 38.3516 225.33 38.3516 222.338C38.3516 219.463 40.0109 217.101 42.925 217.101C45.839 217.101 46.9318 219.503 46.9318 221.787C46.9318 222.259 46.8913 222.653 46.8508 222.85H40.7394V222.81ZM44.6653 221.157C44.6653 220.054 44.2201 218.715 42.8036 218.715C41.4275 218.715 40.8204 220.093 40.7394 221.157H44.6653Z" fill="#3A3A3C"/>
<path d="M50.8573 217.259L52.3143 222.22C52.5571 223.046 52.7595 223.873 52.9214 224.7H52.9619C53.1237 223.873 53.3261 223.086 53.5689 222.22L54.9855 217.259H57.4948L54.0141 227.063H51.6667L48.2266 217.259H50.8573Z" fill="#3A3A3C"/>
<path d="M66.6837 220.999H61.9889V225.094H67.2503V227.063H59.5605V213.479H66.967V215.447H61.9889V218.991H66.6432V220.999H66.6837Z" fill="#FF7200"/>
<path d="M71.3775 217.259L72.4297 219.109C72.7131 219.66 72.9964 220.172 73.2392 220.684H73.2797C73.5225 220.133 73.8058 219.621 74.0487 219.109L75.0605 217.259H77.6507L74.5748 221.983L77.6912 227.063H74.939L73.8463 225.094C73.563 224.582 73.2797 224.07 73.0368 223.519H72.9964C72.7535 224.07 72.4702 224.582 72.1869 225.094L71.1346 227.063H68.5039L71.6203 222.102L68.6658 217.259H71.3775Z" fill="#FF7200"/>
<path d="M79.6337 220.448C79.6337 219.149 79.5932 218.125 79.5527 217.259H81.6978L81.8192 218.676H81.8597C82.5072 217.613 83.5595 217.062 84.8951 217.062C87.1211 217.062 88.74 219.03 88.74 222.062C88.74 225.606 86.6759 227.26 84.5713 227.26C83.4381 227.26 82.5072 226.748 82.062 226.039H82.0216V231H79.5932V220.448H79.6337ZM82.062 223.125C82.062 223.401 82.1025 223.637 82.143 223.834C82.3858 224.818 83.1953 225.409 84.0452 225.409C85.5022 225.409 86.2712 224.031 86.2712 222.18C86.2712 220.369 85.5022 218.991 84.0857 218.991C83.1953 218.991 82.3453 219.7 82.143 220.645C82.1025 220.842 82.062 221.078 82.062 221.314V223.125Z" fill="#FF7200"/>
<path d="M91.2099 220.29C91.2099 219.109 91.1694 218.125 91.1289 217.259H93.2335L93.3144 218.991H93.3954C93.8406 217.731 94.9333 217.022 95.9451 217.022C96.188 217.022 96.3094 217.022 96.5118 217.062V219.346C96.3094 219.306 96.107 219.306 95.8642 219.306C94.7714 219.306 93.962 220.015 93.7192 221.117C93.6787 221.354 93.6382 221.629 93.6382 221.905V227.023H91.2099V220.29Z" fill="#FF7200"/>
<path d="M100.112 222.81C100.153 224.7 101.489 225.448 102.946 225.448C103.998 225.448 104.767 225.291 105.414 225.015L105.779 226.669C104.969 227.023 103.876 227.259 102.541 227.259C99.4649 227.259 97.7246 225.33 97.7246 222.338C97.7246 219.463 99.384 217.101 102.298 217.101C105.212 217.101 106.305 219.503 106.305 221.787C106.305 222.259 106.264 222.653 106.224 222.85H100.112V222.81ZM104.038 221.157C104.038 220.054 103.593 218.715 102.177 218.715C100.801 218.715 100.193 220.093 100.112 221.157H104.038Z" fill="#FF7200"/>
<path d="M108.613 224.858C109.139 225.173 110.11 225.527 110.92 225.527C111.931 225.527 112.417 225.094 112.417 224.425C112.417 223.795 112.053 223.401 110.879 222.928C109.058 222.22 108.329 221.196 108.329 220.094C108.329 218.4 109.746 217.062 111.931 217.062C112.943 217.062 113.834 217.337 114.4 217.613L113.915 219.306C113.51 219.07 112.781 218.794 112.012 218.794C111.162 218.794 110.677 219.227 110.677 219.818C110.677 220.409 111.081 220.724 112.255 221.196C113.955 221.865 114.764 222.81 114.764 224.188C114.764 226.039 113.348 227.26 110.92 227.26C109.827 227.26 108.775 226.984 108.127 226.59L108.613 224.858Z" fill="#FF7200"/>
<path d="M117.031 224.858C117.557 225.173 118.528 225.527 119.338 225.527C120.349 225.527 120.835 225.094 120.835 224.425C120.835 223.795 120.471 223.401 119.297 222.928C117.476 222.22 116.747 221.196 116.747 220.094C116.747 218.4 118.164 217.062 120.349 217.062C121.361 217.062 122.252 217.337 122.818 217.613L122.332 219.306C121.928 219.07 121.199 218.794 120.43 218.794C119.58 218.794 119.095 219.227 119.095 219.818C119.095 220.409 119.499 220.724 120.673 221.196C122.373 221.865 123.182 222.81 123.182 224.188C123.182 226.039 121.766 227.26 119.338 227.26C118.245 227.26 117.192 226.984 116.545 226.59L117.031 224.858Z" fill="#FF7200"/>
<path d="M124.194 215.723H123.547V215.369H125.247V215.723H124.599V217.77H124.154V215.723H124.194Z" fill="#FF7200"/>
<path d="M127.513 216.826C127.513 216.511 127.473 216.156 127.473 215.841C127.392 216.117 127.311 216.432 127.23 216.707L126.906 217.731H126.582L126.299 216.707C126.218 216.432 126.137 216.117 126.056 215.802C126.056 216.117 126.016 216.471 126.016 216.786L125.975 217.731H125.57L125.732 215.329H126.258L126.542 216.314C126.623 216.589 126.704 216.865 126.744 217.141C126.784 216.865 126.865 216.589 126.987 216.314L127.311 215.329H127.837L127.999 217.731H127.594L127.513 216.826Z" fill="#FF7200"/>
</g>
<g clip-path="url(#clip4_1_8010)">
<path d="M152 213.338C153.198 213.145 154.796 213 156.443 213C159.289 213 161.285 213.58 162.683 214.739C164.281 216.043 165.229 218.071 165.229 221.017C165.229 224.156 164.231 226.378 162.683 227.778C161.136 229.179 158.739 229.903 155.744 229.903C154.197 229.903 152.949 229.807 152 229.71V213.338ZM154.995 227.489C155.395 227.537 155.894 227.537 156.443 227.537C159.838 227.537 162.084 225.557 162.084 221.114C162.084 217.395 160.237 215.27 156.743 215.27C155.994 215.27 155.395 215.366 154.995 215.463V227.489Z" fill="#F05B41"/>
<path d="M170.471 224.543C170.521 226.861 172.168 227.778 173.965 227.778C175.263 227.778 176.212 227.585 177.011 227.247L177.46 229.276C176.461 229.71 175.114 230 173.466 230C169.672 230 167.525 227.634 167.525 223.963C167.525 220.438 169.572 217.54 173.167 217.54C176.761 217.54 178.109 220.486 178.109 223.287C178.109 223.867 178.059 224.349 178.009 224.591H170.471V224.543ZM175.313 222.514C175.313 221.162 174.764 219.52 173.017 219.52C171.319 219.52 170.571 221.21 170.471 222.514H175.313Z" fill="#F05B41"/>
<path d="M182.952 217.733L184.749 223.818C185.049 224.832 185.298 225.847 185.498 226.861H185.548C185.748 225.847 185.997 224.881 186.297 223.818L188.044 217.733H191.139L186.846 229.758H183.95L179.707 217.733H182.952Z" fill="#F05B41"/>
<path d="M202.472 222.321H196.681V227.344H203.171V229.758H193.686V213.097H202.821V215.511H196.681V219.858H202.422V222.321H202.472Z" fill="#F05B41"/>
<path d="M208.263 217.733L209.561 220.003C209.911 220.679 210.26 221.307 210.56 221.935H210.61C210.909 221.258 211.259 220.631 211.558 220.003L212.806 217.733H216.001L212.207 223.528L216.051 229.758H212.656L211.308 227.344C210.959 226.716 210.61 226.088 210.31 225.412H210.26C209.961 226.088 209.611 226.716 209.262 227.344L207.964 229.758H204.719L208.563 223.673L204.918 217.733H208.263Z" fill="#F05B41"/>
<path d="M222.24 214.352V217.733H225.035V219.906H222.24V225.509C222.24 226.957 222.689 227.634 223.737 227.634C224.186 227.634 224.586 227.585 224.835 227.537L224.885 229.759C224.436 229.903 223.687 230.048 222.739 230.048C221.69 230.048 220.742 229.71 220.193 229.131C219.544 228.455 219.244 227.44 219.244 225.798V219.906H217.547V217.733H219.244V215.077L222.24 214.352Z" fill="#F05B41"/>
<path d="M227.781 221.452C227.781 220.003 227.732 218.796 227.682 217.733H230.278L230.377 219.858H230.477C231.026 218.313 232.374 217.443 233.622 217.443C233.922 217.443 234.072 217.443 234.321 217.492V220.293C234.072 220.244 233.822 220.244 233.523 220.244C232.175 220.244 231.176 221.114 230.877 222.466C230.827 222.756 230.777 223.094 230.777 223.432V229.71H227.781V221.452Z" fill="#F05B41"/>
<path d="M238.766 224.543C238.816 226.861 240.463 227.778 242.26 227.778C243.558 227.778 244.507 227.585 245.306 227.247L245.755 229.276C244.756 229.71 243.408 230 241.761 230C237.967 230 235.82 227.634 235.82 223.963C235.82 220.438 237.867 217.54 241.462 217.54C245.056 217.54 246.404 220.486 246.404 223.287C246.404 223.867 246.354 224.349 246.304 224.591H238.766V224.543ZM243.608 222.514C243.608 221.162 243.059 219.52 241.312 219.52C239.614 219.52 238.866 221.21 238.766 222.514H243.608Z" fill="#F05B41"/>
<path d="M249.399 221.259C249.399 219.858 249.349 218.796 249.299 217.733H251.895L252.045 219.375H252.094C252.694 218.457 253.792 217.443 255.639 217.443C257.187 217.443 258.335 218.216 258.834 219.52H258.884C259.283 218.892 259.782 218.409 260.332 218.071C260.981 217.685 261.679 217.443 262.628 217.443C264.675 217.443 266.472 218.844 266.472 222.418V229.71H263.527V222.901C263.527 221.065 262.977 219.858 261.53 219.858C260.581 219.858 259.832 220.534 259.533 221.403C259.433 221.693 259.383 222.031 259.383 222.418V229.759H256.438V222.563C256.438 221.065 255.889 219.858 254.541 219.858C253.542 219.858 252.793 220.631 252.494 221.5C252.394 221.79 252.344 222.128 252.344 222.514V229.759H249.399V221.259Z" fill="#F05B41"/>
<path d="M272.361 224.543C272.411 226.861 274.059 227.778 275.856 227.778C277.154 227.778 278.102 227.585 278.901 227.247L279.351 229.276C278.352 229.71 277.004 230 275.357 230C271.563 230 269.416 227.634 269.416 223.963C269.416 220.438 271.463 217.54 275.057 217.54C278.652 217.54 279.999 220.486 279.999 223.287C279.999 223.867 279.95 224.349 279.9 224.591H272.361V224.543ZM277.204 222.514C277.204 221.162 276.655 219.52 274.907 219.52C273.21 219.52 272.461 221.21 272.361 222.514H277.204Z" fill="#F05B41"/>
</g>
<path d="M340.57 221.908C337.561 224.864 334.619 227.753 331.713 230.607C328.771 227.717 325.814 224.813 322.827 221.886C324.892 219.88 327.017 217.815 329.128 215.757C327.805 214.458 326.534 213.21 325.256 211.955C324.001 213.188 322.737 214.429 321.504 215.647C320.657 214.808 319.825 213.991 319 213.173C321.058 211.152 323.168 209.08 325.286 207.007C327.389 209.072 329.499 211.145 331.609 213.217C333.757 211.108 335.867 209.036 337.94 207C340.087 209.109 342.205 211.189 344.285 213.232C343.52 213.983 342.688 214.801 341.863 215.611C340.645 214.407 339.374 213.152 338.126 211.918C336.796 213.225 335.532 214.465 334.262 215.72C336.342 217.763 338.453 219.836 340.57 221.908ZM327.909 221.952L331.654 225.637C332.902 224.411 334.165 223.171 335.406 221.952C334.165 220.733 332.902 219.493 331.661 218.267C330.413 219.486 329.15 220.726 327.909 221.952Z" fill="#75C044"/>
<path d="M423.468 217.289C421.388 219.362 419.382 221.368 417.36 223.382C419.426 225.805 421.484 228.213 423.572 230.658C423.439 230.672 423.349 230.687 423.26 230.687C422.056 230.687 420.86 230.68 419.656 230.694C419.434 230.694 419.3 230.621 419.159 230.461C417.702 228.76 416.239 227.06 414.782 225.36C414.656 225.214 414.522 225.068 414.336 224.856V230.665H410.889V212.568H414.314V222.156C414.961 221.492 415.533 220.901 416.112 220.31C417.056 219.347 417.992 218.376 418.936 217.413C418.995 217.348 419.099 217.282 419.181 217.282C420.578 217.289 421.967 217.289 423.468 217.289Z" fill="#2B2B2B"/>
<path d="M364.488 224.769C364.741 226.798 366.131 227.972 368.285 228.009C369.571 228.031 370.745 227.702 371.815 226.995C371.993 226.87 372.179 226.761 372.424 226.6C372.424 227.432 372.372 228.22 372.439 228.994C372.498 229.622 372.238 229.935 371.711 230.198C370.247 230.928 368.694 231.088 367.096 230.95C365.7 230.826 364.436 230.344 363.366 229.432C362.044 228.301 361.375 226.827 361.16 225.156C360.952 223.485 361.152 221.865 361.88 220.325C363.716 216.472 368.107 216.144 370.596 217.618C372.008 218.457 372.781 219.756 373.07 221.303C373.278 222.426 373.301 223.587 373.412 224.769H364.488ZM369.957 222.076C369.95 220.858 369.021 219.872 367.795 219.756C366.316 219.61 365.023 220.595 364.741 222.076H369.957Z" fill="#2B2B2B"/>
<path d="M393.03 224.783H384.18C384.136 225.958 385.05 227.272 386.283 227.695C387.896 228.257 389.471 228.075 390.964 227.272C391.321 227.082 391.655 226.856 392.042 226.622C392.042 227.644 392.049 228.629 392.034 229.622C392.034 229.716 391.901 229.84 391.804 229.906C391.016 230.446 390.132 230.731 389.196 230.877C387.806 231.081 386.432 231.059 385.094 230.599C383.237 229.957 381.907 228.731 381.26 226.907C380.361 224.367 380.525 221.879 381.966 219.559C383.318 217.399 385.607 216.567 388.059 216.873C390.66 217.194 392.302 218.953 392.762 221.507C392.956 222.572 392.941 223.66 393.03 224.783ZM389.605 222.076C389.515 220.704 388.549 219.785 387.219 219.741C385.748 219.697 384.634 220.785 384.403 222.076H389.605Z" fill="#2B2B2B"/>
<path d="M354.078 230.672V215.728H347.955V212.568H363.789V215.706H357.659V230.672H354.078Z" fill="#2B2B2B"/>
<path d="M378.791 212.568H375.365V230.672H378.791V212.568Z" fill="#2B2B2B"/>
<path d="M395.041 217.311H398.437V218.274C398.548 218.172 398.615 218.121 398.674 218.056C399.722 216.924 401.008 216.633 402.486 216.99C402.783 217.063 402.932 217.187 402.917 217.537C402.887 218.588 402.91 219.646 402.91 220.631C402.367 220.471 401.847 220.259 401.297 220.172C399.811 219.945 398.452 221.142 398.452 222.624C398.452 225.163 398.452 227.71 398.452 230.249V230.672H395.041V217.311Z" fill="#2B2B2B"/>
<path d="M408.485 217.304H405.074V230.658H408.485V217.304Z" fill="#2B2B2B"/>
<path d="M406.782 216.049C405.646 216.049 404.68 215.115 404.68 214.027C404.68 212.925 405.638 212.013 406.79 212.021C407.934 212.021 408.893 212.94 408.885 214.035C408.885 215.129 407.927 216.049 406.782 216.049Z" fill="#2B2B2B"/>
<path d="M432.001 219.405C432.009 220.828 430.909 221.923 429.46 221.938C428.011 221.945 426.912 220.865 426.904 219.427C426.897 217.968 427.967 216.895 429.416 216.881C430.88 216.873 431.994 217.953 432.001 219.405ZM429.445 217.333C428.272 217.333 427.402 218.223 427.395 219.413C427.395 220.58 428.309 221.507 429.46 221.492C430.612 221.485 431.533 220.544 431.519 219.398C431.496 218.223 430.612 217.333 429.445 217.333Z" fill="#2B2B2B"/>
<path d="M430.188 219.843C430.374 220.135 430.56 220.412 430.746 220.704C429.973 220.843 429.965 220.836 429.587 220.252C429.497 220.106 429.364 219.989 429.252 219.858C429.222 219.88 429.193 219.894 429.156 219.916V220.734H428.383V218.092C428.896 218.092 429.423 218.063 429.943 218.107C430.278 218.136 430.538 218.362 430.612 218.705C430.686 219.055 430.694 219.405 430.389 219.683C430.337 219.727 430.27 219.778 430.188 219.843ZM429.185 218.705V219.296C429.46 219.245 429.869 219.427 429.891 219.019C429.906 218.544 429.453 218.792 429.185 218.705Z" fill="#2B2B2B"/>
<defs>
<linearGradient id="paint0_linear_1_8010" x1="29.5663" y1="100.205" x2="56.1465" y2="116.437" gradientUnits="userSpaceOnUse">
<stop stop-color="#4285EB"/>
<stop offset="1" stop-color="#2EC7FF"/>
</linearGradient>
<linearGradient id="paint1_linear_1_8010" x1="33.1314" y1="100.205" x2="20.0033" y2="168.055" gradientUnits="userSpaceOnUse">
<stop stop-color="#29CDFF"/>
<stop offset="0.378601" stop-color="#148EFF"/>
<stop offset="1" stop-color="#0A60FF"/>
</linearGradient>
<linearGradient id="paint2_linear_1_8010" x1="59.0611" y1="116.488" x2="41.9793" y2="143.203" gradientUnits="userSpaceOnUse">
<stop stop-color="#FA816E"/>
<stop offset="0.414726" stop-color="#F74A5C"/>
<stop offset="1" stop-color="#F51D2C"/>
</linearGradient>
<linearGradient id="paint3_linear_1_8010" x1="34.9034" y1="119.208" x2="29.2198" y2="141.943" gradientUnits="userSpaceOnUse">
<stop stop-color="#FA8E7D"/>
<stop offset="0.512635" stop-color="#F74A5C"/>
<stop offset="1" stop-color="#F51D2C"/>
</linearGradient>
<clipPath id="clip0_1_8010">
<rect width="64" height="64" fill="white"/>
</clipPath>
<clipPath id="clip1_1_8010">
<rect width="64" height="64" fill="white" transform="translate(336)"/>
</clipPath>
<clipPath id="clip2_1_8010">
<rect width="64" height="64" fill="white" transform="translate(0 100)"/>
</clipPath>
<clipPath id="clip3_1_8010">
<rect width="102.234" height="17.6" fill="white" transform="translate(25.7656 213.4)"/>
</clipPath>
<clipPath id="clip4_1_8010">
<rect width="128" height="17" fill="white" transform="translate(152 213)"/>
</clipPath>
</defs>
</svg>
