<svg width="406" height="200" viewBox="0 0 406 200" fill="none" xmlns="http://www.w3.org/2000/svg">
<g clip-path="url(#clip0)">
<path d="M343.725 199.145C343.725 199.145 387.153 202.526 400.532 177.275C420.417 139.731 381.761 109.465 353.725 114.907C292.627 126.785 307.335 -4.19806 209.278 22.5239C181.71 30.0402 107.208 -14.6179 86.4248 56.9885C81.4884 74.0196 63.9832 75.8924 38.567 86.6893C-11.1767 107.843 11.5687 199.497 47.0982 199.862C82.6402 200.226 343.725 199.145 343.725 199.145Z" fill="#F8F9FB"/>
<path d="M398.367 200H16.6821C16.4922 200 16.3403 199.849 16.3403 199.661C16.3403 199.472 16.4922 199.321 16.6821 199.321H398.367C398.557 199.321 398.709 199.472 398.709 199.661C398.709 199.849 398.557 200 398.367 200Z" fill="#0C152A"/>
<path d="M157.23 77.1996L152.217 77.0865C153.825 79.1604 154.192 81.0709 153.192 82.6798C152.192 84.3263 149.787 85.6838 146.205 86.7145C148.914 79.55 150.281 71.996 150.281 64.2534C150.281 55.5807 148.572 47.1594 145.193 39.2534C141.94 31.5988 137.269 24.7235 131.333 18.8286C125.384 12.9211 118.473 8.29563 110.764 5.04022C102.778 1.69683 94.2971 0 85.5761 0C76.8424 0 68.362 1.69683 60.3751 5.04022C59.4258 5.44243 58.4638 5.86979 57.5525 6.30971C57.5525 6.30971 57.5525 6.30971 57.5399 6.30971C54.7552 5.46757 52.0465 4.77627 49.4264 4.24837C36.2247 1.58371 26.8582 3.43137 23.0483 9.42685C19.4283 15.1332 21.4029 23.718 28.5796 33.7356C27.605 35.5078 26.7443 37.3429 25.9342 39.2283C25.3267 40.6486 24.7824 42.0689 24.2888 43.5143C10.8086 44.3313 3.58119 46.6943 0.948445 50.9678C-2.102 55.9452 2.0623 62.6194 15.4159 69.1177C17.2639 70.0101 19.2384 70.8899 21.3016 71.7698C21.9978 77.7904 23.5546 83.6476 25.9469 89.2534C29.1998 96.908 33.8704 103.783 39.8068 109.691C45.7558 115.573 52.6667 120.211 60.3751 123.454C68.362 126.797 76.8298 128.494 85.5761 128.494C94.2971 128.494 102.778 126.797 110.752 123.454C118.46 120.211 125.371 115.573 131.32 109.691C137.105 103.947 141.686 97.26 144.927 89.8567C151.509 88.4993 155.85 86.3877 157.572 83.5722C158.774 81.6365 158.622 79.4872 157.23 77.1996ZM141.775 87.72C137.396 88.4993 131.915 88.9643 125.536 89.0272C115.625 89.1529 104.233 88.3736 92.2339 86.8024C93.2465 84.6154 94.2338 82.3781 95.1957 80.0779C98.917 81.3097 102.537 82.2901 105.98 82.994C109.929 83.7858 113.536 84.1881 116.751 84.1881C124.295 84.1881 129.687 82.0262 132.358 77.8281C132.801 77.1368 133.155 76.3952 133.434 75.6285H129.586C129.523 75.7416 129.459 75.8547 129.383 75.9678C127.396 79.0976 122.979 80.7064 116.751 80.7064C113.777 80.7064 110.397 80.3419 106.676 79.5878C103.436 78.9342 100.031 78.0166 96.5248 76.8603C97.4488 74.5601 98.3474 72.2222 99.2208 69.8341C101.562 63.4238 103.575 57.0639 105.195 50.9553C112.587 52.0362 120.523 52.5767 128.953 52.5767C134.206 52.5767 139.649 52.363 145.269 51.9482C146.104 55.9704 146.522 60.0805 146.522 64.2534C146.522 72.3856 144.927 80.2916 141.775 87.72ZM61.7041 119.583C59.8308 118.904 58.8815 116.239 58.4132 114.128C57.6791 110.784 57.5398 106.083 58.0335 100.541C58.274 97.7376 58.679 94.7587 59.2106 91.6416C66.8684 93.6652 74.4628 96.2796 81.8421 99.4219C80.184 102.275 78.5006 104.915 76.8171 107.303C73.6148 111.865 70.4758 115.385 67.7544 117.484C66.0203 118.816 63.5774 120.249 61.7041 119.583ZM83.5382 96.4304C75.8045 93.1247 67.8557 90.3846 59.8308 88.273C60.1093 86.8276 60.4257 85.357 60.7675 83.8613C62.9952 84.364 65.2609 84.8542 67.5519 85.3193C74.2603 86.6767 80.9561 87.8331 87.5127 88.7758C86.1963 91.453 84.8799 94.0046 83.5382 96.4304ZM69.0201 82.9186C66.4254 82.3907 63.8686 81.8376 61.3624 81.2595C62.5395 76.3701 63.9951 71.2796 65.6912 66.1011C74.5008 71.4807 83.4623 75.8547 91.9554 78.9593C90.8922 81.4857 89.8037 83.9492 88.6771 86.3248C82.2345 85.3947 75.64 84.2635 69.0201 82.9186ZM47.5025 16.9809C48.0594 18.1247 48.8442 19.545 49.8821 21.1413C54.3375 27.9789 60.2232 32.9311 64.3749 35.8849C66.7545 37.5817 69.2986 39.1529 71.9946 40.5983C69.5391 45.9276 67.1848 51.6089 65.0331 57.5038C64.628 58.6099 64.2356 59.7034 63.8559 60.7969C50.9833 52.4761 40.0852 42.9236 32.9338 33.6853C34.7185 30.6561 36.7817 27.7778 39.0726 25.088C40.022 23.9819 41.0092 22.901 42.0471 21.8577C42.199 21.7069 42.3256 21.5812 42.4775 21.4304C44.0723 19.8592 45.7558 18.3761 47.5025 16.9809ZM102.55 7.76772C104.423 8.44646 105.372 11.1111 105.841 13.2227C106.575 16.5661 106.714 21.267 106.22 26.81C105.689 32.8809 104.461 39.7687 102.651 47.1091C100.449 46.732 98.3095 46.3047 96.2083 45.8271C88.9809 44.1805 82.3991 41.9181 76.5134 39.0774C80.0195 31.8125 83.7408 25.3268 87.4494 20.0352C90.6517 15.4726 93.7908 11.9532 96.5121 9.8542C97.9297 8.76069 99.8537 7.59176 101.524 7.59176C101.866 7.59176 102.221 7.64203 102.55 7.76772ZM95.1957 49.0825C97.3348 49.5727 99.5372 50.0126 101.79 50.4022C100.208 56.3097 98.2588 62.456 95.9932 68.6652C95.1198 71.0533 94.2085 73.4163 93.2845 75.729C84.766 72.6245 75.7286 68.175 66.8304 62.6948C67.2861 61.3625 67.7671 60.0176 68.248 58.6853C70.3492 52.9161 72.6402 47.3605 75.0451 42.1694C81.0954 45.0603 87.8291 47.3856 95.1957 49.0825ZM128.662 21.4555C134.269 27.0236 138.661 33.4967 141.737 40.6989C142.838 43.2755 143.737 45.9025 144.458 48.5923C130.409 49.6104 117.536 49.2961 106.031 47.637C107.853 40.2338 109.081 33.2579 109.625 27.0991C110.22 20.2992 110.144 12.2423 107.372 7.71745C108.018 7.96883 108.651 8.22021 109.296 8.48417C116.561 11.5385 123.08 15.8874 128.662 21.4555ZM85.5761 3.72046C89.8037 3.72046 93.9553 4.14781 98.0057 4.97738C93.2212 7.05128 88.3354 12.8079 84.6141 18.087C80.8169 23.4917 77.0197 30.1031 73.4376 37.5189C71.02 36.2117 68.7417 34.8039 66.5899 33.2956C59.4638 28.2806 55.1982 23.0267 52.8693 19.4947C51.6288 17.6219 50.8061 16.0256 50.2745 14.8819C52.7807 13.1222 55.4007 11.5385 58.1474 10.1559C59.2613 9.59025 60.4131 9.07491 61.5649 8.57215C61.6535 8.53444 61.7295 8.49673 61.8181 8.45903C61.8434 8.44646 61.856 8.44646 61.8814 8.43389C62.1345 8.33334 62.375 8.23278 62.6281 8.13223C62.6914 8.10709 62.7674 8.08195 62.8307 8.05681C70.0581 5.19105 77.7158 3.72046 85.5761 3.72046ZM26.0355 11.2997C28.0227 8.16994 32.4402 6.56109 38.6676 6.56109C41.6421 6.56109 45.0216 6.92559 48.7429 7.67974C50.1606 7.96883 51.6035 8.29563 53.0718 8.68527C48.2493 11.463 43.8065 14.8441 39.8194 18.8286C38.984 19.6456 38.174 20.4877 37.3892 21.3675C36.4019 22.4485 35.4653 23.5671 34.5666 24.7109C33.1237 26.5334 31.7946 28.4439 30.5542 30.4047C25.0482 22.3102 23.4027 15.4349 26.0355 11.2997ZM29.4024 40.6989C29.9466 39.4545 30.5036 38.2353 31.1111 37.0412C38.6423 46.3801 49.7302 55.9326 62.7041 64.2283C60.8688 69.7838 59.2992 75.2388 58.0335 80.4802C48.6037 78.2177 39.8574 75.6536 32.1997 72.901C30.5922 72.3354 29.0353 71.7446 27.5291 71.1539C26.643 70.8145 25.7697 70.45 24.9216 70.0981C24.7951 68.7909 24.6938 67.4711 24.6558 66.1514C24.6432 65.5103 24.6179 64.8944 24.6179 64.2534C24.6179 63.5244 24.6305 62.7703 24.6558 62.0412C24.871 56.5485 25.8077 51.1815 27.4531 45.9905C27.7316 45.1106 28.0227 44.2434 28.3518 43.3761C28.6809 42.4711 29.0226 41.5787 29.4024 40.6989ZM18.4157 67.182C6.77087 61.5385 1.44209 56.096 3.83434 52.2248C5.75827 49.095 12.7578 46.9709 23.466 46.1916C22.1497 50.5908 21.3522 55.1408 21.0358 59.7662C20.9345 61.1363 20.8839 62.5063 20.8713 63.8889V64.2534C20.8713 65.636 20.9219 67.0312 20.9978 68.4012C20.0991 67.999 19.2511 67.5968 18.4157 67.182ZM27.2506 74.1202C28.8328 74.7109 30.4403 75.2891 32.0984 75.8673C39.7308 78.4942 48.2746 80.9326 57.4133 83.0945C57.0842 84.5651 56.7804 86.0106 56.4893 87.4435C55.7425 87.2675 54.9957 87.0915 54.2489 86.9156C41.6041 84.0624 32.1237 83.4716 27.7189 83.3836C26.6304 80.1282 25.833 76.7974 25.3267 73.3912C25.9722 73.63 26.6051 73.8814 27.2506 74.1202ZM29.4024 87.808C29.2631 87.4812 29.1366 87.1544 28.9973 86.8276C33.6932 87.0161 42.3889 87.72 53.4895 90.2338C54.2869 90.4098 55.0843 90.5983 55.8691 90.7994C55.2995 94.1051 54.8818 97.2725 54.616 100.251C54.1223 105.882 54.0844 112.381 55.6665 117.019C50.8441 114.329 46.4266 110.998 42.4648 107.064C36.8703 101.496 32.4781 95.0101 29.4024 87.808ZM109.296 120.023C101.778 123.19 93.8034 124.786 85.5761 124.786C79.2347 124.786 73.0452 123.831 67.0962 121.958C71.6023 119.608 76.1336 114.216 79.6271 109.251C81.4244 106.687 83.2218 103.859 84.9938 100.792C95.2337 105.392 105.069 111.048 114.321 117.635C112.688 118.502 111.018 119.306 109.296 120.023ZM128.662 107.051C125.295 110.407 121.586 113.323 117.574 115.774C107.866 108.723 97.4867 102.69 86.6773 97.813C88.1582 95.1106 89.6265 92.2574 91.0568 89.266C100.955 90.5732 110.461 91.3525 119.144 91.5536C121.409 91.6164 123.612 91.6164 125.751 91.6038C131.282 91.541 136.218 91.2142 140.433 90.6235C137.484 96.7069 133.522 102.225 128.662 107.051Z" fill="#0094DE"/>
<path d="M280.995 69.2308C280.995 69.2308 293.184 81.1337 293.741 85.6335C294.298 90.1207 288.209 97.1468 288.209 97.1468L280.995 69.2308Z" fill="#F77E07"/>
<path d="M276.603 192.911C276.603 192.911 276.21 199.246 274.97 199.334C274.805 199.346 268.717 199.346 268.717 199.346L260.945 199.296C260.945 199.296 260.996 197.436 263.274 197.046C265.553 196.657 269.35 195.06 270.73 192.081C272.172 188.952 276.603 192.911 276.603 192.911Z" fill="#0C152A"/>
<path d="M293.918 192.911C293.918 192.911 293.526 199.246 292.285 199.334C292.121 199.346 286.032 199.346 286.032 199.346L278.261 199.296C278.261 199.296 278.311 197.436 280.59 197.046C282.868 196.657 286.665 195.06 288.045 192.081C289.488 188.952 293.918 192.911 293.918 192.911Z" fill="#0C152A"/>
<path d="M267.983 124.874C267.983 124.874 270.021 137.795 277.603 160.721C285.184 183.648 286.222 193.577 286.222 193.577L294.361 193.351C294.361 193.351 294.424 168.288 290.931 156.762C287.437 145.236 290.171 115.196 290.171 115.196L267.983 124.874Z" fill="#0C152A"/>
<path d="M264.021 115.9C264.021 115.9 263.73 135.37 267.122 159.263C270.514 183.157 269.362 193.313 269.362 193.313L277.488 193.577C277.488 193.577 282.349 169.671 280.956 157.705C279.564 145.739 287.602 116.654 287.602 116.654L264.021 115.9Z" fill="#2D354C"/>
<path d="M279.754 70.3494L275.919 73.1649L270.388 72.0086C270.464 71.5058 270.831 69.4319 271.16 67.5465C271.185 67.4334 271.198 67.3203 271.223 67.2197C271.514 65.6234 271.755 64.2408 271.755 64.2408L276.932 61.6767L278.856 60.7215C278.856 60.7592 278.704 62.4937 278.691 62.7577C278.324 67.2826 279.754 70.3494 279.754 70.3494Z" fill="#FAA61A"/>
<path d="M270.767 68.9291C270.894 68.8788 278.299 66.7044 279.109 66.9683C279.919 67.2323 280.387 68.7783 280.387 68.7783L268.261 71.5058C268.274 71.5058 269.223 69.5701 270.767 68.9291Z" fill="#F77E07"/>
<path d="M290.728 118.301C289.475 123.995 268.565 124.661 263.173 119.495C262.566 118.904 262.528 116.164 262.756 112.469C263.211 105.254 264.654 94.3942 264.717 88.8512C264.743 86.174 265.11 83.4339 265.603 80.9452C266.654 75.6411 268.261 71.4807 268.261 71.4807C268.261 71.4807 278.476 68.2001 280.387 68.7657C289.589 71.4681 291.981 112.619 290.728 118.301Z" fill="#FAA61A"/>
<path d="M262.768 112.481C263.224 105.266 264.667 94.4067 264.73 88.8638C264.755 86.1865 265.122 83.4465 265.616 80.9578L271.755 79.8768C271.755 79.8894 277.767 104.248 262.768 112.481Z" fill="#F77E07"/>
<path d="M266.097 102.426C266.097 102.426 266.514 103.419 265.641 104.085C264.768 104.751 264.185 105.832 264.388 106.624C264.591 107.416 266.514 108.698 267.185 108.497C267.856 108.296 269.21 107.252 269.071 106.838C268.919 106.423 269.983 103.18 268.362 101.936C266.717 100.679 266.097 102.426 266.097 102.426Z" fill="#FAA61A"/>
<path d="M272.945 70.2363C272.945 70.2363 266.97 71.1539 262.199 78.1423C257.427 85.1308 254.288 90.3218 255.161 92.8356C256.034 95.3495 264.059 104.085 265.439 104.085C266.819 104.085 269.046 103.092 269.173 100.842C269.173 100.842 263.528 92.446 264.641 91.1891C265.122 90.6486 271.97 85.1308 272.945 87.6194C274.565 91.7421 272.945 70.2363 272.945 70.2363Z" fill="#FAA61A"/>
<path d="M278.286 62.8331C277.147 64.995 272.919 66.8552 271.16 67.5465C271.185 67.4334 271.198 67.3202 271.223 67.2197C271.514 65.6234 271.755 64.2408 271.755 64.2408L276.931 61.6767C278.058 61.6642 278.754 61.9532 278.286 62.8331Z" fill="#FAA61A"/>
<path d="M269.236 63.9392C269.236 63.9392 278.564 66.8301 280.286 61.0357C282.007 55.2414 284.374 51.7094 278.488 49.6104C272.603 47.5239 270.78 49.3967 269.729 51.1815C268.692 52.9915 266.856 63.0342 269.236 63.9392Z" fill="#FAA61A"/>
<path d="M271.198 50.8547C271.198 50.8547 271.742 57.818 273.147 57.5038C274.552 57.1896 275.831 56.9507 275.616 59.0498C275.388 61.1488 273.413 63.5872 277.755 63.9266C282.096 64.266 288.425 52.7652 287.248 50.6033C283.868 44.3816 266.3 43.263 271.198 50.8547Z" fill="#0C152A"/>
<path d="M337.042 114.467C337.042 114.467 333.46 115.385 331.194 114.693C328.916 114.015 325.005 115.133 324.372 115.95C323.739 116.78 323.967 117.107 325.094 117.383C326.22 117.672 330.207 119.356 332.827 118.376C335.447 117.396 338.865 117.358 338.865 117.358L337.042 114.467Z" fill="#FAA61A"/>
<path d="M367.964 83.5973C367.964 83.5973 363.939 111.966 357.294 114.505C354.016 115.762 339.498 118.602 335.194 118.891C335.194 118.891 334.144 118.049 334.397 114.593C334.397 114.593 349.611 109.05 351.763 106.033C354.978 101.546 349.763 87.6948 353.801 83.4842C357.838 79.2735 364.635 77.4636 367.964 83.5973Z" fill="#2D354C"/>
<path d="M367.458 192.974V186.74H377.267C377.533 186.74 377.748 186.526 377.748 186.262V185.269C377.748 185.005 377.533 184.791 377.267 184.791H367.458V149.573C367.458 148.58 366.648 147.775 365.648 147.775H363.711C362.711 147.775 361.901 148.58 361.901 149.573V184.791H352.092C351.826 184.791 351.611 185.005 351.611 185.269V186.262C351.611 186.526 351.826 186.74 352.092 186.74H361.901V192.974C354.8 193.502 349.117 196.041 347.522 199.321H381.837C380.229 196.041 374.546 193.502 367.458 192.974Z" fill="#2D354C"/>
<path d="M366.61 143.376C365.433 145.349 364.079 147.197 362.686 148.957C358.37 154.374 353.661 158.836 352.839 163.059C352.674 163.901 352.421 164.806 352.079 165.762C351.738 166.729 351.32 167.748 350.826 168.791C348.991 172.75 346.257 177.174 343.51 181.209C338.776 188.172 334.333 193.979 334.333 193.979L326.169 193.64C326.499 192.823 330.055 183.208 334.814 171.468C336.751 166.704 338.802 161.626 340.789 156.737C341.055 156.083 341.32 155.43 341.574 154.789C342.181 153.293 342.776 151.823 343.358 150.377C347.826 139.341 351.396 130.556 351.396 130.556C351.396 130.556 369.268 123.831 371.116 128.193C372.66 131.775 371.407 135.294 366.61 143.376Z" fill="#0C152A"/>
<path d="M334.081 192.509C334.081 192.509 333.676 199.233 332.385 199.321C332.207 199.334 317.474 199.321 317.474 199.321C317.474 199.321 317.588 197.285 319.993 196.87C322.398 196.455 326.41 194.784 327.866 191.629C329.397 188.311 334.081 192.509 334.081 192.509Z" fill="#0C152A"/>
<path d="M352.978 173.404C352.978 173.404 358.649 177.024 358.104 178.205C358.028 178.356 354.889 183.937 354.889 183.937L350.839 191.038C350.839 191.038 349.143 190.033 349.94 187.745C350.738 185.457 351.231 181.159 349.168 178.356C347.004 175.415 352.978 173.404 352.978 173.404Z" fill="#0C152A"/>
<path d="M345.434 127.275C345.434 127.275 322.866 141.227 320.36 150.553C317.854 159.879 350.193 179.764 350.193 179.764C350.193 179.764 353.737 176.659 354.37 174.372C354.37 174.372 339.751 156.976 336.587 153.079C334.637 150.691 365.382 144.796 369.141 138.989C372.901 133.183 371.546 128.306 371.546 128.306L345.434 127.275Z" fill="#2D354C"/>
<path d="M387.621 145.173H341.713C340.789 145.173 340.042 145.915 340.042 146.833V155.945C340.042 156.863 340.789 157.604 341.713 157.604H387.621C388.545 157.604 389.292 156.863 389.292 155.945V146.833C389.292 145.915 388.545 145.173 387.621 145.173Z" fill="#FAA61A"/>
<path d="M366.534 78.2428C366.534 78.2428 357.623 83.1825 352.256 81.8124C352.256 81.8124 353.471 80.0905 355.674 78.733C355.56 78.2177 355.459 77.7275 355.37 77.275C354.851 74.6732 354.763 73.1523 354.763 73.1523L358.864 69.5073C360.003 69.7461 361.053 69.9723 361.623 70.0854C361.673 70.3494 361.737 70.6133 361.8 70.8773C363.078 75.9301 366.534 78.2428 366.534 78.2428Z" fill="#FAA61A"/>
<path d="M372.217 103.922C371.445 114.203 372.458 129.839 371.584 132.541C370.825 134.879 362.243 133.484 358.813 132.705C357.547 132.416 356.003 132.001 354.421 131.511C349.991 130.153 345.168 128.205 344.649 126.76C344.624 126.697 344.611 126.647 344.599 126.596C344.586 126.559 344.586 126.521 344.573 126.483C344.548 126.32 344.561 126.156 344.599 125.993C344.776 125.264 345.434 124.46 345.51 122.637C345.598 120.601 345.586 118.213 345.662 115.636C345.662 115.347 345.674 115.033 345.7 114.744V114.643C345.7 114.593 345.7 114.53 345.7 114.48C345.776 111.614 345.928 108.585 346.105 105.593C346.219 103.708 346.345 101.848 346.497 100.063C346.877 95.4625 347.409 91.365 348.092 88.7758C349.219 84.5525 351.699 81.7999 353.952 79.7888L355.585 78.3937C357.408 78.7833 359.56 78.5319 361.509 77.6144C363.623 76.6214 364.344 75.905 364.711 76.1815C369.622 79.9271 373.128 91.365 372.217 103.922Z" fill="#00AEEF"/>
<path d="M354.433 131.523C350.003 130.166 345.181 128.218 344.662 126.772C344.637 126.709 344.624 126.659 344.611 126.609C344.611 126.571 344.599 126.533 344.586 126.496C344.561 126.332 344.573 126.169 344.611 126.006C344.788 125.277 345.447 124.472 345.523 122.65C345.611 120.613 345.599 118.225 345.674 115.649C345.674 115.359 345.687 115.045 345.712 114.756V114.656C345.712 114.605 345.712 114.543 345.712 114.492L362.433 106.963C362.458 106.963 363.42 120.337 354.433 131.523Z" fill="#2D354C"/>
<path d="M361.788 70.8647C361.18 72.3856 359.357 75.9804 355.358 77.275C354.839 74.6732 354.75 73.1523 354.75 73.1523L358.851 69.5073C359.99 69.7461 361.041 69.9723 361.61 70.0854C361.674 70.3494 361.724 70.6133 361.788 70.8647Z" fill="#F77E07"/>
<path d="M353.13 73.1146C353.13 73.1146 361.94 74.095 362.471 68.64C363.003 63.185 364.496 59.6405 358.902 58.7732C353.307 57.9185 352.003 59.8919 351.383 61.6641C350.75 63.4489 350.852 72.7124 353.13 73.1146Z" fill="#FAA61A"/>
<path d="M362.433 69.0171C362.433 69.0171 361.876 61.7773 353.864 61.0231C348.37 60.5078 351.433 55.8195 352.016 55.0654C352.016 55.0654 356.218 55.6435 360.534 56.3474C369.584 57.8306 363.319 67.8859 362.433 69.0171Z" fill="#2D354C"/>
<path d="M341.27 120.035L319.448 120.488L313.246 101.533L312.474 101.785L319.043 121.82L341.308 121.355L341.27 120.035Z" fill="#2D354C"/>
<path d="M338.878 118.829C338.878 118.829 335.422 120.123 333.081 119.696C330.739 119.268 326.98 120.802 326.435 121.694C325.904 122.587 326.17 122.876 327.321 123.039C328.473 123.203 332.625 124.434 335.118 123.177C337.612 121.921 341.004 121.506 341.004 121.506L338.878 118.829Z" fill="#FAA61A"/>
<path d="M366.192 84.7662C366.192 84.7662 365.344 113.411 359.015 116.654C355.889 118.263 341.776 122.675 337.548 123.429C337.548 123.429 336.409 122.7 336.283 119.243C336.283 119.243 350.788 112.066 352.598 108.836C355.294 104.022 348.573 90.8371 352.117 86.1991C355.649 81.5736 362.205 79.0221 366.192 84.7662Z" fill="#00AEEF"/>
<path d="M127.283 87.2298L118.334 192.886C118.334 192.886 117.397 199.296 122.195 199.296C130.08 199.309 161.458 199.296 161.458 199.296C161.458 199.296 155.522 197.964 155.598 194.96C155.686 191.428 166.053 86.2242 166.053 86.2242L127.283 87.2298Z" fill="#C60B56"/>
<path d="M164.002 197.386C162.445 197.386 132.485 197.486 124.802 197.386C121.461 197.348 120.866 194.432 120.84 192.547C120.828 191.642 120.942 190.975 120.942 190.975L121.169 188.235L121.764 181.234L122.283 175.05L122.954 167.107L123.524 160.395L129.878 85.3193L168.647 84.3264C168.647 84.3264 164.281 128.356 161.192 160.395C160.85 163.964 160.521 167.383 160.218 170.588C160.116 171.606 160.028 172.612 159.926 173.58C159.635 176.609 159.382 179.399 159.154 181.85C159.04 183.145 158.927 184.352 158.825 185.458C158.433 189.781 158.205 192.534 158.192 193.062C158.192 193.364 158.218 193.653 158.268 193.917C158.914 197.273 163.42 197.386 164.002 197.386Z" fill="#FAA61A"/>
<path d="M33.1367 29.7386L54.9328 116.679L57.92 128.582L68.0713 169.08H256.667L219.252 29.7386H33.1367Z" fill="#FAA61A"/>
<path d="M33.137 29.7386L30.1245 30.7441L64.0591 172.097L68.0715 169.08L33.137 29.7386Z" fill="#FAA61A"/>
<path d="M64.0596 172.097H251.491L256.668 169.08H68.072L64.0596 172.097Z" fill="#C60B56"/>
<path d="M170.458 197.423H129.878V199.334H170.458V197.423Z" fill="#FAA61A"/>
<path d="M247.529 143.401L216.923 31.5862H32.833V29.7386H219.252L249.744 143.15L247.529 143.401Z" fill="#FAA61A"/>
<path d="M160.142 172.097L159.939 173.567L121.764 181.222L122.296 175.038L122.536 172.097H160.142Z" fill="#C60B56"/>
<path opacity="0.4" d="M164.002 197.386C162.445 197.386 132.485 197.486 124.802 197.386C121.461 197.348 120.866 194.432 120.84 192.547L158.825 185.445C158.433 189.769 158.205 192.521 158.192 193.049C158.192 193.351 158.218 193.64 158.268 193.904C158.914 197.273 163.42 197.386 164.002 197.386Z" fill="#C60B56"/>
<path opacity="0.4" d="M150.915 140.875L68.0717 169.08L57.9204 128.582L150.915 140.875Z" fill="#C60B56"/>
<path d="M33.1367 29.7386H219.252L249.452 141.717H60.2616L33.1367 29.7386Z" fill="#0094DE"/>
<path d="M166.439 159.561C168.125 157.715 167.663 154.571 165.406 152.537C163.149 150.503 159.952 150.35 158.265 152.195C156.579 154.041 157.042 157.186 159.298 159.22C161.555 161.253 164.752 161.406 166.439 159.561Z" fill="#C60B56"/>
<path d="M240.668 136.865H66.4132L46.6803 58.7984L45.1614 52.8155L43.8703 47.7125L40.8452 35.7341H212.594L215.923 47.7125L217.34 52.8155L218.999 58.7984L240.668 136.865Z" fill="#F0F0F0"/>
<path d="M215.923 47.7125H43.8703L40.8452 35.7341H212.594L215.923 47.7125Z" fill="#AFCDFB"/>
<path d="M49.0852 39.6556C48.2498 39.6556 47.7435 40.3218 47.9587 41.1514C48.1612 41.9809 49.0093 42.6471 49.8447 42.6471C50.68 42.6471 51.1863 41.9809 50.9712 41.1514C50.756 40.3218 49.9206 39.6556 49.0852 39.6556Z" fill="#F0F0F0"/>
<path d="M54.0974 39.6556C53.262 39.6556 52.7557 40.3218 52.9709 41.1514C53.1734 41.9809 54.0215 42.6471 54.8569 42.6471C55.6923 42.6471 56.1986 41.9809 55.9834 41.1514C55.7682 40.3218 54.9328 39.6556 54.0974 39.6556Z" fill="#F0F0F0"/>
<path d="M61.3755 41.1514C61.173 40.3218 60.3249 39.6556 59.4895 39.6556C58.6541 39.6556 58.1478 40.3218 58.363 41.1514C58.5655 41.9809 59.4136 42.6471 60.249 42.6471C61.0844 42.6471 61.578 41.9809 61.3755 41.1514Z" fill="#F0F0F0"/>
<path d="M186.064 82.6798C184.811 77.6647 179.672 73.5923 174.622 73.5923C172.191 73.5923 170.115 74.5224 168.774 76.2192C167.381 77.9789 166.964 80.3419 167.597 82.8557C168.85 87.8708 173.989 91.9432 179.039 91.9432C181.469 91.9432 183.545 91.0131 184.887 89.3163C186.279 87.5566 186.697 85.2062 186.064 82.6798ZM184.317 88.8764C183.127 90.3846 181.254 91.2268 179.052 91.2268C174.318 91.2268 169.508 87.4058 168.331 82.6923C167.761 80.4048 168.128 78.268 169.369 76.6843C170.558 75.176 172.432 74.3339 174.634 74.3339C179.368 74.3339 184.178 78.1549 185.355 82.8683C185.925 85.1559 185.558 87.2926 184.317 88.8764Z" fill="#FAA61A"/>
<path d="M178.001 84.8291L177.077 78.444L177.014 78.1549H174.419L174.495 78.444L176.773 84.8291H178.001Z" fill="#FAA61A"/>
<path d="M176.495 85.9478L177.077 88.2605H179.431L178.849 85.9478H176.495Z" fill="#FAA61A"/>
<path d="M191.697 104.387C190.444 99.3715 185.305 95.2991 180.254 95.2991C177.824 95.2991 175.748 96.2292 174.407 97.9261C173.014 99.6858 172.597 102.049 173.229 104.563C174.483 109.578 179.621 113.65 184.672 113.65C187.102 113.65 189.178 112.72 190.519 111.023C191.912 109.263 192.33 106.9 191.697 104.387ZM189.937 110.571C188.747 112.079 186.874 112.921 184.672 112.921C179.938 112.921 175.128 109.1 173.951 104.387C173.381 102.099 173.748 99.9623 174.989 98.3786C176.179 96.8703 178.052 96.0281 180.254 96.0281C184.988 96.0281 189.798 99.8492 190.975 104.563C191.557 106.85 191.178 108.987 189.937 110.571Z" fill="#FAA61A"/>
<path d="M183.621 106.523L182.71 100.138L182.634 99.8491H180.039L180.115 100.138L182.406 106.523H183.621Z" fill="#FAA61A"/>
<path d="M182.115 107.655L182.697 109.967H185.051L184.482 107.655H182.115Z" fill="#FAA61A"/>
<path d="M210.974 79.902C211.543 79.902 211.898 79.4369 211.759 78.8713C211.619 78.3057 211.024 77.8406 210.455 77.8406H191.912C191.342 77.8406 190.988 78.3057 191.127 78.8713C191.266 79.4369 191.861 79.902 192.431 79.902H210.974Z" fill="#AFCDFB"/>
<path d="M208.683 65.2087C208.544 64.643 207.949 64.178 207.379 64.178H188.836C188.266 64.178 187.912 64.643 188.051 65.2087C188.191 65.7743 188.785 66.2393 189.355 66.2393H207.898C208.468 66.2393 208.822 65.7743 208.683 65.2087Z" fill="#AFCDFB"/>
<path d="M211.962 83.8361C212.531 83.8361 212.886 83.3711 212.746 82.8055C212.607 82.2398 212.012 81.7748 211.443 81.7748H192.9C192.33 81.7748 191.976 82.2398 192.115 82.8055C192.254 83.3711 192.849 83.8361 193.418 83.8361H211.962Z" fill="#AFCDFB"/>
<path d="M213.733 86.7396C213.594 86.174 212.999 85.7089 212.43 85.7089H193.886C193.317 85.7089 192.962 86.174 193.102 86.7396C193.241 87.3052 193.836 87.7703 194.405 87.7703H212.948C213.531 87.7703 213.885 87.3052 213.733 86.7396Z" fill="#AFCDFB"/>
<path d="M216.607 101.596C217.176 101.596 217.531 101.131 217.391 100.566C217.252 100 216.657 99.535 216.088 99.535H197.545C196.975 99.535 196.621 100 196.76 100.566C196.899 101.131 197.494 101.596 198.064 101.596H216.607Z" fill="#AFCDFB"/>
<path d="M217.594 105.53C218.164 105.53 218.518 105.065 218.379 104.5C218.239 103.934 217.645 103.469 217.075 103.469H198.532C197.962 103.469 197.608 103.934 197.747 104.5C197.886 105.065 198.481 105.53 199.051 105.53H217.594Z" fill="#AFCDFB"/>
<path d="M219.366 108.434C219.226 107.868 218.631 107.403 218.062 107.403H199.519C198.949 107.403 198.595 107.868 198.734 108.434C198.873 109 199.468 109.465 200.038 109.465H218.581C219.15 109.477 219.505 109.012 219.366 108.434Z" fill="#AFCDFB"/>
<path d="M207.898 60.8598L206.607 55.7064C206.366 54.7637 205.392 53.9844 204.442 53.9844H55.8062C54.8569 53.9844 54.2747 54.7637 54.5025 55.7064L55.7935 60.8598C56.034 61.8024 57.0087 62.5817 57.958 62.5817H206.594C207.556 62.5817 208.138 61.8024 207.898 60.8598Z" fill="#AFCDFB"/>
<path d="M161.181 53.9844L163.333 62.5817H57.9726C57.0233 62.5817 56.0486 61.8024 55.8081 60.8598L54.5171 55.7064C54.2766 54.7637 54.8588 53.9844 55.8208 53.9844H161.181Z" fill="#FAA61A"/>
<path d="M180.102 56.6993L180.267 57.3655H181.912L181.051 60.181H181.925L182.76 57.2775L182.621 56.6993H180.102Z" fill="#0094DE"/>
<path d="M184.596 56.6365C183.672 56.6365 183.229 57.4284 183.482 58.4339C183.735 59.452 184.545 60.2313 185.482 60.2313C186.418 60.2313 186.849 59.4394 186.596 58.4339C186.33 57.4158 185.52 56.6365 184.596 56.6365ZM185.317 59.54C184.849 59.54 184.431 59.0624 184.267 58.4339C184.102 57.7929 184.292 57.3278 184.748 57.3278C185.203 57.3278 185.634 57.8055 185.798 58.4339C185.963 59.0749 185.786 59.54 185.317 59.54Z" fill="#0094DE"/>
<path d="M191.178 59.3263C191.051 58.8361 190.621 58.4339 190.114 58.4339C189.608 58.4339 189.355 58.8361 189.481 59.3263C189.608 59.8165 190.038 60.2187 190.545 60.2187C191.051 60.2187 191.304 59.8165 191.178 59.3263ZM190.443 59.7662C190.241 59.7662 190.064 59.5651 190 59.3263C189.937 59.0875 190 58.8864 190.216 58.8864C190.418 58.8864 190.595 59.0875 190.659 59.3263C190.709 59.5651 190.646 59.7662 190.443 59.7662Z" fill="#0094DE"/>
<path d="M189.57 56.6993L187.886 60.181H188.481L190.165 56.6993H189.57Z" fill="#0094DE"/>
<path d="M188.583 57.554C188.456 57.0638 188.026 56.6616 187.52 56.6616C187.013 56.6616 186.76 57.0638 186.887 57.554C187.013 58.0442 187.444 58.4465 187.95 58.4465C188.456 58.4339 188.709 58.0317 188.583 57.554ZM187.406 57.554C187.342 57.3152 187.406 57.1141 187.621 57.1141C187.823 57.1141 188.001 57.3152 188.064 57.554C188.127 57.7929 188.064 57.994 187.849 57.994C187.646 57.9814 187.469 57.7803 187.406 57.554Z" fill="#0094DE"/>
<path d="M154.205 99.824C155.281 99.824 155.939 98.9568 155.673 97.8884C155.407 96.82 154.306 95.9528 153.23 95.9528H66.5648C65.4889 95.9528 64.8307 96.82 65.0965 97.8884C65.3624 98.9568 66.4636 99.824 67.5394 99.824H154.205Z" fill="#AFCDFB"/>
<path d="M155.825 106.272C156.901 106.272 157.559 105.405 157.293 104.336C157.027 103.268 155.926 102.401 154.85 102.401H68.1849C67.1091 102.401 66.4509 103.268 66.7167 104.336C66.9825 105.405 68.0837 106.272 69.1596 106.272H155.825Z" fill="#AFCDFB"/>
<path d="M158.99 111.061C158.724 109.993 157.623 109.125 156.547 109.125H69.8685C68.7926 109.125 68.1345 109.993 68.4003 111.061C68.6661 112.129 69.7673 112.997 70.8431 112.997H157.509C158.597 112.997 159.255 112.129 158.99 111.061Z" fill="#AFCDFB"/>
<path d="M106.778 89.3414C107.119 90.6863 108.486 91.7798 109.853 91.7798H119.524C120.878 91.7798 121.701 90.6863 121.372 89.3414L116.701 70.7265C116.359 69.3816 114.992 68.2881 113.625 68.2881H103.955C102.601 68.2881 101.778 69.3816 102.107 70.7265L106.778 89.3414Z" fill="#AFCDFB"/>
<path d="M123.511 89.3414C123.852 90.6863 125.219 91.7798 126.586 91.7798H136.257C137.611 91.7798 138.434 90.6863 138.105 89.3414L133.434 70.7265C133.092 69.3816 131.725 68.2881 130.358 68.2881H120.688C119.334 68.2881 118.511 69.3816 118.84 70.7265L123.511 89.3414Z" fill="#AFCDFB"/>
<path d="M139.927 89.3414C140.269 90.6863 141.636 91.7798 143.003 91.7798H152.673C154.028 91.7798 154.85 90.6863 154.521 89.3414L149.851 70.7265C149.509 69.3816 148.142 68.2881 146.775 68.2881H137.105C135.75 68.2881 134.927 69.3816 135.257 70.7265L139.927 89.3414Z" fill="#AFCDFB"/>
<path d="M103.512 87.6948L99.6639 72.3856C99.0944 70.1232 96.7907 68.3007 94.5124 68.3007H61.7929C59.5146 68.3007 58.1349 70.1358 58.7045 72.3856L62.5523 87.6948C63.1219 89.9573 65.4256 91.7798 67.7039 91.7798H100.436C102.689 91.7798 104.069 89.9573 103.512 87.6948Z" fill="#AFCDFB"/>
<path d="M94.1072 74.1704C94.6261 74.1704 94.9426 73.7556 94.816 73.2403C94.6894 72.725 94.1578 72.3102 93.6388 72.3102H63.0585C62.5395 72.3102 62.2231 72.725 62.3496 73.2403C62.4762 73.7556 63.0078 74.1704 63.5268 74.1704H94.1072Z" fill="#0094DE"/>
<path d="M95.0061 77.7526C95.5251 77.7526 95.8415 77.3379 95.7149 76.8225C95.5884 76.3072 95.0567 75.8924 94.5378 75.8924H63.9574C63.4384 75.8924 63.122 76.3072 63.2486 76.8225C63.3751 77.3379 63.9068 77.7526 64.4257 77.7526H95.0061Z" fill="#0094DE"/>
<path d="M96.6007 80.3922C96.4741 79.8768 95.9425 79.462 95.4236 79.462H64.8558C64.3369 79.462 64.0204 79.8768 64.147 80.3922C64.2736 80.9075 64.8052 81.3223 65.3242 81.3223H95.9046C96.4109 81.3223 96.7273 80.9075 96.6007 80.3922Z" fill="#0094DE"/>
<path d="M73.0706 83.4716H65.8558C65.3369 83.4716 65.0204 83.8863 65.147 84.4017C65.2736 84.917 65.8052 85.3318 66.3241 85.3318H73.5389C74.0578 85.3318 74.3743 84.917 74.2477 84.4017C74.1211 83.8989 73.5895 83.4716 73.0706 83.4716Z" fill="#0094DE"/>
<path d="M231.01 128.57L228.998 120.538C228.706 119.356 227.491 118.389 226.302 118.389H209.138C207.948 118.389 207.214 119.344 207.518 120.538L209.53 128.57C209.834 129.751 211.037 130.719 212.226 130.719H229.39C230.592 130.719 231.314 129.764 231.01 128.57Z" fill="#AFCDFB"/>
<path d="M226.087 121.481C226.353 121.481 226.517 121.267 226.454 120.99C226.391 120.726 226.112 120.5 225.834 120.5H209.797C209.531 120.5 209.354 120.714 209.43 120.99C209.493 121.254 209.772 121.481 210.05 121.481H226.087Z" fill="#0094DE"/>
<path d="M226.555 123.353C226.821 123.353 226.986 123.14 226.923 122.863C226.859 122.599 226.581 122.373 226.302 122.373H210.265C210 122.373 209.835 122.587 209.898 122.863C209.962 123.127 210.24 123.353 210.519 123.353H226.555Z" fill="#0094DE"/>
<path d="M227.391 124.749C227.328 124.485 227.049 124.258 226.771 124.258H210.746C210.481 124.258 210.316 124.472 210.379 124.749C210.443 125.013 210.721 125.239 210.999 125.239H227.037C227.302 125.239 227.467 125.013 227.391 124.749Z" fill="#0094DE"/>
<path d="M215.05 126.357H211.266C211 126.357 210.823 126.571 210.899 126.848C210.962 127.112 211.24 127.338 211.519 127.338H215.303C215.569 127.338 215.734 127.124 215.67 126.848C215.607 126.584 215.329 126.357 215.05 126.357Z" fill="#0094DE"/>
<path d="M111.98 122.7C112.385 122.7 112.638 122.373 112.537 121.971C112.436 121.569 112.018 121.242 111.613 121.242H78.9186C78.5136 121.242 78.2604 121.569 78.3617 121.971C78.4629 122.373 78.8806 122.7 79.2857 122.7H111.98Z" fill="#FAA61A"/>
<path d="M112.588 125.126C112.993 125.126 113.246 124.799 113.145 124.397C113.043 123.995 112.626 123.668 112.221 123.668H79.5265C79.1215 123.668 78.8683 123.995 78.9696 124.397C79.0709 124.799 79.4885 125.126 79.8936 125.126H112.588Z" fill="#FAA61A"/>
<path d="M112.853 126.207H80.1715C79.7665 126.207 79.5134 126.533 79.6146 126.936C79.7159 127.338 80.1336 127.665 80.5386 127.665H113.233C113.638 127.665 113.891 127.338 113.79 126.936C113.676 126.533 113.271 126.207 112.853 126.207Z" fill="#FAA61A"/>
<path d="M154.167 122.7C154.572 122.7 154.826 122.373 154.724 121.971C154.623 121.569 154.205 121.242 153.8 121.242H121.106C120.701 121.242 120.448 121.569 120.549 121.971C120.65 122.373 121.068 122.7 121.473 122.7H154.167Z" fill="#FAA61A"/>
<path d="M154.775 125.126C155.18 125.126 155.433 124.799 155.332 124.397C155.23 123.995 154.813 123.668 154.408 123.668H121.714C121.308 123.668 121.055 123.995 121.157 124.397C121.258 124.799 121.676 125.126 122.081 125.126H154.775Z" fill="#FAA61A"/>
<path d="M155.053 126.207H122.359C121.954 126.207 121.701 126.533 121.802 126.936C121.903 127.338 122.321 127.665 122.726 127.665H155.42C155.825 127.665 156.078 127.338 155.977 126.936C155.863 126.533 155.458 126.207 155.053 126.207Z" fill="#FAA61A"/>
<path d="M195.063 122.7C195.468 122.7 195.722 122.373 195.62 121.971C195.519 121.569 195.101 121.242 194.696 121.242H162.002C161.597 121.242 161.344 121.569 161.445 121.971C161.546 122.373 161.964 122.7 162.369 122.7H195.063Z" fill="#FAA61A"/>
<path d="M195.671 125.126C196.076 125.126 196.329 124.799 196.228 124.397C196.126 123.995 195.709 123.668 195.304 123.668H162.61C162.204 123.668 161.951 123.995 162.053 124.397C162.154 124.799 162.572 125.126 162.977 125.126H195.671Z" fill="#FAA61A"/>
<path d="M196.861 126.936C196.759 126.533 196.342 126.207 195.937 126.207H163.242C162.837 126.207 162.584 126.533 162.685 126.936C162.787 127.338 163.204 127.665 163.609 127.665H196.304C196.709 127.665 196.962 127.338 196.861 126.936Z" fill="#FAA61A"/>
<path d="M203.189 131.825H77.1214C76.0075 131.825 74.881 130.933 74.6025 129.827L72.0837 119.796C71.9445 119.231 72.0457 118.665 72.3748 118.25C72.6913 117.848 73.1849 117.622 73.7418 117.622H199.81C200.924 117.622 202.05 118.514 202.329 119.62L204.848 129.651C204.987 130.216 204.886 130.782 204.556 131.197C204.24 131.611 203.746 131.825 203.189 131.825ZM73.7292 118.364C73.4001 118.364 73.109 118.489 72.9444 118.703C72.7546 118.942 72.7039 119.269 72.7925 119.62L75.3114 129.651C75.5012 130.43 76.3366 131.096 77.1214 131.096H203.189C203.519 131.096 203.81 130.97 203.974 130.757C204.164 130.518 204.215 130.191 204.126 129.839L201.607 119.809C201.417 119.03 200.582 118.364 199.797 118.364H73.7292Z" fill="#FAA61A"/>
<path d="M78.0965 14.7561C78.0711 14.6179 77.9446 14.5173 77.8053 14.5425L74.9827 14.9321C74.8815 14.0397 74.3752 13.2101 73.5398 12.7199L73.3626 12.6194C72.4892 12.1166 71.4513 12.1166 70.6032 12.5188L69.4894 9.74105C69.4388 9.60279 69.2869 9.53994 69.1476 9.60279C69.0084 9.65306 68.9451 9.80389 69.0084 9.94215L70.1602 12.7953C69.983 12.921 69.8058 13.0719 69.6666 13.2478C69.5527 13.3861 69.4388 13.5369 69.3502 13.6878L69.0337 14.2157C67.5655 13.3735 66.4769 12.7451 66.4389 12.7199C66.3124 12.6445 66.1605 12.6948 66.0845 12.8079C66.0086 12.9336 66.0592 13.0844 66.1731 13.1598C66.2111 13.185 67.2996 13.8134 68.7679 14.6556L68.5907 14.9572C68.4262 15.2463 68.3122 15.548 68.249 15.8622L64.6922 16.3524C64.553 16.3775 64.4517 16.5032 64.477 16.6415C64.4897 16.7672 64.6036 16.8677 64.7302 16.8677C64.7428 16.8677 64.7555 16.8677 64.7682 16.8677L68.1983 16.3901C68.1857 17.4082 68.7173 18.4137 69.6666 18.9542L69.8438 19.0548C70.7551 19.5827 71.8437 19.5575 72.7044 19.105L73.9195 22.1342C73.9575 22.2348 74.0587 22.2976 74.16 22.2976C74.198 22.2976 74.2233 22.2976 74.2613 22.285C74.4005 22.2348 74.4638 22.0839 74.4005 21.9457L73.1474 18.816C73.4259 18.5897 73.679 18.3132 73.8689 17.9864L74.0461 17.6847C75.5397 18.5394 76.6409 19.1805 76.6409 19.1805C76.6788 19.2056 76.7295 19.2182 76.7674 19.2182C76.856 19.2182 76.9446 19.1679 76.9953 19.0925C77.0712 18.9668 77.0206 18.816 76.9067 18.7405C76.9067 18.7405 75.8055 18.0995 74.3119 17.2448L74.6283 16.7169C74.7169 16.5535 74.7929 16.3901 74.8562 16.2267C74.9448 15.9753 74.9954 15.7114 75.0207 15.4474L77.9066 15.0452C78.0205 15.0201 78.1218 14.8944 78.0965 14.7561Z" fill="#AFCDFB"/>
<path d="M74.603 16.7169L73.8562 17.999C73.0461 19.3942 71.2235 19.8718 69.8311 19.0548L69.6539 18.9542C68.249 18.1498 67.768 16.3399 68.5907 14.9573L69.3375 13.6752C69.4261 13.5118 69.54 13.361 69.6539 13.2353L74.8308 16.2267C74.7802 16.3901 74.7042 16.5535 74.603 16.7169Z" fill="#F77E07"/>
<path d="M18.834 48.3911L15.5684 47.4736C15.5684 47.1217 15.4924 46.7572 15.3532 46.4052L15.2139 46.0784L17.9986 44.9472C18.1252 44.8969 18.1884 44.7461 18.1378 44.6078C18.0872 44.4821 17.9353 44.4193 17.7961 44.4696L15.0114 45.6008L14.7709 45.0352C14.695 44.8592 14.619 44.7084 14.5178 44.5576C14.3659 44.3313 14.1887 44.1302 13.9988 43.9542L15.4418 41.4404C15.5177 41.3147 15.4671 41.1639 15.3405 41.0885C15.2139 41.0131 15.0621 41.0633 14.9861 41.189L13.5811 43.6526C12.809 43.1875 11.8344 43.0744 10.9357 43.4389L10.7585 43.5143C9.82188 43.8914 9.18901 44.7084 8.99914 45.6259L6.10059 44.8089C5.96136 44.7712 5.82213 44.8466 5.78416 44.9849C5.74618 45.1232 5.82213 45.2614 5.96136 45.2991L8.93586 46.1413C8.9232 46.3675 8.94852 46.5812 8.98649 46.8074C9.02446 46.9834 9.07509 47.1594 9.15103 47.3228L9.39153 47.8884L6.60689 49.0196C6.48031 49.0699 6.41703 49.2207 6.46766 49.359C6.50563 49.4595 6.60689 49.5224 6.70815 49.5224C6.74612 49.5224 6.77144 49.5224 6.80941 49.4972L9.59404 48.366L9.73328 48.6928C9.85985 49.007 10.0371 49.271 10.2522 49.5098L8.48019 52.6018C8.40425 52.7275 8.45488 52.8783 8.58145 52.9537C8.61942 52.9789 8.67005 52.9915 8.70802 52.9915C8.79663 52.9915 8.88523 52.9412 8.93586 52.8658L10.6446 49.8743C11.4547 50.5028 12.5685 50.7039 13.5938 50.2891L13.771 50.2137C14.7456 49.8115 15.3912 48.9568 15.5557 47.9889L18.7201 48.8813C18.7454 48.8939 18.7707 48.8939 18.796 48.8939C18.9099 48.8939 19.0112 48.8185 19.0492 48.7054C19.0618 48.5671 18.9732 48.4289 18.834 48.3911Z" fill="#AFCDFB"/>
<path d="M14.7966 45.0226L15.3662 46.3927C15.9864 47.8884 15.2523 49.5978 13.7587 50.2137L13.5815 50.2891C12.0753 50.905 10.3539 50.176 9.73364 48.6928L9.16406 47.3228C9.08811 47.1468 9.03748 46.9708 8.99951 46.8074L14.5435 44.5576C14.6321 44.6958 14.7207 44.8592 14.7966 45.0226Z" fill="#F77E07"/>
<path d="M51.5918 140.925C51.5665 140.938 51.5538 140.963 51.5158 140.975C50.4273 141.805 43.0353 146.807 26.4288 144.595C26.3149 145.224 26.2136 145.852 26.1123 146.481C26.0617 146.795 26.0111 147.097 25.9731 147.411C25.9225 147.712 25.8845 148.014 25.8339 148.316V148.328C25.7959 148.63 25.7453 148.932 25.7073 149.233C25.6693 149.535 25.6314 149.837 25.5934 150.126C25.5554 150.415 25.5174 150.716 25.4795 151.006V151.018C25.4415 151.307 25.4162 151.596 25.3782 151.885C25.3402 152.174 25.3149 152.464 25.2896 152.753C25.2643 153.042 25.2263 153.318 25.201 153.607C25.1757 153.884 25.1504 154.173 25.1251 154.449C25.1124 154.651 25.0871 154.864 25.0744 155.065C25.0618 155.229 25.0491 155.405 25.0365 155.568C25.0238 155.706 25.0112 155.857 25.0112 155.995C25.0112 156.071 24.9985 156.146 24.9985 156.222C24.9858 156.461 24.9732 156.699 24.9605 156.938C24.9479 157.19 24.9352 157.441 24.9225 157.692C24.9225 157.743 24.9225 157.793 24.9099 157.843C24.8972 158.032 24.8972 158.22 24.8846 158.409C24.8846 158.56 24.8719 158.698 24.8719 158.849C24.8593 159.326 24.8466 159.791 24.8339 160.244C24.8339 160.457 24.8213 160.671 24.8213 160.872C24.8213 161.124 24.8213 161.362 24.8213 161.614C24.8213 161.639 24.8213 161.652 24.8213 161.677C24.8213 161.916 24.8213 162.154 24.8213 162.393C24.8213 162.594 24.8213 162.783 24.8339 162.984C24.8339 163.147 24.8339 163.323 24.8466 163.487C24.8466 163.549 24.8466 163.6 24.8466 163.663C24.8466 163.839 24.8593 164.002 24.8593 164.178C24.8593 164.366 24.8719 164.542 24.8846 164.731C24.8972 164.932 24.8972 165.121 24.9099 165.322C24.9225 165.548 24.9352 165.774 24.9479 166C24.9479 166.026 24.9479 166.038 24.9479 166.063C24.9605 166.29 24.9732 166.503 24.9858 166.729C24.9985 166.956 25.0238 167.195 25.0365 167.421C25.0491 167.647 25.0744 167.873 25.0998 168.1C25.1124 168.326 25.1377 168.552 25.163 168.766C25.1884 168.979 25.201 169.18 25.2263 169.394C25.2263 169.419 25.2263 169.444 25.239 169.47C25.2643 169.671 25.2896 169.872 25.3149 170.073C25.3402 170.287 25.3656 170.5 25.3909 170.714V170.726C25.4162 170.94 25.4415 171.141 25.4795 171.355C25.5048 171.556 25.5428 171.77 25.5681 171.971V171.983C25.5934 172.184 25.6314 172.386 25.6567 172.587V172.599C25.6947 172.8 25.72 173.001 25.7579 173.203C25.7959 173.404 25.8339 173.605 25.8592 173.806C25.9098 174.045 25.9478 174.296 25.9984 174.535C26.0237 174.686 26.0617 174.837 26.087 174.987C26.125 175.176 26.163 175.364 26.2009 175.54C26.2009 175.566 26.2136 175.591 26.2136 175.616C26.2516 175.792 26.2896 175.955 26.3275 176.131C26.3655 176.32 26.4161 176.508 26.4541 176.684C26.5427 177.061 26.644 177.438 26.7326 177.803C26.7705 177.966 26.8212 178.142 26.8718 178.306C26.9224 178.482 26.9731 178.645 27.0237 178.821C27.0617 178.947 27.0996 179.072 27.1376 179.198C27.1756 179.324 27.2135 179.449 27.2515 179.563C27.2768 179.663 27.3148 179.751 27.3401 179.852C27.3907 180.015 27.4414 180.191 27.492 180.354C27.6059 180.681 27.7072 181.008 27.8211 181.335C27.8717 181.498 27.935 181.649 27.9856 181.812C28.0489 181.976 28.0996 182.127 28.1629 182.277C28.3274 182.705 28.4793 183.12 28.6565 183.522C28.7071 183.648 28.7578 183.761 28.8084 183.886C28.8843 184.062 28.9476 184.238 29.0236 184.402C29.0868 184.54 29.1375 184.666 29.2008 184.804C29.5172 185.52 29.8463 186.212 30.188 186.865C30.2513 186.991 30.3273 187.117 30.3906 187.255C30.5551 187.557 30.707 187.846 30.8715 188.135C30.9222 188.235 30.9855 188.336 31.0487 188.436C31.0994 188.524 31.1627 188.625 31.2133 188.713C31.2766 188.826 31.3399 188.927 31.4032 189.027C31.555 189.266 31.6943 189.505 31.8462 189.731C31.8968 189.806 31.9474 189.894 31.9981 189.97C32.1626 190.221 32.3145 190.46 32.479 190.699C32.5423 190.787 32.593 190.862 32.6562 190.95C33.036 191.503 33.4157 192.019 33.7954 192.496C33.8587 192.584 33.9346 192.672 34.0106 192.76C34.3777 193.225 34.7447 193.653 35.0991 194.055C35.213 194.18 35.327 194.306 35.4409 194.432C35.4535 194.444 35.4662 194.457 35.4662 194.457C35.5295 194.532 35.6054 194.608 35.6687 194.671C36.0738 195.111 36.4661 195.5 36.8585 195.865C36.9218 195.928 36.9851 195.99 37.0484 196.041C37.175 196.154 37.3015 196.28 37.4281 196.38C37.542 196.481 37.6559 196.594 37.7698 196.682L37.7825 196.694C37.8964 196.795 38.0103 196.883 38.1116 196.983C38.3015 197.134 38.4787 197.285 38.6559 197.423C38.7065 197.461 38.7571 197.499 38.8078 197.536C39.1242 197.788 39.428 198.001 39.6938 198.203C39.7697 198.265 39.8583 198.316 39.9343 198.366C40.1621 198.517 40.3646 198.655 40.5545 198.768C40.6051 198.806 40.6557 198.831 40.7064 198.869C40.8203 198.932 40.9216 198.994 40.9975 199.045C41.0228 199.057 41.0355 199.07 41.0608 199.07C41.0861 199.082 41.0988 199.095 41.1114 199.108C41.3139 199.221 41.4152 199.271 41.4152 199.271C42.4784 198.932 43.5037 198.555 44.5036 198.14C50.7817 195.525 55.7561 191.566 59.6799 186.966C59.6925 186.953 59.7052 186.941 59.7052 186.928C68.173 177.024 71.8057 164.203 73.3626 155.719C73.5271 154.776 73.679 153.896 73.8056 153.067C57.1104 149.296 52.1107 141.78 51.5918 140.925Z" fill="#00AEEF"/>
<path d="M70.9702 156.976C69.5526 164.718 66.2363 176.395 58.5153 185.432C58.5026 185.445 58.5026 185.457 58.49 185.47C54.9079 189.656 50.3766 193.275 44.6554 195.651C43.7441 196.028 42.8074 196.368 41.8454 196.682C41.8454 196.682 41.7442 196.631 41.567 196.531C41.5543 196.518 41.529 196.506 41.5163 196.506C41.5037 196.493 41.4784 196.493 41.4657 196.481C41.3898 196.43 41.3012 196.38 41.1999 196.317C41.1493 196.292 41.1113 196.254 41.0607 196.229C40.8961 196.129 40.7063 196.003 40.5038 195.865C40.4405 195.814 40.3645 195.764 40.2886 195.714C40.0354 195.538 39.7696 195.337 39.4785 195.111C39.4279 195.073 39.3899 195.035 39.3393 195.01C39.1747 194.884 39.0102 194.746 38.8456 194.608C38.7444 194.52 38.6431 194.432 38.5418 194.344L38.5292 194.331C38.4279 194.243 38.3267 194.143 38.2128 194.055C38.0988 193.954 37.9849 193.854 37.871 193.741C37.8077 193.69 37.7571 193.627 37.6938 193.577C37.3394 193.25 36.985 192.886 36.6179 192.484C36.5546 192.421 36.4913 192.345 36.4281 192.283C36.4154 192.27 36.4154 192.257 36.4027 192.257C36.3015 192.144 36.2002 192.031 36.0863 191.918C35.7572 191.554 35.4281 191.151 35.099 190.737C35.0357 190.661 34.9724 190.573 34.9092 190.498C34.5674 190.058 34.213 189.58 33.8713 189.09C33.8206 189.015 33.77 188.939 33.7194 188.864C33.5675 188.65 33.4282 188.424 33.2764 188.198C33.2257 188.122 33.1878 188.059 33.1371 187.984C32.9979 187.77 32.8713 187.557 32.7321 187.343C32.6815 187.242 32.6182 187.154 32.5549 187.054C32.5043 186.966 32.4536 186.89 32.403 186.802C32.3524 186.714 32.3017 186.614 32.2511 186.526C32.0992 186.262 31.96 185.998 31.8081 185.721C31.7448 185.608 31.6815 185.495 31.6309 185.37C31.3271 184.766 31.0233 184.15 30.7322 183.497C30.6816 183.371 30.6183 183.258 30.5677 183.132C30.5044 182.981 30.4284 182.818 30.3651 182.667C30.3145 182.554 30.2765 182.453 30.2259 182.34C30.074 181.963 29.9221 181.586 29.7829 181.197C29.7323 181.058 29.6816 180.907 29.631 180.769C29.5804 180.631 29.5298 180.48 29.4791 180.329C29.3779 180.04 29.2766 179.739 29.1753 179.437C29.1247 179.286 29.0741 179.135 29.0361 178.984C29.0108 178.896 28.9855 178.808 28.9602 178.72C28.9222 178.607 28.8969 178.494 28.8589 178.381C28.8209 178.268 28.7956 178.155 28.7576 178.042C28.707 177.891 28.669 177.727 28.6311 177.577C28.5931 177.426 28.5425 177.275 28.5045 177.124C28.4159 176.785 28.3273 176.445 28.2514 176.106C28.2134 175.943 28.1754 175.767 28.1374 175.603C28.0995 175.452 28.0615 175.289 28.0362 175.138C28.0362 175.113 28.0235 175.101 28.0235 175.075C27.9855 174.912 27.9476 174.736 27.9223 174.573C27.8969 174.434 27.8716 174.296 27.8337 174.17C27.7957 173.957 27.7451 173.73 27.7071 173.504C27.6691 173.328 27.6438 173.14 27.6058 172.964C27.5679 172.788 27.5425 172.599 27.5172 172.411C27.5172 172.411 27.5172 172.411 27.5172 172.398C27.4919 172.222 27.4539 172.034 27.4286 171.858V171.845C27.4033 171.657 27.378 171.468 27.34 171.28C27.3147 171.091 27.2894 170.902 27.2641 170.714V170.701C27.2388 170.513 27.2134 170.312 27.1881 170.123C27.1628 169.935 27.1502 169.759 27.1248 169.57C27.1248 169.545 27.1248 169.52 27.1122 169.507C27.0869 169.319 27.0742 169.13 27.0489 168.929C27.0236 168.728 27.0109 168.527 26.9983 168.326C26.9856 168.125 26.9603 167.911 26.9476 167.71C26.935 167.509 26.9223 167.295 26.897 167.081C26.8843 166.88 26.8717 166.679 26.859 166.478C26.859 166.466 26.859 166.44 26.859 166.428C26.8464 166.227 26.8337 166.013 26.8211 165.812C26.8084 165.636 26.8084 165.46 26.7957 165.284C26.7957 165.121 26.7831 164.957 26.7831 164.781C26.7831 164.63 26.7704 164.467 26.7704 164.316C26.7704 164.266 26.7704 164.216 26.7704 164.153C26.7704 164.002 26.7578 163.851 26.7578 163.7C26.7578 163.524 26.7578 163.348 26.7451 163.16C26.7451 162.946 26.7451 162.733 26.7451 162.506C26.7451 162.494 26.7451 162.469 26.7451 162.456C26.7451 162.23 26.7451 162.003 26.7451 161.777C26.7451 161.589 26.7451 161.4 26.7578 161.199C26.7704 160.772 26.7704 160.357 26.7957 159.917C26.7957 159.779 26.8084 159.653 26.8084 159.515C26.8211 159.351 26.8211 159.175 26.8337 158.999C26.8337 158.949 26.8337 158.911 26.8337 158.874C26.8464 158.648 26.859 158.409 26.8717 158.182C26.8843 157.969 26.897 157.755 26.9097 157.529C26.9097 157.466 26.9223 157.391 26.9223 157.328C26.935 157.202 26.935 157.064 26.9476 156.938C26.9603 156.787 26.973 156.636 26.9856 156.473C26.9983 156.285 27.0109 156.096 27.0362 155.92C27.0616 155.669 27.0742 155.405 27.0995 155.153C27.1248 154.889 27.1502 154.638 27.1755 154.374C27.2008 154.11 27.2261 153.846 27.2641 153.582C27.2894 153.318 27.3274 153.054 27.3527 152.79V152.778C27.3906 152.514 27.416 152.25 27.4539 151.973C27.4919 151.697 27.5299 151.433 27.5552 151.156C27.5932 150.88 27.6311 150.616 27.6691 150.339V150.327C27.7071 150.05 27.7451 149.774 27.7957 149.497C27.8337 149.221 27.8843 148.932 27.9223 148.655C28.0109 148.089 28.1121 147.511 28.2134 146.933C43.3517 148.957 50.0981 144.394 51.0854 143.64C51.1107 143.615 51.136 143.602 51.1487 143.59C51.6296 144.369 56.1737 151.219 71.4006 154.651C71.2613 155.317 71.1221 156.121 70.9702 156.976Z" fill="#AFCDFB"/>
<path d="M51.1866 143.439L41.5543 196.531C41.453 196.468 41.3264 196.405 41.1872 196.305C41.1366 196.28 41.0986 196.242 41.048 196.217C40.8834 196.116 40.6936 195.99 40.4911 195.852C40.4278 195.802 40.3518 195.752 40.2759 195.701C40.0227 195.525 39.7569 195.324 39.4658 195.098C39.4152 195.06 39.3772 195.023 39.3266 194.997C39.162 194.872 38.9975 194.734 38.8329 194.595C38.7317 194.507 38.6304 194.419 38.5292 194.331L38.5165 194.319C38.4152 194.231 38.314 194.13 38.2001 194.042C38.0861 193.942 37.9722 193.841 37.8583 193.728C37.795 193.678 37.7444 193.615 37.6811 193.565C37.3267 193.238 36.9723 192.873 36.6052 192.471C36.5419 192.408 36.4787 192.333 36.4154 192.27C36.4027 192.257 36.4027 192.245 36.39 192.245C36.2888 192.132 36.1875 192.019 36.0736 191.905C35.7445 191.541 35.4154 191.139 35.0863 190.724C35.023 190.649 34.9598 190.561 34.8965 190.485C34.5547 190.045 34.2003 189.568 33.8586 189.077C33.8079 189.002 33.7573 188.927 33.7067 188.851C33.5548 188.638 33.4155 188.411 33.2637 188.185C33.213 188.11 33.1751 188.047 33.1244 187.971C32.9852 187.758 32.8586 187.544 32.7194 187.33C32.6688 187.23 32.6055 187.142 32.5422 187.041C32.4916 186.953 32.4409 186.878 32.3903 186.79C32.3397 186.702 32.289 186.601 32.2384 186.513C32.0865 186.249 31.9473 185.985 31.7954 185.709C31.7321 185.596 31.6688 185.483 31.6182 185.357C31.3144 184.754 31.0106 184.138 30.7195 183.484C30.6689 183.358 30.6056 183.245 30.555 183.12C30.4917 182.969 30.4157 182.805 30.3525 182.655C30.3018 182.541 30.2638 182.441 30.2132 182.328C30.0613 181.951 29.9094 181.574 29.7702 181.184C29.7196 181.046 29.6689 180.895 29.6183 180.757C29.5677 180.618 29.5171 180.468 29.4664 180.317C29.3652 180.028 29.2639 179.726 29.1626 179.424C29.112 179.274 29.0614 179.123 29.0234 178.972C28.9981 178.884 28.9728 178.796 28.9475 178.708C28.9095 178.595 28.8842 178.482 28.8462 178.369C28.8082 178.255 28.7829 178.142 28.745 178.029C28.6943 177.878 28.6564 177.715 28.6184 177.564C28.5804 177.413 28.5298 177.262 28.4918 177.112C28.4032 176.772 28.3146 176.433 28.2387 176.094C28.2007 175.93 28.1627 175.754 28.1247 175.591C28.0868 175.44 28.0488 175.277 28.0235 175.126C28.0235 175.101 28.0108 175.088 28.0108 175.063C27.9729 174.899 27.9349 174.723 27.9096 174.56C27.8842 174.422 27.8589 174.284 27.821 174.158C27.783 173.944 27.7324 173.718 27.6944 173.492C27.6564 173.316 27.6311 173.127 27.5931 172.951C27.5552 172.775 27.5298 172.587 27.5045 172.398C27.5045 172.398 27.5045 172.398 27.5045 172.386C27.4792 172.21 27.4412 172.021 27.4159 171.845V171.833C27.3906 171.644 27.3653 171.455 27.3273 171.267C27.302 171.078 27.2767 170.89 27.2514 170.701V170.689C27.2261 170.5 27.2007 170.299 27.1754 170.111C27.1501 169.922 27.1375 169.746 27.1121 169.558C27.1121 169.532 27.1121 169.507 27.0995 169.495C27.0742 169.306 27.0615 169.118 27.0362 168.917C27.0109 168.715 26.9982 168.514 26.9856 168.313C26.9729 168.112 26.9476 167.898 26.9349 167.697C26.9223 167.496 26.9096 167.283 26.8843 167.069C26.8717 166.868 26.859 166.667 26.8463 166.466C26.8463 166.453 26.8463 166.428 26.8463 166.415C26.8337 166.214 26.821 166 26.8084 165.799C26.7957 165.623 26.7957 165.447 26.7831 165.271C26.7831 165.108 26.7704 164.945 26.7704 164.769C26.7704 164.618 26.7577 164.454 26.7577 164.304C26.7577 164.253 26.7577 164.203 26.7577 164.14C26.7577 163.989 26.7451 163.839 26.7451 163.688C26.7451 163.512 26.7451 163.336 26.7324 163.147C26.7324 162.934 26.7324 162.72 26.7324 162.494C26.7324 162.481 26.7324 162.456 26.7324 162.443C26.7324 162.217 26.7324 161.991 26.7324 161.765C26.7324 161.576 26.7324 161.388 26.7451 161.187C26.7577 160.759 26.7577 160.344 26.7831 159.904C26.7831 159.766 26.7957 159.641 26.7957 159.502C26.8084 159.339 26.8084 159.163 26.821 158.987C26.821 158.937 26.821 158.899 26.821 158.861C26.8337 158.635 26.8463 158.396 26.859 158.17C26.8717 157.956 26.8843 157.743 26.897 157.516C26.897 157.453 26.9096 157.378 26.9096 157.315C26.9223 157.19 26.9223 157.051 26.9349 156.926C26.9476 156.775 26.9603 156.624 26.9729 156.461C26.9856 156.272 26.9982 156.083 27.0235 155.907C27.0489 155.656 27.0615 155.392 27.0868 155.141C27.1121 154.877 27.1375 154.625 27.1628 154.361C27.1881 154.098 27.2134 153.834 27.2514 153.57C27.2767 153.306 27.3147 153.042 27.34 152.778V152.765C27.378 152.501 27.4033 152.237 27.4412 151.961C27.4792 151.684 27.5172 151.42 27.5425 151.144C27.5805 150.867 27.6184 150.603 27.6564 150.327V150.314C27.6944 150.038 27.7324 149.761 27.783 149.485C27.821 149.208 27.8716 148.919 27.9096 148.643C27.9982 148.077 28.0994 147.499 28.2007 146.921C44.6554 149.045 51.1866 143.439 51.1866 143.439Z" fill="#0094DE"/>
</g>
<defs>
<clipPath id="clip0">
<rect width="406" height="200" fill="white"/>
</clipPath>
</defs>
</svg>
