<svg width="374" height="212" viewBox="0 0 374 212" fill="none" xmlns="http://www.w3.org/2000/svg">
<path d="M209.436 206.171C215.875 195.784 223.411 181.517 225.375 169.533C228.731 147.847 209.573 160.927 201.877 184.234C201.877 184.234 209.139 153.691 198.795 131.663C188.451 109.634 183.678 155.06 189.432 184.234C189.432 184.234 178.951 131.914 159.93 116.14C141.616 100.8 152.097 151.134 172.375 186.836C173.631 188.822 174.202 190.009 174.202 190.009C173.654 188.959 172.946 187.909 172.375 186.836C167.625 179.189 154.198 159.74 133.921 150.609C108.46 139.081 134.332 181.768 167.077 200.35C167.077 200.35 151.138 192.954 137.437 196.903C132.414 198.364 133.944 202.016 138.693 206.308C157.692 206.308 189.021 206.262 209.436 206.171Z" fill="#BEDCEC"/>
<path d="M322.221 206.262C319.914 202.541 317.197 197.405 316.489 193.114C315.279 185.329 322.175 190.009 324.938 198.387C324.938 198.387 322.335 187.407 326.034 179.509C329.756 171.588 331.469 187.909 329.391 198.387C329.391 198.387 333.159 179.6 339.986 173.916C346.563 168.415 342.795 186.494 335.511 199.323C335.054 200.03 334.848 200.464 334.848 200.464C335.054 200.076 335.305 199.711 335.511 199.323C337.223 196.583 342.041 189.598 349.326 186.311C358.46 182.157 349.166 197.496 337.429 204.185C337.429 204.185 343.16 201.537 348.07 202.952C349.874 203.477 349.326 204.778 347.613 206.331C340.808 206.308 329.551 206.285 322.221 206.262Z" fill="#00AD63"/>
<path d="M250.013 206.285C249.077 204.778 247.981 202.724 247.707 200.989C247.227 197.861 249.99 199.733 251.109 203.112C251.109 203.112 250.059 198.683 251.543 195.51C253.05 192.314 253.735 198.889 252.89 203.112C252.89 203.112 254.397 195.556 257.16 193.273C259.809 191.059 258.302 198.341 255.356 203.5C255.174 203.797 255.082 203.956 255.082 203.956C255.174 203.797 255.265 203.66 255.356 203.5C256.042 202.404 257.982 199.573 260.928 198.25C264.605 196.583 260.86 202.746 256.133 205.44C256.133 205.44 258.439 204.367 260.426 204.938C261.157 205.143 260.928 205.668 260.243 206.308C257.48 206.308 252.959 206.308 250.013 206.285Z" fill="#EDEEF2"/>
<path d="M242.715 206.262C242.715 206.262 242.327 193.593 235.476 187.589C228.648 181.586 218.784 187.155 217.733 179.759C216.683 172.363 221.707 173.55 224.515 175.011C227.324 176.449 230.772 173.573 229.334 168.848C227.895 164.146 219.195 160.539 222.209 148.372C225.223 136.205 237.44 139.355 240.774 146.911C244.108 154.467 239.267 171.062 248.789 178.527C258.311 185.991 259.087 198.478 254.315 206.079L242.715 206.262Z" fill="#ECECEC"/>
<path d="M230.545 140.246C229.381 144.629 229.746 149.354 230.636 153.988C231.436 152.71 232.395 151.523 233.422 150.404C235.272 148.35 237.418 146.592 239.816 145.177C239.907 145.291 239.976 145.405 240.044 145.519C236.459 147.596 233.354 150.541 231.116 154.034C231.002 154.216 230.842 154.445 230.773 154.604C230.796 154.81 230.865 154.992 230.888 155.198C233.08 165.835 237.829 175.994 243.812 184.987C243.881 185.056 243.949 185.124 243.949 185.124C243.972 185.17 243.972 185.216 243.995 185.261C244.018 185.307 244.04 185.353 244.086 185.398C247.192 190.055 250.183 195.054 251.37 200.441C251.782 202.359 252.033 204.436 251.393 206.148H250.914C251.074 205.715 251.256 204.961 251.325 204.276C251.553 200.647 250.069 197.04 248.402 193.593C246.963 190.671 245.205 187.955 243.424 185.193C241.095 182.933 237.647 182.066 234.381 181.677C228.878 181.016 223.535 179.418 218.169 177.957C217.963 177.911 217.758 177.843 217.621 177.82C217.643 177.683 217.643 177.523 217.643 177.386C217.872 177.409 218.054 177.477 218.26 177.546C223.855 179.075 229.403 180.719 235.226 181.335C237.875 181.632 240.547 182.431 242.67 184.006C242.259 183.344 241.826 182.705 241.415 182.02C239.474 178.824 237.67 175.514 236.071 172.113C236.048 172.113 235.98 172.09 235.911 172.044C233.377 169.99 230.751 168.05 228.01 166.406C227.828 166.132 227.599 165.881 227.394 165.607C230.294 167.296 233.08 169.282 235.729 171.36C233.331 166.041 231.458 160.517 230.385 154.81C230.34 154.764 230.317 154.696 230.34 154.582C230.134 153.509 229.974 152.459 229.837 151.386C229.358 147.688 229.221 143.898 230.134 140.292C230.248 140.269 230.385 140.269 230.545 140.246ZM217.78 177.5C217.78 177.477 217.78 177.5 217.78 177.5V177.5ZM217.78 177.5C217.735 177.432 217.758 177.477 217.78 177.5V177.5Z" fill="#FEFEFE"/>
<path d="M12.3032 171.77C12.3032 171.77 12.3032 174.212 14.8836 175.605C17.4639 176.974 18.9482 175.354 19.4962 176.198C19.4962 176.198 20.3868 173.938 17.9891 171.77C15.6143 169.624 13.3308 170.514 12.3032 171.77Z" fill="#00B72B"/>
<path d="M9.90483 183.594C9.90483 183.594 11.1608 192.155 0.0629883 189.963C0.0629883 189.963 0.451182 189.529 1.31891 187.338C2.18663 185.101 5.95439 182.019 9.90483 183.594Z" fill="#00B72B"/>
<path d="M5.63464 155.882C5.63464 155.882 7.39293 152.778 5.63464 151.477C3.87634 150.176 4.21887 154.033 5.63464 155.882Z" fill="#00B72B"/>
<path d="M3.5344 158.279C3.5344 158.279 0.679519 155.494 0.0628642 157.48C-0.553791 159.421 3.5344 158.279 3.5344 158.279Z" fill="#00B72B"/>
<path d="M4.44743 160.607C4.44743 160.607 1.02158 162.183 2.80302 163.256C4.58446 164.306 4.44743 160.607 4.44743 160.607Z" fill="#00B72B"/>
<path d="M7.89453 157.686C7.89453 157.686 11.0692 157.275 10.7722 155.905C10.4525 154.512 7.94021 156.293 7.89453 157.686Z" fill="#00B72B"/>
<path d="M5.24614 158.827C5.68762 158.827 6.0455 158.469 6.0455 158.028C6.0455 157.587 5.68762 157.229 5.24614 157.229C4.80466 157.229 4.44678 157.587 4.44678 158.028C4.44678 158.469 4.80466 158.827 5.24614 158.827Z" fill="#00B72B"/>
<path d="M9.90463 172.98C10.3157 170.514 10.955 168.072 10.5668 165.424C10.5668 165.424 10.2243 163.643 9.72195 162.639C8.99123 161.224 7.78098 160.082 6.36522 159.306C6.25105 159.238 6.13687 159.192 5.97703 159.192C5.54317 159.306 5.4975 159.786 6.11404 160.128C8.39753 161.452 9.79046 163.963 9.85896 166.976C9.90463 169.601 9.05974 172.158 8.80855 174.783C8.78572 175.24 8.76289 175.902 8.76289 175.902C8.76289 178.55 10.0416 180.946 11.6629 183.092C11.3889 183.024 11.1149 183.001 10.8637 183.001C8.69438 183.047 6.95893 184.827 5.74868 186.379C5.72584 186.425 5.566 186.676 5.65734 186.882C5.77152 187.133 6.18254 187.201 6.36522 186.95C6.41089 186.882 6.41089 186.882 6.4794 186.813C6.66207 186.562 6.89042 186.288 7.09594 186.06C7.27862 185.854 7.4613 185.672 7.64398 185.466C7.80382 185.329 7.94083 185.192 8.10067 185.055C8.21485 184.964 8.32902 184.873 8.4432 184.781C9.69912 183.823 11.6858 183.252 12.9873 184.736H13.0102C13.1929 184.964 13.3755 185.169 13.5811 185.398C17.7598 190.123 22.6008 194.255 25.5237 200.007C26.4143 201.765 27.3277 203.728 26.9395 205.714C26.7568 206.65 27.3277 206.513 27.5332 206.353C27.6702 206.262 27.7387 205.988 27.7387 205.988C27.7844 205.76 27.7844 205.714 27.8072 205.6C27.9899 203.865 27.3733 202.084 26.6883 200.532C23.5142 193.387 16.7323 188.365 12.1881 182.407C10.6125 180.353 9.44793 177.91 9.63061 175.171C9.63061 174.966 9.65345 174.76 9.67628 174.555C10.4298 173.322 11.7543 172.432 13.2385 172.363C15.1567 172.272 16.9149 173.299 18.3764 174.395C18.3764 174.395 18.5362 174.509 18.6961 174.464C19.0614 174.395 19.1756 173.939 18.7189 173.596C17.1661 172.478 15.4078 171.542 13.5125 171.519C13.4669 171.519 13.4669 171.519 13.4212 171.519C12.1196 171.564 10.8637 172.09 9.90463 172.98Z" fill="black"/>
<path d="M19.9291 206.513C19.9291 206.513 15.6133 200.395 15.5905 192.383C15.5448 184.393 28.0811 186.973 25.5693 180.741C23.0575 174.509 16.9377 166.725 22.5094 160.63C28.0811 154.535 41.0057 158.987 39.8868 170.857C38.8592 181.951 43.4719 185.283 50.7334 189.552C57.9949 193.798 62.9272 198.637 59.2279 206.513H19.9291Z" fill="url(#paint0_linear)"/>
<path d="M31.8261 169.624C30.73 166.611 29.5426 163.621 28.3095 160.676C28.3095 160.676 28.1953 160.151 27.7386 160.197C27.0764 160.402 27.5103 160.927 27.693 161.384C28.7434 163.917 29.7709 166.451 30.73 169.008C29.8623 168.3 28.9717 167.57 28.104 166.839C28.104 166.839 27.9898 166.725 27.8071 166.748C27.0764 166.839 27.3961 167.342 27.5788 167.479C28.8119 168.483 30.045 169.51 31.278 170.515C31.3009 170.515 31.3009 170.537 31.3009 170.537C32.2371 173.117 33.082 175.719 33.8356 178.413C34.0411 179.189 34.3379 179.965 34.2923 180.718C34.2694 181.221 33.3789 180.741 32.5796 180.536C32.2371 180.444 31.8718 180.148 31.3237 180.49C31.0954 180.627 30.9584 180.992 30.9584 180.992C30.7985 181.86 31.1639 182.544 31.4379 183.298C32.6938 186.631 34.3151 189.804 35.9364 192.999C34.2694 192.406 32.671 191.561 31.1182 190.602C31.1182 190.602 31.004 190.534 30.8899 190.534C30.6615 190.557 30.6387 190.625 30.5702 190.694C30.2505 191.105 31.0954 191.561 31.8033 191.972C33.2875 192.817 34.8403 193.593 36.4844 194.049C37.3978 195.876 38.3112 197.725 39.1561 199.596C40.138 201.879 41.0971 204.185 41.7364 206.582C41.7364 206.582 41.9876 207.015 42.3073 206.855C42.6042 206.719 42.49 206.216 42.4671 206.148C42.4443 206.034 42.4443 206.034 42.3986 205.92C41.2341 201.811 39.4073 197.93 37.4891 194.095C37.4891 194.095 37.512 194.095 37.512 194.072C37.6033 193.958 37.6261 193.798 37.5576 193.661C37.6261 193.365 37.6718 192.977 37.6947 192.657C37.8545 191.173 38.0372 189.667 38.4482 188.228C38.4482 188.228 38.4482 187.681 38.0143 187.703C37.786 187.726 37.649 187.932 37.5805 188.183C37.1923 189.689 36.9868 191.264 36.8498 192.817C35.297 189.758 33.7442 186.745 32.4655 183.617C32.4426 183.526 32.4426 183.526 32.397 183.458C32.1229 182.75 31.7347 182.019 31.7804 181.243C31.7804 181.106 31.9174 181.221 32.0544 181.266C33.1505 181.494 34.4978 182.293 35.0001 181.243C35.0001 181.243 35.1143 180.924 35.1371 180.673C35.1371 180.399 35.1143 180.353 35.0915 180.193C34.7718 177.614 33.7899 175.148 32.8765 172.546C32.6481 171.861 32.397 171.177 32.1686 170.469C33.0135 170.035 33.7671 168.871 34.1096 168.118C34.2923 167.752 34.4064 167.182 34.4064 167.182C34.4749 166.68 34.2466 166.702 33.9726 166.702C33.4017 166.748 33.4702 167.752 32.9222 168.506C32.6025 168.962 32.2371 169.328 31.8261 169.624Z" fill="white"/>
<path d="M60.5473 206.513C60.5473 206.513 58.8804 201.012 59.2686 196.766C59.6339 192.52 65.0458 198.409 65.0458 198.409C65.0458 198.409 62.808 193.935 62.1914 189.552C61.5749 185.147 66.6214 186.494 69.7726 194.004C69.7726 194.004 69.9553 187.019 71.9648 185.352C73.9514 183.686 79.9798 198.934 79.0664 206.513H60.5473Z" fill="#00D268"/>
<rect x="92.3926" y="-0.00012207" width="161.28" height="111.173" rx="10.6072" fill="#DEDEDE"/>
<path d="M92.3926 10.6071C92.3926 4.74888 97.1416 -0.00012207 103 -0.00012207H243.065C248.923 -0.00012207 253.672 4.74888 253.672 10.6071V15.8183H92.3926V10.6071Z" fill="#0C152A"/>
<path d="M102.485 9.63848C103.4 9.63848 104.142 8.93536 104.142 8.06802C104.142 7.20068 103.4 6.49756 102.485 6.49756C101.569 6.49756 100.828 7.20068 100.828 8.06802C100.828 8.93536 101.569 9.63848 102.485 9.63848Z" fill="#ED145B"/>
<path d="M109.232 9.63787C110.147 9.63787 110.889 8.93475 110.889 8.06741C110.889 7.20007 110.147 6.49695 109.232 6.49695C108.317 6.49695 107.575 7.20007 107.575 8.06741C107.575 8.93475 108.317 9.63787 109.232 9.63787Z" fill="#FAA61A"/>
<path d="M115.984 9.63787C116.899 9.63787 117.641 8.93475 117.641 8.06741C117.641 7.20007 116.899 6.49695 115.984 6.49695C115.069 6.49695 114.327 7.20007 114.327 8.06741C114.327 8.93475 115.069 9.63787 115.984 9.63787Z" fill="#03C53A"/>
<path d="M168.505 27.7875H106.121C105.168 27.7875 104.396 28.5595 104.396 29.5118V48.335C104.396 49.2873 105.168 50.0592 106.121 50.0592H168.505C169.458 50.0592 170.23 49.2873 170.23 48.335V29.5118C170.23 28.5595 169.458 27.7875 168.505 27.7875Z" fill="white"/>
<path d="M129.449 36.0397H163.951" stroke="#00AEEF" stroke-width="2.06204" stroke-linecap="round"/>
<path d="M129.263 39.2009H152.527" stroke="#00AEEF" stroke-width="2.06204" stroke-linecap="round"/>
<path d="M121.311 38.5602C121.292 38.3968 121.102 38.2739 120.937 38.2739C120.404 38.2739 119.931 37.9611 119.732 37.4772C119.53 36.9816 119.66 36.4037 120.058 36.0394C120.183 35.9251 120.198 35.7339 120.093 35.601C119.82 35.2547 119.51 34.9419 119.171 34.6708C119.039 34.5644 118.844 34.5792 118.729 34.7065C118.383 35.0903 117.76 35.2329 117.279 35.0322C116.778 34.8216 116.462 34.3144 116.493 33.7699C116.503 33.5988 116.378 33.4501 116.208 33.4303C115.773 33.38 115.335 33.3785 114.899 33.4268C114.73 33.4454 114.605 33.5906 114.611 33.7595C114.63 34.2986 114.31 34.797 113.815 35C113.339 35.1942 112.721 35.0527 112.375 34.6723C112.26 34.547 112.069 34.5316 111.936 34.6354C111.587 34.9088 111.27 35.2219 110.995 35.5653C110.888 35.6989 110.903 35.8924 111.03 36.0073C111.434 36.3737 111.565 36.9567 111.355 37.458C111.154 37.9359 110.658 38.2439 110.089 38.2439C109.905 38.238 109.773 38.3618 109.753 38.5294C109.702 38.9662 109.702 39.4113 109.751 39.8516C109.769 40.0158 109.965 40.1376 110.132 40.1376C110.639 40.1246 111.125 40.4381 111.329 40.9343C111.532 41.4299 111.402 42.0075 111.004 42.3721C110.879 42.4863 110.863 42.6773 110.968 42.8102C111.239 43.1543 111.549 43.4674 111.889 43.7408C112.022 43.8481 112.216 43.833 112.331 43.7057C112.679 43.3209 113.302 43.1786 113.781 43.3797C114.283 43.5896 114.599 44.0968 114.568 44.6416C114.558 44.8127 114.684 44.9617 114.854 44.9813C115.076 45.0072 115.299 45.0201 115.524 45.0201C115.737 45.0201 115.949 45.0084 116.162 44.9848C116.331 44.9662 116.456 44.821 116.45 44.6518C116.431 44.1129 116.751 43.6146 117.246 43.4119C117.725 43.2165 118.34 43.3595 118.686 43.7395C118.801 43.8645 118.991 43.8796 119.125 43.7762C119.473 43.5034 119.79 43.1906 120.066 42.8462C120.174 42.713 120.159 42.5192 120.032 42.4043C119.627 42.0379 119.495 41.4548 119.706 40.9539C119.903 40.4823 120.382 40.1657 120.896 40.1657L120.968 40.1675C121.134 40.1811 121.288 40.0527 121.308 39.8825C121.359 39.4453 121.36 39.0006 121.311 38.5602ZM115.54 41.1575C114.47 41.1575 113.6 40.2876 113.6 39.2181C113.6 38.1487 114.47 37.2787 115.54 37.2787C116.61 37.2787 117.48 38.1487 117.48 39.2181C117.48 40.2876 116.61 41.1575 115.54 41.1575Z" fill="#00AEEF"/>
<path d="M129.263 42.937H159.551" stroke="#00AEEF" stroke-width="2.06204" stroke-linecap="round"/>
<path d="M168.505 81.5266H118.913C117.961 81.5266 117.188 82.2985 117.188 83.2508V97.7633C117.188 98.7156 117.961 99.4876 118.913 99.4876H168.505C169.457 99.4876 170.229 98.7156 170.229 97.7633V83.2508C170.229 82.2985 169.457 81.5266 168.505 81.5266Z" fill="white"/>
<path d="M127.844 94.4584C129.76 94.4584 131.313 92.9144 131.313 91.0099C131.313 89.1053 129.76 87.5613 127.844 87.5613C125.928 87.5613 124.375 89.1053 124.375 91.0099C124.375 92.9144 125.928 94.4584 127.844 94.4584Z" fill="#C60B56"/>
<path opacity="0.517229" d="M136.162 93.1967H162.001" stroke="#C60B56" stroke-width="2.27297" stroke-linecap="round"/>
<path d="M136.162 93.1967H154.618" stroke="#C60B56" stroke-width="2.27297" stroke-linecap="round"/>
<path opacity="0.517229" d="M136.162 88.761H162.001" stroke="#C60B56" stroke-width="2.27297" stroke-linecap="round"/>
<path d="M136.162 88.761H154.618" stroke="#C60B56" stroke-width="2.27297" stroke-linecap="round"/>
<path d="M176.124 26.6381H238.508C239.461 26.6381 240.233 27.41 240.233 28.3623V97.7638C240.233 98.7161 239.461 99.4881 238.508 99.4881H176.124C175.171 99.4881 174.399 98.7161 174.399 97.7638V28.3623C174.399 27.41 175.171 26.6381 176.124 26.6381Z" fill="#FAFAFA"/>
<path d="M207.604 33.3916H183.599C182.646 33.3916 181.874 34.1636 181.874 35.1159V47.042C181.874 47.9943 182.646 48.7663 183.599 48.7663H207.604C208.557 48.7663 209.329 47.9943 209.329 47.042V35.1159C209.329 34.1636 208.557 33.3916 207.604 33.3916Z" fill="#F0F0F0"/>
<path d="M186.834 63.71C189.572 63.71 191.793 61.4906 191.793 58.7528C191.793 56.015 189.572 53.7955 186.834 53.7955C184.095 53.7955 181.875 56.015 181.875 58.7528C181.875 61.4906 184.095 63.71 186.834 63.71Z" fill="#00AEEF"/>
<path d="M232.471 67.5897H183.167C182.453 67.5897 181.874 68.1686 181.874 68.8829V92.8788C181.874 93.593 182.453 94.172 183.167 94.172H232.471C233.185 94.172 233.765 93.593 233.765 92.8788V68.8829C233.765 68.1686 233.185 67.5897 232.471 67.5897Z" fill="#C2C2C2"/>
<path opacity="0.517229" d="M196.104 61.0519H233.046" stroke="#00AEEF" stroke-width="3.03063" stroke-linecap="round"/>
<path d="M196.258 61.1113H222.645" stroke="#00AEEF" stroke-width="3.03063" stroke-linecap="round"/>
<path opacity="0.517229" d="M196.104 56.7412H233.046" stroke="#00AEEF" stroke-width="3.03063" stroke-linecap="round"/>
<path d="M196.104 56.7412H222.491" stroke="#00AEEF" stroke-width="3.03063" stroke-linecap="round"/>
<path d="M193.738 45.2193L196.125 36.8697C196.23 36.5032 196.612 36.2911 196.978 36.3958C196.979 36.3958 196.979 36.3959 196.979 36.3959C197.346 36.501 197.558 36.8833 197.453 37.2501L195.066 45.5997C194.961 45.9662 194.579 46.1784 194.212 46.0736C194.212 46.0736 194.212 46.0735 194.212 46.0735C193.845 45.9684 193.633 45.5861 193.738 45.2193Z" fill="#C60B56"/>
<path d="M191.454 37.7647C191.21 37.4717 190.774 37.4319 190.481 37.6757C190.481 37.6759 190.481 37.6761 190.481 37.6763L186.865 40.6918C186.572 40.9364 186.533 41.3725 186.777 41.666C186.804 41.698 186.833 41.7275 186.865 41.7542L190.481 44.7697C190.774 45.0139 191.209 44.9746 191.453 44.6819C191.454 44.6817 191.454 44.6814 191.454 44.6812C191.698 44.3878 191.659 43.9519 191.365 43.7073L188.387 41.223L191.365 38.7387C191.659 38.494 191.698 38.0582 191.454 37.7647Z" fill="#C60B56"/>
<path d="M204.423 40.7797C204.397 40.7477 204.367 40.7182 204.335 40.6915L200.72 37.676C200.427 37.4318 199.991 37.4711 199.747 37.7638C199.747 37.764 199.747 37.7642 199.747 37.7645C199.502 38.0579 199.542 38.4938 199.835 38.7384L202.814 41.2227L199.835 43.707C199.542 43.9516 199.502 44.3875 199.747 44.681C199.991 44.974 200.426 45.0138 200.719 44.77C200.719 44.7698 200.72 44.7696 200.72 44.7694L204.335 41.7539C204.628 41.5092 204.668 41.0732 204.423 40.7797Z" fill="#C60B56"/>
<g opacity="0.4897">
<path opacity="0.4897" d="M214.519 37.4864H233.62" stroke="#3E6C98" stroke-width="1.70473" stroke-linecap="round"/>
<path opacity="0.4897" d="M214.52 40.3604H222.967" stroke="#3E6C98" stroke-width="1.70473" stroke-linecap="round"/>
<path opacity="0.4897" d="M225.14 40.4317H233.587" stroke="#3E6C98" stroke-width="1.70473" stroke-linecap="round"/>
<path opacity="0.4897" d="M214.504 43.3058H228.538" stroke="#3E6C98" stroke-width="1.70473" stroke-linecap="round"/>
<path opacity="0.4897" d="M214.504 46.1793H233.622" stroke="#3E6C98" stroke-width="1.70473" stroke-linecap="round"/>
</g>
<path d="M168.505 55.9504H106.121C105.168 55.9504 104.396 56.7224 104.396 57.6747V76.4979C104.396 77.4501 105.168 78.2221 106.121 78.2221H168.505C169.458 78.2221 170.23 77.4501 170.23 76.4979V57.6747C170.23 56.7224 169.458 55.9504 168.505 55.9504Z" fill="#4C536C"/>
<path d="M129.263 63.6278H163.765" stroke="white" stroke-width="2.06204" stroke-linecap="round"/>
<path d="M129.263 67.3639H152.527" stroke="white" stroke-width="2.06204" stroke-linecap="round"/>
<path d="M129.263 71.0997H159.551" stroke="white" stroke-width="2.06204" stroke-linecap="round"/>
<path d="M123.098 65.2354C123.267 65.0671 123.267 64.7942 123.098 64.6258L122.451 63.9789C122.305 63.8326 122.075 63.8109 121.904 63.9272L120.543 64.8517L121.462 63.4823C121.577 63.3112 121.555 63.0829 121.409 62.9373L120.005 61.534C119.876 61.4045 119.678 61.3709 119.513 61.4505L119.27 61.5673L119.387 61.3095C119.46 61.1461 119.425 60.9543 119.298 60.8275L118.858 60.3871C118.689 60.2188 118.416 60.2188 118.248 60.3871L114.825 63.8086L119.675 68.6569L123.098 65.2354Z" fill="white"/>
<path d="M114.187 64.4459L113.197 65.4364C113.116 65.5172 113.07 65.6269 113.07 65.7412C113.07 65.8555 113.116 65.9652 113.197 66.046L114.137 66.9855C114.318 67.1665 114.405 67.4164 114.378 67.6709C114.35 67.9253 114.21 68.1502 113.993 68.288C111.231 70.0478 110.974 70.3052 110.889 70.3898C110.282 70.9967 110.282 71.9841 110.889 72.5911C111.497 73.1986 112.485 73.1974 113.092 72.5911C113.176 72.5065 113.434 72.249 115.194 69.4884C115.332 69.2727 115.557 69.133 115.811 69.1051C116.066 69.0772 116.316 69.1646 116.497 69.3452L117.437 70.2847C117.605 70.453 117.878 70.453 118.047 70.2847L119.038 69.2942L114.187 64.4459ZM112.448 71.8948C112.21 72.1328 111.824 72.1328 111.586 71.8948C111.348 71.6569 111.348 71.2711 111.586 71.0332C111.824 70.7952 112.21 70.7952 112.448 71.0332C112.686 71.2711 112.686 71.6569 112.448 71.8948Z" fill="white"/>
<path d="M190.771 211.538C291.965 211.538 373.999 209.901 373.999 207.882C373.999 205.863 291.965 204.226 190.771 204.226C89.5773 204.226 7.54346 205.863 7.54346 207.882C7.54346 209.901 89.5773 211.538 190.771 211.538Z" fill="#2D354C"/>
<path d="M133.224 190.37C133.224 190.37 131.487 196.953 131.205 199.315C130.922 201.677 130.801 201.94 135.082 203.212C139.364 204.484 142.818 205.836 142.717 206.826C142.616 207.815 139.748 207.654 136.436 207.734C133.103 207.815 120.237 208.421 118.137 208.118C116.036 207.795 117.006 204.605 117.713 201.596C118.42 198.608 119.187 193.076 119.187 193.076L133.224 190.37Z" fill="#0094DE"/>
<path d="M86.9521 181.386C86.9521 181.386 80.9131 188.332 78.3077 191.38C75.7022 194.429 73.4199 195.297 76.086 197.377C78.7722 199.457 89.497 207.795 91.9207 208.906C94.3444 209.996 96.2429 209.047 96.1218 208.219C96.0006 207.391 90.7493 200.466 90.8704 198.407C91.6177 196.59 97.374 189.664 98.0001 188.715C98.606 187.746 89.7596 179.508 86.9521 181.386Z" fill="#0094DE"/>
<path d="M110.218 155.158C110.218 155.158 108.138 161.034 103.593 164.486C99.0693 167.939 95.6761 170.301 92.4446 174.602C89.213 178.902 86.7489 181.507 86.7489 181.507C86.7489 181.507 100.786 190.896 101.533 191.38C101.533 191.38 104.058 189.442 104.846 188.029C105.633 186.615 122.66 168.484 124.397 166.627C126.134 164.769 132.516 150.797 132.516 150.797C132.516 150.797 114.096 149.424 110.218 155.158Z" fill="#0C152A"/>
<path d="M54.2727 157.319H134.274V159.984H54.2727V157.319Z" fill="black"/>
<path d="M73.0772 151.766C73.0772 151.766 75.0969 156.289 78.4295 157.339C81.6813 157.521 102 157.541 106.948 157.097C111.876 156.652 123.247 152.695 125.611 154.007C126.681 154.613 125.227 160.307 124.197 166.041C123.187 171.755 119.026 193.157 119.026 193.157C119.026 193.157 136.82 190.976 138.436 190.532C138.739 188.089 139.789 177.146 140.476 172.946C141.162 168.747 142.879 166.425 143.243 164.022C143.606 161.619 143.485 156.531 144.495 151.948C145.505 147.365 146.01 140.884 138.214 136.482C130.438 132.101 100.323 133.009 100.323 133.009C100.323 133.009 72.8752 148.071 73.0772 151.766Z" fill="#2D354C"/>
<path d="M84.791 142.156C78.6106 146.052 72.9957 150.091 73.0967 151.766C73.0967 151.766 75.0962 156.289 78.449 157.339C81.7008 157.521 102.019 157.541 106.947 157.097C111.896 156.652 123.267 152.695 125.61 154.008C125.67 154.048 125.731 154.108 125.792 154.189L125.812 154.169C125.812 154.169 127.731 145.225 102.908 147.708C87.5782 149.243 86.326 145.568 84.791 142.156Z" fill="#0C152A"/>
<path d="M141.505 169.009C139.485 171.573 136.839 176.378 133.769 179.831C130.255 183.788 136.031 182.032 132.881 185C130.861 186.877 128.781 190.047 127.549 192.087C132.355 191.461 137.587 190.754 138.435 190.532C138.738 188.089 139.788 177.146 140.455 172.946C140.717 171.411 141.101 170.119 141.505 169.009Z" fill="#0C152A"/>
<path d="M151.321 101.391C151.927 101.552 151.886 101.916 151.866 102.158L148.009 130.95C147.928 131.394 147.847 131.454 147.443 131.535L124.943 135.069C124.236 135.129 123.671 133.958 124.721 133.716L146.716 130.263L150.493 101.976C150.493 101.976 150.654 101.31 151.321 101.391Z" fill="black"/>
<path d="M83.7612 104.359C84.5489 103.834 85.6396 103.43 87.1342 103.531C87.1342 103.531 92.0219 103.087 93.8599 108.659C95.6979 114.232 97.3742 115.807 99.6161 119.219C101.858 122.652 104.161 126.589 104.161 126.589C104.161 126.589 111.775 122.248 114.461 121.38C114.461 121.38 117.511 125.498 118.662 129.234C119.43 131.737 115.693 133.736 113.128 134.806C115.612 140.278 112.462 143.69 112.462 143.69C110.604 143.69 97.0309 144.276 92.0219 144.356C89.5982 144.397 87.8209 144.074 86.609 143.731L86.5686 143.751C86.5686 143.751 84.4681 144.356 83.1351 146.073C81.802 147.789 80.0853 150.272 77.0355 151.605C73.9857 152.937 71.9861 152.635 71.9861 152.635C72.3295 150.999 72.2285 148.395 70.8147 144.801C69.3807 141.207 68.9565 137.875 69.825 132.646C70.6733 127.417 69.3403 126.245 67.8053 121.804C66.2703 117.362 66.3713 112.395 69.4413 108.619C72.5315 104.843 77.9847 103.309 77.9847 103.309L82.4686 102.461L83.7612 104.359Z" fill="#9396A4"/>
<path d="M86.77 143.771C79.0546 141.025 76.3684 135.634 72.8338 128.063C70.0668 122.106 68.3904 121.703 67.7845 121.803C69.3195 126.225 70.6525 127.416 69.8042 132.646C68.9559 137.875 69.3801 141.186 70.7939 144.78C72.2279 148.374 72.3087 150.979 71.9653 152.634C71.9653 152.634 73.9649 152.958 77.0147 151.605C80.0645 150.272 81.8015 147.789 83.1345 146.073C84.4675 144.356 86.568 143.751 86.568 143.751L86.6085 143.73C86.6488 143.73 86.7094 143.751 86.77 143.771Z" fill="#7C829E"/>
<path d="M114.764 121.803C110.159 126.568 108.907 134.039 104.201 126.71C102.666 124.327 94.9098 117.866 93.3547 115.625C93.3547 115.625 94.0413 116.938 94.2231 118.311C94.3847 119.683 95.3744 121.238 96.5256 122.672C97.6567 124.105 99.7774 128.668 102.484 132.383C102.504 132.404 102.524 132.424 102.544 132.464C105.352 132.565 110.644 132.807 112.078 133.252C112.704 133.453 113.108 134.019 113.39 134.705C115.208 133.938 117.491 132.706 118.379 131.192C118.46 131.031 118.541 130.889 118.601 130.728C118.783 130.263 118.824 129.759 118.662 129.254C117.733 126.225 115.572 122.954 114.764 121.803Z" fill="#7C829E"/>
<path d="M80.4885 114.757C80.4885 114.757 83.4979 123.56 87.1738 128.406C90.8497 133.251 103.13 132.242 106.361 132.827C106.361 132.827 102.685 134.867 100.242 136.341C97.7775 137.794 88.3655 139.975 82.2053 131.091C76.0451 122.227 72.2884 114.535 75.1968 111.87C78.0648 109.204 79.519 112.718 80.4885 114.757Z" fill="url(#paint1_linear)"/>
<path d="M114.501 121.44C114.986 121.198 120.702 118.452 123.388 118.654C126.195 118.876 129.508 120.572 129.609 123.823C129.71 127.073 128.094 125.943 125.246 126.367C122.762 126.73 119.429 129.981 118.722 130.263C118.783 129.94 118.763 129.597 118.662 129.234C117.571 125.761 114.845 121.945 114.501 121.44Z" fill="#D98951"/>
<path d="M112.179 133.312C112.179 133.312 113.997 136.099 114.077 138.764C114.138 141.449 113.088 142.479 113.088 142.479C113.088 142.479 115.451 143.488 117.47 142.176C119.49 140.844 120.601 136.038 122.641 135.19C124.681 134.342 127.327 134.08 126.64 130.203C125.953 126.326 121.025 126.488 117.067 129.436C113.108 132.404 112.542 133.131 112.179 133.312Z" fill="#DF9E66"/>
<path d="M77.2171 103.552C77.2171 103.552 78.025 101.936 78.1664 100.038C78.3078 98.1406 76.7526 97.0503 74.5713 94.5466C72.39 92.043 72.3496 87.1569 75.9851 84.2293C79.6408 81.3016 85.2557 81.3622 87.6592 83.5832C90.0829 85.8041 94.0214 93.8602 92.5671 96.3032C91.1129 98.7463 88.2045 100.24 87.9621 101.048C87.7198 101.856 88.2651 104.945 88.2651 104.945C88.2651 104.945 83.8015 107.024 77.2171 103.552Z" fill="#DF9E66"/>
<path d="M91.9204 97.2517C90.8903 98.4631 89.6381 98.3016 86.8711 97.7363C84.003 97.1709 82.3469 97.5748 83.7809 99.5736C85.2351 101.552 87.9819 102.723 87.9819 102.723C87.9011 102.037 87.8809 101.371 87.9819 101.068C88.1839 100.341 90.3854 99.1294 91.9204 97.2517Z" fill="#D98951"/>
<path d="M78.105 99.1901C77.8021 97.7565 76.4084 96.6461 74.5705 94.5462C72.3891 92.0426 72.3487 87.1565 75.9843 84.2289C79.4178 81.4829 84.6086 81.3618 87.214 83.1991C87.214 83.2193 87.2342 83.2395 87.2342 83.2597C87.4362 84.4308 86.386 84.8548 85.1741 84.875C83.9623 84.8952 83.8613 85.8441 83.9623 87.5199C84.0633 89.1957 83.5987 89.3573 81.7809 89.4986C79.9834 89.6197 78.6705 91.1744 79.3371 92.6887C80.0036 94.203 81.5386 94.5059 81.5386 94.5059C81.0336 97.3123 79.0947 98.6853 78.105 99.1901Z" fill="#1C223C"/>
<rect x="46.9824" y="41.2332" width="50.1063" height="25.5751" rx="6.06125" fill="#FAA61A"/>
<path d="M62.9804 60.178C65.1183 60.178 67.0056 59.1091 68.0078 57.4221L66.0202 56.2697C65.4691 57.2885 64.3166 57.9232 62.9804 57.9232C61.8447 57.9232 60.9261 57.5725 60.2246 56.8543C59.5398 56.1361 59.1891 55.2175 59.1891 54.0984C59.1891 52.9627 59.5398 52.0441 60.2246 51.3259C60.9261 50.6077 61.8447 50.2569 62.9804 50.2569C64.3166 50.2569 65.4356 50.8749 66.0202 51.9272L68.0078 50.7747C67.0056 49.0878 65.1016 48.0189 62.9804 48.0189C61.2267 48.0189 59.7736 48.6034 58.6212 49.7726C57.4688 50.925 56.9009 52.3781 56.9009 54.0984C56.9009 55.8187 57.4688 57.2551 58.6212 58.4243C59.7736 59.5934 61.2267 60.178 62.9804 60.178Z" fill="white"/>
<path d="M73.4155 60.178C74.6681 60.178 75.687 59.8606 76.472 59.226C77.2569 58.5913 77.6578 57.7395 77.6578 56.6538C77.6578 55.9858 77.4741 55.4012 77.2235 55.0003C77.0064 54.5995 76.472 54.1819 76.1212 53.9648C75.9542 53.8479 75.7037 53.731 75.3863 53.6141C75.069 53.4804 74.8184 53.3802 74.6347 53.3301L73.833 53.0629C72.9645 52.7957 72.3799 52.5451 72.0626 52.328C71.762 52.0942 71.6116 51.7935 71.6116 51.4261C71.6116 50.7413 72.1962 50.2569 73.1482 50.2569C74.1671 50.2569 74.9187 50.758 75.3863 51.7601L77.3238 50.6411C76.5221 48.9876 75.0356 48.0189 73.1482 48.0189C72.096 48.0189 71.1774 48.3362 70.4258 48.9709C69.6742 49.5889 69.3068 50.4407 69.3068 51.4929C69.3068 52.5618 69.6909 53.3635 70.4091 53.898C71.144 54.4158 71.7787 54.6663 72.8309 54.9836C73.7829 55.2509 74.4343 55.5014 74.8017 55.7352C75.1692 55.9524 75.3529 56.2697 75.3529 56.6872C75.3529 57.4054 74.7683 57.9232 73.4823 57.9232C72.1461 57.9232 71.2442 57.3219 70.7932 56.1361L68.8224 57.2885C69.4738 59.0756 71.0939 60.178 73.4155 60.178Z" fill="white"/>
<path d="M82.7941 60.178C84.0467 60.178 85.0656 59.8606 85.8506 59.226C86.6356 58.5913 87.0364 57.7395 87.0364 56.6538C87.0364 55.9858 86.8527 55.4012 86.6022 55.0003C86.385 54.5995 85.8506 54.1819 85.4998 53.9648C85.3328 53.8479 85.0823 53.731 84.7649 53.6141C84.4476 53.4804 84.1971 53.3802 84.0133 53.3301L83.2116 53.0629C82.3431 52.7957 81.7586 52.5451 81.4412 52.328C81.1406 52.0942 80.9903 51.7935 80.9903 51.4261C80.9903 50.7413 81.5748 50.2569 82.5269 50.2569C83.5457 50.2569 84.2973 50.758 84.7649 51.7601L86.7024 50.6411C85.9007 48.9876 84.4142 48.0189 82.5269 48.0189C81.4746 48.0189 80.556 48.3362 79.8044 48.9709C79.0528 49.5889 78.6854 50.4407 78.6854 51.4929C78.6854 52.5618 79.0695 53.3635 79.7877 53.898C80.5226 54.4158 81.1573 54.6663 82.2095 54.9836C83.1615 55.2509 83.8129 55.5014 84.1804 55.7352C84.5478 55.9524 84.7315 56.2697 84.7315 56.6872C84.7315 57.4054 84.147 57.9232 82.8609 57.9232C81.5247 57.9232 80.6228 57.3219 80.1719 56.1361L78.201 57.2885C78.8524 59.0756 80.4725 60.178 82.7941 60.178Z" fill="white"/>
<path d="M291.876 57.6363C291.876 57.6363 285.548 52.1712 282.947 49.5688C280.405 46.9375 278.382 43.6122 276.504 39.8243C274.626 36.0652 273.643 38.9857 273.441 41.0387C273.268 43.0917 274.597 45.2604 273.759 46.2146C272.921 47.1688 271.129 47.9206 270.58 49.0483C270.031 50.1761 273.643 51.8532 274.857 52.6339C274.857 52.6339 274.308 54.5712 274.51 55.7568C274.741 56.9423 280.116 63.3615 281.3 64.7784C282.514 66.1953 292.425 61.4531 292.483 60.1519C292.598 58.8796 291.876 57.6363 291.876 57.6363Z" fill="#FAA61A"/>
<path d="M281.907 48.4122C279.827 45.9833 278.151 43.0628 276.533 39.8243C274.655 36.0652 273.672 38.9857 273.47 41.0387C273.297 43.0917 274.626 45.2604 273.788 46.2146C272.95 47.1688 271.158 47.9206 270.609 49.0484C270.06 50.1471 273.586 51.7953 274.828 52.605L274.886 52.6339C274.886 52.6339 276.07 49.4821 277.891 48.6435C279.133 48.123 280.896 48.2676 281.907 48.4122Z" fill="#F6926A"/>
<rect x="253.689" y="18.268" width="66.8084" height="26.097" rx="3.03063" fill="#ED145B"/>
<path d="M271.828 30.335H266.457V24.5311H263.606V39.1454H266.457V33.0909H271.828V39.1454H274.659V24.5311H271.828V30.335Z" fill="white"/>
<path d="M276.271 24.5311V27.2869H280.154V39.1454H283.005V27.2869H286.91V24.5311H276.271Z" fill="white"/>
<path d="M299.718 24.5311L295.587 31.4416L291.434 24.5311H288.501V39.1454H291.352V29.6878L295.421 36.4522H295.752L299.822 29.667V39.1454H302.652V24.5311H299.718Z" fill="white"/>
<path d="M308.197 24.5311H305.346V39.1454H313.713V36.3896H308.197V24.5311Z" fill="white"/>
<path d="M259.746 50.2628C259.746 50.2628 258.821 49.2797 259.341 47.7182C259.833 46.1568 260.786 43.9592 259.486 43.0628C258.186 42.1664 256.423 44.0749 255.383 41.5303C254.314 38.9857 252.696 36.4701 250.037 36.9038C247.408 37.3375 246.425 41.4146 248.477 44.8845C250.529 48.3544 250.615 50.6387 251.049 51.4194C251.482 52.2001 259.746 50.2628 259.746 50.2628Z" fill="#F6926A"/>
<path d="M274.915 52.6919C274.886 52.7787 274.77 53.1835 274.684 53.7329C275.782 54.745 280.231 57.7811 284.508 58.3594C287.715 58.7931 289.969 57.6076 291.038 56.9136C289.189 55.3233 284.97 51.6221 282.976 49.598C282.63 49.2221 282.254 48.8173 281.907 48.4124C280.896 48.2679 279.133 48.1233 277.92 48.7016C276.099 49.5112 274.915 52.663 274.915 52.6919ZM274.857 52.6341H274.886H274.857ZM274.799 52.5763H274.828H274.799ZM274.655 52.4895L274.684 52.5185L274.655 52.4895ZM274.539 52.4317C274.568 52.4606 274.597 52.4606 274.626 52.4895L274.597 52.4606L274.539 52.4317ZM281.85 48.3546H281.878L281.821 48.2968L281.85 48.3546ZM281.763 48.2389L281.792 48.2679L281.763 48.2389ZM281.705 48.1811H281.734L281.705 48.1233V48.1811ZM281.618 48.0655L281.676 48.1233L281.618 48.0655ZM281.589 48.0076L281.561 47.9787L281.589 48.0076ZM281.474 47.892C281.503 47.9209 281.503 47.9498 281.532 47.9498L281.474 47.892ZM281.445 47.8341L281.416 47.8052L281.445 47.8341ZM281.329 47.7185C281.358 47.7474 281.387 47.7763 281.387 47.7763L281.329 47.7185ZM281.301 47.6606L281.329 47.6896L281.272 47.6317L281.301 47.6606ZM281.214 47.545C281.214 47.5739 281.243 47.6028 281.272 47.6028L281.214 47.545ZM281.127 47.4871L281.156 47.545L281.127 47.4871ZM281.098 47.4293L281.041 47.3715L281.098 47.4293ZM280.983 47.2847C281.012 47.3137 281.012 47.3426 281.041 47.3715L280.983 47.2847ZM280.954 47.2558L280.925 47.2269L280.954 47.2558ZM280.838 47.1112C280.867 47.1402 280.896 47.1691 280.896 47.198L280.838 47.1112ZM280.809 47.0534L280.838 47.0823L280.78 47.0245L280.809 47.0534ZM280.723 46.9377C280.752 46.9667 280.752 46.9956 280.78 47.0245L280.723 46.9377Z" fill="#FDD82B"/>
<path d="M303.809 60.6149C303.809 60.6149 302.278 56.2486 304.474 53.5884C306.699 50.9282 311.322 46.2728 306.41 40.8655C301.498 35.4583 295.805 35.5162 292.367 40.5475C288.957 45.5788 287.628 51.333 288.986 52.8366C290.373 54.3402 292.367 55.6992 290.489 59.892C289.275 62.6101 303.809 60.6149 303.809 60.6149Z" fill="#F58B60"/>
<path d="M303.781 54.745C300.862 52.5185 295.488 48.5281 295.17 48.239C294.766 47.8341 294.592 47.9498 294.014 49.1064C293.465 50.2631 292.078 52.7209 290.374 51.8534C289.333 51.3329 288.784 50.8125 288.467 50.4944V50.5522V50.5811V50.639V50.6968V50.7546V50.7835V50.8125V50.8414V50.8992V50.957V50.9859V51.0149V51.0438V51.0727V51.1016V51.1305L288.495 51.1594V51.1884V51.2173V51.2462V51.2751V51.304V51.3329L288.524 51.3619V51.3908V51.4197V51.4486V51.4775L288.553 51.5064V51.5353V51.5643V51.5932L288.582 51.6221V51.651V51.6799V51.7088H288.611V51.7378V51.7667L288.64 51.7956V51.8245V51.8534L288.669 51.8823V51.9112V51.9402L288.698 51.9691V51.998L288.727 52.0269V52.0558L288.756 52.0847V52.1137L288.784 52.1426V52.1715L288.813 52.2004V52.2293L288.842 52.2582V52.2871L288.871 52.3161V52.345L288.9 52.3739L288.929 52.4028V52.4317H288.958H288.987V52.4606C289.276 52.7787 289.565 53.0679 289.854 53.3859C290.72 53.7329 291.876 54.051 293.465 55.0341C295.892 56.5088 295.777 58.5908 295.777 58.5908L300.4 60.3835C302.336 60.3257 303.781 60.2389 303.781 60.2389V60.21C303.781 60.21 303.781 60.1811 303.752 60.1811V60.1522V60.1233L303.723 60.0944V60.0654L303.694 60.0365V60.0076V60.2679H303.665V60.2389V60.21C303.665 60.1811 303.636 60.1811 303.636 60.1522V60.0944L303.607 60.0654V59.9787V59.9498V59.9209L303.578 59.892V59.863V59.8341V59.8052V59.7763V59.7474L303.55 59.7185C303.55 59.6895 303.55 59.6606 303.55 59.6606C303.521 59.6317 303.521 59.6028 303.521 59.5739V59.516L303.492 59.4871C303.492 59.4582 303.492 59.4293 303.492 59.4004C303.492 59.3715 303.463 59.3426 303.463 59.3136V59.2847C303.463 59.2558 303.463 59.2558 303.463 59.2269L303.434 59.198V59.1691V59.1401V59.1112H303.405V59.0823V59.0534V59.0245V58.9956V58.9667L303.376 58.9088V58.8221V58.7932V58.7642V58.7353V58.7064L303.347 58.6775V58.6486V58.6197V58.5908V58.5329C303.347 58.504 303.347 58.504 303.347 58.4751V58.4462L303.318 58.4173V58.3883V58.3594V58.3305V58.3016V58.2727V58.2438V58.2148V58.1859V58.157C303.318 58.1281 303.29 58.1281 303.29 58.0992V58.0703V58.0414V58.0124V57.9835V57.9546V57.9257V57.8968V57.8679V57.8389V57.81V57.7811V57.7522V57.7233V57.6944V57.6365V57.6076L303.261 57.5787V57.5498V57.5209V57.492V57.463V57.4341V57.4052V57.3763V57.3474V57.3185V57.2896C303.261 57.2606 303.261 57.2606 303.261 57.2317V57.2028L303.29 57.1739V57.0871V57.0582V57.0293V57.0004V56.9715V56.9426V56.9136V56.8847V56.8558V56.8269V56.7691V56.7401V56.7112V56.6823V56.6534L303.318 56.6245V56.5956V56.5667V56.5377V56.5088V56.4799V56.451V56.4221V56.3932C303.347 56.3643 303.347 56.3064 303.347 56.2775C303.347 56.2486 303.347 56.2486 303.347 56.2197C303.347 56.1908 303.376 56.1908 303.376 56.1618C303.376 56.1329 303.376 56.0751 303.376 56.0462C303.405 56.0173 303.405 56.0173 303.405 55.9883C303.405 55.9305 303.434 55.8727 303.434 55.8149C303.434 55.7859 303.434 55.7859 303.463 55.757C303.463 55.6992 303.492 55.6414 303.492 55.5835C303.492 55.5546 303.521 55.5546 303.521 55.5257C303.521 55.4968 303.55 55.439 303.55 55.41C303.55 55.3811 303.578 55.3811 303.578 55.3522V55.3233C303.607 55.2655 303.607 55.2076 303.636 55.1787V55.1498L303.665 55.1209C303.665 55.0631 303.694 55.0052 303.723 54.9474H303.752V54.745H303.781Z" fill="#ED6C36"/>
<path d="M306.411 40.8364C306.382 40.7786 306.382 40.7497 306.382 40.6918C305.717 36.4702 300.949 31.381 298.436 33.0003C295.893 34.5907 296.182 37.3087 296.182 37.3087C296.182 37.3666 296.182 37.3955 296.182 37.4244C296.297 38.2919 297.627 40.7497 297.627 40.7497C296.962 41.6461 295.286 44.3063 296.586 44.4509C297.916 44.5954 300.256 45.5208 298.811 47.4581C297.395 49.3665 295.113 48.1521 295.113 48.1521C294.304 51.7376 294.506 54.3689 297.482 54.6002C300.458 54.8316 303.406 55.9014 303.406 55.9014C303.579 55.0918 303.897 54.2822 304.475 53.6171C306.728 50.928 311.323 46.2726 306.411 40.8364Z" fill="#0C0739"/>
<path d="M297.423 191.863C297.423 191.863 295.487 192.441 296.758 195.535C298.03 198.629 299.243 202.619 299.561 203.371C299.821 204.152 288.437 204.846 287.425 206.407C285.923 208.75 304.618 209.125 309.934 209.068C314.066 209.01 319.99 209.501 318.256 206.812C316.551 204.123 313.113 196.258 312.275 194.118C311.437 192.007 297.423 191.863 297.423 191.863Z" fill="#FAA61A"/>
<path d="M249.487 195.361C248.62 198.224 247.898 200.451 247.464 201.838C245.817 206.783 236.918 206.667 233.855 209.183L261.334 209.299L265.812 195.998L249.487 195.361Z" fill="#FAA61A"/>
<path d="M301.354 97.4243C301.354 97.4243 306.237 96.152 305.515 104.538C304.821 112.952 303.145 126.166 300.371 137.096C297.569 147.998 294.939 154.272 299.36 162.6C303.781 170.928 317.333 189.405 319.095 194.234C317.708 196.865 300.14 195.361 296.817 195.506C296.817 195.506 288.727 180.325 285.173 176.133C281.619 171.94 276.331 163.612 276.533 153.752C276.736 143.892 285.577 104.624 285.577 104.624C285.577 104.624 294.91 89.7617 301.354 97.4243Z" fill="#0C152A"/>
<path d="M249.488 195.361L250.702 195.419L265.814 195.998L269.657 196.2C269.657 196.2 275.927 171.506 278.383 163.41C280.81 155.284 283.266 142.851 284.567 136.027C285.925 129.203 293.177 121.338 296.269 113.935C299.418 106.533 300.083 100.952 300.083 100.952L281.128 100.75L277.719 100.721C277.719 100.721 276.274 99.7665 274.742 102.832C273.211 105.897 268.443 121.164 263.242 144.152C259.11 162.484 252.956 183.94 249.488 195.361Z" fill="#2D354C"/>
<path d="M249.488 195.361L250.701 195.419C255.613 191.718 259.601 183.361 260.612 176.104C261.855 167.487 264.946 157.858 268.154 149.414C271.39 140.971 275.406 128.335 276.706 118.388C277.631 111.188 279.943 104.075 281.156 100.721L277.747 100.692C277.747 100.692 276.302 99.7374 274.771 102.802C273.239 105.868 268.472 121.135 263.27 144.123C259.11 162.484 252.955 183.94 249.488 195.361Z" fill="#4C536C"/>
<path d="M307.19 85.8003C307.19 85.8003 312.015 89.01 314.673 86.1184C317.332 83.2269 316.234 76.2293 314.24 70.7931C312.217 65.357 308.461 60.2679 302.162 59.1691C295.892 58.0703 288.119 58.2438 278.786 65.6751C269.453 73.1064 269.858 74.3787 268.182 70.1281C266.506 65.8775 261.681 52.2004 260.987 50.6679C260.265 49.1354 256.942 48.3546 253.677 48.8462C250.441 49.3378 249.4 49.7426 249.834 52.1715C250.238 54.6004 254.659 78.1666 258.704 83.9208C262.75 89.675 268.615 91.1786 272.921 88.1425C277.197 85.1064 282.716 80.6823 282.716 80.6823C282.716 80.6823 279.74 86.5811 278.382 90.1666C276.995 93.7521 275.637 96.0654 275.897 98.0027C276.128 99.9401 275.434 101.386 274.77 102.803L305.629 104.22C305.629 104.22 306.121 99.7376 306.987 97.2798C307.825 94.7642 307.248 87.1594 307.19 85.8003Z" fill="#FAA61A"/>
<path d="M279.913 102.976C279.913 102.976 284.797 92.4505 286.472 87.506C288.177 82.5325 288.553 81.4915 291.153 78.2241C293.725 74.9566 295.748 69.1735 290.922 73.5397C286.299 77.7325 283.467 79.7855 282.08 81.1445C282.514 80.7976 282.745 80.6241 282.745 80.6241C282.745 80.6241 279.769 86.5228 278.411 90.1084C277.024 93.6939 275.666 96.0071 275.926 97.9445C276.157 99.8818 275.464 101.328 274.799 102.744L279.913 102.976Z" fill="#FDD82B"/>
<path d="M295.806 58.6775C290.865 58.8799 285.201 60.557 278.815 65.6751C270.58 72.21 269.945 73.9738 268.76 71.4003C268.644 71.7762 268.644 72.0654 268.731 72.2967C269.974 75.3907 270.927 76.7208 274.857 73.5979C278.758 70.475 288.004 65.1257 293.205 62.5522C296.441 60.9618 296.355 59.545 295.806 58.6775Z" fill="#FDD82B"/>
<path d="M258.127 48.9616C256.827 48.6725 255.237 48.6147 253.706 48.846C250.47 49.3376 249.43 49.7424 249.863 52.1713C250.267 54.6002 254.688 78.1664 258.734 83.9206C260.583 86.5519 262.837 88.3158 265.148 89.1254C266.449 86.0893 262.75 82.2435 260.063 76.6339C256.913 70.0122 257.607 63.9978 258.445 57.9255C258.907 54.3399 258.531 51.0436 258.127 48.9616Z" fill="#FDD82B"/>
<path d="M315.367 85.1063C315.281 85.0484 315.194 85.0484 315.107 85.0484C313.922 85.193 311.091 82.5328 310.253 78.3689C309.473 74.2051 307.392 69.6653 307.45 72.0653C307.479 74.4653 307.219 83.6894 307.19 85.4822C307.19 85.5978 307.19 85.7135 307.19 85.8291C307.508 86.0605 312.073 88.8942 314.645 86.1472C314.934 85.8291 315.165 85.4822 315.367 85.1063Z" fill="#FB7210"/>
<defs>
<linearGradient id="paint0_linear" x1="42.4941" y1="210.495" x2="24.4225" y2="160.721" gradientUnits="userSpaceOnUse">
<stop stop-color="#B2E3FC"/>
<stop offset="1" stop-color="#BBDCEE"/>
</linearGradient>
<linearGradient id="paint1_linear" x1="102.524" y1="138.824" x2="76.1557" y2="118.481" gradientUnits="userSpaceOnUse">
<stop stop-color="#B0B1B6"/>
<stop offset="1" stop-color="#9396A4"/>
</linearGradient>
</defs>
</svg>
