<svg width="425" height="203" viewBox="0 0 425 203" fill="none" xmlns="http://www.w3.org/2000/svg">
<g clip-path="url(#clip0)">
<path d="M165.552 147.173H133.331C124.005 153.708 112.932 157.225 101.315 157.225C87.1781 157.225 73.8586 152.006 63.5115 142.499V166.347V174.084H55.774H30.8594C40.2534 183.183 51.1223 190.286 63.2166 195.187C75.3562 200.111 88.1765 202.607 101.337 202.607C114.498 202.607 127.318 200.111 139.458 195.187C148.943 191.329 157.701 186.133 165.575 179.643V147.173H165.552Z" fill="#FAA61A"/>
<path d="M30.9504 60.4939H63.0807C73.4731 50.7368 86.9969 45.3817 101.315 45.3817C115.633 45.3817 129.111 50.7141 139.504 60.4485V35.9877V28.3182H147.173H171.566C162.217 19.3099 151.416 12.2758 139.413 7.41991C127.273 2.496 114.453 0 101.315 0C88.1768 0 75.3338 2.496 63.1941 7.41991C51.168 12.2985 40.3218 19.3553 30.9277 28.4317V60.4939H30.9504Z" fill="#FAA61A"/>
<path d="M55.7515 166.369V133.853H55.8195C49.035 124.414 45.3817 113.137 45.3817 101.292C45.3817 89.1978 49.1938 77.6935 56.2507 68.1406H30.9503H23.2808V60.4711V36.6911C16.6551 44.6783 11.3227 53.5504 7.41991 63.194C2.496 75.3337 0 88.154 0 101.315C0 114.453 2.496 127.296 7.41991 139.435C11.4135 149.26 16.8366 158.291 23.6212 166.369H55.7515Z" fill="#FAA61A"/>
<path d="M277.895 28.3182H285.633V36.0558V60.2896C296.002 50.646 309.435 45.359 323.663 45.359C338.139 45.359 351.799 50.8275 362.237 60.7888H394.572V28.9762C385.064 19.6503 374.036 12.4119 361.761 7.41991C349.644 2.496 336.823 0 323.685 0C310.547 0 297.704 2.496 285.565 7.41991C273.584 12.2758 262.783 19.3099 253.412 28.3182H277.895Z" fill="#00AEEF"/>
<path d="M417.58 63.194C413.79 53.8454 408.685 45.2229 402.354 37.4626V60.8115V68.5491H394.617H369.044C375.919 78.0112 379.618 89.3793 379.618 101.292C379.618 115.61 374.263 129.111 364.506 139.503V171.588H396.636C405.667 162.217 412.701 151.416 417.58 139.39C422.504 127.25 425 114.43 425 101.269C425 88.1086 422.504 75.3336 417.58 63.194Z" fill="#00AEEF"/>
<path d="M364.506 179.281H356.837V171.611V146.356C347.284 153.413 335.779 157.225 323.685 157.225C312.067 157.225 300.994 153.708 291.668 147.173H259.198V179.439C267.14 186.02 275.989 191.307 285.587 195.187C297.727 200.111 310.547 202.607 323.708 202.607C336.846 202.607 349.689 200.111 361.829 195.187C371.518 191.261 380.412 185.929 388.422 179.258H364.506V179.281Z" fill="#00AEEF"/>
<path d="M244.585 101.315L179.258 35.9877H147.173V68.0726L180.415 101.315L251.438 172.337V147.173V139.435H259.175H282.706L244.585 101.315Z" fill="#FAA61A"/>
<path d="M245.152 35.8969L141.795 139.254H165.054H172.791V147.014V172.428L277.396 67.823V35.8969H245.152Z" fill="#00AEEF"/>
<path d="M73.972 26.8887C73.0417 23.7573 74.6528 20.6487 77.8522 19.6957C79.7809 19.1284 81.7777 19.5595 83.1618 20.8075L81.4146 22.6455C80.6885 21.9647 79.6448 21.7605 78.5556 22.0782C76.6723 22.6455 75.8327 24.2792 76.4 26.1626C76.9672 28.0459 78.5556 28.9535 80.4616 28.4089C81.5508 28.0913 82.3223 27.3198 82.5265 26.3668L84.9998 26.9567C84.546 28.7266 83.1165 30.2015 81.165 30.7915C77.9656 31.7218 74.9024 30.02 73.972 26.8887Z" fill="white"/>
<path d="M85.0676 23.6211C84.6138 20.3763 86.8375 17.54 90.0142 17.1089C93.1682 16.6777 96.0726 18.8107 96.5265 22.0555C96.9803 25.3003 94.7566 28.1366 91.5799 28.5677C88.4031 28.9989 85.4987 26.8659 85.0676 23.6211ZM94.0078 22.3958C93.7355 20.4217 92.1471 19.3099 90.3545 19.5595C88.562 19.8091 87.314 21.3067 87.5863 23.2808C87.8586 25.2549 89.4469 26.3667 91.2395 26.1171C93.0321 25.8675 94.2801 24.3699 94.0078 22.3958Z" fill="white"/>
<path d="M108.258 22.2143C108.19 25.3683 105.808 27.7282 102.744 27.6601L98.2969 27.5693L98.5011 16.4508L102.949 16.5416C106.034 16.6096 108.326 19.0829 108.258 22.2143ZM105.808 22.1689C105.853 20.2629 104.65 19.0376 102.903 18.9922L100.997 18.9468L100.884 25.1641L102.79 25.2095C104.56 25.2549 105.785 24.0749 105.808 22.1689Z" fill="white"/>
<path d="M116.518 26.5937L116.155 29.0216L109.234 28.0005L110.868 16.9954L117.698 18.0165L117.357 20.4217L113.046 19.7864L112.774 21.6017L116.699 22.1916L116.336 24.5742L112.411 23.9842L112.116 25.9356L116.518 26.5937Z" fill="white"/>
<path d="M27.8872 122.009C29.7478 121.351 31.495 122.44 32.1531 124.323L33.6961 128.725L23.2129 132.401L21.7833 128.294C21.1026 126.456 21.7833 124.573 23.5986 123.938C24.4609 123.643 25.2777 123.733 25.9812 124.142C26.1854 123.166 26.8207 122.372 27.8872 122.009ZM24.597 129.202L26.4577 128.544L25.8677 126.842C25.6862 126.297 25.1643 126.07 24.6197 126.252C24.0751 126.434 23.8255 126.933 24.0071 127.5L24.597 129.202ZM28.5452 124.459C27.9553 124.664 27.683 125.208 27.8872 125.798L28.5906 127.818L30.6101 127.114L29.9067 125.095C29.6798 124.505 29.1352 124.255 28.5452 124.459Z" fill="white"/>
<path d="M27.2518 120.92L19.8773 122.463L19.3554 119.967L26.503 118.469C27.3199 118.288 27.9553 117.766 27.6603 116.45C27.388 115.134 26.5938 114.884 25.7769 115.066L18.6293 116.563L18.1074 114.067L25.482 112.524C27.8191 112.025 29.589 113.545 30.0882 115.95C30.6101 118.333 29.589 120.421 27.2518 120.92Z" fill="white"/>
<path d="M17.5854 108.894L28.6359 107.691L28.9082 110.21L17.8577 111.412L17.5854 108.894Z" fill="white"/>
<path d="M25.7993 99.5676L28.25 99.4995L28.4542 106.012L17.3357 106.352L17.2676 103.811L25.9355 103.561L25.7993 99.5676Z" fill="white"/>
<path d="M23.5985 88.381C26.7298 88.676 28.9082 91.2174 28.6359 94.2806L28.2274 98.7053L17.1543 97.6842L17.5627 93.2595C17.835 90.1963 20.4672 88.086 23.5985 88.381ZM23.3716 90.8089C21.4656 90.6274 20.1495 91.7165 19.9907 93.4637L19.8091 95.3698L26.0037 95.9371L26.1853 94.031C26.3441 92.3065 25.2549 90.9904 23.3716 90.8089Z" fill="white"/>
<path d="M99.5456 176.694L96.6866 176.467L95.9831 185.112L93.4418 184.908L94.1452 176.263L91.2861 176.036L91.4904 173.608L99.7271 174.266L99.5456 176.694Z" fill="white"/>
<path d="M107.623 182.707L107.691 185.158L100.702 185.362L100.385 174.243L107.283 174.062L107.351 176.512L102.994 176.626L103.04 178.464L107.011 178.35L107.079 180.756L103.108 180.869L103.153 182.843L107.623 182.707Z" fill="white"/>
<path d="M108.985 182.548L110.982 180.982C111.504 181.845 112.275 182.367 113.501 182.185C114.703 182.026 114.93 181.504 114.862 181.073C114.771 180.392 114.09 180.211 112.389 180.007C110.687 179.78 108.962 179.235 108.667 177.125C108.372 174.992 109.983 173.517 111.889 173.245C113.705 172.995 115.225 173.653 116.269 175.151L114.317 176.694C113.818 175.968 113.251 175.537 112.23 175.695C111.436 175.809 111.095 176.263 111.163 176.694C111.231 177.193 111.549 177.511 113.342 177.783C115.089 178.055 117.04 178.373 117.358 180.687C117.653 182.82 116.133 184.318 113.75 184.658C111.458 184.976 109.825 184.068 108.985 182.548Z" fill="white"/>
<path d="M124.483 173.222L121.714 173.926L123.87 182.321L121.419 182.957L119.264 174.561L116.495 175.264L115.883 172.904L123.893 170.84L124.483 173.222Z" fill="white"/>
<path d="M400.766 82.0275C403.988 81.4829 406.893 83.6159 407.437 86.7699C407.982 89.924 405.917 92.8965 402.695 93.441C399.473 93.9856 396.569 91.8527 396.024 88.6986C395.479 85.5446 397.544 82.5721 400.766 82.0275ZM402.264 90.9224C404.215 90.582 405.282 88.9709 404.987 87.1784C404.692 85.3858 403.149 84.2059 401.197 84.5235C399.246 84.8412 398.18 86.4749 398.475 88.2675C398.77 90.0828 400.29 91.2627 402.264 90.9224Z" fill="white"/>
<path d="M404.646 103.357C402.536 103.402 400.788 101.746 400.743 99.5449L400.698 97.8884L397.203 97.9792L397.135 95.4378L408.254 95.1882L408.345 99.386C408.413 101.564 406.756 103.312 404.646 103.357ZM404.578 100.816C405.395 100.793 405.985 100.203 405.985 99.4314L405.939 97.775L403.08 97.8431L403.126 99.4995C403.148 100.271 403.784 100.838 404.578 100.816Z" fill="white"/>
<path d="M399.042 111.684L396.614 111.458L397.249 104.491L408.322 105.513L407.687 112.388L405.259 112.161L405.667 107.804L403.829 107.645L403.466 111.594L401.061 111.367L401.424 107.419L399.473 107.237L399.042 111.684Z" fill="white"/>
<path d="M399.223 116.994L399.473 115.814L395.91 115.043L396.455 112.569L407.324 114.907L406.394 119.263C405.94 121.328 403.92 122.622 401.855 122.19C400.517 121.895 399.473 120.829 399.132 119.513L394.64 120.965L395.207 118.288L399.223 116.994ZM401.651 116.268L401.243 118.129C401.107 118.809 401.583 119.49 402.377 119.672C403.171 119.853 403.898 119.422 404.034 118.741L404.442 116.881L401.651 116.268Z" fill="white"/>
<path d="M393.801 128.453L395.207 124.573L393.755 123.461L394.708 120.852L403.875 128.203L402.763 131.244L391.032 130.994L391.985 128.385L393.801 128.453ZM396.319 128.566L400.608 128.748L397.227 126.139L396.319 128.566Z" fill="white"/>
<path d="M395.366 141.387L396.659 138.823L388.922 134.92L390.056 132.651L397.794 136.554L399.087 133.99L401.266 135.079L397.544 142.453L395.366 141.387Z" fill="white"/>
<path d="M385.382 145.358L383.34 144.019L387.152 138.165L396.455 144.246L392.688 150.032L390.646 148.693L393.029 145.04L391.486 144.042L389.308 147.377L387.288 146.061L389.466 142.726L387.81 141.659L385.382 145.358Z" fill="white"/>
<path d="M317.604 22.1916C318.058 25.3003 316.106 28.0232 313.066 28.477L308.664 29.1124L307.053 18.1073L311.455 17.4719C314.473 17.0408 317.15 19.083 317.604 22.1916ZM315.176 22.5547C314.904 20.6714 313.52 19.6503 311.795 19.8999L309.912 20.1722L310.819 26.3441L312.703 26.0718C314.427 25.7995 315.448 24.438 315.176 22.5547Z" fill="white"/>
<path d="M326.454 25.1641L326.499 27.6147L319.511 27.7282L319.329 16.6097L326.227 16.4962L326.273 18.9468L321.916 19.0149L321.939 20.8529L325.909 20.7848L325.955 23.19L321.984 23.2581L322.007 25.2322L326.454 25.1641Z" fill="white"/>
<path d="M336.392 21.1932C336.188 23.3035 334.327 24.8238 332.149 24.5969L330.492 24.438L330.152 27.9097L327.633 27.6601L328.722 16.587L332.92 16.9954C335.076 17.2223 336.619 19.083 336.392 21.1932ZM333.873 20.9436C333.964 20.1268 333.442 19.4687 332.671 19.378L331.014 19.2191L330.742 22.0555L332.398 22.2143C333.17 22.3051 333.783 21.7378 333.873 20.9436Z" fill="white"/>
<path d="M343.517 27.6601L342.995 30.0426L336.619 28.6812L338.956 17.8123L341.452 18.3341L339.637 26.8205L343.517 27.6601Z" fill="white"/>
<path d="M344.561 24.5969C345.65 21.5109 348.918 19.9906 351.936 21.0344C354.953 22.0782 356.564 25.3003 355.498 28.409C354.409 31.4949 351.141 33.0152 348.123 31.9714C345.106 30.9276 343.472 27.6829 344.561 24.5969ZM353.07 27.5694C353.728 25.6861 352.82 23.9842 351.096 23.3716C349.394 22.7816 347.602 23.5531 346.944 25.4138C346.285 27.2744 347.193 28.9989 348.918 29.6116C350.642 30.2242 352.412 29.43 353.07 27.5694Z" fill="white"/>
<path d="M360.535 32.516L358.584 36.3054L356.315 35.1481L358.266 31.3588L358.085 23.5531L360.649 24.8692L360.558 29.6569L364.393 26.7979L366.957 28.114L360.535 32.516Z" fill="white"/>
<path d="M287.403 177.148L285.179 175.9L288.356 170.272L283.522 172.973L283.273 172.836L283.091 167.322L279.915 172.95L277.691 171.702L283.182 162.013L285.406 163.261L285.61 169.047L290.67 166.233L292.894 167.481L287.403 177.148Z" fill="white"/>
<path d="M291.623 173.018C292.735 169.932 296.026 168.48 299.043 169.569C302.039 170.658 303.627 173.903 302.492 176.989C301.381 180.075 298.09 181.527 295.073 180.438C292.077 179.349 290.512 176.104 291.623 173.018ZM300.11 176.104C300.791 174.243 299.906 172.519 298.204 171.883C296.502 171.271 294.709 172.019 294.029 173.88C293.348 175.741 294.233 177.465 295.935 178.101C297.637 178.736 299.429 177.987 300.11 176.104Z" fill="white"/>
<path d="M313.769 173.585L311.568 184.477L309.707 184.091L306.69 177.329L305.51 183.251L303.014 182.752L305.215 171.861L307.075 172.246L310.093 179.008L311.273 173.086L313.769 173.585Z" fill="white"/>
<path d="M317.786 173.925L316.651 184.976L314.133 184.726L315.267 173.676L317.786 173.925Z" fill="white"/>
<path d="M326.748 176.671L323.889 176.626L323.73 185.294L321.189 185.248L321.348 176.58L318.489 176.535L318.534 174.084L326.794 174.243L326.748 176.671Z" fill="white"/>
<path d="M326.862 179.893C326.499 176.648 328.813 173.857 331.99 173.517C335.167 173.177 338.003 175.4 338.366 178.645C338.729 181.89 336.415 184.681 333.238 185.021C330.061 185.362 327.202 183.138 326.862 179.893ZM335.825 178.917C335.62 176.943 334.055 175.786 332.239 175.99C330.424 176.194 329.153 177.647 329.38 179.621C329.585 181.595 331.15 182.752 332.966 182.548C334.781 182.344 336.052 180.891 335.825 178.917Z" fill="white"/>
<path d="M344.039 179.144L342.859 179.439L343.767 182.979L341.316 183.614L338.548 172.836L342.859 171.724C344.901 171.203 346.966 172.428 347.511 174.47C347.851 175.786 347.352 177.193 346.331 178.101L349.644 181.459L346.989 182.14L344.039 179.144ZM342.315 177.284L344.152 176.807C344.833 176.626 345.219 175.9 345.037 175.105C344.833 174.311 344.13 173.857 343.449 174.039L341.611 174.515L342.315 177.284Z" fill="white"/>
<path d="M94.4848 99.8398C94.4848 108.825 87.8137 115.723 79.055 115.723H66.3481V83.9562H79.055C87.8137 83.9562 94.4848 90.8542 94.4848 99.8398ZM87.496 99.8398C87.496 94.394 84.047 90.945 79.055 90.945H73.6092V108.735H79.055C84.047 108.735 87.496 105.286 87.496 99.8398Z" fill="#00AEEF"/>
<path d="M109.87 110.278C111.73 110.278 113.319 109.552 114.226 108.553L119.672 111.685C117.448 114.771 114.09 116.359 109.779 116.359C102.018 116.359 97.208 111.14 97.208 104.378C97.208 97.6162 102.109 92.3973 109.28 92.3973C115.905 92.3973 120.807 97.5255 120.807 104.378C120.807 105.331 120.716 106.239 120.534 107.101H104.424C105.286 109.461 107.374 110.278 109.87 110.278ZM114.045 102.018C113.319 99.3861 111.276 98.4331 109.234 98.4331C106.647 98.4331 104.923 99.7038 104.288 102.018H114.045Z" fill="#00AEEF"/>
<path d="M145.766 93.0325L137.37 115.723H129.655L121.26 93.0325H128.793L133.513 107.418L138.233 93.0325H145.766Z" fill="#00AEEF"/>
<path d="M196.867 120.965L196.004 121.827L198.591 124.414L196.799 126.206L188.925 118.333L192.079 115.179C193.576 113.681 195.982 113.681 197.479 115.179C198.455 116.154 198.727 117.607 198.319 118.9L202.88 120.103L200.951 122.031L196.867 120.965ZM194.439 120.261L195.777 118.923C196.277 118.423 196.231 117.584 195.664 117.017C195.097 116.449 194.257 116.404 193.758 116.903L192.419 118.219L194.439 120.261Z" fill="white"/>
<path d="M206.919 112.615L208.644 114.339L203.697 119.286L195.823 111.435L200.702 106.556L202.426 108.281L199.34 111.367L200.634 112.66L203.447 109.846L205.149 111.548L202.336 114.362L203.72 115.746L206.919 112.615Z" fill="white"/>
<path d="M212.523 107.01L214.248 108.735L209.641 113.341L201.768 105.467L203.56 103.674L209.687 109.801L212.523 107.01Z" fill="white"/>
<path d="M218.241 101.292L219.966 103.016L215.019 107.963L207.168 100.089L212.047 95.2107L213.771 96.9352L210.685 100.021L211.978 101.315L214.792 98.5009L216.494 100.203L213.68 103.016L215.064 104.4L218.241 101.292Z" fill="white"/>
<path d="M224.482 96.0503L221.554 98.9774L222.394 100.611L220.42 102.585L215.224 92.0567L217.515 89.7649L228.044 94.9611L226.07 96.9352L224.482 96.0503ZM222.258 94.893L218.446 92.9189L220.42 96.731L222.258 94.893Z" fill="white"/>
<path d="M226.387 93.0324L227.046 90.5818C227.976 90.9449 228.906 90.8995 229.791 90.0145C230.653 89.1523 230.517 88.6077 230.222 88.3127C229.746 87.8362 229.088 88.0858 227.59 88.9481C226.093 89.7876 224.391 90.3776 222.893 88.88C221.373 87.3597 221.781 85.2041 223.143 83.8426C224.436 82.5492 226.07 82.1635 227.794 82.7308L227.159 85.136C226.319 84.841 225.616 84.8637 224.89 85.5898C224.323 86.1571 224.323 86.7244 224.64 87.0193C225.003 87.3824 225.434 87.4278 227.023 86.5882C228.566 85.7487 230.336 84.841 231.992 86.4975C233.512 88.0177 233.195 90.128 231.493 91.8298C229.837 93.4862 227.999 93.7358 226.387 93.0324Z" fill="white"/>
<path d="M238.3 81.2331L240.025 82.9576L235.078 87.9042L227.205 80.0305L232.083 75.152L233.808 76.8765L230.722 79.9624L232.015 81.2558L234.829 78.4422L236.531 80.144L233.717 82.9576L235.101 84.3418L238.3 81.2331Z" fill="white"/>
<path d="M170.772 56.5002C169.274 57.9978 166.869 57.9978 165.326 56.4548L164.146 55.2749L161.672 57.7482L159.88 55.9556L167.754 48.0819L170.726 51.0544C172.269 52.6201 172.269 55.0026 170.772 56.5002ZM168.979 54.7076C169.546 54.1404 169.592 53.3008 169.024 52.7335L167.844 51.5536L165.825 53.5731L167.005 54.753C167.572 55.3203 168.412 55.2749 168.979 54.7076Z" fill="white"/>
<path d="M172.836 65.4404L171.112 67.1649L166.505 62.5587L174.379 54.6849L176.172 56.4775L170.045 62.604L172.836 65.4404Z" fill="white"/>
<path d="M177.965 71.567L175.038 68.6398L173.404 69.4794L171.43 67.5053L181.958 62.3091L184.25 64.6009L179.054 75.1294L177.08 73.1553L177.965 71.567ZM179.099 69.3433L181.073 65.5312L177.261 67.5053L179.099 69.3433Z" fill="white"/>
<path d="M193.802 74.1309L185.929 82.0046L184.59 80.6659L185.815 73.3594L181.549 77.6253L179.757 75.8327L187.631 67.959L188.969 69.2977L187.744 76.6042L192.01 72.3383L193.802 74.1309Z" fill="white"/>
<path d="M278.757 99.8399C278.757 90.4912 286.155 83.3209 295.276 83.3209C304.398 83.3209 311.795 90.4912 311.795 99.8399C311.795 109.189 304.398 116.359 295.276 116.359C286.155 116.359 278.757 109.189 278.757 99.8399ZM304.534 99.8399C304.534 94.1672 300.45 90.4005 295.276 90.4005C290.103 90.4005 286.018 94.1672 286.018 99.8399C286.018 105.513 290.103 109.279 295.276 109.279C300.45 109.279 304.534 105.513 304.534 99.8399Z" fill="#FAA61A"/>
<path d="M340.068 104.378C340.068 111.14 335.167 116.359 329.221 116.359C326.181 116.359 323.957 115.315 322.46 113.59V124.8H315.652V93.0326H322.46V95.1655C323.957 93.441 326.181 92.3972 329.221 92.3972C335.167 92.3972 340.068 97.6161 340.068 104.378ZM333.26 104.378C333.26 100.974 330.991 98.8414 327.86 98.8414C324.729 98.8414 322.46 100.974 322.46 104.378C322.46 107.782 324.729 109.915 327.86 109.915C330.991 109.915 333.26 107.782 333.26 104.378Z" fill="#FAA61A"/>
<path d="M361.08 108.916C361.08 114.135 356.542 116.359 351.64 116.359C347.102 116.359 343.653 114.634 341.883 110.958L347.783 107.6C348.373 109.325 349.644 110.278 351.64 110.278C353.274 110.278 354.091 109.778 354.091 108.871C354.091 106.375 342.927 107.691 342.927 99.8398C342.927 94.8932 347.102 92.3972 351.822 92.3972C355.498 92.3972 358.765 94.031 360.671 97.2531L354.862 100.384C354.227 99.2045 353.32 98.3876 351.822 98.3876C350.642 98.3876 349.916 98.8414 349.916 99.6583C349.916 102.245 361.08 100.521 361.08 108.916Z" fill="#FAA61A"/>
</g>
<defs>
<clipPath id="clip0">
<rect width="425" height="202.629" fill="white"/>
</clipPath>
</defs>
</svg>
