<svg width="14" height="26" viewBox="0 0 14 26" fill="none" xmlns="http://www.w3.org/2000/svg">
                        <path d="M13.3177 0.0326512L10.0975 0.0273438C6.4798 0.0273438 4.14187 2.49131 4.14187 6.30496V9.19936H0.904164C0.624387 9.19936 0.397827 9.43236 0.397827 9.71976V13.9134C0.397827 14.2008 0.624645 14.4335 0.904164 14.4335H4.14187V25.0155C4.14187 25.3029 4.36843 25.5356 4.64821 25.5356H8.8725C9.15228 25.5356 9.37884 25.3026 9.37884 25.0155V14.4335H13.1645C13.4443 14.4335 13.6708 14.2008 13.6708 13.9134L13.6724 9.71976C13.6724 9.58176 13.6189 9.44961 13.5241 9.35195C13.4293 9.2543 13.3001 9.19936 13.1658 9.19936H9.37884V6.74574C9.37884 5.56643 9.65241 4.96776 11.1479 4.96776L13.3172 4.96696C13.5967 4.96696 13.8232 4.73396 13.8232 4.44683V0.552778C13.8232 0.265912 13.5969 0.0331819 13.3177 0.0326512Z" fill="#DEDEDE"/>
                      </svg>