<svg width="25" height="23" viewBox="0 0 25 23" fill="none" xmlns="http://www.w3.org/2000/svg">
                      <path d="M5.52327 23H0.500017V7.75904H5.52327V23ZM3.01164 5.54217C1.33723 5.54217 0.220947 4.43374 0.220947 2.77108C0.220947 1.38554 1.33723 0 3.01164 0C4.68606 0 5.80234 1.10843 5.80234 2.77108C5.80234 4.43374 4.96513 5.54217 3.01164 5.54217ZM24.2209 23H18.9186V14.6867C18.9186 12.747 18.3605 11.3614 16.407 11.3614C15.0116 11.3614 14.1744 12.1928 13.8954 13.3012C13.8954 13.5783 13.6163 14.1325 13.6163 14.4096V23H8.59304C8.59304 23 8.59304 9.14458 8.59304 7.75904H13.6163V9.9759C14.1744 8.86747 15.5698 7.20482 18.3605 7.20482C21.7093 7.20482 24.2209 9.42169 24.2209 14.1325V23Z" fill="#DEDEDE"/>
                      </svg>