<svg width="337" height="122" viewBox="0 0 337 122" fill="none" xmlns="http://www.w3.org/2000/svg">
<path d="M42.25 72.6201C37.01 72.6201 31.78 72.6401 26.54 72.6001C25.6 72.5901 25.35 72.7701 25.73 73.7101C31.36 87.62 41.53 95.83 56.42 98.05C59.23 98.47 59.25 98.37 59.25 101.29C59.25 107.6 59.25 113.92 59.25 120.23C59.25 122.14 59.35 121.85 57.62 121.75C44.62 120.99 32.95 116.65 22.84 108.45C9.73 97.83 2.05 84.07 0.36 67.3001C-1.52 48.7001 4.05 32.3901 16.93 18.7901C27.16 7.9901 39.86 1.9601 54.63 0.280105C55.86 0.140105 57.1 0.120104 58.33 0.0101041C58.97 -0.0498959 59.25 0.120104 59.25 0.840104C59.23 8.1101 59.22 15.3801 59.26 22.6601C59.26 23.5201 58.78 23.5201 58.21 23.5601C52.96 23.9701 47.99 25.3501 43.36 27.8601C35.1 32.3501 29.26 38.9901 25.88 47.7701C25.31 49.2401 25.33 49.2501 26.86 49.2501C37.09 49.2501 47.33 49.2501 57.56 49.2501C59.24 49.2501 59.24 49.2501 59.24 50.9301C59.24 57.7601 59.22 64.6001 59.26 71.4301C59.26 72.3501 59.04 72.6501 58.07 72.6401C52.8 72.5901 47.52 72.6201 42.25 72.6201Z" fill="#5D5D5D"/>
<path d="M62.64 71.4505C62.64 68.6505 62.66 65.8606 62.63 63.0606C62.62 62.3006 62.84 61.9905 63.65 62.0105C65.21 62.0605 66.77 61.9806 68.33 62.0406C69.19 62.0706 69.3 61.6606 69.31 60.9506C69.31 60.2106 69.24 59.7305 68.3 59.7605C66.74 59.8205 65.18 59.7505 63.62 59.7805C62.9 59.7905 62.64 59.5205 62.64 58.8005C62.66 53.1305 62.66 47.4505 62.64 41.7805C62.64 41.1205 62.87 40.8705 63.54 40.8505C68.85 40.6905 74.15 40.2905 79.39 39.3505C80.2 39.2005 80.21 39.7805 80.33 40.2605C80.98 42.8605 81.5 45.4805 81.9 48.1205C82.07 49.2105 82.9 49.6505 83.92 49.2205C84.52 48.9605 84.22 48.4405 84.17 48.0705C83.78 45.3805 83.32 42.7005 82.58 40.0905C82.28 39.0505 82.55 38.7505 83.55 38.5505C88.06 37.6505 92.48 36.4005 96.78 34.7805C97.64 34.4505 98.01 34.5805 98.39 35.4405C100.52 40.2505 102.03 45.2405 102.87 50.4305C103.05 51.5305 103.26 51.4105 104.05 50.8805C104.87 50.3305 105.09 49.8405 104.9 48.8505C103.94 43.8905 102.47 39.0905 100.38 34.5005C100.06 33.7905 100.12 33.5005 100.86 33.2005C104.41 31.7405 107.85 30.0405 111.14 28.0605C111.8 27.6605 112.12 27.7305 112.54 28.4005C116.92 35.3905 119.8 42.9505 121.12 51.1005C121.52 53.5805 121.75 56.0905 121.87 58.6005C121.92 59.6105 121.55 59.8505 120.66 59.8005C119.74 59.7505 118.82 59.8105 117.9 59.7805C117.34 59.7605 117.05 59.9105 116.92 60.5305C116.6 62.0405 116.56 62.0306 118.13 62.0406C119.05 62.0406 119.97 62.0805 120.89 62.0305C121.69 61.9805 121.9 62.2805 121.87 63.0705C121.69 68.4105 120.81 73.6206 119.26 78.731C117.68 83.921 115.42 88.791 112.57 93.391C112.13 94.101 111.81 94.191 111.1 93.751C107.92 91.831 104.59 90.171 101.16 88.751C100.31 88.401 100.21 88.061 100.57 87.261C102.67 82.621 104.07 77.7505 104.99 72.7505C105.26 71.2605 105.06 71.0805 103.57 71.2005C102.67 71.2705 102.84 71.9605 102.76 72.4205C102.13 75.9205 101.23 79.361 100 82.701C99.5 84.051 98.9 85.361 98.4 86.701C98.16 87.351 97.83 87.411 97.23 87.191C92.67 85.461 87.98 84.151 83.2 83.181C82.45 83.031 82.34 82.741 82.52 82.051C83.39 78.641 84.04 75.1905 84.44 71.7005C84.49 71.2405 84.88 70.4706 83.85 70.5106C83.13 70.5306 82.33 70.1506 82.19 71.5106C81.84 74.8406 81.18 78.131 80.4 81.401C80.19 82.271 79.88 82.581 78.95 82.411C73.98 81.541 68.98 81.081 63.93 81.021C62.99 81.011 62.61 80.761 62.63 79.731C62.69 76.9706 62.64 74.2105 62.64 71.4505Z" fill="#5D5D5D"/>
<path d="M324.341 51.0602C323.591 53.4002 322.871 55.7602 322.071 58.0802C319.231 66.3502 316.361 74.6002 313.541 82.87C313.251 83.71 312.861 83.97 312.011 83.94C310.251 83.88 308.491 83.87 306.741 83.94C305.791 83.98 305.351 83.7 305.031 82.76C301.491 72.3302 297.631 62.0102 294.281 51.5202C294.231 51.3802 294.161 51.2402 293.901 51.1102C293.721 52.9002 293.571 54.6902 293.351 56.4702C292.351 64.7502 291.361 73.0402 290.321 81.32C289.991 83.94 289.941 83.93 287.301 83.93C286.101 83.93 284.901 83.91 283.701 83.94C283.061 83.95 282.781 83.83 282.891 83.07C284.101 74.3702 285.281 65.6702 286.471 56.9702C287.301 50.8802 288.161 44.7902 288.961 38.7002C289.061 37.9102 289.291 37.6002 290.121 37.6202C292.001 37.6802 293.881 37.6802 295.751 37.6202C296.541 37.5902 296.861 37.8902 297.101 38.6002C301.111 50.6402 305.551 62.5402 309.321 74.6602C309.391 74.8802 309.361 75.1502 309.651 75.2802C309.991 75.1402 309.951 74.7702 310.041 74.5002C313.891 62.4102 318.351 50.5202 322.421 38.5002C322.621 37.8902 322.911 37.6002 323.611 37.6202C325.571 37.6702 327.531 37.6602 329.491 37.6202C330.211 37.6102 330.431 37.8602 330.521 38.5602C332.181 50.8602 333.871 63.1602 335.551 75.4702C335.891 77.9602 336.201 80.46 336.591 82.94C336.701 83.64 336.651 83.97 335.821 83.95C333.701 83.91 331.581 83.92 329.471 83.94C328.891 83.94 328.631 83.76 328.561 83.14C327.541 75.0202 326.501 66.9002 325.471 58.7802C325.141 56.2202 324.841 53.6502 324.521 51.0802C324.471 51.0702 324.411 51.0602 324.341 51.0602Z" fill="#5D5D5D"/>
<path d="M168.529 83.92C164.609 83.92 160.699 83.9 156.779 83.94C155.909 83.95 155.609 83.72 155.609 82.81C155.639 68.1096 155.629 53.3996 155.609 38.6996C155.609 37.8896 155.819 37.5996 156.679 37.5996C164.429 37.6296 172.189 37.6296 179.939 37.5996C180.729 37.5996 181.099 37.7596 181.059 38.6496C180.999 40.1296 180.989 41.6096 181.059 43.0796C181.099 44.0196 180.689 44.2096 179.849 44.2096C174.889 44.1796 169.939 44.1996 164.979 44.1996C163.439 44.1996 163.439 44.1996 163.439 45.7896C163.439 48.9896 163.469 52.1796 163.429 55.3796C163.419 56.2596 163.689 56.5496 164.589 56.5396C168.989 56.4996 173.379 56.5396 177.779 56.4996C178.659 56.4896 178.989 56.7096 178.939 57.6296C178.859 58.8996 178.859 60.1896 178.939 61.4596C179.009 62.4896 178.739 62.8296 177.639 62.8096C173.319 62.7396 169.009 62.8096 164.689 62.7596C163.679 62.7496 163.409 63.0496 163.419 64.0396C163.469 68.0296 163.479 72.0296 163.419 76.0296C163.399 77.1796 163.809 77.4096 164.859 77.3996C169.979 77.3496 175.089 77.4096 180.209 77.3496C181.279 77.3396 181.609 77.6496 181.539 78.7C181.449 80.05 181.469 81.42 181.529 82.77C181.569 83.65 181.299 83.95 180.389 83.94C176.439 83.9 172.479 83.92 168.529 83.92Z" fill="#5D5D5D"/>
<path d="M211.999 36.7799C216.349 36.7499 220.489 37.5499 224.309 39.7399C225.099 40.1899 225.319 40.5499 224.729 41.3599C223.799 42.6499 222.949 44.0099 222.139 45.3899C221.739 46.0799 221.409 46.1099 220.749 45.7199C216.939 43.4599 212.799 42.8599 208.499 43.6599C203.639 44.5599 200.279 47.5199 198.419 52.0099C195.869 58.1599 196.049 64.3699 198.959 70.3499C201.679 75.9299 207.159 78.71 213.419 78.06C216.509 77.7399 219.369 76.8499 221.859 74.9699C222.569 74.4299 222.839 74.6699 223.209 75.2899C223.959 76.5599 224.709 77.8399 225.549 79.05C226.069 79.8 225.899 80.21 225.209 80.69C221.609 83.22 217.559 84.41 213.219 84.72C199.749 85.67 189.219 76.3299 188.479 62.8299C188.179 57.4399 189.019 52.2999 191.809 47.6299C196.119 40.4299 202.669 37.0899 210.919 36.7999C211.279 36.7699 211.639 36.7799 211.999 36.7799Z" fill="#5D5D5D"/>
<path d="M96.871 89.801C96.761 90.021 96.641 90.281 96.511 90.521C92.811 97.461 87.971 103.501 82.081 108.711C81.631 109.111 81.261 109.201 80.701 108.951C78.371 107.901 75.971 107.041 73.491 106.391C72.861 106.221 72.651 106.041 73.041 105.361C76.601 99.231 79.381 92.761 81.421 85.971C81.621 85.321 81.921 85.191 82.541 85.321C87.201 86.281 91.761 87.561 96.231 89.201C96.491 89.301 96.891 89.311 96.871 89.801Z" fill="#5D5D5D"/>
<path d="M82.09 36.5802C81.43 36.6502 81.5 36.0402 81.39 35.6902C80.29 32.0602 78.96 28.5102 77.42 25.0402C76.16 22.1902 74.78 19.4002 73.19 16.7202C72.75 15.9702 72.68 15.6102 73.68 15.3602C75.97 14.8002 78.18 13.9802 80.34 13.0202C80.91 12.7702 81.31 12.7402 81.82 13.2102C87.72 18.4702 92.61 24.5302 96.39 31.4702C96.62 31.8902 97.06 32.3202 96.17 32.6402C91.66 34.2702 87.06 35.5702 82.35 36.5202C82.28 36.5302 82.2 36.5502 82.09 36.5802Z" fill="#5D5D5D"/>
<path d="M62.64 27.82C62.64 24.67 62.67 21.51 62.62 18.36C62.6 17.43 62.91 17.11 63.83 17.07C65.74 17 67.65 16.74 69.52 16.34C70.06 16.23 70.41 16.31 70.71 16.82C74.28 22.99 77.15 29.46 79.23 36.28C79.44 36.95 79.21 37.1 78.62 37.19C73.65 38 68.65 38.44 63.61 38.57C62.77 38.59 62.63 38.23 62.63 37.5C62.66 34.29 62.64 31.06 62.64 27.82Z" fill="#5D5D5D"/>
<path d="M62.639 93.84C62.639 90.68 62.669 87.53 62.619 84.37C62.609 83.51 62.809 83.15 63.749 83.19C68.739 83.42 73.709 83.78 78.649 84.59C79.319 84.7 79.389 84.94 79.209 85.55C77.149 92.34 74.299 98.78 70.739 104.92C70.449 105.42 70.109 105.56 69.569 105.46C67.529 105.07 65.469 104.77 63.389 104.71C62.589 104.69 62.629 104.19 62.639 103.66C62.649 100.39 62.639 97.11 62.639 93.84Z" fill="#5D5D5D"/>
<path d="M83.42 11.6C85.67 10.39 87.74 9.19 89.64 7.72C90.23 7.27 90.6 7.65 91.03 7.89C97.41 11.52 102.97 16.14 107.69 21.77C108.56 22.81 109.35 23.92 110.21 24.97C110.63 25.49 110.63 25.8 109.99 26.16C106.7 28.05 103.3 29.72 99.82 31.23C98.89 31.63 98.71 31.03 98.42 30.48C95.17 24.42 91.03 19.02 86.15 14.18C85.29 13.35 84.41 12.54 83.42 11.6Z" fill="#5D5D5D"/>
<path d="M99.389 90.451C99.639 90.551 99.859 90.631 100.079 90.721C103.429 92.131 106.669 93.771 109.839 95.561C110.629 96.011 110.579 96.341 110.089 97.001C104.889 103.991 98.529 109.651 90.959 113.971C90.429 114.271 90.009 114.421 89.449 113.981C87.879 112.741 86.179 111.691 84.399 110.781C83.669 110.401 83.819 110.141 84.309 109.701C90.179 104.351 95.009 98.191 98.719 91.161C98.879 90.871 98.909 90.421 99.389 90.451Z" fill="#5D5D5D"/>
<path d="M65.641 0.400391C73.381 0.740391 80.701 2.72039 87.881 6.22039C85.871 7.70039 83.901 8.85039 81.831 9.84039C81.301 10.0904 81.031 9.59039 80.711 9.34039C76.821 6.24039 72.701 3.52039 68.161 1.46039C67.331 1.09039 66.481 0.760391 65.641 0.400391Z" fill="#5D5D5D"/>
<path d="M79.501 110.88C74.341 114.84 69.131 118.21 62.941 119.88C62.921 119.42 63.181 119.26 63.361 119.06C66.121 115.95 68.591 112.62 70.781 109.1C71.251 108.35 71.721 108.18 72.521 108.42C74.811 109.09 77.091 109.8 79.501 110.88Z" fill="#5D5D5D"/>
<path d="M87.849 115.6C80.829 119.02 73.639 121.01 65.949 121.62C66.189 121.11 66.589 121.11 66.899 120.99C71.979 118.94 76.579 116.09 80.819 112.65C81.569 112.05 82.099 112 82.909 112.47C84.519 113.42 86.169 114.3 87.849 115.6Z" fill="#5D5D5D"/>
<path d="M62.85 2.18009C63.39 2.00009 63.77 2.20009 64.16 2.33009C69.5 4.09009 74.12 7.11009 78.55 10.4901C79.14 10.9401 79.08 11.1601 78.42 11.4201C76.37 12.2101 74.3 12.9201 72.18 13.4801C71.62 13.6301 71.31 13.5401 71 13.0501C68.61 9.23009 65.94 5.61009 62.85 2.18009Z" fill="#5D5D5D"/>
<path d="M62.65 5.7793C65.03 8.1793 66.89 10.8093 68.66 13.5093C68.98 13.9993 68.87 14.2393 68.32 14.3093C66.7 14.5293 65.08 14.7993 63.44 14.8393C62.99 14.8493 62.65 14.7893 62.65 14.2193C62.65 11.4193 62.65 8.5993 62.65 5.7793Z" fill="#5D5D5D"/>
<path d="M62.651 115.98C62.651 113.17 62.661 110.35 62.641 107.54C62.641 106.96 62.971 106.89 63.421 106.94C65.041 107.13 66.661 107.31 68.271 107.51C68.701 107.56 69.081 107.66 68.701 108.24C66.911 110.96 65.061 113.64 62.651 115.98Z" fill="#5D5D5D"/>
<path d="M80.76 59.4794C80.27 59.0894 79.82 58.7594 79.41 58.3794C77.25 56.3594 77.69 53.2394 80.35 51.9294C82.1 51.0694 83.92 51.0694 85.68 51.8594C88.18 52.9794 88.67 56.0294 86.68 57.9094C86.16 58.3994 85.56 58.7894 84.95 59.2594C85.61 59.7694 86.28 60.1894 86.85 60.7194C89.31 63.0394 88.57 66.6894 85.41 67.8894C83.82 68.4894 82.19 68.4994 80.59 67.9894C77.4 66.9594 76.56 63.3994 78.93 61.0194C79.46 60.4794 80.09 60.0394 80.76 59.4794Z" fill="white"/>
<path d="M111.95 60.6498C110.99 61.1898 110.1 61.5998 109.06 61.6298C105.8 61.7498 103.66 59.9198 103.5 56.8598C103.34 53.8398 105.59 51.4498 108.71 51.3198C112.09 51.1798 114.4 53.3698 114.83 57.1898C115.05 59.1198 114.84 61.0198 114.15 62.8498C112.87 66.2498 109.24 68.6698 105.72 68.4998C104.67 68.4498 104.93 67.5598 104.76 66.9898C104.52 66.2098 105.19 66.4198 105.57 66.3798C109.01 66.0198 111.26 64.2198 111.92 61.2998C111.96 61.1198 111.94 60.9198 111.95 60.6498Z" fill="white"/>
<path d="M100.02 56.9897C100.02 58.3097 100.08 59.6297 100 60.9397C99.94 61.9697 100.18 62.5497 101.34 62.3497C102.16 62.2097 102.44 62.5597 102.44 63.4097C102.44 64.2497 102.2 64.6097 101.36 64.4697C100.23 64.2697 99.85 64.7797 100.01 65.8497C100.06 66.1597 99.97 66.4997 100.03 66.8097C100.22 67.9297 99.69 68.1097 98.69 68.1097C97.75 68.1097 97.47 67.8497 97.48 66.8997C97.52 64.4797 97.48 64.4697 95.04 64.4697C93.84 64.4697 92.64 64.4897 91.44 64.4597C90.95 64.4397 90.22 64.7497 90.01 64.2197C89.74 63.5497 89.75 62.7597 90.25 62.0597C91.53 60.2697 92.77 58.4597 94.02 56.6597C94.93 55.3497 95.96 54.0997 96.73 52.7097C97.42 51.4697 98.44 51.6297 99.51 51.6597C100.05 51.6797 100 52.0797 100 52.4397C100.02 53.9497 100.02 55.4697 100.02 56.9897Z" fill="white"/>
<path d="M71.72 53.92C70.81 54.19 70.02 54.41 69.23 54.68C68.78 54.83 68.41 54.85 68.37 54.27C68.34 53.75 67.62 53.03 68.51 52.74C70.05 52.24 71.58 51.62 73.26 51.63C74.07 51.63 74.37 51.86 74.37 52.71C74.33 57.5 74.32 62.29 74.38 67.07C74.39 68.16 73.8 68.09 73.11 68.06C72.45 68.03 71.68 68.34 71.7 67.1C71.76 63.19 71.72 59.28 71.72 55.37C71.72 54.93 71.72 54.5 71.72 53.92Z" fill="white"/>
<path d="M253.221 36.7802C246.611 36.8002 240.801 38.8102 236.231 43.7502C232.151 48.1602 230.321 53.4802 229.941 59.4202C228.981 74.3802 240.041 85.59 254.991 84.72C260.171 84.42 264.861 82.81 268.771 79.32C273.951 74.6902 276.301 68.7302 276.621 61.9102C277.261 48.2702 268.241 36.6602 253.221 36.7802ZM264.171 73.5702C258.681 80.22 245.161 80.63 240.341 70.3002C237.511 64.2402 237.381 57.9902 240.011 51.8402C242.741 45.4702 248.101 42.9602 253.931 43.2302C260.871 43.5502 265.381 47.3102 267.391 54.0102C268.071 56.2802 268.321 58.6202 268.361 61.0102C268.221 65.6002 267.191 69.9102 264.171 73.5702Z" fill="#5D5D5D"/>
<path d="M82.89 66.3395C81.24 66.3195 80.25 65.3995 80.24 63.8995C80.23 62.6695 81.71 60.6595 82.65 60.6295C83.69 60.5895 85.59 62.7095 85.59 63.9095C85.58 65.3295 84.44 66.3595 82.89 66.3395Z" fill="#5D5D5D"/>
<path d="M83.009 53.3204C84.389 53.3104 85.259 54.1104 85.259 55.4004C85.269 56.4704 83.849 58.1904 82.979 58.1704C82.079 58.1504 80.699 56.4604 80.709 55.3804C80.729 54.1404 81.629 53.3304 83.009 53.3204Z" fill="#5D5D5D"/>
<path d="M106.25 56.5299C106.25 54.5599 107.32 53.3299 109.01 53.3399C110.93 53.3499 112.24 55.1499 112.21 57.7599C112.2 58.9199 110.98 59.6799 109.15 59.6699C107.23 59.6599 106.25 58.5999 106.25 56.5299Z" fill="#5D5D5D"/>
<path d="M97.499 55.5702C97.499 57.6002 97.499 59.6202 97.499 61.6502C97.499 62.0602 97.369 62.3402 96.889 62.3402C95.509 62.3302 94.119 62.3402 92.529 62.3402C94.149 59.9502 95.679 57.7002 97.209 55.4502C97.299 55.4902 97.399 55.5302 97.499 55.5702Z" fill="#5D5D5D"/>
</svg>
