<svg width="48" height="48" viewBox="0 0 48 48" fill="none" xmlns="http://www.w3.org/2000/svg"><path d="M0 18.2857C0 8.1868 8.1868 0 18.2857 0C28.3846 0 36.5714 8.1868 36.5714 18.2857C36.5714 28.3846 28.3846 36.5714 18.2857 36.5714H0V18.2857Z" fill="#ED145B"/><path d="M11.4285 29.7142C11.4285 19.6153 19.6153 11.4285 29.7142 11.4285C39.8132 11.4285 48 19.6153 48 29.7142V47.9999H29.7142C19.6153 47.9999 11.4285 39.8131 11.4285 29.7142Z" fill="#00AEEF"/><path fill-rule="evenodd" clip-rule="evenodd" d="M35.6027 12.3973C36.2308 14.245 36.5715 16.2256 36.5715 18.2857C36.5715 28.3846 28.3847 36.5714 18.2858 36.5714H12.7578C11.9006 34.4538 11.4285 32.1391 11.4285 29.7142C11.4285 19.6153 19.6153 11.4285 29.7142 11.4285C31.7744 11.4285 33.755 11.7692 35.6027 12.3973Z" fill="#FAA61A"/></svg>