<svg width="89" height="24" viewBox="0 0 89 24" fill="none" xmlns="http://www.w3.org/2000/svg">
                  <path fill-rule="evenodd" clip-rule="evenodd" d="M11.8661 12.4469H4.8607V18.8019H15.2578V21.1394C15.2578 21.762 15.0123 22.359 14.5752 22.7993C14.1381 23.2395 13.5452 23.4868 12.9271 23.4868H0V2.3342C0 1.71513 0.244204 1.12142 0.678862 0.683671C1.11352 0.245921 1.70306 0 2.31776 0H15.0816V2.25201C15.0807 2.89667 14.8258 3.51463 14.3729 3.97017C13.9199 4.4257 13.306 4.68157 12.6659 4.68157H4.8607V7.83112H14.2002V10.0963C14.2002 10.7197 13.9543 11.3176 13.5165 11.7584C13.0788 12.1993 12.4852 12.4469 11.8661 12.4469ZM38.8104 2.27174V23.4901H41.0694C41.366 23.4901 41.6598 23.4312 41.9339 23.3169C42.2079 23.2025 42.457 23.035 42.6667 22.8237C42.8765 22.6125 43.0429 22.3617 43.1564 22.0856C43.2699 21.8096 43.3284 21.5138 43.3284 21.215V0H41.0661C40.4679 0 39.8941 0.239335 39.4711 0.66537C39.0481 1.09141 38.8104 1.66923 38.8104 2.27174ZM28.4395 5.36207C26.0565 5.36207 24.3067 6.17412 23.2164 7.83108V5.8585H20.9836H20.9281C20.3344 5.86629 19.7677 6.10951 19.3509 6.53541C18.9341 6.96132 18.7009 7.53555 18.7018 8.13353V8.24861V23.4867H23.2164V13.9526C23.2164 11.0266 24.7246 9.5801 27.0684 9.5801C29.1707 9.5801 30.5352 10.8491 30.5352 13.1965V21.1788C30.5352 21.7831 30.7736 22.3626 31.1978 22.7898C31.6221 23.2171 32.1975 23.4571 32.7975 23.4571H35.0532V12.6639C35.0532 10.3626 34.4232 8.60696 33.1631 7.30178C31.903 5.99659 30.3655 5.36207 28.4395 5.36207ZM55.152 5.36207C57.5938 5.36207 59.4937 6.21028 60.8582 7.93628C60.8591 7.38462 61.0771 6.85579 61.4644 6.4657C61.8517 6.07562 62.3768 5.85608 62.9246 5.85521H65.3761V21.5602C65.3761 22.0764 65.1725 22.5714 64.8101 22.9364C64.4477 23.3014 63.9562 23.5065 63.4436 23.5065H60.8582V21.4254C59.4937 23.1547 57.6036 23.9996 55.152 23.9996C54.0151 24.0104 52.889 23.7754 51.85 23.3103C50.8109 22.8452 49.8831 22.1609 49.1292 21.3038C47.5265 19.479 46.6418 17.1269 46.6418 14.6907C46.6418 12.2545 47.5265 9.90241 49.1292 8.07765C50.8071 6.27932 52.8049 5.36207 55.152 5.36207ZM55.991 19.6469C57.2776 19.6469 58.5164 19.1558 59.4578 18.2726C59.9251 17.7988 60.2906 17.2333 60.5316 16.6111C60.7725 15.9889 60.8837 15.3235 60.8582 14.6562C60.8845 13.9971 60.7735 13.3398 60.5323 12.7266C60.2911 12.1134 59.9251 11.5578 59.4578 11.0957C58.5273 10.1909 57.2844 9.68528 55.991 9.68528C54.6976 9.68528 53.4547 10.1909 52.5242 11.0957C52.0688 11.5649 51.713 12.1225 51.4784 12.7346C51.2438 13.3467 51.1354 14.0005 51.1597 14.6562C51.1363 15.3201 51.245 15.9821 51.4793 16.6032C51.7136 17.2242 52.0689 17.7918 52.5242 18.2726C53.4656 19.1558 54.7044 19.6469 55.991 19.6469ZM85.844 8.07769C85.0925 7.21623 84.1656 6.5278 83.1263 6.05923C82.0871 5.59065 80.9598 5.35289 79.8212 5.36211C77.3696 5.36211 75.4795 6.21032 74.1477 7.93633V0H71.8952C71.2944 0 70.7182 0.240375 70.2933 0.66826C69.8684 1.09614 69.6297 1.67649 69.6297 2.28161V23.4901H71.8887C72.4559 23.4921 73.0031 23.2793 73.4216 22.8937C73.8401 22.5082 74.0993 21.9781 74.1477 21.409C75.4795 23.1383 77.3696 23.9832 79.8212 23.9832C80.9574 23.9993 82.0837 23.7683 83.1231 23.3059C84.1626 22.8434 85.0907 22.1605 85.844 21.3038C87.4661 19.4885 88.3636 17.1328 88.3636 14.6907C88.3636 12.2486 87.4661 9.89295 85.844 8.07769ZM82.4455 18.2696C81.5042 19.1527 80.2655 19.6437 78.979 19.6437C77.6924 19.6437 76.4536 19.1526 75.5122 18.2693C75.0569 17.7885 74.7017 17.221 74.4673 16.5999C74.233 15.9789 74.1243 15.3169 74.1477 14.6529C74.1234 13.9973 74.2319 13.3435 74.4664 12.7314C74.701 12.1193 75.0568 11.5617 75.5122 11.0924C76.4427 10.1877 77.6856 9.68205 78.979 9.68205C80.2724 9.68205 81.5153 10.1877 82.4458 11.0924C82.9131 11.5546 83.2791 12.1101 83.5203 12.7234C83.7615 13.3366 83.8725 13.9939 83.8462 14.6529C83.8717 15.321 83.7603 15.9872 83.5188 16.61C83.2778 17.2314 82.9124 17.7963 82.4455 18.2696Z" fill="white"/>
                </svg>