<?xml version="1.0" encoding="utf-8"?>
<!-- Generator: Adobe Illustrator 23.0.1, SVG Export Plug-In . SVG Version: 6.00 Build 0)  -->
<svg version="1.1" id="Layer_1" xmlns="http://www.w3.org/2000/svg" xmlns:xlink="http://www.w3.org/1999/xlink" x="0px" y="0px"
	 viewBox="0 0 26.7 40.1" style="enable-background:new 0 0 26.7 40.1;" xml:space="preserve">
<style type="text/css">
	.st0{fill:#00AEEF;}
	.st1{fill:#FAA61A;}
	.st2{fill:#ED145B;}
</style>
<path class="st0" d="M20.8,28.7h-8.9v-8.6c0-1.5-0.6-3-1.7-4C9,15,7.5,14.4,5.9,14.4H0v20c0,0.5,0.1,1,0.2,1.4
	c0.1,0.3,0.2,0.5,0.3,0.8c0.1,0.2,0.2,0.3,0.2,0.5c0.1,0.2,0.3,0.5,0.5,0.7c0.2,0.2,0.4,0.4,0.6,0.6c0.6,0.5,1.2,1,1.9,1.2
	c0.7,0.3,1.5,0.4,2.3,0.4h14.9c0.8,0,1.6-0.1,2.3-0.4c0.7-0.3,1.4-0.7,1.9-1.2c0.6-0.5,1-1.2,1.3-1.9c0.3-0.7,0.5-1.4,0.5-2.2
	c0-0.8-0.2-1.5-0.4-2.2c-0.3-0.7-0.7-1.3-1.3-1.9c-0.6-0.5-1.2-1-1.9-1.2C22.3,28.8,21.6,28.7,20.8,28.7z"/>
<path class="st1" d="M5.8,0h15c0.8,0,1.6,0.1,2.3,0.4c0.7,0.3,1.4,0.7,1.9,1.2c0.6,0.5,1,1.2,1.3,1.9c0.3,0.7,0.5,1.4,0.5,2.2
	c0,1.5-0.6,3-1.7,4c-1.1,1.1-2.6,1.7-4.2,1.7H0V5.6c0-1.5,0.6-2.9,1.7-4C2.8,0.6,4.3,0,5.8,0z"/>
<path class="st2" d="M20.8,14.1c1.6,0,3.1,0.6,4.2,1.7c1.1,1.1,1.7,2.5,1.7,4c0,0.7-0.2,1.5-0.5,2.2c-0.3,0.7-0.7,1.3-1.3,1.9
	c-0.6,0.5-1.2,1-1.9,1.2c-0.7,0.3-1.5,0.4-2.3,0.4h-5.9v-5.7c0-0.8,0.2-1.5,0.5-2.2c0.3-0.7,0.7-1.3,1.3-1.9c0.6-0.5,1.2-1,1.9-1.2
	C19.2,14.3,20,14.1,20.8,14.1z"/>
</svg>
