<svg width="894" height="387" viewBox="0 0 894 387" fill="none" xmlns="http://www.w3.org/2000/svg">
<g clip-path="url(#clip0_9335_63780)">
<path d="M0 148.87L4.63 147.3L40.33 195.3C47.65 205.3 52.87 212.6 60.42 222.3L60.97 222.11C61.04 209.79 60.72 200.79 60.48 188.43L59.63 128.61L63.99 127.21L64.77 227.13L60.41 228.6L0 148.87Z" fill="#383838"/>
<path d="M85.1719 213.57C85.1719 198.19 99.2619 191 130.312 187.57C130.602 176.35 127.722 163.99 113.312 163.99C103.532 163.99 95.2019 168.88 90.8819 172.33L88.5819 168.88C92.9019 165.71 102.382 159.96 113.582 159.96C129.682 159.96 134.582 172.04 134.582 185.84V230.4H130.892L130.312 221.2H130.022C122.842 226.95 114.212 232.13 105.022 232.13C94.3719 232.12 85.1719 226.66 85.1719 213.57V213.57ZM130.312 216.31V191.31C100.122 194.76 89.7719 201.66 89.7719 213.45C89.7719 224.09 96.9619 228.11 105.302 228.11C113.642 228.11 121.112 224.07 130.312 216.31V216.31Z" fill="#383838"/>
<path d="M156.621 161.68H160.361L160.931 172.6H161.221C168.411 165.42 175.591 159.95 185.081 159.95C199.171 159.95 205.781 168.29 205.781 186.12V230.39H201.471V186.69C201.471 171.45 196.581 163.98 184.791 163.98C176.171 163.98 169.791 168.58 160.931 177.78V230.39H156.621V161.68Z" fill="#383838"/>
<path d="M230.068 212.28V165.7H219.148V162.21L230.068 161.64L230.648 141.51H234.388V161.64H254.798V165.64H234.388V212.79C234.388 221.71 236.388 228.03 246.458 228.03C249.543 227.81 252.563 227.031 255.368 225.73L256.808 229.47C252.808 230.91 248.468 232.06 246.168 232.06C233.518 232.12 230.068 224.07 230.068 212.28" fill="#383838"/>
<path d="M260.121 213.57C260.121 198.19 274.201 191 305.261 187.57C305.541 176.35 302.671 163.99 288.261 163.99C278.491 163.99 270.151 168.88 265.841 172.33L263.541 168.88C267.851 165.71 277.341 159.96 288.541 159.96C304.641 159.96 309.541 172.04 309.541 185.84V230.4H305.801L305.231 221.2H304.941C297.751 226.95 289.131 232.13 279.941 232.13C269.321 232.12 260.121 226.66 260.121 213.57V213.57ZM305.261 216.31V191.31C275.071 194.76 264.721 201.66 264.721 213.45C264.721 224.09 271.901 228.11 280.241 228.11C288.581 228.11 296.061 224.07 305.261 216.31V216.31Z" fill="#383838"/>
<path d="M325.52 244.77C325.52 238.77 329.52 232.4 335.87 227.77V227.21C333.982 226.095 332.429 224.493 331.373 222.572C330.318 220.651 329.798 218.481 329.87 216.29C329.87 209.96 334.47 205.65 337.34 203.63V203.06C334.658 200.668 332.506 197.743 331.022 194.471C329.537 191.199 328.753 187.653 328.72 184.06C328.72 170.26 339.07 159.91 352.29 159.91C355.347 159.897 358.378 160.485 361.21 161.64H384.21V165.64H367.5C370.156 167.906 372.28 170.73 373.722 173.91C375.163 177.09 375.886 180.549 375.84 184.04C375.84 197.85 365.49 208.48 352.26 208.48C348.119 208.49 344.05 207.399 340.47 205.32C337.31 207.91 334.47 211.07 334.47 215.96C334.47 221.13 337.34 225.45 347.98 225.45H363.19C378.43 225.45 385.32 230.33 385.32 240.97C385.32 252.47 372.96 263.97 353.7 263.97C336.16 264.03 325.52 256.27 325.52 244.77V244.77ZM380.73 241.32C380.73 233.27 374.97 230.11 364.05 230.11H348.24C345.431 229.972 342.64 229.587 339.9 228.96C333 233.56 330.12 239.31 330.12 244.48C330.12 253.68 338.75 260.01 353.99 260.01C370.38 260.01 380.73 250.52 380.73 241.32V241.32ZM371.24 184.1C371.24 171.88 362.61 163.98 352.24 163.98C341.87 163.98 333.24 171.74 333.24 184.1C333.24 196.18 342.15 204.52 352.24 204.52C362.33 204.52 371.24 196.21 371.24 184.1V184.1Z" fill="#383838"/>
<path d="M389.5 196.21C389.5 173.78 403.87 159.98 419.11 159.98C434.92 159.98 444.99 171.2 444.99 191.61C445.029 193.149 444.932 194.688 444.7 196.21H394.1C394.1 214.61 404.73 228.12 421.1 228.12C427.954 228.149 434.629 225.929 440.1 221.8L442.1 225.54C436.92 228.7 431.17 232.15 420.82 232.15C403.58 232.12 389.5 218.61 389.5 196.21V196.21ZM440.67 192.21C440.67 173.21 432.05 164.04 419.11 164.04C406.75 164.04 395.53 174.68 394.11 192.21H440.67Z" fill="#383838"/>
<path d="M466.969 136.09H493.889C515.029 136.09 529.259 143.09 529.259 163.84C529.259 183.67 515.169 193.02 494.469 193.02H478.889V230.39H466.969V136.09ZM492.969 183.24C509.359 183.24 517.269 177.24 517.269 163.84C517.269 150.18 508.929 145.72 492.399 145.72H478.889V183.21L492.969 183.24Z" fill="#383838"/>
<path d="M534.969 195.6C534.969 172.17 550.199 158.8 567.309 158.8C584.419 158.8 599.659 172.17 599.659 195.6C599.659 218.75 584.419 232.12 567.309 232.12C550.199 232.12 534.969 218.75 534.969 195.6V195.6ZM587.439 195.6C587.439 179.5 579.439 168.6 567.309 168.6C555.379 168.6 547.189 179.52 547.189 195.6C547.189 211.68 555.379 222.34 567.309 222.34C579.389 222.34 587.439 211.56 587.439 195.6V195.6Z" fill="#383838"/>
<path d="M626.251 160.53H614.461V230.39H626.251V160.53Z" fill="#383838"/>
<path d="M646.23 160.53H656L657 170.59H657.43C664.04 163.98 671.23 158.8 680.87 158.8C695.53 158.8 702.141 168.29 702.141 186.12V230.39H690.36V187.7C690.36 174.62 686.361 169.01 677.141 169.01C669.951 169.01 665.061 172.75 658.021 179.79V230.39H646.23V160.53Z" fill="#383838"/>
<path d="M723.281 208.83V170.21H712.891V161.21L723.821 160.49L725.251 140.94H735.171V160.49H754.001V170.21H735.211V209.02C735.211 217.65 737.941 222.54 745.991 222.54C748.71 222.345 751.381 221.713 753.901 220.67L756.201 229.58C752.321 230.87 747.581 232.17 743.261 232.17C728.311 232.12 723.281 222.63 723.281 208.83" fill="#383838"/>
<path d="M438.574 279.34L445.007 281.379C444.303 284.516 442.572 287.328 440.088 289.369C437.123 291.352 433.563 292.251 430.012 291.912C426.461 291.573 423.136 290.017 420.6 287.509C417.791 284.528 416.387 280.453 416.387 275.283C416.387 269.816 417.798 265.569 420.622 262.542C422.046 261.033 423.778 259.847 425.699 259.064C427.621 258.28 429.688 257.918 431.762 258C435.369 257.848 438.889 259.129 441.555 261.564C443.204 263.238 444.366 265.33 444.917 267.614L438.35 269.184C438.047 267.588 437.181 266.154 435.91 265.142C434.64 264.13 433.048 263.608 431.425 263.67C430.303 263.634 429.188 263.851 428.162 264.305C427.135 264.759 426.225 265.438 425.497 266.292C423.98 268.04 423.222 270.871 423.222 274.786C423.222 278.94 423.969 281.898 425.464 283.661C426.169 284.517 427.061 285.2 428.071 285.659C429.081 286.117 430.182 286.339 431.291 286.306C432.965 286.339 434.59 285.738 435.841 284.625C437.28 283.189 438.235 281.34 438.574 279.336" fill="#AAAAAA"/>
<path d="M450.396 275.194C450.309 272.312 450.82 269.442 451.896 266.767C452.642 265.096 453.678 263.571 454.956 262.262C456.154 260.996 457.599 259.988 459.201 259.3C461.45 258.395 463.859 257.953 466.283 258C471.125 258 474.999 259.5 477.904 262.5C480.81 265.5 482.263 269.676 482.263 275.029C482.263 280.333 480.821 284.483 477.937 287.479C475.053 290.475 471.199 291.973 466.373 291.973C461.487 291.973 457.602 290.482 454.718 287.501C451.834 284.52 450.393 280.415 450.393 275.186L450.396 275.194ZM457.229 274.962C457.229 278.682 458.088 281.502 459.806 283.422C460.635 284.328 461.642 285.051 462.765 285.547C463.888 286.043 465.101 286.3 466.329 286.302C467.556 286.304 468.771 286.051 469.895 285.559C471.02 285.067 472.03 284.347 472.861 283.444C474.557 281.54 475.405 278.683 475.405 274.872C475.405 271.107 474.58 268.298 472.928 266.445C472.07 265.563 471.044 264.862 469.91 264.385C468.776 263.907 467.557 263.663 466.326 263.666C465.096 263.669 463.879 263.92 462.747 264.403C461.615 264.886 460.592 265.592 459.739 266.479C458.065 268.354 457.229 271.182 457.229 274.962" fill="#AAAAAA"/>
<path d="M496.688 291.42V258.564H503.143L516.59 280.5V258.564H522.753V291.42H516.098L502.853 269.994V291.42H496.688Z" fill="#AAAAAA"/>
<path d="M537.27 280.73L543.724 280.102C543.934 281.919 544.769 283.607 546.088 284.876C547.453 285.952 549.164 286.494 550.901 286.4C552.619 286.526 554.328 286.046 555.731 285.044C556.226 284.675 556.63 284.197 556.912 283.648C557.194 283.098 557.346 282.491 557.356 281.873C557.375 281.151 557.132 280.446 556.672 279.889C556.012 279.217 555.19 278.727 554.286 278.466C553.508 278.199 551.737 277.721 548.973 277.032C545.418 276.151 542.923 275.067 541.488 273.782C540.528 272.97 539.76 271.957 539.237 270.814C538.714 269.671 538.449 268.427 538.462 267.17C538.46 265.497 538.955 263.861 539.885 262.47C540.884 260.972 542.313 259.812 543.985 259.142C546.04 258.331 548.238 257.942 550.448 258C554.572 258 557.676 258.904 559.76 260.711C560.793 261.612 561.622 262.725 562.188 263.974C562.754 265.223 563.046 266.579 563.043 267.951L556.41 268.243C556.276 266.843 555.624 265.544 554.582 264.6C553.344 263.773 551.866 263.383 550.382 263.491C548.785 263.4 547.201 263.815 545.855 264.679C545.522 264.903 545.252 265.208 545.068 265.564C544.884 265.92 544.792 266.317 544.802 266.718C544.801 267.105 544.89 267.486 545.062 267.833C545.233 268.18 545.482 268.483 545.789 268.718C546.625 269.42 548.656 270.153 551.884 270.918C554.355 271.421 556.758 272.215 559.044 273.282C560.535 274.045 561.79 275.2 562.675 276.622C563.578 278.238 564.03 280.067 563.985 281.918C563.94 283.769 563.399 285.574 562.418 287.144C561.358 288.799 559.806 290.081 557.98 290.808C555.698 291.673 553.269 292.08 550.831 292.008C546.677 292.008 543.487 291.048 541.261 289.129C539.035 287.21 537.705 284.412 537.272 280.735" fill="#AAAAAA"/>
<path d="M578.7 258.564H585.333V276.364C585.278 278.198 585.361 280.033 585.581 281.854C585.831 283.148 586.554 284.303 587.609 285.093C588.895 285.972 590.435 286.401 591.99 286.314C593.499 286.422 595 286.016 596.248 285.16C597.159 284.465 597.775 283.453 597.974 282.325C598.212 280.475 598.309 278.61 598.264 276.745V258.564H604.9V275.822C604.986 278.619 604.806 281.418 604.364 284.181C604.058 285.7 603.376 287.118 602.38 288.305C601.322 289.492 599.996 290.41 598.513 290.983C596.49 291.718 594.344 292.057 592.193 291.983C589.765 292.101 587.338 291.732 585.055 290.896C583.569 290.271 582.252 289.303 581.211 288.072C580.322 287.016 579.685 285.77 579.351 284.43C578.844 281.681 578.627 278.886 578.702 276.092L578.7 258.564Z" fill="#AAAAAA"/>
<path d="M607.02 291.42V258.833H613.654V285.884H630.149V291.42H607.02Z" fill="#AAAAAA"/>
<path d="M641.866 291.42V264.12H632.117V258.562H658.226V264.12H648.501V291.42H641.866Z" fill="#AAAAAA"/>
<path d="M678.118 258.563H671.484V291.419H678.118V258.563Z" fill="#AAAAAA"/>
<path d="M693.688 291.42V258.564H700.141L713.589 280.5V258.564H719.753V291.42H713.095L699.85 269.994V291.42H693.688Z" fill="#AAAAAA"/>
<path d="M751.231 279.34V273.8H765.531V286.889C763.77 288.457 761.718 289.664 759.491 290.441C756.94 291.448 754.222 291.969 751.479 291.977C748.346 292.052 745.248 291.306 742.492 289.814C739.97 288.408 737.955 286.244 736.732 283.628C735.435 280.894 734.776 277.902 734.804 274.876C734.744 271.703 735.485 268.566 736.956 265.754C738.373 263.112 740.574 260.975 743.256 259.636C745.709 258.47 748.405 257.909 751.119 258C755.198 258 758.384 258.855 760.678 260.565C762.985 262.297 764.563 264.826 765.104 267.659L758.515 268.892C758.106 267.358 757.185 266.009 755.904 265.07C754.502 264.099 752.823 263.608 751.119 263.67C749.837 263.609 748.556 263.824 747.363 264.299C746.171 264.775 745.094 265.5 744.205 266.427C742.494 268.265 741.639 270.992 741.639 274.607C741.639 278.507 742.506 281.432 744.239 283.381C745.088 284.342 746.14 285.102 747.318 285.608C748.496 286.113 749.771 286.352 751.052 286.306C752.484 286.298 753.902 286.02 755.232 285.488C756.521 285.003 757.733 284.335 758.832 283.505V279.34H751.231Z" fill="#AAAAAA"/>
<g opacity="0.4">
<g opacity="0.4">
<g opacity="0.4">
<path opacity="0.4" d="M115.761 113.5C115.763 115.391 115.204 117.24 114.155 118.813C113.106 120.386 111.614 121.613 109.868 122.338C108.122 123.064 106.2 123.255 104.345 122.888C102.491 122.521 100.786 121.613 99.4478 120.277C98.1094 118.941 97.1971 117.239 96.8263 115.385C96.4555 113.531 96.6428 111.608 97.3645 109.861C98.0863 108.113 99.31 106.619 100.881 105.567C102.452 104.515 104.3 103.952 106.191 103.95H106.211C108.743 103.95 111.173 104.956 112.963 106.747C114.754 108.538 115.761 110.967 115.761 113.5" fill="#AAAAAA"/>
</g>
</g>
</g>
<g opacity="0.55">
<g opacity="0.55">
<g opacity="0.55">
<path opacity="0.55" d="M147.19 113.5C147.192 115.391 146.634 117.24 145.585 118.813C144.536 120.386 143.044 121.613 141.298 122.338C139.552 123.064 137.63 123.255 135.775 122.888C133.92 122.521 132.216 121.613 130.877 120.277C129.539 118.941 128.627 117.239 128.256 115.385C127.885 113.531 128.072 111.608 128.794 109.861C129.516 108.113 130.74 106.619 132.311 105.567C133.882 104.515 135.73 103.952 137.62 103.95H137.63C138.884 103.949 140.127 104.194 141.286 104.673C142.445 105.152 143.498 105.854 144.386 106.74C145.274 107.626 145.978 108.678 146.46 109.836C146.941 110.994 147.189 112.236 147.19 113.49V113.5Z" fill="#AAAAAA"/>
</g>
</g>
</g>
<g opacity="0.7">
<g opacity="0.7">
<g opacity="0.7">
<path opacity="0.7" d="M178.62 113.5C178.622 115.391 178.063 117.24 177.014 118.813C175.966 120.386 174.474 121.613 172.728 122.338C170.982 123.064 169.06 123.255 167.205 122.888C165.35 122.521 163.646 121.613 162.307 120.277C160.969 118.941 160.056 117.239 159.686 115.385C159.315 113.531 159.502 111.608 160.224 109.861C160.946 108.113 162.169 106.619 163.74 105.567C165.311 104.515 167.159 103.952 169.05 103.95H169.07C171.603 103.95 174.032 104.956 175.823 106.747C177.614 108.538 178.62 110.967 178.62 113.5" fill="#AAAAAA"/>
</g>
</g>
</g>
<g opacity="0.85">
<g opacity="0.85">
<g opacity="0.85">
<path opacity="0.85" d="M210.05 113.5C210.052 115.391 209.493 117.24 208.444 118.813C207.395 120.386 205.903 121.613 204.157 122.338C202.411 123.064 200.489 123.255 198.634 122.888C196.78 122.521 195.075 121.613 193.737 120.277C192.398 118.941 191.486 117.239 191.115 115.385C190.745 113.531 190.932 111.608 191.654 109.861C192.375 108.113 193.599 106.619 195.17 105.567C196.741 104.515 198.589 103.952 200.48 103.95H200.5C201.754 103.95 202.996 104.197 204.154 104.677C205.313 105.157 206.366 105.86 207.253 106.747C208.139 107.634 208.843 108.687 209.323 109.845C209.803 111.004 210.05 112.246 210.05 113.5" fill="#AAAAAA"/>
</g>
</g>
</g>
<path d="M241.479 113.5C241.481 115.391 240.923 117.24 239.874 118.813C238.825 120.386 237.333 121.613 235.587 122.338C233.841 123.064 231.919 123.255 230.064 122.888C228.209 122.521 226.505 121.613 225.167 120.277C223.828 118.941 222.916 117.239 222.545 115.385C222.174 113.531 222.362 111.608 223.083 109.861C223.805 108.113 225.029 106.619 226.6 105.567C228.171 104.515 230.019 103.952 231.909 103.95H231.929C233.182 103.949 234.423 104.194 235.581 104.672C236.739 105.151 237.791 105.852 238.678 106.737C239.565 107.622 240.269 108.673 240.749 109.83C241.23 110.987 241.478 112.227 241.479 113.48V113.5Z" fill="#AAAAAA"/>
<g opacity="0.4">
<g opacity="0.4">
<g opacity="0.4">
<path opacity="0.4" d="M163.21 88.85C163.21 90.7408 162.649 92.5892 161.599 94.1613C160.548 95.7334 159.055 96.9588 157.308 97.6823C155.561 98.4059 153.639 98.5952 151.785 98.2264C149.93 97.8575 148.227 96.947 146.89 95.61C145.553 94.273 144.642 92.5696 144.274 90.7151C143.905 88.8607 144.094 86.9384 144.818 85.1916C145.541 83.4447 146.766 81.9517 148.339 80.9012C149.911 79.8507 151.759 79.29 153.65 79.29H153.66C154.913 79.2887 156.153 79.5342 157.311 80.0124C158.469 80.4906 159.522 81.1922 160.409 82.0772C161.295 82.9621 161.999 84.0131 162.48 85.17C162.96 86.3269 163.209 87.5672 163.21 88.82V88.85Z" fill="#AAAAAA"/>
</g>
</g>
</g>
<g opacity="0.55">
<g opacity="0.55">
<g opacity="0.55">
<path opacity="0.55" d="M194.64 88.85C194.64 90.7408 194.079 92.5892 193.028 94.1613C191.978 95.7334 190.485 96.9588 188.738 97.6823C186.991 98.4059 185.069 98.5952 183.214 98.2263C181.36 97.8575 179.657 96.947 178.32 95.61C176.983 94.273 176.072 92.5696 175.703 90.7151C175.334 88.8606 175.524 86.9384 176.247 85.1916C176.971 83.4447 178.196 81.9517 179.768 80.9012C181.34 79.8507 183.189 79.29 185.08 79.29H185.09C187.622 79.29 190.051 80.2962 191.842 82.0872C193.633 83.8781 194.64 86.3072 194.64 88.84V88.85Z" fill="#AAAAAA"/>
</g>
</g>
</g>
<g opacity="0.7">
<g opacity="0.7">
<g opacity="0.7">
<path opacity="0.7" d="M226.081 88.85C226.081 90.7408 225.52 92.5892 224.47 94.1613C223.419 95.7334 221.926 96.9588 220.179 97.6823C218.433 98.4059 216.51 98.5952 214.656 98.2263C212.801 97.8575 211.098 96.947 209.761 95.61C208.424 94.273 207.514 92.5696 207.145 90.7151C206.776 88.8606 206.965 86.9384 207.689 85.1916C208.412 83.4447 209.638 81.9517 211.21 80.9012C212.782 79.8507 214.63 79.29 216.521 79.29C219.056 79.29 221.488 80.2972 223.281 82.0901C225.074 83.8829 226.081 86.3146 226.081 88.85" fill="#AAAAAA"/>
</g>
</g>
</g>
<g opacity="0.85">
<g opacity="0.85">
<g opacity="0.85">
<path opacity="0.85" d="M257.5 88.85C257.496 91.3802 256.488 93.8053 254.697 95.5923C252.905 97.3793 250.478 98.382 247.948 98.38C245.417 98.3781 242.992 97.3715 241.203 95.5817C239.415 93.7919 238.41 91.3652 238.41 88.835C238.41 86.3048 239.415 83.8782 241.203 82.0884C242.992 80.2985 245.417 79.292 247.948 79.29C250.478 79.2881 252.905 80.2907 254.697 82.0778C256.488 83.8648 257.496 86.2899 257.5 88.82V88.85Z" fill="#AAAAAA"/>
</g>
</g>
</g>
<g opacity="0.4">
<g opacity="0.4">
<g opacity="0.4">
<path opacity="0.4" d="M210.67 64.21C210.668 66.742 209.66 69.1692 207.868 70.9582C206.076 72.7471 203.647 73.7514 201.115 73.75C198.583 73.7487 196.156 72.742 194.366 70.9511C192.576 69.1603 191.57 66.732 191.57 64.2C191.57 61.6681 192.576 59.2398 194.366 57.4489C196.156 55.6581 198.583 54.6514 201.115 54.65C203.647 54.6487 206.076 55.6529 207.868 57.4419C209.66 59.2308 210.668 61.6581 210.67 64.19V64.21Z" fill="#AAAAAA"/>
</g>
</g>
</g>
<g opacity="0.55">
<g opacity="0.55">
<g opacity="0.55">
<path opacity="0.55" d="M242.1 64.21C242.1 66.1008 241.54 67.9491 240.489 69.5213C239.439 71.0934 237.946 72.3187 236.199 73.0423C234.452 73.7659 232.53 73.9552 230.675 73.5863C228.821 73.2175 227.118 72.307 225.781 70.97C224.444 69.633 223.533 67.9295 223.164 66.0751C222.795 64.2206 222.985 62.2984 223.708 60.5516C224.432 58.8047 225.657 57.3116 227.229 56.2612C228.801 55.2107 230.65 54.65 232.54 54.65H232.55C235.083 54.65 237.512 55.6562 239.303 57.4472C241.094 59.2381 242.1 61.6672 242.1 64.2V64.21Z" fill="#AAAAAA"/>
</g>
</g>
</g>
<g opacity="0.7">
<g opacity="0.7">
<g opacity="0.7">
<path opacity="0.7" d="M273.53 64.21C273.53 66.1008 272.969 67.9491 271.919 69.5213C270.869 71.0934 269.375 72.3187 267.629 73.0423C265.882 73.7659 263.96 73.9552 262.105 73.5863C260.251 73.2175 258.547 72.307 257.21 70.97C255.873 69.633 254.963 67.9295 254.594 66.0751C254.225 64.2206 254.414 62.2984 255.138 60.5516C255.861 58.8047 257.087 57.3116 258.659 56.2612C260.231 55.2107 262.079 54.65 263.97 54.65H263.98C266.513 54.65 268.942 55.6562 270.733 57.4472C272.524 59.2381 273.53 61.6672 273.53 64.2V64.21Z" fill="#AAAAAA"/>
</g>
</g>
</g>
<g opacity="0.4">
<g opacity="0.4">
<g opacity="0.4">
<path opacity="0.4" d="M258.12 39.55C258.118 41.4384 257.556 43.2838 256.505 44.853C255.455 46.4221 253.962 47.6446 252.217 48.3659C250.472 49.0872 248.552 49.2749 246.7 48.9053C244.848 48.5357 243.148 47.6253 241.813 46.2893C240.479 44.9533 239.57 43.2517 239.202 41.3994C238.835 39.5472 239.024 37.6275 239.747 35.8831C240.471 34.1386 241.695 32.6477 243.265 31.5988C244.835 30.5498 246.681 29.99 248.57 29.99C249.825 29.99 251.067 30.2373 252.226 30.7179C253.386 31.1985 254.439 31.9028 255.326 32.7907C256.213 33.6785 256.916 34.7325 257.395 35.8923C257.875 37.0521 258.121 38.295 258.12 39.55Z" fill="#AAAAAA"/>
</g>
</g>
</g>
<g opacity="0.55">
<g opacity="0.55">
<g opacity="0.55">
<path opacity="0.55" d="M289.551 39.55C289.55 42.0837 288.542 44.5131 286.75 46.304C284.958 48.0949 282.528 49.1007 279.994 49.1C277.46 49.0993 275.03 48.0924 273.239 46.3005C271.448 44.5087 270.441 42.0787 270.441 39.545C270.441 37.0113 271.448 34.5813 273.239 32.7895C275.03 30.9976 277.46 29.9907 279.994 29.99C282.528 29.9893 284.958 30.995 286.75 32.7859C288.542 34.5768 289.55 37.0063 289.551 39.54V39.55Z" fill="#AAAAAA"/>
</g>
</g>
</g>
<g opacity="0.4">
<g opacity="0.4">
<g opacity="0.4">
<path opacity="0.4" d="M305.581 14.89C305.583 16.7808 305.024 18.6297 303.975 20.2029C302.927 21.7761 301.435 23.003 299.689 23.7284C297.943 24.4538 296.021 24.6451 294.166 24.2782C292.311 23.9113 290.606 23.0026 289.268 21.667C287.93 20.3314 287.017 18.6289 286.647 16.7748C286.276 14.9208 286.463 12.9984 287.185 11.2507C287.907 9.50313 289.13 8.00878 290.701 6.95667C292.272 5.90456 294.12 5.34194 296.011 5.33997H296.021C298.555 5.33996 300.985 6.3458 302.777 8.13649C304.57 9.92717 305.578 12.3562 305.581 14.89" fill="#AAAAAA"/>
</g>
</g>
</g>
<path d="M425.054 322.98H422.946V309.549C422.337 310.108 421.666 310.595 420.946 311.001C420.239 311.429 419.497 311.793 418.727 312.09V310.053C419.849 309.536 420.891 308.858 421.818 308.04C422.581 307.398 423.217 306.617 423.692 305.74H425.05L425.054 322.98Z" fill="#383838"/>
<path d="M432.848 318.483L435.062 318.296C435.148 319.214 435.551 320.073 436.203 320.725C436.791 321.265 437.565 321.556 438.364 321.539C438.85 321.546 439.333 321.446 439.777 321.248C440.222 321.05 440.618 320.757 440.939 320.391C441.67 319.55 442.048 318.46 441.994 317.347C442.022 316.829 441.947 316.311 441.773 315.823C441.599 315.334 441.329 314.885 440.98 314.502C440.634 314.154 440.22 313.881 439.763 313.702C439.307 313.522 438.818 313.44 438.328 313.46C437.685 313.451 437.051 313.61 436.49 313.922C435.967 314.208 435.524 314.621 435.202 315.122L433.223 314.864L434.886 306.046H443.421V308.061H436.572L435.647 312.674C436.589 311.985 437.723 311.608 438.89 311.597C439.595 311.582 440.296 311.713 440.949 311.981C441.601 312.248 442.192 312.648 442.684 313.154C443.199 313.682 443.602 314.309 443.868 314.998C444.134 315.686 444.257 316.422 444.23 317.159C444.261 318.619 443.78 320.044 442.871 321.187C442.339 321.867 441.653 322.411 440.869 322.773C440.085 323.136 439.226 323.306 438.364 323.271C436.97 323.33 435.604 322.862 434.54 321.96C433.543 321.066 432.935 319.818 432.848 318.482" fill="#383838"/>
<path d="M462.9 322.98V315.709L456.285 305.815H459.047L462.431 310.99C463.056 311.958 463.638 312.925 464.176 313.89C464.692 312.993 465.316 311.982 466.049 310.857L469.376 305.811H472.021L465.171 315.705V322.976L462.9 322.98Z" fill="#383838"/>
<path d="M476.504 322.979V305.815H488.916V307.84H478.775V313.1H488.275V315.115H478.775V320.958H489.314V322.983L476.504 322.979Z" fill="#383838"/>
<path d="M492.965 322.98L499.557 305.815H502.004L509.029 322.98H506.441L504.441 317.78H497.264L495.379 322.98H492.965ZM497.918 315.931H503.737L501.945 311.177C501.399 309.733 500.993 308.547 500.728 307.618C500.505 308.733 500.196 309.829 499.803 310.896L497.918 315.931Z" fill="#383838"/>
<path d="M513.277 322.98V305.815H520.887C522.068 305.764 523.249 305.921 524.376 306.277C525.179 306.59 525.852 307.166 526.285 307.911C526.761 308.69 527.008 309.587 526.998 310.5C527.028 311.642 526.603 312.75 525.816 313.579C524.816 314.512 523.527 315.074 522.162 315.172C522.656 315.392 523.117 315.68 523.532 316.027C524.254 316.706 524.887 317.473 525.417 318.31L528.403 322.982H525.546L523.275 319.411C522.609 318.38 522.062 317.591 521.635 317.045C521.314 316.604 520.925 316.217 520.482 315.898C520.165 315.689 519.814 315.534 519.445 315.441C519.027 315.375 518.604 315.348 518.181 315.36H515.548V322.982L513.277 322.98ZM515.548 313.39H520.431C521.255 313.421 522.078 313.312 522.865 313.068C523.413 312.884 523.884 312.521 524.2 312.037C524.501 311.58 524.66 311.045 524.657 310.498C524.667 310.12 524.592 309.745 524.44 309.399C524.287 309.053 524.06 308.746 523.774 308.498C522.968 307.909 521.976 307.63 520.981 307.714H515.548V313.39Z" fill="#383838"/>
<path d="M532.188 317.465L534.331 317.278C534.394 318.029 534.638 318.754 535.04 319.391C535.475 319.993 536.074 320.456 536.766 320.726C537.599 321.076 538.496 321.249 539.401 321.235C540.183 321.25 540.961 321.119 541.695 320.849C542.282 320.647 542.796 320.279 543.177 319.789C543.493 319.364 543.664 318.849 543.664 318.319C543.673 317.809 543.507 317.311 543.195 316.908C542.78 316.437 542.246 316.088 541.648 315.896C540.645 315.564 539.625 315.284 538.593 315.059C537.452 314.826 536.341 314.466 535.28 313.987C534.537 313.627 533.904 313.074 533.447 312.387C533.044 311.748 532.836 311.005 532.846 310.25C532.846 309.385 533.103 308.539 533.585 307.82C534.109 307.04 534.861 306.442 535.739 306.105C536.74 305.704 537.81 305.505 538.889 305.52C540.04 305.498 541.185 305.706 542.255 306.134C543.168 306.497 543.949 307.128 544.497 307.943C545.023 308.75 545.315 309.686 545.34 310.649L543.163 310.812C543.138 310.344 543.021 309.885 542.816 309.462C542.612 309.04 542.326 308.663 541.974 308.353C541.102 307.74 540.045 307.446 538.983 307.522C537.927 307.436 536.872 307.702 535.983 308.277C535.693 308.485 535.457 308.758 535.294 309.075C535.13 309.391 535.043 309.742 535.041 310.098C535.033 310.385 535.089 310.67 535.204 310.934C535.319 311.197 535.491 311.431 535.708 311.62C536.754 312.255 537.919 312.672 539.132 312.844C540.428 313.098 541.7 313.466 542.932 313.944C543.816 314.312 544.582 314.918 545.145 315.694C545.626 316.416 545.875 317.268 545.859 318.135C545.858 319.054 545.585 319.952 545.075 320.717C544.522 321.55 543.739 322.205 542.82 322.602C541.78 323.064 540.651 323.294 539.513 323.276C538.178 323.316 536.85 323.084 535.608 322.596C534.598 322.177 533.738 321.466 533.138 320.553C532.537 319.635 532.21 318.565 532.195 317.468" fill="#383838"/>
<path d="M559.719 314.619C559.576 312.174 560.4 309.77 562.014 307.927C562.775 307.128 563.696 306.499 564.717 306.082C565.739 305.666 566.837 305.47 567.939 305.509C569.444 305.488 570.927 305.881 572.224 306.645C573.485 307.39 574.498 308.492 575.134 309.812C575.819 311.25 576.162 312.827 576.134 314.42C576.162 316.039 575.801 317.641 575.081 319.091C574.428 320.413 573.386 321.502 572.094 322.213C570.818 322.916 569.383 323.28 567.926 323.272C566.402 323.295 564.902 322.889 563.598 322.1C562.343 321.338 561.338 320.226 560.707 318.9C560.054 317.566 559.717 316.1 559.723 314.615L559.719 314.619ZM562.065 314.65C561.965 316.434 562.563 318.188 563.733 319.539C564.278 320.105 564.931 320.555 565.654 320.861C566.377 321.168 567.155 321.325 567.94 321.324C568.726 321.322 569.503 321.162 570.224 320.852C570.946 320.542 571.598 320.089 572.14 319.521C573.325 318.089 573.917 316.259 573.797 314.404C573.825 313.148 573.583 311.9 573.088 310.745C572.655 309.748 571.934 308.904 571.016 308.322C570.1 307.746 569.037 307.447 567.955 307.461C567.188 307.449 566.426 307.59 565.713 307.874C565.001 308.158 564.351 308.581 563.803 309.118C562.644 310.222 562.065 312.066 562.065 314.65Z" fill="#383838"/>
<path d="M581.578 322.979V305.815H593.158V307.84H583.849V313.156H591.905V315.182H583.849V322.982L581.578 322.979Z" fill="#383838"/>
<path d="M607.613 322.979V305.815H620.024V307.84H609.884V313.1H619.384V315.115H609.884V320.958H620.423V322.983L607.613 322.979Z" fill="#383838"/>
<path d="M624.215 322.98L630.854 314.035L624.999 305.815H627.704L630.819 310.215C631.314 310.894 631.775 311.598 632.2 312.323C632.618 311.648 633.072 310.995 633.559 310.368L637.013 305.813H639.484L633.453 313.904L639.953 322.978H637.143L632.822 316.854C632.58 316.503 632.33 316.121 632.072 315.707C631.691 316.332 631.417 316.76 631.253 316.995L626.945 322.978L624.215 322.98Z" fill="#383838"/>
<path d="M656.601 316.961L658.872 317.535C658.516 319.205 657.611 320.707 656.302 321.803C655.005 322.803 653.402 323.322 651.765 323.273C650.183 323.343 648.614 322.95 647.251 322.143C646.057 321.346 645.134 320.205 644.605 318.87C643.995 317.414 643.686 315.849 643.698 314.27C643.66 312.651 644.011 311.047 644.722 309.592C645.361 308.307 646.379 307.249 647.638 306.56C648.914 305.865 650.347 305.509 651.8 305.524C653.349 305.472 654.873 305.933 656.133 306.835C657.337 307.758 658.198 309.056 658.58 310.524L656.343 311.05C656.064 309.983 655.458 309.029 654.611 308.322C653.779 307.729 652.774 307.428 651.753 307.467C650.578 307.425 649.42 307.757 648.446 308.415C647.565 309.04 646.91 309.934 646.579 310.962C646.219 312.025 646.037 313.14 646.039 314.262C646.012 315.565 646.229 316.862 646.678 318.085C647.043 319.101 647.743 319.962 648.663 320.527C649.541 321.06 650.551 321.34 651.578 321.334C652.753 321.368 653.9 320.977 654.81 320.234C655.76 319.38 656.392 318.228 656.601 316.967" fill="#383838"/>
<path d="M664.113 322.979V305.815H676.525V307.84H666.384V313.1H675.884V315.115H666.384V320.958H676.923V322.983L664.113 322.979Z" fill="#383838"/>
<path d="M682.367 322.979V305.815H684.638V320.955H693.093V322.98L682.367 322.979Z" fill="#383838"/>
<path d="M698.102 322.979V305.815H700.373V320.955H708.828V322.98L698.102 322.979Z" fill="#383838"/>
<path d="M713.977 322.979V305.815H726.388V307.84H716.248V313.1H725.748V315.115H716.248V320.958H726.787V322.983L713.977 322.979Z" fill="#383838"/>
<path d="M732.301 322.979V305.815H734.631L743.648 319.292V305.815H745.825V322.98H743.495L734.479 309.492V322.98L732.301 322.979Z" fill="#383838"/>
<path d="M764.285 316.961L766.556 317.535C766.199 319.205 765.295 320.707 763.986 321.803C762.689 322.802 761.086 323.322 759.449 323.273C757.866 323.343 756.298 322.95 754.935 322.143C753.74 321.347 752.817 320.205 752.289 318.87C751.678 317.414 751.37 315.849 751.382 314.27C751.343 312.651 751.695 311.047 752.406 309.592C753.044 308.307 754.062 307.249 755.321 306.56C756.597 305.865 758.03 305.509 759.484 305.524C761.033 305.472 762.556 305.933 763.816 306.835C765.02 307.758 765.881 309.056 766.264 310.524L764.027 311.05C763.747 309.982 763.141 309.029 762.294 308.322C761.462 307.729 760.457 307.428 759.437 307.467C758.262 307.425 757.104 307.757 756.13 308.415C755.249 309.04 754.593 309.934 754.262 310.962C753.903 312.025 753.721 313.14 753.723 314.262C753.695 315.565 753.912 316.862 754.361 318.085C754.726 319.101 755.426 319.962 756.346 320.527C757.225 321.06 758.234 321.34 759.262 321.334C760.436 321.368 761.583 320.977 762.493 320.234C763.443 319.38 764.075 318.228 764.285 316.967" fill="#383838"/>
<path d="M771.801 322.979V305.815H784.212V307.84H774.072V313.1H783.572V315.115H774.072V320.958H784.611V322.983L771.801 322.979Z" fill="#383838"/>
<path d="M620.5 130.63C622.028 130.659 623.514 131.139 624.77 132.01C626.027 132.88 626.998 134.102 627.563 135.523C628.128 136.944 628.26 138.499 627.944 139.995C627.628 141.49 626.877 142.859 625.786 143.93C624.695 145 623.312 145.725 621.81 146.012C620.309 146.3 618.756 146.137 617.347 145.546C615.937 144.954 614.734 143.959 613.888 142.686C613.041 141.413 612.59 139.919 612.59 138.39C612.61 136.312 613.454 134.327 614.938 132.872C616.421 131.417 618.422 130.61 620.5 130.63Z" fill="#383838"/>
<path d="M612.638 117.91H627.828V0.0400391H612.638L562.828 39.54L571.798 51.28L612.638 17.99V117.91Z" fill="#383838"/>
<path d="M882.651 168.42C876.205 150.272 866.003 133.687 852.711 119.75C839.325 105.977 823.285 95.0601 805.561 87.66C787.214 79.84 766.324 75.9267 742.891 75.92C729.278 76.0399 715.7 77.3111 702.301 79.72C687.958 82.1572 674.054 86.7031 661.041 93.21L662.281 13.83H870.041V0H646.561L645.891 113.89C659.585 106.364 674.048 100.329 689.031 95.89C704.372 91.3052 720.299 88.9807 736.311 88.99C758.851 88.99 778.868 92.5567 796.361 99.69C813.854 106.823 828.581 116.717 840.541 129.37C852.675 142.312 862.067 157.575 868.151 174.24C874.685 192.029 877.957 210.85 877.811 229.8C877.811 253.727 873.901 274.551 866.081 292.27C858.261 309.989 848.021 324.829 835.361 336.79C823.047 348.542 808.495 357.697 792.571 363.71C777.251 369.603 760.985 372.653 744.571 372.71C716.504 372.71 692.691 367.303 673.131 356.49C666.99 353.103 661.11 349.262 655.541 345H632.461C642.265 354.161 653.156 362.084 664.891 368.59C686.291 380.55 712.864 386.533 744.611 386.54C763.131 386.515 781.492 383.127 798.801 376.54C816.477 369.886 832.662 359.799 846.421 346.86C860.461 333.74 871.738 317.407 880.251 297.86C888.764 278.313 893.021 255.647 893.021 229.86C892.988 207.767 889.531 187.287 882.651 168.42" fill="#383838"/>
</g>
<defs>
<clipPath id="clip0_9335_63780">
<rect width="893.02" height="386.54" fill="white"/>
</clipPath>
</defs>
</svg>
