<svg width="213" height="32" viewBox="0 0 213 32" fill="none" xmlns="http://www.w3.org/2000/svg">
<path d="M4.08205 16.3244L1 4.67395H2.62363L4.38779 12.3193C4.58751 13.1157 4.75949 13.9073 4.89818 14.697C5.2033 13.4573 5.38268 12.7434 5.43323 12.5513L7.68374 4.67395H9.56256L11.233 10.5774C11.6516 12.0398 11.9555 13.4118 12.1509 14.697C12.3074 13.9658 12.5028 13.125 12.7371 12.1691L14.5943 4.67395H16.1619L12.9368 16.3244H11.4038L8.9591 7.45362C8.75568 6.71007 8.6287 6.25275 8.58185 6.0804C8.44871 6.62759 8.32851 7.088 8.22742 7.46654L5.73465 16.3244H4.08205Z" fill="#7F7F7F" stroke="#7F7F7F" stroke-width="0.5"/>
<path d="M18.0456 16.3243V4.67322H26.5249V6.05505H19.6156V9.61027H26.0984V10.9921H19.6156V14.9431H26.8128V16.3243H18.0456Z" fill="#7F7F7F" stroke="#7F7F7F" stroke-width="0.5"/>
<path d="M29.313 16.3243V4.67139H34.3115C35.5689 4.67139 36.4818 4.77849 37.0508 4.98468C37.6216 5.19642 38.0783 5.57004 38.4186 6.10492C38.7619 6.64042 38.9333 7.25224 38.9333 7.94593C38.9333 8.81873 38.675 9.54442 38.1542 10.1138C37.6339 10.6844 36.8572 11.0457 35.8247 11.1922C36.3388 11.4876 36.758 11.8132 37.0909 12.1702C37.4262 12.5223 37.8749 13.1532 38.4408 14.0568L39.8752 16.3237H37.0341L35.3292 13.7884C34.7177 12.8891 34.301 12.3185 34.0754 12.0853C33.8504 11.8471 33.61 11.6901 33.361 11.6009C33.1095 11.5147 32.71 11.4716 32.1633 11.4716H31.6819V16.3237H29.313V16.3243ZM31.6831 9.61028H33.4386C34.5778 9.61028 35.2885 9.56288 35.572 9.46686C35.8574 9.37269 36.0762 9.20527 36.2384 8.97384C36.3992 8.73933 36.4788 8.44819 36.4788 8.09673C36.4788 7.70341 36.3734 7.38765 36.1619 7.14637C35.9511 6.90263 35.654 6.7506 35.27 6.68658C35.074 6.66073 34.497 6.64842 33.536 6.64842H31.6843V9.61028H31.6831Z" fill="#505050"/>
<path d="M41.5986 16.3243V4.67322H50.3079V6.64718H43.9693V9.21572H49.8783V11.1897H43.9693V14.351H50.536V16.3243H41.5986Z" fill="#505050"/>
<path d="M60.5144 12.0366L62.8278 12.742C62.4728 14.0204 61.8829 14.9714 61.0612 15.5918C60.2371 16.2129 59.1959 16.5231 57.9286 16.5231C56.3611 16.5231 55.0721 15.995 54.0637 14.9412C53.0571 13.8844 52.551 12.4453 52.551 10.6154C52.551 8.68264 53.0571 7.18017 54.0729 6.10917C55.0863 5.04003 56.4221 4.5033 58.0753 4.5033C59.5189 4.5033 60.6914 4.92369 61.5913 5.75956C62.1294 6.25321 62.5338 6.96474 62.7976 7.88924L60.459 8.45367C60.3203 7.85293 60.0256 7.37837 59.5855 7.02937C59.1392 6.68283 58.5986 6.50803 57.9631 6.50803C57.0847 6.50803 56.3728 6.81825 55.826 7.43499C55.278 8.05666 55.0074 9.05749 55.0074 10.4436C55.0074 11.9135 55.2756 12.9599 55.8106 13.5852C56.3456 14.2087 57.0434 14.5214 57.9033 14.5214C58.5364 14.5214 59.0807 14.3232 59.5356 13.9219C59.9923 13.5212 60.319 12.894 60.5144 12.0366Z" fill="#505050"/>
<path d="M64.7812 10.5976C64.7812 9.41216 64.9612 8.41564 65.3188 7.6087C65.5863 7.01781 65.9524 6.48662 66.416 6.01329C66.8764 5.54057 67.3874 5.19281 67.936 4.96568C68.6696 4.65546 69.5159 4.5022 70.4763 4.5022C72.2102 4.5022 73.5953 5.03585 74.6358 6.10007C75.6769 7.16676 76.1996 8.64708 76.1996 10.5435C76.1996 12.4257 75.6825 13.8943 74.65 14.9567C73.6138 16.0216 72.2386 16.5509 70.5083 16.5509C68.754 16.5509 67.3622 16.0228 66.3297 14.9672C65.2972 13.9097 64.7812 12.4522 64.7812 10.5976ZM67.2376 10.5201C67.2376 11.8416 67.5446 12.8424 68.1604 13.5256C68.7737 14.2064 69.5529 14.5468 70.4997 14.5468C71.4514 14.5468 72.23 14.2095 72.8359 13.5318C73.4424 12.856 73.7439 11.8422 73.7439 10.4893C73.7439 9.15118 73.4504 8.15282 72.8556 7.49483C72.2669 6.83685 71.4853 6.50508 70.5003 6.50508C69.5245 6.50508 68.7343 6.83869 68.1333 7.50653C67.5341 8.17067 67.2376 9.17457 67.2376 10.5201Z" fill="#505050"/>
<path d="M81.4237 16.3243L77.2685 4.67322H79.8476L82.7891 13.3052L85.6634 4.67322H88.1716L84.0028 16.3243H81.4237Z" fill="#505050"/>
<path d="M89.8445 16.3243V4.67322H98.5513V6.64718H92.2127V9.21572H98.126V11.1897H92.2127V14.351H98.7775V16.3243H89.8445Z" fill="#505050"/>
<path d="M101.223 16.3243V4.67139H106.224C107.481 4.67139 108.392 4.77849 108.965 4.98468C109.531 5.19642 109.991 5.57004 110.335 6.10492C110.675 6.64042 110.844 7.25224 110.844 7.94593C110.844 8.81873 110.584 9.54442 110.07 10.1138C109.546 10.6844 108.772 11.0457 107.738 11.1922C108.254 11.4894 108.673 11.8132 109.005 12.1702C109.343 12.5223 109.795 13.1532 110.356 14.0568L111.792 16.3237H108.949L107.244 13.7884C106.634 12.8891 106.213 12.3185 105.989 12.0853C105.768 11.8471 105.525 11.6901 105.277 11.6009C105.02 11.5147 104.624 11.4716 104.077 11.4716H103.595V16.3237H101.223V16.3243ZM103.596 9.61028H105.352C106.489 9.61028 107.204 9.56288 107.487 9.46686C107.772 9.37269 107.993 9.20527 108.153 8.97384C108.313 8.73933 108.392 8.44819 108.392 8.09673C108.392 7.70341 108.289 7.38765 108.076 7.14637C107.867 6.90263 107.566 6.7506 107.181 6.68658C106.992 6.66073 106.416 6.64842 105.451 6.64842H103.596V9.61028Z" fill="#505050"/>
<path d="M113.569 16.3243V4.67261H117.627C118.542 4.67261 119.242 4.72862 119.722 4.83941C120.398 4.99329 120.975 5.27273 121.448 5.67528C122.07 6.19231 122.533 6.85645 122.84 7.66463C123.15 8.47403 123.308 9.39607 123.308 10.4357C123.308 11.3208 123.198 12.1049 122.994 12.7869C122.784 13.472 122.516 14.0395 122.186 14.4864C121.861 14.9345 121.504 15.2835 121.115 15.5426C120.728 15.8011 120.26 15.9913 119.715 16.1267C119.16 16.2584 118.53 16.3243 117.82 16.3243H113.569ZM115.138 14.9412H117.653C118.43 14.9412 119.038 14.8735 119.478 14.727C119.92 14.5842 120.274 14.3854 120.532 14.1245C120.907 13.7588 121.193 13.2677 121.399 12.6528C121.605 12.0354 121.705 11.2888 121.705 10.4098C121.705 9.19233 121.504 8.25675 121.098 7.6043C120.693 6.95186 120.205 6.51361 119.627 6.29141C119.208 6.13261 118.538 6.05321 117.615 6.05321H115.138V14.9412Z" fill="#7F7F7F" stroke="#7F7F7F" stroke-width="0.5"/>
<path d="M124.574 16.3244L129.093 4.67395H130.792L135.601 16.3244H133.826L132.469 12.7981H127.505L126.234 16.3244H124.574ZM127.941 11.556H132.006L130.761 8.31903C130.386 7.3379 130.107 6.52665 129.902 5.88467C129.737 6.64298 129.523 7.39268 129.264 8.13253L127.941 11.556Z" fill="#7F7F7F" stroke="#7F7F7F" stroke-width="0.5"/>
<path d="M139.013 16.3243V6.05505H135.13V4.67322H144.466V6.05505H140.585V16.3243H139.013Z" fill="#7F7F7F" stroke="#7F7F7F" stroke-width="0.5"/>
<path d="M143.969 16.3244L148.488 4.67395H150.19L155 16.3244H153.221L151.866 12.7981H146.899L145.631 16.3244H143.969ZM147.335 11.556H151.399L150.153 8.31903C149.782 7.3379 149.496 6.52665 149.297 5.88467C149.131 6.64298 148.924 7.39268 148.66 8.13253L147.335 11.556Z" fill="#7F7F7F" stroke="#7F7F7F" stroke-width="0.5"/>
<path d="M158.487 14.687H156.834V16.3237H158.487V14.687Z" fill="#7F7F7F" stroke="#7F7F7F" stroke-width="0.5"/>
<path d="M170.006 12.2366L171.574 12.625C171.251 13.8936 170.663 14.8593 169.814 15.5241C168.973 16.1913 167.931 16.5225 166.707 16.5225C165.442 16.5225 164.412 16.2658 163.617 15.7543C162.823 15.244 162.22 14.5042 161.805 13.5354C161.391 12.5672 161.185 11.5245 161.185 10.4116C161.185 9.19721 161.418 8.13976 161.889 7.23864C162.352 6.33445 163.022 5.64877 163.885 5.17913C164.749 4.70949 165.696 4.47437 166.736 4.47437C167.911 4.47437 168.896 4.77043 169.701 5.36625C170.506 5.96083 171.063 6.79486 171.38 7.87016L169.837 8.22962C169.563 7.38267 169.17 6.76716 168.65 6.37938C168.132 5.9953 167.483 5.80019 166.695 5.80019C165.788 5.80019 165.037 6.01623 164.428 6.44217C163.822 6.87364 163.401 7.44853 163.157 8.16992C162.905 8.89315 162.786 9.63731 162.786 10.4042C162.786 11.3915 162.931 12.2576 163.218 12.9931C163.507 13.7336 163.964 14.2838 164.575 14.6501C165.189 15.0138 165.856 15.1973 166.57 15.1973C167.441 15.1973 168.177 14.9486 168.78 14.4506C169.381 13.9545 169.793 13.2134 170.006 12.2366Z" fill="#7F7F7F" stroke="#7F7F7F" stroke-width="0.5"/>
<path d="M173.414 10.6535C173.414 8.72019 173.939 7.20726 174.992 6.1141C176.041 5.02095 177.398 4.47375 179.062 4.47375C180.148 4.47375 181.132 4.73166 182.008 5.24561C182.881 5.75772 183.547 6.47418 184.002 7.39191C184.464 8.31088 184.693 9.35356 184.693 10.5169C184.693 11.6993 184.451 12.7537 183.97 13.6849C183.484 14.6187 182.8 15.3247 181.919 15.8023C181.032 16.2824 180.08 16.5212 179.054 16.5212C177.946 16.5212 176.948 16.2566 176.077 15.726C175.203 15.1985 174.537 14.4746 174.092 13.5588C173.641 12.6453 173.414 11.6753 173.414 10.6535ZM175.016 10.6732C175.016 12.0754 175.397 13.1784 176.162 13.9884C176.93 14.7922 177.889 15.1973 179.044 15.1973C180.221 15.1973 181.191 14.7879 181.952 13.9755C182.715 13.1617 183.095 12.0064 183.095 10.5052C183.095 9.56037 182.931 8.73312 182.605 8.02712C182.286 7.32113 181.802 6.77147 181.179 6.38431C180.551 5.99531 179.849 5.79896 179.069 5.79896C177.96 5.79896 177.01 6.17504 176.209 6.92535C175.413 7.67197 175.016 8.9227 175.016 10.6732Z" fill="#7F7F7F" stroke="#7F7F7F" stroke-width="0.5"/>
<path d="M187.072 16.3243V4.67322H189.421L192.209 12.9094C192.463 13.677 192.653 14.25 192.766 14.6329C192.903 14.2094 193.117 13.5871 193.406 12.766L196.258 4.67322H198.322V16.3237H196.808V6.56162L193.365 16.3237H191.975L188.589 6.39235V16.3237H187.072V16.3243Z" fill="#7F7F7F" stroke="#7F7F7F" stroke-width="0.5"/>
<path d="M4.99249 30.8438V21.7877H8.21016C8.93629 21.7877 9.49044 21.8302 9.87385 21.9188C10.407 22.0389 10.8644 22.2524 11.2429 22.567C11.7348 22.9701 12.1046 23.4884 12.3494 24.1156C12.5928 24.7422 12.7149 25.4599 12.7149 26.2662C12.7149 26.9525 12.6311 27.5631 12.4659 28.0974C12.2994 28.6279 12.0886 29.0674 11.8303 29.4152C11.5696 29.7636 11.2873 30.0369 10.9803 30.2381C10.6709 30.4382 10.2992 30.5877 9.86275 30.6905C9.42818 30.7952 8.92704 30.8444 8.36303 30.8444H4.99249V30.8438ZM6.22901 29.771H8.22125C8.83643 29.771 9.31661 29.7174 9.66797 29.606C10.0187 29.4952 10.2973 29.337 10.5044 29.137C10.7966 28.8514 11.0241 28.471 11.1868 27.9909C11.352 27.512 11.4334 26.931 11.4334 26.2484C11.4334 25.3035 11.2719 24.5748 10.9544 24.0676C10.6339 23.5573 10.2425 23.2182 9.7857 23.0458C9.45654 22.9227 8.9215 22.8612 8.19043 22.8612H6.22901V29.771Z" fill="#7F7F7F" stroke="#7F7F7F" stroke-width="0.5"/>
<path d="M14.0556 30.8436L17.6228 21.7856H18.9752L22.7945 30.8436H21.3841L20.3035 28.107H16.3752L15.3661 30.8436H14.0556ZM16.7388 27.1332H19.9127L18.9493 24.6182C18.6466 23.8599 18.4204 23.229 18.2706 22.7317C18.1424 23.3189 17.9729 23.8987 17.7553 24.4711L16.7388 27.1332Z" fill="#7F7F7F" stroke="#7F7F7F" stroke-width="0.5"/>
<path d="M25.8438 30.8438V22.8593H22.7686V21.7877H30.1581V22.8593H27.0822V30.8438H25.8438Z" fill="#7F7F7F" stroke="#7F7F7F" stroke-width="0.5"/>
<path d="M30.1075 30.8436L33.6772 21.7856H35.0296L38.8464 30.8436H37.436L36.3579 28.107H32.4296L31.4174 30.8436H30.1075ZM32.7951 27.1332H35.969L35.0031 24.6182C34.7016 23.8599 34.4754 23.229 34.3256 22.7317C34.1974 23.3189 34.0267 23.8987 33.8103 24.4711L32.7951 27.1332Z" fill="#7F7F7F" stroke="#7F7F7F" stroke-width="0.5"/>
<path d="M44.0649 30.8438V21.7877H48.2134C49.0474 21.7877 49.6804 21.8702 50.1138 22.0321C50.5471 22.194 50.8941 22.4808 51.1549 22.8938C51.4125 23.305 51.5426 23.7623 51.5426 24.2584C51.5426 24.9035 51.3275 25.4445 50.8966 25.8852C50.4701 26.3247 49.8062 26.606 48.9093 26.7235C49.2366 26.8774 49.4838 27.0276 49.6545 27.1741C50.0158 27.4966 50.3566 27.8979 50.6778 28.3805L52.2959 30.8432H50.7499L49.5146 28.9585C49.1522 28.4168 48.8563 28.0013 48.6196 27.7139C48.3884 27.4258 48.1782 27.2227 47.9915 27.1082C47.8084 26.9925 47.6198 26.9131 47.4275 26.8669C47.2869 26.8386 47.0595 26.822 46.7395 26.822H45.3033V30.8432H44.0649V30.8438ZM45.3045 25.7812H47.9631C48.5314 25.7812 48.974 25.7227 49.289 25.6101C49.6071 25.4987 49.8469 25.3183 50.0139 25.0672C50.1791 24.8191 50.2592 24.5477 50.2592 24.2572C50.2592 23.83 50.1002 23.4779 49.7797 23.2034C49.4604 22.9258 48.9543 22.7879 48.2652 22.7879H45.3045V25.7812Z" fill="#7F7F7F" stroke="#7F7F7F" stroke-width="0.5"/>
<path d="M54.1778 30.8438V21.7877H60.9244V22.8593H55.4174V25.6242H60.5761V26.6977H55.4174V29.7709H61.1445V30.8438H54.1778Z" fill="#7F7F7F" stroke="#7F7F7F" stroke-width="0.5"/>
<path d="M70.173 27.6682L71.4114 27.9692C71.1518 28.9546 70.6852 29.7062 70.0127 30.2226C69.339 30.7415 68.5148 30.9982 67.5403 30.9982C66.5337 30.9982 65.7133 30.8024 65.0839 30.4017C64.4521 30.0053 63.9713 29.4292 63.6427 28.677C63.3123 27.9237 63.1478 27.1106 63.1478 26.2482C63.1478 25.3059 63.3321 24.4811 63.7031 23.78C64.0779 23.0759 64.605 22.5434 65.2947 22.1778C65.9783 21.8134 66.734 21.6288 67.5594 21.6288C68.4945 21.6288 69.2804 21.8651 69.9184 22.3249C70.5552 22.786 70.999 23.4366 71.2523 24.2724L70.0281 24.5519C69.8105 23.8908 69.4968 23.4113 69.0832 23.1122C68.6751 22.8124 68.1579 22.6604 67.5335 22.6604C66.8191 22.6604 66.2175 22.8272 65.7373 23.1626C65.2553 23.4969 64.9156 23.9419 64.7227 24.5032C64.5267 25.0664 64.4299 25.6438 64.4299 26.2396C64.4299 27.0115 64.5458 27.683 64.7782 28.2566C65.0069 28.8297 65.3668 29.2612 65.855 29.5431C66.3432 29.8268 66.8703 29.9665 67.4417 29.9665C68.1333 29.9665 68.7164 29.7757 69.1984 29.3892C69.6786 29.0033 70.0016 28.429 70.173 27.6682Z" fill="#7F7F7F" stroke="#7F7F7F" stroke-width="0.5"/>
<path d="M73.2026 26.4359C73.2026 24.9353 73.6193 23.7572 74.4521 22.9097C75.2898 22.0584 76.3617 21.6312 77.6827 21.6312C78.5414 21.6312 79.323 21.8325 80.0171 22.232C80.7142 22.6327 81.2412 23.1872 81.6068 23.9037C81.9668 24.6146 82.1511 25.4271 82.1511 26.3319C82.1511 27.2515 81.9588 28.0726 81.5778 28.7946C81.1901 29.5215 80.6483 30.0662 79.9462 30.4429C79.2459 30.8135 78.4884 31 77.6784 31C76.7963 31 76.0092 30.7944 75.3126 30.3814C74.621 29.9702 74.0958 29.4089 73.7377 28.6955C73.3789 27.984 73.2026 27.2312 73.2026 26.4359ZM74.4817 26.4532C74.4817 27.5432 74.7856 28.4019 75.3934 29.0309C75.9993 29.6557 76.7575 29.9684 77.6704 29.9684C78.5993 29.9684 79.3649 29.6526 79.9671 29.0205C80.5675 28.3865 80.8689 27.486 80.8689 26.3221C80.8689 25.5853 80.7383 24.9433 80.4812 24.3937C80.2242 23.8434 79.8512 23.4181 79.3538 23.1177C78.8564 22.813 78.3047 22.661 77.6907 22.661C76.8136 22.661 76.0591 22.9558 75.4279 23.535C74.7967 24.1179 74.4817 25.0898 74.4817 26.4532Z" fill="#7F7F7F" stroke="#7F7F7F" stroke-width="0.5"/>
<path d="M87.0528 30.8438L83.4425 21.7877H84.7869L87.2155 28.3682C87.4097 28.8932 87.5749 29.3881 87.7081 29.8479C87.8517 29.3549 88.0175 28.8631 88.2117 28.3682L90.7322 21.7877H91.9927L88.3454 30.8438H87.0528Z" fill="#7F7F7F" stroke="#7F7F7F" stroke-width="0.5"/>
<path d="M93.7963 30.8438V21.7877H100.539V22.8593H95.0353V25.6242H100.194V26.6977H95.0353V29.7709H100.762V30.8438H93.7963Z" fill="#7F7F7F" stroke="#7F7F7F" stroke-width="0.5"/>
<path d="M103.127 30.8438V21.7877H107.277C108.108 21.7877 108.746 21.8702 109.18 22.0321C109.61 22.194 109.962 22.4808 110.217 22.8938C110.476 23.305 110.607 23.7623 110.607 24.2584C110.607 24.9035 110.391 25.4445 109.962 25.8852C109.531 26.3247 108.87 26.606 107.975 26.7235C108.298 26.8774 108.548 27.0276 108.715 27.1741C109.081 27.4966 109.42 27.8979 109.74 28.3805L111.359 30.8432H109.817L108.577 28.9585C108.221 28.4168 107.917 28.0013 107.683 27.7139C107.455 27.4258 107.238 27.2227 107.057 27.1082C106.872 26.9925 106.684 26.9131 106.491 26.8669C106.353 26.8386 106.116 26.822 105.807 26.822H104.37V30.8432H103.127V30.8438ZM104.37 25.7812H107.027C107.592 25.7812 108.037 25.7227 108.352 25.6101C108.669 25.4987 108.909 25.3183 109.078 25.0672C109.24 24.8191 109.328 24.5477 109.328 24.2572C109.328 23.83 109.162 23.4779 108.843 23.2034C108.525 22.9258 108.021 22.7879 107.328 22.7879H104.369V25.7812H104.37Z" fill="#7F7F7F" stroke="#7F7F7F" stroke-width="0.5"/>
<path d="M115.599 30.8438V27.0085L112.003 21.7883H113.491L115.337 24.5305C115.68 25.0413 115.994 25.5504 116.293 26.0582C116.571 25.5818 116.917 25.0487 117.319 24.4584L119.13 21.7877H120.572L116.843 27.0079V30.8432H115.599V30.8438Z" fill="#7F7F7F" stroke="#7F7F7F" stroke-width="0.5"/>
<path d="M126.326 30.8438V21.7877H127.565V29.7709H132.157V30.8438H126.326Z" fill="#7F7F7F" stroke="#7F7F7F" stroke-width="0.5"/>
<path d="M133.268 30.8436L136.836 21.7856H138.188L142.004 30.8436H140.597L139.514 28.107H135.584L134.576 30.8436H133.268ZM135.951 27.1332H139.125L138.162 24.6182C137.862 23.8599 137.631 23.229 137.488 22.7317C137.359 23.3189 137.179 23.8987 136.966 24.4711L135.951 27.1332Z" fill="#7F7F7F" stroke="#7F7F7F" stroke-width="0.5"/>
<path d="M143.604 30.8438V21.7877H147.108C147.819 21.7877 148.398 21.8782 148.83 22.0629C149.254 22.2475 149.598 22.5282 149.84 22.9123C150.088 23.2927 150.208 23.6934 150.208 24.107C150.208 24.4966 150.096 24.8616 149.88 25.2044C149.662 25.5461 149.337 25.8224 148.891 26.0335C149.464 26.196 149.895 26.4681 150.203 26.8534C150.505 27.2412 150.66 27.6979 150.66 28.2229C150.66 28.6464 150.568 29.0409 150.382 29.4041C150.2 29.7685 149.969 30.0504 149.694 30.2461C149.429 30.4425 149.083 30.5927 148.673 30.6924C148.265 30.7945 147.761 30.8438 147.166 30.8438H143.604ZM144.841 25.5971H146.861C147.407 25.5971 147.796 25.5627 148.038 25.4913C148.349 25.4026 148.583 25.25 148.741 25.0413C148.904 24.8308 148.98 24.5668 148.98 24.251C148.98 23.9488 148.908 23.6841 148.758 23.4558C148.612 23.2274 148.398 23.0698 148.125 22.9861C147.85 22.9006 147.375 22.8618 146.707 22.8618H144.842V25.5971H144.841ZM144.841 29.7709H147.166C147.567 29.7709 147.846 29.758 148.005 29.7297C148.292 29.6811 148.529 29.5986 148.718 29.4835C148.911 29.3684 149.066 29.2016 149.192 28.9831C149.313 28.7621 149.378 28.5091 149.378 28.2186C149.378 27.8862 149.288 27.5914 149.108 27.3446C148.927 27.0965 148.678 26.9211 148.362 26.8202C148.045 26.718 147.591 26.6688 146.997 26.6688H144.842V29.7709H144.841Z" fill="#7F7F7F" stroke="#7F7F7F" stroke-width="0.5"/>
<path d="M152.599 27.9378L153.767 27.8393C153.825 28.2948 153.952 28.6647 154.152 28.9552C154.353 29.2458 154.663 29.4797 155.091 29.6588C155.507 29.8391 155.988 29.9284 156.517 29.9284C156.983 29.9284 157.401 29.8601 157.759 29.7253C158.119 29.5905 158.389 29.4027 158.562 29.1664C158.736 28.9294 158.822 28.6715 158.822 28.3908C158.822 28.1083 158.739 27.8621 158.579 27.6485C158.41 27.438 158.135 27.2601 157.744 27.1179C157.492 27.0231 156.94 26.8736 156.083 26.676C155.225 26.4753 154.624 26.2901 154.281 26.1103C153.833 25.8826 153.501 25.6001 153.279 25.2671C153.062 24.9279 152.956 24.5543 152.956 24.1345C152.956 23.6778 153.088 23.2476 153.355 22.85C153.623 22.4517 154.013 22.1489 154.524 21.9427C155.037 21.7353 155.607 21.6306 156.237 21.6306C156.929 21.6306 157.541 21.7433 158.066 21.9587C158.592 22.1766 158.999 22.493 159.287 22.9133C159.569 23.335 159.72 23.8095 159.745 24.342L158.561 24.4263C158.5 23.8606 158.284 23.431 157.918 23.1399C157.552 22.8512 157.008 22.7053 156.296 22.7053C155.548 22.7053 155.005 22.8395 154.66 23.1035C154.318 23.3676 154.145 23.6864 154.145 24.0619C154.145 24.3869 154.265 24.6565 154.512 24.8645C154.746 25.0757 155.37 25.2892 156.373 25.5096C157.377 25.7281 158.061 25.9214 158.435 26.0845C158.979 26.3282 159.377 26.6366 159.634 27.009C159.893 27.3795 160.022 27.8085 160.022 28.2936C160.022 28.7743 159.88 29.2279 159.593 29.6545C159.307 30.0804 158.903 30.4109 158.37 30.6498C157.84 30.8843 157.241 30.9994 156.578 30.9994C155.729 30.9994 155.024 30.883 154.455 30.6442C153.885 30.4029 153.443 30.0447 153.117 29.5665C152.791 29.0857 152.619 28.5441 152.599 27.9378Z" fill="#7F7F7F" stroke="#7F7F7F" stroke-width="0.5"/>
<path d="M200.143 6.75825C200.143 5.5399 200.424 4.409 200.986 3.36556C201.554 2.32211 202.336 1.50183 203.333 0.904719C204.335 0.301573 205.416 0 206.576 0C207.736 0 208.814 0.301573 209.811 0.904719C210.807 1.50183 211.587 2.32211 212.148 3.36556C212.716 4.409 213 5.5399 213 6.75825C213 7.94645 212.728 9.05926 212.185 10.0967C211.641 11.1341 210.868 11.9694 209.865 12.6027C208.868 13.23 207.772 13.5436 206.576 13.5436C205.386 13.5436 204.29 13.233 203.287 12.6118C202.291 11.9845 201.518 11.1522 200.968 10.1148C200.418 9.07735 200.143 7.95851 200.143 6.75825ZM201.185 6.75825C201.185 7.79566 201.427 8.75768 201.91 9.64431C202.393 10.5249 203.049 11.2155 203.876 11.7161C204.71 12.2167 205.61 12.467 206.576 12.467C207.549 12.467 208.452 12.2137 209.285 11.7071C210.119 11.1944 210.771 10.5008 211.242 9.62621C211.719 8.75165 211.958 7.79566 211.958 6.75825C211.958 5.72687 211.719 4.77692 211.242 3.90839C210.771 3.03383 210.119 2.34624 209.285 1.84563C208.452 1.33898 207.549 1.08566 206.576 1.08566C205.61 1.08566 204.71 1.33597 203.876 1.83658C203.043 2.33116 202.384 3.01875 201.901 3.89934C201.424 4.77993 201.185 5.7329 201.185 6.75825ZM205.244 7.43679V10.4947H203.967V2.81368H206.467C207.392 2.81368 208.107 3.01272 208.615 3.41079C209.128 3.80284 209.385 4.37583 209.385 5.12976C209.385 5.87163 208.998 6.43859 208.225 6.83063C208.962 7.1322 209.334 7.74741 209.34 8.67626V9.22814C209.34 9.74684 209.391 10.1208 209.494 10.35V10.4947H208.18C208.095 10.2776 208.053 9.8916 208.053 9.3367C208.053 8.77578 208.044 8.44405 208.026 8.34151C207.929 7.76249 207.534 7.46092 206.839 7.43679H205.244ZM205.244 6.27875H206.658C207.093 6.26669 207.443 6.16114 207.709 5.9621C207.975 5.76306 208.107 5.50069 208.107 5.17499C208.107 4.7347 207.99 4.42408 207.754 4.24313C207.519 4.05616 207.099 3.96267 206.495 3.96267H205.244V6.27875Z" fill="#7F7F7F"/>
</svg>
