<svg width="818" height="933" viewBox="0 0 818 933" fill="none" xmlns="http://www.w3.org/2000/svg">
<path d="M818 466.586C818 412.344 750.139 360.94 646.097 329.062C670.106 222.915 659.435 138.465 612.416 111.427C601.579 105.085 588.907 102.081 575.068 102.081V139.299C582.737 139.299 588.907 140.801 594.075 143.639C616.751 156.657 626.589 206.225 618.919 269.98C617.085 285.669 614.084 302.191 610.415 319.048C577.735 311.037 542.054 304.862 504.539 300.856C482.03 269.98 458.687 241.941 435.177 217.407C489.533 166.837 540.554 139.132 575.234 139.132V101.914C529.382 101.914 469.358 134.626 408.667 191.371C347.975 134.96 287.951 102.582 242.099 102.582V139.8C276.613 139.8 327.8 167.338 382.156 217.574C358.813 242.108 335.47 269.98 313.294 300.856C275.612 304.862 239.931 311.037 207.251 319.215C203.416 302.525 200.582 286.336 198.581 270.815C190.744 207.06 200.415 157.491 222.924 144.306C227.926 141.302 234.429 139.967 242.099 139.967V102.749C228.093 102.749 215.421 105.753 204.417 112.095C157.564 139.132 147.06 223.416 171.236 329.229C67.5275 361.273 0 412.511 0 466.586C0 520.828 67.861 572.232 171.903 604.11C147.894 710.257 158.565 794.707 205.584 821.744C216.422 828.087 229.093 831.091 243.099 831.091C288.951 831.091 348.976 798.379 409.667 741.633C470.358 798.045 530.383 830.423 576.235 830.423C590.241 830.423 602.912 827.419 613.917 821.077C660.769 794.039 671.274 709.756 647.097 603.943C750.473 572.065 818 520.661 818 466.586ZM600.912 355.265C594.742 376.795 587.073 398.992 578.402 421.19C571.566 407.838 564.397 394.486 556.56 381.134C548.89 367.782 540.72 354.764 532.55 342.08C556.227 345.585 579.069 349.924 600.912 355.265ZM524.547 533.011C511.542 555.542 498.203 576.905 484.364 596.766C459.521 598.936 434.344 600.104 409 600.104C383.823 600.104 358.646 598.936 333.969 596.933C320.13 577.072 306.625 555.876 293.62 533.512C280.948 511.648 269.443 489.451 258.939 467.087C269.276 444.722 280.948 422.358 293.453 400.494C306.458 377.963 319.797 356.6 333.636 336.739C358.479 334.57 383.656 333.401 409 333.401C434.177 333.401 459.354 334.57 484.031 336.572C497.87 356.433 511.375 377.629 524.38 399.994C537.052 421.857 548.557 444.055 559.061 466.419C548.557 488.783 537.052 511.148 524.547 533.011ZM578.402 511.314C587.406 533.679 595.076 556.043 601.412 577.74C579.57 583.081 556.56 587.587 532.717 591.092C540.887 578.24 549.057 565.056 556.727 551.537C564.397 538.185 571.566 524.666 578.402 511.314ZM409.334 689.394C393.827 673.372 378.321 655.514 362.981 635.987C377.987 636.655 393.327 637.155 408.833 637.155C424.506 637.155 440.013 636.822 455.186 635.987C440.179 655.514 424.673 673.372 409.334 689.394ZM285.283 591.092C261.607 587.587 238.764 583.247 216.922 577.907C223.091 556.377 230.761 534.179 239.431 511.982C246.267 525.334 253.437 538.686 261.273 552.038C269.11 565.389 277.113 578.407 285.283 591.092ZM408.5 243.777C424.006 259.799 439.512 277.657 454.852 297.185C439.846 296.517 424.506 296.016 409 296.016C393.327 296.016 377.821 296.35 362.648 297.185C377.654 277.657 393.16 259.799 408.5 243.777ZM285.116 342.08C276.946 354.931 268.776 368.116 261.106 381.635C253.437 394.987 246.267 408.338 239.431 421.69C230.427 399.326 222.757 376.962 216.422 355.265C238.264 350.091 261.273 345.585 285.116 342.08ZM134.221 551.036C75.1973 525.835 37.0151 492.789 37.0151 466.586C37.0151 440.383 75.1973 407.17 134.221 382.136C148.561 375.96 164.234 370.453 180.407 365.279C189.911 397.991 202.416 432.038 217.922 466.92C202.583 501.634 190.244 535.515 180.907 568.06C164.4 562.886 148.727 557.211 134.221 551.036ZM223.925 789.533C201.249 776.515 191.411 726.946 199.081 663.191C200.915 647.503 203.916 630.98 207.585 614.124C240.265 622.135 275.946 628.31 313.461 632.315C335.97 663.191 359.313 691.23 382.823 715.764C328.467 766.334 277.446 794.039 242.766 794.039C235.263 793.872 228.927 792.37 223.925 789.533ZM619.419 662.357C627.256 726.112 617.585 775.681 595.076 788.866C590.074 791.87 583.571 793.205 575.901 793.205C541.387 793.205 490.2 765.667 435.844 715.431C459.187 690.897 482.53 663.025 504.706 632.148C542.388 628.143 578.069 621.968 610.749 613.79C614.584 630.646 617.585 646.835 619.419 662.357ZM683.612 551.036C669.273 557.211 653.6 562.719 637.426 567.893C627.923 535.181 615.417 501.134 599.911 466.252C615.251 431.537 627.589 397.657 636.926 365.112C653.433 370.286 669.106 375.96 683.779 382.136C742.803 407.337 780.985 440.383 780.985 466.586C780.818 492.789 742.636 526.001 683.612 551.036Z" fill="#7D7E7E" fill-opacity="0.81"/>
<path d="M408.834 542.857C450.917 542.857 485.032 508.709 485.032 466.585C485.032 424.461 450.917 390.312 408.834 390.312C366.752 390.312 332.637 424.461 332.637 466.585C332.637 508.709 366.752 542.857 408.834 542.857Z" fill="#7D7E7E" fill-opacity="0.81"/>
</svg>
