<svg width="185" height="72" viewBox="0 0 185 72" fill="none" xmlns="http://www.w3.org/2000/svg">
<g clip-path="url(#clip0_231_1860)">
<path d="M2.25006 11.9522L35.7661 0.000244141L69.2821 11.9522L64.1701 56.2682L35.7661 72.0002L7.36206 56.2682L2.25006 11.9522Z" fill="#DF1E34"/>
<path d="M64.4042 56.2057L36.0002 71.9377V-0.0622559L69.5162 11.8897L64.4042 56.2057Z" fill="#C52033"/>
<path d="M56.6786 54.9364H48.8666L44.6546 44.4244H35.7626H26.8706L22.6586 54.9364H14.8466L35.7626 7.95642L56.6786 54.9364Z" fill="white"/>
<path d="M29.6456 37.9443H35.7656H41.8856L35.7656 23.2203L29.6456 37.9443Z" fill="#C52033"/>
<path d="M29.6456 37.9443H35.7656V23.2203L29.6456 37.9443Z" fill="#EB0707"/>
</g>
<path d="M111.96 43L106.056 26.2H101.952L96.072 43H99.648L100.656 39.976H107.352L108.36 43H111.96ZM104.016 30.016L106.32 36.88H101.712L104.016 30.016ZM120.119 30.664C118.487 30.664 117.287 31.216 116.543 32.344V31H113.447V43H116.543V36.52C116.543 34.528 117.575 33.544 119.183 33.544C120.623 33.544 121.559 34.408 121.559 36.016V43H124.655V35.632C124.655 34.072 124.223 32.872 123.359 31.984C122.519 31.096 121.439 30.664 120.119 30.664ZM136.491 32.488C135.579 31.264 134.307 30.664 132.651 30.664C130.971 30.664 129.555 31.264 128.403 32.464C127.251 33.664 126.675 35.104 126.675 36.808C126.675 38.512 127.251 39.976 128.379 41.176C129.531 42.352 130.947 42.952 132.651 42.952C134.307 42.952 135.579 42.352 136.491 41.128V42.424C136.491 44.32 135.291 45.376 133.347 45.376C131.859 45.376 130.803 44.824 130.203 43.696L127.563 45.208C128.619 47.128 130.659 48.136 133.251 48.136C134.979 48.136 136.443 47.656 137.667 46.672C138.891 45.688 139.515 44.272 139.515 42.424V31H136.491V32.488ZM136.491 36.808C136.491 38.728 135.075 40.096 133.131 40.096C131.187 40.096 129.771 38.728 129.771 36.808C129.771 35.872 130.083 35.08 130.707 34.48C131.355 33.856 132.147 33.544 133.131 33.544C134.115 33.544 134.907 33.856 135.531 34.48C136.179 35.08 136.491 35.872 136.491 36.808ZM150.242 37.48C150.242 39.472 149.21 40.456 147.602 40.456C146.162 40.456 145.226 39.592 145.226 37.984V31H142.13V38.368C142.13 39.928 142.562 41.128 143.402 42.016C144.266 42.904 145.346 43.336 146.666 43.336C148.298 43.336 149.498 42.784 150.242 41.656V43H153.338V31H150.242V37.48ZM159.27 43V25.48H156.174V43H159.27ZM171.224 32.416C170.288 31.24 168.992 30.664 167.312 30.664C165.704 30.664 164.336 31.288 163.184 32.512C162.056 33.736 161.479 35.224 161.479 37C161.479 38.776 162.056 40.288 163.184 41.512C164.336 42.736 165.704 43.336 167.312 43.336C168.992 43.336 170.288 42.76 171.224 41.584V43H174.32V31H171.224V32.416ZM165.512 39.448C164.888 38.8 164.576 37.984 164.576 37C164.576 36.016 164.888 35.2 165.512 34.576C166.136 33.928 166.928 33.616 167.888 33.616C168.848 33.616 169.64 33.928 170.264 34.576C170.912 35.2 171.224 36.016 171.224 37C171.224 37.984 170.912 38.8 170.264 39.448C169.64 40.072 168.848 40.384 167.888 40.384C166.928 40.384 166.136 40.072 165.512 39.448ZM180.223 31H177.127V43H180.223V37.264C180.223 36.112 180.583 35.296 181.327 34.792C182.071 34.288 182.935 34.096 183.871 34.216V30.76C182.239 30.76 180.799 31.528 180.223 33.064V31Z" fill="#0C152A"/>
<defs>
<clipPath id="clip0_231_1860">
<rect width="72" height="72" fill="white"/>
</clipPath>
</defs>
</svg>
