<?xml version="1.0" encoding="utf-8"?>
<!-- Generator: Adobe Illustrator 26.1.0, SVG Export Plug-In . SVG Version: 6.00 Build 0)  -->
<svg version="1.1" id="Layer_1" xmlns="http://www.w3.org/2000/svg" xmlns:xlink="http://www.w3.org/1999/xlink" x="0px" y="0px"
	 viewBox="0 0 512 512" style="enable-background:new 0 0 512 512;" xml:space="preserve">
<style type="text/css">
	.st0{fill:#969696;}
	.st1{fill:#4A4A4A;}
	.st2{fill:url(#a_00000182488867987025973800000010713024839880911489_);}
	.st3{filter:url(#Adobe_OpacityMaskFilter);}
	.st4{fill:#FFFFFF;}
	.st5{mask:url(#c_00000032607362269639983700000010652506015274461097_);}
	.st6{fill:none;}
	.st7{fill:url(#SVGID_1_);}
	.st8{filter:url(#Adobe_OpacityMaskFilter_00000063611400779318296990000016512431876018141112_);}
	.st9{mask:url(#c_00000005964242589089100890000005899768373367874465_);}
	.st10{fillRule:evenodd;clipRule:evenodd;fill:url(#SVGID_00000068665198069886176080000009447043383161572279_);}
	.st11{fillRule:evenodd;clipRule:evenodd;fill:url(#SVGID_00000016055900147190546210000012376679594509730743_);}
	.st12{fillRule:evenodd;clipRule:evenodd;fill:url(#SVGID_00000158006871268058671110000018191606490917610942_);}
	.st13{fillRule:evenodd;clipRule:evenodd;fill:url(#SVGID_00000056386593513533453090000000269604361907458189_);}
	.st14{fillRule:evenodd;clipRule:evenodd;fill:url(#SVGID_00000090260538937690386760000015806276008859378343_);}
</style>
<g>
	<path class="st0" d="M253.1,412.1c-1.7,0-3.4-0.5-4.9-1.3l-15.4-9.1c-2.3-1.3-1.2-1.7-0.5-2c3.1-1,3.7-1.3,6.9-3.1
		c0.3-0.2,0.8-0.1,1.2,0.1l11.8,7c0.5,0.2,1,0.2,1.4,0l46.1-26.7c0.5-0.2,0.7-0.7,0.7-1.3v-53.3c0-0.6-0.2-1-0.7-1.3l-46.1-26.6
		c-0.5-0.2-1-0.2-1.4,0l-46.1,26.6c-0.5,0.2-0.7,0.8-0.7,1.3v53.3c0,0.5,0.2,1,0.7,1.3l12.6,7.3c6.8,3.5,11.1-0.6,11.1-4.6v-52.6
		c0-0.7,0.6-1.4,1.4-1.4h5.9c0.7,0,1.4,0.6,1.4,1.4v52.6c0,9.1-5,14.4-13.6,14.4c-2.7,0-4.7,0-10.6-2.9l-12.1-6.9
		c-3-1.7-4.9-5-4.9-8.4v-53.3c0-3.5,1.8-6.7,4.9-8.4l46.1-26.7c2.9-1.6,6.8-1.6,9.7,0l46.1,26.7c3,1.7,4.9,5,4.9,8.4v53.3
		c0,3.5-1.9,6.7-4.9,8.4L258,411.1C256.5,411.7,254.7,412.1,253.1,412.1L253.1,412.1z M267.3,375.5c-20.2,0-24.4-9.2-24.4-17.1
		c0-0.7,0.6-1.4,1.4-1.4h6c0.7,0,1.3,0.5,1.3,1.2c0.9,6.1,3.6,9.1,15.8,9.1c9.7,0,13.9-2.2,13.9-7.4c0-3-1.2-5.2-16.3-6.7
		c-12.6-1.3-20.5-4-20.5-14.1c0-9.4,7.9-14.9,21-14.9c14.8,0,22.1,5.1,23,16.2c0,0.3-0.1,0.7-0.3,1c-0.2,0.2-0.6,0.5-0.9,0.5h-6
		c-0.6,0-1.2-0.5-1.3-1c-1.4-6.4-5-8.4-14.4-8.4c-10.6,0-11.9,3.7-11.9,6.5c0,3.4,1.5,4.4,15.8,6.2c14.2,1.9,20.9,4.5,20.9,14.4
		C290.3,369.7,282,375.5,267.3,375.5z"/>
	<path class="st1" d="M110,203.7c0-2.1-1.2-4-3-5.1l-49-28.2c-0.8-0.5-1.7-0.7-2.7-0.8h-0.5c-0.9,0-1.8,0.3-2.7,0.8l-49,28.2
		c-1.9,1-3,3-3,5.1l0.1,75.8c0,1,0.6,2.1,1.5,2.5c0.9,0.6,2.1,0.6,2.9,0l29.1-16.6c1.8-1,3-3,3-5.1v-35.5c0-2.1,1.2-4,3-5.1
		l12.4-7.2c0.9-0.6,2-0.8,3-0.8s2.1,0.2,2.9,0.8l12.4,7.2c1.8,1,3,3,3,5.1v35.5c0,2.1,1.2,4,3,5.1l29.1,16.6c0.9,0.6,2.1,0.6,3,0
		c0.9-0.5,1.5-1.5,1.5-2.5C110.1,279.5,110,203.7,110,203.7z M345.6,99.3c-0.9-0.5-2.1-0.5-2.9,0c-0.9,0.6-1.5,1.5-1.5,2.5V177
		c0,0.7-0.3,1.4-1,1.8c-0.7,0.3-1.4,0.3-2.1,0l-12.3-7.1c-1.8-1-4.1-1-5.9,0l-49,28.3c-1.8,1-3,3-3,5.1v56.5c0,2.1,1.2,4,3,5.1
		l49,28.3c1.8,1,4.1,1,5.9,0l49-28.3c1.8-1,3-3,3-5.1V120.8c0-2.2-1.2-4.2-3-5.2L345.6,99.3L345.6,99.3z M341.1,243.1
		c0,0.6-0.2,1-0.7,1.3l-16.8,9.7c-0.5,0.2-1,0.2-1.5,0l-16.8-9.7c-0.5-0.2-0.7-0.8-0.7-1.3v-19.4c0-0.6,0.2-1,0.7-1.3l16.8-9.7
		c0.5-0.2,1-0.2,1.5,0l16.8,9.7c0.5,0.2,0.7,0.8,0.7,1.3V243.1L341.1,243.1z M508.6,223.2c1.9-1,2.9-3,2.9-5.1v-13.8
		c0-2.1-1.2-4-2.9-5.1L460,171.1c-1.8-1-4.1-1-5.9,0l-49,28.3c-1.9,1-3,3-3,5.1V261c0,2.1,1.2,4,3,5.1l48.7,27.7c1.9,1,4,1,5.8,0
		l29.5-16.4c0.9-0.5,1.5-1.5,1.5-2.5c0-1-0.6-2.1-1.5-2.5L439.8,244c-0.9-0.6-1.5-1.5-1.5-2.5v-17.7c0-1,0.6-2.1,1.5-2.5l15.4-8.8
		c0.9-0.6,2.1-0.6,3,0l15.4,8.8c0.9,0.6,1.5,1.5,1.5,2.5v13.9c0,1,0.6,2.1,1.5,2.5c0.9,0.6,2.1,0.6,3,0L508.6,223.2L508.6,223.2z"/>
	<path class="st0" d="M456.3,220.6c0.4-0.2,0.8-0.2,1.2,0l9.4,5.4c0.3,0.2,0.6,0.6,0.6,1v10.9c0,0.5-0.2,0.8-0.6,1l-9.4,5.4
		c-0.4,0.2-0.8,0.2-1.2,0l-9.4-5.4c-0.3-0.2-0.6-0.6-0.6-1v-10.9c0-0.5,0.2-0.8,0.6-1L456.3,220.6z"/>
	<g transform="translate(134.068 70.501)">
		<g>
			
				<linearGradient id="a_00000029038616478399074020000003219945245169291183_" gradientUnits="userSpaceOnUse" x1="-181.9367" y1="580.4077" x2="-182.3404" y2="579.6851" gradientTransform="matrix(108.989 0 0 -124.1841 19903.8613 72199.1641)">
				<stop  offset="0" style="stop-color:#969696"/>
				<stop  offset="0.3288" style="stop-color:#F2F2F2"/>
				<stop  offset="0.6352" style="stop-color:#A4A4A4"/>
				<stop  offset="0.9319" style="stop-color:#969696"/>
				<stop  offset="1" style="stop-color:#A0A0A0"/>
			</linearGradient>
			
				<path id="a_00000103966513100995749810000009373056882306421888_" style="fill:url(#a_00000029038616478399074020000003219945245169291183_);" d="
				M57.9,100.8c-1.8-1-4.1-1-5.9,0L3.4,128.9c-1.9,1-2.9,3-2.9,5.1v56.3c0,2.1,1.2,4,2.9,5.1L52,223.5c1.8,1,4.1,1,5.9,0l48.7-28.1
				c1.8-1,2.9-3,2.9-5.1V134c0-2.1-1.2-4-2.9-5.1L57.9,100.8z"/>
		</g>
		<defs>
			<filter id="Adobe_OpacityMaskFilter" filterUnits="userSpaceOnUse" x="0" y="100.1" width="109.8" height="124.4">
				<feColorMatrix  type="matrix" values="1 0 0 0 0  0 1 0 0 0  0 0 1 0 0  0 0 0 1 0"/>
			</filter>
		</defs>
		
			<mask maskUnits="userSpaceOnUse" x="0" y="100.1" width="109.8" height="124.4" id="c_00000032607362269639983700000010652506015274461097_">
			<g class="st3">
				<path id="a_00000026124878281064457820000012133945837726117256_" class="st4" d="M57.9,100.8c-1.8-1-4.1-1-5.9,0L3.4,128.9
					c-1.9,1-2.9,3-2.9,5.1v56.3c0,2.1,1.2,4,2.9,5.1L52,223.5c1.8,1,4.1,1,5.9,0l48.7-28.1c1.8-1,2.9-3,2.9-5.1V134
					c0-2.1-1.2-4-2.9-5.1L57.9,100.8z"/>
			</g>
		</mask>
		<g class="st5">
			<path class="st6" d="M51.9,100.8L3.1,128.9c-1.9,1-3.1,3-3.1,5.1v56.3c0,1.4,0.6,2.7,1.5,3.7l54.8-93.8
				C54.9,99.9,53.3,100,51.9,100.8L51.9,100.8z M56.6,224.1c0.5-0.1,0.9-0.3,1.4-0.6l48.8-28.1c1.8-1,3-3,3-5.1V134
				c0-1.5-0.7-3-1.7-4L56.6,224.1L56.6,224.1z"/>
			<linearGradient id="SVGID_1_" gradientUnits="userSpaceOnUse" x1="1.502" y1="162.3386" x2="107.948" y2="162.3386">
				<stop  offset="0.1376" style="stop-color:#969696"/>
				<stop  offset="0.4032" style="stop-color:#969696"/>
				<stop  offset="0.7136" style="stop-color:#BDBDBD"/>
				<stop  offset="0.9081" style="stop-color:#BDBDBD"/>
			</linearGradient>
			<path class="st7" d="M106.7,128.9l-48.9-28.1c-0.5-0.2-1-0.4-1.5-0.6L1.5,194.1c0.5,0.6,1,1,1.6,1.4L52,223.6
				c1.4,0.8,3,1,4.5,0.6l51.4-94.1C107.6,129.6,107.1,129.3,106.7,128.9L106.7,128.9z"/>
		</g>
		<defs>
			
				<filter id="Adobe_OpacityMaskFilter_00000146499385580614992610000001649238030255828904_" filterUnits="userSpaceOnUse" x="0" y="90.6" width="111.3" height="135.3">
				<feColorMatrix  type="matrix" values="1 0 0 0 0  0 1 0 0 0  0 0 1 0 0  0 0 0 1 0"/>
			</filter>
		</defs>
		
			<mask maskUnits="userSpaceOnUse" x="0" y="90.6" width="111.3" height="135.3" id="c_00000005964242589089100890000005899768373367874465_">
			<g style="filter:url(#Adobe_OpacityMaskFilter_00000146499385580614992610000001649238030255828904_);">
				<path id="a_00000052813469148149473190000010617847857603014824_" class="st4" d="M57.9,100.8c-1.8-1-4.1-1-5.9,0L3.4,128.9
					c-1.9,1-2.9,3-2.9,5.1v56.3c0,2.1,1.2,4,2.9,5.1L52,223.5c1.8,1,4.1,1,5.9,0l48.7-28.1c1.8-1,2.9-3,2.9-5.1V134
					c0-2.1-1.2-4-2.9-5.1L57.9,100.8z"/>
			</g>
		</mask>
		<g class="st9">
			<path class="st6" d="M109.8,190.3V134c0-2.1-1.3-4-3.1-5.1l-48.9-28.1c-0.6-0.3-1.2-0.6-1.8-0.7l53.5,91.4
				C109.7,191.2,109.8,190.8,109.8,190.3L109.8,190.3z M3.1,128.9c-1.8,1-3.1,3-3.1,5.1v56.3c0,2.1,1.4,4,3.1,5.1L52,223.5
				c1.2,0.7,2.4,0.9,3.8,0.7L3.5,128.8L3.1,128.9L3.1,128.9z"/>
			
				<linearGradient id="SVGID_00000076582438157165021800000010018622087776098975_" gradientUnits="userSpaceOnUse" x1="-174.1754" y1="-103.88" x2="-76.7584" y2="-103.88" gradientTransform="matrix(0.924 0 0 -0.347 169.8528 54.6902)">
				<stop  offset="9.192000e-02" style="stop-color:#6CC04A"/>
				<stop  offset="0.2864" style="stop-color:#66B848"/>
				<stop  offset="0.5968" style="stop-color:#54A044"/>
				<stop  offset="0.8624" style="stop-color:#41873F"/>
			</linearGradient>
			<path style="fillRule:evenodd;clipRule:evenodd;fill:url(#SVGID_00000076582438157165021800000010018622087776098975_);" d="
				M50.4,90.6l-0.7,0.3h0.9L50.4,90.6z"/>
			
				<linearGradient id="SVGID_00000013189127668452361150000015049378010771334060_" gradientUnits="userSpaceOnUse" x1="-182.6511" y1="580.0833" x2="-181.5922" y2="580.0833" gradientTransform="matrix(106.331 0 0 -124.2332 19420.1543 72227.7578)">
				<stop  offset="9.192000e-02" style="stop-color:#E9E9E9"/>
				<stop  offset="0.2864" style="stop-color:#CECECE"/>
				<stop  offset="0.5968" style="stop-color:#BABABA"/>
				<stop  offset="0.8624" style="stop-color:#A6A6A6"/>
			</linearGradient>
			<path style="fillRule:evenodd;clipRule:evenodd;fill:url(#SVGID_00000013189127668452361150000015049378010771334060_);" d="
				M106.8,195.4c1.4-0.8,2.4-2.2,2.9-3.7l-53.6-91.5c-1.4-0.2-2.9-0.1-4.2,0.7l-48.5,28l52.4,95.5c0.8-0.1,1.5-0.4,2.2-0.7
				L106.8,195.4L106.8,195.4z"/>
			
				<linearGradient id="SVGID_00000176014319768601148660000002583660321436735382_" gradientUnits="userSpaceOnUse" x1="-138.9954" y1="287.808" x2="-41.5784" y2="287.808" gradientTransform="matrix(0.347 0 0 -0.809 125.4776 427.1286)">
				<stop  offset="9.192000e-02" style="stop-color:#6CC04A"/>
				<stop  offset="0.2864" style="stop-color:#66B848"/>
				<stop  offset="0.5968" style="stop-color:#54A044"/>
				<stop  offset="0.8624" style="stop-color:#41873F"/>
			</linearGradient>
			<path style="fillRule:evenodd;clipRule:evenodd;fill:url(#SVGID_00000176014319768601148660000002583660321436735382_);" d="
				M111.3,194.5l-0.3-0.6v0.8L111.3,194.5L111.3,194.5z"/>
			
				<linearGradient id="SVGID_00000033359275628499330080000015574809077088019090_" gradientUnits="userSpaceOnUse" x1="-183.2159" y1="575.0655" x2="-181.1693" y2="575.0655" gradientTransform="matrix(55.014 0 0 -34.326 10078.126 19948.4355)">
				<stop  offset="9.192000e-02" style="stop-color:#6CC04A"/>
				<stop  offset="0.2864" style="stop-color:#66B848"/>
				<stop  offset="0.5968" style="stop-color:#54A044"/>
				<stop  offset="0.8624" style="stop-color:#41873F"/>
			</linearGradient>
			<path style="fillRule:evenodd;clipRule:evenodd;fill:url(#SVGID_00000033359275628499330080000015574809077088019090_);" d="
				M106.8,195.4L58,223.5c-0.7,0.4-1.4,0.6-2.2,0.7l0.9,1.7l54.1-31.3v-0.7l-1.4-2.3C109.2,193.2,108.2,194.6,106.8,195.4z"/>
			
				<linearGradient id="SVGID_00000151515884950666178760000006677677299327296907_" gradientUnits="userSpaceOnUse" x1="-180.873" y1="577.6767" x2="-182.1352" y2="573.55" gradientTransform="matrix(55.014 0 0 -34.326 10078.126 19948.4355)">
				<stop  offset="0" style="stop-color:#41873F"/>
				<stop  offset="0.3288" style="stop-color:#418B3D"/>
				<stop  offset="0.6352" style="stop-color:#419637"/>
				<stop  offset="0.9319" style="stop-color:#3FA92D"/>
				<stop  offset="1" style="stop-color:#3FAE2A"/>
			</linearGradient>
			<path style="fillRule:evenodd;clipRule:evenodd;fill:url(#SVGID_00000151515884950666178760000006677677299327296907_);" d="
				M106.8,195.4L58,223.5c-0.7,0.4-1.4,0.6-2.2,0.7l0.9,1.7l54.1-31.3v-0.7l-1.4-2.3C109.2,193.2,108.2,194.6,106.8,195.4z"/>
		</g>
	</g>
</g>
</svg>
