<svg width="236" height="33" viewBox="0 0 236 33" fill="none" xmlns="http://www.w3.org/2000/svg">
<g clip-path="url(#clip0)">
<path d="M0.446289 0.71159C2.64598 0.347953 5.57889 0.0752258 8.60346 0.0752258C13.8277 0.0752258 17.4939 1.16613 20.0602 3.34795C22.9931 5.8025 24.7345 9.62068 24.7345 15.1661C24.7345 21.0752 22.9014 25.257 20.0602 27.8934C17.2189 30.5298 12.8195 31.8934 7.32031 31.8934C4.47905 31.8934 2.18771 31.7116 0.446289 31.5298V0.71159ZM5.94551 27.348C6.67874 27.4389 7.59527 27.4389 8.60346 27.4389C14.8359 27.4389 18.9603 23.7116 18.9603 15.348C18.9603 8.34795 15.5691 4.34795 9.15339 4.34795C7.77858 4.34795 6.67874 4.52977 5.94551 4.71159V27.348Z" fill="#818181"/>
<path d="M34.3587 21.8025C34.4504 26.1662 37.475 27.8934 40.7745 27.8934C43.1575 27.8934 44.8989 27.5298 46.3654 26.8934L47.1903 30.7116C45.3572 31.5298 42.8825 32.0753 39.858 32.0753C32.8923 32.0753 28.9512 27.6207 28.9512 20.7116C28.9512 14.0752 32.709 8.6207 39.308 8.6207C45.9071 8.6207 48.3818 14.1662 48.3818 19.4389C48.3818 20.5298 48.2901 21.4389 48.1985 21.8934H34.3587V21.8025ZM43.2492 17.9843C43.2492 15.4389 42.241 12.348 39.0331 12.348C35.9169 12.348 34.542 15.5298 34.3587 17.9843H43.2492Z" fill="#818181"/>
<path d="M57.271 8.98431L60.5705 20.4389C61.1204 22.3479 61.5787 24.257 61.9453 26.1661H62.037C62.4036 24.257 62.8618 22.4389 63.4118 20.4389L66.6196 8.98431H72.3022L64.42 31.6207H59.104L51.3135 8.98431H57.271Z" fill="#818181"/>
<path d="M93.108 17.6207H82.4763V27.0753H94.3912V31.6207H76.9771V0.25708H93.7496V4.80254H82.4763V12.9844H93.0164V17.6207H93.108Z" fill="#818181"/>
<path d="M103.741 8.98431L106.124 13.257C106.765 14.5298 107.407 15.7116 107.957 16.8934H108.049C108.598 15.6207 109.24 14.4389 109.79 13.257L112.081 8.98431H117.947L110.981 19.8934L118.039 31.6207H111.806L109.332 27.0752C108.69 25.8934 108.049 24.7116 107.499 23.4389H107.407C106.857 24.7116 106.215 25.8934 105.574 27.0752L103.191 31.6207H97.2334L104.291 20.1661L97.6 8.98431H103.741Z" fill="#818181"/>
<path d="M129.403 2.62082V8.98446H134.535V13.0754H129.403V23.6208C129.403 26.3481 130.227 27.6208 132.152 27.6208C132.977 27.6208 133.71 27.5299 134.169 27.439L134.26 31.6208C133.435 31.8935 132.06 32.1663 130.319 32.1663C128.394 32.1663 126.653 31.5299 125.645 30.439C124.453 29.1663 123.903 27.2572 123.903 24.1663V13.0754H120.787V8.98446H123.903V3.98446L129.403 2.62082Z" fill="#818181"/>
<path d="M139.576 15.9844C139.576 13.2571 139.485 10.9844 139.393 8.98436H144.159L144.342 12.9844H144.526C145.534 10.0753 148.009 8.4389 150.3 8.4389C150.85 8.4389 151.125 8.4389 151.583 8.52981V13.8025C151.125 13.7116 150.667 13.7116 150.117 13.7116C147.642 13.7116 145.809 15.348 145.259 17.8934C145.167 18.4389 145.076 19.0753 145.076 19.7116V31.5298H139.576V15.9844Z" fill="#818181"/>
<path d="M159.741 21.8025C159.833 26.1662 162.857 27.8934 166.157 27.8934C168.54 27.8934 170.281 27.5298 171.748 26.8934L172.573 30.7116C170.74 31.5298 168.265 32.0753 165.24 32.0753C158.275 32.0753 154.333 27.6207 154.333 20.7116C154.333 14.0752 158.091 8.6207 164.69 8.6207C171.289 8.6207 173.764 14.1662 173.764 19.4389C173.764 20.5298 173.672 21.4389 173.581 21.8934H159.741V21.8025ZM168.632 17.9843C168.632 15.4389 167.623 12.348 164.415 12.348C161.299 12.348 159.924 15.5298 159.741 17.9843H168.632Z" fill="#818181"/>
<path d="M179.262 15.6207C179.262 12.9844 179.171 10.9844 179.079 8.98436H183.845L184.12 12.0753H184.212C185.312 10.348 187.328 8.4389 190.719 8.4389C193.56 8.4389 195.668 9.89345 196.585 12.348H196.677C197.41 11.1662 198.326 10.2571 199.335 9.62072C200.526 8.89345 201.809 8.4389 203.551 8.4389C207.308 8.4389 210.608 11.0753 210.608 17.8025V31.5298H205.2V18.7116C205.2 15.2571 204.192 12.9844 201.534 12.9844C199.793 12.9844 198.418 14.2571 197.868 15.8934C197.685 16.4389 197.593 17.0753 197.593 17.8025V31.6207H192.186V18.0753C192.186 15.2571 191.177 12.9844 188.703 12.9844C186.87 12.9844 185.495 14.4389 184.945 16.0753C184.762 16.6207 184.67 17.2571 184.67 17.9844V31.6207H179.262V15.6207V15.6207Z" fill="#818181"/>
<path d="M221.422 21.8025C221.514 26.1662 224.538 27.8934 227.838 27.8934C230.221 27.8934 231.962 27.5298 233.429 26.8934L234.254 30.7116C232.421 31.5298 229.946 32.0753 226.921 32.0753C219.956 32.0753 216.015 27.6207 216.015 20.7116C216.015 14.0752 219.772 8.6207 226.372 8.6207C232.971 8.6207 235.445 14.1662 235.445 19.4389C235.445 20.5298 235.354 21.4389 235.262 21.8934H221.422V21.8025ZM230.313 17.9843C230.313 15.4389 229.304 12.348 226.097 12.348C222.98 12.348 221.606 15.5298 221.422 17.9843H230.313Z" fill="#818181"/>
</g>
<defs>
<clipPath id="clip0">
<rect x="0.446289" y="0.0752258" width="235" height="32" fill="white"/>
</clipPath>
</defs>
</svg>
