<svg width="52" height="49" viewBox="0 0 52 49" fill="none" xmlns="http://www.w3.org/2000/svg">
<g clip-path="url(#clip0)">
<path d="M14.175 39.0972C13.8043 39.0972 13.4569 38.9583 13.1789 38.6803L1.08716 26.3106C-0.210042 24.967 -0.210042 22.7896 1.08716 21.4461L13.1789 9.07636C13.7117 8.52042 14.5919 8.52042 15.1479 9.0532C15.7038 9.58598 15.7038 10.4662 15.171 11.0222L3.07928 23.3919C2.82448 23.6698 2.82448 24.0868 3.07928 24.3648L15.171 36.7345C15.7038 37.2904 15.7038 38.1707 15.1479 38.7035C14.8699 38.9814 14.5224 39.0972 14.175 39.0972Z" fill="#818181"/>
<path d="M36.9685 39.0972C36.621 39.0972 36.2736 38.9583 35.9956 38.7035C35.4396 38.1707 35.4396 37.2904 35.9724 36.7345L48.0642 24.3648C48.319 24.0868 48.319 23.6698 48.0642 23.3919L35.9724 11.0222C35.4396 10.4662 35.4396 9.58598 35.9956 9.0532C36.5515 8.52042 37.4318 8.52042 37.9645 9.07636L50.0563 21.4461C51.3535 22.7896 51.3535 24.967 50.0563 26.3106L37.9645 38.6803C37.6866 38.9583 37.3159 39.0972 36.9685 39.0972Z" fill="#818181"/>
<path d="M16.1908 48.0618L38.9381 16.3731H27.6339L38.4284 0.088623H22.2598L13.7354 24.3416H24.2056L16.1908 48.0618Z" fill="#C2C2C2"/>
<path d="M16.1908 48.0618L31.8266 20.45H21.1479L30.0893 0.088623H22.2598L13.7354 24.3416H24.2056L16.1908 48.0618Z" fill="#DEDEDE"/>
</g>
<defs>
<clipPath id="clip0">
<rect x="0.114258" y="0.088623" width="50.915" height="47.9732" fill="white"/>
</clipPath>
</defs>
</svg>
