<svg width="162" height="72" viewBox="0 0 162 72" fill="none" xmlns="http://www.w3.org/2000/svg">
<path fill-rule="evenodd" clip-rule="evenodd" d="M35.8589 66.2727L-2.2132e-06 4.90907L72 4.90907L35.8589 66.2727ZM14.964 4.9091L35.7762 40.8428L56.7522 4.9091L14.964 4.9091Z" fill="#41B883"/>
<path fill-rule="evenodd" clip-rule="evenodd" d="M14.964 4.9091L35.7762 40.8428L56.7522 4.90911L14.964 4.9091ZM27.3858 4.90929L35.8232 18.73L44.327 4.90929L27.3858 4.90929Z" fill="#35495E"/>
<path d="M105.816 43L111.48 26.2H107.856L103.776 39.112L99.672 26.2H96.072L101.712 43H105.816ZM120.125 37.48C120.125 39.472 119.093 40.456 117.485 40.456C116.045 40.456 115.109 39.592 115.109 37.984V31H112.013V38.368C112.013 39.928 112.445 41.128 113.285 42.016C114.149 42.904 115.229 43.336 116.549 43.336C118.181 43.336 119.381 42.784 120.125 41.656V43H123.221V31H120.125V37.48ZM137.721 38.272C137.793 37.816 137.841 37.408 137.841 37C137.841 35.2 137.265 33.712 136.113 32.488C134.985 31.264 133.521 30.664 131.769 30.664C129.921 30.664 128.385 31.264 127.209 32.488C126.033 33.688 125.433 35.2 125.433 37C125.433 38.824 126.033 40.336 127.233 41.536C128.433 42.736 130.017 43.336 132.009 43.336C134.313 43.336 136.065 42.472 137.241 40.768L134.745 39.328C134.145 40.12 133.233 40.528 132.057 40.528C130.209 40.528 129.081 39.784 128.673 38.272H137.721ZM128.625 35.872C128.985 34.336 130.113 33.448 131.769 33.448C133.185 33.448 134.385 34.24 134.745 35.872H128.625ZM142.281 42.712C143.073 41.92 143.073 40.624 142.281 39.832C141.489 39.04 140.193 39.04 139.401 39.832C138.609 40.624 138.609 41.92 139.401 42.712C140.193 43.504 141.489 43.504 142.281 42.712ZM145.871 43.24C145.871 44.68 145.199 45.256 143.735 45.16V48.136C147.287 48.352 148.967 46.768 148.967 43.24V31H145.871V43.24ZM147.407 29.944C148.463 29.944 149.327 29.104 149.327 28.096C149.327 27.088 148.463 26.224 147.407 26.224C146.375 26.224 145.511 27.088 145.511 28.096C145.511 29.104 146.375 29.944 147.407 29.944ZM154.553 34.408C154.553 33.808 155.153 33.424 155.945 33.424C156.833 33.424 157.481 33.832 157.865 34.648L160.505 33.208C159.569 31.576 157.889 30.664 155.945 30.664C154.649 30.664 153.569 31 152.681 31.696C151.817 32.368 151.385 33.304 151.385 34.48C151.385 36.976 153.617 37.72 155.393 38.176C156.617 38.488 157.577 38.848 157.577 39.496C157.577 40.192 157.025 40.528 155.921 40.528C154.697 40.528 153.929 40 153.569 38.968L150.881 40.48C151.769 42.376 153.449 43.336 155.921 43.336C157.289 43.336 158.441 43 159.353 42.352C160.289 41.68 160.745 40.72 160.745 39.496C160.769 36.928 158.489 36.088 156.737 35.728C155.513 35.416 154.553 35.056 154.553 34.408Z" fill="#0C152A"/>
</svg>
