<svg width="53" height="53" viewBox="0 0 53 53" fill="none" xmlns="http://www.w3.org/2000/svg">
<g clip-path="url(#clip0)">
<path d="M26.0017 52.5395C40.3621 52.5395 52.0034 40.8981 52.0034 26.5378C52.0034 12.1774 40.3621 0.536072 26.0017 0.536072C11.6414 0.536072 0 12.1774 0 26.5378C0 40.8981 11.6414 52.5395 26.0017 52.5395Z" fill="#7F7F7F"/>
<path opacity="0.1" d="M7.9792 7.84903C5.33593 10.2045 3.20154 13.0749 1.70687 16.2844C0.212188 19.4939 -0.611291 22.9749 -0.713094 26.5139C-0.814898 30.0529 -0.192882 33.5754 1.11483 36.8655C2.42254 40.1556 4.38839 43.144 6.89188 45.6475C9.39537 48.151 12.3838 50.1169 15.6739 51.4246C18.964 52.7323 22.4865 53.3543 26.0255 53.2525C29.5645 53.1507 33.0455 52.3272 36.255 50.8325C39.4645 49.3378 42.3349 47.2035 44.6904 44.5602L7.9792 7.84903Z" fill="white"/>
<path d="M6.01284 30.8037C5.86117 30.8061 5.71064 30.777 5.57078 30.7183C5.43093 30.6595 5.30477 30.5724 5.20029 30.4624C5.09294 30.3564 5.0081 30.2297 4.95086 30.0901C4.89361 29.9505 4.86514 29.8008 4.86714 29.6499C4.86606 29.4991 4.89495 29.3496 4.95214 29.2102C5.00934 29.0707 5.09368 28.9439 5.20029 28.8373C5.30374 28.7255 5.42952 28.6366 5.56949 28.5764C5.70945 28.5162 5.86049 28.4861 6.01284 28.4879C6.16497 28.4875 6.31556 28.5184 6.45531 28.5785C6.59506 28.6385 6.72102 28.7266 6.82539 28.8373C6.93384 28.943 7.01993 29.0693 7.07856 29.2089C7.13718 29.3485 7.16715 29.4985 7.16667 29.6499C7.16809 29.8014 7.13855 29.9516 7.07987 30.0914C7.02118 30.2311 6.93459 30.3573 6.82539 30.4624C6.72003 30.5712 6.59371 30.6576 6.45405 30.7162C6.3144 30.7749 6.16431 30.8046 6.01284 30.8037Z" fill="white"/>
<path d="M22.1583 30.6005H20.0294L12.4157 18.786C12.2261 18.4949 12.0681 18.1844 11.9445 17.8597H11.8795C11.9518 18.5342 11.979 19.2129 11.9607 19.8911V30.6005H10.23V15.7877H12.4808L19.8912 27.3909C20.2 27.873 20.4004 28.2035 20.4925 28.3822H20.5332C20.4474 27.6597 20.4121 26.9321 20.4275 26.2046V15.7877H22.1583V30.6005Z" fill="white"/>
<path d="M33.8754 30.6005H26.0017V15.7877H33.5097V17.3559H27.7731V22.28H33.1197V23.8401H27.7731V28.9754H33.8835L33.8754 30.6005Z" fill="white"/>
<path d="M45.503 17.3559H41.1965V30.6005H39.4657V17.3559H35.2079V15.7877H45.503V17.3559Z" fill="white"/>
<path d="M21.224 40.6761C20.6373 40.9602 19.9902 41.0969 19.3388 41.0742C18.906 41.0937 18.474 41.0205 18.0717 40.8593C17.6695 40.6981 17.3064 40.4528 17.0068 40.1398C16.4098 39.4715 16.0952 38.5977 16.1292 37.7021C16.1074 37.2173 16.1832 36.7329 16.3521 36.2779C16.5209 35.8229 16.7795 35.4064 17.1124 35.0532C17.4369 34.7209 17.8269 34.4596 18.2578 34.2862C18.6886 34.1127 19.1509 34.0308 19.6151 34.0457C20.1707 34.0267 20.7241 34.1235 21.2402 34.33V35.1426C20.7433 34.8675 20.183 34.7274 19.6151 34.7363C19.2571 34.7262 18.9011 34.7936 18.5715 34.9339C18.242 35.0741 17.9466 35.2839 17.7056 35.5489C17.1988 36.1262 16.9366 36.878 16.9743 37.6453C16.9364 38.3721 17.1809 39.0854 17.6568 39.636C17.8851 39.8815 18.1638 40.0747 18.4738 40.2023C18.7837 40.3299 19.1177 40.389 19.4526 40.3754C20.0765 40.3918 20.6926 40.2342 21.2321 39.9204L21.224 40.6761Z" fill="#F2F2F2"/>
<path d="M24.5473 41.0743C24.2239 41.0848 23.902 41.0257 23.6033 40.9009C23.3047 40.7761 23.0364 40.5886 22.8166 40.3512C22.3723 39.8553 22.1416 39.2041 22.1747 38.5392C22.1544 38.1908 22.2036 37.8418 22.3193 37.5126C22.4351 37.1834 22.6152 36.8805 22.8491 36.6215C23.0878 36.3886 23.3718 36.2071 23.6835 36.0883C23.9951 35.9695 24.3279 35.9159 24.6611 35.9309C24.9761 35.9141 25.2909 35.9657 25.5841 36.0821C25.8772 36.1985 26.1417 36.377 26.3593 36.6053C26.7912 37.1258 27.0091 37.7909 26.9687 38.466C27.0028 39.1512 26.7665 39.8223 26.3106 40.3349C26.0866 40.577 25.8133 40.7683 25.5091 40.8958C25.205 41.0234 24.877 41.0843 24.5473 41.0743ZM24.6042 36.6297C24.3807 36.6203 24.1579 36.6614 23.9525 36.75C23.7471 36.8387 23.5644 36.9725 23.4179 37.1416C23.1052 37.5442 22.9493 38.0466 22.9791 38.5554C22.9507 39.0492 23.1071 39.5358 23.4179 39.9205C23.5659 40.0872 23.7491 40.2189 23.9543 40.306C24.1595 40.3931 24.3815 40.4335 24.6042 40.4243C24.8223 40.4372 25.0404 40.3999 25.2418 40.3154C25.4432 40.2309 25.6226 40.1014 25.7662 39.9368C26.0616 39.5331 26.2054 39.0383 26.1724 38.5392C26.2046 38.0376 26.0609 37.5405 25.7662 37.1335C25.6246 36.9654 25.446 36.8325 25.2444 36.7451C25.0428 36.6576 24.8236 36.6182 24.6042 36.6297Z" fill="#F2F2F2"/>
<path d="M30.7633 36.8734C30.5878 36.7584 30.3795 36.7042 30.1702 36.719C30.0065 36.725 29.8468 36.7711 29.7051 36.8533C29.5634 36.9354 29.4441 37.0512 29.3576 37.1903C29.1158 37.5732 28.9993 38.022 29.0245 38.4741V40.9606H28.2119V36.0852H29.0245V37.1009C29.1138 36.7867 29.2915 36.5046 29.5364 36.2884C29.7483 36.1045 30.0196 36.0035 30.3002 36.004C30.4573 35.9969 30.6143 36.019 30.7633 36.069V36.8734Z" fill="#F2F2F2"/>
<path d="M35.5248 38.726H32.0877C32.0646 39.1802 32.2124 39.6267 32.5021 39.9773C32.6527 40.1276 32.8333 40.2443 33.0321 40.3199C33.231 40.3955 33.4435 40.4283 33.6559 40.4161C34.2067 40.4106 34.7394 40.2187 35.1672 39.8717V40.603C34.6649 40.9341 34.0699 41.0964 33.469 41.0662C33.1658 41.0815 32.8629 41.0297 32.582 40.9145C32.3011 40.7993 32.0491 40.6236 31.8439 40.3999C31.4209 39.8722 31.2094 39.206 31.2507 38.531C31.2215 37.8543 31.451 37.1919 31.8926 36.6784C32.0936 36.4462 32.3437 36.2616 32.6247 36.138C32.9058 36.0143 33.2108 35.9546 33.5178 35.9633C33.7949 35.9478 34.072 35.9953 34.3281 36.1023C34.5842 36.2092 34.8128 36.3729 34.9966 36.5809C35.3707 37.0742 35.5553 37.6855 35.5166 38.3035L35.5248 38.726ZM34.7122 38.0678C34.7287 37.6913 34.6138 37.3208 34.3872 37.0196C34.276 36.894 34.1379 36.7951 33.9831 36.7304C33.8283 36.6657 33.6609 36.6368 33.4934 36.6459C33.3185 36.6437 33.1451 36.678 32.9842 36.7466C32.8234 36.8151 32.6785 36.9164 32.5589 37.044C32.2915 37.3269 32.1232 37.6891 32.0795 38.076L34.7122 38.0678Z" fill="#F2F2F2"/>
</g>
<defs>
<clipPath id="clip0">
<rect y="0.536072" width="52.0034" height="52.0034" fill="white"/>
</clipPath>
</defs>
</svg>
