<svg width="77" height="63" viewBox="0 0 77 63" fill="none" xmlns="http://www.w3.org/2000/svg">
<g clip-path="url(#clip0)">
<path d="M52.1524 20.2525L43.7489 23.0246L36.438 26.2843L34.3926 26.8297C33.8717 27.3303 33.3255 27.8373 32.7348 28.3506C32.0869 28.9152 31.4835 29.4286 31.0197 29.8007C30.5053 30.2115 29.7431 30.9814 29.3556 31.469C28.7776 32.2005 28.3203 32.9769 28.1233 33.5738C27.774 34.6518 27.9455 35.7426 28.6188 36.7502C29.4827 38.0334 31.204 39.3424 33.2112 40.2344C34.2339 40.69 35.9552 41.2739 37.2509 41.6011C39.4041 42.153 43.571 42.7498 45.864 42.8397C46.3276 42.8589 46.9501 42.8589 46.9755 42.8397C47.0264 42.8075 47.3821 42.121 47.795 41.2676C49.2051 38.3607 50.2214 35.6336 50.7739 33.3043C51.1042 31.8927 51.3646 30.0125 51.5361 27.786C51.5806 27.1636 51.5996 25.0781 51.5615 24.3722C51.5043 23.2172 51.4026 22.2804 51.244 21.3628C51.2186 21.228 51.2121 21.1061 51.2249 21.0997C51.2502 21.0804 51.3264 21.0548 52.3618 20.7531L52.1523 20.2527V20.2525H52.1524V20.2525ZM50.2341 21.3883C50.3104 21.3883 50.5136 23.3582 50.5643 24.6032C50.5771 24.8662 50.5707 25.0395 50.558 25.0395C50.5073 25.0395 49.4845 24.43 48.7542 23.968C48.119 23.5637 46.9122 22.7551 46.7216 22.6011C46.658 22.5563 46.6643 22.5499 47.1853 22.3701C48.0681 22.0685 50.1643 21.3883 50.2341 21.3883ZM45.953 22.8129C46.0102 22.8129 46.1562 22.8962 46.5056 23.1144C47.814 23.9422 49.5926 24.9433 50.3548 25.277C50.5898 25.3796 50.6151 25.3411 50.0753 25.7133C48.9193 26.509 47.4773 27.2918 45.7115 28.0811C45.4003 28.2222 45.1399 28.3313 45.1336 28.3313C45.1209 28.3313 45.1589 28.1709 45.2097 27.9784C45.6353 26.3805 45.8767 24.7635 45.8895 23.4673C45.8958 22.8256 45.8958 22.8256 45.953 22.8065C45.9402 22.8129 45.9465 22.8129 45.953 22.8129ZM45.0701 23.1529C45.1081 23.1914 45.0828 24.6288 45.0319 25.0202C44.9176 25.9571 44.7397 26.8297 44.4477 27.8116C44.3778 28.0488 44.3141 28.2479 44.3016 28.2607C44.276 28.2927 43.4058 27.4329 43.12 27.0992C42.6245 26.5217 42.2372 25.9442 41.9513 25.3795C41.8052 25.0908 41.5766 24.5262 41.5956 24.5069C41.6972 24.4363 45.0447 23.1273 45.0701 23.1529ZM40.9159 24.802C40.9223 24.802 40.9286 24.802 40.935 24.8084C40.9477 24.8213 40.9922 24.924 41.0303 25.0394C41.2335 25.5977 41.6908 26.419 42.0847 26.9452C42.5166 27.5228 43.082 28.1387 43.5519 28.543C43.7044 28.6713 43.8441 28.7932 43.8631 28.8125C43.9013 28.851 43.914 28.8445 42.8786 29.2424C41.6782 29.7044 40.3697 30.1664 38.8706 30.6541C38.5125 30.7707 38.1547 30.8883 37.7973 31.007C37.74 31.0263 37.7591 30.9942 37.9243 30.7311C38.6674 29.5568 39.798 27.2532 40.4332 25.6234C40.5412 25.341 40.6492 25.0587 40.6683 24.9945C40.6937 24.9046 40.7254 24.8726 40.8079 24.8276C40.8524 24.8149 40.8969 24.802 40.9159 24.802ZM39.6457 25.3346C39.6647 25.3475 39.3407 26.034 39.0231 26.6629C38.407 27.8756 37.7337 29.0692 36.8318 30.5194C36.6793 30.7696 36.5333 31.0007 36.5142 31.0263C36.4825 31.0713 36.4697 31.0584 36.3681 30.8595C36.1521 30.4296 35.9742 29.8777 35.879 29.3707C35.7836 28.8702 35.8027 27.9976 35.9108 27.4586C35.9932 27.0608 35.987 27.0672 36.1775 26.9709C36.9905 26.5538 39.6203 25.309 39.6457 25.3346ZM50.6025 25.7839V26.0533C50.6025 27.4843 50.4501 29.4478 50.2277 30.8788C50.1896 31.129 50.1577 31.3343 50.1515 31.3408C50.1515 31.3408 49.9673 31.2895 49.7514 31.2252C48.7986 30.9236 47.7632 30.4809 46.8295 29.9612C46.2133 29.6211 45.3177 29.0628 45.3432 29.0371C45.3494 29.0307 45.6163 28.8895 45.9275 28.7227C47.1726 28.0682 48.3666 27.3624 49.402 26.6629C49.7895 26.3998 50.3737 25.9764 50.5009 25.8608L50.6025 25.7839ZM34.8499 27.6831C34.8753 27.6831 34.869 27.7344 34.8309 27.9654C34.8055 28.1323 34.7737 28.4403 34.7611 28.652C34.7102 29.5889 34.8627 30.2819 35.32 31.2316C35.4471 31.4947 35.5488 31.7129 35.5423 31.7192C35.4978 31.7578 31.293 33.0027 29.9717 33.3684C29.5779 33.4774 29.235 33.5737 29.2095 33.58C29.1651 33.5929 29.1587 33.5866 29.1777 33.4774C29.3238 32.5342 30.0353 31.3021 31.0261 30.2626C31.6867 29.5696 32.214 29.1654 33.1159 28.6455C33.7638 28.2734 34.761 27.7153 34.8372 27.6895C34.8373 27.6831 34.8436 27.6831 34.8499 27.6831ZM44.7588 29.4734C44.7652 29.467 44.9176 29.5505 45.1018 29.6595C46.4611 30.4552 48.3539 31.1932 49.9672 31.5717L50.1134 31.6038L49.9101 31.7192C49.0653 32.1941 46.2896 33.3619 43.4504 34.4336C43.0374 34.5875 42.631 34.7416 42.5546 34.7736C42.4784 34.8057 42.4085 34.825 42.4085 34.8186C42.4085 34.8121 42.5229 34.5875 42.6689 34.3116C43.4629 32.8101 44.2633 30.9814 44.6698 29.7108C44.7207 29.5889 44.7524 29.4799 44.7588 29.4734ZM43.7489 29.8071C43.7553 29.8136 43.7045 29.9483 43.6409 30.1023C43.0883 31.4562 42.3641 32.9321 41.4368 34.5876C41.2018 35.0112 41.0049 35.3513 40.9984 35.3513C40.9922 35.3513 40.8016 35.2357 40.5729 35.0946C39.2263 34.2604 38.0322 33.2337 37.251 32.2391L37.1366 32.0979L37.7145 31.9375C39.7853 31.3664 41.5447 30.7504 43.2915 29.9933C43.5393 29.8906 43.7426 29.8071 43.7489 29.8071ZM50.0245 32.0209C50.0245 32.0209 50.0309 32.0273 50.0245 32.0209C50.0308 32.1685 49.7069 33.4904 49.4401 34.4464C49.2178 35.2485 49.0271 35.8774 48.6779 36.9874C48.5254 37.4752 48.3921 37.8793 48.3857 37.8793C48.3794 37.8793 48.3413 37.8729 48.3032 37.8602C46.4167 37.5135 44.7271 37.0323 43.1391 36.3907C42.6944 36.211 42.0593 35.9222 42.0212 35.8901C42.0085 35.8772 42.3897 35.6976 42.8724 35.4859C45.7625 34.2089 48.7605 32.7587 49.7895 32.1364C49.9101 32.0594 50.0054 32.0209 50.0245 32.0209ZM35.536 32.5214C35.5487 32.5342 34.742 33.7085 33.6113 35.3063C33.2175 35.8646 32.7602 36.519 32.5888 36.7628C32.4172 37.0067 32.1568 37.3917 32.0107 37.6227L31.7438 38.0398L31.458 37.796C31.1213 37.5136 30.537 36.9105 30.2766 36.5768C29.7303 35.8903 29.362 35.1652 29.2159 34.5043C29.146 34.1962 29.146 34.0422 29.2094 34.023C29.3047 33.9974 31.0006 33.5931 32.5887 33.2208C33.4716 33.0156 34.4942 32.7717 34.8626 32.6819C35.231 32.5919 35.5297 32.5214 35.536 32.5214ZM36.349 32.8359L36.5522 33.0668C37.4669 34.0999 38.4006 34.8637 39.5313 35.5309C39.7346 35.6464 39.887 35.749 39.8742 35.7556C39.8299 35.7876 35.9488 37.1799 34.1512 37.8088C33.1414 38.1681 32.3092 38.4569 32.3029 38.4569C32.2966 38.4569 32.2394 38.4184 32.1758 38.3735L32.0615 38.29L32.2457 38.0206C32.8427 37.1479 33.5924 36.1918 35.2248 34.2026L36.349 32.8359ZM41.4178 36.4998C41.4241 36.4934 41.7036 36.596 42.0465 36.7245C42.8724 37.0388 43.5265 37.2377 44.4031 37.4623C45.483 37.7383 47.0455 38.0078 47.9666 38.0848C48.1063 38.0975 48.1825 38.1104 48.1571 38.1297C48.1125 38.1554 47.1789 38.4698 46.4929 38.688C45.4003 39.0344 42.0656 40.029 39.3471 40.8183C38.8453 40.9659 38.4133 41.0878 38.3879 41.0942C38.3245 41.1071 38.1148 41.0492 38.1148 41.0236C38.1148 41.0108 38.2672 40.8119 38.4515 40.5937C39.3661 39.49 40.2745 38.258 41.0303 37.0902C41.2399 36.7692 41.4178 36.5062 41.4178 36.4998ZM40.2998 36.5319C40.3061 36.5383 39.8552 37.2698 39.0677 38.5275C38.7309 39.06 38.3562 39.6632 38.2227 39.875C38.0957 40.0803 37.9052 40.4012 37.7972 40.5808L37.613 40.9081L37.5177 40.8824C37.289 40.8183 35.682 40.2471 35.2564 40.0739C34.7292 39.8621 34.183 39.6055 33.7764 39.3873C33.2683 39.1114 32.6332 38.7007 32.684 38.6879C32.6966 38.6815 33.5669 38.444 34.6149 38.1553C37.397 37.3916 38.9404 36.9489 39.9505 36.6281C40.1347 36.5704 40.2935 36.5254 40.2998 36.5319ZM48.2078 38.4055H48.2142C48.2396 38.4698 47.2107 41.3573 46.8358 42.2684C46.7533 42.4737 46.7216 42.5252 46.6771 42.5186C46.5691 42.5123 45.0765 42.3005 44.168 42.1658C42.5865 41.9219 39.9314 41.4534 39.2645 41.2995L39.1121 41.2675L40.0584 41.0492C42.091 40.5872 43.0692 40.3369 44.0601 40.0289C45.3114 39.6439 46.5501 39.1627 47.8013 38.5724C47.9982 38.4825 48.1634 38.4119 48.2078 38.4055Z" fill="url(#paint0_linear)"/>
<path d="M43.4885 0.463097C43.3488 0.443952 41.0938 1.26529 39.6393 1.86197C37.6765 2.67059 36.1521 3.44064 35.212 4.10784C34.8627 4.35821 34.4244 4.80091 34.3546 4.97413C34.3292 5.03831 34.3164 5.1153 34.3164 5.19229L35.1676 6.00724L37.1938 6.66174L42.0149 7.53445L47.5282 8.49057L47.5854 8.00931C47.5664 8.00931 47.5536 8.00292 47.5347 8.00292L46.8104 7.88737L46.6645 7.62431C45.9149 6.28959 45.0892 4.63405 44.6065 3.51752C44.2318 2.65123 43.876 1.65032 43.6791 0.931599C43.5711 0.495262 43.5584 0.469607 43.4886 0.463216V0.463067H43.4885V0.463097ZM43.3867 0.790454H43.3933C43.3995 0.796786 43.4249 0.976576 43.4504 1.18821C43.5583 2.08668 43.7553 2.95282 44.0665 3.8897C44.3015 4.59558 44.3015 4.55711 44.0284 4.47364C43.3805 4.29402 40.4778 3.78708 38.3753 3.49192C38.0386 3.44697 37.7528 3.40209 37.7528 3.39569C37.7274 3.37004 39.2708 2.55504 39.9505 2.23428C40.8207 1.82993 43.209 0.8225 43.3867 0.790454ZM37.2636 3.66514L37.5114 3.74847C38.8579 4.21055 42.2434 4.86509 44.1109 5.01907C44.3205 5.03834 44.4984 5.05763 44.5047 5.05763C44.511 5.06402 44.3332 5.16028 44.1045 5.26932C43.2027 5.72492 42.2117 6.2832 41.5257 6.71314C41.3225 6.84142 41.1382 6.94415 41.1129 6.94415C41.0875 6.94415 40.9541 6.91847 40.8144 6.89921L40.5603 6.86065L39.9252 6.23177C38.8073 5.13456 37.9307 4.28757 37.594 3.96667L37.2636 3.66514ZM37.0096 3.86402L37.9052 4.99342C38.3943 5.61585 38.8897 6.22541 38.9978 6.3601C39.1057 6.49494 39.1947 6.60407 39.1883 6.61047C39.1629 6.6297 37.8926 6.3794 37.2192 6.22547C36.5269 6.065 36.2411 5.988 35.8155 5.85331L35.4661 5.73776V5.64787C35.4725 5.21792 36.0124 4.57629 36.9271 3.92184L37.0096 3.86402ZM44.6191 5.40407C44.6445 5.40407 44.6762 5.4618 44.7524 5.63505C44.9684 6.11628 45.6418 7.41254 45.8068 7.66275C45.8578 7.74626 45.9465 7.75265 45.051 7.60505C42.8978 7.25204 42.2054 7.13667 42.2054 7.12383C42.2054 7.11743 42.2689 7.07249 42.3515 7.02754C43.0185 6.65544 43.6917 6.18055 44.2888 5.67361C44.4349 5.55167 44.5683 5.43618 44.5937 5.41688C44.6 5.40407 44.6128 5.39768 44.6191 5.40407Z" fill="url(#paint1_linear)"/>
<path d="M34.3988 4.88426C34.3988 4.88426 34.2592 5.10894 34.3925 5.44263C34.4752 5.6479 34.7165 5.89811 34.9896 6.15484C34.9896 6.15484 37.8162 8.93969 38.1592 9.33759C39.7217 11.1599 40.4014 12.9566 40.4649 15.4335C40.503 17.0249 40.2044 18.4237 39.4613 20.0472C38.1401 22.9605 35.3516 26.1753 31.0514 29.743L31.6803 29.5313C32.0868 29.2232 32.6395 28.896 33.9352 28.1773C36.9269 26.5217 40.2934 25.0009 44.4221 23.4353C50.3673 21.1765 60.1428 18.5327 65.7069 17.673L66.285 17.5831L66.1961 17.4419C65.688 16.6462 65.3385 16.1522 64.9193 15.626C63.6998 14.0988 62.2199 12.8604 60.4096 11.8337C57.9197 10.4285 54.6992 9.3312 50.6214 8.51626C49.8528 8.36218 48.1632 8.06705 46.7913 7.8553C43.8821 7.39982 42.0019 7.08533 39.9313 6.72599C39.1882 6.5976 38.0765 6.40514 37.3397 6.24476C36.9586 6.16126 36.2282 5.98804 35.6566 5.78913C35.1992 5.60937 34.5386 5.4297 34.3988 4.88426ZM36.0377 6.48853C36.044 6.48219 36.1456 6.52057 36.2791 6.56552C36.5204 6.64885 36.8316 6.74513 37.2001 6.84787C37.4789 6.92533 37.7584 7.00019 38.0386 7.07243C38.4197 7.16863 38.7372 7.25849 38.7435 7.25849C38.7881 7.30344 39.4296 9.37591 39.6456 10.1716C39.7281 10.4733 39.7917 10.7299 39.7853 10.7299C39.7788 10.7364 39.709 10.6273 39.6265 10.4797C38.8833 9.1578 37.7082 7.81671 36.3489 6.73865C36.1711 6.61044 36.0377 6.49492 36.0377 6.48853ZM39.1628 7.3612C39.1946 7.3612 39.3343 7.38046 39.5057 7.41893C40.5856 7.66275 42.5229 8.03494 43.7615 8.24672C43.9711 8.27876 44.1363 8.31735 44.1363 8.3301C44.1363 8.343 44.06 8.38783 43.9647 8.43923C43.7552 8.54827 42.9103 9.05515 42.6309 9.2477C41.9258 9.72253 41.2907 10.2359 40.8333 10.6979C40.6491 10.884 40.4903 11.038 40.4903 11.038C40.4903 11.038 40.4523 10.9289 40.4204 10.7941C40.1918 9.90214 39.7154 8.58026 39.2834 7.64988C39.2136 7.50235 39.1564 7.36756 39.1564 7.35478C39.1564 7.36759 39.1564 7.3612 39.1628 7.3612ZM44.6634 8.41997C44.7016 8.43275 44.7651 8.65095 44.8921 9.13217C45.1271 10.0627 45.2351 11.1022 45.197 12.0711C45.1843 12.3406 45.1716 12.5908 45.1588 12.623L45.1398 12.6871L44.8095 12.578C44.1299 12.3599 43.0247 12.0325 42.0783 11.7631C41.5383 11.6155 41.1002 11.4808 41.1002 11.4679C41.1002 11.4294 41.8878 10.6337 42.2244 10.3322C42.8658 9.761 44.6062 8.40068 44.6634 8.41997ZM45.1017 8.48406C45.1208 8.46492 47.7314 8.9204 48.9192 9.15144C49.8022 9.32466 51.0852 9.5942 51.1614 9.62633C51.1995 9.63912 51.0661 9.71611 50.6405 9.90859C48.9636 10.6723 47.7186 11.3588 46.4801 12.193C46.1562 12.4112 45.883 12.5908 45.8767 12.5908C45.8704 12.5908 45.864 12.4048 45.864 12.1802C45.864 10.961 45.6226 9.72898 45.1779 8.68948C45.1335 8.5868 45.0954 8.49057 45.1017 8.48406ZM51.8537 9.83166C51.8728 9.85089 51.7902 10.3707 51.7139 10.6786C51.4853 11.6348 50.8692 13.053 50.1134 14.3876C49.9799 14.625 49.8593 14.8175 49.8465 14.8239C49.8339 14.8303 49.6624 14.734 49.4654 14.6185C48.7286 14.1822 47.8902 13.7715 46.9755 13.3865C46.7215 13.2774 46.4991 13.1875 46.4928 13.1748C46.4482 13.1363 48.4936 11.7695 49.5734 11.115C50.4309 10.5888 51.8283 9.80594 51.8537 9.83166ZM52.3364 9.90862C52.3936 9.90862 53.5497 10.2295 54.153 10.4092C55.6457 10.8584 57.3607 11.4936 58.4786 12.0069L58.9422 12.2188L58.6184 12.2957C55.8872 12.9309 53.5497 13.6625 51.2947 14.5865C51.1105 14.6635 50.9453 14.7277 50.9328 14.7277C50.92 14.7277 50.9835 14.5801 51.0661 14.4004C51.7458 12.9438 52.184 11.423 52.2919 10.1268C52.2984 10.0048 52.3173 9.90862 52.3364 9.90862ZM40.827 12.578C40.846 12.5588 41.7289 12.7706 42.2053 12.9052C42.9294 13.1106 44.4665 13.6303 44.4665 13.6689C44.4665 13.6753 44.2951 13.8228 44.0919 14.0026C43.2598 14.702 42.4594 15.4398 41.5002 16.3767C41.2143 16.6527 40.9731 16.8773 40.9604 16.8773C40.9476 16.8773 40.9414 16.8387 40.9476 16.7874C41.0937 15.7093 41.062 14.3234 40.8588 12.9181C40.8396 12.7384 40.8206 12.5844 40.827 12.578ZM59.3807 12.5973C59.3932 12.6101 58.9741 13.2774 58.7073 13.656C58.3263 14.2078 57.7672 14.9395 56.5032 16.5436C55.8363 17.3906 55.0867 18.3467 54.8391 18.6676C54.5849 18.9884 54.3754 19.2578 54.3689 19.2578C54.3626 19.2578 54.2802 19.1424 54.1912 19.0013C53.4797 17.9232 52.6286 16.9799 51.6186 16.1329C51.4281 15.9725 51.2186 15.7992 51.1487 15.7479C51.0788 15.6966 51.0216 15.6452 51.0216 15.6388C51.0216 15.6196 52.1013 15.1511 52.9208 14.8175C54.3563 14.2271 56.3125 13.5213 57.7799 13.0657C58.5485 12.8219 59.3679 12.5844 59.3807 12.5973ZM59.8697 12.7256C59.895 12.7192 60.0476 12.7962 60.2318 12.9052C61.7753 13.7971 63.2869 14.9458 64.4812 16.1265C64.8178 16.4602 65.6499 17.3329 65.6371 17.3393C65.6371 17.3393 65.3449 17.3649 65.002 17.3906C62.3279 17.596 58.9043 18.167 55.614 18.9691C55.3917 19.0203 55.1949 19.0653 55.1821 19.0653C55.1695 19.0653 55.4171 18.8151 55.7284 18.5135C57.6593 16.6334 58.5423 15.4463 59.5839 13.3287C59.73 13.0144 59.8571 12.7449 59.8697 12.7256C59.8634 12.7256 59.8634 12.7256 59.8697 12.7256ZM45.7242 14.1887C45.8132 14.2078 46.6389 14.5994 47.2614 14.9137C47.833 15.2024 48.6906 15.6645 48.735 15.703C48.7413 15.7093 48.4364 15.8698 48.0618 16.0559C46.8675 16.6591 45.8449 17.2301 44.7778 17.8846C44.4729 18.0708 44.2188 18.2248 44.2125 18.2248C44.1871 18.2248 44.1934 18.199 44.3649 17.8846C44.9366 16.8324 45.3939 15.5747 45.6544 14.349C45.6797 14.2528 45.7052 14.1887 45.7242 14.1887ZM44.8984 14.3426C44.9175 14.3619 44.7016 15.1511 44.5682 15.5811C44.3077 16.396 43.8695 17.4163 43.444 18.1863C43.3422 18.3659 43.1898 18.629 43.1072 18.7765L42.9485 19.0332L42.5928 18.6868C42.1799 18.2825 41.8432 18.0323 41.4114 17.8076C41.2398 17.7179 41.1064 17.6408 41.1064 17.628C41.1064 17.5767 42.1926 16.5821 43.0247 15.8634C43.6217 15.3436 44.8794 14.3234 44.8984 14.3426ZM49.9482 16.441L50.2595 16.6462C50.9708 17.1147 51.8092 17.7371 52.4508 18.2825C52.8128 18.584 53.5115 19.2194 53.6513 19.3734L53.7274 19.4569L53.213 19.6044C50.3039 20.4193 48.0553 21.1444 45.432 22.1198C45.1398 22.2288 44.8921 22.3187 44.873 22.3187C44.835 22.3187 44.8031 22.3507 45.4575 21.7411C47.1344 20.182 48.6206 18.4622 49.7259 16.7874L49.9482 16.441ZM48.6207 16.7746C48.6333 16.7874 47.7632 18.0258 47.2423 18.7253C46.6198 19.5595 45.5145 20.9583 44.7523 21.8694C44.4348 22.2481 44.1618 22.5625 44.149 22.5689C44.1299 22.5753 44.1236 22.4791 44.1236 22.3315C44.1236 21.555 43.9267 20.7272 43.5836 20.0214C43.4375 19.7263 43.4121 19.6557 43.444 19.6236C43.5646 19.5145 45.413 18.4493 46.5817 17.8141C47.3693 17.3906 48.6015 16.7618 48.6207 16.7746ZM40.5919 18.7638C40.611 18.7638 40.7571 18.8408 40.9223 18.9307C41.3288 19.1552 41.6908 19.4055 42.0147 19.675C42.0274 19.6878 41.8623 19.8226 41.6464 19.9829C41.0429 20.4193 40.1283 21.1188 39.5948 21.5487C39.0357 21.9979 39.0168 22.0107 39.0802 21.9145C39.4995 21.2664 39.709 20.9006 39.9314 20.4322C40.1283 20.0152 40.3251 19.521 40.4649 19.0911C40.5157 18.905 40.5792 18.7638 40.5919 18.7638ZM42.7325 20.4578C42.7642 20.4515 42.8024 20.5091 42.9738 20.7659C43.3359 21.3112 43.6154 22.0428 43.6854 22.6331L43.6979 22.7615L42.8279 23.1016C41.2716 23.7112 39.8361 24.3144 38.8642 24.7635C38.5911 24.8919 38.1147 25.1228 37.8035 25.2769C37.4923 25.4372 37.2382 25.5592 37.2382 25.5528C37.2382 25.5464 37.4351 25.3988 37.6764 25.2191C39.5757 23.8267 41.2208 22.2994 42.453 20.7723C42.5864 20.6118 42.7072 20.4642 42.7198 20.4578L42.7325 20.4578ZM41.748 20.7017C41.7734 20.7273 41.0494 21.5551 40.5539 22.062C39.328 23.3262 38.1148 24.3144 36.6094 25.2769C36.4188 25.3988 36.2473 25.5079 36.2283 25.5208C36.1838 25.5464 36.2409 25.4822 36.9015 24.7571C37.3208 24.3015 37.6383 23.9165 38.0004 23.4417C38.2418 23.1273 38.2862 23.0824 38.6357 22.832C39.5694 22.1518 41.7226 20.676 41.748 20.7017Z" fill="url(#paint2_radial)"/>
<path d="M14.2431 47.2715C14.126 47.2715 14.0088 47.2828 13.8926 47.2828C11.526 47.4102 9.92974 48.4624 8.99646 50.5172C8.19825 52.3755 8.2854 54.8047 9.00541 56.6745C9.8427 58.5014 11.1956 59.4656 13.4539 59.8298C13.9317 59.9089 14.2521 60.1739 15.1775 61.2654L16.3162 62.6131H18.3814L17.0082 61.2146C16.2491 60.4478 15.6351 59.7802 15.6351 59.7215C15.6351 59.6629 15.9255 59.5343 16.277 59.4261C17.4357 59.0719 18.398 58.1675 19.0711 56.7815C19.6159 55.6685 19.6941 55.3244 19.7722 53.9397C19.9765 49.8178 17.8253 47.2409 14.243 47.2703L14.2431 47.2715ZM16.0538 58.0504C15.0491 58.542 13.5902 58.6401 12.6379 58.2872C11.6533 57.9218 10.7 56.8888 10.2712 55.7194C9.79462 54.4405 9.86267 52.0814 10.4075 51.0189C11.2838 49.3273 12.4426 48.5492 14.136 48.5492C16.6477 48.5492 18.0765 50.1033 18.263 53.0241C18.4104 55.4623 17.6021 57.2914 16.0548 58.0494L16.0538 58.0504ZM51.729 50.7923C50.8627 50.7923 50.1996 51.1465 49.753 51.8444L49.4025 52.397V50.9603H47.9033V59.5762H49.4015V56.8223C49.4015 54.304 49.4326 54.0097 49.7809 53.3206C50.261 52.3756 51.087 51.9043 51.8853 52.1298L52.4211 52.2877V50.7946H51.729V50.7923ZM42.9213 50.7133C42.6276 50.7133 42.3161 50.7528 42.0059 50.8217C39.9998 51.3516 38.869 53.2913 38.9382 55.2874C38.9382 56.9588 39.2596 57.7943 40.0579 58.6706C41.6934 60.0261 43.1724 60.1344 45.1684 59.4071C45.5089 59.2605 45.8795 59.0913 45.8795 59.0913V57.7358L45.1684 58.108C43.553 58.8184 42.3363 58.8184 41.3616 57.9816C40.74 57.3421 40.4664 56.5753 40.3403 55.7003H46.3851V54.5386C46.3851 52.1703 44.9741 50.675 42.92 50.7133H42.9213ZM40.4765 54.4912C40.4765 54.4912 40.6998 53.014 41.5281 52.4343C41.9267 52.15 42.3843 52.0125 42.8319 52.0125C43.2807 52.0125 43.7283 52.1591 44.0978 52.4445C44.857 53.0342 44.9842 54.4801 44.9842 54.4801H40.4765V54.4912H40.4765ZM4.33357 52.9373C2.70828 51.9426 1.98713 51.2253 2.07531 50.3795C2.32755 48.0394 5.18985 48.3631 6.77495 49.2484L6.78622 47.6742C6.78622 47.6742 5.90987 47.2907 4.65397 47.2704C2.72722 47.2411 1.48141 47.8793 0.897658 49.1785C0.0402492 51.0956 0.799439 52.5413 3.5434 54.1541C5.08386 55.0596 5.76475 55.8457 5.76475 56.7027C5.76475 58.4733 3.6516 59.0913 1.47148 57.9804C1.0228 57.7549 0.643205 57.5665 0.623129 57.5665C0.544934 58.0684 0.585241 59.2694 0.585241 59.2694C0.585241 59.2694 1.25507 59.5537 2.25965 59.7497C4.75116 60.2516 7.01849 59.0709 7.23279 57.1537C7.41924 55.3539 6.775 54.41 4.33368 52.936L4.33357 52.9373ZM64.9974 50.6931C64.7049 50.6931 64.3946 50.7336 64.0708 50.8024C62.0671 51.3325 60.9384 53.2722 61.0154 55.2683C61.0154 56.9374 61.3359 57.7651 62.134 58.6402C63.7695 59.9969 65.2486 60.1062 67.2546 59.3778C67.594 59.2313 67.9635 59.0644 67.9635 59.0644V57.7066L67.2535 58.0809C65.6349 58.7892 64.418 58.7892 63.4469 57.9524C62.8217 57.3141 62.5505 56.5563 62.4243 55.6709H68.4591V54.5094C68.4591 52.1525 67.048 50.6559 64.994 50.6955L64.9974 50.6931ZM62.5527 54.471C62.5527 54.471 62.7782 52.9959 63.6053 52.4049C64.0028 52.1196 64.4604 51.982 64.9081 51.982C65.3546 51.982 65.8045 52.1286 66.1741 52.415C66.9332 53.0049 67.0605 54.4608 67.0605 54.4608H62.5539L62.5527 54.471ZM35.0735 52.9564C33.4482 51.964 32.7292 51.2445 32.8163 50.3986C33.0686 48.0574 35.9309 48.3823 37.516 49.2676L37.5272 47.6933C37.5272 47.6933 36.6509 47.3098 35.395 47.2917C33.4682 47.2625 32.2224 47.9008 31.6376 49.1999C30.7814 51.1169 31.5505 52.5628 34.2854 54.1755C35.8238 55.08 36.5047 55.8558 36.5047 56.7128C36.5047 58.4834 34.3926 59.1116 32.2124 57.9905C31.7659 57.765 31.3864 57.5789 31.3641 57.5789C31.2859 58.0807 31.3262 59.2818 31.3262 59.2818C31.3262 59.2818 31.9881 59.5559 32.9894 59.7622C35.4833 60.2651 37.7516 59.0855 37.9649 57.1684C38.1502 55.3775 37.5072 54.4336 35.0736 52.9585V52.9564H35.0735ZM73.8062 50.772C72.94 50.772 72.2692 51.1271 71.8304 51.8253L71.4798 52.3756V50.9412H69.9806V59.5548H71.4787V56.8009C71.4787 54.2838 71.5088 53.9883 71.8583 53.3004C72.3383 52.3565 73.1643 51.8841 73.9625 52.1106L74.4983 52.2685V50.7721H73.8062V50.772ZM23.1513 52.9068V47.4191H21.6399V59.574H27.9962V58.1384H23.1514V52.9068H23.1513ZM58.1053 54.6175L56.8595 57.8925L55.6616 54.5995L54.4448 50.9502H52.8977C53.9002 53.8214 54.9907 56.7422 56.0903 59.574C56.567 59.5852 57.0448 59.574 57.5214 59.574L59.2037 55.3066L60.9173 50.9513H59.4382C59.4382 50.9513 58.7851 52.6812 58.1042 54.6186L58.1053 54.6175ZM26.6342 44.107C26.8776 44.107 27.0807 44.0282 27.2482 43.859C27.4133 43.692 27.5004 43.4958 27.5004 43.25C27.5004 43.0041 27.4133 42.7988 27.2482 42.641C27.0807 42.4831 26.8876 42.4041 26.6453 42.4041C26.3998 42.4041 26.1966 42.4831 26.0313 42.6499C25.8639 42.8169 25.788 43.0222 25.788 43.259C25.788 43.5071 25.8662 43.7123 26.0313 43.868C26.1877 44.0258 26.3909 44.1048 26.6342 44.1048V44.107ZM26.0984 42.7087C26.2435 42.5621 26.4199 42.4944 26.6454 42.4944C26.8575 42.4944 27.0339 42.5621 27.1813 42.7087C27.3264 42.8553 27.4045 43.0334 27.4045 43.25C27.4045 43.4665 27.3264 43.6537 27.1813 43.8003C27.034 43.9468 26.8575 44.0168 26.6454 44.0168C26.4299 44.0168 26.2546 43.9491 26.1096 43.8003C25.9645 43.6537 25.8863 43.4665 25.8863 43.25C25.8863 43.0334 25.9533 42.8553 26.0984 42.7087ZM26.4589 43.329H26.5571C26.6264 43.329 26.6945 43.3966 26.7525 43.5252L26.8698 43.7912H27.0539L26.9089 43.4957C26.8497 43.3774 26.7917 43.3086 26.7236 43.2893C26.8095 43.269 26.8776 43.2397 26.9267 43.181C26.9757 43.1304 26.9937 43.0615 26.9937 42.9837C26.9937 42.8935 26.9658 42.8259 26.9067 42.7762C26.8396 42.7198 26.7325 42.6894 26.594 42.6894H26.2838V43.7912H26.44V43.3289L26.4589 43.329ZM26.4589 42.8169H26.5952C26.6934 42.8169 26.7626 42.8372 26.8006 42.8665C26.8374 42.8958 26.8475 42.9343 26.8475 43.0041C26.8475 43.1315 26.7692 43.1914 26.6242 43.1914H26.4568V42.8169H26.4589ZM1.4914 43.2308C1.4914 42.8474 1.48028 42.5621 1.47132 42.394H1.48028C1.5193 42.5924 1.56733 42.7402 1.6064 42.8383L3.05755 46.1133H3.30094L4.75209 42.809C4.79126 42.7189 4.83033 42.5835 4.87831 42.3951H4.88943C4.86045 42.7222 4.85041 43.0064 4.85041 43.233V46.1235H5.34706V41.8268H4.72419L3.39025 44.8152C3.34109 44.9336 3.27298 45.1108 3.18594 45.3453H3.16576C3.13677 45.2291 3.06867 45.0521 2.97158 44.8355L1.66766 41.8165H1.00576V46.1132H1.48352V43.2329L1.4914 43.2308ZM6.43555 43.2388H6.86431V45.9148H6.43555V43.2388ZM6.64991 42.2576C6.73927 42.2576 6.81515 42.227 6.87317 42.1674C6.93236 42.1087 6.97149 42.032 6.97149 41.9419C6.97149 41.8539 6.9424 41.7749 6.87435 41.7163C6.81407 41.6565 6.73701 41.626 6.64883 41.626C6.56183 41.626 6.48369 41.6565 6.42552 41.7163C6.36652 41.7749 6.32735 41.8539 6.32735 41.9419C6.32735 42.04 6.35752 42.1087 6.42552 42.1674C6.49264 42.227 6.56178 42.2576 6.64883 42.2576H6.64991ZM9.92079 45.9735V45.5021C9.68631 45.6791 9.43402 45.7672 9.17282 45.7672C8.86035 45.7672 8.60682 45.659 8.4215 45.4515C8.23737 45.2463 8.13915 44.9608 8.13915 44.6056C8.13915 44.2335 8.23737 43.9379 8.4405 43.7123C8.63586 43.4958 8.88933 43.3876 9.19969 43.3876C9.45306 43.3876 9.69629 43.4666 9.92084 43.6246V43.1227C9.71658 43.0144 9.48328 42.9648 9.21977 42.9648C8.733 42.9648 8.35355 43.1227 8.07002 43.4273C7.78864 43.7317 7.64353 44.1456 7.64353 44.6452C7.64353 45.0895 7.76965 45.4629 8.03208 45.7482C8.30553 46.0413 8.65506 46.1902 9.08366 46.1902C9.41507 46.181 9.68631 46.111 9.92079 45.9735ZM11.1475 44.5469C11.1475 44.1939 11.2257 43.9087 11.3708 43.7123C11.5071 43.5353 11.6722 43.4462 11.8676 43.4462C12.0328 43.4462 12.15 43.4767 12.2359 43.5455V43.0334C12.169 43.0041 12.0718 42.994 11.9457 42.994C11.7704 42.994 11.6142 43.0536 11.4769 43.1632C11.3318 43.2792 11.2157 43.4564 11.1476 43.6819H11.1365V43.0537H10.6509V46.1212H11.1376V44.5469H11.1475ZM13.9417 46.1821C14.3994 46.1821 14.7678 46.0332 15.0413 45.7378C15.3136 45.4444 15.4498 45.0498 15.4498 44.558C15.4498 44.0563 15.3248 43.6729 15.0703 43.3874C14.818 43.1023 14.4674 42.9645 14.0097 42.9645C13.552 42.9645 13.1836 43.1022 12.9101 43.3683C12.6177 43.6616 12.4636 44.0755 12.4636 44.6067C12.4636 45.069 12.5887 45.4525 12.8522 45.7378C13.1245 46.0332 13.4851 46.1809 13.9417 46.1809V46.1821ZM13.2496 43.683C13.4349 43.4857 13.6783 43.3875 13.9796 43.3875C14.2923 43.3875 14.5267 43.4857 14.7008 43.683C14.8761 43.8894 14.9632 44.1838 14.9632 44.5773C14.9632 44.9516 14.885 45.246 14.7198 45.4434C14.5546 45.6498 14.3113 45.7591 13.9897 45.7591C13.6772 45.7591 13.4349 45.6497 13.2496 45.4434C13.0654 45.2359 12.9772 44.9516 12.9772 44.5773C12.9583 44.2052 13.0554 43.9008 13.2496 43.683ZM17.5809 45.9148C17.7662 45.748 17.8645 45.5427 17.8645 45.2855C17.8645 45.0599 17.7863 44.8728 17.6412 44.725C17.5228 44.6067 17.3399 44.4995 17.0753 44.3912C16.8408 44.2921 16.6957 44.204 16.6175 44.1352C16.5394 44.0563 16.4914 43.9583 16.4914 43.8195C16.4914 43.6921 16.5405 43.5939 16.6366 43.515C16.7348 43.4361 16.8598 43.3978 17.0273 43.3978C17.2896 43.3978 17.514 43.4677 17.7193 43.6155V43.1237C17.5229 43.0246 17.3097 42.9772 17.0663 42.9772C16.7538 42.9772 16.4903 43.0641 16.296 43.232C16.0917 43.399 15.9946 43.6155 15.9946 43.8703C15.9946 44.0958 16.0615 44.2831 16.1887 44.4206C16.2959 44.5379 16.4791 44.6575 16.7335 44.7645C16.977 44.8729 17.1422 44.9709 17.2303 45.0498C17.3173 45.1288 17.3564 45.2269 17.3564 45.3431C17.3564 45.6295 17.1622 45.7773 16.7826 45.7773C16.4901 45.7773 16.2279 45.6803 15.9933 45.4841V46.014C16.2055 46.1427 16.46 46.2013 16.7413 46.2013C17.1019 46.1821 17.3843 46.093 17.5785 45.916L17.5809 45.9148ZM19.8984 42.9646C19.4406 42.9646 19.0723 43.1023 18.7988 43.3684C18.5086 43.6617 18.3523 44.0756 18.3523 44.6068C18.3523 45.0691 18.4785 45.4526 18.7408 45.7379C19.0143 46.0333 19.3737 46.181 19.8314 46.181C20.3002 46.181 20.6576 46.0322 20.931 45.7367C21.2045 45.4435 21.3407 45.0488 21.3407 44.557C21.3407 44.0552 21.2134 43.6718 20.9611 43.3865C20.6978 43.1011 20.3471 42.9635 19.9006 42.9635L19.8984 42.9646ZM20.8428 44.5774C20.8428 44.9517 20.7646 45.2461 20.5994 45.4435C20.4342 45.6499 20.1908 45.7592 19.8693 45.7592C19.5566 45.7592 19.3145 45.6498 19.1291 45.4435C18.9449 45.236 18.8568 44.9517 18.8568 44.5774C18.8568 44.1827 18.954 43.8782 19.1493 43.6729C19.3334 43.4767 19.5769 43.3774 19.8794 43.3774C20.1807 43.3774 20.423 43.4766 20.5982 43.6729C20.7545 43.8894 20.8416 44.1838 20.8416 44.5774H20.8428ZM22.1579 46.1122H22.6434V43.4564H23.3545V43.0436H22.6434V42.57C22.6434 42.1393 22.8085 41.9227 23.1502 41.9227C23.2652 41.9227 23.3824 41.952 23.4695 42.0017V41.5585C23.3824 41.5191 23.2652 41.5101 23.1188 41.5101C22.8566 41.5101 22.6423 41.5891 22.4669 41.7559C22.2626 41.9521 22.1544 42.207 22.1544 42.5522V43.0552H21.6408V43.4679H22.1544V46.1136L22.1579 46.1122ZM24.1526 45.2754C24.1526 45.8754 24.415 46.181 24.9508 46.181C25.1451 46.181 25.2913 46.1495 25.4085 46.0795V45.6578C25.3192 45.7255 25.2132 45.7571 25.096 45.7571C24.9309 45.7571 24.8147 45.7175 24.7466 45.6284C24.6773 45.5405 24.6383 45.3916 24.6383 45.1863V43.4553H25.4085V43.0425H24.6383V42.1381C24.4708 42.1967 24.3068 42.2464 24.1515 42.2959V43.0424H23.6269V43.4552H24.1515V45.2743L24.1526 45.2754ZM76.3961 50.9298C76.2309 50.772 76.0355 50.693 75.7933 50.693C75.5478 50.693 75.3445 50.772 75.1793 50.9411C75.0141 51.1069 74.9359 51.3132 74.9359 51.5501C74.9359 51.796 75.0141 52.0013 75.1781 52.1591C75.3434 52.3169 75.5465 52.396 75.7921 52.396C76.0343 52.396 76.2386 52.3169 76.4061 52.1501C76.5702 51.9809 76.6573 51.7858 76.6573 51.5411C76.6483 51.293 76.5601 51.0877 76.3949 50.9299L76.3961 50.9298ZM76.318 52.0915C76.1728 52.238 75.9965 52.3057 75.7821 52.3057C75.5701 52.3057 75.3937 52.238 75.2463 52.0915C75.1013 51.9426 75.023 51.7565 75.023 51.5388C75.023 51.3245 75.09 51.1464 75.2374 50.9975C75.3824 50.851 75.5578 50.7832 75.7821 50.7832C75.9943 50.7832 76.1707 50.851 76.318 50.9975C76.4631 51.1464 76.5412 51.3245 76.5412 51.5388C76.5412 51.7667 76.4742 51.9426 76.318 52.0915ZM75.8803 51.5896C75.9674 51.5693 76.0367 51.5298 76.0846 51.4813C76.1338 51.4305 76.1517 51.3617 76.1517 51.2829C76.1517 51.195 76.1238 51.125 76.0647 51.0765C75.9977 51.0201 75.8894 50.9896 75.7522 50.9896H75.4418V52.0903H75.5982V51.6279H75.6952C75.7623 51.6279 75.8293 51.6955 75.8894 51.8241L76.0055 52.0891H76.1909L76.0458 51.7936C75.9955 51.665 75.9375 51.6063 75.8784 51.5871L75.8803 51.5896ZM75.7732 51.4904H75.6058V51.1183H75.7431C75.8402 51.1183 75.9083 51.1362 75.9474 51.1668C75.9864 51.196 75.9954 51.2344 75.9954 51.3044C75.9954 51.4318 75.9172 51.4905 75.7722 51.4905L75.7732 51.4904ZM48.6145 42.9162H48.7507V41.8144H49.1111V41.6768H48.2539V41.8144H48.6146V42.9162H48.6145ZM49.4405 42.0885C49.4405 41.9812 49.4405 41.8933 49.4327 41.8438C49.4417 41.9023 49.4617 41.9419 49.4707 41.9712L49.8894 42.9162H49.9563L50.376 41.9621C50.3872 41.9328 50.3962 41.8944 50.4151 41.8438C50.4061 41.9419 50.4061 42.0206 50.4061 42.0806V42.9151H50.5513V41.6768H50.376L49.9965 42.5316C49.9876 42.5622 49.9573 42.6218 49.9384 42.6896H49.9272C49.9194 42.65 49.8994 42.6106 49.8714 42.543L49.4919 41.6769H49.2955V42.9174H49.4327V42.0897L49.4405 42.0885Z" fill="#231F1F"/>
</g>
<defs>
<linearGradient id="paint0_linear" x1="34.2691" y1="38.6608" x2="37.3238" y2="36.8741" gradientUnits="userSpaceOnUse">
<stop stop-color="#909CA9"/>
<stop offset="1" stop-color="#EDEDEE"/>
</linearGradient>
<linearGradient id="paint1_linear" x1="34.3387" y1="4.46428" x2="36.7837" y2="4.46428" gradientUnits="userSpaceOnUse">
<stop stop-color="#939FAB"/>
<stop offset="1" stop-color="#DCDEE1"/>
</linearGradient>
<radialGradient id="paint2_radial" cx="0" cy="0" r="1" gradientUnits="userSpaceOnUse" gradientTransform="translate(46.6762 15.7925) rotate(-171.371) scale(3.15301 6.36921)">
<stop stop-color="#CBCBCB"/>
<stop offset="1" stop-color="#959595"/>
</radialGradient>
<clipPath id="clip0">
<rect x="0.558746" y="0.46257" width="76.1026" height="62.1504" fill="white"/>
</clipPath>
</defs>
</svg>
