<svg width="129" height="72" viewBox="0 0 129 72" fill="none" xmlns="http://www.w3.org/2000/svg">
<g clip-path="url(#clip0_231_1871)">
<path d="M67.6254 21.3141C67.6249 20.1153 67.3692 19.0561 66.8522 18.1472C66.3443 17.253 65.5837 16.5038 64.5635 15.9113C56.1422 11.0422 47.7128 6.18802 39.2942 1.31394C37.0246 5.94737e-05 34.8241 0.0482072 32.5713 1.38095C29.2194 3.36294 12.4374 13.0041 7.4366 15.9086C5.37713 17.1044 4.37499 18.934 4.37449 21.3118C4.37128 31.1039 4.37449 40.896 4.37128 50.688C4.37128 51.8605 4.61655 52.8994 5.11082 53.7946C5.61894 54.7156 6.39016 55.4854 7.43388 56.0912C12.4349 58.9957 29.2191 68.6362 32.5703 70.6189C34.8241 71.9524 37.0246 72.0001 39.295 70.6859C47.7138 65.8116 56.1437 60.9574 64.5663 56.0883C65.61 55.4827 66.3812 54.7123 66.8893 53.7921C67.3828 52.8966 67.6286 51.858 67.6286 50.6853C67.6286 50.6853 67.6286 31.1064 67.6254 21.3141Z" fill="#A179DC"/>
<path d="M36.0968 35.9044L5.11084 53.7945C5.61896 54.7155 6.39018 55.4853 7.4339 56.0912C12.435 58.9957 29.2191 68.6361 32.5703 70.6188C34.8241 71.9523 37.0246 72 39.295 70.6858C47.7138 65.8115 56.1438 60.9573 64.5663 56.0882C65.61 55.4826 66.3812 54.7123 66.8894 53.792L36.0968 35.9044Z" fill="#280068"/>
<path d="M67.6255 21.314C67.625 20.1153 67.3693 19.0561 66.8523 18.1472L36.0968 35.9047L66.8894 53.7921C67.3829 52.8966 67.6282 51.858 67.6287 50.6853C67.6287 50.6853 67.6287 31.1064 67.6255 21.314" fill="#390091"/>
<path d="M54.3402 29.2167V32.5607H57.675V29.2167H59.3425V32.5607H62.6773V34.2327H59.3425V37.5765H62.6773V39.2485H59.3425V42.5925H57.675V39.2485H54.3402V42.5925H52.6727V39.2485H49.3381V37.5765H52.6727V34.2327H49.3381V32.5607H52.6727V29.2167H54.3402ZM57.675 34.2325H54.3402V37.5765H57.675V34.2325Z" fill="white"/>
<path d="M36.1648 12.4226C44.8631 12.4226 52.4572 17.1594 56.5249 24.2004L56.4853 24.1326L46.2511 30.0414C44.2349 26.6182 40.5387 24.3079 36.2982 24.2602L36.1646 24.2595C29.6986 24.2595 24.4565 29.516 24.4565 35.9998C24.4543 38.0434 24.9868 40.0519 26.0006 41.8247C28.0188 45.3575 31.8127 47.7404 36.1648 47.7404C40.5439 47.7404 44.3594 45.3273 46.3672 41.7566L46.3184 41.8423L56.5371 47.7783C52.5139 54.7597 45.0237 59.4819 36.4267 59.576L36.1648 59.5775C27.4391 59.5775 19.8234 54.8113 15.7659 47.7332C13.7851 44.2777 12.6518 40.2718 12.6518 35.9998C12.6518 22.9786 23.1786 12.4224 36.1646 12.4224L36.1648 12.4226Z" fill="white"/>
</g>
<path d="M105.528 43.336C108.6 43.336 111.312 41.8 112.752 39.376L109.896 37.72C109.104 39.184 107.448 40.096 105.528 40.096C103.896 40.096 102.576 39.592 101.568 38.56C100.584 37.528 100.08 36.208 100.08 34.6C100.08 32.968 100.584 31.648 101.568 30.616C102.576 29.584 103.896 29.08 105.528 29.08C107.448 29.08 109.056 29.968 109.896 31.48L112.752 29.824C111.312 27.4 108.576 25.864 105.528 25.864C103.008 25.864 100.92 26.704 99.264 28.384C97.608 30.04 96.792 32.128 96.792 34.6C96.792 37.072 97.608 39.136 99.264 40.816C100.92 42.496 103.008 43.336 105.528 43.336ZM127.646 31.168H125.054L125.678 27.4H123.23L122.606 31.168H120.158L120.782 27.4H118.358L117.734 31.168H115.07L114.686 33.52H117.35L116.99 35.68H114.35L113.966 38.008H116.582L115.958 41.8H118.382L119.006 38.008H121.454L120.83 41.8H123.278L123.902 38.008H126.542L126.926 35.68H124.31L124.67 33.52H127.262L127.646 31.168ZM119.414 35.68L119.774 33.52H122.222L121.862 35.68H119.414Z" fill="#0C152A"/>
<defs>
<clipPath id="clip0_231_1871">
<rect width="63.8182" height="72" fill="white" transform="translate(4.09088)"/>
</clipPath>
</defs>
</svg>
