<svg width="247" height="72" viewBox="0 0 247 72" fill="none" xmlns="http://www.w3.org/2000/svg">
<g clip-path="url(#clip0_231_1824)">
<path d="M32.0564 36.5622C32.0564 34.6069 30.962 32.8928 29.3586 32.0167C29.3968 31.7373 29.4222 31.4453 29.4222 31.1406C29.4222 27.9536 26.839 25.3761 23.6449 25.3761C22.7923 25.3761 21.9779 25.5666 21.2525 25.8967C20.3109 23.9921 18.3512 22.6843 16.0733 22.6843C12.8793 22.6843 10.296 25.2618 10.296 28.4488C10.296 28.525 10.296 28.6012 10.296 28.6773C10.0924 28.652 9.87609 28.6393 9.67248 28.6393C8.04364 28.6393 6.59295 29.3884 5.63855 30.5565C5.62582 30.5565 5.6131 30.5565 5.60037 30.5565C2.50811 30.5565 0.0012207 33.0578 0.0012207 36.1432C0.0012207 39.2286 2.50811 41.7299 5.60037 41.7299H26.8644C29.7276 41.7426 32.0564 39.4191 32.0564 36.5622ZM1.27376 36.1432C1.27376 33.7689 3.20801 31.8262 5.58765 31.8262C5.60037 31.8262 5.6131 31.8262 5.62582 31.8262H6.23664L6.6184 31.3564C7.3692 30.4295 8.4763 29.909 9.65976 29.909C9.81246 29.909 9.96517 29.9217 10.1306 29.9344L11.6067 30.1121L11.5431 28.6266C11.5431 28.5631 11.5431 28.4996 11.5431 28.4488C11.5431 25.9729 13.5664 23.954 16.0479 23.954C17.7785 23.954 19.3183 24.919 20.0818 26.4554L20.629 27.56L21.7488 27.0521C22.3342 26.7855 22.9705 26.6458 23.6195 26.6458C26.1009 26.6458 28.1242 28.6647 28.1242 31.1406C28.1242 31.3691 28.1115 31.5977 28.0733 31.8262L27.9461 32.7023L28.7223 33.134C29.9821 33.8197 30.7584 35.1402 30.7584 36.5622C30.7584 38.7207 29.0023 40.4729 26.839 40.4729H5.60037C3.22073 40.4729 1.27376 38.5303 1.27376 36.1432Z" fill="#515250"/>
<path d="M69.3038 23.2938C69.342 23.0144 69.3675 22.7224 69.3675 22.4177C69.3675 19.2307 66.7842 16.6532 63.5902 16.6532C62.7376 16.6532 61.9231 16.8437 61.1978 17.1738C60.2561 15.2692 58.2964 13.9614 56.0186 13.9614C52.8245 13.9614 50.2413 16.5389 50.2413 19.7259C50.2413 19.8021 50.2413 19.8783 50.2413 19.9544C50.0377 19.9291 49.8213 19.9164 49.6177 19.9164C47.9889 19.9164 46.5382 20.6655 45.5838 21.8336C45.5711 21.8336 45.5583 21.8336 45.5456 21.8336C42.4534 21.8336 39.9465 24.3349 39.9465 27.4203C39.9465 30.5057 42.4534 33.007 45.5456 33.007H66.8097C69.6729 33.007 72.0016 30.6835 72.0016 27.8266C72.0016 25.884 70.92 24.1826 69.3038 23.2938ZM66.8097 31.75H45.5583C43.166 31.75 41.2317 29.8074 41.2317 27.433C41.2317 25.0587 43.166 23.116 45.5456 23.116C45.5583 23.116 45.5711 23.116 45.5838 23.116H46.1946L46.5764 22.6462C47.3272 21.7193 48.4343 21.1988 49.6177 21.1988C49.7704 21.1988 49.9231 21.2115 50.0886 21.2242L51.5647 21.4019L51.5011 19.9164C51.5011 19.8529 51.5011 19.7894 51.5011 19.7386C51.5011 17.2627 53.5244 15.2438 56.0059 15.2438C57.7365 15.2438 59.2763 16.2088 60.0398 17.7452L60.587 18.8498L61.7068 18.3419C62.2922 18.0753 62.9284 17.9356 63.5774 17.9356C66.0589 17.9356 68.0822 19.9544 68.0822 22.4304C68.0822 22.6589 68.0695 22.8875 68.0313 23.116L67.904 23.9921L68.6803 24.4238C69.9401 25.1095 70.7164 26.43 70.7164 27.852C70.7291 29.9978 68.973 31.75 66.8097 31.75Z" fill="#515250"/>
<path d="M35.1733 31.3178C35.3896 30.8607 35.6696 30.4417 35.975 30.0481H30.6049C30.6558 30.4036 30.694 30.7718 30.694 31.14C30.694 31.2035 30.694 31.2543 30.694 31.3178H35.1733Z" fill="#515250"/>
<path d="M21.0356 21.4145C21.0484 21.4145 21.0611 21.4145 21.0738 21.4145H21.6846L22.0664 20.9447C22.8172 20.0178 23.9243 19.4972 25.1077 19.4972C25.2604 19.4972 25.4131 19.5099 25.5786 19.5226L27.0547 19.7004L26.9911 18.2148C26.9911 18.1513 26.9911 18.0878 26.9911 18.0371C26.9911 15.5611 29.0144 13.5423 31.4959 13.5423C33.2265 13.5423 34.7663 14.5073 35.5298 16.0436L36.077 17.1483L37.1968 16.6404C37.7822 16.3737 38.4184 16.2341 39.0674 16.2341C41.5489 16.2341 43.5722 18.2529 43.5722 20.7288C43.5722 20.7669 43.5722 20.8177 43.5722 20.8558C43.9794 20.7288 44.4121 20.6527 44.8447 20.6019C44.7938 17.4784 42.2361 14.9644 39.0929 14.9644C38.2403 14.9644 37.4259 15.1548 36.7005 15.4849C35.7589 13.5804 33.7864 12.2726 31.5213 12.2726C28.3272 12.2726 25.744 14.8501 25.744 18.0371C25.744 18.1132 25.744 18.1894 25.744 18.2656C25.5404 18.2402 25.3241 18.2275 25.1205 18.2275C23.4916 18.2275 22.0409 18.9766 21.0865 20.1448C21.0738 20.1448 21.0611 20.1448 21.0484 20.1448C19.6231 20.1448 18.3379 20.678 17.3453 21.5414C17.8797 21.643 18.3888 21.7954 18.8723 21.9985C19.5086 21.6303 20.2467 21.4145 21.0356 21.4145Z" fill="#515250"/>
<path d="M54.7838 37.9716C54.8219 37.6922 54.8474 37.4002 54.8474 37.0955C54.8474 36.0797 54.5802 35.1274 54.122 34.2894H52.595C53.2185 35.064 53.5876 36.0289 53.5876 37.0955C53.5876 37.324 53.5749 37.5526 53.5367 37.7811L53.4094 38.6572L54.1857 39.0889C55.4455 39.7746 56.2217 41.0951 56.2217 42.5171C56.2217 44.6756 54.4656 46.4278 52.3023 46.4278H31.0383C28.964 46.4278 27.2207 44.9677 26.8007 43.0123H25.5027C25.9481 45.666 28.2514 47.6975 31.0383 47.6975H52.3023C55.1655 47.6975 57.4943 45.374 57.4943 42.5171C57.4943 40.5491 56.3999 38.8477 54.7838 37.9716Z" fill="#515250"/>
<path d="M39.3862 30.4421C39.1953 30.0611 39.0426 29.6675 38.9281 29.2485C37.032 30.1881 35.734 32.1435 35.734 34.4035C35.734 34.4797 35.734 34.5559 35.734 34.6321C35.5304 34.6067 35.3141 34.594 35.1105 34.594C34.4106 34.594 33.7361 34.7337 33.1253 34.9876C33.2271 35.4066 33.2907 35.851 33.3162 36.2954C33.8634 36.0161 34.4742 35.8637 35.1105 35.8637C35.2632 35.8637 35.4159 35.8764 35.5813 35.8891L37.0574 36.0669L36.9938 34.5813C36.9938 34.5178 36.9938 34.4543 36.9938 34.4035C37.0065 32.6894 37.9737 31.2039 39.3862 30.4421Z" fill="#515250"/>
<path d="M32.3621 23.8398C32.6802 23.8398 32.922 23.5985 32.9347 23.2811C32.9347 23.2684 32.9347 23.2684 32.9347 23.2557C32.9347 23.243 32.9347 23.243 32.9347 23.2303C32.922 22.9256 32.6675 22.6843 32.3621 22.6843C32.3621 22.6843 32.3621 22.6843 32.3494 22.6843C32.0312 22.6843 31.7767 22.9383 31.7767 23.2557C31.7767 23.5731 32.044 23.8398 32.3621 23.8398Z" fill="#515250"/>
<path d="M31.0255 26.557L31.6109 25.7444C31.8399 25.8206 32.0817 25.8459 32.3107 25.8586L32.6162 26.8109L33.736 26.5443L33.5706 25.5666C33.7869 25.4523 33.9778 25.3127 34.1559 25.1349L35.0467 25.592L35.6575 24.6143L34.8431 24.0303C34.9194 23.789 34.9576 23.5478 34.9576 23.2938L35.912 22.9891L35.6448 21.8718L34.6649 22.0368C34.5504 21.821 34.4104 21.6305 34.2323 21.4528L34.6904 20.564L33.6978 19.9672L33.1124 20.7798C32.8834 20.7036 32.6416 20.6782 32.4126 20.6655L32.1071 19.7133L30.9873 19.9799L31.1527 20.9576C30.9364 21.0718 30.7455 21.2115 30.5674 21.3893L29.6766 20.9322L29.0658 21.9099L29.8802 22.4939C29.8039 22.7352 29.7657 22.9764 29.7657 23.2303L28.8113 23.5351L29.0785 24.6524L30.0584 24.4874C30.1729 24.7032 30.3129 24.8937 30.491 25.0714L30.0329 25.9602L31.0255 26.557ZM31.2164 22.5701C31.5218 22.0622 32.1326 21.8337 32.6798 21.9733C32.807 21.9987 32.9343 22.0622 33.0488 22.1257C33.6724 22.5066 33.876 23.3192 33.4942 23.9541C33.4433 24.0303 33.3924 24.1064 33.3288 24.1699C32.9088 24.627 32.2089 24.7286 31.6618 24.3985C31.0382 24.0176 30.8346 23.205 31.2164 22.5701Z" fill="#515250"/>
<path d="M56.9087 25.5663C57.225 25.5663 57.4813 25.3105 57.4813 24.995C57.4813 24.6794 57.225 24.4236 56.9087 24.4236C56.5924 24.4236 56.3361 24.6794 56.3361 24.995C56.3361 25.3105 56.5924 25.5663 56.9087 25.5663Z" fill="#515250"/>
<path d="M60.459 24.7282L60.1918 23.6109L59.2119 23.776C59.0974 23.5601 58.9574 23.3697 58.7793 23.1919L59.2374 22.3031L58.2448 21.7063L57.6594 22.5189C57.4304 22.4428 57.1886 22.4174 56.9596 22.4047L56.6541 21.4524L55.5343 21.719L55.6997 22.6967C55.4834 22.811 55.2925 22.9506 55.1144 23.1284L54.2236 22.6713L53.6128 23.649L54.4272 24.2331C54.3509 24.4743 54.3127 24.7155 54.3127 24.9695L53.3583 25.2742L53.6255 26.3916L54.6054 26.2265C54.7199 26.4423 54.8599 26.6328 55.038 26.8106L54.5799 27.6994L55.5725 28.2961L56.1579 27.4835C56.3869 27.5597 56.6287 27.5851 56.8577 27.5978L57.1632 28.5501L58.283 28.2834L58.1176 27.3057C58.3339 27.1915 58.5248 27.0518 58.7029 26.874L59.5937 27.3311L60.2045 26.3535L59.3901 25.7694C59.4664 25.5282 59.5046 25.2869 59.5046 25.033L60.459 24.7282ZM58.0412 25.6805C57.9903 25.7567 57.9394 25.8329 57.8758 25.8964C57.4558 26.3535 56.7559 26.455 56.2088 26.1249C55.5852 25.744 55.3816 24.9314 55.7634 24.2965C56.0688 23.7887 56.6796 23.5601 57.2268 23.6998C57.354 23.7252 57.4813 23.7887 57.5958 23.8521C58.2194 24.2331 58.423 25.0584 58.0412 25.6805Z" fill="#515250"/>
<path d="M42.5037 40.2317C42.8199 40.2317 43.0763 39.9759 43.0763 39.6604C43.0763 39.3448 42.8199 39.089 42.5037 39.089C42.1874 39.089 41.931 39.3448 41.931 39.6604C41.931 39.9759 42.1874 40.2317 42.5037 40.2317Z" fill="#515250"/>
<path d="M39.8063 37.3367L39.1955 38.3144L40.0099 38.8985C39.9336 39.1397 39.8954 39.3809 39.8954 39.6349L38.941 39.9396L39.2082 41.057L40.1881 40.8919C40.3026 41.1077 40.4426 41.2982 40.6207 41.476L40.1626 42.3648L41.1552 42.9615L41.7406 42.1489C41.9696 42.2251 42.2114 42.2505 42.4404 42.2632L42.7459 43.2155L43.8657 42.9488L43.7003 41.9711C43.9166 41.8569 44.1075 41.7172 44.2856 41.5394L45.1764 41.9965L45.7872 41.0189L44.9728 40.4348C45.0491 40.1936 45.0873 39.9523 45.0873 39.6984L46.0417 39.3936L45.7745 38.2763L44.7946 38.4414C44.6801 38.2255 44.5401 38.0351 44.362 37.8573L44.8201 36.9685L43.8275 36.3717L43.2421 37.1844C43.0131 37.1082 42.7713 37.0828 42.5423 37.0701L42.2368 36.1178L41.117 36.3844L41.2824 37.3621C41.0661 37.4764 40.8752 37.6161 40.6971 37.7938L39.8063 37.3367ZM41.3588 38.9746C41.6642 38.4668 42.275 38.2382 42.8222 38.3779C42.9495 38.4033 43.0767 38.4668 43.1912 38.5302C43.8148 38.9112 44.0184 39.7238 43.6366 40.3586C43.5857 40.4348 43.5348 40.511 43.4712 40.5745C43.0513 41.0316 42.3514 41.1331 41.8042 40.803C41.1806 40.4221 40.977 39.5968 41.3588 38.9746Z" fill="#515250"/>
<path d="M16.8746 34.2638C17.1908 34.2638 17.4472 34.008 17.4472 33.6925C17.4472 33.3769 17.1908 33.1211 16.8746 33.1211C16.5583 33.1211 16.3019 33.3769 16.3019 33.6925C16.3019 34.008 16.5583 34.2638 16.8746 34.2638Z" fill="#515250"/>
<path d="M20.4249 33.4259L20.1577 32.3085L19.1778 32.4736C19.0633 32.2577 18.9233 32.0673 18.7452 31.8895L19.2033 31.0007L18.2107 30.404L17.6253 31.2166C17.3963 31.1404 17.1545 31.115 16.9254 31.1023L16.62 30.15L15.5002 30.4167L15.6656 31.3943C15.4493 31.5086 15.2584 31.6483 15.0803 31.826L14.1895 31.3689L13.5787 32.3466L14.3931 32.9307C14.3167 33.1719 14.2786 33.4132 14.2786 33.6671L13.3242 33.9718L13.5914 35.0892L14.5712 34.9241C14.6858 35.14 14.8257 35.3304 15.0039 35.5082L14.5458 36.397L15.5384 36.9937L16.1237 36.1811C16.3528 36.2573 16.5946 36.2827 16.8236 36.2954L17.129 37.2477L18.2489 36.9811L18.0834 36.0034C18.2998 35.8891 18.4906 35.7494 18.6688 35.5717L19.5596 36.0288L20.1704 35.0511L19.356 34.467C19.4323 34.2258 19.4705 33.9845 19.4705 33.7306L20.4249 33.4259ZM18.0198 34.3782C17.9689 34.4543 17.918 34.5305 17.8544 34.594C17.4344 35.0511 16.7346 35.1527 16.1874 34.8225C15.5638 34.4416 15.3602 33.629 15.742 32.9942C16.0474 32.4863 16.6582 32.2577 17.2054 32.3974C17.3326 32.4228 17.4599 32.4863 17.5744 32.5498C18.198 32.9434 18.4016 33.756 18.0198 34.3782Z" fill="#515250"/>
<path d="M4.50507 52.2684H5.58672L8.00454 56.9156L10.4096 52.2684H11.504V58.8836H10.6514L10.6387 53.6016L8.28449 58.1853H7.72458L5.34494 53.6016V58.8836H4.50507V52.2684Z" fill="#0099D7"/>
<path d="M14.2147 52.0525C14.3165 52.1541 14.3674 52.2938 14.3674 52.4588C14.3674 52.6239 14.3165 52.7636 14.2147 52.8651C14.1129 52.9667 13.9856 53.0302 13.8202 53.0302C13.6675 53.0302 13.5275 52.9794 13.4257 52.8651C13.3239 52.7636 13.273 52.6239 13.273 52.4588C13.273 52.2938 13.3239 52.1541 13.4257 52.0525C13.5275 51.9509 13.6548 51.8875 13.8202 51.8875C13.9856 51.8875 14.1129 51.9382 14.2147 52.0525ZM13.3875 53.8809H14.2656V58.8835H13.3875V53.8809Z" fill="#0099D7"/>
<path d="M18.1338 54.6426C17.8029 54.6426 17.5102 54.7187 17.2557 54.8584C17.0012 54.9981 16.7976 55.2139 16.6576 55.4679C16.5177 55.7345 16.4413 56.0392 16.4413 56.3821C16.4413 56.7249 16.5177 57.0296 16.6576 57.2963C16.7976 57.5629 17.0012 57.766 17.243 57.9184C17.4975 58.0708 17.7775 58.1343 18.0956 58.1343C18.4137 58.1343 18.7064 58.0835 18.9609 57.9692C19.2154 57.8676 19.4318 57.7026 19.6099 57.5121L20.1062 58.02C19.8772 58.2993 19.5845 58.5152 19.2409 58.6675C18.8973 58.8199 18.4901 58.8961 18.0574 58.8961C17.5739 58.8961 17.1412 58.7945 16.7594 58.5787C16.3777 58.3628 16.085 58.0708 15.8687 57.6899C15.6523 57.309 15.5505 56.8773 15.5505 56.3821C15.5505 55.8869 15.6523 55.4552 15.8687 55.0743C16.085 54.6934 16.3777 54.3886 16.7594 54.1728C17.1412 53.9569 17.5739 53.8553 18.0574 53.8553C18.4774 53.8553 18.8591 53.9188 19.2027 54.0458C19.5463 54.1728 19.8263 54.3632 20.0553 54.6045L19.5717 55.2139C19.1773 54.833 18.6937 54.6426 18.1338 54.6426Z" fill="#0099D7"/>
<path d="M23.0335 54.1474C23.3389 53.9569 23.6952 53.868 24.1151 53.8553V54.7061C23.6061 54.6934 23.1862 54.8203 22.8808 55.0997C22.5626 55.379 22.3845 55.7599 22.3463 56.2424V58.8834H21.4683V53.8807H22.3463V54.96C22.499 54.6045 22.7281 54.3251 23.0335 54.1474Z" fill="#0099D7"/>
<path d="M28.5559 54.1728C28.9504 54.3886 29.2431 54.6807 29.4594 55.0616C29.6757 55.4425 29.7903 55.8742 29.7903 56.3694C29.7903 56.8646 29.6757 57.2963 29.4594 57.6772C29.2431 58.0581 28.9377 58.3628 28.5559 58.5787C28.1742 58.7945 27.7288 58.8961 27.2198 58.8961C26.7107 58.8961 26.2653 58.7945 25.8836 58.5787C25.5018 58.3628 25.1964 58.0708 24.9801 57.6899C24.7638 57.309 24.6492 56.8646 24.6492 56.3694C24.6492 55.8742 24.7638 55.4425 24.9801 55.0616C25.1964 54.6807 25.5018 54.3886 25.8836 54.1728C26.2781 53.9569 26.7235 53.8553 27.2198 53.8553C27.7288 53.8553 28.1742 53.9569 28.5559 54.1728ZM26.3544 54.8457C26.0999 54.9981 25.8963 55.2012 25.7563 55.4679C25.6164 55.7345 25.54 56.0392 25.54 56.3821C25.54 56.7249 25.6164 57.0423 25.7563 57.309C25.8963 57.5756 26.0999 57.7914 26.3544 57.9311C26.6089 58.0835 26.9016 58.147 27.2325 58.147C27.5506 58.147 27.8433 58.0708 28.0978 57.9311C28.3523 57.7787 28.5559 57.5756 28.6959 57.309C28.8359 57.0423 28.9122 56.7249 28.9122 56.3821C28.9122 56.0392 28.8359 55.7345 28.6959 55.4679C28.5559 55.2012 28.3523 54.9854 28.0978 54.8457C27.8433 54.6934 27.5506 54.6172 27.2325 54.6172C26.9016 54.6172 26.6089 54.6934 26.3544 54.8457Z" fill="#0099D7"/>
<path d="M33.1499 54.681C32.8954 54.6048 32.6663 54.5668 32.4373 54.5668C32.17 54.5668 31.9537 54.6175 31.801 54.7191C31.6356 54.8207 31.5592 54.9604 31.5592 55.1635C31.5592 55.3667 31.6483 55.519 31.8265 55.6206C32.0046 55.7222 32.2846 55.8238 32.6409 55.938C32.9845 56.0396 33.2771 56.1412 33.4935 56.2428C33.7098 56.3443 33.9007 56.4967 34.0534 56.6872C34.2061 56.8776 34.2824 57.1443 34.2824 57.4617C34.2824 57.9315 34.1043 58.287 33.748 58.5409C33.3917 58.7822 32.9463 58.9092 32.4118 58.9092C32.0428 58.9092 31.6738 58.8457 31.3302 58.7314C30.9739 58.6171 30.6812 58.4394 30.4394 58.2235L30.7703 57.576C30.9739 57.7664 31.2411 57.9188 31.5465 58.0331C31.8519 58.1473 32.1446 58.1981 32.4373 58.1981C32.73 58.1981 32.959 58.1473 33.1372 58.0331C33.3153 57.9315 33.4044 57.7664 33.4044 57.5379C33.4044 57.3093 33.3153 57.1443 33.1244 57.03C32.9336 56.9157 32.6536 56.8014 32.2718 56.6872C31.941 56.5983 31.661 56.4967 31.4574 56.3951C31.2411 56.2936 31.0629 56.1539 30.923 55.9634C30.7703 55.773 30.7066 55.5317 30.7066 55.227C30.7066 54.7572 30.8721 54.4144 31.2156 54.1731C31.5592 53.9446 31.9792 53.8176 32.4882 53.8176C32.7936 53.8176 33.0863 53.8557 33.3789 53.9446C33.6716 54.0335 33.9261 54.1477 34.1425 54.2874L33.8243 54.9604C33.6207 54.8588 33.4044 54.7572 33.1499 54.681Z" fill="#0099D7"/>
<path d="M39.2966 54.5409C39.6911 54.998 39.8947 55.6328 39.8947 56.4454C39.8947 56.5724 39.8947 56.6613 39.882 56.7248H35.9244C35.988 57.1692 36.1789 57.5247 36.4843 57.7913C36.7897 58.058 37.1715 58.1849 37.6168 58.1849C37.9095 58.1849 38.1895 58.1341 38.444 58.0199C38.6985 57.9183 38.9276 57.7659 39.1057 57.5628L39.5893 58.058C39.3475 58.3246 39.0421 58.5278 38.6985 58.6674C38.3549 58.8071 37.9604 58.8833 37.5405 58.8833C37.0442 58.8833 36.6115 58.7817 36.2298 58.5658C35.848 58.35 35.5553 58.058 35.339 57.6771C35.1227 57.2961 35.0209 56.8517 35.0209 56.3692C35.0209 55.8741 35.1227 55.4424 35.339 55.0615C35.5553 54.6805 35.848 54.3758 36.2298 54.16C36.6115 53.9441 37.0442 53.8298 37.5278 53.8298C38.3167 53.8552 38.9021 54.0838 39.2966 54.5409ZM39.093 56.0518C39.0675 55.5947 38.9148 55.2392 38.6349 54.9853C38.3549 54.7186 37.9859 54.5917 37.5405 54.5917C37.0951 54.5917 36.7261 54.7186 36.4334 54.9853C36.1407 55.2519 35.9625 55.6074 35.9116 56.0518H39.093Z" fill="#0099D7"/>
<path d="M42.7571 54.1474C43.0625 53.9569 43.4188 53.868 43.8388 53.8553V54.7061C43.3298 54.6934 42.9098 54.8203 42.6044 55.0997C42.2863 55.379 42.1081 55.7599 42.0699 56.2424V58.8834H41.1919V53.8807H42.0699V54.96C42.2099 54.6045 42.4517 54.3251 42.7571 54.1474Z" fill="#0099D7"/>
<path d="M44.284 53.8812H45.2257L46.7273 58.0078L48.2289 53.8812H49.1196L47.1726 58.8839H46.2564L44.284 53.8812Z" fill="#0099D7"/>
<path d="M50.8515 52.0525C50.9533 52.1541 51.0042 52.2938 51.0042 52.4588C51.0042 52.6239 50.9533 52.7636 50.8515 52.8651C50.7497 52.9667 50.6224 53.0302 50.457 53.0302C50.3043 53.0302 50.1643 52.9794 50.0625 52.8651C49.9607 52.7636 49.9098 52.6239 49.9098 52.4588C49.9098 52.2938 49.9607 52.1541 50.0625 52.0525C50.1643 51.9509 50.2915 51.8875 50.457 51.8875C50.6224 51.8875 50.7497 51.9382 50.8515 52.0525ZM50.0243 53.8809H50.9024V58.8835H50.0243V53.8809Z" fill="#0099D7"/>
<path d="M54.7705 54.6426C54.4396 54.6426 54.147 54.7187 53.8925 54.8584C53.6379 54.9981 53.4343 55.2139 53.2944 55.4679C53.1544 55.7345 53.078 56.0392 53.078 56.3821C53.078 56.7249 53.1544 57.0296 53.2944 57.2963C53.4343 57.5629 53.6379 57.766 53.8797 57.9184C54.1342 58.0708 54.4142 58.1343 54.7323 58.1343C55.0505 58.1343 55.3431 58.0835 55.5976 57.9692C55.8522 57.8676 56.0685 57.7026 56.2466 57.5121L56.7429 58.02C56.5139 58.2993 56.2212 58.5152 55.8776 58.6675C55.534 58.8199 55.1268 58.8961 54.6941 58.8961C54.2106 58.8961 53.7779 58.7945 53.3962 58.5787C53.0144 58.3628 52.7217 58.0708 52.5054 57.6899C52.2891 57.309 52.1873 56.8773 52.1873 56.3821C52.1873 55.8869 52.2891 55.4552 52.5054 55.0743C52.7217 54.6934 53.0144 54.3886 53.3962 54.1728C53.7779 53.9569 54.2106 53.8553 54.6941 53.8553C55.1141 53.8553 55.4958 53.9188 55.8394 54.0458C56.183 54.1728 56.463 54.3632 56.692 54.6045L56.2085 55.2139C55.814 54.833 55.3304 54.6426 54.7705 54.6426Z" fill="#0099D7"/>
<path d="M61.6427 54.5409C62.0371 54.998 62.2408 55.6328 62.2408 56.4454C62.2408 56.5724 62.2408 56.6613 62.228 56.7248H58.2704C58.3341 57.1692 58.5249 57.5247 58.8304 57.7913C59.1358 58.058 59.5175 58.1849 59.9629 58.1849C60.2556 58.1849 60.5356 58.1341 60.7901 58.0199C61.0446 57.9183 61.2736 57.7659 61.4518 57.5628L61.9353 58.058C61.6936 58.3246 61.3882 58.5278 61.0446 58.6674C60.701 58.8071 60.3065 58.8833 59.8866 58.8833C59.3903 58.8833 58.9576 58.7817 58.5759 58.5658C58.1941 58.35 57.9014 58.058 57.6851 57.6771C57.4687 57.2961 57.3669 56.8517 57.3669 56.3692C57.3669 55.8741 57.4687 55.4424 57.6851 55.0615C57.9014 54.6805 58.1941 54.3758 58.5759 54.16C58.9576 53.9441 59.3903 53.8298 59.8738 53.8298C60.6501 53.8552 61.2482 54.0838 61.6427 54.5409ZM61.4391 56.0518C61.4136 55.5947 61.2609 55.2392 60.9809 54.9853C60.701 54.7186 60.332 54.5917 59.8866 54.5917C59.4412 54.5917 59.0721 54.7186 58.7795 54.9853C58.4868 55.2519 58.3086 55.6074 58.2577 56.0518H61.4391Z" fill="#0099D7"/>
<path d="M65.5615 54.681C65.3069 54.6048 65.0779 54.5668 64.8488 54.5668C64.5816 54.5668 64.3653 54.6175 64.2126 54.7191C64.0471 54.8207 63.9708 54.9604 63.9708 55.1635C63.9708 55.3667 64.0599 55.519 64.238 55.6206C64.4162 55.7222 64.6961 55.8238 65.0524 55.938C65.396 56.0396 65.6887 56.1412 65.905 56.2428C66.1214 56.3443 66.3122 56.4967 66.4649 56.6872C66.6177 56.8776 66.694 57.1443 66.694 57.4617C66.694 57.9315 66.5159 58.287 66.1595 58.5409C65.8032 58.7822 65.3578 58.9092 64.8234 58.9092C64.4543 58.9092 64.0853 58.8457 63.7417 58.7314C63.3854 58.6171 63.0927 58.4394 62.851 58.2235L63.1818 57.576C63.3854 57.7664 63.6527 57.9188 63.9581 58.0331C64.2635 58.1473 64.5562 58.1981 64.8488 58.1981C65.1415 58.1981 65.3706 58.1473 65.5487 58.0331C65.7269 57.9315 65.816 57.7664 65.816 57.5379C65.816 57.3093 65.7269 57.1443 65.536 57.03C65.3451 56.9157 65.0652 56.8014 64.6834 56.6872C64.3525 56.5983 64.0726 56.4967 63.869 56.3951C63.6526 56.2936 63.4745 56.1539 63.3345 55.9634C63.1818 55.773 63.1182 55.5317 63.1182 55.227C63.1182 54.7572 63.2836 54.4144 63.6272 54.1731C63.9708 53.9446 64.3907 53.8176 64.8997 53.8176C65.2051 53.8176 65.4978 53.8557 65.7905 53.9446C66.0832 54.0335 66.3377 54.1477 66.554 54.2874L66.2359 54.9604C66.045 54.8588 65.816 54.7572 65.5615 54.681Z" fill="#0099D7"/>
</g>
<path d="M110.592 26.2L105.792 34.144L100.968 26.2H97.56V43H100.872V32.128L105.6 39.904H105.984L110.712 32.104V43H114V26.2H110.592ZM118.522 29.944C119.578 29.944 120.442 29.104 120.442 28.096C120.442 27.088 119.578 26.224 118.522 26.224C117.49 26.224 116.626 27.088 116.626 28.096C116.626 29.104 117.49 29.944 118.522 29.944ZM120.082 43V31H116.986V43H120.082ZM128.628 43.336C130.956 43.336 132.996 42.112 134.052 40.216L131.364 38.68C130.884 39.664 129.852 40.264 128.604 40.264C127.668 40.264 126.9 39.952 126.3 39.352C125.7 38.728 125.388 37.936 125.388 37C125.388 35.08 126.756 33.712 128.604 33.712C129.828 33.712 130.86 34.336 131.34 35.32L134.004 33.76C133.02 31.864 130.956 30.664 128.628 30.664C126.828 30.664 125.316 31.264 124.092 32.488C122.892 33.712 122.292 35.2 122.292 37C122.292 38.8 122.892 40.288 124.092 41.512C125.316 42.736 126.828 43.336 128.628 43.336ZM138.879 31H135.783V43H138.879V37.264C138.879 36.112 139.239 35.296 139.983 34.792C140.727 34.288 141.591 34.096 142.527 34.216V30.76C140.895 30.76 139.455 31.528 138.879 33.064V31ZM154.562 41.512C155.786 40.288 156.41 38.776 156.41 37C156.41 35.224 155.786 33.736 154.562 32.512C153.338 31.288 151.826 30.664 150.05 30.664C148.274 30.664 146.762 31.288 145.538 32.512C144.314 33.736 143.714 35.224 143.714 37C143.714 38.776 144.314 40.288 145.538 41.512C146.762 42.736 148.274 43.336 150.05 43.336C151.826 43.336 153.338 42.736 154.562 41.512ZM147.722 39.376C147.122 38.752 146.81 37.96 146.81 37C146.81 36.04 147.122 35.248 147.722 34.624C148.346 34 149.114 33.688 150.05 33.688C150.986 33.688 151.754 34 152.378 34.624C153.002 35.248 153.314 36.04 153.314 37C153.314 37.96 153.002 38.752 152.378 39.376C151.754 40 150.986 40.312 150.05 40.312C149.114 40.312 148.346 40 147.722 39.376ZM161.186 34.408C161.186 33.808 161.786 33.424 162.578 33.424C163.466 33.424 164.114 33.832 164.498 34.648L167.138 33.208C166.202 31.576 164.522 30.664 162.578 30.664C161.282 30.664 160.202 31 159.314 31.696C158.45 32.368 158.018 33.304 158.018 34.48C158.018 36.976 160.25 37.72 162.026 38.176C163.25 38.488 164.21 38.848 164.21 39.496C164.21 40.192 163.658 40.528 162.554 40.528C161.33 40.528 160.562 40 160.202 38.968L157.514 40.48C158.402 42.376 160.082 43.336 162.554 43.336C163.922 43.336 165.074 43 165.986 42.352C166.922 41.68 167.378 40.72 167.378 39.496C167.402 36.928 165.122 36.088 163.37 35.728C162.146 35.416 161.186 35.056 161.186 34.408ZM181.15 38.272C181.222 37.816 181.27 37.408 181.27 37C181.27 35.2 180.694 33.712 179.542 32.488C178.414 31.264 176.95 30.664 175.198 30.664C173.35 30.664 171.814 31.264 170.638 32.488C169.462 33.688 168.862 35.2 168.862 37C168.862 38.824 169.462 40.336 170.662 41.536C171.862 42.736 173.446 43.336 175.438 43.336C177.742 43.336 179.494 42.472 180.67 40.768L178.174 39.328C177.574 40.12 176.662 40.528 175.486 40.528C173.638 40.528 172.51 39.784 172.102 38.272H181.15ZM172.054 35.872C172.414 34.336 173.542 33.448 175.198 33.448C176.614 33.448 177.814 34.24 178.174 35.872H172.054ZM186.528 31H183.432V43H186.528V37.264C186.528 36.112 186.888 35.296 187.632 34.792C188.376 34.288 189.24 34.096 190.176 34.216V30.76C188.544 30.76 187.104 31.528 186.528 33.064V31ZM196.954 39.4L194.05 31H190.642L195.202 43H198.73L203.29 31H199.882L196.954 39.4ZM206.319 29.944C207.375 29.944 208.239 29.104 208.239 28.096C208.239 27.088 207.375 26.224 206.319 26.224C205.287 26.224 204.423 27.088 204.423 28.096C204.423 29.104 205.287 29.944 206.319 29.944ZM207.879 43V31H204.783V43H207.879ZM216.425 43.336C218.753 43.336 220.793 42.112 221.849 40.216L219.161 38.68C218.681 39.664 217.649 40.264 216.401 40.264C215.465 40.264 214.697 39.952 214.097 39.352C213.497 38.728 213.185 37.936 213.185 37C213.185 35.08 214.553 33.712 216.401 33.712C217.625 33.712 218.657 34.336 219.137 35.32L221.801 33.76C220.817 31.864 218.753 30.664 216.425 30.664C214.625 30.664 213.113 31.264 211.889 32.488C210.689 33.712 210.089 35.2 210.089 37C210.089 38.8 210.689 40.288 211.889 41.512C213.113 42.736 214.625 43.336 216.425 43.336ZM235.244 38.272C235.316 37.816 235.364 37.408 235.364 37C235.364 35.2 234.788 33.712 233.636 32.488C232.508 31.264 231.044 30.664 229.292 30.664C227.444 30.664 225.908 31.264 224.732 32.488C223.556 33.688 222.956 35.2 222.956 37C222.956 38.824 223.556 40.336 224.756 41.536C225.956 42.736 227.54 43.336 229.532 43.336C231.836 43.336 233.588 42.472 234.764 40.768L232.268 39.328C231.668 40.12 230.756 40.528 229.58 40.528C227.732 40.528 226.604 39.784 226.196 38.272H235.244ZM226.148 35.872C226.508 34.336 227.636 33.448 229.292 33.448C230.708 33.448 231.908 34.24 232.268 35.872H226.148ZM239.913 34.408C239.913 33.808 240.513 33.424 241.305 33.424C242.193 33.424 242.841 33.832 243.225 34.648L245.865 33.208C244.929 31.576 243.249 30.664 241.305 30.664C240.009 30.664 238.929 31 238.041 31.696C237.177 32.368 236.745 33.304 236.745 34.48C236.745 36.976 238.977 37.72 240.753 38.176C241.977 38.488 242.937 38.848 242.937 39.496C242.937 40.192 242.385 40.528 241.281 40.528C240.057 40.528 239.289 40 238.929 38.968L236.241 40.48C237.129 42.376 238.809 43.336 241.281 43.336C242.649 43.336 243.801 43 244.713 42.352C245.649 41.68 246.105 40.72 246.105 39.496C246.129 36.928 243.849 36.088 242.097 35.728C240.873 35.416 239.913 35.056 239.913 34.408Z" fill="#0C152A"/>
<defs>
<clipPath id="clip0_231_1824">
<rect width="72" height="46.6364" fill="white" transform="translate(0 12.2727)"/>
</clipPath>
</defs>
</svg>
