<svg width="46" height="46" viewBox="0 0 46 46" fill="none" xmlns="http://www.w3.org/2000/svg">
<g clip-path="url(#clip0)">
<path d="M45.8906 37.5379C45.8906 41.6629 42.5156 45.0379 38.3906 45.0379H8.39063C4.26563 45.0379 0.890625 41.6629 0.890625 37.5379V7.53786C0.890625 3.41286 4.26563 0.0378571 8.39063 0.0378571H38.3906C42.5156 0.0378571 45.8906 3.41286 45.8906 7.53786V37.5379Z" fill="#818181"/>
<path d="M13.1172 9.81717H25.8745C28.2275 9.81717 30.1172 10.3539 31.5363 11.4348C32.9554 12.5157 33.6687 14.1407 33.6687 16.3245C33.6687 17.6481 33.3451 18.7804 32.6981 19.7216C32.051 20.6628 31.1245 21.3981 29.9187 21.9128V21.9863C31.5363 22.3319 32.7642 23.0966 33.5951 24.2804C34.426 25.4716 34.8451 26.9569 34.8451 28.751C34.8451 29.7804 34.6613 30.7436 34.2937 31.6334C33.926 32.5304 33.3525 33.3025 32.5657 33.9495C31.779 34.5966 30.779 35.1113 29.551 35.4936C28.3231 35.876 26.8672 36.0672 25.176 36.0672H13.1172V9.81717ZM17.7128 20.8098H25.2128C26.3157 20.8098 27.2348 20.501 27.9701 19.8686C28.7054 19.2363 29.0731 18.3392 29.0731 17.1628C29.0731 15.8392 28.7422 14.9054 28.0804 14.3686C27.4187 13.8319 26.4628 13.5598 25.2128 13.5598H17.7128V20.8098ZM17.7128 32.3172H25.8378C27.2348 32.3172 28.3231 31.9569 29.0878 31.2289C29.8598 30.5084 30.2495 29.4789 30.2495 28.1554C30.2495 26.8539 29.8672 25.8613 29.0878 25.1554C28.3084 24.4495 27.2348 24.1113 25.8378 24.1113H17.7128V32.3172Z" fill="white"/>
</g>
<defs>
<clipPath id="clip0">
<rect x="0.890625" y="0.0378571" width="45" height="45" fill="white"/>
</clipPath>
</defs>
</svg>
