<svg width="169" height="72" viewBox="0 0 169 72" fill="none" xmlns="http://www.w3.org/2000/svg">
<path d="M23.3652 52.6116L34.4351 63.6884L64.8929 33.2236H42.7462L23.3652 52.6116Z" fill="#39CEFD"/>
<path d="M42.7462 0H64.8929L17.8268 47.0731L6.74995 35.9963L42.7462 0Z" fill="#39CEFD"/>
<path d="M34.4351 63.6884L42.7462 71.9926H64.8929L45.5119 52.6116L34.4351 63.6884Z" fill="#03569B"/>
<path d="M50.8632 57.9975L45.5119 52.6116L34.4351 63.6884L50.8632 57.9975Z" fill="url(#paint0_linear_231_1884)"/>
<path d="M23.364 52.6077L34.4411 41.5305L45.5189 52.6077L34.4411 63.6849L23.364 52.6077Z" fill="#16B9FD"/>
<path d="M64.8929 33.2236L45.5119 52.6115L64.8929 71.9994H42.7462L23.3583 52.6115L42.7462 33.2236H64.8929ZM42.7462 0L6.74995 35.9963L17.8268 47.0731L64.8929 0H42.7462V0Z" fill="url(#paint1_radial_231_1884)"/>
<path d="M107.592 26.2H97.56V43H100.872V36.52H107.4V33.352H100.872V29.368H107.592V26.2ZM112.957 43V25.48H109.861V43H112.957ZM123.711 37.48C123.711 39.472 122.679 40.456 121.071 40.456C119.631 40.456 118.695 39.592 118.695 37.984V31H115.599V38.368C115.599 39.928 116.031 41.128 116.871 42.016C117.735 42.904 118.815 43.336 120.135 43.336C121.767 43.336 122.967 42.784 123.711 41.656V43H126.807V31H123.711V37.48ZM136.507 31H133.795V27.64L130.699 28.576V31H128.611V33.976H130.699V38.968C130.699 42.256 132.259 43.48 136.507 43V40.192C134.731 40.288 133.795 40.264 133.795 38.968V33.976H136.507V31ZM145.085 31H142.373V27.64L139.277 28.576V31H137.189V33.976H139.277V38.968C139.277 42.256 140.837 43.48 145.085 43V40.192C143.309 40.288 142.373 40.264 142.373 38.968V33.976H145.085V31ZM159.119 38.272C159.191 37.816 159.239 37.408 159.239 37C159.239 35.2 158.663 33.712 157.511 32.488C156.383 31.264 154.919 30.664 153.167 30.664C151.319 30.664 149.783 31.264 148.607 32.488C147.431 33.688 146.831 35.2 146.831 37C146.831 38.824 147.431 40.336 148.631 41.536C149.831 42.736 151.415 43.336 153.407 43.336C155.711 43.336 157.463 42.472 158.639 40.768L156.143 39.328C155.543 40.12 154.631 40.528 153.455 40.528C151.607 40.528 150.479 39.784 150.071 38.272H159.119ZM150.023 35.872C150.383 34.336 151.511 33.448 153.167 33.448C154.583 33.448 155.783 34.24 156.143 35.872H150.023ZM164.496 31H161.4V43H164.496V37.264C164.496 36.112 164.856 35.296 165.6 34.792C166.344 34.288 167.208 34.096 168.144 34.216V30.76C166.512 30.76 165.072 31.528 164.496 33.064V31Z" fill="#0C152A"/>
<defs>
<linearGradient id="paint0_linear_231_1884" x1="37.6677" y1="65.8261" x2="45.9174" y2="57.5763" gradientUnits="userSpaceOnUse">
<stop stop-color="#1A237E" stop-opacity="0.4"/>
<stop offset="1" stop-color="#1A237E" stop-opacity="0"/>
</linearGradient>
<radialGradient id="paint1_radial_231_1884" cx="0" cy="0" r="1" gradientUnits="userSpaceOnUse" gradientTransform="translate(8.38338 4.90727) scale(88.0825 88.0825)">
<stop stop-color="white" stop-opacity="0.1"/>
<stop offset="1" stop-color="white" stop-opacity="0"/>
</radialGradient>
</defs>
</svg>
