<svg width="70" height="46" viewBox="0 0 70 46" fill="none" xmlns="http://www.w3.org/2000/svg">
<g clip-path="url(#clip0)">
<path d="M31.0578 24.0006C31.0578 22.1377 30.0174 20.5046 28.4932 19.6699C28.5295 19.4038 28.5537 19.1256 28.5537 18.8352C28.5537 15.7989 26.098 13.3432 23.0617 13.3432C22.2512 13.3432 21.477 13.5246 20.7874 13.8392C19.8923 12.0246 18.0293 10.7786 15.864 10.7786C12.8276 10.7786 10.3719 13.2343 10.3719 16.2707C10.3719 16.3432 10.3719 16.4158 10.3719 16.4884C10.1784 16.4642 9.97272 16.4521 9.77917 16.4521C8.23075 16.4521 6.85169 17.1658 5.94442 18.2788C5.93232 18.2788 5.92023 18.2788 5.90813 18.2788C2.96856 18.2788 0.585449 20.6619 0.585449 23.6014C0.585449 26.541 2.96856 28.9241 5.90813 28.9241H26.1222C28.844 28.9362 31.0578 26.7225 31.0578 24.0006ZM1.79515 23.6014C1.79515 21.3393 3.63389 19.4885 5.89603 19.4885C5.90813 19.4885 5.92023 19.4885 5.93232 19.4885H6.51298L6.87589 19.0409C7.58961 18.1578 8.64205 17.6618 9.76707 17.6618C9.91224 17.6618 10.0574 17.6739 10.2147 17.686L11.6179 17.8554L11.5574 16.44C11.5574 16.3795 11.5574 16.3191 11.5574 16.2707C11.5574 13.9117 13.4809 11.9883 15.8398 11.9883C17.485 11.9883 18.9487 12.9077 19.6745 14.3714L20.1947 15.4239L21.2592 14.94C21.8157 14.686 22.4205 14.5529 23.0375 14.5529C25.3964 14.5529 27.3198 16.4763 27.3198 18.8352C27.3198 19.053 27.3077 19.2707 27.2714 19.4885L27.1505 20.3232L27.8884 20.7345C29.086 21.3877 29.8239 22.6458 29.8239 24.0006C29.8239 26.0571 28.1545 27.7265 26.098 27.7265H5.90813C3.64599 27.7265 1.79515 25.8757 1.79515 23.6014Z" fill="#515250"/>
<path d="M66.4659 11.3592C66.5022 11.093 66.5264 10.8148 66.5264 10.5245C66.5264 7.48812 64.0707 5.03243 61.0343 5.03243C60.2238 5.03243 59.4496 5.21388 58.7601 5.52841C57.8649 3.71386 56.002 2.46786 53.8366 2.46786C50.8003 2.46786 48.3446 4.92356 48.3446 7.9599C48.3446 8.03248 48.3446 8.10507 48.3446 8.17765C48.151 8.15345 47.9454 8.14136 47.7518 8.14136C46.2034 8.14136 44.8244 8.85508 43.9171 9.968C43.905 9.968 43.8929 9.968 43.8808 9.968C40.9412 9.968 38.5581 12.3511 38.5581 15.2907C38.5581 18.2303 40.9412 20.6134 43.8808 20.6134H64.0949C66.8167 20.6134 69.0304 18.3996 69.0304 15.6778C69.0304 13.8269 68.0022 12.2059 66.4659 11.3592ZM64.0949 19.4158H43.8929C41.6186 19.4158 39.7799 17.5649 39.7799 15.3028C39.7799 13.0406 41.6186 11.1898 43.8808 11.1898C43.8929 11.1898 43.905 11.1898 43.9171 11.1898H44.4977L44.8606 10.7422C45.5744 9.85913 46.6268 9.36315 47.7518 9.36315C47.897 9.36315 48.0422 9.37525 48.1994 9.38735L49.6027 9.55671L49.5422 8.14136C49.5422 8.08087 49.5422 8.02039 49.5422 7.972C49.5422 5.61308 51.4656 3.68966 53.8245 3.68966C55.4697 3.68966 56.9334 4.60903 57.6593 6.07277L58.1794 7.12521L59.244 6.64133C59.8004 6.38729 60.4053 6.25423 61.0222 6.25423C63.3812 6.25423 65.3046 8.17765 65.3046 10.5366C65.3046 10.7543 65.2925 10.9721 65.2562 11.1898L65.1352 12.0245L65.8731 12.4358C67.0707 13.089 67.8087 14.3471 67.8087 15.702C67.8207 17.7464 66.1514 19.4158 64.0949 19.4158Z" fill="#515250"/>
<path d="M34.021 19.0041C34.2267 18.5686 34.4928 18.1694 34.7832 17.7944H29.6782C29.7266 18.1331 29.7629 18.4839 29.7629 18.8347C29.7629 18.8952 29.7629 18.9436 29.7629 19.0041H34.021Z" fill="#515250"/>
<path d="M20.5814 9.56876C20.5935 9.56876 20.6056 9.56876 20.6177 9.56876H21.1983L21.5612 9.12117C22.275 8.23809 23.3274 7.74211 24.4524 7.74211C24.5976 7.74211 24.7427 7.75421 24.9 7.7663L26.3033 7.93566L26.2428 6.52031C26.2428 6.45983 26.2428 6.39934 26.2428 6.35095C26.2428 3.99204 28.1662 2.06862 30.5251 2.06862C32.1703 2.06862 33.634 2.98799 34.3599 4.45173L34.88 5.50416L35.9446 5.02029C36.501 4.76625 37.1059 4.63318 37.7228 4.63318C40.0817 4.63318 42.0052 6.5566 42.0052 8.91552C42.0052 8.95181 42.0052 9.0002 42.0052 9.03649C42.3923 8.91552 42.8036 8.84294 43.2149 8.79455C43.1665 5.81869 40.735 3.42348 37.747 3.42348C36.9365 3.42348 36.1623 3.60494 35.4728 3.91946C34.5776 2.10491 32.7026 0.858917 30.5493 0.858917C27.513 0.858917 25.0573 3.31461 25.0573 6.35095C25.0573 6.42354 25.0573 6.49612 25.0573 6.5687C24.8637 6.54451 24.6581 6.53241 24.4645 6.53241C22.9161 6.53241 21.537 7.24613 20.6298 8.35906C20.6177 8.35906 20.6056 8.35906 20.5935 8.35906C19.2386 8.35906 18.0168 8.86713 17.0732 9.68973C17.5813 9.7865 18.0652 9.93167 18.5249 10.1252C19.1297 9.77441 19.8314 9.56876 20.5814 9.56876Z" fill="#515250"/>
<path d="M52.6628 25.3433C52.6991 25.0772 52.7233 24.799 52.7233 24.5086C52.7233 23.5409 52.4693 22.6336 52.0338 21.8352H50.5821C51.1749 22.5731 51.5257 23.4925 51.5257 24.5086C51.5257 24.7264 51.5136 24.9441 51.4773 25.1619L51.3564 25.9966L52.0943 26.4079C53.2919 27.0611 54.0298 28.3192 54.0298 29.6741C54.0298 31.7306 52.3604 33.3999 50.3039 33.3999H30.0898C28.118 33.3999 26.4607 32.0088 26.0615 30.1458H24.8276C25.251 32.6741 27.4406 34.6096 30.0898 34.6096H50.3039C53.0257 34.6096 55.2395 32.3959 55.2395 29.6741C55.2395 27.799 54.1992 26.178 52.6628 25.3433Z" fill="#515250"/>
<path d="M38.0255 18.1697C37.844 17.8068 37.6988 17.4318 37.59 17.0326C35.7875 17.9278 34.5536 19.7907 34.5536 21.944C34.5536 22.0166 34.5536 22.0891 34.5536 22.1617C34.3601 22.1375 34.1544 22.1254 33.9609 22.1254C33.2955 22.1254 32.6544 22.2585 32.0737 22.5004C32.1705 22.8996 32.231 23.323 32.2552 23.7464C32.7754 23.4803 33.356 23.3351 33.9609 23.3351C34.106 23.3351 34.2512 23.3472 34.4085 23.3593L35.8117 23.5287L35.7512 22.1133C35.7512 22.0528 35.7512 21.9924 35.7512 21.944C35.7633 20.3109 36.6827 18.8955 38.0255 18.1697Z" fill="#515250"/>
<path d="M31.3485 11.8795C31.6509 11.8795 31.8807 11.6496 31.8928 11.3472C31.8928 11.3351 31.8928 11.3351 31.8928 11.323C31.8928 11.3109 31.8928 11.3109 31.8928 11.2988C31.8807 11.0085 31.6388 10.7786 31.3485 10.7786C31.3485 10.7786 31.3485 10.7786 31.3364 10.7786C31.0339 10.7786 30.792 11.0206 30.792 11.323C30.792 11.6254 31.046 11.8795 31.3485 11.8795Z" fill="#515250"/>
<path d="M30.0775 14.4682L30.634 13.694C30.8517 13.7666 31.0816 13.7908 31.2993 13.8029L31.5897 14.7101L32.6542 14.4561L32.4969 13.5246C32.7026 13.4158 32.884 13.2827 33.0534 13.1133L33.9002 13.5488L34.4808 12.6173L33.7066 12.0609C33.7792 11.831 33.8155 11.6012 33.8155 11.3593L34.7228 11.0689L34.4687 10.0044L33.5373 10.1617C33.4284 9.95601 33.2953 9.77455 33.126 9.6052L33.5615 8.75841L32.6179 8.18985L32.0614 8.96405C31.8437 8.89147 31.6139 8.86728 31.3961 8.85518L31.1058 7.94791L30.0412 8.20194L30.1985 9.13341C29.9929 9.24229 29.8114 9.37535 29.642 9.54471L28.7953 9.10922L28.2146 10.0407L28.9888 10.5971C28.9162 10.827 28.8799 11.0568 28.8799 11.2988L27.9727 11.5891L28.2267 12.6536L29.1582 12.4964C29.267 12.702 29.4001 12.8835 29.5695 13.0528L29.134 13.8996L30.0775 14.4682ZM30.259 10.6697C30.5493 10.1859 31.13 9.96811 31.6501 10.1012C31.7711 10.1254 31.8921 10.1859 32.001 10.2463C32.5937 10.6092 32.7873 11.3835 32.4244 11.9883C32.376 12.0609 32.3276 12.1335 32.2671 12.194C31.8679 12.6294 31.2026 12.7262 30.6824 12.4117C30.0896 12.0488 29.8961 11.2746 30.259 10.6697Z" fill="#515250"/>
<path d="M54.683 13.5244C54.9837 13.5244 55.2274 13.2806 55.2274 12.98C55.2274 12.6794 54.9837 12.4356 54.683 12.4356C54.3824 12.4356 54.1387 12.6794 54.1387 12.98C54.1387 13.2806 54.3824 13.5244 54.683 13.5244Z" fill="#515250"/>
<path d="M58.0582 12.7259L57.8042 11.6614L56.8727 11.8187C56.7639 11.613 56.6308 11.4316 56.4614 11.2622L56.8969 10.4154L55.9534 9.84686L55.3969 10.6211C55.1791 10.5485 54.9493 10.5243 54.7316 10.5122L54.4412 9.60492L53.3767 9.85896L53.534 10.7904C53.3283 10.8993 53.1469 11.0324 52.9775 11.2017L52.1307 10.7662L51.55 11.6977L52.3243 12.2542C52.2517 12.484 52.2154 12.7138 52.2154 12.9558L51.3081 13.2461L51.5621 14.3107L52.4936 14.1534C52.6025 14.359 52.7356 14.5405 52.9049 14.7099L52.4694 15.5566L53.413 16.1252L53.9694 15.351C54.1872 15.4236 54.417 15.4478 54.6348 15.4599L54.9251 16.3671L55.9896 16.1131L55.8324 15.1816C56.038 15.0728 56.2195 14.9397 56.3888 14.7703L57.2356 15.2058L57.8163 14.2744L57.0421 13.7179C57.1147 13.4881 57.151 13.2582 57.151 13.0163L58.0582 12.7259ZM55.7598 13.6332C55.7114 13.7058 55.663 13.7784 55.6025 13.8389C55.2033 14.2744 54.538 14.3711 54.0178 14.0566C53.4251 13.6937 53.2315 12.9195 53.5944 12.3146C53.8848 11.8308 54.4654 11.613 54.9856 11.7461C55.1066 11.7703 55.2275 11.8308 55.3364 11.8913C55.9292 12.2542 56.1227 13.0405 55.7598 13.6332Z" fill="#515250"/>
<path d="M40.9897 27.4966C41.2903 27.4966 41.534 27.2529 41.534 26.9523C41.534 26.6516 41.2903 26.4079 40.9897 26.4079C40.689 26.4079 40.4453 26.6516 40.4453 26.9523C40.4453 27.2529 40.689 27.4966 40.9897 27.4966Z" fill="#515250"/>
<path d="M38.4251 24.7385L37.8445 25.6699L38.6187 26.2264C38.5461 26.4562 38.5098 26.6861 38.5098 26.928L37.6025 27.2183L37.8566 28.2829L38.788 28.1256C38.8969 28.3313 39.03 28.5127 39.1993 28.6821L38.7639 29.5289L39.7074 30.0974L40.2639 29.3232C40.4816 29.3958 40.7115 29.42 40.9292 29.4321L41.2195 30.3394L42.2841 30.0853L42.1268 29.1539C42.3325 29.045 42.5139 28.9119 42.6833 28.7426L43.5301 29.1781L44.1107 28.2466L43.3365 27.6901C43.4091 27.4603 43.4454 27.2304 43.4454 26.9885L44.3527 26.6982L44.0986 25.6336L43.1672 25.7909C43.0583 25.5853 42.9252 25.4038 42.7559 25.2344L43.1914 24.3876L42.2478 23.8191L41.6913 24.5933C41.4736 24.5207 41.2437 24.4965 41.026 24.4844L40.7357 23.5771L39.6711 23.8312L39.8284 24.7627C39.6227 24.8715 39.4413 25.0046 39.2719 25.174L38.4251 24.7385ZM39.901 26.299C40.1913 25.8151 40.772 25.5973 41.2921 25.7304C41.4131 25.7546 41.5341 25.8151 41.6429 25.8756C42.2357 26.2385 42.4292 27.0127 42.0663 27.6175C42.0179 27.6901 41.9696 27.7627 41.9091 27.8232C41.5099 28.2587 40.8445 28.3555 40.3244 28.0409C39.7316 27.678 39.5381 26.8917 39.901 26.299Z" fill="#515250"/>
<path d="M16.6259 21.8109C16.9266 21.8109 17.1703 21.5671 17.1703 21.2665C17.1703 20.9659 16.9266 20.7221 16.6259 20.7221C16.3253 20.7221 16.0815 20.9659 16.0815 21.2665C16.0815 21.5671 16.3253 21.8109 16.6259 21.8109Z" fill="#515250"/>
<path d="M20.0011 21.0124L19.7471 19.9479L18.8156 20.1051C18.7067 19.8995 18.5737 19.718 18.4043 19.5487L18.8398 18.7019L17.8962 18.1333L17.3398 18.9075C17.122 18.835 16.8922 18.8108 16.6744 18.7987L16.3841 17.8914L15.3196 18.1454L15.4768 19.0769C15.2712 19.1858 15.0897 19.3188 14.9204 19.4882L14.0736 19.0527L13.4929 19.9842L14.2671 20.5406C14.1945 20.7705 14.1583 21.0003 14.1583 21.2423L13.251 21.5326L13.505 22.5971L14.4365 22.4399C14.5454 22.6455 14.6784 22.827 14.8478 22.9963L14.4123 23.8431L15.3559 24.4117L15.9123 23.6375C16.1301 23.71 16.3599 23.7342 16.5777 23.7463L16.868 24.6536L17.9325 24.3996L17.7753 23.4681C17.9809 23.3592 18.1624 23.2262 18.3317 23.0568L19.1785 23.4923L19.7592 22.5608L18.985 22.0044C19.0575 21.7745 19.0938 21.5447 19.0938 21.3027L20.0011 21.0124ZM17.7148 21.9197C17.6664 21.9923 17.618 22.0649 17.5575 22.1253C17.1583 22.5608 16.493 22.6576 15.9728 22.3431C15.38 21.9802 15.1865 21.206 15.5494 20.6011C15.8397 20.1172 16.4204 19.8995 16.9406 20.0326C17.0615 20.0568 17.1825 20.1172 17.2914 20.1777C17.8841 20.5527 18.0777 21.3269 17.7148 21.9197Z" fill="#515250"/>
<path d="M4.86719 38.9646H5.89543L8.19386 43.3921L10.4802 38.9646H11.5205V45.2671H10.71L10.6979 40.2348L8.46 44.6018H7.92773L5.66559 40.2348V45.2671H4.86719V38.9646Z" fill="#818181"/>
<path d="M14.0968 38.7589C14.1936 38.8557 14.242 38.9887 14.242 39.146C14.242 39.3032 14.1936 39.4363 14.0968 39.5331C14.0001 39.6299 13.8791 39.6904 13.7218 39.6904C13.5767 39.6904 13.4436 39.642 13.3468 39.5331C13.25 39.4363 13.2017 39.3032 13.2017 39.146C13.2017 38.9887 13.25 38.8557 13.3468 38.7589C13.4436 38.6621 13.5646 38.6016 13.7218 38.6016C13.8791 38.6016 14.0001 38.65 14.0968 38.7589ZM13.3105 40.5009H14.1452V45.2671H13.3105V40.5009Z" fill="#818181"/>
<path d="M17.8229 41.2265C17.5084 41.2265 17.2301 41.2991 16.9882 41.4322C16.7462 41.5652 16.5527 41.7709 16.4196 42.0128C16.2866 42.2669 16.214 42.5572 16.214 42.8838C16.214 43.2104 16.2866 43.5008 16.4196 43.7548C16.5527 44.0088 16.7462 44.2024 16.9761 44.3475C17.218 44.4927 17.4842 44.5532 17.7866 44.5532C18.089 44.5532 18.3672 44.5048 18.6092 44.3959C18.8511 44.2992 19.0568 44.1419 19.2261 43.9604L19.6979 44.4443C19.4802 44.7104 19.2019 44.9161 18.8753 45.0613C18.5487 45.2064 18.1616 45.279 17.7503 45.279C17.2906 45.279 16.8793 45.1822 16.5164 44.9766C16.1535 44.7709 15.8753 44.4927 15.6696 44.1298C15.464 43.7669 15.3672 43.3556 15.3672 42.8838C15.3672 42.412 15.464 42.0007 15.6696 41.6378C15.8753 41.2749 16.1535 40.9846 16.5164 40.7789C16.8793 40.5733 17.2906 40.4765 17.7503 40.4765C18.1495 40.4765 18.5124 40.537 18.839 40.658C19.1656 40.7789 19.4318 40.9604 19.6495 41.1902L19.1898 41.7709C18.8148 41.408 18.3551 41.2265 17.8229 41.2265Z" fill="#818181"/>
<path d="M22.4811 40.7547C22.7714 40.5733 23.1101 40.4886 23.5093 40.4765V41.287C23.0255 41.2749 22.6263 41.3959 22.3359 41.662C22.0335 41.9281 21.8641 42.291 21.8279 42.7507V45.2669H20.9932V40.5007H21.8279V41.5289C21.973 41.1902 22.1908 40.9241 22.4811 40.7547Z" fill="#818181"/>
<path d="M27.7304 40.7789C28.1054 40.9846 28.3836 41.2628 28.5893 41.6257C28.7949 41.9886 28.9038 42.3999 28.9038 42.8717C28.9038 43.3435 28.7949 43.7548 28.5893 44.1177C28.3836 44.4806 28.0933 44.7709 27.7304 44.9766C27.3675 45.1822 26.9441 45.279 26.4602 45.279C25.9763 45.279 25.5529 45.1822 25.19 44.9766C24.8271 44.7709 24.5368 44.4927 24.3311 44.1298C24.1255 43.7669 24.0166 43.3435 24.0166 42.8717C24.0166 42.3999 24.1255 41.9886 24.3311 41.6257C24.5368 41.2628 24.8271 40.9846 25.19 40.7789C25.565 40.5733 25.9884 40.4765 26.4602 40.4765C26.9441 40.4765 27.3675 40.5733 27.7304 40.7789ZM25.6376 41.4201C25.3957 41.5652 25.2021 41.7588 25.069 42.0128C24.936 42.2669 24.8634 42.5572 24.8634 42.8838C24.8634 43.2104 24.936 43.5128 25.069 43.7669C25.2021 44.0209 25.3957 44.2266 25.6376 44.3596C25.8795 44.5048 26.1578 44.5653 26.4723 44.5653C26.7747 44.5653 27.0529 44.4927 27.2949 44.3596C27.5368 44.2145 27.7304 44.0209 27.8634 43.7669C27.9965 43.5128 28.0691 43.2104 28.0691 42.8838C28.0691 42.5572 27.9965 42.2669 27.8634 42.0128C27.7304 41.7588 27.5368 41.5531 27.2949 41.4201C27.0529 41.2749 26.7747 41.2023 26.4723 41.2023C26.1578 41.2023 25.8795 41.2749 25.6376 41.4201Z" fill="#818181"/>
<path d="M32.0977 41.2632C31.8557 41.1906 31.638 41.1543 31.4202 41.1543C31.1662 41.1543 30.9605 41.2027 30.8154 41.2995C30.6581 41.3962 30.5855 41.5293 30.5855 41.7229C30.5855 41.9164 30.6702 42.0616 30.8396 42.1584C31.0089 42.2551 31.2751 42.3519 31.6138 42.4608C31.9404 42.5576 32.2186 42.6543 32.4243 42.7511C32.6299 42.8479 32.8114 42.993 32.9565 43.1745C33.1017 43.356 33.1743 43.61 33.1743 43.9124C33.1743 44.36 33.0049 44.6987 32.6662 44.9407C32.3275 45.1705 31.9041 45.2915 31.396 45.2915C31.0452 45.2915 30.6944 45.231 30.3678 45.1221C30.0291 45.0132 29.7508 44.8439 29.521 44.6382L29.8355 44.0213C30.0291 44.2027 30.2831 44.3479 30.5734 44.4568C30.8638 44.5657 31.142 44.614 31.4202 44.614C31.6985 44.614 31.9162 44.5657 32.0856 44.4568C32.2549 44.36 32.3396 44.2027 32.3396 43.985C32.3396 43.7673 32.2549 43.61 32.0735 43.5011C31.892 43.3922 31.6259 43.2834 31.263 43.1745C30.9484 43.0898 30.6823 42.993 30.4888 42.8963C30.2831 42.7995 30.1137 42.6664 29.9807 42.485C29.8355 42.3035 29.775 42.0737 29.775 41.7833C29.775 41.3358 29.9323 41.0091 30.2589 40.7793C30.5855 40.5616 30.9847 40.4406 31.4686 40.4406C31.7589 40.4406 32.0372 40.4769 32.3154 40.5616C32.5936 40.6462 32.8356 40.7551 33.0412 40.8882L32.7388 41.5293C32.5452 41.4325 32.3396 41.3358 32.0977 41.2632Z" fill="#818181"/>
<path d="M37.9406 41.1297C38.3156 41.5652 38.5091 42.17 38.5091 42.9442C38.5091 43.0652 38.5091 43.1499 38.497 43.2104H34.7349C34.7953 43.6338 34.9768 43.9725 35.2671 44.2265C35.5575 44.4805 35.9204 44.6015 36.3438 44.6015C36.622 44.6015 36.8881 44.5531 37.1301 44.4443C37.372 44.3475 37.5898 44.2023 37.7591 44.0088L38.2188 44.4805C37.989 44.7346 37.6986 44.9281 37.372 45.0612C37.0454 45.1943 36.6704 45.2668 36.2712 45.2668C35.7994 45.2668 35.3881 45.1701 35.0252 44.9644C34.6623 44.7588 34.3841 44.4805 34.1784 44.1176C33.9728 43.7547 33.876 43.3313 33.876 42.8716C33.876 42.3999 33.9728 41.9886 34.1784 41.6257C34.3841 41.2627 34.6623 40.9724 35.0252 40.7668C35.3881 40.5611 35.7994 40.4522 36.2591 40.4522C37.0091 40.4764 37.5656 40.6942 37.9406 41.1297ZM37.747 42.5692C37.7228 42.1337 37.5777 41.795 37.3115 41.5531C37.0454 41.299 36.6946 41.1781 36.2712 41.1781C35.8478 41.1781 35.497 41.299 35.2187 41.5531C34.9405 41.8071 34.7712 42.1458 34.7228 42.5692H37.747Z" fill="#818181"/>
<path d="M41.2301 40.7547C41.5204 40.5733 41.8592 40.4886 42.2584 40.4765V41.287C41.7745 41.2749 41.3753 41.3959 41.085 41.662C40.7825 41.9281 40.6132 42.291 40.5769 42.7507V45.2669H39.7422V40.5007H40.5769V41.5289C40.7099 41.1902 40.9398 40.9241 41.2301 40.7547Z" fill="#818181"/>
<path d="M42.6821 40.5012H43.5773L45.0048 44.4327L46.4322 40.5012H47.279L45.4281 45.2674H44.5572L42.6821 40.5012Z" fill="#818181"/>
<path d="M48.925 38.7589C49.0217 38.8557 49.0701 38.9887 49.0701 39.146C49.0701 39.3032 49.0217 39.4363 48.925 39.5331C48.8282 39.6299 48.7072 39.6904 48.55 39.6904C48.4048 39.6904 48.2717 39.642 48.1749 39.5331C48.0782 39.4363 48.0298 39.3032 48.0298 39.146C48.0298 38.9887 48.0782 38.8557 48.1749 38.7589C48.2717 38.6621 48.3927 38.6016 48.55 38.6016C48.7072 38.6016 48.8282 38.65 48.925 38.7589ZM48.1387 40.5009H48.9733V45.2671H48.1387V40.5009Z" fill="#818181"/>
<path d="M52.6505 41.2265C52.336 41.2265 52.0578 41.2991 51.8158 41.4322C51.5739 41.5652 51.3803 41.7709 51.2473 42.0128C51.1142 42.2669 51.0416 42.5572 51.0416 42.8838C51.0416 43.2104 51.1142 43.5008 51.2473 43.7548C51.3803 44.0088 51.5739 44.2024 51.8037 44.3475C52.0457 44.4927 52.3118 44.5532 52.6142 44.5532C52.9166 44.5532 53.1949 44.5048 53.4368 44.3959C53.6788 44.2992 53.8844 44.1419 54.0538 43.9604L54.5255 44.4443C54.3078 44.7104 54.0296 44.9161 53.703 45.0613C53.3763 45.2064 52.9892 45.279 52.5779 45.279C52.1182 45.279 51.7069 45.1822 51.344 44.9766C50.9811 44.7709 50.7029 44.4927 50.4972 44.1298C50.2916 43.7669 50.1948 43.3556 50.1948 42.8838C50.1948 42.412 50.2916 42.0007 50.4972 41.6378C50.7029 41.2749 50.9811 40.9846 51.344 40.7789C51.7069 40.5733 52.1182 40.4765 52.5779 40.4765C52.9771 40.4765 53.34 40.537 53.6667 40.658C53.9933 40.7789 54.2594 40.9604 54.4772 41.1902L54.0175 41.7709C53.6425 41.408 53.1828 41.2265 52.6505 41.2265Z" fill="#818181"/>
<path d="M59.1832 41.1297C59.5583 41.5652 59.7518 42.17 59.7518 42.9442C59.7518 43.0652 59.7518 43.1499 59.7397 43.2104H55.9775C56.038 43.6338 56.2195 43.9725 56.5098 44.2265C56.8001 44.4805 57.163 44.6015 57.5864 44.6015C57.8647 44.6015 58.1308 44.5531 58.3727 44.4443C58.6147 44.3475 58.8324 44.2023 59.0018 44.0088L59.4615 44.4805C59.2316 44.7346 58.9413 44.9281 58.6147 45.0612C58.2881 45.1943 57.9131 45.2668 57.5139 45.2668C57.0421 45.2668 56.6308 45.1701 56.2679 44.9644C55.905 44.7588 55.6267 44.4805 55.4211 44.1176C55.2154 43.7547 55.1187 43.3313 55.1187 42.8716C55.1187 42.3999 55.2154 41.9886 55.4211 41.6257C55.6267 41.2627 55.905 40.9724 56.2679 40.7668C56.6308 40.5611 57.0421 40.4522 57.5018 40.4522C58.2397 40.4764 58.8082 40.6942 59.1832 41.1297ZM58.9897 42.5692C58.9655 42.1337 58.8203 41.795 58.5542 41.5531C58.2881 41.299 57.9373 41.1781 57.5139 41.1781C57.0905 41.1781 56.7397 41.299 56.4614 41.5531C56.1832 41.8071 56.0138 42.1458 55.9654 42.5692H58.9897Z" fill="#818181"/>
<path d="M62.9092 41.2632C62.6672 41.1906 62.4495 41.1543 62.2317 41.1543C61.9777 41.1543 61.7721 41.2027 61.6269 41.2995C61.4696 41.3962 61.3971 41.5293 61.3971 41.7229C61.3971 41.9164 61.4817 42.0616 61.6511 42.1584C61.8204 42.2551 62.0866 42.3519 62.4253 42.4608C62.7519 42.5576 63.0302 42.6543 63.2358 42.7511C63.4415 42.8479 63.6229 42.993 63.7681 43.1745C63.9132 43.356 63.9858 43.61 63.9858 43.9124C63.9858 44.36 63.8165 44.6987 63.4777 44.9407C63.139 45.1705 62.7156 45.2915 62.2076 45.2915C61.8567 45.2915 61.5059 45.231 61.1793 45.1221C60.8406 45.0132 60.5624 44.8439 60.3325 44.6382L60.647 44.0213C60.8406 44.2027 61.0946 44.3479 61.385 44.4568C61.6753 44.5657 61.9535 44.614 62.2317 44.614C62.51 44.614 62.7277 44.5657 62.8971 44.4568C63.0664 44.36 63.1511 44.2027 63.1511 43.985C63.1511 43.7673 63.0664 43.61 62.885 43.5011C62.7035 43.3922 62.4374 43.2834 62.0745 43.1745C61.76 43.0898 61.4938 42.993 61.3003 42.8963C61.0946 42.7995 60.9253 42.6664 60.7922 42.485C60.647 42.3035 60.5866 42.0737 60.5866 41.7833C60.5866 41.3358 60.7438 41.0091 61.0704 40.7793C61.3971 40.5616 61.7963 40.4406 62.2801 40.4406C62.5705 40.4406 62.8487 40.4769 63.1269 40.5616C63.4052 40.6462 63.6471 40.7551 63.8527 40.8882L63.5503 41.5293C63.3689 41.4325 63.1511 41.3358 62.9092 41.2632Z" fill="#818181"/>
</g>
<defs>
<clipPath id="clip0">
<rect x="0.584473" y="0.85907" width="68.4448" height="44.4323" fill="white"/>
</clipPath>
</defs>
</svg>
