<svg width="209" height="72" viewBox="0 0 209 72" fill="none" xmlns="http://www.w3.org/2000/svg">
<path d="M36.0534 6.54589C33.5906 6.55706 31.2387 6.76196 29.1693 7.11918C23.0729 8.16985 21.966 10.369 21.966 14.4246V19.7808H36.3725V21.5662H21.966H16.5594C12.3725 21.5662 8.70635 24.0212 7.55962 28.6914C6.23688 34.0445 6.17821 37.385 7.55962 42.9746C8.58368 47.1352 11.0293 50.0998 15.2162 50.0998H20.1694V43.6789C20.1694 39.0402 24.2836 34.9485 29.1693 34.9485H43.5589C47.5644 34.9485 50.7621 31.7311 50.7621 27.8069V14.4246C50.7621 10.6159 47.4684 7.75484 43.5589 7.11918C41.0841 6.7173 38.5162 6.53473 36.0534 6.54589ZM28.2626 10.8538C29.7506 10.8538 30.9659 12.0586 30.9659 13.5401C30.9659 15.0163 29.7506 16.21 28.2626 16.21C26.7691 16.21 25.5593 15.0163 25.5593 13.5401C25.5593 12.0586 26.7691 10.8538 28.2626 10.8538Z" fill="url(#paint0_linear_219_1945)"/>
<path d="M52.5588 21.5662V27.8069C52.5588 32.6452 48.354 36.7175 43.559 36.7175H29.1694C25.2278 36.7175 21.9662 40.0084 21.9662 43.8591V57.2414C21.9662 61.05 25.3612 63.2903 29.1694 64.3829C33.7297 65.691 38.1027 65.9274 43.559 64.3829C47.1859 63.3585 50.7622 61.2969 50.7622 57.2414V51.8852H36.3726V50.0998H50.7622H57.9655C62.1524 50.0998 63.7126 47.2508 65.1687 42.9746C66.6727 38.5723 66.6087 34.3387 65.1687 28.6914C64.1339 24.6253 62.1577 21.5662 57.9655 21.5662H52.5588ZM44.4657 55.456C45.9591 55.456 47.169 56.6497 47.169 58.1259C47.169 59.6073 45.9591 60.8122 44.4657 60.8122C42.9776 60.8122 41.7624 59.6073 41.7624 58.1259C41.7624 56.6497 42.9776 55.456 44.4657 55.456Z" fill="url(#paint1_linear_219_1945)"/>
<path d="M97.56 6.2V23H100.872V17.48H103.824C105.432 17.48 106.8 16.928 107.904 15.848C109.008 14.768 109.56 13.424 109.56 11.84C109.56 10.256 109.008 8.912 107.904 7.832C106.8 6.752 105.432 6.2 103.824 6.2H97.56ZM100.872 14.384V9.296H103.824C105.24 9.296 106.272 10.376 106.272 11.84C106.272 13.28 105.24 14.384 103.824 14.384H100.872ZM116.732 19.064L113.612 11H110.228L115.148 22.616C114.572 24.248 113.66 24.944 112.004 24.92V27.8C115.076 27.968 117.092 26.456 118.34 23L122.708 11H119.396L116.732 19.064ZM131.046 11H128.334V7.64L125.238 8.576V11H123.15V13.976H125.238V18.968C125.238 22.256 126.798 23.48 131.046 23V20.192C129.27 20.288 128.334 20.264 128.334 18.968V13.976H131.046V11ZM140.088 10.664C138.456 10.664 137.256 11.216 136.512 12.344V6.2H133.416V23H136.512V16.52C136.512 14.528 137.544 13.544 139.152 13.544C140.592 13.544 141.528 14.408 141.528 16.016V23H144.624V15.632C144.624 14.072 144.192 12.872 143.328 11.984C142.488 11.096 141.408 10.664 140.088 10.664ZM157.492 21.512C158.716 20.288 159.34 18.776 159.34 17C159.34 15.224 158.716 13.736 157.492 12.512C156.268 11.288 154.756 10.664 152.98 10.664C151.204 10.664 149.692 11.288 148.468 12.512C147.244 13.736 146.644 15.224 146.644 17C146.644 18.776 147.244 20.288 148.468 21.512C149.692 22.736 151.204 23.336 152.98 23.336C154.756 23.336 156.268 22.736 157.492 21.512ZM150.652 19.376C150.052 18.752 149.74 17.96 149.74 17C149.74 16.04 150.052 15.248 150.652 14.624C151.276 14 152.044 13.688 152.98 13.688C153.916 13.688 154.684 14 155.308 14.624C155.932 15.248 156.244 16.04 156.244 17C156.244 17.96 155.932 18.752 155.308 19.376C154.684 20 153.916 20.312 152.98 20.312C152.044 20.312 151.276 20 150.652 19.376ZM168.19 10.664C166.558 10.664 165.358 11.216 164.614 12.344V11H161.518V23H164.614V16.52C164.614 14.528 165.646 13.544 167.254 13.544C168.694 13.544 169.63 14.408 169.63 16.016V23H172.726V15.632C172.726 14.072 172.294 12.872 171.43 11.984C170.59 11.096 169.51 10.664 168.19 10.664Z" fill="#0C152A"/>
<path d="M97.2784 62V50.3636H104.494V51.875H99.0341V55.4205H103.977V56.9261H99.0341V62H97.2784ZM108.216 50.3636V62H106.517V50.3636H108.216ZM113.041 62.1932C112.488 62.1932 111.988 62.0909 111.541 61.8864C111.094 61.678 110.74 61.3769 110.479 60.983C110.221 60.589 110.092 60.1061 110.092 59.5341C110.092 59.0417 110.187 58.6364 110.376 58.3182C110.566 58 110.821 57.7481 111.143 57.5625C111.465 57.3769 111.825 57.2367 112.223 57.142C112.621 57.0473 113.026 56.9754 113.439 56.9261C113.962 56.8655 114.386 56.8163 114.712 56.7784C115.037 56.7367 115.274 56.6705 115.422 56.5795C115.57 56.4886 115.643 56.3409 115.643 56.1364V56.0966C115.643 55.6004 115.503 55.2159 115.223 54.9432C114.946 54.6705 114.534 54.5341 113.984 54.5341C113.412 54.5341 112.962 54.661 112.632 54.9148C112.306 55.1648 112.081 55.4432 111.956 55.75L110.359 55.3864C110.549 54.8561 110.825 54.428 111.189 54.1023C111.556 53.7727 111.979 53.5341 112.456 53.3864C112.933 53.2348 113.435 53.1591 113.962 53.1591C114.31 53.1591 114.679 53.2008 115.07 53.2841C115.464 53.3636 115.831 53.5114 116.172 53.7273C116.517 53.9432 116.799 54.2519 117.018 54.6534C117.238 55.0511 117.348 55.5682 117.348 56.2045V62H115.689V60.8068H115.621C115.511 61.0265 115.346 61.2424 115.126 61.4545C114.907 61.6667 114.625 61.8428 114.28 61.983C113.935 62.1231 113.522 62.1932 113.041 62.1932ZM113.411 60.8295C113.88 60.8295 114.282 60.7367 114.615 60.5511C114.952 60.3655 115.208 60.1231 115.382 59.8239C115.56 59.5208 115.649 59.197 115.649 58.8523V57.7273C115.589 57.7879 115.471 57.8447 115.297 57.8977C115.126 57.947 114.931 57.9905 114.712 58.0284C114.492 58.0625 114.278 58.0947 114.07 58.125C113.861 58.1515 113.687 58.1742 113.547 58.1932C113.217 58.2348 112.916 58.3049 112.643 58.4034C112.375 58.5019 112.159 58.6439 111.996 58.8295C111.837 59.0114 111.757 59.2538 111.757 59.5568C111.757 59.9773 111.912 60.2955 112.223 60.5114C112.534 60.7235 112.929 60.8295 113.411 60.8295ZM126.151 55.4034L124.611 55.6761C124.546 55.4792 124.444 55.2917 124.304 55.1136C124.168 54.9356 123.982 54.7898 123.747 54.6761C123.512 54.5625 123.219 54.5057 122.866 54.5057C122.385 54.5057 121.984 54.6136 121.662 54.8295C121.34 55.0417 121.179 55.3163 121.179 55.6534C121.179 55.9451 121.287 56.1799 121.503 56.358C121.719 56.536 122.067 56.6818 122.548 56.7955L123.935 57.1136C124.738 57.2992 125.336 57.5852 125.73 57.9716C126.124 58.358 126.321 58.8598 126.321 59.4773C126.321 60 126.17 60.4659 125.866 60.875C125.567 61.2803 125.149 61.5985 124.611 61.8295C124.077 62.0606 123.457 62.1761 122.753 62.1761C121.776 62.1761 120.978 61.9678 120.361 61.5511C119.743 61.1307 119.365 60.5341 119.224 59.7614L120.866 59.5114C120.969 59.9394 121.179 60.2633 121.497 60.483C121.815 60.6989 122.23 60.8068 122.741 60.8068C123.298 60.8068 123.743 60.6913 124.077 60.4602C124.41 60.2254 124.577 59.9394 124.577 59.6023C124.577 59.3295 124.474 59.1004 124.27 58.9148C124.069 58.7292 123.76 58.589 123.344 58.4943L121.866 58.1705C121.052 57.9848 120.45 57.6894 120.06 57.2841C119.673 56.8788 119.48 56.3655 119.48 55.7443C119.48 55.2292 119.624 54.7784 119.912 54.392C120.2 54.0057 120.598 53.7045 121.105 53.4886C121.613 53.2689 122.194 53.1591 122.849 53.1591C123.793 53.1591 124.535 53.3636 125.077 53.7727C125.618 54.178 125.976 54.7216 126.151 55.4034ZM129.751 59.0398L129.74 56.9659H130.036L133.513 53.2727H135.547L131.581 57.4773H131.314L129.751 59.0398ZM128.189 62V50.3636H129.888V62H128.189ZM133.7 62L130.575 57.8523L131.746 56.6648L135.786 62H133.7ZM144.716 62.1648C143.936 62.1648 143.263 62.0227 142.699 61.7386C142.138 61.4545 141.706 61.0682 141.403 60.5795C141.1 60.0871 140.949 59.5303 140.949 58.9091C140.949 58.4356 141.047 58.0152 141.244 57.6477C141.441 57.2765 141.716 56.9337 142.068 56.6193C142.42 56.3049 142.828 55.9886 143.29 55.6705L145.165 54.3466C145.483 54.1383 145.731 53.9186 145.909 53.6875C146.087 53.4527 146.176 53.1629 146.176 52.8182C146.176 52.5455 146.059 52.2841 145.824 52.0341C145.589 51.7841 145.275 51.6591 144.881 51.6591C144.608 51.6591 144.367 51.7254 144.159 51.858C143.955 51.9905 143.794 52.161 143.676 52.3693C143.563 52.5739 143.506 52.7898 143.506 53.017C143.506 53.2822 143.578 53.5492 143.722 53.8182C143.869 54.0871 144.059 54.3655 144.29 54.6534C144.521 54.9375 144.763 55.233 145.017 55.5398L150.42 62H148.5L144.028 56.7443C143.653 56.3011 143.305 55.8845 142.983 55.4943C142.661 55.1004 142.4 54.7027 142.199 54.3011C142.002 53.8958 141.903 53.4583 141.903 52.9886C141.903 52.4545 142.025 51.9811 142.267 51.5682C142.513 51.1515 142.856 50.8258 143.295 50.5909C143.735 50.3561 144.25 50.2386 144.841 50.2386C145.439 50.2386 145.953 50.3561 146.381 50.5909C146.813 50.822 147.144 51.1307 147.375 51.517C147.61 51.8996 147.727 52.3182 147.727 52.7727C147.727 53.3258 147.589 53.8144 147.312 54.2386C147.04 54.6591 146.663 55.0455 146.182 55.3977L143.847 57.1193C143.392 57.4527 143.076 57.7822 142.898 58.108C142.723 58.4299 142.636 58.6818 142.636 58.8636C142.636 59.197 142.722 59.5057 142.892 59.7898C143.066 60.0739 143.309 60.3011 143.619 60.4716C143.934 60.642 144.301 60.7273 144.722 60.7273C145.153 60.7273 145.574 60.6345 145.983 60.4489C146.396 60.2595 146.769 59.9886 147.102 59.6364C147.439 59.2841 147.706 58.8617 147.903 58.3693C148.1 57.8769 148.199 57.3258 148.199 56.7159H149.733C149.733 57.4659 149.648 58.1004 149.477 58.6193C149.307 59.1345 149.1 59.5549 148.858 59.8807C148.619 60.2027 148.394 60.4545 148.182 60.6364C148.114 60.697 148.049 60.7576 147.989 60.8182C147.928 60.8788 147.864 60.9394 147.795 61C147.402 61.3977 146.924 61.6913 146.364 61.8807C145.807 62.0701 145.258 62.1648 144.716 62.1648ZM159.889 62H156.122V50.3636H160.009C161.149 50.3636 162.128 50.5966 162.946 51.0625C163.764 51.5246 164.391 52.1894 164.827 53.0568C165.266 53.9205 165.486 54.9564 165.486 56.1648C165.486 57.3769 165.264 58.4186 164.821 59.2898C164.382 60.161 163.745 60.8314 162.912 61.3011C162.079 61.767 161.071 62 159.889 62ZM157.878 60.4659H159.793C160.679 60.4659 161.416 60.2992 162.003 59.9659C162.59 59.6288 163.029 59.142 163.321 58.5057C163.613 57.8655 163.759 57.0852 163.759 56.1648C163.759 55.2519 163.613 54.4773 163.321 53.8409C163.033 53.2045 162.603 52.7216 162.031 52.392C161.459 52.0625 160.749 51.8977 159.901 51.8977H157.878V60.4659ZM167.533 53.2727H169.232V62.5682C169.232 63.1515 169.125 63.6439 168.913 64.0455C168.705 64.447 168.394 64.7519 167.982 64.9602C167.572 65.1686 167.067 65.2727 166.464 65.2727C166.404 65.2727 166.347 65.2727 166.294 65.2727C166.237 65.2727 166.179 65.2708 166.118 65.267V63.8068C166.171 63.8068 166.218 63.8068 166.26 63.8068C166.298 63.8068 166.341 63.8068 166.391 63.8068C166.792 63.8068 167.082 63.6989 167.26 63.483C167.442 63.2708 167.533 62.9621 167.533 62.5568V53.2727ZM168.374 51.9261C168.078 51.9261 167.824 51.8277 167.612 51.6307C167.404 51.4299 167.3 51.1913 167.3 50.9148C167.3 50.6345 167.404 50.3958 167.612 50.1989C167.824 49.9981 168.078 49.8977 168.374 49.8977C168.669 49.8977 168.921 49.9981 169.129 50.1989C169.341 50.3958 169.447 50.6345 169.447 50.9148C169.447 51.1913 169.341 51.4299 169.129 51.6307C168.921 51.8277 168.669 51.9261 168.374 51.9261ZM174.057 62.1932C173.504 62.1932 173.004 62.0909 172.557 61.8864C172.11 61.678 171.756 61.3769 171.494 60.983C171.237 60.589 171.108 60.1061 171.108 59.5341C171.108 59.0417 171.203 58.6364 171.392 58.3182C171.581 58 171.837 57.7481 172.159 57.5625C172.481 57.3769 172.841 57.2367 173.239 57.142C173.636 57.0473 174.042 56.9754 174.455 56.9261C174.977 56.8655 175.402 56.8163 175.727 56.7784C176.053 56.7367 176.29 56.6705 176.438 56.5795C176.585 56.4886 176.659 56.3409 176.659 56.1364V56.0966C176.659 55.6004 176.519 55.2159 176.239 54.9432C175.962 54.6705 175.549 54.5341 175 54.5341C174.428 54.5341 173.977 54.661 173.648 54.9148C173.322 55.1648 173.097 55.4432 172.972 55.75L171.375 55.3864C171.564 54.8561 171.841 54.428 172.205 54.1023C172.572 53.7727 172.994 53.5341 173.472 53.3864C173.949 53.2348 174.451 53.1591 174.977 53.1591C175.326 53.1591 175.695 53.2008 176.085 53.2841C176.479 53.3636 176.847 53.5114 177.188 53.7273C177.532 53.9432 177.814 54.2519 178.034 54.6534C178.254 55.0511 178.364 55.5682 178.364 56.2045V62H176.705V60.8068H176.636C176.527 61.0265 176.362 61.2424 176.142 61.4545C175.922 61.6667 175.64 61.8428 175.295 61.983C174.951 62.1231 174.538 62.1932 174.057 62.1932ZM174.426 60.8295C174.896 60.8295 175.297 60.7367 175.631 60.5511C175.968 60.3655 176.223 60.1231 176.398 59.8239C176.576 59.5208 176.665 59.197 176.665 58.8523V57.7273C176.604 57.7879 176.487 57.8447 176.312 57.8977C176.142 57.947 175.947 57.9905 175.727 58.0284C175.508 58.0625 175.294 58.0947 175.085 58.125C174.877 58.1515 174.703 58.1742 174.562 58.1932C174.233 58.2348 173.932 58.3049 173.659 58.4034C173.39 58.5019 173.174 58.6439 173.011 58.8295C172.852 59.0114 172.773 59.2538 172.773 59.5568C172.773 59.9773 172.928 60.2955 173.239 60.5114C173.549 60.7235 173.945 60.8295 174.426 60.8295ZM182.325 56.8182V62H180.626V53.2727H182.257V54.6932H182.365C182.566 54.2311 182.88 53.8598 183.308 53.5795C183.74 53.2992 184.284 53.1591 184.939 53.1591C185.534 53.1591 186.054 53.2841 186.501 53.5341C186.948 53.7803 187.295 54.1477 187.541 54.6364C187.787 55.125 187.911 55.7292 187.911 56.4489V62H186.212V56.6534C186.212 56.0208 186.047 55.5265 185.717 55.1705C185.388 54.8106 184.935 54.6307 184.359 54.6307C183.965 54.6307 183.615 54.7159 183.308 54.8864C183.005 55.0568 182.765 55.3068 182.587 55.6364C182.412 55.9621 182.325 56.3561 182.325 56.8182ZM193.848 65.4545C193.155 65.4545 192.558 65.3636 192.058 65.1818C191.562 65 191.157 64.7595 190.842 64.4602C190.528 64.161 190.293 63.8333 190.138 63.4773L191.598 62.875C191.7 63.0417 191.837 63.2178 192.007 63.4034C192.181 63.5928 192.416 63.7538 192.712 63.8864C193.011 64.0189 193.395 64.0852 193.865 64.0852C194.509 64.0852 195.041 63.928 195.462 63.6136C195.882 63.303 196.092 62.8068 196.092 62.125V60.4091H195.984C195.882 60.5947 195.734 60.8011 195.541 61.0284C195.352 61.2557 195.09 61.4527 194.757 61.6193C194.424 61.786 193.99 61.8693 193.456 61.8693C192.767 61.8693 192.145 61.7083 191.592 61.3864C191.043 61.0606 190.607 60.5814 190.286 59.9489C189.967 59.3125 189.808 58.5303 189.808 57.6023C189.808 56.6742 189.965 55.8788 190.28 55.2159C190.598 54.553 191.034 54.0455 191.587 53.6932C192.14 53.3371 192.767 53.1591 193.467 53.1591C194.009 53.1591 194.446 53.25 194.78 53.4318C195.113 53.6098 195.373 53.8182 195.558 54.0568C195.748 54.2955 195.893 54.5057 195.996 54.6875H196.121V53.2727H197.786V62.1932C197.786 62.9432 197.611 63.5587 197.263 64.0398C196.914 64.5208 196.443 64.8769 195.848 65.108C195.257 65.339 194.59 65.4545 193.848 65.4545ZM193.831 60.4602C194.32 60.4602 194.732 60.3466 195.07 60.1193C195.411 59.8883 195.668 59.5587 195.842 59.1307C196.02 58.6989 196.109 58.1818 196.109 57.5795C196.109 56.9924 196.022 56.4754 195.848 56.0284C195.674 55.5814 195.418 55.233 195.081 54.983C194.744 54.7292 194.327 54.6023 193.831 54.6023C193.32 54.6023 192.893 54.7348 192.553 55C192.212 55.2614 191.954 55.6174 191.78 56.0682C191.609 56.5189 191.524 57.0227 191.524 57.5795C191.524 58.1515 191.611 58.6534 191.786 59.0852C191.96 59.517 192.217 59.8542 192.558 60.0966C192.903 60.339 193.327 60.4602 193.831 60.4602ZM203.74 62.1761C202.922 62.1761 202.208 61.9886 201.598 61.6136C200.988 61.2386 200.515 60.714 200.178 60.0398C199.84 59.3655 199.672 58.5777 199.672 57.6761C199.672 56.7708 199.84 55.9792 200.178 55.3011C200.515 54.6231 200.988 54.0966 201.598 53.7216C202.208 53.3466 202.922 53.1591 203.74 53.1591C204.558 53.1591 205.272 53.3466 205.882 53.7216C206.492 54.0966 206.965 54.6231 207.303 55.3011C207.64 55.9792 207.808 56.7708 207.808 57.6761C207.808 58.5777 207.64 59.3655 207.303 60.0398C206.965 60.714 206.492 61.2386 205.882 61.6136C205.272 61.9886 204.558 62.1761 203.74 62.1761ZM203.746 60.75C204.276 60.75 204.715 60.6098 205.064 60.3295C205.412 60.0492 205.67 59.6761 205.837 59.2102C206.007 58.7443 206.092 58.2311 206.092 57.6705C206.092 57.1136 206.007 56.6023 205.837 56.1364C205.67 55.6667 205.412 55.2898 205.064 55.0057C204.715 54.7216 204.276 54.5795 203.746 54.5795C203.212 54.5795 202.768 54.7216 202.416 55.0057C202.068 55.2898 201.808 55.6667 201.638 56.1364C201.471 56.6023 201.388 57.1136 201.388 57.6705C201.388 58.2311 201.471 58.7443 201.638 59.2102C201.808 59.6761 202.068 60.0492 202.416 60.3295C202.768 60.6098 203.212 60.75 203.746 60.75Z" fill="#0C152A"/>
<defs>
<linearGradient id="paint0_linear_219_1945" x1="6.54544" y1="6.54541" x2="39.07" y2="34.9561" gradientUnits="userSpaceOnUse">
<stop stop-color="#5A9FD4"/>
<stop offset="1" stop-color="#306998"/>
</linearGradient>
<linearGradient id="paint1_linear_219_1945" x1="44.1195" y1="57.6756" x2="32.5897" y2="41.1135" gradientUnits="userSpaceOnUse">
<stop stop-color="#FFD43B"/>
<stop offset="1" stop-color="#FFE873"/>
</linearGradient>
</defs>
</svg>
