<svg width="236" height="39" viewBox="0 0 236 39" fill="none" xmlns="http://www.w3.org/2000/svg">
<mask id="mask0" mask-type="alpha" maskUnits="userSpaceOnUse" x="0" y="0" width="36" height="36">
<rect x="0.446289" y="0.447266" width="34.658" height="34.7248" rx="2.26259" fill="#F78119"/>
</mask>
<g mask="url(#mask0)">
<rect x="0.446289" y="0.447266" width="34.658" height="34.7248" rx="2.26259" fill="#818181"/>
<ellipse cx="37.0286" cy="59.2863" rx="53.9124" ry="54.0163" fill="white"/>
<ellipse cx="42.8061" cy="62.1801" rx="52.9497" ry="53.0517" fill="#3A3A3C"/>
</g>
<g clip-path="url(#clip0)">
<path d="M47.7002 5.55511C49.4816 5.25445 51.8567 5.02895 54.3061 5.02895C58.5369 5.02895 61.5059 5.93094 63.5841 7.73494C65.9593 9.76443 67.3696 12.9214 67.3696 17.5066C67.3696 22.3924 65.8851 25.8501 63.5841 28.0299C61.2832 30.2097 57.7204 31.3372 53.267 31.3372C50.9661 31.3372 49.1105 31.1869 47.7002 31.0365V5.55511ZM52.1536 27.5789C52.7474 27.6541 53.4897 27.6541 54.3061 27.6541C59.3534 27.6541 62.6935 24.5722 62.6935 17.6569C62.6935 11.8691 59.9472 8.56177 54.7515 8.56177C53.6381 8.56177 52.7474 8.7121 52.1536 8.86244V27.5789Z" fill="#3A3A3C"/>
<path d="M75.1624 22.9936C75.2366 26.6016 77.686 28.0298 80.3581 28.0298C82.2879 28.0298 83.6982 27.7291 84.8858 27.2029L85.5538 30.3599C84.0693 31.0364 82.0653 31.4874 79.6159 31.4874C73.9748 31.4874 70.7832 27.8043 70.7832 22.0916C70.7832 16.6044 73.8264 12.0945 79.1705 12.0945C84.5147 12.0945 86.5187 16.6796 86.5187 21.0393C86.5187 21.9413 86.4445 22.6929 86.3703 23.0688H75.1624V22.9936ZM82.3622 19.8366C82.3622 17.7319 81.5457 15.1763 78.9479 15.1763C76.4242 15.1763 75.3109 17.8071 75.1624 19.8366H82.3622Z" fill="#3A3A3C"/>
<path d="M93.7181 12.3952L96.3902 21.8662C96.8355 23.4447 97.2066 25.0232 97.5035 26.6017H97.5778C97.8747 25.0232 98.2458 23.5198 98.6911 21.8662L101.289 12.3952H105.891L99.5076 31.1117H95.2026L88.8936 12.3952H93.7181Z" fill="#3A3A3C"/>
<path d="M122.74 19.5361H114.13V27.3535H123.779V31.1118H109.677V5.17935H123.26V8.93768H114.13V15.7027H122.666V19.5361H122.74Z" fill="#818181"/>
<path d="M131.35 12.3952L133.28 15.928C133.799 16.9803 134.319 17.9575 134.764 18.9347H134.839C135.284 17.8823 135.803 16.9052 136.249 15.928L138.104 12.3952H142.855L137.214 21.4152L142.929 31.1117H137.882L135.878 27.3533C135.358 26.3762 134.839 25.399 134.393 24.3467H134.319C133.874 25.399 133.354 26.3762 132.834 27.3533L130.905 31.1117H126.08L131.795 21.6407L126.377 12.3952H131.35Z" fill="#818181"/>
<path d="M146.491 18.4837C146.491 16.0032 146.417 14.0489 146.343 12.3952H150.277L150.499 15.1012H150.574C151.761 13.0717 153.691 12.0194 156.14 12.0194C160.223 12.0194 163.192 15.7777 163.192 21.5655C163.192 28.3305 159.406 31.4875 155.547 31.4875C153.468 31.4875 151.761 30.5103 150.945 29.1573H150.87V38.6283H146.417V18.4837H146.491ZM150.945 23.595C150.945 24.1212 151.019 24.5722 151.093 24.948C151.538 26.8272 153.023 27.9547 154.582 27.9547C157.254 27.9547 158.664 25.3238 158.664 21.791C158.664 18.3334 157.254 15.7025 154.656 15.7025C153.023 15.7025 151.464 17.0555 151.093 18.8595C151.019 19.2354 150.945 19.6864 150.945 20.1374V23.595V23.595Z" fill="#818181"/>
<path d="M167.72 18.1831C167.72 15.9281 167.646 14.049 167.571 12.3953H171.431L171.579 15.7026H171.728C172.544 13.2973 174.548 11.9443 176.404 11.9443C176.849 11.9443 177.072 11.9443 177.443 12.0195V16.3791C177.072 16.304 176.701 16.304 176.256 16.304C174.251 16.304 172.767 17.657 172.322 19.7616C172.247 20.2126 172.173 20.7388 172.173 21.265V31.0366H167.72V18.1831Z" fill="#818181"/>
<path d="M184.049 22.9936C184.123 26.6016 186.573 28.0298 189.245 28.0298C191.175 28.0298 192.585 27.7291 193.772 27.2029L194.441 30.3599C192.956 31.0364 190.952 31.4874 188.503 31.4874C182.862 31.4874 179.67 27.8043 179.67 22.0916C179.67 16.6044 182.713 12.0945 188.057 12.0945C193.401 12.0945 195.405 16.6796 195.405 21.0393C195.405 21.9413 195.331 22.6929 195.257 23.0688H184.049V22.9936ZM191.249 19.8366C191.249 17.7319 190.432 15.1763 187.835 15.1763C185.311 15.1763 184.198 17.8071 184.049 19.8366H191.249Z" fill="#818181"/>
<path d="M199.637 26.9023C200.602 27.5037 202.383 28.1802 203.868 28.1802C205.723 28.1802 206.614 27.3533 206.614 26.0755C206.614 24.8728 205.946 24.1212 203.793 23.2192C200.453 21.8662 199.117 19.9119 199.117 17.8072C199.117 14.575 201.715 12.0194 205.723 12.0194C207.579 12.0194 209.212 12.5455 210.251 13.0717L209.36 16.3039C208.618 15.8529 207.282 15.3267 205.872 15.3267C204.313 15.3267 203.422 16.1535 203.422 17.281C203.422 18.4085 204.164 19.0099 206.317 19.9119C209.434 21.1897 210.919 22.9937 210.919 25.6245C210.919 29.1573 208.321 31.4875 203.868 31.4875C201.863 31.4875 199.934 30.9613 198.746 30.2097L199.637 26.9023Z" fill="#818181"/>
<path d="M215.074 26.9023C216.039 27.5037 217.821 28.1802 219.305 28.1802C221.161 28.1802 222.051 27.3533 222.051 26.0755C222.051 24.8728 221.383 24.1212 219.231 23.2192C215.891 21.8662 214.555 19.9119 214.555 17.8072C214.555 14.575 217.153 12.0194 221.161 12.0194C223.016 12.0194 224.649 12.5455 225.688 13.0717L224.798 16.3039C224.055 15.8529 222.719 15.3267 221.309 15.3267C219.75 15.3267 218.86 16.1535 218.86 17.281C218.86 18.4085 219.602 19.0099 221.754 19.9119C224.872 21.1897 226.356 22.9937 226.356 25.6245C226.356 29.1573 223.758 31.4875 219.305 31.4875C217.301 31.4875 215.371 30.9613 214.184 30.2097L215.074 26.9023Z" fill="#818181"/>
<path d="M228.211 9.46361H227.023V8.78711H230.141V9.46361H228.953V13.3723H228.137V9.46361H228.211Z" fill="#818181"/>
<path d="M234.298 11.5684C234.298 10.967 234.224 10.2905 234.224 9.6892C234.075 10.2154 233.927 10.8167 233.779 11.3429L233.185 13.2972H232.591L232.071 11.3429C231.923 10.8167 231.774 10.2154 231.626 9.61403C231.626 10.2154 231.552 10.8919 231.552 11.4932L231.478 13.2972H230.735L231.032 8.71204H231.997L232.517 10.5912C232.665 11.1174 232.814 11.6435 232.888 12.1697C232.962 11.6435 233.111 11.1174 233.333 10.5912L233.927 8.71204H234.892L235.189 13.2972H234.447L234.298 11.5684Z" fill="#818181"/>
</g>
<defs>
<clipPath id="clip0">
<rect x="47.7002" y="5.02895" width="187.49" height="33.5994" fill="white"/>
</clipPath>
</defs>
</svg>
