<svg width="33" height="33" viewBox="0 0 33 33" fill="none" xmlns="http://www.w3.org/2000/svg">
                      <path d="M28.6351 8.93646C27.7457 9.31383 26.7913 9.56976 25.7886 9.68402C26.8124 9.09696 27.5962 8.1658 27.9676 7.05966C27.0072 7.60331 25.9471 7.99808 24.8176 8.21207C23.913 7.28814 22.6265 6.71265 21.1994 6.71265C18.4617 6.71265 16.2418 8.83815 16.2418 11.4582C16.2418 11.8298 16.2856 12.1927 16.3702 12.5397C12.2507 12.3416 8.59788 10.4518 6.15307 7.58017C5.7257 8.28002 5.48259 9.09548 5.48259 9.96596C5.48259 11.6129 6.35844 13.066 7.68732 13.9162C6.87488 13.8902 6.11078 13.6762 5.44183 13.3205V13.3798C5.44183 15.6788 7.15125 17.5975 9.41785 18.0342C9.00257 18.1412 8.56467 18.2005 8.11164 18.2005C7.79152 18.2005 7.48195 18.1701 7.17841 18.1123C7.80961 19.9992 9.63985 21.3714 11.8083 21.409C10.1125 22.6814 7.97423 23.4376 5.65175 23.4376C5.25159 23.4376 4.85743 23.4145 4.46936 23.3726C6.66351 24.7216 9.2684 25.5082 12.0681 25.5082C21.1874 25.5082 26.1722 18.2757 26.1722 12.0033L26.1556 11.3888C27.1295 10.7236 27.9721 9.88788 28.6351 8.93646Z" fill="#DEDEDE"/>
                      </svg>