<svg width="64" height="64" viewBox="0 0 64 64" fill="none" xmlns="http://www.w3.org/2000/svg">
<g clip-path="url(#clip0)">
<path d="M32 2.26392C30.9636 2.26392 30.125 3.10254 30.125 4.13892V9.76392C30.125 10.8003 30.9636 11.6389 32 11.6389C33.0364 11.6389 33.875 10.8003 33.875 9.76392V4.13892C33.875 3.10254 33.0364 2.26392 32 2.26392Z" fill="#0C152A"/>
<path d="M22.0757 14.0631L18.3257 10.3131C17.5932 9.5807 16.4067 9.5807 15.6743 10.3131C14.9419 11.0455 14.9419 12.2321 15.6743 12.9645L19.4243 16.7145C20.1567 17.4468 21.3433 17.4468 22.0757 16.7145C22.808 15.9821 22.808 14.7955 22.0757 14.0631Z" fill="#0C152A"/>
<path d="M48.3257 10.3131C47.5933 9.5807 46.4067 9.5807 45.6743 10.3131L41.9243 14.0631C41.1919 14.7955 41.1919 15.9821 41.9243 16.7145C42.6567 17.4468 43.8433 17.4468 44.5757 16.7145L48.3257 12.9645C49.058 12.2321 49.058 11.0455 48.3257 10.3131Z" fill="#0C152A"/>
<path d="M62.125 28.5138H56.375V54.7638H62.125C63.1614 54.7638 64 53.9252 64 52.8888V30.3888C64 29.3524 63.1614 28.5138 62.125 28.5138Z" fill="#0C152A"/>
<path d="M1.875 28.5138C0.838625 28.5138 0 29.3524 0 30.3888V52.8888C0 53.9252 0.838625 54.7638 1.875 54.7638H7.625V28.5138H1.875Z" fill="#00AEEF"/>
<path d="M30.5677 30.3889C29.1376 30.3889 27.8522 31.1835 27.2132 32.4617L21.5059 43.88C22.4616 44.2993 23.4724 44.5118 24.5051 44.5118C27.3597 44.5118 29.9287 42.9207 31.2086 40.3572L32.4427 37.8889H36.0719C37.0589 37.8889 38.0256 38.2899 38.7232 38.9875L52.6246 52.8889V30.3889H30.5677Z" fill="#0C152A"/>
<path d="M36.0723 41.6389H34.7612L34.653 41.8557C32.8819 45.3977 29.4279 47.8984 25.4807 48.221C22.5765 48.4587 20.5639 47.6232 18.1774 46.5377C17.2069 46.0964 16.7846 44.9369 17.2614 43.9833L23.8582 30.7862C25.1287 28.2444 27.7266 26.6388 30.5681 26.6388H38.6598C39.1791 25.4884 39.5 24.2325 39.5 22.8888C39.5 21.8524 38.6614 21.0138 37.625 21.0138H23.0681C20.937 21.0138 18.989 22.2177 18.0359 24.1238L16.3594 27.4769C16.0416 28.1123 15.3924 28.5138 14.6819 28.5138H11.375V54.7638H19.9736L25.2855 60.0757C26.8252 61.6154 29.043 62.1015 30.9562 61.4618L46.9689 56.4282C47.9259 56.1588 48.7326 55.6323 49.3906 54.9572L36.0723 41.6389Z" fill="#00AEEF"/>
</g>
<defs>
<clipPath id="clip0">
<rect width="64" height="64" fill="white"/>
</clipPath>
</defs>
</svg>
