<svg width="64" height="64" viewBox="0 0 64 64" fill="none" xmlns="http://www.w3.org/2000/svg">
<g clip-path="url(#clip0)">
<path d="M6.24133 32.0573C6.26681 30.4742 7.0256 29.3255 8.5138 28.7165C10.8504 27.7577 13.2448 29.2602 13.448 31.8072C13.683 34.7188 13.8991 37.6385 14.1211 40.5511C14.1371 40.7334 14.14 40.9168 14.1594 41.1382C14.3003 41.0996 14.3974 41.0845 14.4922 41.0434C15.7387 40.5211 16.9934 40.0178 18.2317 39.4765C18.4273 39.3873 18.6397 39.1916 18.7209 38.9943C20.8279 33.8378 22.9078 28.6707 25.0078 23.5083C25.1486 23.168 25.0616 22.9985 24.8068 22.7847C20.3339 19.0435 15.8669 15.2953 11.4 11.5471C10.1823 10.5254 9.8136 9.00961 10.4534 7.70077C11.3542 5.85091 13.7023 5.32406 15.2881 6.65465C18.0761 8.98203 20.8523 11.3236 23.6273 13.6521C25.2555 15.0183 26.8885 16.3645 28.4989 17.7519C29.2434 18.3887 30.0367 18.9096 30.9299 19.2972C32.7305 20.0842 34.5025 20.9197 36.2875 21.754C36.5746 21.8863 36.7758 21.8621 37.0355 21.682C41.99 18.1065 46.9586 14.543 51.9213 10.9865C53.0635 10.1716 54.5013 10.1114 55.5591 10.806C56.6441 11.5113 57.2015 12.8597 56.9333 14.1426C56.789 14.8177 56.4522 15.3916 55.9031 15.7873C53.3932 17.614 50.8751 19.4217 48.357 21.2294C47.382 21.9312 46.3704 22.5904 45.3954 23.2923C43.8155 24.4276 42.2509 25.5877 40.6863 26.7479C40.5321 26.8598 40.4097 27.0345 40.3263 27.2058C36.3397 34.9471 32.3592 42.6813 28.3727 50.4226C28.2774 50.608 28.0827 50.7825 27.8931 50.8647C22.426 53.1534 16.9506 55.4232 11.4764 57.706C11.0652 57.8797 10.6376 58.0155 10.2429 58.2271C8.96391 58.9032 7.73766 58.6825 6.57342 57.9709C4.97231 56.9894 3.83972 55.665 3.63461 53.6955C3.56375 52.9604 3.42779 52.2311 3.32494 51.5055C2.86019 48.2926 2.39544 45.0798 1.93069 41.8669C1.63355 39.8201 1.34349 37.7793 1.05229 35.7254C0.69518 33.2181 2.19388 31.6046 4.73484 31.7824C5.22818 31.7983 5.71396 31.9526 6.24133 32.0573Z" fill="#0C152A"/>
<path fill-rule="evenodd" clip-rule="evenodd" d="M31.7613 57.6284C32.5928 57.0148 33.764 57.1915 34.3776 58.023C34.9911 58.8545 34.8144 60.0257 33.9829 60.6393C33.1514 61.2528 31.9802 61.0761 31.3667 60.2446C30.7531 59.4131 30.9298 58.2419 31.7613 57.6284ZM52.7723 53.8595C52.1588 53.028 50.9876 52.8513 50.1561 53.4649C49.3245 54.0784 49.1479 55.2496 49.7614 56.0811C50.375 56.9127 51.5461 57.0893 52.3777 56.4758C53.2092 55.8622 53.3859 54.6911 52.7723 53.8595ZM50.8822 28.1911C51.7137 27.5776 52.8849 27.7542 53.4984 28.5858C54.112 29.4173 53.9353 30.5885 53.1038 31.202C52.2723 31.8155 51.1011 31.6389 50.4875 30.8074C49.874 29.9758 50.0507 28.8047 50.8822 28.1911ZM8.65736 19.3114C9.48888 18.6979 10.6601 18.8745 11.2736 19.7061C11.8871 20.5376 11.7105 21.7088 10.879 22.3223C10.0474 22.9359 8.87625 22.7592 8.26271 21.9277C7.64917 21.0961 7.82583 19.925 8.65736 19.3114ZM49.0749 2.51697C50.0958 3.90049 52.0518 4.19555 53.4353 3.17472C54.2669 2.56117 55.438 2.73784 56.0516 3.56936C56.6651 4.40089 56.4885 5.57207 55.6569 6.18561C52.6131 8.43151 48.3099 7.7824 46.064 4.73857C45.4505 3.90705 45.6272 2.73586 46.4587 2.12232C47.2902 1.50878 48.4614 1.68544 49.0749 2.51697ZM59.7312 47.6401C60.3448 48.4716 61.516 48.6483 62.3475 48.0347C63.179 47.4212 63.3557 46.25 62.7421 45.4185C61.7213 44.035 62.0164 42.0789 63.3999 41.0581C64.2314 40.4445 64.4081 39.2733 63.7945 38.4418C63.181 37.6103 62.0098 37.4336 61.1783 38.0472C58.1345 40.2931 57.4853 44.5963 59.7312 47.6401ZM41.3058 46.312C42.6893 45.2912 42.9844 43.3351 41.9635 41.9516C41.35 41.1201 41.5267 39.9489 42.3582 39.3354C43.1897 38.7218 44.3609 38.8985 44.9744 39.73C47.2203 42.7738 46.5712 47.077 43.5274 49.3229C42.6959 49.9365 41.5247 49.7598 40.9111 48.9283C40.2976 48.0968 40.4743 46.9256 41.3058 46.312Z" fill="#FAA61A"/>
<path d="M40.3868 15.446C38.1994 18.1103 34.1847 18.4812 31.4921 16.2701C28.7275 13.9865 28.3575 10.057 30.6637 7.25113C32.8391 4.601 36.887 4.23374 39.5606 6.45307C42.2909 8.71992 42.6573 12.6826 40.3868 15.446Z" fill="#FAA61A"/>
</g>
<defs>
<clipPath id="clip0">
<path d="M0 0H64V64H0V0Z" fill="white"/>
</clipPath>
</defs>
</svg>
