<svg width="64" height="64" viewBox="0 0 64 64" fill="none" xmlns="http://www.w3.org/2000/svg">
<g clip-path="url(#clip0)">
<path d="M0.838133 16.5674C2.83951 9.6803 7.53393 5.29492 14.4946 3.55843C19.8807 2.21927 24.9136 3.29354 29.5197 6.39862C29.7846 6.57522 30.02 6.78124 30.4468 7.09028C30.1525 7.2963 29.9023 7.41403 29.711 7.60534C25.0607 12.2409 20.4693 16.9206 15.7749 21.4973C13.8765 23.3515 14.2739 25.5 15.8338 27.0158C18.5857 29.6941 23.1771 29.8413 26.0614 27.2365C28.0186 25.4559 29.8434 23.5428 31.7124 21.6739C31.9184 21.4678 32.0508 21.1882 32.2274 20.9381C34.1699 22.6304 36.1419 23.8813 38.4817 24.4405C38.6583 24.4846 38.8202 24.6318 38.9526 24.7642C43.1909 29.0024 47.4438 33.2259 51.6673 37.4936C53.2125 39.0535 52.7857 41.5111 50.8579 42.4087C49.6659 42.9679 48.3709 42.7325 47.3555 41.7171C44.221 38.5973 41.0865 35.4481 37.952 32.3135C37.2309 31.5925 36.4951 30.8567 35.774 30.1356C34.9646 29.3262 34.376 29.2232 33.8315 29.7971C33.3017 30.3416 33.4047 30.9155 34.1847 31.6955C37.9814 35.4922 41.7634 39.2742 45.5601 43.071C46.1929 43.7038 46.708 44.3954 46.7374 45.3519C46.7669 46.6911 46.1341 47.8095 44.9568 48.2952C43.7354 48.7955 42.5875 48.6189 41.631 47.7065C40.4537 46.5734 39.3058 45.3961 38.1433 44.2335C35.4061 41.4963 32.6689 38.7592 29.9464 36.022C29.7846 35.8601 29.6374 35.7129 29.4608 35.5805C28.9605 35.1979 28.4454 35.2273 28.0039 35.6541C27.5624 36.0956 27.5477 36.6106 27.9156 37.111C28.0628 37.3023 28.2394 37.4789 28.416 37.6407C32.2421 41.4669 36.083 45.2784 39.865 49.134C40.3359 49.6049 40.6891 50.3112 40.8216 50.9588C41.0865 52.2979 40.4095 53.4752 39.2617 54.0638C38.0844 54.6672 36.7452 54.4759 35.7445 53.4899C33.5666 51.3414 31.418 49.1634 29.2548 47.0001C27.5036 45.2489 25.7671 43.4977 24.0012 41.7612C23.7804 41.5405 23.4861 41.2167 23.2506 41.2315C22.8386 41.2462 22.3088 41.3786 22.0439 41.6582C21.6172 42.0997 21.779 42.6736 22.2058 43.1004C23.3242 44.2335 24.4574 45.3519 25.5758 46.4851C28.4013 49.3106 31.212 52.136 34.0375 54.9468C34.7586 55.6679 35.1559 56.492 35.0382 57.5074C34.891 58.7582 34.1994 59.6412 33.0221 60.068C31.8301 60.4947 30.7411 60.1857 29.8581 59.3027C27.8273 57.2866 25.7965 55.2558 23.7804 53.225C17.6144 47.059 11.3748 40.9813 5.32652 34.6975C0.36722 29.6205 -1.13381 23.3809 0.838133 16.5674Z" fill="#0C152A"/>
<path d="M41.9108 24.5443C43.7944 24.1175 45.3396 23.2346 46.6493 21.9543C47.0908 21.5275 47.1644 21.0125 46.8553 20.4827C46.561 19.997 46.0901 19.894 45.575 20.0412C45.4132 20.0853 45.2513 20.1884 45.1483 20.3061C42.2051 23.3082 38.5555 22.9108 35.318 20.5857C34.641 20.1001 34.023 19.5556 33.4049 18.9816C32.5514 18.2017 32.0805 18.187 31.2858 18.9816C29.1372 21.1302 27.0181 23.3082 24.8255 25.3978C22.8388 27.2962 19.8809 27.3992 17.7765 25.7657C17.6293 25.648 17.4674 25.5156 17.335 25.3831C16.5109 24.5443 16.5109 23.9851 17.3497 23.1463C22.0588 18.4371 26.7533 13.728 31.4771 9.01889C32.1393 8.35667 32.8015 7.70916 33.5226 7.13524C44.5302 -1.65023 60.9091 4.33919 63.6022 18.1575C64.8236 24.4119 63.1754 29.9304 58.8783 34.6248C57.598 36.0228 56.1706 37.3178 54.7284 38.7305C54.3752 36.685 52.8153 35.5372 51.5056 34.2127C48.4888 31.1812 45.4573 28.1497 42.4258 25.1182C42.2787 24.9563 42.1168 24.7798 41.9108 24.5443Z" fill="#ED145B"/>
</g>
<defs>
<clipPath id="clip0">
<rect y="3" width="64" height="57.3042" fill="white"/>
</clipPath>
</defs>
</svg>
