<svg width="88" height="88" viewBox="0 0 88 88" fill="none" xmlns="http://www.w3.org/2000/svg">
<g clip-path="url(#clip0)">
<path d="M44 26.1875C37.883 26.1875 32.9062 21.2108 32.9062 15.0938C32.9062 8.97672 37.883 4 44 4C50.1172 4 55.0938 8.97672 55.0938 15.0938C55.0938 21.2108 50.1172 26.1875 44 26.1875Z" fill="white"/>
<path d="M70.6266 84H32.7039C29.8816 84 27.5938 81.7121 27.5938 78.8899C27.5938 76.4202 29.36 74.3039 31.7898 73.862L69.1008 67.0783C74.3366 66.1263 79.1562 70.1486 79.1562 75.4703C79.1562 80.1811 75.3373 84 70.6266 84Z" fill="white"/>
<path d="M78.1406 44.9375H71.9152L66.178 35.1023C63.6677 30.7989 59.4792 27.7715 54.7255 26.6586C51.9081 29.2734 48.1378 30.875 44 30.875C39.8622 30.875 36.0919 29.2734 33.2744 26.6586C28.5206 27.7717 24.3323 30.799 21.8219 35.1023L16.0848 44.9375H9.85938C6.62328 44.9375 4 47.5608 4 50.7969C4 54.0329 6.62328 56.6562 9.85938 56.6562H22.1184C22.8461 56.6562 23.5325 56.3183 23.9762 55.7415L27.5872 51.0473V63.8937L44 66.8776L60.4128 63.8934V51.0472L64.0238 55.7414C64.4675 56.3181 65.1539 56.6561 65.8816 56.6561H78.1406C81.3767 56.6561 84 54.0328 84 50.7967C84 47.5606 81.3767 44.9375 78.1406 44.9375Z" fill="white"/>
<path d="M30.9011 69.2605L18.8992 67.0783C13.6634 66.1263 8.84375 70.1486 8.84375 75.4703C8.84375 80.1811 12.6627 84 17.3734 84H24.3483C23.4344 82.5111 22.9062 80.7611 22.9062 78.8899C22.9062 74.1689 26.2656 70.128 30.9011 69.2605Z" fill="white"/>
</g>
<defs>
<clipPath id="clip0">
<rect x="4" y="4" width="80" height="80" fill="white"/>
</clipPath>
</defs>
</svg>
