<svg width="64" height="64" viewBox="0 0 64 64" fill="none" xmlns="http://www.w3.org/2000/svg">
<path fillRule="evenodd" clipRule="evenodd" d="M51.9483 42.4741C51.9483 46.0504 49.0504 48.9483 45.4741 48.9483C41.8978 48.9483 39 46.0479 39 42.4741C39 38.8978 41.8978 36 45.4741 36C49.0504 36 51.9483 38.8978 51.9483 42.4741ZM50.2392 51.9317L51.8551 60.0062C51.9457 60.1849 52.0001 60.3869 52 60.6019C52 61.3244 51.3474 61.889 50.6792 61.8968H50.6534C50.4565 61.8968 50.2572 61.8502 50.0733 61.7622L45.474 59.46L40.8747 61.7622C40.4345 61.9848 39.9036 61.9304 39.5099 61.6326C39.1164 61.3322 38.9273 60.835 39.0257 60.3507L40.709 51.9317C40.7842 51.5588 41.0172 51.2402 41.3435 51.0563C41.6751 50.8725 42.0687 50.8363 42.4209 50.9683C44.5471 51.7375 46.4012 51.7375 48.5273 50.9683C48.8796 50.8363 49.2732 50.8724 49.6047 51.0563C49.9337 51.2402 50.1667 51.5588 50.2392 51.9317Z" fill="#ED145B"/>
<path fillRule="evenodd" clipRule="evenodd" d="M28.3334 2C21.9004 2 16.6667 7.2336 16.6667 13.6667C16.6667 18.0303 19.0751 21.8412 22.6318 23.842C24.3188 24.791 26.2638 25.3333 28.3334 25.3333C30.403 25.3333 32.3479 24.791 34.0349 23.842C37.5918 21.8412 40.0001 18.0301 40.0001 13.6667C40.0001 7.23373 34.7664 2 28.3334 2ZM34.5368 28H30.6359C31.2039 28.0048 31.4301 28.43 31.2013 28.932C31.049 29.3729 30.909 29.8263 30.7674 30.2851L30.7673 30.2853L30.767 30.2861C30.6592 30.6353 30.5505 30.9875 30.4346 31.3398C30.399 31.4478 30.3656 31.5557 30.3322 31.6632L30.3322 31.6634L30.3322 31.6634C30.2217 32.0198 30.1129 32.3709 29.9362 32.699C29.7061 33.165 29.3227 33.3981 28.786 33.3592C28.4523 33.3332 28.1015 33.342 27.7565 33.3507H27.7565H27.7565L27.7563 33.3507C27.586 33.355 27.4171 33.3592 27.2524 33.3592C26.6007 33.3592 26.1406 32.932 25.9489 32.3107C25.6422 31.3398 25.2972 30.369 24.9521 29.3981L24.9521 29.3981C24.9075 29.2849 24.8758 29.1718 24.842 29.051L24.842 29.051C24.8178 28.9644 24.7924 28.8739 24.7604 28.7767C24.6842 28.3906 24.9869 28.0046 25.3671 28H22.13C16.5443 28 12.0001 31.5618 12.0001 36.3495L12 54.2635C12 55.2225 12.907 56 14.026 56H35.8164L36.7878 51.1416C36.9211 50.4799 37.1773 49.8588 37.5352 49.3063C35.955 47.4718 34.9999 45.084 34.9999 42.4741C34.9999 37.4036 38.6016 33.1754 43.3865 32.208C41.6531 29.6476 38.3358 28 34.5368 28ZM32.5317 47.4432C32.6472 47.9439 32.7615 48.4397 32.9346 48.9199C33.1257 49.4918 32.8709 49.761 32.5206 50.0974C32.2818 50.3161 32.043 50.5516 31.8042 50.7871L31.8039 50.7873C31.5652 51.0227 31.3264 51.2582 31.0877 51.4768C30.6259 51.8805 30.1642 52.2758 29.7025 52.6711C29.2408 53.0664 28.779 53.4617 28.3173 53.8654C28.2815 53.9032 28.2257 53.9198 28.161 53.939L28.161 53.939C28.1105 53.9539 28.0547 53.9705 27.9989 54C27.9681 53.9837 27.9355 53.9675 27.9019 53.9508L27.9014 53.9505C27.7961 53.8981 27.6814 53.8409 27.5849 53.7645C27.2824 53.4954 26.9878 53.2178 26.6933 52.9403C26.3987 52.6627 26.1042 52.3851 25.8016 52.116C25.2866 51.6371 24.7582 51.1724 24.2251 50.7034L24.2243 50.7027C23.9337 50.4471 23.6417 50.1902 23.3497 49.9292C23.0631 49.6937 22.9039 49.4582 23.0631 49.0208C23.2092 48.5796 23.3006 48.124 23.3911 47.6729L23.3911 47.6729L23.3912 47.6727L23.3912 47.6726C23.4387 47.4358 23.4859 47.2002 23.5407 46.9686C23.6204 46.649 23.7159 46.3293 23.8114 46.0097L23.8114 46.0097C23.907 45.6901 24.0025 45.3705 24.0821 45.0509C24.1458 44.8154 24.2015 44.5715 24.2572 44.3276C24.313 44.0837 24.3687 43.8398 24.4324 43.6043C24.4473 43.5358 24.4623 43.4664 24.4774 43.3965L24.4774 43.3965C24.5586 43.0202 24.6434 42.6274 24.7508 42.2585C24.9419 41.552 25.1329 40.8455 25.2603 40.0717C25.4514 39.3988 25.6424 38.726 25.8016 38.0531L26.2793 36.0345C26.2991 35.9507 26.3159 35.8669 26.3324 35.7841C26.369 35.601 26.4046 35.4229 26.4704 35.2607C26.534 35.1598 26.6933 35.0252 26.8206 35.0252C27.6486 34.9916 28.4447 34.9916 29.2408 35.0252C29.3363 35.0252 29.5273 35.1934 29.5592 35.2944C29.6866 35.743 29.7856 36.1915 29.8847 36.6401L29.8848 36.6405C29.9343 36.8646 29.9838 37.0888 30.0368 37.313C30.1165 37.6494 30.212 37.9942 30.3075 38.3391C30.403 38.6839 30.4986 39.0288 30.5782 39.3652C30.7374 40.0381 30.8966 40.7109 31.0558 41.3502C31.2469 42.023 31.438 42.6959 31.5972 43.3687C31.7564 44.008 31.8838 44.6135 32.0111 45.2528C32.0681 45.4783 32.1186 45.7038 32.1685 45.9263L32.1685 45.9263L32.1686 45.9266C32.2303 46.2019 32.291 46.4726 32.3614 46.7331C32.4226 46.9701 32.4773 47.2072 32.5317 47.4432L32.5317 47.4432Z" fill="#0C152A"/>
</svg>
