<svg width="88" height="88" viewBox="0 0 88 88" fill="none" xmlns="http://www.w3.org/2000/svg">
<path d="M37.233 27.6253C35.9957 25.8842 33.5752 25.4701 31.829 26.7112C30.084 27.9496 29.6738 30.3703 30.9136 32.1165L38.2997 42.5155C38.2189 42.8989 38.1728 43.2976 38.1728 43.7065C38.1728 46.8733 40.737 49.44 43.9024 49.44C45.569 49.44 47.0562 48.7183 48.1037 47.5837H56.4129C58.554 47.5837 60.2885 45.8477 60.2885 43.7078C60.2885 41.5681 58.5539 39.8321 56.4129 39.8321H48.1025C47.2127 38.868 46.0025 38.2244 44.637 38.0475L37.233 27.6253Z" fill="white"/>
<path d="M71.2187 31.3574C72.2379 33.5678 72.9917 35.9229 73.4443 38.3858C73.5891 39.1783 74.3135 39.723 75.1161 39.65L82.3368 38.9858C82.7675 38.9474 83.1613 38.7307 83.4253 38.3885C83.6907 38.0448 83.7984 37.609 83.7278 37.182C83.0329 32.9961 81.6905 29.0331 79.8033 25.392C79.5905 24.9779 79.2033 24.683 78.7483 24.5843C78.2932 24.4882 77.8188 24.5971 77.4534 24.8869L71.6622 29.4869C71.1045 29.9344 70.9186 30.7062 71.2187 31.3574Z" fill="white"/>
<path d="M65.8273 65.9637C65.2375 65.5598 64.4504 65.6099 63.9157 66.0843C59.2566 70.2202 53.3001 72.9228 46.737 73.4909V70.0087C46.737 68.5805 45.5805 67.4253 44.1536 67.4253C42.7267 67.4253 41.569 68.5818 41.569 70.0087V73.4884C27.1891 72.2473 15.7081 60.7675 14.467 46.3864H17.9478C19.3748 46.3864 20.5313 45.2312 20.5313 43.8029C20.5313 42.3746 19.3748 41.2194 17.9478 41.2194H14.4567C15.6234 27.7102 25.8352 16.7715 38.9907 14.4649C39.7342 14.3342 40.2779 13.6905 40.2779 12.9354V5.59543C40.2779 5.14667 40.083 4.71712 39.7419 4.42221C39.4022 4.12744 38.9508 3.9928 38.5047 4.05685C19.0029 6.80067 4 23.5471 4 43.8029C4 65.9792 21.9774 83.9566 44.1536 83.9566C55.0476 83.9566 64.9016 79.5935 72.1326 72.5473C72.4659 72.2217 72.6364 71.7652 72.5966 71.3012C72.5557 70.837 72.312 70.4127 71.9275 70.1498L65.8273 65.9637Z" fill="white"/>
<path d="M49.3171 14.4634C50.3327 14.6404 51.33 14.8672 52.3057 15.1442C53.0531 15.3557 53.8365 14.9852 54.1505 14.2762L57.0968 7.63247C57.2763 7.22867 57.2738 6.7671 57.0916 6.36317C56.9108 5.96186 56.566 5.65166 56.1443 5.51702C54.0968 4.86825 51.9812 4.37086 49.807 4.05805C49.3608 3.9953 48.9068 4.12864 48.5672 4.42341C48.2263 4.71832 48.0313 5.14787 48.0313 5.59911V12.93C48.0299 13.6891 48.5723 14.334 49.3171 14.4634Z" fill="white"/>
<path d="M65.3117 22.8585C65.8695 23.4265 66.7631 23.479 67.3861 22.9854L73.076 18.4635C73.4182 18.193 73.6297 17.7892 73.6606 17.3532C73.6913 16.9159 73.5363 16.4903 73.235 16.1724C71.1644 13.9967 68.8528 12.0569 66.3412 10.389C65.9605 10.1364 65.4861 10.0633 65.0451 10.1916C64.6053 10.3197 64.2438 10.6352 64.059 11.0545L61.0846 17.7597C60.7884 18.4315 60.9974 19.2187 61.591 19.647C62.9193 20.6135 64.1617 21.6905 65.3117 22.8585Z" fill="white"/>
<path d="M83.5593 47.24C83.231 46.9042 82.7708 46.7323 82.3041 46.7759L74.9257 47.4541C74.2218 47.517 73.6526 48.0478 73.5346 48.7439C72.9819 52.0375 71.8871 55.1415 70.346 57.9723C69.9652 58.6712 70.1729 59.5467 70.8306 59.9967L76.8192 64.107C77.1781 64.3545 77.6243 64.4404 78.0486 64.3417C78.4731 64.243 78.8358 63.9711 79.0512 63.5929C81.6371 59.0427 83.3552 53.9426 83.9899 48.508C84.0453 48.04 83.8862 47.5761 83.5593 47.24Z" fill="white"/>
</svg>
