<svg width="64" height="64" viewBox="0 0 64 64" fill="none" xmlns="http://www.w3.org/2000/svg">
<g clip-path="url(#clip0)">
<path d="M36.0695 7.28125C34.2671 7.28125 32.9309 8.10473 32 9.14139C31.0691 8.10473 29.7329 7.28125 27.9305 7.28125C24.7278 7.28125 22.2188 9.94245 22.2188 13.3406C22.2188 16.907 24.9905 19.2462 28.8277 22.4826C29.4863 23.0402 30.188 23.6314 30.925 24.2707C31.5367 24.8 32.4533 24.8088 33.0751 24.2707C33.8105 23.633 34.5123 23.0402 35.1707 22.4842C38.1794 19.9467 41.7813 17.2274 41.7813 13.3406C41.7813 9.94245 39.2723 7.28125 36.0695 7.28125Z" fill="#00AEEF"/>
<path d="M27.5376 30.3154L21.2923 24.1795C20.0126 22.9 17.9125 22.9 16.6328 24.1795C15.4017 25.4107 15.3321 27.5055 16.6328 28.8062L19.914 32.0874C20.5957 32.7686 20.5429 33.7884 19.914 34.417C19.3626 35.0302 18.1732 35.0352 17.6173 34.417L12.0062 28.8062C11.0874 27.8873 10.5625 26.6405 10.5625 25.3281V7.28124C10.5625 5.41093 9.02041 4 7.28124 4C5.47656 4 4 5.47656 4 7.28124V30.0859C4 31.5623 4.39375 33.0061 5.18125 34.2858L13.1547 47.5748C13.614 48.3623 13.8438 49.2154 13.8438 50.1015V58.3593C13.8438 59.2779 14.5656 59.9999 15.4845 59.9999H30.3594V37.1404C30.3594 34.5812 29.3422 32.1203 27.5376 30.3154Z" fill="#0C152A"/>
<path d="M17.125 10.5625C15.3203 10.5625 13.8438 12.0391 13.8438 13.8437V22.3833C15.0451 20.8783 16.9012 19.9384 18.9627 19.9384C19.456 19.9384 19.9366 20.0049 20.4062 20.1095V13.8437C20.4062 11.9735 18.8642 10.5625 17.125 10.5625Z" fill="#0C152A"/>
<path d="M56.7187 4C54.9795 4 53.4375 5.41093 53.4375 7.28124V25.3281C53.4375 26.6405 52.9126 27.8873 51.9937 28.8062L46.3827 34.417C45.8312 35.0302 44.6419 35.0352 44.0859 34.417C43.457 33.7884 43.4043 32.7686 44.0859 32.0874L47.3672 28.8062C47.9906 28.1828 48.3186 27.3296 48.3186 26.5093C48.3186 25.6562 47.9906 24.803 47.3672 24.1795C46.0875 22.9 43.9874 22.9 42.7077 24.1795L36.4624 30.3155C34.6578 32.1203 33.6406 34.5812 33.6406 37.1404V59.9999H48.5156C49.4344 59.9999 50.1562 59.2779 50.1562 58.3593V50.1015C50.1562 49.2154 50.3859 48.3623 50.8454 47.5748L58.8188 34.2858C59.6063 33.0061 60 31.5622 60 30.0859V7.28124C59.9999 5.47656 58.5234 4 56.7187 4Z" fill="#0C152A"/>
<path d="M46.875 10.5625C45.1358 10.5625 43.5938 11.9734 43.5938 13.8437V20.1094C44.0634 20.0048 44.544 19.9383 45.0373 19.9383C47.0988 19.9384 48.9549 20.8783 50.1562 22.3833V13.8437C50.1562 12.0391 48.6797 10.5625 46.875 10.5625Z" fill="#0C152A"/>
</g>
<defs>
<clipPath id="clip0">
<rect x="4" y="4" width="56" height="56" fill="white"/>
</clipPath>
</defs>
</svg>
