<svg width="88" height="88" viewBox="0 0 88 88" fill="none" xmlns="http://www.w3.org/2000/svg">
<path d="M4 54.0001V78.0001C4 79.6569 5.34308 81.0001 7 81.0001H16V51.0001H7C5.34308 51.0001 4 52.3432 4 54.0001Z" fill="white"/>
<path d="M46.46 53.9965H37.5977C36.8228 53.9965 36.4346 53.4794 36.3042 53.2567C36.1738 53.0356 35.9102 52.4452 36.2852 51.7685L39.4097 46.142C40.0952 44.9101 40.1655 43.4613 39.6045 42.1679C39.0435 40.8729 37.936 39.934 36.5664 39.5927L34.3633 39.0419C33.8271 38.9071 33.2588 39.0785 32.8852 39.4931L20.9233 52.7821C19.6826 54.1635 19 55.9447 19 57.7992V73.4965C19 77.6317 22.3647 80.9965 26.5 80.9965L41.4224 80.995C44.7915 80.995 47.7666 78.726 48.6557 75.4784L51.8579 60.7831C51.9516 60.3744 52 59.9554 52 59.5365C52 56.4823 49.5141 53.9965 46.4599 53.9965L46.46 53.9965Z" fill="white"/>
<path fill-rule="evenodd" clip-rule="evenodd" d="M65.8476 0.0692344L86.6906 6.65908C87.3493 6.86722 87.8 7.50597 87.8 8.23047V32.3932C87.8 35.536 86.5929 38.7532 84.212 41.9553C82.3935 44.4009 79.8777 46.8567 76.7346 49.2545C71.4544 53.2826 66.255 55.7536 66.0363 55.8567C65.834 55.9523 65.6171 56 65.4002 56C65.1833 56 64.9664 55.9522 64.7641 55.8567C64.5453 55.7536 59.3458 53.2826 54.0656 49.2545C50.9225 46.8567 48.4066 44.4009 46.5882 41.9553C44.2073 38.7531 43 35.5359 43 32.3932V8.23047C43 7.50597 43.4509 6.86722 44.1094 6.65908L64.9528 0.0692344C65.2447 -0.0230781 65.5558 -0.0230781 65.8476 0.0692344ZM67.753 41.8604V39.2295C71.823 38.2459 73.7999 35.2558 73.8 31.4392C73.8 27.0896 70.1097 25.324 67.2125 23.9379C65.3403 23.0422 63.7993 22.3049 63.7993 21.1311C63.7993 19.5573 64.6133 19.0852 66.28 19.0852C67.3555 19.0852 68.3005 19.4393 69.2944 20.1475C69.905 20.5826 70.7436 20.468 71.2324 19.8958L72.6957 18.1836C73.2289 17.5596 73.1502 16.616 72.5278 16.0836C71.2034 14.9506 69.6544 14.1195 67.753 13.8131V11.2748C67.753 10.4603 67.1025 9.8 66.3 9.8H64.8646C64.0621 9.8 63.4116 10.4603 63.4116 11.2748V13.8918C59.6516 14.718 57.4422 17.4721 57.4422 21.446C57.4422 25.5537 61.0018 27.3647 63.8737 28.8258C65.8155 29.8138 67.4429 30.6417 67.4429 31.9115C67.4429 33.4459 66.6676 34.1148 64.7295 34.1148C63.42 34.1148 62.1105 33.7076 60.5589 32.729C59.8859 32.3047 59.0008 32.5155 58.5747 33.1932L57.225 35.3407C56.8034 36.0116 56.9916 36.9224 57.6448 37.3623C59.4354 38.5678 61.6049 39.2401 63.4115 39.4654V41.8604C63.4115 42.7107 64.0907 43.4 64.9285 43.4H66.2361C67.0738 43.4 67.753 42.7107 67.753 41.8604Z" fill="white"/>
</svg>
