<svg width="88" height="88" viewBox="0 0 88 88" fill="none" xmlns="http://www.w3.org/2000/svg">
<path d="M44 4C36.2455 4 29.9375 10.4642 29.9375 18.2188C29.9375 25.9733 36.2455 32.2812 44 32.2812C51.7545 32.2812 58.0625 25.9733 58.0625 18.2188C58.0625 10.4642 51.7545 4 44 4Z" fill="white"/>
<path d="M48.6879 32.2812H44.0004H39.3129C36.007 32.2812 32.8124 33.1358 29.9082 34.5895C34.8409 35.9205 39.4852 37.8373 44.0004 40.4289C48.5157 37.8373 53.1599 35.9205 58.0926 34.5895C55.1884 33.1358 51.9938 32.2812 48.6879 32.2812Z" fill="white"/>
<path d="M79.3125 46.3438C76.7236 46.3438 74.625 48.4423 74.625 51.0312V60.4062C74.625 62.9948 76.7236 65.0938 79.3125 65.0938C81.9014 65.0938 84 62.9948 84 60.4062V51.0312C84 48.4423 81.9014 46.3438 79.3125 46.3438Z" fill="white"/>
<path d="M8.6875 46.3438C6.09859 46.3438 4 48.4423 4 51.0312V60.4062C4 62.9948 6.09859 65.0938 8.6875 65.0938C11.2764 65.0938 13.375 62.9948 13.375 60.4062V51.0312C13.375 48.4423 11.2764 46.3438 8.6875 46.3438Z" fill="white"/>
<path d="M11.0312 36.9688C9.73578 36.9688 8.6875 38.017 8.6875 39.3125V41.6562C13.858 41.6562 18.0625 45.8608 18.0625 51.0312V60.4062C18.0625 65.5767 13.858 69.7812 8.6875 69.7812V72.125C8.6875 73.4205 9.73578 74.4688 11.0312 74.4688C23.047 74.4688 32.6547 78.2634 41.6562 84V44.5616C32.6141 39.3772 22.8911 36.9688 11.0312 36.9688Z" fill="white"/>
<path d="M79.3125 41.6562V39.3125C79.3125 38.017 78.2642 36.9688 76.9688 36.9688C65.1089 36.9688 55.3859 39.3772 46.3438 44.5616V84C55.3453 78.2634 64.953 74.4688 76.9688 74.4688C78.2642 74.4688 79.3125 73.4205 79.3125 72.125V69.7812C74.142 69.7812 69.9375 65.5767 69.9375 60.4062V51.0312C69.9375 45.8608 74.142 41.6562 79.3125 41.6562Z" fill="white"/>
</svg>
