<svg width="88" height="88" viewBox="0 0 88 88" fill="none" xmlns="http://www.w3.org/2000/svg">
<path fillRule="evenodd" clipRule="evenodd" d="M4 59.2812C4 58.6773 4.4478 58.1875 5 58.1875H19V50.5312H14C8.4859 50.5312 4 45.6248 4 39.5938V36.3125C4 35.7085 4.4478 35.2188 5 35.2188H11C14.2676 35.2188 17.1741 36.942 19 39.601V38.9375C19 32.9065 23.4859 28 29 28H32C32.5522 28 33 28.4898 33 29.0938C33 35.1248 28.5141 40.0312 23 40.0312H21V51.7121C23.3045 47.72 27.3735 45.0625 32 45.0625H35C35.5522 45.0625 36 45.5523 36 46.1562C36 51.2165 33.5703 55.667 29.9204 58.1875H35C35.5522 58.1875 36 58.6773 36 59.2812V65.8438C36 66.4477 35.5522 66.9375 35 66.9375H32.826L29.982 83.1129C29.8915 83.6278 29.4795 84 29 84H24.5H15.5H11C10.5205 84 10.1085 83.6278 10.018 83.1129L7.174 66.9375H5C4.4478 66.9375 4 66.4477 4 65.8438V59.2812Z" fill="white"/>
<path d="M70.894 17.1059C68.5104 14.7223 65.1453 13.1799 61.4998 13.1799C57.8543 13.1799 54.4892 14.6522 52.1056 17.1059C49.722 19.4895 48.1797 22.8545 48.1797 26.5C48.1797 30.1455 49.722 33.5106 52.1056 35.8942C54.4892 38.2778 57.8543 39.8201 61.4998 39.8201C65.1453 39.8201 68.5104 38.3479 70.894 35.8942C73.2776 33.5106 74.8199 30.1455 74.8199 26.5C74.8199 22.8545 73.3477 19.4895 70.894 17.1059Z" fill="white"/>
<path d="M61.5005 9.04365C62.482 9.04365 63.3232 8.20238 63.3232 7.2209V1.82275C63.3232 0.841269 62.482 0 61.5005 0C60.519 0 59.6777 0.841269 59.6777 1.82275V7.2209C59.6777 8.20238 60.519 9.04365 61.5005 9.04365Z" fill="white"/>
<path d="M76.4324 14.1613L80.2882 10.3055C80.9893 9.60446 80.9893 8.48277 80.2882 7.78171C79.5872 7.08066 78.4655 7.08066 77.7644 7.78171L73.9086 11.6375C73.2075 12.3386 73.2075 13.4603 73.9086 14.1613C74.5396 14.8624 75.6612 14.8624 76.4324 14.1613Z" fill="white"/>
<path d="M86.1779 24.6772H80.7798C79.7983 24.6772 78.957 25.5185 78.957 26.4999C78.957 27.4814 79.7983 28.3227 80.7798 28.3227H86.1779C87.1594 28.3227 88.0007 27.4814 88.0007 26.4999C88.0007 25.5185 87.1594 24.6772 86.1779 24.6772Z" fill="white"/>
<path d="M76.3621 38.8387C75.661 38.1376 74.5394 38.1376 73.8383 38.8387C73.1372 39.5397 73.1372 40.6614 73.8383 41.3625L77.6941 45.2183C78.3952 45.9193 79.5169 45.9193 80.2179 45.2183C80.919 44.5172 80.919 43.3955 80.2179 42.6945L76.3621 38.8387Z" fill="white"/>
<path d="M61.5005 43.9563C60.519 43.9563 59.6777 44.7976 59.6777 45.7791V51.1772C59.6777 52.1587 60.519 53 61.5005 53C62.482 53 63.3232 52.1587 63.3232 51.1772V45.7791C63.3232 44.7976 62.482 43.9563 61.5005 43.9563Z" fill="white"/>
<path d="M46.5672 38.8387L42.7113 42.6945C42.0103 43.3955 42.0103 44.5172 42.7113 45.2183C43.4124 45.9193 44.5341 45.9193 45.2352 45.2183L49.091 41.3625C49.792 40.6614 49.792 39.5397 49.091 38.8387C48.46 38.1376 47.3383 38.1376 46.5672 38.8387Z" fill="white"/>
<path d="M44.0436 26.4999C44.0436 25.5185 43.2024 24.6772 42.2209 24.6772H36.8228C35.8413 24.6772 35 25.5185 35 26.4999C35 27.4814 35.8413 28.3227 36.8228 28.3227H42.2209C43.2024 28.3227 44.0436 27.4814 44.0436 26.4999Z" fill="white"/>
<path d="M46.5672 14.1613C47.2682 14.8624 48.3899 14.8624 49.091 14.1613C49.792 13.4603 49.792 12.3386 49.091 11.6375L45.2352 7.78171C44.5341 7.08066 43.4124 7.08066 42.7113 7.78171C42.0103 8.48277 42.0103 9.60446 42.7113 10.3055L46.5672 14.1613Z" fill="white"/>
</svg>
