<svg width="64" height="64" viewBox="0 0 64 64" fill="none" xmlns="http://www.w3.org/2000/svg">
<path fillRule="evenodd" clipRule="evenodd" d="M48.2398 33.0359L59.4057 36.4485C59.7585 36.5562 60 36.887 60 37.2622V49.775C60 51.4026 59.3533 53.0686 58.0778 54.7268C57.1036 55.9933 55.7559 57.2651 54.0721 58.5068C51.2434 60.5928 48.458 61.8724 48.3409 61.9258C48.2325 61.9753 48.1163 62 48.0001 62C47.8839 62 47.7677 61.9752 47.6593 61.9258C47.5421 61.8724 44.7567 60.5928 41.928 58.5068C40.2442 57.2651 38.8964 55.9933 37.9223 54.7268C36.6468 53.0686 36 51.4025 36 49.775V37.2622C36 36.887 36.2416 36.5562 36.5943 36.4485L47.7604 33.0359C47.9168 32.988 48.0835 32.988 48.2398 33.0359ZM48.9557 50.0843L54.4838 44.2022C55.1725 43.4692 55.1721 42.2814 54.4825 41.549C53.7929 40.8166 52.6753 40.8171 51.9861 41.55L46.8764 46.9866L45.0135 45.0072C44.3244 44.2743 43.2063 44.2743 42.5172 45.0072C41.8276 45.7396 41.8276 46.9279 42.5172 47.6604L44.7984 50.0853C45.3533 50.6751 46.0916 51 46.8764 51H46.8773C47.6625 51 48.4004 50.6746 48.9557 50.0843Z" fill="#FAA61A"/>
<path fillRule="evenodd" clipRule="evenodd" d="M8.66672 13.6667C8.66672 7.2336 13.9004 2 20.3334 2C26.7664 2 32.0001 7.23373 32.0001 13.6667C32.0001 18.0301 29.5918 21.8412 26.0349 23.842C24.3479 24.791 22.403 25.3333 20.3334 25.3333C18.2638 25.3333 16.3188 24.791 14.6318 23.842C11.0751 21.8412 8.66672 18.0303 8.66672 13.6667ZM22.6359 28H26.5368C30.1835 28 33.3863 29.5182 35.1705 31.9045L32.7924 32.6376C32.3222 32.7825 32.0001 33.2274 32.0001 33.7319V50.5595C32.0001 52.3497 32.577 54.1746 33.7176 56H6.02599C4.90705 56 4 55.2225 4 54.2635L4.00005 36.3495C4.00005 31.5618 8.54435 28 14.13 28H17.3672C16.9869 28.0046 16.6843 28.3906 16.7605 28.7767C16.7925 28.8739 16.8178 28.9644 16.842 29.051L16.842 29.051C16.8758 29.1718 16.9075 29.2849 16.9522 29.3981L16.9522 29.3981L16.9522 29.3981C17.2972 30.369 17.6423 31.3398 17.949 32.3107C18.1407 32.932 18.6007 33.3592 19.2525 33.3592C19.4172 33.3592 19.5861 33.355 19.7563 33.3507L19.7565 33.3507H19.7565C20.1015 33.342 20.4524 33.3332 20.786 33.3592C21.3228 33.3981 21.7062 33.165 21.9362 32.699C22.1129 32.3709 22.2217 32.0198 22.3322 31.6634L22.3322 31.6634L22.3323 31.6633C22.3656 31.5558 22.3991 31.4478 22.4346 31.3398C22.5506 30.9872 22.6595 30.6345 22.7674 30.2851C22.9091 29.8263 23.0491 29.3729 23.2014 28.932C23.4301 28.43 23.2039 28.0048 22.6359 28ZM24.9347 48.9199C24.7615 48.4397 24.6472 47.9439 24.5318 47.4432L24.5317 47.4432C24.4773 47.2072 24.4227 46.9701 24.3615 46.7331C24.2911 46.4726 24.2304 46.2019 24.1686 45.9266L24.1686 45.9263C24.1187 45.7038 24.0681 45.4783 24.0112 45.2528C23.8838 44.6135 23.7565 44.008 23.5972 43.3687C23.438 42.6959 23.247 42.023 23.0559 41.3502C22.8967 40.7109 22.7375 40.0381 22.5782 39.3652C22.4986 39.0288 22.4031 38.6839 22.3076 38.3391C22.212 37.9942 22.1165 37.6494 22.0369 37.313C21.9839 37.0888 21.9343 36.8646 21.8848 36.6405L21.8848 36.6401C21.7857 36.1915 21.6866 35.743 21.5592 35.2944C21.5274 35.1934 21.3363 35.0252 21.2408 35.0252C20.4447 34.9916 19.6486 34.9916 18.8207 35.0252C18.6933 35.0252 18.5341 35.1598 18.4704 35.2607C18.4046 35.4229 18.369 35.601 18.3325 35.7841C18.3159 35.8669 18.2992 35.9507 18.2793 36.0345L17.8017 38.0531C17.6425 38.726 17.4514 39.3988 17.2604 40.0717C17.133 40.8455 16.9419 41.552 16.7509 42.2585C16.6434 42.6274 16.5587 43.0202 16.4774 43.3965L16.4774 43.3965C16.4623 43.4664 16.4474 43.5358 16.4324 43.6043C16.3687 43.8398 16.313 44.0837 16.2573 44.3276C16.2016 44.5715 16.1458 44.8154 16.0821 45.0509C16.0025 45.3705 15.907 45.6901 15.8115 46.0097L15.8115 46.0097C15.7159 46.3293 15.6204 46.649 15.5408 46.9686C15.486 47.2002 15.4387 47.4358 15.3912 47.6727L15.3912 47.6729L15.3912 47.6729C15.3007 48.124 15.2093 48.5796 15.0631 49.0208C14.9039 49.4582 15.0631 49.6937 15.3497 49.9292C15.6417 50.1902 15.9338 50.4471 16.2244 50.7027L16.2252 50.7034C16.7583 51.1724 17.2866 51.6371 17.8017 52.116C18.1042 52.3851 18.3988 52.6627 18.6933 52.9403C18.9879 53.2178 19.2824 53.4954 19.5849 53.7645C19.6814 53.8409 19.7961 53.8981 19.9015 53.9505C19.9352 53.9674 19.968 53.9837 19.9989 54C20.0547 53.9705 20.1106 53.9539 20.161 53.939L20.1611 53.939C20.2257 53.9198 20.2816 53.9032 20.3173 53.8654C20.7791 53.4617 21.2408 53.0664 21.7025 52.6711C22.1643 52.2758 22.626 51.8805 23.0877 51.4768C23.3265 51.2582 23.5652 51.0227 23.804 50.7873L23.8042 50.7871C24.043 50.5516 24.2819 50.3161 24.5207 50.0974C24.871 49.761 25.1257 49.4918 24.9347 48.9199Z" fill="#0C152A"/>
</svg>
