<svg width="64" height="64" viewBox="0 0 64 64" fill="none" xmlns="http://www.w3.org/2000/svg">
<path d="M58.1704 43.0062C57.0843 42.8262 55.9896 42.9634 54.9034 42.9205C54.9205 42.7404 54.9291 42.6204 54.9376 42.4746C55.981 42.4146 57.0244 42.6633 58.025 42.2517C60.4025 41.0685 59.6157 37.6559 56.5882 37.8274C53.039 37.8188 49.43 37.8188 45.8979 37.8103C43.5717 37.9046 45.1197 37.373 42.1777 33.9862C40.2962 32.3656 38.9022 33.7375 34.1814 36.7213C33.0867 37.5016 32.6248 38.8649 31.3078 39.4394C30.4098 40.0824 32.3854 42.4232 27.8185 45.1412C26.0995 46.2902 26.7153 44.481 26.6126 55.4903C27.7843 55.4903 28.8191 55.4817 29.9309 55.4903C30.8802 55.456 31.8038 55.5246 32.2314 56.5707C32.5735 57.128 32.9926 57.4795 33.6169 57.5824C40.9547 57.6081 48.1301 57.6682 55.4337 57.5567C58.9743 56.845 58.923 53.6297 55.1942 52.9695C54.9975 52.9609 54.8094 52.8837 54.9547 52.5837C55.9725 52.6008 57.0842 52.6608 57.8882 51.9492C59.094 50.886 58.8631 48.7424 57.0757 48.0993C56.3915 47.7992 55.5021 48.1336 54.9034 47.7478C56.1007 47.2591 57.5546 47.9193 58.769 47.2676C60.5821 46.2987 60.394 43.5807 58.1704 43.0062Z" fill="#FAA61A"/>
<path d="M9.0545 21.4936C9.20844 21.9652 8.92622 21.9652 8.60123 21.9481C7.52365 21.9395 6.23226 21.7423 5.35994 22.5311C3.83764 23.9116 4.2738 26.9125 8.14796 26.621C11.5689 26.6467 14.793 26.6896 18.2396 26.7239C20.3092 26.6553 18.804 27.2727 21.7973 30.6766C23.6532 32.2114 25.1498 30.7624 29.691 27.9757C30.7857 27.2126 31.239 25.9008 32.4363 25.3177C33.3257 25.0005 31.735 22.977 34.4888 20.499C38.1064 17.5066 36.9433 21.5536 37.0545 9.22391C35.4296 9.00098 32.7014 10.0042 31.8462 8.00637C31.5811 7.58623 31.2732 7.30328 30.8285 7.14895C23.3966 6.78025 16.0759 6.88314 8.6611 6.85742C5.14613 7.57766 5.19745 10.7758 9.01174 11.4704C9.17423 11.4875 9.18278 11.5732 9.15713 11.7619C4.32512 11.2303 4.06 16.975 9.13147 16.4863C9.14857 16.5463 9.16568 16.6149 9.18278 16.6749C8.19928 17.1551 6.72829 16.5292 5.47112 17.0179C3.64094 17.7038 2.34955 22.1453 9.0545 21.4936Z" fill="#00AEEF"/>
<path d="M36.0533 22.711C34.4626 24.5288 35.8395 25.8492 39.1578 30.5479C41.0307 30.8651 42.0143 30.162 44.0155 32.0141C47.9067 36.0954 42.5017 34.9722 57.4083 35.1179C57.1004 30.5908 58.7852 33.0173 59.4779 30.3592C59.3667 23.5256 59.4865 16.7948 59.1957 10.0126C58.4859 7.86047 55.4242 7.43176 54.5176 10.69C54.013 10.287 54.7058 9.00085 53.7565 8.01481C52.4138 6.51432 49.7455 7.22598 49.7284 9.56675C49.7113 9.99546 49.7455 10.4242 49.5488 10.7328C49.01 9.84112 49.7711 8.17772 48.9758 7.06307C47.9581 5.44254 45.3582 5.69119 44.8279 7.75758C44.6227 8.78649 44.8621 9.84969 44.7168 10.8014C44.5799 10.7843 44.4602 10.7671 44.3234 10.75C44.2891 9.59247 44.5201 8.3835 43.7675 7.41461C42.1596 5.59688 39.3545 6.9859 39.7137 9.53245C39.7394 12.8164 39.765 15.9717 39.7992 19.2813C39.9019 21.3906 39.3973 19.9673 36.0533 22.711Z" fill="#0C152A"/>
<path d="M28.3146 39.7224C27.5706 38.0161 26.4759 36.73 25.4924 35.1952C24.1668 32.5886 23.551 35.2809 20.2413 32.9059C19.2322 32.0656 18.6164 30.9595 17.9237 29.9049C17.7441 29.5962 17.5987 29.4762 17.2908 29.4419C13.81 29.4076 10.3464 29.3819 6.89984 29.3047C6.5663 29.3047 6.45512 29.399 6.44657 29.6734C6.86563 33.6432 4.71902 31.5854 4.35983 34.2777C4.47956 41.0342 4.10326 47.7136 4.46245 54.5043C5.14663 56.365 7.96887 57.2052 9.13197 53.7841C9.67076 54.41 8.56752 56.6822 11.3042 57.2481C12.6127 57.3596 13.716 56.5107 13.8442 55.276C13.9212 54.7701 13.7929 54.1871 14.0752 53.7927C14.5541 54.8902 13.8785 56.2535 14.5541 57.3681C15.435 59.0058 18.1631 58.9372 18.7361 56.9137C18.9756 55.8505 18.8045 54.8044 18.8473 53.8356C20.0361 53.3725 18.394 56.2106 20.2584 57.5739C21.7722 58.68 24.0642 57.5482 23.9017 55.3618C23.8418 52.5923 23.9273 49.8571 23.9188 47.0791C24.0214 46.093 23.6964 44.9955 24.0984 44.1038C25.6549 43.2378 29.0074 42.1317 28.3146 39.7224Z" fill="#ED145B"/>
</svg>
