<svg width="18" height="16" viewBox="0 0 18 16" fill="none" xmlns="http://www.w3.org/2000/svg"> <path fillRule="evenodd" clipRule="evenodd" d="M6.89095 0H11.1097C11.982 0 12.6917 0.717778 12.6917 1.6V2.13333H17.0931L15.1041 8.16875C15.032 8.38694 14.8306 8.53333 14.6035 8.53333H11.637V8C11.637 7.70528 11.4011 7.46667 11.1097 7.46667H6.89095C6.59954 7.46667 6.36361 7.70528 6.36361 8V8.53333H3.39716C3.17002 8.53333 2.96869 8.38694 2.8966 8.16875L0.90766 2.13333H5.30892V1.6C5.30892 0.717778 6.01864 0 6.89095 0ZM6.36361 1.6V2.13333H11.637V1.6C11.637 1.30569 11.4007 1.06667 11.1097 1.06667H6.89095C6.59995 1.06667 6.36361 1.30569 6.36361 1.6ZM14.6032 9.59997H11.6367V10.1333C11.6367 10.428 11.4008 10.6666 11.1094 10.6666H6.89062C6.59921 10.6666 6.36328 10.428 6.36328 10.1333V9.59997H3.39684C2.715 9.59997 2.11198 9.16039 1.8961 8.50622L0 2.75233V14.4C0 15.2822 0.709717 16 1.58203 16H16.418C17.2903 16 18 15.2822 18 14.4V2.75275L16.1038 8.50622C15.888 9.16039 15.285 9.59997 14.6032 9.59997ZM7.4177 8.53333H10.5818V9.59999H7.4177V8.53333Z" fill="#0C152A"></path> </svg>