<svg width="18" height="18" viewBox="0 0 18 18" fill="none" xmlns="http://www.w3.org/2000/svg"> <path fill-rule="evenodd" clip-rule="evenodd" d="M17.871 0.219362C17.8857 0.23736 17.8958 0.25311 17.907 0.272233C17.961 0.358853 17.9993 0.454472 17.9993 0.562466V15.1866C17.9993 15.2946 17.961 15.3902 17.907 15.4768L17.9058 15.4787C17.894 15.497 17.8841 15.5123 17.871 15.5297C17.8092 15.6095 17.7316 15.6725 17.6359 15.7097C17.6342 15.7102 17.6328 15.7116 17.6314 15.713C17.63 15.7144 17.6286 15.7159 17.6269 15.7164C17.5639 15.7378 17.5009 15.749 17.4368 15.749C17.3547 15.749 17.2782 15.7299 17.2073 15.6995C17.1977 15.6951 17.1893 15.6884 17.1806 15.6816C17.174 15.6765 17.1674 15.6713 17.1601 15.6669C17.1083 15.6377 17.06 15.6028 17.0206 15.5589C17.0177 15.5554 17.0142 15.5531 17.0108 15.551C17.0077 15.5489 17.0048 15.547 17.0026 15.5443C15.2488 13.4148 12.8032 11.9918 10.1248 11.4698V4.28036C12.8032 3.7584 15.2488 2.33423 17.0026 0.204737C17.0048 0.202488 17.0077 0.201081 17.0105 0.199675C17.0133 0.198269 17.0161 0.196863 17.0183 0.194613C17.0847 0.120368 17.168 0.0663709 17.2647 0.0348729C17.2782 0.0306203 17.2912 0.0286005 17.3043 0.0265627C17.312 0.0253661 17.3198 0.0241633 17.3277 0.0224986C17.3398 0.0199289 17.3516 0.0166404 17.3632 0.013376C17.3873 0.00663686 17.4111 0 17.4368 0C17.487 0 17.5327 0.0134171 17.5779 0.026692C17.5833 0.0283042 17.5888 0.0299144 17.5943 0.0314981C17.5999 0.0331855 17.6053 0.032623 17.6106 0.0320606C17.616 0.0314981 17.6213 0.0309356 17.6269 0.032623C17.6286 0.0331854 17.63 0.034591 17.6314 0.0359969C17.6328 0.0374034 17.6342 0.03881 17.6359 0.0393726C17.7316 0.0764953 17.8092 0.140616 17.871 0.219362ZM9.00141 4.44235V11.3067C8.93095 11.3001 8.86065 11.2918 8.79032 11.2836C8.66865 11.2693 8.54694 11.255 8.42432 11.2493H6.93041L8.81805 15.0257C9.03854 15.4431 8.95642 15.9819 8.61106 16.3273L7.26002 17.667C7.05528 17.8808 6.76955 18 6.46919 18C6.39495 18 6.31957 17.9921 6.2442 17.9764C5.86398 17.8999 5.55462 17.6378 5.41625 17.2767L3.15514 11.2493H2.81429C2.5038 11.2493 2.25182 10.9973 2.25182 10.6868V10.1244H0.56442C0.253938 10.1244 0.00195312 9.8724 0.00195312 9.56191V6.18712C0.00195312 5.87664 0.253938 5.62466 0.56442 5.62466H2.25182V5.06219C2.25182 4.75171 2.5038 4.49972 2.81429 4.49972H8.4187C8.54254 4.49403 8.66503 4.47978 8.7876 4.46552C8.85875 4.45724 8.92993 4.44896 9.00141 4.44235Z" fill="#0C152A"></path> </svg>