<svg width="96" height="96" viewBox="0 0 96 96" fill="none" xmlns="http://www.w3.org/2000/svg">
<path d="M72.4443 14.1765C72.4443 10.7653 69.7511 8 66.4287 8H10.0156C6.69326 8 4 10.7653 4 14.1765V26.5294L5.3368 27.902H71.1075C71.6295 27.366 71.9223 27.0654 72.4443 26.5294V14.1765Z" fill="#0C152A"/>
<path d="M30.2015 20.353C31.3089 20.353 32.2067 19.4312 32.2067 18.2942C32.2067 17.1571 31.3089 16.2354 30.2015 16.2354C29.094 16.2354 28.1963 17.1571 28.1963 18.2942C28.1963 19.4312 29.094 20.353 30.2015 20.353Z" fill="#ED145B"/>
<path d="M22.181 20.353C23.2884 20.353 24.1862 19.4312 24.1862 18.2942C24.1862 17.1571 23.2884 16.2354 22.181 16.2354C21.0735 16.2354 20.1758 17.1571 20.1758 18.2942C20.1758 19.4312 21.0735 20.353 22.181 20.353Z" fill="#FAA61A"/>
<path d="M14.1595 20.353C15.2669 20.353 16.1647 19.4312 16.1647 18.2942C16.1647 17.1571 15.2669 16.2354 14.1595 16.2354C13.0521 16.2354 12.1543 17.1571 12.1543 18.2942C12.1543 19.4312 13.0521 20.353 14.1595 20.353Z" fill="#37D742"/>
<path d="M4 26.5293V71.8234C4 75.2291 6.69861 77.9999 10.0156 77.9999H66.4287C69.7457 77.9999 72.4443 75.2291 72.4443 71.8234V26.5293H4Z" fill="#00AEEF"/>
<path d="M51.1401 47.3025H48.7401C48.4732 46.2365 48.0521 45.232 47.5014 44.3137L49.1988 42.6161C49.5348 42.2802 49.5348 41.7357 49.1988 41.3998L46.6003 38.8013C46.2644 38.4653 45.7199 38.4653 45.384 38.8013L43.6864 40.4987C42.7682 39.9479 41.7635 39.5268 40.6976 39.26V36.8601C40.6976 36.3851 40.3125 36 39.8375 36H36.1626C35.6876 36 35.3025 36.3851 35.3025 36.8601V39.26C34.2366 39.5269 33.2319 39.948 32.3137 40.4987L30.6161 38.8013C30.2802 38.4653 29.7357 38.4653 29.3998 38.8013L26.8013 41.3998C26.4654 41.7357 26.4654 42.2802 26.8013 42.6161L28.4987 44.3137C27.9479 45.2319 27.5268 46.2365 27.26 47.3025H24.86C24.3851 47.3025 24 47.6876 24 48.1626V51.8375C24 52.3125 24.3851 52.6976 24.86 52.6976H27.26C27.5269 53.7636 27.948 54.7682 28.4987 55.6864L26.8013 57.3839C26.4654 57.7199 26.4654 58.2643 26.8013 58.6002L29.3998 61.1987C29.7357 61.5347 30.2802 61.5347 30.6161 61.1987L32.3137 59.5012C33.2319 60.0521 34.2366 60.4732 35.3025 60.74V63.1399C35.3025 63.6149 35.6876 64 36.1626 64H39.8375C40.3125 64 40.6976 63.6149 40.6976 63.1399V60.74C41.7635 60.4731 42.7682 60.052 43.6864 59.5012L45.384 61.1987C45.7199 61.5347 46.2644 61.5347 46.6003 61.1987L49.1988 58.6002C49.5348 58.2643 49.5348 57.7198 49.1988 57.3839L47.5014 55.6864C48.0522 54.7682 48.4733 53.7635 48.7401 52.6976H51.1401C51.615 52.6976 52.0001 52.3125 52.0001 51.8375V48.1626C52.0001 47.6876 51.615 47.3025 51.1401 47.3025ZM38.0002 54.4291C35.5542 54.4291 33.5712 52.4461 33.5712 50C33.5712 47.554 35.5541 45.5709 38.0002 45.5709C40.4462 45.5709 42.4293 47.5539 42.4293 50C42.4292 52.4461 40.4462 54.4291 38.0002 54.4291Z" fill="white"/>
<path d="M81.2514 50.2592C79.9558 49.5224 78.3333 50.4449 78.3333 51.9134V60.3782L72.5 64.6782L66.6667 60.3782V51.9134C66.6667 50.4424 65.0419 49.5235 63.7486 50.2592C58.3522 53.3272 55 59.0354 55 65.1559C55 70.9008 57.953 76.282 62.7778 79.4581V88.0889C62.7778 89.1443 63.6484 90 64.7222 90H80.2778C81.3516 90 82.2222 89.1443 82.2222 88.0889V79.4581C87.047 76.282 90 70.9008 90 65.1559C90 59.0354 86.6478 53.3272 81.2514 50.2592Z" fill="#ED145B"/>
</svg>
