<svg width="96" height="96" viewBox="0 0 96 96" fill="none" xmlns="http://www.w3.org/2000/svg">
<path d="M82.9376 67.6864L74.5116 67.6868C71.5971 72.2248 66.7121 76.066 62.1455 78.9392H82.9376V87.3739L96.0001 73.3142L82.9376 59.2517V67.6864Z" fill="#ED145B"/>
<path d="M44.3042 78.9893C61.8277 78.8704 76 64.7425 76 47.32C76 30.7963 63.2502 17.242 46.9853 15.7852V7L29.5765 21.4L46.9853 35.7971V27.4511C56.802 28.8636 64.3941 37.191 64.3941 47.32C64.3941 58.4351 55.2818 67.48 44.0839 67.48H0V79H44.3173C44.3115 78.9965 44.3098 78.9927 44.3042 78.9893Z" fill="#00AEEF"/>
<path d="M31.0154 64.0639C27.3532 60.4864 25.0625 55.5124 25.0625 50.0014C25.0625 43.4646 28.3001 37.7022 33.2195 34.1196L24.3813 26.7554C17.9156 32.4257 13.8125 40.726 13.8125 50.0014C13.8125 55.0836 15.1175 59.8339 17.2889 64.0639H31.0154Z" fill="#FAA61A"/>
<circle cx="74" cy="32" r="20" fill="#FAA61A"/>
<path d="M85.2629 29.6879H83.2058C82.977 28.7741 82.6161 27.9132 82.144 27.126L83.599 25.6709C83.887 25.3831 83.887 24.9163 83.599 24.6284L81.3717 22.4011C81.0838 22.1131 80.617 22.1131 80.3292 22.4011L78.8741 23.8561C78.087 23.3839 77.2259 23.023 76.3122 22.7943V20.7372C76.3122 20.3301 75.9822 20 75.575 20H72.4251C72.0179 20 71.6879 20.3301 71.6879 20.7372V22.7943C70.7742 23.0231 69.9131 23.384 69.126 23.8561L67.6709 22.4011C67.3831 22.1131 66.9163 22.1131 66.6284 22.4011L64.4011 24.6284C64.1132 24.9163 64.1132 25.3831 64.4011 25.6709L65.8561 27.126C65.3839 27.9131 65.023 28.7741 64.7943 29.6879H62.7372C62.3301 29.6879 62 30.0179 62 30.4251V33.575C62 33.9822 62.3301 34.3122 62.7372 34.3122H64.7943C65.0231 35.226 65.384 36.087 65.8561 36.8741L64.4011 38.3291C64.1132 38.617 64.1132 39.0837 64.4011 39.3716L66.6284 41.5989C66.9163 41.8869 67.3831 41.8869 67.6709 41.5989L69.126 40.1439C69.9131 40.6161 70.7742 40.977 71.6879 41.2057V43.2628C71.6879 43.6699 72.0179 44 72.4251 44H75.575C75.9822 44 76.3122 43.6699 76.3122 43.2628V41.2057C77.2259 40.9769 78.087 40.616 78.8741 40.1439L80.3292 41.5989C80.617 41.8869 81.0838 41.8869 81.3717 41.5989L83.599 39.3716C83.887 39.0837 83.887 38.6169 83.599 38.3291L82.144 36.8741C82.6162 36.087 82.9771 35.2259 83.2058 34.3122H85.2629C85.67 34.3122 86.0001 33.9822 86.0001 33.575V30.4251C86.0001 30.0179 85.67 29.6879 85.2629 29.6879ZM74.0002 35.7963C71.9036 35.7963 70.2039 34.0967 70.2039 32C70.2039 29.9034 71.9035 28.2037 74.0002 28.2037C76.0968 28.2037 77.7965 29.9033 77.7965 32C77.7964 34.0967 76.0968 35.7963 74.0002 35.7963Z" fill="white"/>
</svg>
