<svg width="96" height="96" viewBox="0 0 96 96" fill="none" xmlns="http://www.w3.org/2000/svg">
<path d="M72.4443 24.1765C72.4443 20.7653 69.7511 18 66.4287 18H10.0156C6.69326 18 4 20.7653 4 24.1765V36.5294L5.3368 37.902H71.1075C71.6295 37.366 71.9223 37.0654 72.4443 36.5294V24.1765Z" fill="#0C152A"/>
<path d="M30.2015 30.353C31.3089 30.353 32.2067 29.4312 32.2067 28.2942C32.2067 27.1571 31.3089 26.2354 30.2015 26.2354C29.094 26.2354 28.1963 27.1571 28.1963 28.2942C28.1963 29.4312 29.094 30.353 30.2015 30.353Z" fill="#ED145B"/>
<path d="M22.181 30.353C23.2884 30.353 24.1862 29.4312 24.1862 28.2942C24.1862 27.1571 23.2884 26.2354 22.181 26.2354C21.0735 26.2354 20.1758 27.1571 20.1758 28.2942C20.1758 29.4312 21.0735 30.353 22.181 30.353Z" fill="#FAA61A"/>
<path d="M14.1595 30.353C15.2669 30.353 16.1647 29.4312 16.1647 28.2942C16.1647 27.1571 15.2669 26.2354 14.1595 26.2354C13.0521 26.2354 12.1543 27.1571 12.1543 28.2942C12.1543 29.4312 13.0521 30.353 14.1595 30.353Z" fill="#37D742"/>
<path d="M4 36.5293V81.8234C4 85.2291 6.69861 87.9999 10.0156 87.9999H66.4287C69.7457 87.9999 72.4443 85.2291 72.4443 81.8234V36.5293H4Z" fill="#00AEEF"/>
<path d="M45.0281 44.9311C44.0102 44.4833 42.8313 44.9674 42.3951 46.0124L30.3639 74.836C29.9275 75.881 30.3991 77.0915 31.417 77.5393C32.4352 77.9873 33.6139 77.5028 34.05 76.458L46.0812 47.6345C46.5175 46.5893 46.0459 45.379 45.0281 44.9311Z" fill="white"/>
<path d="M27.4434 67.8631L19.3748 61.2355L27.4434 54.6079C28.3084 53.8976 28.4485 52.602 27.7567 51.7141C27.0647 50.8262 25.8027 50.6824 24.9383 51.3927L14.9123 59.628C13.9098 60.4511 13.9091 62.0195 14.9123 62.8433L24.9383 71.0786C25.8031 71.789 27.0651 71.6449 27.7567 70.7571C28.4485 69.869 28.3084 68.5734 27.4434 67.8631Z" fill="white"/>
<path d="M61.532 59.6275L51.5059 51.3922C50.6411 50.6818 49.3792 50.8258 48.6875 51.7137C47.9957 52.6016 48.1358 53.8973 49.0008 54.6074L57.0694 61.2352L49.0008 67.8628C48.1358 68.5731 47.9957 69.8687 48.6875 70.7566C49.3803 71.6454 50.6423 71.7876 51.5059 71.078L61.532 62.8427C62.5344 62.0196 62.5351 60.4513 61.532 59.6275Z" fill="white"/>
<path d="M91.9998 17.7467C91.9968 18.5237 91.7614 19.2967 91.3007 19.9345L91.2893 19.9504L75.097 41.6101C74.7762 42.0516 74.3743 42.3991 73.9219 42.6365C73.7387 42.7327 73.546 42.8104 73.3481 42.8694C73.0578 42.9551 72.7546 43 72.4443 43C72.1363 43 71.8356 42.9561 71.5473 42.871C70.8583 42.6688 70.2439 42.2331 69.7916 41.6101L53.5879 19.9345C53.1272 19.2967 52.8926 18.5237 52.8888 17.7467C52.8843 17.0969 53.0424 16.4449 53.3665 15.8682L56.437 9.74201L56.454 9.71221C57.0705 8.64027 58.1402 8 59.3153 8H85.5736C86.7487 8 87.8181 8.64027 88.4349 9.71221L88.4668 9.77212L91.5215 15.8682C91.8455 16.4449 92.0037 17.0969 91.9998 17.7467Z" fill="#C60B56"/>
<path d="M91.9999 17.7467C91.9969 18.5237 91.7614 19.2967 91.3007 19.9345L91.2894 19.9504L75.0971 41.6101C74.7763 42.0516 74.3743 42.3991 73.922 42.6365C73.7388 42.7327 73.546 42.8104 73.3482 42.8694C73.0578 42.9551 72.7547 43 72.4443 43V8H85.5737C86.7487 8 87.8185 8.64027 88.435 9.71221L88.4669 9.77212L91.5215 15.8682C91.8456 16.4449 92.0037 17.0969 91.9999 17.7467Z" fill="#ED145B"/>
<path d="M91.9998 17.7467H52.8888C52.8843 17.0969 53.0424 16.4449 53.3665 15.8682L56.437 9.74201L56.454 9.71221C57.0705 8.64027 58.1402 8 59.3153 8H85.5736C86.7487 8 87.8181 8.64027 88.4349 9.71221L88.4668 9.77212L91.5215 15.8682C91.8455 16.4449 92.0037 17.0969 91.9998 17.7467Z" fill="#ED145B"/>
<path d="M91.9999 17.7467H72.4443V8H85.5737C86.7487 8 87.8182 8.64027 88.435 9.71221L88.4669 9.77212L91.5215 15.8682C91.8456 16.4449 92.0037 17.0969 91.9999 17.7467Z" fill="#FF4A85"/>
<path d="M81.1541 17.7467L73.3478 42.8694C73.0575 42.9551 72.7543 43 72.444 43C72.136 43 71.8349 42.9561 71.547 42.871L63.8105 17.7467L72.444 8L81.1541 17.7467Z" fill="#ED145B"/>
<path d="M81.1544 17.7467L73.3482 42.8694C73.0578 42.9551 72.7547 43 72.4443 43V8L81.1544 17.7467Z" fill="#FF4A85"/>
<path d="M81.1541 17.7467H63.8105L72.444 8L81.1541 17.7467Z" fill="#FF4A85"/>
<path d="M81.1544 17.7467H72.4443V8L81.1544 17.7467Z" fill="#ED145B"/>
</svg>
