<svg width="96" height="96" viewBox="0 0 96 96" fill="none" xmlns="http://www.w3.org/2000/svg">
<path d="M76.0005 43.2199V81.2643C76.0005 83.0507 75.3324 84.764 74.1432 86.0272C72.9541 87.2904 71.3412 88 69.6595 88H12.5391V43.2199C12.5391 41.4334 13.2071 39.7202 14.3963 38.457C15.5855 37.1938 17.1983 36.4841 18.88 36.4841H69.6595C71.3412 36.4841 72.9541 37.1938 74.1432 38.457C75.3324 39.7202 76.0005 41.4334 76.0005 43.2199Z" fill="#00AEEF"/>
<path d="M32.4659 26.478L40.1519 36.4841H18.8796C17.1979 36.4841 15.585 37.1938 14.3958 38.457C13.2067 39.7202 12.5386 41.4334 12.5386 43.2199V88H10.341C8.65924 88 7.04639 87.2903 5.85723 86.0271C4.66806 84.764 4 83.0507 4 81.2643V30.7357C4 28.9493 4.66806 27.236 5.85723 25.9728C7.04639 24.7097 8.65924 24 10.341 24H27.5534C28.494 24.0001 29.4228 24.2225 30.2725 24.6511C31.1222 25.0797 31.8714 25.7037 32.4659 26.478Z" fill="#0094DE"/>
<path d="M77.9412 56H58.0588L44 41.9412V22.0588L58.0588 8H77.9412L92 22.0588V41.9412L77.9412 56Z" fill="#FAA61A"/>
<path d="M73.5746 23.3626C73.4223 23.3625 73.2733 23.317 73.1455 23.2315C73.0177 23.1459 72.9164 23.024 72.8539 22.8803C72.7914 22.7366 72.7703 22.5773 72.7931 22.4216C72.816 22.2658 72.8818 22.1202 72.9827 22.0022L75.937 18.5465C76.0759 18.384 76.2716 18.2853 76.4809 18.272C76.6901 18.2588 76.8959 18.3321 77.053 18.476C77.21 18.6198 77.3054 18.8222 77.3182 19.0388C77.331 19.2554 77.2601 19.4684 77.1212 19.6309L74.1665 23.0864C74.0924 23.1733 74.0013 23.2429 73.8993 23.2905C73.7972 23.3381 73.6865 23.3627 73.5746 23.3626Z" fill="white"/>
<path d="M62.6482 23.1007C62.5361 23.101 62.4252 23.0765 62.3229 23.0288C62.2207 22.9812 62.1294 22.9116 62.0552 22.8246L59.1024 19.369C59.0319 19.2888 58.9775 19.1949 58.9423 19.0927C58.9072 18.9906 58.892 18.8822 58.8976 18.7739C58.9033 18.6657 58.9297 18.5596 58.9753 18.462C59.0209 18.3644 59.0848 18.2771 59.1633 18.2053C59.2418 18.1335 59.3333 18.0785 59.4325 18.0436C59.5317 18.0087 59.6366 17.9945 59.7411 18.0019C59.8456 18.0093 59.9477 18.0382 60.0413 18.0868C60.135 18.1353 60.2184 18.2027 60.2867 18.285L63.2395 21.7405C63.3404 21.8585 63.4062 22.0041 63.429 22.1598C63.4518 22.3156 63.4307 22.4749 63.3682 22.6185C63.3057 22.7621 63.2045 22.8841 63.0766 22.9696C62.9488 23.0551 62.7999 23.1007 62.6476 23.1007H62.6482Z" fill="white"/>
<path d="M59.6527 31.3646H57.4074C56.5039 31.3634 55.6377 30.9913 54.9989 30.3299C54.3601 29.6685 54.0008 28.7719 54 27.8367V27.5067C54 27.2897 54.0833 27.0816 54.2316 26.9281C54.3798 26.7747 54.5809 26.6885 54.7906 26.6885C55.0003 26.6885 55.2014 26.7747 55.3496 26.9281C55.4979 27.0816 55.5812 27.2897 55.5812 27.5067V27.8367C55.5816 28.338 55.774 28.8187 56.1164 29.1733C56.4588 29.5279 56.9231 29.7274 57.4074 29.7282H59.6527C59.8624 29.7282 60.0635 29.8144 60.2117 29.9678C60.36 30.1213 60.4433 30.3294 60.4433 30.5464C60.4433 30.7634 60.36 30.9715 60.2117 31.125C60.0635 31.2784 59.8624 31.3646 59.6527 31.3646Z" fill="white"/>
<path d="M80.6717 39.3109C80.462 39.3109 80.2609 39.2247 80.1126 39.0712C79.9644 38.9178 79.8811 38.7097 79.8811 38.4927V37.5831C79.8805 37.0816 79.6878 36.6008 79.3452 36.2463C79.0026 35.8917 78.538 35.6922 78.0535 35.6916H76.3814C76.1717 35.6916 75.9706 35.6054 75.8224 35.452C75.6741 35.2985 75.5908 35.0904 75.5908 34.8734C75.5908 34.6564 75.6741 34.4483 75.8224 34.2948C75.9706 34.1414 76.1717 34.0552 76.3814 34.0552H78.0535C78.9572 34.0563 79.8237 34.4283 80.4627 35.0897C81.1017 35.751 81.4612 36.6478 81.4623 37.5831V38.4927C81.4623 38.7097 81.379 38.9178 81.2307 39.0712C81.0824 39.2247 80.8813 39.3109 80.6717 39.3109Z" fill="white"/>
<path d="M78.9989 45.9998C78.7892 45.9998 78.5881 45.9136 78.4398 45.7602C78.2916 45.6067 78.2083 45.3986 78.2083 45.1816V44.0729C78.2078 43.5718 78.0152 43.0914 77.6728 42.737C77.3304 42.3827 76.8662 42.1834 76.382 42.1828H75.6402C75.4305 42.1828 75.2294 42.0966 75.0812 41.9432C74.9329 41.7897 74.8496 41.5816 74.8496 41.3646C74.8496 41.1476 74.9329 40.9395 75.0812 40.786C75.2294 40.6326 75.4305 40.5464 75.6402 40.5464H76.382C77.2854 40.5474 78.1515 40.9193 78.7903 41.5804C79.4291 42.2416 79.7885 43.138 79.7895 44.0729V45.1816C79.7895 45.3986 79.7062 45.6067 79.5579 45.7602C79.4096 45.9136 79.2086 45.9998 78.9989 45.9998Z" fill="white"/>
<path d="M78.5929 31.3646H76.4556C76.246 31.3646 76.0449 31.2784 75.8966 31.125C75.7483 30.9715 75.665 30.7634 75.665 30.5464C75.665 30.3294 75.7483 30.1213 75.8966 29.9678C76.0449 29.8144 76.246 29.7282 76.4556 29.7282H78.5929C79.0772 29.7274 79.5415 29.5279 79.8839 29.1733C80.2262 28.8187 80.4187 28.338 80.4191 27.8367V27.5067C80.4191 27.2897 80.5024 27.0816 80.6507 26.9281C80.7989 26.7747 81 26.6885 81.2097 26.6885C81.4194 26.6885 81.6205 26.7747 81.7687 26.9281C81.917 27.0816 82.0003 27.2897 82.0003 27.5067V27.8367C81.9995 28.7719 81.6402 29.6685 81.0014 30.3299C80.3626 30.9913 79.4964 31.3634 78.5929 31.3646Z" fill="white"/>
<path d="M55.4859 39.3111C55.2762 39.3111 55.0751 39.2249 54.9269 39.0714C54.7786 38.918 54.6953 38.7098 54.6953 38.4928V37.4932C54.6961 36.5581 55.0554 35.6615 55.6942 35.0001C56.333 34.3387 57.1992 33.9666 58.1027 33.9653H59.6009C59.8106 33.9653 60.0117 34.0515 60.1599 34.205C60.3082 34.3584 60.3915 34.5665 60.3915 34.7836C60.3915 35.0006 60.3082 35.2087 60.1599 35.3621C60.0117 35.5156 59.8106 35.6018 59.6009 35.6018H58.1027C57.6184 35.6025 57.1541 35.8021 56.8117 36.1567C56.4694 36.5113 56.2769 36.9919 56.2765 37.4932V38.4928C56.2765 38.7098 56.1932 38.918 56.0449 39.0714C55.8967 39.2249 55.6956 39.3111 55.4859 39.3111Z" fill="white"/>
<path d="M57.2457 45.9997C57.036 45.9997 56.8349 45.9135 56.6866 45.76C56.5384 45.6066 56.4551 45.3985 56.4551 45.1815V44.1628C56.4563 43.2276 56.8158 42.3311 57.4549 41.67C58.0939 41.0089 58.9603 40.6371 59.8638 40.6362H60.4818C60.6915 40.6362 60.8926 40.7224 61.0408 40.8759C61.1891 41.0293 61.2724 41.2374 61.2724 41.4545C61.2724 41.6715 61.1891 41.8796 61.0408 42.033C60.8926 42.1865 60.6915 42.2727 60.4818 42.2727H59.8638C59.3795 42.2731 58.915 42.4723 58.5724 42.8266C58.2298 43.181 58.037 43.6615 58.0363 44.1628V45.1815C58.0363 45.3985 57.953 45.6066 57.8047 45.76C57.6564 45.9135 57.4553 45.9997 57.2457 45.9997Z" fill="white"/>
<path d="M74.7558 26.4853C75.2051 26.5049 75.6296 26.7034 75.9407 27.0394C76.2518 27.3753 76.4254 27.8227 76.4253 28.2881V37.8395C76.4251 39.8616 75.6489 41.8008 74.2674 43.2306C72.8859 44.6605 71.0121 45.4638 69.0583 45.4639H68.0068V26.4825H74.6807C74.7058 26.4821 74.7309 26.483 74.7558 26.4853Z" fill="white"/>
<path d="M74.7559 26.4855C74.731 26.4833 74.7059 26.4823 74.6808 26.4828H61.3686C61.3555 26.4828 61.3423 26.4828 61.3291 26.4842C61.3303 25.2007 61.6753 23.9427 62.3257 22.8499C62.976 21.7571 63.9064 20.8723 65.0134 20.2937C66.1203 19.7152 67.3606 19.4655 68.5964 19.5725C69.8322 19.6795 71.0152 20.1389 72.0139 20.8998C72.2886 21.1072 72.5472 21.3365 72.7874 21.5857C73.4107 22.2284 73.9054 22.9919 74.2432 23.8327C74.581 24.6735 74.7552 25.575 74.7559 26.4855Z" fill="white"/>
<path d="M61.3284 26.484C61.3416 26.4827 61.3548 26.4827 61.368 26.4827H68.0063V45.4641H66.989C65.0353 45.4637 63.1617 44.6603 61.7802 43.2305C60.3987 41.8007 59.6225 39.8616 59.6221 37.8396V28.2882C59.6221 27.8163 59.8007 27.3632 60.1197 27.0259C60.4387 26.6887 60.8726 26.4942 61.3284 26.484Z" fill="white"/>
<rect x="49" y="17" width="5" height="48" transform="rotate(-45 49 17)" fill="#ED145B"/>
</svg>
