<svg width="16" height="16" viewBox="0 0 16 16" fill="none" xmlns="http://www.w3.org/2000/svg"><path d="M8 16C12.4183 16 16 12.4183 16 8C16 3.58172 12.4183 0 8 0C3.58172 0 0 3.58172 0 8C0 12.4183 3.58172 16 8 16Z" fill="#0C152A"/><path d="M11.2499 4.81268C11.9686 4.84393 12.4686 5.81269 11.9374 6.40644L11.9061 6.43769L7.65611 10.6877C7.53111 10.8127 7.46861 10.8439 7.37486 10.8752C7.06236 11.0314 6.65611 10.9689 6.37486 10.7502C6.34361 10.7189 6.34361 10.719 6.31236 10.6877L4.06236 8.43769C3.62486 8.00019 3.78111 7.15644 4.31236 6.90644C4.65611 6.75019 5.12486 6.81269 5.40611 7.09394L6.96861 8.65645L10.5311 5.09393C10.5311 5.09393 10.9374 4.81268 11.2499 4.81268Z" fill="white"/></svg>