<svg width="96" height="97" viewBox="0 0 96 97" fill="none" xmlns="http://www.w3.org/2000/svg">
<path d="M6 80.4229V77.9619H35.5312V80.4229C35.5312 84.4937 32.2192 87.8057 28.1484 87.8057H13.3828C9.31201 87.8057 6 84.4937 6 80.4229Z" fill="#00AEEF"/>
<path d="M35.5312 53.3525H6V73.04H35.5312V53.3525Z" fill="#00AEEF"/>
<path d="M6 45.9697C6 41.8989 9.31201 38.5869 13.3828 38.5869H28.1484C32.2192 38.5869 35.5312 41.8989 35.5312 45.9697V48.4307H6V45.9697Z" fill="#00AEEF"/>
<path fill-rule="evenodd" clip-rule="evenodd" d="M28.1484 33.665C34.9327 33.665 40.4531 39.1855 40.4531 45.9697V58.2744H90V16.4385C90 12.3677 86.688 9.05566 82.6172 9.05566H13.3828C9.31201 9.05566 6 12.3677 6 16.4385V36.1888C8.06296 34.627 10.6021 33.665 13.3828 33.665H28.1484ZM49 33.2345C49 25.0724 55.631 18.4307 63.7818 18.4307C71.932 18.4307 78.563 25.0724 78.563 33.2345C78.563 41.396 71.932 48.0377 63.7818 48.0377C55.631 48.0377 49 41.396 49 33.2345ZM62.6859 39.4202L72.2595 29.8378C73.203 28.893 73.2024 27.3618 72.2576 26.4177C71.3128 25.4736 69.7817 25.4742 68.8376 26.419L59.8371 35.427L57.285 32.8755C56.3408 31.9307 54.809 31.9307 53.8649 32.8755C52.9201 33.8196 52.9201 35.3514 53.8649 36.2955L56.9902 39.4215C57.7504 40.1817 58.7619 40.6005 59.8371 40.6005H59.8383C60.9141 40.6005 61.925 40.1811 62.6859 39.4202Z" fill="#00AEEF"/>
<path d="M82.6172 73.04H40.4531V63.1963H90V65.6572C90 69.728 86.688 73.04 82.6172 73.04Z" fill="#00AEEF"/>
<path d="M40.4531 80.4229V77.9619H62.8976L64.5383 82.8838H72.6094C73.9693 82.8838 75.0703 83.9848 75.0703 85.3447C75.0703 86.7047 73.9693 87.8057 72.6094 87.8057H37.9294C39.4912 85.7427 40.4531 83.2036 40.4531 80.4229Z" fill="#00AEEF"/>
</svg>
