<svg width="96" height="97" viewBox="0 0 96 97" fill="none" xmlns="http://www.w3.org/2000/svg">
<g clip-path="url(#clip0)">
<path d="M72.6094 82.8838H64.5383L62.8976 77.9619H33.1024L31.4617 82.8838H23.3906C22.0307 82.8838 20.9297 83.9848 20.9297 85.3447C20.9297 86.7047 22.0307 87.8057 23.3906 87.8057H72.6094C73.9693 87.8057 75.0703 86.7047 75.0703 85.3447C75.0703 83.9848 73.9693 82.8838 72.6094 82.8838Z" fill="#00AEEF"/>
<path d="M72.6094 23.8213C71.2514 23.8213 70.1484 24.9242 70.1484 26.2822C70.1484 27.6402 71.2514 28.7432 72.6094 28.7432C73.9674 28.7432 75.0703 27.6402 75.0703 26.2822C75.0703 24.9242 73.9674 23.8213 72.6094 23.8213Z" fill="#00AEEF"/>
<path d="M82.4531 9.05566H13.3828C9.31201 9.05566 6 12.3677 6 16.4385V58.2744H20.9297V50.8916C20.9297 49.5317 22.0307 48.4307 23.3906 48.4307H27.1929C27.4473 47.7148 27.7383 47.0124 28.0677 46.3228L25.378 43.6312C24.4167 42.6699 24.4167 41.1126 25.378 40.1513L32.3378 33.1914C33.2991 32.2301 34.8564 32.2301 35.8177 33.1914L38.5094 35.8831C39.1989 35.5537 39.9007 35.2608 40.6172 35.0057V31.2041C40.6172 29.8442 41.7182 28.7432 43.0781 28.7432H52.9219C54.2818 28.7432 55.3828 29.8442 55.3828 31.2041V35.0064C56.0987 35.2608 56.8011 35.5543 57.4906 35.8831L60.1823 33.1914C61.1436 32.2308 62.7009 32.2308 63.6622 33.1914L70.622 40.1513C71.5833 41.1126 71.5833 42.6705 70.622 43.6312L67.9323 46.3228C68.2617 47.0131 68.5527 47.7148 68.8071 48.4307H72.6094C73.9693 48.4307 75.0703 49.5317 75.0703 50.8916V58.2744H90V16.4385C90 12.3677 86.5239 9.05566 82.4531 9.05566ZM72.6094 33.665C68.5386 33.665 65.2266 30.353 65.2266 26.2822C65.2266 22.2114 68.5386 18.8994 72.6094 18.8994C76.6802 18.8994 79.9922 22.2114 79.9922 26.2822C79.9922 30.353 76.6802 33.665 72.6094 33.665Z" fill="#00AEEF"/>
<path d="M40.6172 55.8135C40.6172 56.6639 40.8133 57.4842 41.0946 58.2744H54.9054C55.1867 57.4842 55.3828 56.6639 55.3828 55.8135C55.3828 51.7427 52.0708 48.4307 48 48.4307C43.9286 48.4307 40.6172 51.7427 40.6172 55.8135Z" fill="#00AEEF"/>
<path d="M31.3932 51.5068C31.1125 52.5931 30.1319 53.3525 29.0091 53.3525H25.8516V58.2744H36.019C35.8536 57.4637 35.6953 56.6492 35.6953 55.8135C35.6953 49.0292 41.2158 43.5088 48 43.5088C54.7842 43.5088 60.3047 49.0292 60.3047 55.8135C60.3047 56.6492 60.1464 57.4637 59.981 58.2744H70.1484V53.3525H66.9909C65.8681 53.3525 64.8875 52.5931 64.6068 51.5068C64.2146 49.9809 63.602 48.505 62.7849 47.1207C62.2151 46.1549 62.3715 44.9245 63.1642 44.1311L65.4022 41.8912L61.9222 38.4113L59.6824 40.6512C58.889 41.4471 57.656 41.6054 56.6902 41.0286C55.3085 40.2141 53.8351 39.5988 52.3066 39.2066C51.2204 38.9259 50.4609 37.9454 50.4609 36.8226V33.665H45.5391V36.8226C45.5391 37.9454 44.7796 38.9259 43.6934 39.2066C42.1649 39.5988 40.6915 40.2141 39.3098 41.0286C38.3485 41.6054 37.1129 41.4471 36.3176 40.6512L34.0778 38.4113L30.5978 41.8912L32.8358 44.1311C33.6285 44.9245 33.7849 46.1549 33.2151 47.1207C32.398 48.505 31.7854 49.9809 31.3932 51.5068Z" fill="#00AEEF"/>
<path d="M6 65.6572C6 69.728 9.31201 73.04 13.3828 73.04H82.4531C86.5239 73.04 90 69.728 90 65.6572V63.1963H6V65.6572Z" fill="#00AEEF"/>
</g>
<defs>
<clipPath id="clip0">
<rect x="6" y="6.43066" width="84" height="84" fill="white"/>
</clipPath>
</defs>
</svg>
