<svg width="96" height="97" viewBox="0 0 96 97" fill="none" xmlns="http://www.w3.org/2000/svg">
<g clip-path="url(#clip0)">
<path d="M29.0521 43.0178H6.34535C6.11763 44.7989 6 46.6058 6 48.4307C6 50.2557 6.11763 52.0625 6.34535 53.8436H29.0521C28.5599 52.1231 28.2959 50.3071 28.2959 48.4307C28.2959 46.5543 28.5599 44.7383 29.0521 43.0178Z" fill="#00AEEF"/>
<path d="M47.9998 68.1348C46.1233 68.1348 44.3074 67.8708 42.5869 67.3786V90.085C44.368 90.3128 46.175 90.4304 47.9998 90.4304C49.8249 90.4304 51.6317 90.3128 53.4127 90.085V67.3786C51.6922 67.8708 49.8762 68.1348 47.9998 68.1348Z" fill="#00AEEF"/>
<path d="M90 24.5881C90 14.5762 81.8547 6.43066 71.8426 6.43066C68.529 6.43066 65.3347 7.31595 62.5245 9.00136C61.1539 8.49736 59.7564 8.06341 58.3351 7.70543V31.6618H58.335C60.9462 33.277 63.1535 35.4845 64.7688 38.0957H88.7253C88.3673 36.6744 87.9333 35.2768 87.4293 33.9062C89.1146 31.0958 90 27.9015 90 24.5881ZM84.6593 27.8989C82.7942 24.5807 80.4637 21.4972 77.6985 18.7321C74.9333 15.967 71.8498 13.6365 68.5316 11.7714C69.6029 11.4959 70.7128 11.3527 71.8426 11.3527C79.1406 11.3527 85.078 17.2901 85.078 24.588C85.078 25.7177 84.9348 26.8274 84.6593 27.8989Z" fill="#00AEEF"/>
<path d="M47.9998 6.43066C46.1746 6.43066 44.368 6.5483 42.5869 6.77602V29.4828C44.3074 28.9906 46.1234 28.7266 47.9998 28.7266C49.8762 28.7266 51.6922 28.9906 53.4127 29.4828V6.77634C51.6318 6.54863 49.8249 6.43066 47.9998 6.43066Z" fill="#00AEEF"/>
<path d="M33.4755 9.00152C30.6653 7.31627 27.471 6.43066 24.1575 6.43066C14.1454 6.43066 6 14.5762 6 24.5881C6 27.9015 6.88528 31.0958 8.57086 33.906C8.06686 35.2766 7.63291 36.6743 7.27493 38.0955H31.2312C32.8464 35.4843 35.0538 33.277 37.665 31.6617V7.70559C36.2434 8.06358 34.846 8.49752 33.4755 9.00152ZM18.3016 18.7322C15.5365 21.4973 13.2058 24.5809 11.3407 27.8991C11.0653 26.8277 10.922 25.7179 10.922 24.5883C10.922 17.2903 16.8595 11.3529 24.1575 11.3529C25.287 11.3529 26.3969 11.4961 27.4684 11.7716C24.1502 13.6365 21.0667 15.9671 18.3016 18.7322Z" fill="#00AEEF"/>
<path d="M31.231 58.766H7.27477C7.63275 60.1872 8.0667 61.5849 8.5707 62.9555C6.88528 65.7657 6 68.9598 6 72.2734C6 82.2853 14.1454 90.4307 24.1575 90.4307C27.471 90.4307 30.6653 89.5454 33.4755 87.86C34.8461 88.364 36.2436 88.7979 37.6649 89.1559V65.1998C35.0537 63.5845 32.8462 61.3772 31.231 58.766ZM24.1575 85.5085C16.8595 85.5085 10.922 79.5712 10.922 72.2732C10.922 71.1437 11.0653 70.0338 11.3407 68.9623C13.2056 72.2804 15.5363 75.364 18.3016 78.1291C21.0667 80.8942 24.1502 83.2247 27.4682 85.0898C26.3969 85.3654 25.287 85.5085 24.1575 85.5085Z" fill="#00AEEF"/>
<path d="M89.6548 43.0178H66.9482C67.4404 44.7383 67.7044 46.5543 67.7044 48.4307C67.7044 50.3071 67.4404 52.1231 66.9482 53.8436H89.6548C89.8825 52.0625 90.0002 50.2556 90.0002 48.4307C90.0002 46.6058 89.8825 44.7989 89.6548 43.0178Z" fill="#00AEEF"/>
<path d="M87.429 62.9553C87.933 61.5847 88.3669 60.1871 88.7249 58.7658H64.7688C63.1536 61.377 60.9462 63.5843 58.335 65.1997V89.1559C59.7562 88.7979 61.1539 88.364 62.5243 87.86C65.3345 89.5454 68.5287 90.4307 71.8424 90.4307C81.8545 90.4303 89.9998 82.285 89.9998 72.2732C89.9998 68.9598 89.1146 65.7655 87.429 62.9553ZM71.8424 85.5085C70.7128 85.5085 69.6029 85.3652 68.5314 85.0898C71.8496 83.2249 74.9332 80.8942 77.6981 78.1291C80.4631 75.364 82.7939 72.2804 84.659 68.9623C84.9344 70.0336 85.0776 71.1435 85.0776 72.2732C85.0778 79.5714 79.1404 85.5085 71.8424 85.5085Z" fill="#00AEEF"/>
</g>
<defs>
<clipPath id="clip0">
<rect x="6" y="6.43066" width="84" height="84" fill="white"/>
</clipPath>
</defs>
</svg>
