<svg width="96" height="97" viewBox="0 0 96 97" fill="none" xmlns="http://www.w3.org/2000/svg">
<g clip-path="url(#clip0)">
<path d="M40.4504 71.9458C45.9383 69.1881 47.2737 68.5168 47.5212 68.3925C47.46 68.4228 47.3844 68.4609 47.5677 68.3687L28.0671 48.8681C28.0647 48.8728 28.0564 48.8895 28.0421 48.918C28.0486 48.905 28.054 48.8931 28.0593 48.8835C28.0183 48.9657 28.007 48.9877 28.0117 48.9781C27.8326 49.3352 27.0947 50.8027 24.4906 55.9854C24.0395 56.8667 24.2091 57.9379 24.9101 58.6389L37.7974 71.5262C38.5002 72.229 39.5714 72.3945 40.4504 71.9458Z" fill="#00AEEF"/>
<path d="M47.5679 68.3687C47.5631 68.371 47.5489 68.3788 47.5215 68.3925C47.5512 68.377 47.578 68.3639 47.5679 68.3687Z" fill="#00AEEF"/>
<path d="M28.0117 48.9781C28.0218 48.9585 28.0349 48.9317 28.0421 48.918C28.029 48.9448 28.0159 48.9704 28.0117 48.9781Z" fill="#00AEEF"/>
<path d="M83.3864 27.537L86.0287 27.5798C86.8183 22.8423 87.1456 17.634 86.9391 11.6992C86.8993 10.5006 85.9352 9.5366 84.7367 9.49673C78.8019 9.27952 73.593 9.60384 68.8555 10.3935L68.8995 13.0494C69.0286 21.0427 75.3932 27.4072 83.3864 27.537Z" fill="#00AEEF"/>
<path d="M53.9965 32.7857C51.3228 35.4588 51.3228 39.8084 53.9965 42.4815C56.5852 45.0702 61.1019 45.0702 63.6906 42.4815C66.3643 39.8084 66.3643 35.4588 63.6906 32.7857C62.3963 31.4913 60.6758 30.779 58.8436 30.779C57.0113 30.779 55.2909 31.4913 53.9965 32.7857Z" fill="#00AEEF"/>
<path d="M64.3006 11.3558C56.4127 13.4029 50.0339 17.1193 44.4864 22.8637C39.027 28.5201 34.2966 36.7758 30.25 44.5876L51.8489 66.187C59.6607 62.1404 67.9164 57.4094 73.5728 51.9506C79.3184 46.4032 83.024 40.0232 85.0682 32.1358L83.3114 32.1073C72.8384 31.9353 64.5012 23.598 64.3298 13.125L64.3006 11.3558ZM47.4934 52.175C46.6008 53.0676 45.1541 53.0676 44.2615 52.175C43.3694 51.2823 43.3694 49.8357 44.2615 48.943C45.1541 48.0504 46.6008 48.0504 47.4934 48.943C48.386 49.8357 48.386 51.2823 47.4934 52.175ZM66.9226 45.7135C64.6958 47.9403 61.7697 49.0537 58.8442 49.0537C55.9187 49.0537 52.9933 47.9403 50.7658 45.7135C46.3116 41.2592 46.3116 34.0086 50.7658 29.5543C55.2201 25.1001 62.4683 25.1001 66.9226 29.5543C71.3769 34.0086 71.3769 41.2592 66.9226 45.7135Z" fill="#00AEEF"/>
<path d="M63.9838 64.6618C58.1103 68.2145 52.1659 71.1745 46.3477 74.0958C46.5809 77.1629 46.7958 79.9956 46.8243 80.3794C46.8249 82.0802 48.6221 83.1835 50.1408 82.4188C50.5579 82.0445 61.9605 77.6467 63.9838 64.6618Z" fill="#00AEEF"/>
<path d="M13.8168 46.0949C13.4597 46.8025 13.4931 47.6457 13.9108 48.3218C14.6475 49.5215 15.9002 49.3072 16.381 49.4019L22.4058 49.9583C25.3788 44.0389 28.3501 38.0832 31.9356 32.1888C18.5882 34.0419 14.1953 45.6724 13.8168 46.0949Z" fill="#00AEEF"/>
<path d="M9.66705 86.7588C10.2669 87.3616 11.1447 87.5735 11.9433 87.3349C17.852 85.5537 32.252 80.5615 36.5028 76.0936C35.7964 75.7603 35.1346 75.3259 34.5663 74.757L29.7586 69.9498L28.1411 71.5661C27.2485 72.4587 25.803 72.4587 24.9098 71.5661C24.0171 70.6734 24.0171 69.2274 24.9098 68.3347L26.5272 66.7185L21.6784 61.8696C21.1208 61.312 20.6923 60.6723 20.3638 59.9915C15.9137 64.2387 10.8852 78.6138 9.09814 84.4802C8.85475 85.2883 9.07136 86.1631 9.66705 86.7588Z" fill="#00AEEF"/>
</g>
<defs>
<clipPath id="clip0">
<rect x="9" y="9.43066" width="78" height="78" fill="white"/>
</clipPath>
</defs>
</svg>
