<svg width="96" height="97" viewBox="0 0 96 97" fill="none" xmlns="http://www.w3.org/2000/svg">
<g clip-path="url(#clip0)">
<path fill-rule="evenodd" clip-rule="evenodd" d="M29.4274 41.8582C28.7126 42.8293 27.9951 43.9368 27.4187 44.9965L19.2225 45.1539C17.5084 45.1984 16.1579 46.6107 16.176 48.2623C16.2006 49.1033 16.5064 49.8488 17.0629 50.4053C17.6194 50.9618 18.3958 51.2985 19.2686 51.2914L25.3762 51.182C24.4611 56.673 25.9442 62.3012 29.8708 66.2278L29.9326 66.2896C33.8593 70.2163 39.4251 71.6998 44.9475 70.7533L44.8378 76.8606C44.831 77.7331 45.1674 78.5098 45.7239 79.0663C46.2495 79.5919 47.0259 79.9286 47.8364 79.9226C49.5499 79.9405 50.9319 78.5585 50.9447 76.8761L51.1021 68.6799C52.1886 68.1304 53.2997 67.4164 54.251 66.6818L29.4274 41.8582ZM68.2942 58.0977L69.6923 58.0667C71.4061 58.0219 72.7571 56.6096 72.7385 54.958C72.7206 53.2445 71.3288 51.9155 69.6771 51.9595L63.1011 52.1663L62.9141 52.1678C62.7369 52.1713 62.5587 52.1766 62.3796 52.183L68.2942 58.0977ZM55.5117 45.3151L51.0182 40.8217C49.8708 38.5654 49.5951 35.9475 50.2528 33.5405C50.7335 31.823 51.5872 30.2273 52.9375 28.877C54.6332 27.1813 56.7599 26.1677 58.943 25.9015C58.7628 25.0305 58.6759 24.1899 58.6517 23.2864C58.6218 23.1309 58.6228 23.0062 58.6551 22.8502C58.8537 21.3531 60.1402 20.1902 61.6673 20.1472C62.4775 20.1409 63.2852 20.4462 63.8418 21.0027C64.4292 21.5902 64.7655 22.4289 64.7901 23.2699C64.9751 27.5372 68.6853 31.2474 72.9834 31.4633C73.8242 31.4876 74.5704 31.7314 75.1888 32.3498C75.7136 32.9374 76.0503 33.7137 76.0126 34.5553C76.0005 36.1133 74.8071 37.3692 73.3096 37.5675C73.1853 37.5688 73.0293 37.6012 72.9979 37.6326C72.0945 37.6084 71.2229 37.4905 70.3828 37.3413C70.0849 39.5555 69.103 41.6511 67.4073 43.3468C66.057 44.6971 64.4299 45.5822 62.7438 46.0315C60.3368 46.6892 57.7498 46.4444 55.5117 45.3151ZM43.978 33.7814L37.996 27.7994L38.0319 26.4063C38.045 24.7236 39.4267 23.3419 41.1402 23.3598C42.8229 23.3467 44.1833 24.7071 44.1388 26.4212L43.9938 33.0584L43.9924 33.2454C43.9888 33.4228 43.9839 33.6015 43.978 33.7814Z" fill="#00AEEF"/>
<rect x="17" y="23.4307" width="8" height="80" transform="rotate(-45 17 23.4307)" fill="#00AEEF"/>
<path d="M88 64.9993L64.5686 88.4307H31.4314L8 64.9993V31.8621L31.4314 8.43066H64.5686L88 31.8621V64.9993Z" stroke="#00AEEF" stroke-width="8"/>
</g>
<defs>
<clipPath id="clip0">
<path d="M0 0.430664H96V96.4307H0V0.430664Z" fill="white"/>
</clipPath>
</defs>
</svg>
