<svg width="64" height="64" viewBox="0 0 64 64" fill="none" xmlns="http://www.w3.org/2000/svg">
<g clip-path="url(#clip0_80_3526)">
<path d="M1.41463 6H56C57.1046 6 58 6.89543 58 8V46.3846C58 47.3077 57.3937 48 56.5854 48H1.41463C0.606272 48 0 47.3077 0 46.3846V7.5C0 6.69231 0.606272 6 1.41463 6Z" fill="#0C152A"/>
<path d="M41.1 58.9999H16.9V57.9999C16.9 56.6999 17.9 55.4999 19.2 55.2999L20.1 55.1999C22.1 54.8999 23.6 53.0999 23.6 51.0999V46.8999H34.6V51.0999C34.6 53.0999 36.1 54.7999 38.1 55.1999L39 55.2999C40.3 55.4999 41.3 56.6999 41.3 57.9999V58.9999H41.1Z" fill="#0094DE"/>
<path d="M0 41H58V46.5152C58 47.3636 57.3937 48 56.5854 48H1.41463C0.606272 48 0 47.3636 0 46.5152V41Z" fill="#00AEEF"/>
<path d="M44.397 34.6899L48.7605 38.9893C48.0827 39.0596 47.4241 39.3488 46.9059 39.8595C46.3876 40.3703 46.094 41.0191 46.0227 41.6869L41.6592 37.3876C42.1525 36.9854 42.6316 36.5579 43.0934 36.103C43.555 35.648 43.9887 35.1759 44.397 34.6899Z" fill="#F0F0F0"/>
<path d="M47.8864 45.3217L46.8044 44.2556C45.5444 43.0141 45.5444 41.0011 46.8044 39.7595C48.0644 38.518 50.1074 38.518 51.3674 39.7595L52.4494 40.8256L47.8864 45.3217Z" fill="#C60B56"/>
<path d="M60.8019 49.0554L61.8839 50.1215C63.144 51.3632 63.1439 53.376 61.8839 54.6175C60.6238 55.859 58.5809 55.8592 57.3208 54.6175L56.2388 53.5514L60.8019 49.0554Z" fill="#ED145B"/>
<path d="M47.6693 45.1189L52.2317 40.6235L60.9971 49.2603L56.4348 53.7557L47.6693 45.1189Z" fill="#ED145B"/>
<path d="M52.7431 45.6111C53.8229 44.5472 55.4538 44.3584 56.73 45.0433L52.2424 40.6216L47.6794 45.1177L52.167 49.5395C51.4718 48.2819 51.6633 46.675 52.7431 45.6111Z" fill="#ED145B"/>
<path d="M28.6166 42.1528C40.0028 42.1528 49.2331 33.058 49.2331 21.839C49.2331 10.6199 40.0028 1.52515 28.6166 1.52515C17.2304 1.52515 8.00012 10.6199 8.00012 21.839C8.00012 33.058 17.2304 42.1528 28.6166 42.1528Z" fill="#F0F0F0"/>
<path d="M14.0386 36.2028C22.0898 44.1358 35.1435 44.1358 43.1947 36.2028C46.2186 33.2233 48.1065 29.5485 48.8591 25.7009C48.7475 25.667 48.6245 25.6705 48.5107 25.7184C47.0583 26.3311 46.3973 25.4606 46.1382 24.9128C46.0363 24.6973 45.8026 24.5787 45.5644 24.6159C43.9751 24.8634 43.331 23.9762 43.1008 23.4872C43.0155 23.3058 42.8255 23.1932 42.6225 23.1974C37.0011 23.312 34.3818 20.1044 33.8263 19.3198C33.7438 19.2034 33.6181 19.1263 33.4756 19.1049C32.8263 19.0074 30.6791 18.8059 25.1285 19.1486C19.2128 19.5139 17.7982 14.7418 17.503 13.2643C17.4552 13.0255 17.2458 12.8571 16.999 12.8475C15.5878 12.7921 15.1931 11.7771 15.0835 11.1665C15.0396 10.9217 14.8183 10.7445 14.5662 10.7487C13.0002 10.7743 12.7031 9.71483 12.649 9.23314C12.6418 9.1702 12.6208 9.11133 12.5925 9.0564C6.02072 17.0343 6.5026 28.7775 14.0386 36.2028Z" fill="#DEDEDE"/>
<path d="M40.2674 33.0148C46.5336 26.8406 46.5336 16.8303 40.2674 10.6561C34.0012 4.48191 23.8417 4.48191 17.5755 10.6561C11.3093 16.8303 11.3093 26.8406 17.5755 33.0148C23.8417 39.189 34.0012 39.189 40.2674 33.0148Z" fill="#C60B56"/>
<path d="M26.9811 26.9564C27.5513 27.5422 26.421 28.1111 27.048 28.6786C28.2919 29.751 28.5789 29.9922 28.617 30.0345C28.6549 29.9923 28.9496 29.7444 30.186 28.6786C30.3725 28.5098 30.4289 28.2425 30.326 28.0145C30.2011 27.6845 30.0355 27.5238 30.1033 27.2322C30.1469 27.0395 30.2673 26.9425 30.3999 26.8036C31.2341 25.9267 32.1248 24.8164 32.5416 23.692V23.6919C32.6929 23.2844 32.7629 22.9588 32.7911 22.7081C32.5695 22.2212 32.4826 21.2946 32.4641 20.7634C31.3759 22.0124 30.144 22.8256 28.4746 22.775C26.9314 22.7285 25.7821 21.9259 24.7694 20.7634C24.7524 21.2491 24.6964 21.8383 24.5521 22.3982C24.5229 22.5116 24.4825 22.621 24.4333 22.7259C24.516 23.5027 24.9953 24.9164 26.9811 26.9564Z" fill="#EEAF5E"/>
<path fill-rule="evenodd" clip-rule="evenodd" d="M27.0565 27.935C26.9577 28.154 27.0117 28.4107 27.1909 28.5728L28.6166 29.5851L30.0422 28.5729C30.2214 28.4107 30.2754 28.1541 30.1766 27.9351L29.9957 27.534C29.9491 27.4308 29.9369 27.3191 29.9557 27.2125L31.8971 28.7542C32.2866 29.0636 32.794 28.9584 33.0186 28.5178C33.6015 27.3747 33.9409 26.2191 34.1781 24.7979C34.2612 24.2997 34.1484 23.7936 33.8702 23.38C34.2629 23.6231 35.0186 24.0829 35.9329 24.5998C37.4471 25.4559 39.3982 26.469 40.8671 26.9173L40.8671 26.9172C41.207 27.0209 41.5185 27.2022 41.7702 27.4499C42.2491 27.921 42.6152 28.4754 42.8955 29.0625C42.1631 30.4652 41.2236 31.7454 40.1175 32.8652L40.1175 32.8653C37.2021 35.8171 33.127 37.6512 28.6165 37.6512L28.5437 37.6509C24.0877 37.6314 20.0615 35.8217 17.1653 32.9151L17.1653 32.9151C16.0376 31.7835 15.081 30.4861 14.3378 29.0625C14.618 28.4754 14.984 27.921 15.463 27.4499C15.7137 27.2034 16.0233 27.0227 16.3613 26.9187L16.3661 26.9172C18.4255 26.2887 21.5452 24.5056 23.363 23.3799C23.0849 23.7935 22.9719 24.2996 23.0551 24.7978C23.2925 26.219 23.6317 27.3746 24.2146 28.5177C24.4392 28.9583 24.9465 29.0634 25.3361 28.7541L27.2774 27.2124C27.2962 27.3189 27.2839 27.4306 27.2374 27.5339L27.0565 27.935Z" fill="#F0F0F0"/>
<path fill-rule="evenodd" clip-rule="evenodd" d="M24.8486 23.6265C25.2939 24.8275 26.2243 25.9895 27.1266 26.9192C27.2225 27.0176 27.276 27.1443 27.284 27.2747L25.3108 28.8418C24.916 29.1552 24.4021 29.0487 24.1745 28.6023C23.584 27.4443 23.2403 26.2735 22.9999 24.8337C22.8951 24.2065 23.0968 23.5666 23.5458 23.1101L23.9934 22.6548L24.6314 22.0449C24.631 22.0508 24.6289 22.0612 24.6259 22.0763C24.5996 22.2075 24.5023 22.6928 24.8486 23.6264V23.6265ZM32.3846 23.6265C31.9394 24.8275 31.009 25.9895 30.1066 26.9192C30.0107 27.0176 29.9572 27.1443 29.9492 27.2747L31.9225 28.8418C32.3173 29.1552 32.8311 29.0487 33.0588 28.6023C33.6493 27.4443 33.993 26.2735 34.2334 24.8337C34.3383 24.2065 34.1365 23.5666 33.6875 23.1101L33.2399 22.6548L32.6019 22.0449C32.6022 22.0508 32.6043 22.0612 32.6074 22.0763C32.6337 22.2075 32.731 22.6928 32.3846 23.6264V23.6265Z" fill="#DEDEDE"/>
<path d="M28.6166 39.2318C24.0936 39.2322 19.5723 37.5359 16.1289 34.1432C12.7933 30.8567 10.9563 26.4869 10.9563 21.8388C10.9563 17.1907 12.7933 12.8211 16.1289 9.53442C19.4644 6.2479 23.8993 4.43774 28.6165 4.43774C33.3338 4.43774 37.7686 6.2479 41.1043 9.53442C44.4398 12.821 46.2769 17.1907 46.2769 21.8388C46.2769 26.4869 44.4399 30.8566 41.1043 34.1432C37.6619 37.5353 33.1385 39.2314 28.6166 39.2318ZM28.6166 7.61503C24.7608 7.61503 21.1356 9.0946 18.4091 11.7812H18.409C15.6825 14.4677 14.1809 18.0396 14.1809 21.8388C14.1809 25.6381 15.6825 29.21 18.409 31.8966C24.0376 37.4425 33.1958 37.4425 38.8243 31.8966C41.5509 29.2101 43.0525 25.6382 43.0525 21.8388C43.0525 18.0396 41.5509 14.4677 38.8244 11.7812C36.0976 9.0946 32.4725 7.61503 28.6166 7.61503ZM17.269 10.6579H17.2706H17.269Z" fill="#ED145B"/>
<path d="M27.3299 2.77777C23.4659 3.29654 23.0986 5.45513 23.0969 6.2472C23.0965 6.41335 23.0031 6.56718 22.8516 6.63985C20.8416 7.60325 21.9254 12.2466 21.9254 12.2466C22.1272 12.2599 22.3385 12.3404 22.4961 12.4155C22.5347 12.1789 22.5977 11.9459 22.6866 11.7208C22.7544 11.5492 22.8391 11.3759 22.9451 11.2121C23.129 10.928 23.2126 10.5927 23.1877 10.2577C23.1155 9.289 23.1502 7.38032 24.448 6.80489C25.5474 6.31753 26.8959 6.5997 27.7559 6.8815C28.3144 7.06452 28.9194 7.06452 29.4779 6.8815C30.3379 6.5997 31.6864 6.31753 32.7857 6.80489C34.0797 7.37859 34.118 9.27816 34.0466 10.2493C34.0217 10.587 34.1032 10.9256 34.2885 11.212C34.3979 11.381 34.4846 11.5603 34.5535 11.7373C34.6391 11.9572 34.7 12.1846 34.7376 12.4154C34.9362 12.3206 35.2201 12.2174 35.463 12.2511C35.4927 11.2359 35.5879 10.1413 35.5879 10.1413C36.7327 4.61539 31.4904 2.21922 27.3299 2.77777Z" fill="#0C152A"/>
<path d="M27.6982 6.8634C27.6867 6.84332 27.676 6.823 27.6639 6.80293C26.0497 4.12114 28.3291 2.71964 28.3291 2.71964L28.3047 2.70142C27.9756 2.7093 27.6495 2.73467 27.3297 2.77765C23.4657 3.29642 23.0984 5.45501 23.0967 6.24708C23.0964 6.41323 23.003 6.56707 22.8515 6.63973C20.8415 7.60313 21.9252 12.2464 21.9252 12.2464C22.1271 12.2597 22.3384 12.3403 22.4959 12.4154C22.5345 12.1788 22.5975 11.9458 22.6864 11.7206C22.7541 11.5491 22.8389 11.3758 22.9449 11.212C23.1287 10.9278 23.2124 10.5926 23.1875 10.2576C23.1152 9.28888 23.15 7.3802 24.4477 6.80477C25.5234 6.32788 26.8365 6.588 27.6982 6.8634Z" fill="#0C152A"/>
<path d="M35.9242 12.3664C35.6232 12.0946 35.0239 12.2324 34.7646 12.3988C34.8214 12.7473 34.8246 13.1037 34.7756 13.4557L34.4697 15.6507C34.4697 15.8277 34.4641 16.0013 34.4536 16.1718C35.1995 16.3935 35.57 15.7338 35.6324 15.281C35.6592 15.0862 35.7031 14.894 35.7641 14.7066C35.9626 14.0959 36.6784 13.0473 35.9242 12.3664Z" fill="#FCAD6D"/>
<path d="M35.2421 14.6013C35.0155 14.6013 34.8076 14.5221 34.6454 14.3903L34.4697 15.6505C34.4697 15.8275 34.4641 16.0011 34.4536 16.1717C35.1995 16.3933 35.57 15.7336 35.6324 15.2808C35.6592 15.086 35.7031 14.8938 35.7641 14.7064C35.802 14.5898 35.8586 14.4574 35.9204 14.3147C35.7495 14.4911 35.5091 14.6013 35.2421 14.6013Z" fill="#FD995B"/>
<path d="M21.3635 12.3664C21.6645 12.0946 22.2639 12.2324 22.5231 12.3988C22.4664 12.7473 22.4631 13.1037 22.5122 13.4557L22.8181 15.6507C22.8181 15.8277 22.8237 16.0013 22.8342 16.1718C22.0884 16.3935 21.7179 15.7338 21.6555 15.281C21.6286 15.0862 21.5847 14.894 21.5237 14.7066C21.3252 14.0959 20.6095 13.0473 21.3635 12.3664Z" fill="#FCAD6D"/>
<path d="M22.6334 14.3252C22.4631 14.4957 22.2265 14.6015 21.9646 14.6015C21.759 14.6015 21.5694 14.5356 21.4146 14.425C21.4575 14.526 21.4958 14.6207 21.5236 14.7065C21.5845 14.894 21.6285 15.0861 21.6554 15.281C21.7178 15.7337 22.0884 16.3935 22.8341 16.1718C22.8238 16.0012 22.818 15.8276 22.818 15.6507L22.6334 14.3252Z" fill="#FD995B"/>
<path d="M34.3289 11.1866C34.1532 10.9152 34.07 10.5836 34.0944 10.2527C34.172 9.19672 34.1077 7.33915 32.8054 6.76163C31.7115 6.27673 30.3839 6.53464 29.4627 6.83651C28.9172 7.01547 28.3162 7.01535 27.7707 6.83651C26.8496 6.53464 25.522 6.27648 24.4281 6.76163C23.868 7.00993 22.9559 7.79486 23.1397 10.2611C23.164 10.586 23.0805 10.9147 22.9046 11.1866C22.5281 11.7683 22.3155 12.6028 22.4375 13.4782L22.743 15.6672C22.743 15.9879 22.7612 16.2961 22.7936 16.5929C22.7932 16.592 22.7927 16.5912 22.7925 16.5903C23.3214 20.2815 25.4641 22.0258 27.0222 22.8083C28.021 23.3098 29.199 23.3114 30.198 22.8105C31.7564 22.0291 33.912 20.285 34.4414 16.5903C34.441 16.5912 34.4405 16.5921 34.4401 16.5931C34.4722 16.2982 34.4902 15.9922 34.4902 15.6737L34.7961 13.4787C34.9175 12.6068 34.7075 11.7721 34.3289 11.1866Z" fill="#F9BA8F"/>
<path d="M26.1102 16.5905C26.1106 16.5914 26.111 16.5922 26.1114 16.5931C26.079 16.2963 26.0607 15.9881 26.0607 15.6674L25.7552 13.4784C25.6332 12.603 25.8459 11.7685 26.2224 11.1868C26.3981 10.9148 26.4817 10.5862 26.4575 10.2613C26.2826 7.91502 27.0995 7.09093 27.6617 6.80235C26.7469 6.51624 25.4799 6.29528 24.4279 6.76183C23.8677 7.01013 22.9556 7.79506 23.1395 10.2613C23.1637 10.5862 23.0802 10.9149 22.9044 11.1868C22.5279 11.7685 22.3152 12.603 22.4372 13.4784L22.7427 15.6674C22.7427 15.9881 22.761 16.2963 22.7934 16.5931C22.793 16.5922 22.7925 16.5914 22.7922 16.5905C23.3211 20.2818 25.4639 22.026 27.022 22.8085C28.0207 23.31 29.1987 23.3116 30.1977 22.8107C30.222 22.7986 30.2466 22.7854 30.2711 22.7729C28.7194 21.974 26.6315 20.2278 26.1102 16.5905Z" fill="#FCAD6D"/>
</g>
<defs>
<clipPath id="clip0_80_3526">
<rect width="64" height="64" fill="white"/>
</clipPath>
</defs>
</svg>
