<svg width="64" height="64" viewBox="0 0 64 64" fill="none" xmlns="http://www.w3.org/2000/svg">
<g clip-path="url(#clip0_80_3438)">
<path d="M27.2 39.0999C27.2 39.0999 28.6 44.4 29.6 47.7C29.8 48.6 29.2 49.4 28.3 49.4C23.3 49.4 16.5 49.4 16.5 49.4L16 45.4L24.5 45.5L22.8 38.2L27.2 39.0999Z" fill="#F77E07"/>
<path d="M9.7 39.1C9.1 39.2 8.6 39.8 8.7 40.5C9 44.8 10.4 60.5 14.3 60.5H25C26 60.5 26.6 59.5 26.2 58.6C24.4 54.6 20.3 45.3 20.2 39.5C20.2 38.8 19.6 38.2 18.9 38.2C14.7 38 11.3 38.7 9.7 39.1Z" fill="#FAA61A"/>
<path d="M56.4 38.2H55.5C51.3 38.2 47.9 34.8 47.9 30.6C47.9 26.4 51.3 23 55.5 23H56.4C60.6 23 64 26.4 64 30.6C64 34.8 60.6 38.2 56.4 38.2Z" fill="#ED145B"/>
<path d="M54.2 3.30005L43.6 11.8001C37.5 16.7001 30 19.4001 22.2 19.4001H10.6C4.7 19.4001 0 24.1001 0 30.0001V30.2001V30.4001C0 36.2001 4.7 41.0001 10.6 41.0001H22.2C30 41.0001 37.6 43.7001 43.6 48.6001L54.2 57.1001C55.1 57.8001 56.4 57.2001 56.4 56.0001V30.1001V4.40005C56.4 3.20005 55 2.60005 54.2 3.30005Z" fill="#00AEEF"/>
<path d="M0 29C0 23.4772 4.47715 19 10 19H24V41H10C4.47715 41 0 36.5228 0 31V29Z" fill="#ED145B"/>
</g>
<defs>
<clipPath id="clip0_80_3438">
<rect width="64" height="57.5" fill="white" transform="translate(0 3)"/>
</clipPath>
</defs>
</svg>
