<svg width="64" height="64" viewBox="0 0 64 64" fill="none" xmlns="http://www.w3.org/2000/svg">
<g clip-path="url(#clip0_1_2510)">
<path d="M8 33.5455V57.9091C8 59.5909 9.36343 60.9545 11.0455 60.9545H20.1818V30.5H11.0455C9.36343 30.5 8 31.8634 8 33.5455Z" fill="#00AEEF"/>
<path d="M51.1032 33.542H42.1066C41.32 33.542 40.9259 33.0171 40.7936 32.791C40.6612 32.5665 40.3936 31.9672 40.7743 31.2802L43.9461 25.5685C44.642 24.3179 44.7134 22.8472 44.1439 21.5342C43.5743 20.2196 42.4501 19.2664 41.0597 18.9199L38.8232 18.3608C38.279 18.224 37.702 18.398 37.3228 18.8188L25.1797 32.3092C23.9201 33.7115 23.2272 35.5198 23.2272 37.4023V53.3374C23.2272 57.5354 26.6429 60.9511 30.8408 60.9511L45.9893 60.9496C49.4095 60.9496 52.4297 58.6462 53.3323 55.3494L56.5829 40.4314C56.6781 40.0165 56.7272 39.5912 56.7272 39.1659C56.7272 36.0655 54.2037 33.542 51.1032 33.542L51.1032 33.542Z" fill="#00AEEF"/>
</g>
<path d="M12.1676 11.6745C12.5092 10.8532 13.6726 10.8532 14.0142 11.6745L14.78 13.5157C14.924 13.8619 15.2496 14.0985 15.6234 14.1284L17.6111 14.2878C18.4977 14.3589 18.8573 15.4654 18.1817 16.044L16.6673 17.3413C16.3825 17.5852 16.2582 17.968 16.3452 18.3328L16.8079 20.2724C17.0142 21.1376 16.073 21.8215 15.3139 21.3578L13.6122 20.3184C13.2921 20.123 12.8897 20.123 12.5697 20.3184L10.8679 21.3578C10.1088 21.8215 9.16758 21.1376 9.37397 20.2724L9.83664 18.3328C9.92365 17.968 9.79928 17.5852 9.51449 17.3413L8.00009 16.044C7.32455 15.4654 7.68408 14.3589 8.57074 14.2878L10.5584 14.1284C10.9322 14.0985 11.2578 13.8619 11.4018 13.5157L12.1676 11.6745Z" fill="#00AEEF"/>
<path d="M49.9858 11.6745C50.3274 10.8532 51.4908 10.8532 51.8324 11.6745L52.5982 13.5157C52.7422 13.8619 53.0678 14.0985 53.4416 14.1284L55.4293 14.2878C56.3159 14.3589 56.6754 15.4654 55.9999 16.044L54.4855 17.3413C54.2007 17.5852 54.0764 17.968 54.1634 18.3328L54.626 20.2724C54.8324 21.1376 53.8912 21.8215 53.1321 21.3578L51.4303 20.3184C51.1103 20.123 50.7079 20.123 50.3878 20.3184L48.6861 21.3578C47.927 21.8215 46.9858 21.1376 47.1921 20.2724L47.6548 18.3328C47.7418 17.968 47.6175 17.5852 47.3327 17.3413L45.8183 16.044C45.1427 15.4654 45.5023 14.3589 46.3889 14.2878L48.3766 14.1284C48.7504 14.0985 49.076 13.8619 49.22 13.5157L49.9858 11.6745Z" fill="#00AEEF"/>
<path d="M31.0767 4.40181C31.4183 3.58052 32.5817 3.58052 32.9233 4.40181L33.6891 6.24296C33.8331 6.5892 34.1587 6.82576 34.5325 6.85573L36.5202 7.01508C37.4068 7.08616 37.7664 8.19267 37.0908 8.77134L35.5764 10.0686C35.2916 10.3125 35.1673 10.6953 35.2543 11.0601L35.7169 12.9997C35.9233 13.8649 34.9821 14.5488 34.223 14.0851L32.5213 13.0457C32.2012 12.8503 31.7988 12.8503 31.4787 13.0457L29.777 14.0851C29.0179 14.5488 28.0767 13.8649 28.2831 12.9997L28.7457 11.0601C28.8327 10.6953 28.7084 10.3125 28.4236 10.0686L26.9092 8.77134C26.2336 8.19267 26.5932 7.08616 27.4798 7.01508L29.4675 6.85573C29.8413 6.82576 30.1669 6.58919 30.3109 6.24296L31.0767 4.40181Z" fill="#00AEEF"/>
<defs>
<clipPath id="clip0_1_2510">
<rect width="48.7273" height="48.7273" fill="white" transform="translate(8 15.2727)"/>
</clipPath>
</defs>
</svg>
