<svg width="64" height="64" viewBox="0 0 64 64" fill="none" xmlns="http://www.w3.org/2000/svg">
<g clip-path="url(#clip0_1_2523)">
<path d="M29.4048 52.1623C24.9116 51.5878 20.8388 49.5861 17.6263 46.3737C11.0304 39.7778 9.80086 29.574 14.4945 21.6563L16.2119 22.8307L15.7075 12.8132L6.56829 16.2358L8.15274 17.3194C1.38371 28.2873 2.99918 42.5946 12.2024 51.7978C16.6268 56.2221 22.2388 58.9793 28.432 59.7711C29.6045 59.921 30.7831 59.9951 31.9612 59.9951C36.8076 59.9951 41.6308 58.7403 45.8363 56.3477L42.0431 49.6804C38.2504 51.838 33.7621 52.7196 29.4048 52.1623Z" fill="#00AEEF"/>
<path d="M51.7978 12.2021C47.3734 7.77785 41.7614 5.02065 35.5682 4.22891C29.5727 3.46216 23.3917 4.6782 18.1639 7.65238L21.9571 14.3196C25.7495 12.162 30.2379 11.28 34.5952 11.8378C39.0883 12.4122 43.1612 14.414 46.3737 17.6264C52.9696 24.2222 54.199 34.4261 49.5055 42.3437L47.7881 41.1693L48.2925 51.1868L57.4318 47.7642L55.8474 46.6807C62.6165 35.7128 61.0009 21.4053 51.7978 12.2021Z" fill="#00AEEF"/>
<path d="M31.9857 43.2994C38.2371 43.2994 43.3048 38.2329 43.3048 31.9831C43.3048 25.7332 38.2371 20.6667 31.9857 20.6667C25.7344 20.6667 20.6667 25.7332 20.6667 31.9831C20.6667 38.2329 25.7344 43.2994 31.9857 43.2994Z" fill="#00AEEF"/>
<path d="M33.3117 30.7472C32.5217 30.4679 31.651 30.1332 31.1845 29.7674C31.1569 29.7458 31.1039 29.6047 31.1425 29.4C31.1614 29.2996 31.2482 28.9645 31.5701 28.8675C32.2578 28.6603 32.7187 28.9269 32.885 29.0512C33.4412 29.467 34.2293 29.3532 34.6453 28.7971C35.0612 28.2409 34.9475 27.4529 34.3912 27.0372C34.2092 26.9011 33.7883 26.6235 33.1878 26.4442V26.3499C33.1878 25.6554 32.6247 25.0925 31.9302 25.0925C31.2356 25.0925 30.6725 25.6554 30.6725 26.3499V26.5182C29.6431 26.8964 28.8832 27.8063 28.6706 28.9343C28.4621 30.0402 28.8305 31.1175 29.6321 31.746C30.3828 32.3348 31.4414 32.7534 32.4734 33.1182C32.959 33.2898 33.1647 33.6169 33.0852 34.0906C33.0238 34.4551 32.7098 35.0735 31.9218 35.0788C31.0982 35.0843 30.9033 35.0538 30.302 34.6604C29.7207 34.2804 28.9412 34.4432 28.561 35.0244C28.1807 35.6054 28.3437 36.3848 28.925 36.7649C29.5823 37.1949 30.1038 37.4093 30.6725 37.5109V37.6164C30.6725 38.3109 31.2356 38.8738 31.9302 38.8738C32.6247 38.8738 33.1878 38.3109 33.1878 37.6164V37.3687C34.4092 36.9231 35.3395 35.8528 35.5657 34.5075C35.8471 32.8342 34.9412 31.3231 33.3117 30.7472Z" fill="white"/>
</g>
<defs>
<clipPath id="clip0_1_2523">
<rect width="56" height="56" fill="white" transform="translate(4 4)"/>
</clipPath>
</defs>
</svg>
