<svg width="64" height="64" viewBox="0 0 64 64" fill="none" xmlns="http://www.w3.org/2000/svg">
<g clip-path="url(#clip0_80_3447)">
<g clip-path="url(#clip1_80_3447)">
<path d="M30.5 23.7999V5.19995C30.5 4.09995 31.4 3.19995 32.5 3.19995H59.1C60.2 3.19995 61.1 4.09995 61.1 5.19995V23.7999C61.1 24.9 60.2 25.7999 59.1 25.7999H32.5C31.4 25.9 30.5 25 30.5 23.7999Z" fill="#0C152A"/>
<path d="M32.1 19.1C31.8 19.1 31.5 19 31.3 18.7C31 18.3 31 17.6 31.5 17.3L39.7 10.8C40.1 10.5 40.8 10.5 41.1 11C41.4 11.5 41.4 12.1 40.9 12.4L32.7 18.9C32.5 19 32.3 19.1 32.1 19.1Z" fill="#F77E07"/>
<path d="M16 8.8C18.43 8.8 20.4 6.83005 20.4 4.4C20.4 1.96995 18.43 0 16 0C13.5699 0 11.6 1.96995 11.6 4.4C11.6 6.83005 13.5699 8.8 16 8.8Z" fill="#FAA61A"/>
<path d="M19.1 53.1999C17.7 53.1999 16.6 52.0999 16.6 50.6999V30.3999C16.6 28.9999 17.7 27.8999 19.1 27.8999C20.5 27.8999 21.6 28.9999 21.6 30.3999V50.6999C21.6 51.9999 20.5 53.1999 19.1 53.1999Z" fill="#0C152A"/>
<path d="M12.9 53.1999C11.5 53.1999 10.4 52.0999 10.4 50.6999V30.3999C10.4 28.9999 11.5 27.8999 12.9 27.8999C14.3 27.8999 15.4 28.9999 15.4 30.3999V50.6999C15.5 51.9999 14.3 53.1999 12.9 53.1999Z" fill="#0C152A"/>
<path d="M33.8 17.0001C33.2 16.0001 31.9 15.7001 30.9 16.3001L26.7 19.0001V15.0001C26.7 12.3001 24.4 10.1001 21.7 10.1001H21.6C20.3 10.1001 11.7 10.1001 10.3 10.1001C7.50001 10.1001 5.20001 12.3001 5.20001 15.1001V30.6001C5.20001 31.8001 6.10001 32.7001 7.30001 32.7001C8.50001 32.7001 9.40001 31.8001 9.40001 30.6001V15.1001C9.40001 14.7001 9.80001 14.3001 10.3 14.3001H10.4V30.4001H21.6C21.6 28.9001 21.6 16.0001 21.6 14.3001H21.7C22.1 14.3001 22.5 14.6001 22.5 15.1001V22.8001C22.5 24.4001 24.3 25.4001 25.7 24.6001L33.1 20.0001C34.1 19.3001 34.4 18.0001 33.8 17.0001Z" fill="#0C152A"/>
<path d="M33.8 17.0001C33.2 16.0001 31.9 15.7001 30.9 16.3001L26.7 19.0001V15.0001C26.7 12.3001 24.4 10.1001 21.7 10.1001C21 10.1001 16.7 10.1001 16 10.1001V30.4001H21.6C21.6 28.9001 21.6 16.0001 21.6 14.3001H21.7C22.1 14.3001 22.5 14.6001 22.5 15.1001V22.8001C22.5 24.4001 24.3 25.4001 25.7 24.6001L33.1 20.0001C34.1 19.3001 34.4 18.0001 33.8 17.0001Z" fill="#0C152A"/>
<path d="M33.8 17C33.2 16 31.9 15.7 30.9 16.3L33.1 19.9C34.1 19.3 34.4 18 33.8 17Z" fill="#FAA61A"/>
<path d="M30.917 16.2914L30.1497 16.7617L32.3446 20.3426L33.1119 19.8723L30.917 16.2914Z" fill="white"/>
<path d="M5.29999 29.5V30.6C5.29999 31.8 6.19999 32.7 7.39999 32.7C8.59999 32.7 9.49999 31.8 9.49999 30.6V29.5H5.29999Z" fill="white"/>
<path d="M5.29999 30.5C5.29999 31.7 6.19999 32.7 7.39999 32.7C8.59999 32.7 9.49999 31.8 9.49999 30.6V30.5H5.29999Z" fill="#FAA61A"/>
<path d="M12.8 10.1001L16 18.6001L19.2 10.1001H12.8Z" fill="white"/>
<path d="M17.4 13.0001L16.7 11.7001L17.3 10.6001C17.4 10.4001 17.3 10.1001 17 10.1001H15C14.8 10.1001 14.6 10.4001 14.7 10.6001L15.3 11.7001L14.6 13.0001C14.5 13.2001 14.5 13.4001 14.5 13.6001L14.9 15.8001L15.9 18.6001L16.9 15.8001L17.3 13.6001C17.5 13.4001 17.5 13.2001 17.4 13.0001Z" fill="#ED145B"/>
<path d="M20.4 16.6001H17.6V17.5001H20.4V16.6001Z" fill="#0C152A"/>
<path d="M53.6 45.0001C55.9196 45.0001 57.8 43.1197 57.8 40.8001C57.8 38.4805 55.9196 36.6001 53.6 36.6001C51.2804 36.6001 49.4 38.4805 49.4 40.8001C49.4 43.1197 51.2804 45.0001 53.6 45.0001Z" fill="#0C152A"/>
<path d="M59.1 46.4001C57.9 46.4001 49.3 46.4001 48.1 46.4001C45.4 46.4001 43.2 48.6001 43.2 51.2001V56.0001H47.3V51.3001C47.3 50.9001 47.7 50.6001 48.1 50.6001V56.0001H59V50.5001H59.1C59.5 50.5001 59.9 50.8001 59.9 51.2001V56.0001H64V51.2001C64 48.6001 61.8 46.4001 59.1 46.4001Z" fill="#0C152A"/>
<path d="M59.1 46.3999H55.7C54.4 47.3999 52.7 47.3999 51.5 46.3999H48.1C45.4 46.3999 43.2 48.5999 43.2 51.1999V54.1999H47.3V51.1999C47.3 50.7999 47.7 50.4999 48.1 50.4999V55.9999H59V50.4999H59.1C59.5 50.4999 59.9 50.7999 59.9 51.1999V54.1999H64V51.1999C64 48.5999 61.8 46.3999 59.1 46.3999Z" fill="#0094DE"/>
<path d="M32 45.0001C34.3196 45.0001 36.2 43.1197 36.2 40.8001C36.2 38.4805 34.3196 36.6001 32 36.6001C29.6804 36.6001 27.8 38.4805 27.8 40.8001C27.8 43.1197 29.6804 45.0001 32 45.0001Z" fill="#0C152A"/>
<path d="M37.5 46.4001C36.3 46.4001 27.7 46.4001 26.5 46.4001C23.8 46.4001 21.6 48.6001 21.6 51.2001V56.0001H25.7V51.3001C25.7 50.9001 26.1 50.6001 26.5 50.6001V56.0001H37.4V50.5001H37.5C37.9 50.5001 38.3 50.8001 38.3 51.2001V56.0001H42.4V51.2001C42.4 48.6001 40.2 46.4001 37.5 46.4001Z" fill="#FAA61A"/>
<path d="M37.5 46.3999H34C32.7 47.3999 31 47.3999 29.8 46.3999H26.5C23.8 46.3999 21.6 48.5999 21.6 51.1999V54.1999H25.7V51.1999C25.7 50.7999 26.1 50.4999 26.5 50.4999V55.9999H37.4V50.4999H37.5C37.9 50.4999 38.3 50.7999 38.3 51.1999V54.1999H42.4V51.1999C42.4 48.5999 40.2 46.3999 37.5 46.3999Z" fill="#0C152A"/>
<path d="M10.4 45.0001C12.7196 45.0001 14.6 43.1197 14.6 40.8001C14.6 38.4805 12.7196 36.6001 10.4 36.6001C8.08042 36.6001 6.20001 38.4805 6.20001 40.8001C6.20001 43.1197 8.08042 45.0001 10.4 45.0001Z" fill="#FAA61A"/>
<path d="M15.9 46.4001C14.7 46.4001 6.1 46.4001 4.9 46.4001C2.2 46.4001 0 48.6001 0 51.2001V56.0001H4.1V51.3001C4.1 50.9001 4.5 50.6001 4.9 50.6001V56.1001H15.8V50.6001H15.9C16.3 50.6001 16.7 50.9001 16.7 51.3001V56.0001H20.8V51.2001C20.7 48.5001 18.5 46.4001 15.9 46.4001Z" fill="#FAA61A"/>
<path d="M15.9 46.3999H12.4C11.1 47.3999 9.4 47.3999 8.2 46.3999H4.9C2.2 46.3999 0 48.5999 0 51.1999V54.1999H4.1V51.1999C4.1 50.7999 4.5 50.4999 4.9 50.4999V55.9999H15.8V50.4999H15.9C16.3 50.4999 16.7 50.7999 16.7 51.1999V54.1999H20.8V51.1999C20.7 48.4999 18.5 46.3999 15.9 46.3999Z" fill="#00AEEF"/>
<path d="M44 52.5999C46.3196 52.5999 48.2 50.7195 48.2 48.4C48.2 46.0804 46.3196 44.2 44 44.2C41.6804 44.2 39.8 46.0804 39.8 48.4C39.8 50.7195 41.6804 52.5999 44 52.5999Z" fill="#FAA61A"/>
<path d="M49.5 54C48.3 54 39.7 54 38.5 54C35.8 54 33.6 56.2 33.6 58.8V63.6H37.7V58.9C37.7 58.5 38.1 58.2 38.5 58.2V63.7H49.4V58.2H49.5C49.9 58.2 50.3 58.5 50.3 58.9V63.6H54.4V58.8C54.4 56.2 52.2 54 49.5 54Z" fill="#FAA61A"/>
<path d="M49.5 54H46.1C44.8 55 43.1 55 41.9 54H38.5C35.8 54 33.6 56.2 33.6 58.8V61.8H37.7V58.8C37.7 58.4 38.1 58.1 38.5 58.1V63.6H49.4V58.1H49.5C49.9 58.1 50.3 58.4 50.3 58.8V61.8H54.4V58.8C54.4 56.2 52.2 54 49.5 54Z" fill="#00AEEF"/>
<path d="M22.4 52.5999C24.7196 52.5999 26.6 50.7195 26.6 48.4C26.6 46.0804 24.7196 44.2 22.4 44.2C20.0804 44.2 18.2 46.0804 18.2 48.4C18.2 50.7195 20.0804 52.5999 22.4 52.5999Z" fill="#FAA61A"/>
<path d="M27.9 54C26.7 54 18.1 54 16.9 54C14.2 54 12 56.2 12 58.8V63.6H16.1V58.9C16.1 58.5 16.5 58.2 16.9 58.2V63.7H27.8V58.2H27.9C28.3 58.2 28.7 58.5 28.7 58.9V63.6H32.8V58.8C32.8 56.2 30.6 54 27.9 54Z" fill="#FAA61A"/>
<path d="M27.9 54H24.4C23.1 55 21.4 55 20.2 54H16.9C14.2 54 12 56.2 12 58.8V61.8H16.1V58.8C16.1 58.4 16.5 58.1 16.9 58.1V63.6H27.8V58.1H27.9C28.3 58.1 28.7 58.4 28.7 58.8V61.8H32.8V58.8C32.8 56.2 30.6 54 27.9 54Z" fill="#ED145B"/>
</g>
</g>
<defs>
<clipPath id="clip0_80_3447">
<rect width="64" height="64" fill="white"/>
</clipPath>
<clipPath id="clip1_80_3447">
<rect width="64" height="63.6" fill="white"/>
</clipPath>
</defs>
</svg>
