<svg width="64" height="64" viewBox="0 0 64 64" fill="none" xmlns="http://www.w3.org/2000/svg">
<g clip-path="url(#clip0_80_3390)">
<path d="M14.4 30.8872H6.77496C6.53746 30.8872 6.33746 31.0872 6.33746 31.3247V36.3997C6.33746 36.6372 6.53746 36.8372 6.77496 36.8372H14.4C14.6375 36.8372 14.8375 36.6372 14.8375 36.3997V31.3247C14.8375 31.0872 14.6375 30.8872 14.4 30.8872Z" fill="#00AEEF"/>
<path d="M14.4001 30.8872H10.5876V36.8247H14.4001C14.6376 36.8247 14.8376 36.6247 14.8376 36.3872V31.3122C14.8376 31.0872 14.6376 30.8872 14.4001 30.8872Z" fill="#0094DE"/>
<path d="M50.15 7.28735C49.625 7.28735 49.2 7.71235 49.2 8.23735V17.8124C49.2 18.3374 49.625 18.7624 50.15 18.7624C50.675 18.7624 51.1 18.3374 51.1 17.8124V8.23735C51.1 7.71235 50.675 7.28735 50.15 7.28735Z" fill="#0C152A"/>
<path d="M51.75 21.4373H48.55C48 21.4373 47.55 20.9873 47.55 20.4373V16.9373C47.55 16.3873 48 15.9373 48.55 15.9373H51.75C52.3 15.9373 52.75 16.3873 52.75 16.9373V20.4373C52.75 20.9873 52.3 21.4373 51.75 21.4373Z" fill="#ED145B"/>
<path d="M56.2624 31.5625H44.0374C43.5124 31.5625 43.0874 31.1375 43.0874 30.6125V21.3875C43.0874 20.8625 43.5124 20.4375 44.0374 20.4375H56.2624C56.7874 20.4375 57.2124 20.8625 57.2124 21.3875V30.6125C57.2124 31.1375 56.7874 31.5625 56.2624 31.5625Z" fill="#C60B56"/>
<path d="M60.175 63.9998H38.725V24.9873H59.65C59.9375 24.9873 60.175 25.2248 60.175 25.5123V63.9998Z" fill="#ED145B"/>
<path d="M59.65 24.9873H53.825C54.1125 24.9873 54.35 25.2248 54.35 25.5123V63.9998H60.175V25.5123C60.175 25.2248 59.95 24.9873 59.65 24.9873Z" fill="#C60B56"/>
<path d="M56.1624 34.2872H43.8749C43.4374 34.2872 43.0874 33.9372 43.0874 33.4997V31.6747C43.0874 31.2372 43.4374 30.8872 43.8749 30.8872H56.1749C56.6124 30.8872 56.9624 31.2372 56.9624 31.6747V33.4997C56.9499 33.9372 56.5999 34.2872 56.1624 34.2872Z" fill="white"/>
<path d="M56.1624 42.0748H43.8749C43.4374 42.0748 43.0874 41.7248 43.0874 41.2873V39.4623C43.0874 39.0248 43.4374 38.6748 43.8749 38.6748H56.1749C56.6124 38.6748 56.9624 39.0248 56.9624 39.4623V41.2873C56.9499 41.7248 56.5999 42.0748 56.1624 42.0748Z" fill="white"/>
<path d="M56.1624 49.8746H43.8749C43.4374 49.8746 43.0874 49.5246 43.0874 49.0871V47.2621C43.0874 46.8246 43.4374 46.4746 43.8749 46.4746H56.1749C56.6124 46.4746 56.9624 46.8246 56.9624 47.2621V49.0871C56.9499 49.5246 56.5999 49.8746 56.1624 49.8746Z" fill="white"/>
<path d="M56.1624 57.6624H43.8749C43.4374 57.6624 43.0874 57.3125 43.0874 56.875V55.0499C43.0874 54.6124 43.4374 54.2625 43.8749 54.2625H56.1749C56.6124 54.2625 56.9624 54.6124 56.9624 55.0499V56.875C56.9499 57.3125 56.5999 57.6624 56.1624 57.6624Z" fill="white"/>
<path d="M44.3 63.9999H19.525C19.125 63.9999 18.8125 63.6749 18.8125 63.2874V1.8624C18.8125 1.4624 19.1375 1.1499 19.525 1.1499H44.3C44.7 1.1499 45.0125 1.4749 45.0125 1.8624V63.2749C45.025 63.6749 44.7 63.9999 44.3 63.9999Z" fill="#FAA61A"/>
<path d="M44.3 1.1499H38.475C38.875 1.1499 39.1875 1.4749 39.1875 1.8624V63.2749C39.1875 63.6749 38.8625 63.9874 38.475 63.9874H44.3C44.7 63.9874 45.0125 63.6624 45.0125 63.2749V1.8624C45.025 1.4749 44.7 1.1499 44.3 1.1499Z" fill="#F77E07"/>
<path d="M46.15 0H17.375C17.175 0 17.025 0.1625 17.025 0.35V2.7625C17.025 2.9625 17.1875 3.1125 17.375 3.1125H46.1375C46.3375 3.1125 46.4875 2.95 46.4875 2.7625V0.35C46.5 0.1625 46.3375 0 46.15 0Z" fill="#F77E07"/>
<path d="M26 11.7372H22.5125C22.2625 11.7372 22.0625 11.5372 22.0625 11.2872V7.03716C22.0625 6.78716 22.2625 6.58716 22.5125 6.58716H26C26.25 6.58716 26.45 6.78716 26.45 7.03716V11.2997C26.4375 11.5372 26.2375 11.7372 26 11.7372Z" fill="white"/>
<path d="M33.65 11.7372H30.1625C29.9125 11.7372 29.7125 11.5372 29.7125 11.2872V7.03716C29.7125 6.78716 29.9125 6.58716 30.1625 6.58716H33.65C33.9 6.58716 34.1 6.78716 34.1 7.03716V11.2997C34.1 11.5372 33.9 11.7372 33.65 11.7372Z" fill="white"/>
<path d="M41.3126 11.7372H37.8251C37.5751 11.7372 37.3751 11.5372 37.3751 11.2872V7.03716C37.3751 6.78716 37.5751 6.58716 37.8251 6.58716H41.3126C41.5626 6.58716 41.7626 6.78716 41.7626 7.03716V11.2997C41.7626 11.5372 41.5626 11.7372 41.3126 11.7372Z" fill="white"/>
<path d="M26 23.2248H22.5125C22.2625 23.2248 22.0625 23.0248 22.0625 22.7748V18.5123C22.0625 18.2623 22.2625 18.0623 22.5125 18.0623H26C26.25 18.0623 26.45 18.2623 26.45 18.5123V22.7748C26.4375 23.0248 26.2375 23.2248 26 23.2248Z" fill="white"/>
<path d="M33.65 23.2248H30.1625C29.9125 23.2248 29.7125 23.0248 29.7125 22.7748V18.5123C29.7125 18.2623 29.9125 18.0623 30.1625 18.0623H33.65C33.9 18.0623 34.1 18.2623 34.1 18.5123V22.7748C34.1 23.0248 33.9 23.2248 33.65 23.2248Z" fill="white"/>
<path d="M41.3126 23.2248H37.8251C37.5751 23.2248 37.3751 23.0248 37.3751 22.7748V18.5123C37.3751 18.2623 37.5751 18.0623 37.8251 18.0623H41.3126C41.5626 18.0623 41.7626 18.2623 41.7626 18.5123V22.7748C41.7626 23.0248 41.5626 23.2248 41.3126 23.2248Z" fill="white"/>
<path d="M26 34.6996H22.5125C22.2625 34.6996 22.0625 34.4996 22.0625 34.2496V29.9996C22.0625 29.7496 22.2625 29.5496 22.5125 29.5496H26C26.25 29.5496 26.45 29.7496 26.45 29.9996V34.2496C26.4375 34.4996 26.2375 34.6996 26 34.6996Z" fill="white"/>
<path d="M33.65 34.6996H30.1625C29.9125 34.6996 29.7125 34.4996 29.7125 34.2496V29.9996C29.7125 29.7496 29.9125 29.5496 30.1625 29.5496H33.65C33.9 29.5496 34.1 29.7496 34.1 29.9996V34.2496C34.1 34.4996 33.9 34.6996 33.65 34.6996Z" fill="white"/>
<path d="M41.3126 34.6996H37.8251C37.5751 34.6996 37.3751 34.4996 37.3751 34.2496V29.9996C37.3751 29.7496 37.5751 29.5496 37.8251 29.5496H41.3126C41.5626 29.5496 41.7626 29.7496 41.7626 29.9996V34.2496C41.7626 34.4996 41.5626 34.6996 41.3126 34.6996Z" fill="white"/>
<path d="M33.65 46.1874H30.1625C29.9125 46.1874 29.7125 45.9874 29.7125 45.7374V41.4749C29.7125 41.2249 29.9125 41.0249 30.1625 41.0249H33.65C33.9 41.0249 34.1 41.2249 34.1 41.4749V45.7374C34.1 45.9874 33.9 46.1874 33.65 46.1874Z" fill="white"/>
<path d="M41.3126 46.1874H37.8251C37.5751 46.1874 37.3751 45.9874 37.3751 45.7374V41.4749C37.3751 41.2249 37.5751 41.0249 37.8251 41.0249H41.3126C41.5626 41.0249 41.7626 41.2249 41.7626 41.4749V45.7374C41.7626 45.9874 41.5626 46.1874 41.3126 46.1874Z" fill="white"/>
<path d="M33.65 57.6623H30.1625C29.9125 57.6623 29.7125 57.4623 29.7125 57.2123V52.9498C29.7125 52.6998 29.9125 52.4998 30.1625 52.4998H33.65C33.9 52.4998 34.1 52.6998 34.1 52.9498V57.2123C34.1 57.4623 33.9 57.6623 33.65 57.6623Z" fill="white"/>
<path d="M41.3126 57.6623H37.8251C37.5751 57.6623 37.3751 57.4623 37.3751 57.2123V52.9498C37.3751 52.6998 37.5751 52.4998 37.8251 52.4998H41.3126C41.5626 52.4998 41.7626 52.6998 41.7626 52.9498V57.2123C41.7626 57.4623 41.5626 57.6623 41.3126 57.6623Z" fill="white"/>
<path d="M30.25 63.9999H3.88752C3.58752 63.9999 3.33752 63.7499 3.33752 63.4499V35.5249C3.33752 35.2249 3.58752 34.9749 3.88752 34.9749H30.25C30.55 34.9749 30.8 35.2249 30.8 35.5249V63.4499C30.8 63.7499 30.55 63.9999 30.25 63.9999Z" fill="#00AEEF"/>
<path d="M30.25 34.9749H24.3125C24.6125 34.9749 24.8625 35.2249 24.8625 35.5249V63.4499C24.8625 63.7499 24.6125 63.9999 24.3125 63.9999H30.25C30.55 63.9999 30.8 63.7499 30.8 63.4499V35.5249C30.8 35.2249 30.55 34.9749 30.25 34.9749Z" fill="#0094DE"/>
<path d="M10.5875 42.8999H7.13749C6.83749 42.8999 6.58749 42.6499 6.58749 42.3499V40.1499C6.58749 39.8499 6.83749 39.5999 7.13749 39.5999H10.5875C10.8875 39.5999 11.1375 39.8499 11.1375 40.1499V42.3499C11.1375 42.6499 10.8875 42.8999 10.5875 42.8999Z" fill="white"/>
<path d="M18.6249 42.8999H15.1749C14.8749 42.8999 14.6249 42.6499 14.6249 42.3499V40.1499C14.6249 39.8499 14.8749 39.5999 15.1749 39.5999H18.6249C18.9249 39.5999 19.1749 39.8499 19.1749 40.1499V42.3499C19.1749 42.6499 18.9249 42.8999 18.6249 42.8999Z" fill="white"/>
<path d="M26.65 42.8999H23.2C22.9 42.8999 22.65 42.6499 22.65 42.3499V40.1499C22.65 39.8499 22.9 39.5999 23.2 39.5999H26.65C26.95 39.5999 27.2 39.8499 27.2 40.1499V42.3499C27.2 42.6499 26.95 42.8999 26.65 42.8999Z" fill="white"/>
<path d="M10.5875 50.6125H7.13746C6.83746 50.6125 6.58746 50.3625 6.58746 50.0625V47.8625C6.58746 47.5625 6.83746 47.3125 7.13746 47.3125H10.5875C10.8875 47.3125 11.1375 47.5625 11.1375 47.8625V50.0625C11.1375 50.3625 10.8875 50.6125 10.5875 50.6125Z" fill="white"/>
<path d="M18.6249 50.6125H15.1749C14.8749 50.6125 14.6249 50.3625 14.6249 50.0625V47.8625C14.6249 47.5625 14.8749 47.3125 15.1749 47.3125H18.6249C18.9249 47.3125 19.1749 47.5625 19.1749 47.8625V50.0625C19.1749 50.3625 18.9249 50.6125 18.6249 50.6125Z" fill="white"/>
<path d="M26.65 50.6125H23.2C22.9 50.6125 22.65 50.3625 22.65 50.0625V47.8625C22.65 47.5625 22.9 47.3125 23.2 47.3125H26.65C26.95 47.3125 27.2 47.5625 27.2 47.8625V50.0625C27.2 50.3625 26.95 50.6125 26.65 50.6125Z" fill="white"/>
<path d="M10.5875 58.3249H7.13746C6.83746 58.3249 6.58746 58.0749 6.58746 57.7749V55.5749C6.58746 55.2749 6.83746 55.0249 7.13746 55.0249H10.5875C10.8875 55.0249 11.1375 55.2749 11.1375 55.5749V57.7749C11.1375 58.0749 10.8875 58.3249 10.5875 58.3249Z" fill="white"/>
<path d="M18.6249 58.3249H15.1749C14.8749 58.3249 14.6249 58.0749 14.6249 57.7749V55.5749C14.6249 55.2749 14.8749 55.0249 15.1749 55.0249H18.6249C18.9249 55.0249 19.1749 55.2749 19.1749 55.5749V57.7749C19.1749 58.0749 18.9249 58.3249 18.6249 58.3249Z" fill="white"/>
<path d="M26.65 58.3249H23.2C22.9 58.3249 22.65 58.0749 22.65 57.7749V55.5749C22.65 55.2749 22.9 55.0249 23.2 55.0249H26.65C26.95 55.0249 27.2 55.2749 27.2 55.5749V57.7749C27.2 58.0749 26.95 58.3249 26.65 58.3249Z" fill="white"/>
<path d="M61.05 61.0623H2.4625C1.65 61.0623 1 61.7248 1 62.5248C1 63.3373 1.6625 63.9873 2.4625 63.9873H61.05C61.8625 63.9873 62.5125 63.3248 62.5125 62.5248C62.525 61.7248 61.8625 61.0623 61.05 61.0623Z" fill="#0C152A"/>
<path d="M62.5125 62.3749C62.5125 62.3624 62.5125 62.3499 62.5125 62.3499C62.5125 62.2999 62.5 62.2624 62.4875 62.2124V62.1999C62.475 62.1499 62.4625 62.0999 62.45 62.0624C62.4375 62.0124 62.4125 61.9624 62.3875 61.9249C62.15 61.4249 61.65 61.0874 61.0625 61.0874H56.7V61.4624C56.7 62.1874 56.1125 62.7624 55.4 62.7624H2.4625C1.875 62.7624 1.375 62.4124 1.1375 61.9249C1.05 62.1124 1 62.3249 1 62.5499C1 63.3624 1.6625 64.0124 2.4625 64.0124H56.6875H61.05C61.8625 64.0124 62.5125 63.3499 62.5125 62.5499C62.525 62.4749 62.525 62.4249 62.5125 62.3749Z" fill="#0C152A"/>
</g>
<defs>
<clipPath id="clip0_80_3390">
<rect width="61.525" height="64" fill="white" transform="translate(1)"/>
</clipPath>
</defs>
</svg>
