<svg width="64" height="64" viewBox="0 0 64 64" fill="none" xmlns="http://www.w3.org/2000/svg">
<path d="M60.369 22.4173L54.0972 11.5817C53.4672 10.4757 52.6973 10.9097 48.6094 11.6657C46.5963 10.0368 44.3377 8.73737 41.9177 7.81581C40.6997 4.30195 40.6017 3 39.2438 3H26.7283C25.4263 3 25.3283 3.95196 24.0544 7.81581C21.6343 8.73737 19.3757 10.0368 17.3626 11.6657C13.4148 10.9237 12.5188 10.4477 11.8748 11.5817L5.60306 22.4173C4.98709 23.5092 5.70106 23.9572 8.40296 27.1351C7.98984 29.6944 7.98984 32.3034 8.40296 34.8628C5.81306 37.8727 4.93109 38.4466 5.60306 39.5806L11.8748 50.4162C12.5048 51.5221 13.3588 51.0882 17.3626 50.3322C19.3757 51.9611 21.6343 53.2605 24.0544 54.182L25.4543 58.0599C25.5542 58.347 25.7448 58.5939 25.9973 58.7631C26.2499 58.9323 26.5507 59.0147 26.8542 58.9978H39.3698C40.6717 58.9978 40.7697 58.0459 42.0437 54.182C44.4637 53.2605 46.7223 51.9611 48.7354 50.3322C52.6833 51.0742 53.5792 51.5501 54.2232 50.4162L60.495 39.5806C61.1109 38.4886 60.397 38.0406 57.6951 34.8628C58.1082 32.3034 58.1082 29.6944 57.6951 27.1351C60.131 24.1252 60.9849 23.5512 60.369 22.4173ZM51.1433 32.2169C50.8991 35.7868 49.608 39.2055 47.4314 42.0456C45.2547 44.8857 42.2891 47.0211 38.9054 48.1849C35.5217 49.3487 31.87 49.4891 28.4069 48.5887C24.9437 47.6883 21.8229 45.787 19.4345 43.1225C13.7508 37.4387 12.8268 26.5611 19.1685 19.1694C31.1381 5.7019 52.3053 15.2915 51.1853 32.2169H51.1433Z" fill="#00AEEF"/>
<path d="M37.7878 20.8914C37.5747 20.7899 37.3394 20.7439 37.1038 20.7578C36.8682 20.7716 36.6399 20.8448 36.4402 20.9705C36.2404 21.0962 36.0757 21.2704 35.9613 21.4769C35.8469 21.6833 35.7866 21.9153 35.7859 22.1514V30.243L32.986 32.119L30.1861 30.243V22.1514C30.1854 21.9153 30.1251 21.6833 30.0107 21.4769C29.8963 21.2704 29.7316 21.0962 29.5319 20.9705C29.3321 20.8448 29.1038 20.7716 28.8682 20.7578C28.6326 20.7439 28.3973 20.7899 28.1842 20.8914C26.3444 21.7692 24.7791 23.1324 23.6569 24.8341C22.5348 26.5359 21.8983 28.5116 21.8162 30.5484C21.7341 32.5852 22.2095 34.6058 23.191 36.3923C24.1725 38.1789 25.6231 39.6637 27.3862 40.6866V45.3345C30.9855 46.7484 34.9865 46.7484 38.5858 45.3345V40.6866C40.3489 39.6637 41.7995 38.1789 42.781 36.3923C43.7626 34.6058 44.2379 32.5852 44.1558 30.5484C44.0737 28.5116 43.4373 26.5359 42.3151 24.8341C41.1929 23.1324 39.6276 21.7692 37.7878 20.8914Z" fill="#00AEEF"/>
</svg>
