<svg width="64" height="64" viewBox="0 0 64 64" fill="none" xmlns="http://www.w3.org/2000/svg">
<g clip-path="url(#clip0_80_3487)">
<g clip-path="url(#clip1_80_3487)">
<path d="M4.41463 11H61V51.3846C61 52.3077 60.3937 53 59.5854 53H4.41463C3.60627 53 3 52.3077 3 51.3846V12.5C3 11.6923 3.60627 11 4.41463 11Z" fill="#0C152A"/>
<path d="M44.1 63.9999H19.9V62.9999C19.9 61.6999 20.9 60.4999 22.2 60.2999L23.1 60.1999C25.1 59.8999 26.6 58.0999 26.6 56.0999V51.8999H37.6V56.0999C37.6 58.0999 39.1 59.7999 41.1 60.1999L42 60.2999C43.3 60.4999 44.3 61.6999 44.3 62.9999V63.9999H44.1Z" fill="#0094DE"/>
<path d="M3 46H61V51.5152C61 52.3636 60.3937 53 59.5854 53H4.41463C3.60627 53 3 52.3636 3 51.5152V46Z" fill="#00AEEF"/>
<path d="M9.10001 0H54.9C55.7 0 56.3 0.6 56.3 1.4V40.6C56.3 41.4 55.7 42 54.9 42H9.10001C8.30001 42 7.70001 41.4 7.70001 40.6V1.4C7.70001 0.6 8.30001 0 9.10001 0Z" fill="#F0F0F0"/>
<path d="M9.10001 0H54.9C55.7 0 56.3 0.6 56.3 1.4V6.6H7.70001V1.4C7.70001 0.6 8.30001 0 9.10001 0Z" fill="#ED145B"/>
<path d="M32 13.2V18.7C35 18.7 37.5 21.2 37.5 24.2C37.5 27.2 35 29.7999 32 29.7999V35.2999C38.1 35.2999 43 30.4 43 24.3C43 18.2 38.1 13.2 32 13.2Z" fill="#FAA61A"/>
<path d="M32 35.3V29.8C29 29.8 26.5 27.3 26.5 24.3H21C21 30.4 25.9 35.3 32 35.3Z" fill="#00AEEF"/>
<path d="M32 18.8V13.3C25.9 13.3 21 18.2 21 24.3H26.5C26.5 21.2 29 18.8 32 18.8Z" fill="#ED145B"/>
<path d="M20.2 13.9999L18.3 12.0999H12.1V9.8999H18.7C19 9.8999 19.3 9.9999 19.5 10.1999L21.7 12.3999L20.2 13.9999Z" fill="#ED145B"/>
<path d="M12.1 14.2998H17.6V16.4998H12.1V14.2998Z" fill="#ED145B"/>
<path d="M51.9 38.6H45.3C45 38.6 44.7 38.5 44.5 38.3L42.3 36.1L43.9 34.5L45.8 36.4H52V38.6H51.9Z" fill="#FAA61A"/>
<path d="M46.3 32H51.8V34.2H46.3V32Z" fill="#FAA61A"/>
<path d="M11 2.19995H13.2V4.39995H11V2.19995Z" fill="white"/>
<path d="M15.4 2.19995H17.6V4.39995H15.4V2.19995Z" fill="white"/>
<path d="M19.9 2.19995H22.1V4.39995H19.9V2.19995Z" fill="white"/>
<path d="M50.8 2.19995H53V4.39995H50.8V2.19995Z" fill="white"/>
<path d="M15.4 37.5V35.2999L19.8 32L15.4 30.2999V24.2H0V37.4H15.4V37.5Z" fill="#00AEEF"/>
<path d="M3.29999 30.8999H5.49999V34.1999H3.29999V30.8999Z" fill="white"/>
<path d="M6.59998 27.5999H8.79998V34.1999H6.59998V27.5999Z" fill="white"/>
<path d="M9.89996 29.7998H12.1V34.1998H9.89996V29.7998Z" fill="white"/>
<path d="M48.6 11V13.2L44.2 16.5L48.6 18.2V24.3H64V11H48.6Z" fill="#FAA61A"/>
<path d="M52.6 20.6001L51 19.0001L54.3 15.7001C54.7 15.3001 55.4 15.3001 55.9 15.7001L57.2 17.0001L59.7 13.6001L61.5 14.9001L58.2 19.3001C57.8 19.8001 57.1 19.9001 56.7 19.5001L56.6 19.4001L55.2 18.0001L52.6 20.6001Z" fill="white"/>
</g>
</g>
<defs>
<clipPath id="clip0_80_3487">
<rect width="64" height="64" fill="white"/>
</clipPath>
<clipPath id="clip1_80_3487">
<rect width="64" height="64" fill="white"/>
</clipPath>
</defs>
</svg>
