<svg width="64" height="64" viewBox="0 0 64 64" fill="none" xmlns="http://www.w3.org/2000/svg">
<g clip-path="url(#clip0_1_2555)">
<path d="M58.3594 33.5625H53.3281V56.5312H58.3594C59.2662 56.5312 60 55.7974 60 54.8906V35.2031C60 34.2963 59.2662 33.5625 58.3594 33.5625Z" fill="#00AEEF"/>
<path d="M5.64062 33.5625C4.7338 33.5625 4 34.2963 4 35.2031V54.8906C4 55.7974 4.7338 56.5312 5.64062 56.5312H10.6719V33.5625H5.64062Z" fill="#00AEEF"/>
<path d="M30.7471 35.2031C29.4958 35.2031 28.3711 35.8984 27.8119 37.0168L22.818 47.0079C23.6543 47.3747 24.5387 47.5606 25.4423 47.5606C27.9401 47.5606 30.188 46.1684 31.3079 43.9253L32.3878 41.7656H35.5632C36.4269 41.7656 37.2728 42.1165 37.8832 42.7269L50.0469 54.8906V35.2031H30.7471Z" fill="#00AEEF"/>
<path d="M35.5632 45.047H34.4161L34.3214 45.2366C32.7716 48.3359 29.7494 50.524 26.2957 50.8063C23.7544 51.0143 21.9934 50.2832 19.9052 49.3334C19.056 48.9473 18.6865 47.9327 19.1037 47.0983L24.876 35.5508C25.9877 33.3268 28.2608 31.9219 30.7471 31.9219H37.8273C38.2817 30.9153 38.5625 29.8164 38.5625 28.6406C38.5625 27.7338 37.8287 27 36.9219 27H24.1846C22.3199 27 20.6154 28.0534 19.7814 29.7213L18.3145 32.6552C18.0364 33.2112 17.4683 33.5625 16.8466 33.5625H13.9531V56.5312H21.4769L26.1248 61.1791C27.4721 62.5264 29.4126 62.9518 31.0867 62.392L45.0978 57.9876C45.9351 57.7519 46.641 57.2912 47.2168 56.7005L35.5632 45.047Z" fill="#00AEEF"/>
<path d="M30.6667 25.3333C36.5577 25.3333 41.3333 20.5577 41.3333 14.6667C41.3333 8.77563 36.5577 4 30.6667 4C24.7756 4 20 8.77563 20 14.6667C20 20.5577 24.7756 25.3333 30.6667 25.3333Z" fill="#00AEEF"/>
<path d="M31.9163 13.5014C31.1717 13.2382 30.3512 12.9227 29.9116 12.5778C29.8856 12.5575 29.8357 12.4245 29.872 12.2316C29.8899 12.1369 29.9716 11.8211 30.275 11.7297C30.9231 11.5343 31.3574 11.7857 31.5141 11.9028C32.0383 12.2947 32.781 12.1875 33.173 11.6633C33.5649 11.1391 33.4577 10.3963 32.9335 10.0044C32.762 9.87614 32.3654 9.61449 31.7995 9.44545V9.35654C31.7995 8.70199 31.2689 8.17139 30.6143 8.17139C29.9598 8.17139 29.4291 8.70199 29.4291 9.35654V9.51521C28.4591 9.87174 27.743 10.7293 27.5426 11.7926C27.3461 12.835 27.6933 13.8505 28.4487 14.4429C29.1562 14.9979 30.1537 15.3925 31.1263 15.7363C31.5838 15.898 31.7777 16.2064 31.7027 16.6529C31.6449 16.9965 31.349 17.5794 30.6065 17.5843C29.8303 17.5895 29.6467 17.5608 29.08 17.19C28.5322 16.8317 27.7976 16.9852 27.4393 17.533C27.081 18.0808 27.2346 18.8154 27.7824 19.1737C28.4018 19.5789 28.8932 19.781 29.4291 19.8768V19.9763C29.4291 20.6309 29.9598 21.1615 30.6143 21.1615C31.2689 21.1615 31.7995 20.6309 31.7995 19.9763V19.7428C32.9504 19.3228 33.8271 18.3139 34.0403 17.0459C34.3055 15.4686 33.4518 14.0443 31.9163 13.5014Z" fill="white"/>
</g>
<defs>
<clipPath id="clip0_1_2555">
<rect width="64" height="64" fill="white"/>
</clipPath>
</defs>
</svg>
