<svg width="64" height="64" viewBox="0 0 64 64" fill="none" xmlns="http://www.w3.org/2000/svg">
<path fill-rule="evenodd" clip-rule="evenodd" d="M9.45453 20.3637C9.45453 14.3483 14.3483 9.45459 20.3636 9.45459C26.3789 9.45459 31.2727 14.3485 31.2727 20.3637C31.2727 24.4438 29.0208 28.0074 25.695 29.8783C24.1175 30.7657 22.2989 31.2728 20.3636 31.2728C18.4284 31.2728 16.6098 30.7657 15.0323 29.8783C11.7065 28.0074 9.45453 24.4439 9.45453 20.3637ZM20.0223 32.7273H26.7166C32.437 32.7273 37.0909 36.1503 37.0909 40.7515L37.0908 57.9675C37.0908 58.8892 36.1619 59.6364 35.016 59.6364H5.7112C4.56528 59.6364 3.63635 58.8891 3.63635 57.9675L3.63641 40.7515C3.63641 36.1503 8.2903 32.7273 14.0107 32.7273H20.0223Z" fill="#00AEEF"/>
<path fill-rule="evenodd" clip-rule="evenodd" d="M35.8182 3.63647C32.5045 3.63647 29.8182 6.32277 29.8182 9.63648V11.3181C32.0696 13.6704 33.4545 16.8584 33.4545 20.3638C33.4545 22.4707 32.9542 24.4628 32.066 26.2276C32.4988 26.4082 32.9738 26.5079 33.4721 26.5079H35.5495C36.5998 26.5079 37.2284 27.6763 36.6496 28.5527C36.1107 29.3686 36.9567 30.3881 37.8579 30.009L45.066 26.9772C45.8025 26.6675 46.5933 26.5079 47.3923 26.5079H56.5454C59.8592 26.5079 62.5454 23.8217 62.5454 20.5079V9.63647C62.5454 6.32277 59.8592 3.63647 56.5455 3.63647H35.8182Z" fill="#00AEEF"/>
</svg>
