<svg width="64" height="64" viewBox="0 0 64 64" fill="none" xmlns="http://www.w3.org/2000/svg">
<path fill-rule="evenodd" clip-rule="evenodd" d="M2.18182 10.9092C2.18182 6.49091 5.76355 2.90918 10.1818 2.90918H52.3636C56.7819 2.90918 60.3636 6.4909 60.3636 10.9092V14.5455H2.18182V10.9092ZM2.18182 16.0001H60.3636V38.1766C57.3507 35.2553 53.2454 33.4546 48.7276 33.4546C39.7477 33.4546 32.3979 40.5679 32.0156 49.4546H10.1818C5.76355 49.4546 2.18182 45.8729 2.18182 41.4546V16.0001Z" fill="#00AEEF"/>
<path d="M24.0659 23.3685C23.5122 23.1115 22.8708 23.3893 22.6335 23.9892L16.0885 40.5342C15.8511 41.1341 16.1077 41.8289 16.6614 42.0859C17.2153 42.3431 17.8565 42.065 18.0937 41.4653L24.6388 24.9203C24.8761 24.3204 24.6196 23.6256 24.0659 23.3685Z" fill="white"/>
<path d="M14.1165 36.4731L9.51761 32.7273L14.1165 28.9814C14.6094 28.58 14.6893 27.8477 14.295 27.3459C13.9006 26.8441 13.1813 26.7628 12.6886 27.1642L6.97414 31.8187C6.40277 32.2839 6.40239 33.1704 6.97414 33.636L12.6886 38.2905C13.1815 38.692 13.9008 38.6106 14.295 38.1088C14.6893 37.6068 14.6094 36.8746 14.1165 36.4731Z" fill="white"/>
<path d="M33.7532 31.8188L28.0387 27.1643C27.5458 26.7627 26.8265 26.8441 26.4323 27.3459C26.038 27.8478 26.1179 28.5801 26.6108 28.9815L31.2097 32.7274L26.6108 36.4733C26.1179 36.8747 26.038 37.607 26.4323 38.1088C26.8271 38.6112 27.5465 38.6916 28.0387 38.2905L33.7532 33.636C34.3245 33.1708 34.3249 32.2844 33.7532 31.8188Z" fill="white"/>
<ellipse cx="9.45455" cy="8.72725" rx="1.45455" ry="1.45455" fill="white"/>
<ellipse cx="15.2727" cy="8.72725" rx="1.45455" ry="1.45455" fill="white"/>
<path d="M48.7276 36.3635C41.108 36.3635 34.9091 42.5631 34.9091 50.182C34.9091 57.8003 41.108 63.9999 48.7276 63.9999C56.3466 63.9999 62.5455 57.8003 62.5455 50.182C62.5455 42.5631 56.3466 36.3635 48.7276 36.3635ZM56.6528 47.0113L47.7031 55.956C46.9918 56.6662 46.0468 57.0577 45.0411 57.0577H45.04C44.0349 57.0577 43.0893 56.6668 42.3786 55.9571L39.457 53.0393C38.5738 52.158 38.5738 50.7282 39.457 49.8469C40.3396 48.965 41.7715 48.965 42.6542 49.8469L45.04 52.2286L53.4539 43.8201C54.3365 42.9382 55.7678 42.9376 56.651 43.8189C57.5342 44.7002 57.5348 46.1295 56.6528 47.0113Z" fill="#00AEEF"/>
</svg>
