<svg width="65" height="64" viewBox="0 0 65 64" fill="none" xmlns="http://www.w3.org/2000/svg">
<g clip-path="url(#clip0_80_3566)">
<g clip-path="url(#clip1_80_3566)">
<path d="M62.8385 13.978L60.4778 13.4534C60.303 12.8414 60.0407 12.2294 59.6909 11.6174L61.0024 9.51904C61.2647 9.16932 61.1773 8.64473 60.915 8.38244L57.068 4.62292C56.7183 4.2732 56.2812 4.2732 55.9314 4.53549L53.8331 5.84695C53.2211 5.58466 52.6091 5.32237 51.997 5.06007L51.4725 2.69945C51.385 2.26229 51.0353 2 50.5982 2H45.3523C44.9152 2 44.5654 2.26229 44.478 2.69945L43.9534 5.06007C43.3414 5.23494 42.7294 5.49723 42.1174 5.84695L40.019 4.53549C39.6693 4.2732 39.1447 4.36063 38.8824 4.62292L35.1229 8.38244C34.7732 8.73216 34.7732 9.16932 35.0355 9.51904L36.347 11.6174C36.0847 12.2294 35.8224 12.8414 35.5601 13.4534L33.1994 13.978C32.7623 14.0654 32.5 14.4152 32.5 14.8523V20.0982C32.5 20.5353 32.7623 20.885 33.1994 20.9725L35.5601 21.497C35.7349 22.1091 35.9972 22.7211 36.347 23.3331L34.8606 25.5189C34.5983 25.8686 34.6858 26.3932 34.9481 26.6555L38.7076 30.415C39.0573 30.7647 39.4945 30.7647 39.8442 30.5024L41.9425 29.1909C42.5545 29.4532 43.1665 29.7155 43.7786 29.9778L44.3031 32.3385C44.3906 32.7756 44.7403 33.0379 45.1775 33.0379H50.4233C50.8604 33.0379 51.2102 32.7756 51.2976 32.3385L51.8222 29.9778C52.4342 29.803 53.0462 29.5407 53.6582 29.1909L55.7566 30.5024C56.1063 30.7647 56.6309 30.6773 56.8932 30.415L60.6527 26.6555C61.0024 26.3057 61.0024 25.8686 60.7401 25.5189L59.4287 23.4205C59.691 22.8085 59.9532 22.1965 60.2155 21.5845L62.5762 21.0599C63.0133 20.9725 63.2756 20.6227 63.2756 20.1856V14.9397C63.5379 14.4152 63.2756 14.0654 62.8385 13.978ZM47.8878 27.3549C42.4671 27.3549 38.0081 22.8959 38.0081 17.4752C38.0081 12.0545 42.4671 7.59557 47.8878 7.59557C53.3085 7.59557 57.7675 12.0545 57.7675 17.4752C57.7675 22.9834 53.3959 27.3549 47.8878 27.3549Z" fill="#0094DE"/>
<path d="M47.8878 7.68311C42.4671 7.68311 38.0081 12.1421 38.0081 17.5628C38.0081 22.9835 42.4671 27.4424 47.8878 27.4424C53.3085 27.4424 57.7675 22.9835 57.7675 17.5628C57.7675 12.0546 53.3959 7.68311 47.8878 7.68311ZM47.8878 22.6338C45.09 22.6338 42.8168 20.3606 42.8168 17.5628C42.8168 14.765 45.09 12.4918 47.8878 12.4918C50.6856 12.4918 52.9588 14.765 52.9588 17.5628C53.0462 20.3606 50.773 22.6338 47.8878 22.6338Z" fill="#00AEEF"/>
<path d="M48.7 17.8999H27.6C27.4 17.8999 27.2 18.0999 27.2 18.2999V24.2999H49.1V18.2999C49.1 17.9999 48.9 17.8999 48.7 17.8999Z" fill="#F77E07"/>
<path d="M51.8 61H24.6V21.9C24.6 21.6 24.9 21.3 25.2 21.3H51.3C51.6 21.3 51.9 21.6 51.9 21.9L51.8 61Z" fill="#FAA61A"/>
<path d="M51.2 21.3999H46.1C46.4 21.3999 46.7 21.6999 46.7 21.9999V60.9999H51.8V21.8999C51.8 21.5999 51.5 21.3999 51.2 21.3999Z" fill="#F77E07"/>
<path d="M32.4 32.1001H28.4C28.3 32.1001 28.2 32.0001 28.2 31.9001V26.3001C28.2 26.2001 28.3 26.1001 28.4 26.1001H32.4C32.5 26.1001 32.6 26.2001 32.6 26.3001V32.0001C32.5 32.1001 32.5 32.1001 32.4 32.1001Z" fill="white"/>
<path d="M40.2 32.1001H36.2C36.1 32.1001 36 32.0001 36 31.9001V26.3001C36 26.2001 36.1 26.1001 36.2 26.1001H40.2C40.3 26.1001 40.4 26.2001 40.4 26.3001V32.0001C40.3 32.1001 40.3 32.1001 40.2 32.1001Z" fill="white"/>
<path d="M48 32.1001H44C43.9 32.1001 43.8 32.0001 43.8 31.9001V26.3001C43.8 26.2001 43.9 26.1001 44 26.1001H48C48.1 26.1001 48.2 26.2001 48.2 26.3001V32.0001C48.1 32.1001 48.1 32.1001 48 32.1001Z" fill="white"/>
<path d="M32.4 43.6001H28.4C28.3 43.6001 28.2 43.5001 28.2 43.4001V37.8001C28.2 37.7001 28.3 37.6001 28.4 37.6001H32.4C32.5 37.6001 32.6 37.7001 32.6 37.8001V43.4001C32.5 43.6001 32.5 43.6001 32.4 43.6001Z" fill="white"/>
<path d="M40.2 43.6001H36.2C36.1 43.6001 36 43.5001 36 43.4001V37.8001C36 37.7001 36.1 37.6001 36.2 37.6001H40.2C40.3 37.6001 40.4 37.7001 40.4 37.8001V43.4001C40.3 43.6001 40.3 43.6001 40.2 43.6001Z" fill="white"/>
<path d="M48 43.6001H44C43.9 43.6001 43.8 43.5001 43.8 43.4001V37.8001C43.8 37.7001 43.9 37.6001 44 37.6001H48C48.1 37.6001 48.2 37.7001 48.2 37.8001V43.4001C48.1 43.6001 48.1 43.6001 48 43.6001Z" fill="white"/>
<path d="M32.4 55.1001H28.4C28.3 55.1001 28.2 55.0001 28.2 54.9001V49.3001C28.2 49.2001 28.3 49.1001 28.4 49.1001H32.4C32.5 49.1001 32.6 49.2001 32.6 49.3001V55.0001C32.5 55.1001 32.5 55.1001 32.4 55.1001Z" fill="white"/>
<path d="M40.2 55.1001H36.2C36.1 55.1001 36 55.0001 36 54.9001V49.3001C36 49.2001 36.1 49.1001 36.2 49.1001H40.2C40.3 49.1001 40.4 49.2001 40.4 49.3001V55.0001C40.3 55.1001 40.3 55.1001 40.2 55.1001Z" fill="white"/>
<path d="M48 55.1001H44C43.9 55.1001 43.8 55.0001 43.8 54.9001V49.3001C43.8 49.2001 43.9 49.1001 44 49.1001H48C48.1 49.1001 48.2 49.2001 48.2 49.3001V55.0001C48.1 55.1001 48.1 55.1001 48 55.1001Z" fill="white"/>
<path d="M18.3 50.8H11.4V60H18.3V50.8Z" fill="#DEDEDE"/>
<path d="M17.3 51.8V59H12.4V51.8H17.3ZM18.8 49.8H10.9C10.6 49.8 10.4 50.0001 10.4 50.2001V61H19.3V50.2001C19.3 50.0001 19.1 49.8 18.8 49.8Z" fill="#C2C2C2"/>
<path d="M56.9 60.3H6.5C5.7 60.3 5 61 5 61.8C5 62.6 5.7 63.3 6.5 63.3H56.8C57.6 63.3 58.3 62.6 58.3 61.8C58.4 61 57.7 60.3 56.9 60.3Z" fill="#0C152A"/>
<path d="M12.0084 52.6205L11.867 52.762L17.8066 58.7016L17.9481 58.5602L12.0084 52.6205Z" fill="#DEDEDE"/>
<path d="M12 51.2L10.4 52.7999L17.8 60.0999L19.3 58.5999L12 51.2Z" fill="#C2C2C2"/>
<path d="M18.3 41.7H11.4V50.9H18.3V41.7Z" fill="#DEDEDE"/>
<path d="M17.3 42.7V49.9H12.4V42.7H17.3ZM18.8 40.7H10.9C10.6 40.7 10.4 40.8999 10.4 41.0999V51.9H19.3V41.0999C19.3 40.8999 19.1 40.7 18.8 40.7Z" fill="#C2C2C2"/>
<path d="M12.0304 43.5117L11.889 43.6531L17.8286 49.5927L17.97 49.4513L12.0304 43.5117Z" fill="#DEDEDE"/>
<path d="M12 42.1001L10.4 43.6001L17.8 51.0001L19.3 49.4001L12 42.1001Z" fill="#C2C2C2"/>
<path d="M18.3 32.6001H11.4V41.8001H18.3V32.6001Z" fill="#DEDEDE"/>
<path d="M17.3 33.6001V40.8001H12.4V33.6001H17.3ZM18.8 31.6001H10.9C10.6 31.6001 10.4 31.8001 10.4 32.0001V42.8001H19.3V31.9001C19.3 31.7001 19.1 31.6001 18.8 31.6001Z" fill="#C2C2C2"/>
<path d="M11.9817 34.3317L11.8403 34.4731L17.7799 40.4128L17.9213 40.2714L11.9817 34.3317Z" fill="#DEDEDE"/>
<path d="M12 33L10.4 34.5L17.8 41.8L19.3 40.3L12 33Z" fill="#C2C2C2"/>
<path d="M18.3 23.3999H11.4V32.5999H18.3V23.3999Z" fill="#DEDEDE"/>
<path d="M17.3 24.3999V31.5999H12.4V24.3999H17.3ZM18.8 22.3999H10.9C10.6 22.3999 10.4 22.5999 10.4 22.7999V33.5999H19.3V22.7999C19.3 22.5999 19.1 22.3999 18.8 22.3999Z" fill="#C2C2C2"/>
<path d="M12.0037 25.2226L11.8622 25.364L17.8019 31.3037L17.9433 31.1622L12.0037 25.2226Z" fill="#DEDEDE"/>
<path d="M12 23.8999L10.4 25.3999L17.8 32.6999L19.3 31.1999L12 23.8999Z" fill="#C2C2C2"/>
<path d="M18.3 7.3999H11.4V16.5999H18.3V7.3999Z" fill="#DEDEDE"/>
<path d="M17.3 8.3999V15.5999H12.4V8.3999H17.3ZM18.8 6.3999H10.9C10.6 6.3999 10.4 6.5999 10.4 6.7999V17.5999H19.3V6.7999C19.3 6.5999 19.1 6.3999 18.8 6.3999Z" fill="#C2C2C2"/>
<path d="M12.023 9.21503L11.8816 9.35645L17.8212 15.2961L17.9627 15.1547L12.023 9.21503Z" fill="#DEDEDE"/>
<path d="M12 7.80005L10.4 9.40005L17.8 16.7L19.3 15.1L12 7.80005Z" fill="#C2C2C2"/>
<path d="M15.9 16.5H6.70001V23.4H15.9V16.5Z" fill="#DEDEDE"/>
<path d="M14.9 17.5V22.4H7.70001V17.5H14.9ZM16.9 16C16.9 15.7 16.7 15.5 16.5 15.5H6.30001C6.00001 15.5 5.70001 15.8 5.70001 16.1V23.9C5.70001 24.2 6.00001 24.5 6.30001 24.5H16.6C16.8 24.5 17 24.3 17 24V16H16.9Z" fill="#C2C2C2"/>
<path d="M8.19129 16.9528L8.04987 17.0942L13.9895 23.0339L14.1309 22.8925L8.19129 16.9528Z" fill="#DEDEDE"/>
<path d="M15.5 22.9001L14 24.4001L6.70001 17.1001L8.20001 15.6001L15.5 22.9001Z" fill="#C2C2C2"/>
<path d="M25 16.5H15.8V23.4H25V16.5Z" fill="#DEDEDE"/>
<path d="M24.1 17.5V22.4H16.9V17.5H24.1ZM26.1 16C26.1 15.7 25.9 15.5 25.7 15.5H14.8V24.4H25.6C25.8 24.4 26 24.2 26 23.9V16H26.1Z" fill="#C2C2C2"/>
<path d="M17.3002 16.9748L17.1588 17.1162L23.0985 23.0559L23.2399 22.9144L17.3002 16.9748Z" fill="#DEDEDE"/>
<path d="M24.6 22.9001L23.1 24.4001L15.8 17.1001L17.3 15.6001L24.6 22.9001Z" fill="#C2C2C2"/>
<path d="M25 23.5H33.2L27.2 16.5H25V23.5Z" fill="#DEDEDE"/>
<path d="M26.2 17.5L30.2 22.4H26V17.5H26.2ZM27.4 15.5H24V24.4H33.9C34.3 24.4 34.5 24 34.3 23.6C32.9 21.7 29.1 17 28.1 15.7C27.9 15.6 27.7 15.5 27.4 15.5Z" fill="#C2C2C2"/>
<path d="M5.7 13.6001H0.5V28.1001H5.7V13.6001Z" fill="#818181"/>
<path d="M6.7 15.5H-0.5V17.5H6.7V15.5Z" fill="#C2C2C2"/>
<path d="M6.7 22.5H-0.5V24.5H6.7V22.5Z" fill="#C2C2C2"/>
</g>
</g>
<defs>
<clipPath id="clip0_80_3566">
<rect width="64" height="64" fill="white" transform="translate(0.5)"/>
</clipPath>
<clipPath id="clip1_80_3566">
<rect width="66.4" height="63.3" fill="white" transform="translate(-0.5)"/>
</clipPath>
</defs>
</svg>
