<svg width="64" height="64" viewBox="0 0 64 64" fill="none" xmlns="http://www.w3.org/2000/svg">
<g clip-path="url(#clip0_1_2536)">
<path fill-rule="evenodd" clip-rule="evenodd" d="M12 4C7.58172 4 4 7.58172 4 12V40C4 44.4183 7.58172 48 12 48H30.7217C30.6852 47.5604 30.6667 47.1158 30.6667 46.667C30.6667 37.8452 37.8443 30.6667 46.667 30.6667C50.7609 30.6667 54.5006 32.2125 57.3333 34.751V26V12C57.3333 7.58172 53.7516 4 49.3333 4H12ZM56.1391 39.6533C56.052 39.5288 55.9528 39.4103 55.8415 39.2993C55.0678 38.5272 53.9308 38.3397 52.9806 38.7363L56.1391 39.6533ZM36.615 45.7873C36.3687 45.91 36.1378 46.0739 35.9326 46.279C35.8339 46.3775 35.7447 46.4819 35.6651 46.5911L36.615 45.7873Z" fill="#00AEEF"/>
<path d="M38 4H51.3333V20L44.6667 15L38 20V4Z" fill="white"/>
<path d="M47.3336 34.6667C40.3489 34.6667 34.6667 40.3497 34.6667 47.3337C34.6667 54.3171 40.3489 60.0001 47.3336 60.0001C54.3177 60.0001 60 54.3171 60 47.3337C60 40.3497 54.3177 34.6667 47.3336 34.6667ZM54.5984 44.4273L46.3945 52.6265C45.7425 53.2775 44.8762 53.6364 43.9543 53.6364H43.9533C43.0319 53.6364 42.1651 53.278 41.5137 52.6276L38.8355 49.9529C38.0259 49.145 38.0259 47.8343 38.8355 47.0265C39.6446 46.2181 40.9572 46.2181 41.7663 47.0265L43.9533 49.2097L51.666 41.502C52.4751 40.6936 53.7872 40.693 54.5968 41.5009C55.4064 42.3087 55.4069 43.6189 54.5984 44.4273Z" fill="#00AEEF"/>
</g>
<defs>
<clipPath id="clip0_1_2536">
<rect width="56" height="56" fill="white" transform="translate(4 4)"/>
</clipPath>
</defs>
</svg>
