<svg width="64" height="64" viewBox="0 0 64 64" fill="none" xmlns="http://www.w3.org/2000/svg">
<g clip-path="url(#clip0_80_3637)">
<g clip-path="url(#clip1_80_3637)">
<path d="M62.5 24.7L57.6 23.6C57.2 22.3 56.6 21 56 19.8L58.7 15.6C59.2 14.8 59.1 13.8 58.4 13.2L50.7 5.5C50.1 4.9 49.1 4.8 48.3 5.2L44.2 8C43 7.4 41.7 6.8 40.4 6.4L39.3 1.5C39.1 0.6 38.3 0 37.4 0H26.6C25.7 0 24.9 0.6 24.7 1.5L23.6 6.4C22.3 6.8 21 7.4 19.8 8L15.6 5.3C14.8 4.8 13.8 4.9 13.2 5.6L5.5 13.3C4.9 13.9 4.8 14.9 5.2 15.7L8 19.8C7.4 21 6.8 22.3 6.4 23.6L1.5 24.7C0.6 24.9 0 25.7 0 26.6V37.4C0 38.3 0.6 39.1 1.5 39.3L6.4 40.4C6.8 41.7 7.4 43 8 44.2L5.3 48.4C4.8 49.2 4.9 50.2 5.6 50.8L13.3 58.5C13.9 59.1 14.9 59.2 15.7 58.8L19.9 56.1C21.1 56.7 22.4 57.3 23.7 57.7L24.8 62.6C25 63.5 25.8 64.1 26.7 64.1H37.5C38.4 64.1 39.2 63.5 39.4 62.6L40.5 57.7C41.8 57.3 43.1 56.7 44.3 56.1L48.5 58.8C49.3 59.3 50.3 59.2 50.9 58.5L58.6 50.8C59.2 50.2 59.3 49.2 58.9 48.4L56 44.2C56.6 43 57.2 41.7 57.6 40.4L62.5 39.3C63.4 39.1 64 38.3 64 37.4V26.6C64 25.7 63.4 24.9 62.5 24.7Z" fill="#FAA61A"/>
<path d="M32 54.0001C44.1503 54.0001 54 44.1503 54 32C54 19.8498 44.1503 10 32 10C19.8497 10 9.99994 19.8498 9.99994 32C9.99994 44.1503 19.8497 54.0001 32 54.0001Z" fill="#00AEEF"/>
<path d="M32 45.7999C39.6215 45.7999 45.8 39.6215 45.8 32C45.8 24.3784 39.6215 18.2 32 18.2C24.3785 18.2 18.2 24.3784 18.2 32C18.2 39.6215 24.3785 45.7999 32 45.7999Z" fill="white"/>
<path d="M28 34.6V36.4H22.7V28H28V29.8H24.7V31.2H27.7V33H24.7V34.5H28V34.6Z" fill="#ED145B"/>
<path d="M31.9 33.7001H31V36.5001H29.1V28.1001H32.5C34.1 28.1001 35.4 29.4001 35.4 31.0001C35.4 32.0001 34.8 33.0001 33.9 33.4001L35.7 36.5001H33.6L31.9 33.7001ZM31 32.0001H32.4C32.9 32.0001 33.4 31.5001 33.4 30.9001C33.4 30.3001 33 29.8001 32.4 29.8001H31V32.0001Z" fill="#ED145B"/>
<path d="M42.6 31.0001C42.6 32.6001 41.3 33.9001 39.7 33.9001H38.4V36.5001H36.5V28.1001H39.7C41.3 28.1001 42.6 29.4001 42.6 31.0001ZM40.7 31.0001C40.7 30.4001 40.3 29.9001 39.7 29.9001H38.4V32.0001H39.7C40.2 32.0001 40.7 31.6001 40.7 31.0001Z" fill="#ED145B"/>
</g>
</g>
<defs>
<clipPath id="clip0_80_3637">
<rect width="64" height="64" fill="white"/>
</clipPath>
<clipPath id="clip1_80_3637">
<rect width="64" height="64" fill="white"/>
</clipPath>
</defs>
</svg>
