<svg width="64" height="64" viewBox="0 0 64 64" fill="none" xmlns="http://www.w3.org/2000/svg">
<path d="M24.0116 16.1939C32.8545 16.1939 40.0231 13.9119 40.0231 11.097C40.0231 8.28198 32.8545 6 24.0116 6C15.1686 6 8 8.28198 8 11.097C8 13.9119 15.1686 16.1939 24.0116 16.1939Z" fill="#00AEEF"/>
<path d="M36.4739 28.2339C33.1277 29.4446 28.7073 30.1115 24.0132 30.1115C19.3191 30.1115 14.8932 29.4446 11.5469 28.2339C9.99622 27.6732 8.82872 27.0624 8.00818 26.4424V34.5569C8.00818 36.6851 14.071 39.6534 23.9913 39.6534C26.4263 39.6636 28.8574 39.4607 31.257 39.0473V33.7711C31.2639 33.3687 31.4881 33.0017 31.8427 32.8116L40 29.4999L40.0094 26.4424C39.1889 27.0629 38.0245 27.6732 36.4739 28.2339ZM27.0175 36.1522H21.0001C20.396 36.1522 19.9061 35.6623 19.9061 35.0581C19.9061 34.4539 20.396 33.964 21.0001 33.964H27.0175C27.6217 33.964 28.1115 34.4539 28.1115 35.0581C28.1115 35.6623 27.6218 36.1522 27.0175 36.1522Z" fill="#00AEEF"/>
<path d="M36.4737 16.5029C33.1265 17.7145 28.7059 18.3816 24.0134 18.3816C19.321 18.3816 14.8948 17.7145 11.5477 16.5029C9.99674 15.9422 8.82897 15.3313 8.00842 14.7114V22.827C8.00842 24.9551 14.0887 27.9236 24.0091 27.9236C33.9294 27.9236 40.0097 24.9551 40.0097 22.827V14.7114C39.189 15.3319 38.0244 15.9422 36.4737 16.5029ZM27.0176 23.981H21.0003C20.3961 23.981 19.9062 23.4911 19.9062 22.8869C19.9062 22.2827 20.3961 21.7929 21.0003 21.7929H27.0176C27.6218 21.7929 28.1116 22.2827 28.1116 22.8869C28.1116 23.4911 27.6219 23.981 27.0176 23.981Z" fill="#00AEEF"/>
<path d="M31.257 42.9618V41.2671C28.8544 41.6588 26.4234 41.8508 23.9891 41.8415C19.2951 41.8415 14.8934 41.1747 11.5469 39.9638C9.99622 39.4026 8.82872 38.7918 8.00818 38.1719V46.3682C8.00818 48.4964 14.0951 51.4647 24.0154 51.4647C26.6295 51.4744 28.4292 51.4742 31 51.0001C31.3966 50.9242 31.7593 50.8413 32.1378 50.7539C31.0319 48.387 31.2648 45.5743 31.257 42.9618ZM27.0175 48.0503H21.0001C20.396 48.0503 19.9061 47.5604 19.9061 46.9562C19.9061 46.352 20.396 45.8622 21.0001 45.8622H27.0175C27.6217 45.8622 28.1115 46.352 28.1115 46.9562C28.1115 47.5604 27.6218 48.0503 27.0175 48.0503Z" fill="#00AEEF"/>
<path fill-rule="evenodd" clip-rule="evenodd" d="M46.2398 30.0359L57.4057 33.4485C57.7585 33.5562 58 33.887 58 34.2622V46.775C58 48.4026 57.3533 50.0686 56.0778 51.7268C55.1036 52.9933 53.7559 54.2651 52.0721 55.5068C49.2434 57.5928 46.458 58.8724 46.3409 58.9258C46.2325 58.9753 46.1163 59 46.0001 59C45.8839 59 45.7677 58.9752 45.6593 58.9258C45.5421 58.8724 42.7567 57.5928 39.928 55.5068C38.2442 54.2651 36.8964 52.9933 35.9223 51.7268C34.6468 50.0686 34 48.4025 34 46.775V34.2622C34 33.887 34.2416 33.5562 34.5943 33.4485L45.7604 30.0359C45.9168 29.988 46.0835 29.988 46.2398 30.0359ZM46.9557 47.0843L52.4838 41.2022C53.1725 40.4692 53.1721 39.2814 52.4825 38.549C51.7929 37.8166 50.6753 37.8171 49.9861 38.55L44.8764 43.9866L43.0135 42.0072C42.3244 41.2743 41.2063 41.2743 40.5172 42.0072C39.8276 42.7396 39.8276 43.9279 40.5172 44.6604L42.7984 47.0853C43.3533 47.6751 44.0916 48 44.8764 48H44.8773C45.6625 48 46.4004 47.6746 46.9557 47.0843Z" fill="#00AEEF"/>
</svg>
