<svg width="64" height="64" viewBox="0 0 64 64" fill="none" xmlns="http://www.w3.org/2000/svg">
<path d="M45.1855 29.9648H1.83588C0.822 29.9648 0 30.7866 0 31.8003V62.114C0 63.1556 0.844625 64 1.8865 64H16.3123L23.5144 60.3288L30.753 64H45.1348C46.1766 64 47.0213 63.1556 47.0213 62.114V31.8003C47.0214 30.7866 46.1994 29.9648 45.1855 29.9648Z" fill="#00AEEF"/>
<path d="M5.87862 37.6774C9.12525 37.6774 11.7572 35.0462 11.7572 31.8003C11.7572 35.0462 14.3893 37.6774 17.6359 37.6774C20.8825 37.6774 23.5145 35.0462 23.5145 31.8003C23.5145 35.0462 26.1465 37.6774 29.3931 37.6774C32.6398 37.6774 35.2718 35.0462 35.2718 31.8003C35.2718 35.0462 37.9036 37.6774 41.1504 37.6774C44.397 37.6774 47.029 35.0462 47.029 31.8003V26.4667L23.5145 24.0193L0 26.4667V31.8003C0 35.0462 2.632 37.6774 5.87862 37.6774Z" fill="#ED145B"/>
<path d="M46.7889 25.5593L41.804 16.7967C41.4776 16.2229 40.8683 15.8687 40.2081 15.8687H6.82062C6.1605 15.8687 5.55113 16.223 5.22475 16.7967L0.24 25.5593C0.08275 25.8358 0 26.1485 0 26.4667H47.0289C47.0289 26.1485 46.9461 25.8358 46.7889 25.5593Z" fill="#ED145B"/>
<path d="M28.9173 48.8694H18.1483C17.1344 48.8694 16.3124 49.6911 16.3124 50.7049V63.9999H30.7531V50.7049C30.7531 49.6911 29.9311 48.8694 28.9173 48.8694Z" fill="white"/>
<path d="M47.0214 33.949C56.3984 33.949 64 26.3493 64 16.9745C64 7.59974 56.3984 0 47.0214 0C37.6443 0 30.0428 7.59974 30.0428 16.9745C30.0428 26.3493 37.6443 33.949 47.0214 33.949Z" fill="#FAA61A"/>
<path d="M49.0104 15.1204C47.8253 14.7016 46.5193 14.1994 45.8195 13.6507C45.7781 13.6183 45.6986 13.4067 45.7565 13.0997C45.7849 12.9491 45.915 12.4464 46.3979 12.3009C47.4295 11.9901 48.1209 12.3901 48.3703 12.5764C49.2046 13.2002 50.3868 13.0294 51.0108 12.1953C51.6346 11.3611 51.464 10.1791 50.6295 9.55543C50.3565 9.3513 49.7253 8.93493 48.8245 8.66593V8.52443C48.8245 7.4828 47.9799 6.63843 46.938 6.63843C45.8961 6.63843 45.0515 7.4828 45.0515 8.52443V8.77693C43.5074 9.3443 42.3676 10.7091 42.0486 12.4011C41.7359 14.0599 42.2885 15.6759 43.4909 16.6187C44.617 17.5018 46.2049 18.1298 47.7529 18.6769C48.4813 18.9343 48.7899 19.4251 48.6705 20.1356C48.5785 20.6823 48.1075 21.6099 46.9255 21.6178C45.69 21.6261 45.3978 21.5803 44.4958 20.9903C43.6239 20.4202 42.4545 20.6644 41.8843 21.5362C41.3139 22.4078 41.5584 23.5768 42.4303 24.1471C43.4163 24.7919 44.1985 25.1136 45.0515 25.2659V25.4243C45.0515 26.4659 45.8961 27.3103 46.938 27.3103C47.9799 27.3103 48.8245 26.4659 48.8245 25.4243V25.0527C50.6565 24.3843 52.052 22.7788 52.3913 20.7609C52.8134 18.2509 51.4546 15.9843 49.0104 15.1204Z" fill="white"/>
</svg>
