<svg width="64" height="64" viewBox="0 0 64 64" fill="none" xmlns="http://www.w3.org/2000/svg">
<g clip-path="url(#clip0_1_2562)">
<path d="M55.2917 45.1241L49.6743 45.1244C47.7313 48.1497 44.4746 50.7105 41.4302 52.626H55.2917V58.2491L64 48.876L55.2917 39.501V45.1241Z" fill="#00AEEF"/>
<path d="M29.5361 52.6593C41.2185 52.5801 50.6667 43.1615 50.6667 31.5465C50.6667 20.5307 42.1668 11.4945 31.3236 10.5233V4.6665L19.7177 14.2665L31.3236 23.8646V18.3006C37.868 19.2422 42.9294 24.7939 42.9294 31.5465C42.9294 38.9566 36.8545 44.9865 29.3892 44.9865H0V52.6665H29.5449C29.541 52.6642 29.5399 52.6616 29.5361 52.6593Z" fill="#00AEEF"/>
<path d="M20.677 42.7093C18.2355 40.3243 16.7083 37.0083 16.7083 33.3343C16.7083 28.9764 18.8667 25.1348 22.1463 22.7464L16.2542 17.8369C11.9437 21.6172 9.20833 27.1507 9.20833 33.3343C9.20833 36.7224 10.0783 39.8893 11.526 42.7093H20.677Z" fill="#00AEEF"/>
<circle cx="49.3333" cy="21.3333" r="13.3333" fill="#00AEEF"/>
<path d="M56.8419 19.7921H55.4705C55.318 19.1829 55.0774 18.6089 54.7627 18.0842L55.7327 17.1141C55.9246 16.9222 55.9246 16.611 55.7327 16.4191L54.2478 14.9342C54.0559 14.7423 53.7447 14.7423 53.5528 14.9342L52.5827 15.9042C52.058 15.5895 51.4839 15.3488 50.8748 15.1964V13.825C50.8748 13.5535 50.6548 13.3335 50.3834 13.3335H48.2834C48.012 13.3335 47.7919 13.5535 47.7919 13.825V15.1964C47.1828 15.3489 46.6087 15.5895 46.084 15.9042L45.1139 14.9342C44.922 14.7423 44.6109 14.7423 44.419 14.9342L42.9341 16.4191C42.7422 16.611 42.7422 16.9222 42.9341 17.1141L43.904 18.0842C43.5893 18.6089 43.3487 19.1829 43.1962 19.7921H41.8248C41.5534 19.7921 41.3333 20.0121 41.3333 20.2835V22.3835C41.3333 22.6549 41.5534 22.875 41.8248 22.875H43.1962C43.3487 23.4841 43.5894 24.0582 43.904 24.5829L42.9341 25.5529C42.7422 25.7449 42.7422 26.056 42.9341 26.2479L44.419 27.7328C44.6109 27.9247 44.922 27.9247 45.1139 27.7328L46.084 26.7628C46.6087 27.0775 47.1828 27.3182 47.7919 27.4706V28.842C47.7919 29.1135 48.012 29.3335 48.2834 29.3335H50.3834C50.6548 29.3335 50.8748 29.1135 50.8748 28.842V27.4706C51.4839 27.3181 52.058 27.0775 52.5827 26.7628L53.5528 27.7328C53.7447 27.9247 54.0559 27.9247 54.2478 27.7328L55.7327 26.2479C55.9246 26.056 55.9246 25.7448 55.7327 25.5529L54.7627 24.5829C55.0774 24.0582 55.3181 23.4841 55.4705 22.875H56.8419C57.1134 22.875 57.3334 22.6549 57.3334 22.3835V20.2835C57.3334 20.0121 57.1134 19.7921 56.8419 19.7921ZM49.3335 23.8644C47.9357 23.8644 46.8026 22.7313 46.8026 21.3335C46.8026 19.9358 47.9357 18.8026 49.3335 18.8026C50.7312 18.8026 51.8644 19.9357 51.8644 21.3335C51.8643 22.7313 50.7312 23.8644 49.3335 23.8644Z" fill="white"/>
</g>
<defs>
<clipPath id="clip0_1_2562">
<rect width="64" height="64" fill="white"/>
</clipPath>
</defs>
</svg>
