<svg width="64" height="64" viewBox="0 0 64 64" fill="none" xmlns="http://www.w3.org/2000/svg">
<g clip-path="url(#clip0_80_3677)">
<path d="M1.6875 29.8337H19.8125V62.3337H1.6875V29.8337Z" fill="#00AEEF"/>
<path d="M0 28.9587C0 28.4065 0.447715 27.9587 1 27.9587H18.8125C19.3648 27.9587 19.8125 28.4065 19.8125 28.9587V30.7087C19.8125 31.261 19.3648 31.7087 18.8125 31.7087H1C0.447716 31.7087 0 31.261 0 30.7087V28.9587Z" fill="#0094DE"/>
<path d="M18 11H62V62H18V11Z" fill="#FAA61A"/>
<path d="M16.25 10C16.25 9.44772 16.6977 9 17.25 9H63C63.5523 9 64 9.44772 64 10V11.75C64 12.3023 63.5523 12.75 63 12.75H17.25C16.6977 12.75 16.25 12.3023 16.25 11.75V10Z" fill="#F77E07"/>
<path d="M9.8125 36.0837H13.5625V39.8337H9.8125V36.0837Z" fill="#F0F7FF"/>
<path d="M9.8125 44.2087H13.5625V47.9587H9.8125V44.2087Z" fill="#F0F7FF"/>
<path d="M9.8125 52.3337H13.5625V56.0837H9.8125V52.3337Z" fill="#F0F7FF"/>
<path d="M42 46C42 45.4477 42.4477 45 43 45H45C45.5523 45 46 45.4477 46 46V49C46 49.5523 45.5523 50 45 50H43C42.4477 50 42 49.5523 42 49V46Z" fill="white"/>
<path d="M50 46C50 45.4477 50.4477 45 51 45H53C53.5523 45 54 45.4477 54 46V49C54 49.5523 53.5523 50 53 50H51C50.4477 50 50 49.5523 50 49V46Z" fill="white"/>
<path d="M34 46C34 45.4477 34.4477 45 35 45H37C37.5523 45 38 45.4477 38 46V49C38 49.5523 37.5523 50 37 50H35C34.4477 50 34 49.5523 34 49V46Z" fill="white"/>
<path d="M26 46C26 45.4477 26.4477 45 27 45H29C29.5523 45 30 45.4477 30 46V49C30 49.5523 29.5523 50 29 50H27C26.4477 50 26 49.5523 26 49V46Z" fill="white"/>
<path d="M50 36C50 35.4477 50.4477 35 51 35H53C53.5523 35 54 35.4477 54 36V39C54 39.5523 53.5523 40 53 40H51C50.4477 40 50 39.5523 50 39V36Z" fill="white"/>
<path d="M50 27C50 26.4477 50.4477 26 51 26H53C53.5523 26 54 26.4477 54 27V30C54 30.5523 53.5523 31 53 31H51C50.4477 31 50 30.5523 50 30V27Z" fill="white"/>
<path d="M42 36C42 35.4477 42.4477 35 43 35H45C45.5523 35 46 35.4477 46 36V39C46 39.5523 45.5523 40 45 40H43C42.4477 40 42 39.5523 42 39V36Z" fill="white"/>
<path d="M42 27C42 26.4477 42.4477 26 43 26H45C45.5523 26 46 26.4477 46 27V30C46 30.5523 45.5523 31 45 31H43C42.4477 31 42 30.5523 42 30V27Z" fill="white"/>
<path d="M30 0C28.8954 0 28 0.895431 28 2V22C28 23.1046 28.8954 24 30 24H50C51.1046 24 52 23.1046 52 22V2C52 0.89543 51.1046 0 50 0H30Z" fill="#ED145B"/>
<path d="M46 9.95779V14.0422H42.0422V18H37.9578V14.0422H34V9.95779H37.9578V6H42.0422V9.95779H46Z" fill="white"/>
<path d="M34 36C34 35.4477 34.4477 35 35 35H37C37.5523 35 38 35.4477 38 36V39C38 39.5523 37.5523 40 37 40H35C34.4477 40 34 39.5523 34 39V36Z" fill="white"/>
<path d="M34 27C34 26.4477 34.4477 26 35 26H37C37.5523 26 38 26.4477 38 27V30C38 30.5523 37.5523 31 37 31H35C34.4477 31 34 30.5523 34 30V27Z" fill="white"/>
<path d="M26 36C26 35.4477 26.4477 35 27 35H29C29.5523 35 30 35.4477 30 36V39C30 39.5523 29.5523 40 29 40H27C26.4477 40 26 39.5523 26 39V36Z" fill="white"/>
<path d="M26 27C26 26.4477 26.4477 26 27 26H29C29.5523 26 30 26.4477 30 27V30C30 30.5523 29.5523 31 29 31H27C26.4477 31 26 30.5523 26 30V27Z" fill="white"/>
<path d="M0 61.875C0 60.8395 0.839466 60 1.875 60H62.125C63.1605 60 64 60.8395 64 61.875C64 62.9105 63.1605 63.75 62.125 63.75H1.875C0.839466 63.75 0 62.9105 0 61.875Z" fill="#0C152A"/>
</g>
<defs>
<clipPath id="clip0_80_3677">
<rect width="64" height="64" fill="white"/>
</clipPath>
</defs>
</svg>
