<svg width="64" height="64" viewBox="0 0 64 64" fill="none" xmlns="http://www.w3.org/2000/svg">
<g clip-path="url(#clip0_80_3680)">
<path d="M46.9753 51.4884L57.4396 45.3989C57.8934 45.1345 58.3937 45.0069 58.8888 45.0069C59.7307 45.0069 60.5585 45.3744 61.1219 46.0654C62.1586 47.3316 61.9342 49.2037 60.6307 50.1913L45.0349 61.9888C43.4129 63.2149 41.435 63.8789 39.4018 63.8789H36.3009C35.0644 63.8789 33.8408 63.6327 32.6998 63.1556L21.235 58.3619H12.5191L5.35809 58.3838V46.0435H12.5191H15.5361C17.6455 43.9342 20.5065 42.7493 23.4888 42.7493H23.7466C26.7289 42.7493 29.5886 43.9342 31.698 46.0435L32.3607 46.705H40.8858C42.2228 46.705 43.4877 47.1227 44.5346 47.8525C45.5803 48.5835 46.408 49.6292 46.8683 50.8837C46.9392 51.0771 46.9753 51.2821 46.9753 51.4884Z" fill="#FAA61A"/>
<path d="M45.3543 54.3762C46.5936 54.3762 47.7897 53.5295 48.4657 52.7644C49.1854 51.9498 49.5094 51.0887 49.3867 50.3255L49.3819 50.0879L47.0493 51.4453C47.0188 51.481 46.9869 51.5171 46.9524 51.5541C46.4328 52.1087 45.7335 52.4814 45.2875 52.4391C45.2574 52.4363 45.2274 52.4349 45.1972 52.4349H34.4184C33.8843 52.4349 33.4514 52.8678 33.4514 53.4019C33.4514 53.9359 33.8843 54.3689 34.4184 54.3689H45.1572C45.223 54.3739 45.2885 54.3762 45.3543 54.3762Z" fill="#EE990B"/>
<path d="M12.4663 58.5733V54.1006H12.5194V45.3724C12.5194 44.2442 11.6048 43.3296 10.4766 43.3296H3.19275V61.0756H10.4767C11.6049 61.0756 12.5196 60.1611 12.5196 59.0328V58.52L12.4663 58.5733Z" fill="#00AEEF"/>
<path d="M3.19277 63.9999C2.65873 63.9999 2.22577 63.567 2.22577 63.0329V41.3852C2.22577 40.8512 2.65873 40.4182 3.19277 40.4182C3.72682 40.4182 4.15978 40.8512 4.15978 41.3852V63.0329C4.15978 63.567 3.72682 63.9999 3.19277 63.9999Z" fill="#00AEEF"/>
<path d="M51.1019 3.81618C46.0135 -1.27206 37.7638 -1.27206 32.6756 3.81618L32.3463 4.14535L32.017 3.81618C26.9287 -1.27206 18.6789 -1.27206 13.5907 3.81618C8.50241 8.90442 8.50241 17.1542 13.5907 22.2425L30.0743 38.7262C31.3291 39.9809 33.3634 39.9809 34.6181 38.7262L51.1017 22.2425C56.1901 17.1542 56.1901 8.90455 51.1019 3.81618Z" fill="#ED145B"/>
<path d="M32.3517 30.8881C38.7471 30.8881 43.9316 25.7036 43.9316 19.3082C43.9316 12.9128 38.7471 7.72827 32.3517 7.72827C25.9562 7.72827 20.7717 12.9128 20.7717 19.3082C20.7717 25.7036 25.9562 30.8881 32.3517 30.8881Z" fill="#F9F7F8"/>
<path d="M38.0722 17.4797H34.7002V14.1077C34.7002 13.834 34.4783 13.6121 34.2046 13.6121H30.4879C30.2142 13.6121 29.9923 13.834 29.9923 14.1077V17.4797H26.6203C26.3466 17.4797 26.1247 17.7016 26.1247 17.9753V21.692C26.1247 21.9657 26.3466 22.1876 26.6203 22.1876H29.9923V25.5596C29.9923 25.8333 30.2142 26.0552 30.4879 26.0552H34.2046C34.4783 26.0552 34.7002 25.8333 34.7002 25.5596V22.1876H38.0722C38.3459 22.1876 38.5678 21.9657 38.5678 21.692V17.9753C38.5677 17.7016 38.3458 17.4797 38.0722 17.4797Z" fill="#ED145B"/>
<path d="M57.1216 32.8167H54.9713V30.6665C54.9713 30.3627 54.725 30.1165 54.4213 30.1165H51.5903C51.2865 30.1165 51.0402 30.3627 51.0402 30.6665V32.8167H48.8899C48.5861 32.8167 48.3398 33.063 48.3398 33.3667V36.1977C48.3398 36.5015 48.5861 36.7478 48.8899 36.7478H51.0402V38.8981C51.0402 39.2019 51.2865 39.4482 51.5903 39.4482H54.4213C54.725 39.4482 54.9713 39.2019 54.9713 38.8981V36.7478H57.1216C57.4254 36.7478 57.6717 36.5015 57.6717 36.1977V33.3667C57.6717 33.063 57.4254 32.8167 57.1216 32.8167Z" fill="#ED145B"/>
<path d="M7.71062 32.8167H9.86084V30.6665C9.86084 30.3627 10.1071 30.1165 10.4109 30.1165H13.2419C13.5456 30.1165 13.7919 30.3627 13.7919 30.6665V32.8167H15.9423C16.246 32.8167 16.4923 33.063 16.4923 33.3667V36.1977C16.4923 36.5015 16.246 36.7478 15.9423 36.7478H13.7919V38.8981C13.7919 39.2019 13.5456 39.4482 13.2419 39.4482H10.4109C10.1071 39.4482 9.86084 39.2019 9.86084 38.8981V36.7478H7.71062C7.40685 36.7478 7.16058 36.5015 7.16058 36.1977V33.3667C7.16058 33.063 7.40685 32.8167 7.71062 32.8167Z" fill="#ED145B"/>
</g>
<defs>
<clipPath id="clip0_80_3680">
<rect width="64" height="64" fill="white"/>
</clipPath>
</defs>
</svg>
