<svg width="64" height="64" viewBox="0 0 64 64" fill="none" xmlns="http://www.w3.org/2000/svg">
<g clip-path="url(#clip0_1_2549)">
<path d="M29.4048 52.1625C24.9116 51.5881 20.8388 49.5863 17.6263 46.3739C11.0304 39.778 9.80086 29.5742 14.4945 21.6566L16.2119 22.831L15.7075 12.8135L6.56829 16.2361L8.15274 17.3196C1.38371 28.2875 2.99918 42.5949 12.2024 51.798C16.6268 56.2223 22.2388 58.9795 28.432 59.7714C29.6045 59.9213 30.7831 59.9954 31.9612 59.9954C36.8076 59.9954 41.6308 58.7405 45.8363 56.3479L42.0431 49.6807C38.2504 51.8382 33.7621 52.7198 29.4048 52.1625Z" fill="#00AEEF"/>
<path d="M51.7978 12.2021C47.3734 7.77785 41.7614 5.02065 35.5682 4.22891C29.5727 3.46216 23.3917 4.6782 18.1639 7.65238L21.9571 14.3196C25.7495 12.162 30.2379 11.28 34.5952 11.8378C39.0883 12.4122 43.1612 14.414 46.3737 17.6264C52.9696 24.2222 54.199 34.4261 49.5055 42.3437L47.7881 41.1693L48.2925 51.1868L57.4318 47.7642L55.8474 46.6807C62.6165 35.7128 61.0009 21.4053 51.7978 12.2021Z" fill="#00AEEF"/>
</g>
<path d="M32.0002 21.3335C26.1184 21.3335 21.3333 26.1192 21.3333 32.0004C21.3333 37.8812 26.1184 42.6668 32.0002 42.6668C37.8816 42.6668 42.6667 37.8812 42.6667 32.0004C42.6667 26.1192 37.8816 21.3335 32.0002 21.3335ZM38.1179 29.5529L31.2094 36.4575C30.6603 37.0057 29.9308 37.308 29.1545 37.308H29.1536C28.3778 37.308 27.6478 37.0062 27.0992 36.4584L24.844 34.206C24.1622 33.5257 24.1622 32.422 24.844 31.7417C25.5253 31.061 26.6306 31.061 27.312 31.7417L29.1536 33.5802L35.6486 27.0895C36.3299 26.4087 37.4348 26.4083 38.1166 27.0886C38.7983 27.7688 38.7988 28.8721 38.1179 29.5529Z" fill="#00AEEF"/>
<defs>
<clipPath id="clip0_1_2549">
<rect width="56" height="56" fill="white" transform="translate(4 4)"/>
</clipPath>
</defs>
</svg>
