<svg width="64" height="64" viewBox="0 0 64 64" fill="none" xmlns="http://www.w3.org/2000/svg">
<g clip-path="url(#clip0_80_3649)">
<g clip-path="url(#clip1_80_3649)">
<rect x="18" y="13" width="28" height="10" rx="2" fill="#F77E07"/>
<rect opacity="0.4" x="26" y="30" width="12" height="13" rx="2" fill="#F77E07"/>
<path opacity="0.4" d="M0 52.4944C0 49.1842 2.03863 46.2159 5.12817 45.0276L25.1766 37.3167C25.7012 37.1149 26.2864 37.1432 26.789 37.3945L31.1056 39.5528C31.6686 39.8343 32.3314 39.8343 32.8944 39.5528L37.211 37.3945C37.7136 37.1432 38.2988 37.1149 38.8234 37.3167L58.8718 45.0276C61.9614 46.2159 64 49.1842 64 52.4944V62C64 63.1046 63.1046 64 62 64H2C0.895431 64 0 63.1046 0 62V52.4944Z" fill="#F0F0F0"/>
<path opacity="0.4" d="M26 37L20 39.5L23 45L32 40L26 37Z" fill="#F0F0F0"/>
<path d="M10 43.2L20 39.5L30.4982 57.1561C30.8093 57.6793 31.3731 58 31.9818 58C32.61 58 33.1886 57.6587 33.4925 57.1088L43.5 39L54 43.2V62C54 63.1046 53.1046 64 52 64H10V43.2Z" fill="#ED145B"/>
<rect x="20" width="24" height="35" rx="11" fill="#FAA61A"/>
<path d="M18 6C18 2.68629 20.6863 0 24 0H40C43.3137 0 46 2.68629 46 6V15H18V6Z" fill="#00AEEF"/>
<path d="M18 8H46V11H18V8Z" fill="#0C152A"/>
<path d="M17 14H47V18H17V14Z" fill="#0C152A"/>
</g>
<g clip-path="url(#clip2_80_3649)">
<path d="M59.8 44.0001L40.1 37.1001C39.4 36.9001 38.7 36.9001 38.1 37.2001L31.6 40.5001L25.1 37.2001C24.5 36.9001 23.8 36.8001 23.1 37.1001L3.4 44.0001C1.4 44.7001 0 46.7001 0 48.8001V64.1001H31.6H63.2V48.8001C63.3 46.7001 61.9 44.7001 59.8 44.0001Z" fill="#F0F0F0"/>
<path d="M23.2 37.1001L19.5 38.4001L24 46.0001L31.7 40.6001L25.2 37.3001C24.5 37.0001 23.8 36.9001 23.2 37.1001Z" fill="#DEDEDE"/>
<path d="M40.1 37.1001C39.4 36.9001 38.7 36.9001 38.1 37.2001L31.6 40.5001L39.3 46.0001L43.9 38.5001L40.1 37.1001Z" fill="#DEDEDE"/>
<path d="M31.6 40.5L28 43.1L29.4 46.7H31.6H33.9L35.3 43.1L31.6 40.5Z" fill="#0C152A"/>
<path d="M33.9 46.7H31.6H29.4L28.3 55.2L31.6 58.6L34.9 55.2L33.9 46.7Z" fill="#2D354C"/>
<path d="M53 41.5999L43.8 38.3999L31.6 58.5999L19.4 38.3999L10.3 41.5999L10.1 64.0999H31.6H53.1L53 41.5999Z" fill="#ED145B"/>
<path d="M43 50V61H45.208V57.3857H47.176C48.248 57.3857 49.16 57.0243 49.896 56.3171C50.632 55.61 51 54.73 51 53.6929C51 52.6557 50.632 51.7757 49.896 51.0686C49.16 50.3614 48.248 50 47.176 50H43ZM45.208 55.3586V52.0271H47.176C48.12 52.0271 48.808 52.7343 48.808 53.6929C48.808 54.6357 48.12 55.3586 47.176 55.3586H45.208Z" fill="white"/>
</g>
</g>
<defs>
<clipPath id="clip0_80_3649">
<rect width="64" height="64" fill="white"/>
</clipPath>
<clipPath id="clip1_80_3649">
<rect width="64" height="64" fill="white"/>
</clipPath>
<clipPath id="clip2_80_3649">
<rect width="63.3" height="27.1" fill="white" transform="translate(0 37)"/>
</clipPath>
</defs>
</svg>
