<svg width="64" height="64" viewBox="0 0 64 64" fill="none" xmlns="http://www.w3.org/2000/svg">
<g clip-path="url(#clip0_80_3683)">
<path d="M64 32C64 49.6733 49.6733 64 32 64C14.3267 64 0 49.6733 0 32C0 14.3267 14.3267 0 32 0C49.6733 0 64 14.3267 64 32Z" fill="#00AEEF"/>
<path d="M32 4C33.1599 4 34.1 4.94008 34.1 6.1C34.1 7.25992 33.1599 8.2 32 8.2C18.8766 8.2 8.2 18.8766 8.2 32C8.2 45.1234 18.8766 55.8 32 55.8C45.1234 55.8 55.8 45.1234 55.8 32C55.8 30.8401 56.7401 29.9 57.9 29.9C59.0599 29.9 60 30.8401 60 32C60 47.4394 47.4394 60 32 60C16.5606 60 4 47.4394 4 32C4 16.5606 16.5606 4 32 4Z" fill="white"/>
<path d="M43.3301 10.76C43.0622 10.76 42.7904 10.7086 42.5273 10.5997L39.6885 9.42394C38.6172 8.97988 38.108 7.7516 38.5521 6.67972C38.9956 5.60839 40.2244 5.0998 41.2957 5.54332L44.1346 6.7191C45.2059 7.16316 45.715 8.39144 45.2715 9.46332C44.9363 10.2721 44.1543 10.76 43.3301 10.76Z" fill="white"/>
<path d="M51.4004 16.8724C50.8628 16.8724 50.3258 16.6673 49.9156 16.2571L47.7429 14.0844C46.9226 13.2641 46.9226 11.9346 47.7429 11.1143C48.5627 10.2946 49.8927 10.2946 50.7124 11.1143L52.8857 13.2876C53.7055 14.1074 53.7055 15.4368 52.8857 16.2571C52.4756 16.6673 51.938 16.8724 51.4004 16.8724Z" fill="white"/>
<path d="M57.3197 25.4478C57.0572 25.5566 56.7849 25.6085 56.5169 25.6085C55.6933 25.6085 54.9113 25.1202 54.5761 24.3113L53.4003 21.4725C52.9568 20.4012 53.4654 19.1724 54.5367 18.7288C55.6086 18.2848 56.8368 18.7939 57.2809 19.8653L58.4567 22.7041C58.9002 23.776 58.3916 25.0042 57.3197 25.4478Z" fill="white"/>
<path d="M32 21.1204C33.1599 21.1204 34.1 22.0604 34.1 23.2204V29.8999H40.7795C41.9394 29.8999 42.8795 30.84 42.8795 31.9999C42.8795 33.1598 41.9394 34.0999 40.7795 34.0999H34.1V40.7794C34.1 41.9393 33.1599 42.8794 32 42.8794C30.8401 42.8794 29.9 41.9393 29.9 40.7794V34.0999H23.2205C22.0605 34.0999 21.1205 33.1598 21.1205 31.9999C21.1205 30.84 22.0605 29.8999 23.2205 29.8999H29.9V23.2204C29.9 22.0604 30.8401 21.1204 32 21.1204Z" fill="white"/>
</g>
<defs>
<clipPath id="clip0_80_3683">
<rect width="64" height="64" fill="white"/>
</clipPath>
</defs>
</svg>
